<?xml version="1.0" encoding="utf-8"?>
<!-- Generator: Adobe Illustrator 23.0.2, SVG Export Plug-In . SVG Version: 6.00 Build 0)  -->
<svg version="1.1" id="Layer_1" xmlns="http://www.w3.org/2000/svg" xmlns:xlink="http://www.w3.org/1999/xlink" x="0px" y="0px"
	 viewBox="0 0 1000 1000" style="enable-background:new 0 0 1000 1000;" xml:space="preserve">
<style type="text/css">
	.st0{opacity:0.7;fill:#F3D02A;}
	.st1{fill:#AA222E;}
	.st2{opacity:0.7;fill:#CC1425;}
	.st3{opacity:0.7;fill:#ACCED4;}
	.st4{opacity:0.7;fill:#9E000F;}
	.st5{opacity:0.7;fill:#454040;}
	.st6{opacity:0.7;fill:#FFB300;}
	.st7{opacity:0.7;fill:#F5D400;}
	.st8{opacity:0.7;}
	.st9{fill:#6BB9B6;}
	.st10{opacity:0.7;fill:#6998A1;}
	.st11{opacity:0.7;fill:#006678;}
</style>
<g>
	<path class="st0" d="M815,426.5c-2-36.1,5.6-72.8,21.9-105.1c2.5-4.9,5-11.2,1.2-15.3c-2.1-2.3-5.5-2.8-8.7-3
		c-33.3-1.9-65.8,14.8-89,38.8c-15.4,15.9-54.2,59.1-35,79.8C722.6,440.2,792.4,425.6,815,426.5z"/>
	<path class="st1" d="M813.3,371.7c0.2-0.3,0.4-0.6,0.6-0.9c-0.1,0.1-0.6,0.8-1.6,2.2c0.1-0.1,0.2-0.2,0.2-0.3
		C812.8,372.4,813,372.1,813.3,371.7z"/>
	<path class="st2" d="M811.7,477.1c14.3-14.1,14.7-39.4,2-54.6c-5,2.3-10.3,4-15.7,4.8c-16.2,2.4-32.6,1.1-48.5-2.2
		c-13.6-2.7-29.8-8-36.6-21.2c-1.2-2.4-2.2-4.8-3-7.2c-0.5-1.4-2.2-1.9-3.4-1c0,0,0,0,0,0c-16.1,13.1-37.3,19.1-58,19.4
		c-58.9,0.7-89.5-5.9-149-5c-29.8,0.5-99.5-21.5-126,3.9c-0.1-0.4-0.1-0.8-0.2-1.1c-13.9,0.1-74.5-4.8-83.3,4.8
		c-10,11,8.2,37.7,11.3,50.4c2.5,10.7-5,132.2-23.2,121.9c19.7,11.2,42.5,16.9,65.1,16.3c3.2-0.1,6.5-0.3,9.1-2.2
		c2.8-2,4.1-5.3,5.3-8.5c0.6-1.6,1.1-3.2,1.7-4.8c0.5,5.3,2.3,10.3,6.1,14.4c6.9,7.5,18.1,8.9,28.2,9.7c41.9,3.2,84.1,3.7,126.1,1.7
		c28.2-1.4,59.8-9.9,86.2-4.8c0.7,0.1,1.5,0.3,2.2,0.5c-0.5-0.9-0.9-1.7-1.3-2.6c-17.4-11.4-34.7-22.9-50.8-36.1
		c-17-13.9-33.9-31.1-39.9-52.9c-3.6-12.9,2.6-25.6,13.3-32.8c13.6-9.1,36.3-10.3,52.1-14c16-3.8,33.3-9.1,49.8-8.8
		c7.6,0.1,9.8-0.7,17,1.6c9.9,3.1,17.5,8.3,25.5,14.6c12.7,10,23,23.2,32.1,36.5c7.2,10.6,13.6,22,18.2,34.1
		c22.8-10.5,50-24.3,67.9-39.9c7,18.2,53,22.6,62.6,5.6C864.2,500.6,831,473.8,811.7,477.1z"/>
	<path class="st0" d="M362.2,401.6c-14.2-18.7-19.8-42.5-23.7-65.6c-2.6-15.6-3.8-34.1,7.9-44.9c7.7-7,19-8.7,29.4-7.6
		c25.7,2.6,47.6,19,67.9,34.9c2,1.6,4.3,3.5,4.6,6c0.4,2.9-1.8,5.4-3.9,7.5c-13.7,14.3-27.5,28.6-41.2,42.9
		c-6.4,6.6-13,13.4-21.7,16.6s-19.8,1.5-24.8-6.2"/>
	<path class="st3" d="M423.1,395.2c9.4-13.2,18.9-26.6,31.5-36.8s28.8-17,44.9-14.7c26.5,3.7,44.5,31.4,45.3,58.2
		c-42.4,2-85.1-4-125.2-17.7"/>
	<path class="st3" d="M591.1,407.9c-6.3-5.4-8.9-14.7-6.4-22.6c13.3-0.1,25.9,10.3,28.5,23.3"/>
	<path class="st4" d="M464.9,629.7c1.1,9.2,3.5,18.2,7,26.8c-7.6,4.6-9.4,16.5-3.4,23.1c5.8-14.8,20.2-25.8,36-27.3
		c0.1-3.1,0.1-6.2,0.2-9.2c-6.5-0.5-13,0.5-19.1,2.8c-0.4-7.5-0.8-15-1.1-22.5c-6.6,0.6-13.4-0.5-19.4-3.3"/>
	<path class="st5" d="M508.2,652.7c-5.2,2.4-10.5,4.8-15.8,7.3c-7,9.7-1.7,25.7,9.7,29.3c11.5,3.6,24.9-6.5,24.7-18.5
		c-0.2-12-14.1-21.6-25.4-17.5"/>
	<path class="st5" d="M341.5,612c-3.4,9.4,3.8,20.1,13.3,23.4s19.9,0.8,29-3.3c2.8-1.2,5.8-3,6.2-6c0.6-3.7-2.9-6.6-6.1-8.4
		c-10.4-5.7-22.3-8.5-34.1-8"/>
	<path class="st6" d="M215,472.7c16.7,4.7,26.9,25,20.8,41.2c-2.1-5.2-10.7-3.9-13.4,1.1c-2.6,4.9-1.2,11,0.3,16.4
		c1.5,5.4,3,11.4,0.5,16.4c-14.4-4.2-29.7-8.9-39.1-20.6s-8.5-32.6,5.2-38.5c7.3-3.1,16.7-1.6,22.4-7.1"/>
	<path class="st4" d="M499.4,329.4c20.4,1,35,19.1,46.9,35.7c6.4,9,13,18.2,15.8,28.9c1.5,5.4,0.4,16.5,3.4,21.2
		c3,4.7,14.6,2,19.1-1.5c0-10.9-3.2-21.3-3.3-32.2c0-5.2,1.6-12.1,6.8-12.2c2.2,0,4.1,1.4,5.8,2.7c12.1,9.4,24.8,19.5,30.2,33.9
		c1.5,4-0.2,10.7-4.2,9c4.6,3.3,10.8,4.1,16.1,2.3c1.3-13.3-6.1-25.8-14.5-36.2c-25.9-32.4-63.8-54.9-104.6-62.1
		c-6.3-1.1-12.8-1.9-19.1-1.2c-21.7,2.4-130.4,93.1-81.2,76.2C436.1,375,467,327.9,499.4,329.4z"/>
	<path class="st7" d="M257.3,539.7c-3.1,5.8-7.1,11.3-8.3,17.7c-2,10.6,5.2,22.1,15.6,25c18.6-27.4,55.5-134.3,17.5-161.2
		c-30.6-21.7-23.9,21-21.4,37.5C265,486.8,271.9,512.8,257.3,539.7z"/>
	<g class="st8">
		<path class="st9" d="M138.3,349.1c-4,2.9,40.5,83.3,49.6,89c-9.4-30.7-20.4-61-30-91.8C151.4,344.1,143.9,345.2,138.3,349.1z"/>
		<path class="st9" d="M260.3,569.2l-15.9-35.7c-2.5,3.1-6,5.5-10.1,6.8c-0.2,0.1-0.4,0.1-0.7,0.2c16.3,45.1,32.6,90.3,48.8,135.4
			c2.8-9.9,14.4-16.3,24.3-13.5C288.7,632.8,274.5,601,260.3,569.2z"/>
	</g>
	<path class="st10" d="M452,395.3c-0.5-9.4,4.9-18.8,13.2-23.1c9.5,2,17.7,9.3,20.9,18.5c3.3-8.2,14.1-9.9,23-9.6
		c5.8,0.1,12,0.7,16.2,4.6s4.4,12.3-0.9,14.5c-2.2,0.9-4.7,0.5-7.1,0.1c-24.1-4-48.2-7.9-72.4-11.8"/>
	<path class="st11" d="M225.6,475.1c-3.2-14.7,1.9-30.9,13.1-41c1.4-1.2,3-2.5,4.8-2.5c3.1,0,5.1,3.1,6.6,5.9
		c9.1,18.1,17.7,36.8,20.2,56.9s-1.8,41.9-15.7,56.5c-4.3-9.1-11.5-16.7-20.3-21.5c17.8-19,10.8-54.8-12.8-65.7"/>
	<g>
		<path d="M225.5,425.6c-6.2,17.9-9.6,36.6-10.3,55.5c-0.2,5.6,8.5,5.6,8.7,0c0.7-18.2,4.1-36,10-53.2
			C235.7,422.6,227.3,420.4,225.5,425.6L225.5,425.6z"/>
	</g>
	<g>
		<path d="M231.8,434.1c2.5-4.8,8.3-4.4,11.7-0.5c3.7,4.2,6.2,10.1,8.6,15.1c5.3,10.5,9.3,21.7,11.8,33.2c5,22.6,3.3,46.4-6.5,67.5
			c-2.4,5,5.1,9.5,7.5,4.4c9.2-19.8,12.2-41.5,9.3-63c-1.5-11-4.3-21.7-8.2-32c-3.9-10.1-8.6-20.7-15-29.5
			c-6.6-9.2-21.2-10.1-26.8,0.6C221.7,434.7,229.2,439.1,231.8,434.1L231.8,434.1z"/>
	</g>
	<g>
		<path d="M242.4,425.1c11.3-4.5,23.4-5.9,35.3-3.5c5.5,1.1,7.8-7.3,2.3-8.4c-13.4-2.6-27.2-1.6-39.9,3.5
			C234.9,418.7,237.2,427.1,242.4,425.1L242.4,425.1z"/>
	</g>
	<g>
		<path d="M271.9,417.2c22.8,38.9,27,87.2,12.8,129.9c-4,12.2-9.6,23.7-16.6,34.5c-3,4.7,4.5,9.1,7.5,4.4
			c25.8-39.8,32.5-90.9,19.5-136.4c-3.7-12.9-9-25.2-15.7-36.8C276.6,408,269.1,412.3,271.9,417.2L271.9,417.2z"/>
	</g>
	<g>
		<path d="M223.4,468.7c-13.4,2-26.4,6.7-37.8,13.8c-10.7,6.6-18.2,16.6-14.6,29.7c3.3,11.9,13.1,21.6,22.8,28.8
			c9.9,7.3,21.4,12.4,33.4,14.8c5.5,1.1,7.8-7.3,2.3-8.4c-10.2-2.1-19.9-6-28.5-11.9c-8.4-5.7-17.2-13.7-20.9-23.4
			c-1.8-4.7-2.1-9.8,0.7-14.1c2.9-4.5,7.9-7.4,12.4-10c10.1-5.7,21.1-9.3,32.5-11C231.3,476.2,228.9,467.9,223.4,468.7L223.4,468.7z
			"/>
	</g>
	<g>
		<path d="M225.8,478.5c8.3,1.6,13.4,9,14.9,17c2,10.6-2.4,21.6-6,31.3c-1.9,5.3,6.5,7.5,8.4,2.3c4.4-12,9-25.1,5.6-37.9
			c-2.6-9.9-10-19.1-20.5-21.1C222.6,469,220.2,477.4,225.8,478.5L225.8,478.5z"/>
	</g>
	<g>
		<path d="M242.8,430.9c55.2-15.6,112-24.7,169.3-26.9c5.6-0.2,5.6-8.9,0-8.7c-58,2.2-115.7,11.3-171.6,27.2
			C235.1,424,237.4,432.4,242.8,430.9L242.8,430.9z"/>
	</g>
	<g>
		<path d="M390.2,406.9c25-34.1,53.8-69.8,96-82.4c20.3-6,41.7-5.6,61.1,3.2c19.1,8.7,36,22.6,52.1,35.9c17.1,14.1,33.9,30.4,41,52
			c1.7,5.3,10.1,3,8.4-2.3c-6.6-20.2-20.8-36.4-36.6-50.2c-8.2-7.2-16.9-13.9-25.5-20.5c-9-6.9-18.3-13.6-28.3-19
			c-20.3-10.9-42.5-14.3-65.1-9.7c-22.1,4.5-42.1,15.8-59.2,30.2c-19.9,16.8-35.9,37.6-51.2,58.5C379.4,407,386.9,411.4,390.2,406.9
			L390.2,406.9z"/>
	</g>
	<g>
		<path d="M429.5,392.4c8-9.6,16.4-18.8,25.3-27.5c8.1-8,16.8-16.6,27.6-20.9c20.8-8.2,42.2,5.4,53.8,22.2
			c7.4,10.7,12.3,22.8,16.7,35c1.9,5.2,10.3,3,8.4-2.3c-8.3-22.7-18.9-46.9-41-59.2c-10.1-5.6-21.9-8.3-33.4-6.1
			c-12.1,2.3-22.2,10.2-31,18.3c-11.6,10.6-22.4,22.2-32.5,34.3C419.8,390.5,426,396.7,429.5,392.4L429.5,392.4z"/>
	</g>
	<g>
		<path d="M441.7,401.1c36.3,3.9,72.7,7.8,109,11.7c5.6,0.6,5.5-8.1,0-8.7c-36.3-3.9-72.7-7.8-109-11.7
			C436.2,391.8,436.2,400.5,441.7,401.1L441.7,401.1z"/>
	</g>
	<g>
		<path d="M592.4,407.6c-1-10.2-3.5-20-7.5-29.4c0.2,1.1,0.3,2.2,0.4,3.4c1-2.3,6.2-0.9,7.8-0.4c3.8,1.2,7.5,3.6,10.7,5.9
			c7.3,5.1,13.2,12,17.6,19.8c2.7,4.9,10.2,0.5,7.5-4.4c-4-7.2-9.4-13.8-15.8-19.1c-5.7-4.7-12.6-9.6-19.9-11.1
			c-5.8-1.2-14.7-0.1-16.3,7c-0.5,2.2,0.8,4.1,1.5,6c1,2.5,1.8,5.1,2.5,7.6c1.3,4.8,2.3,9.7,2.7,14.7
			C584.3,413.1,593,413.2,592.4,407.6L592.4,407.6z"/>
	</g>
	<path class="st0" d="M566.7,566.5c19.7,16.4,39.5,30.2,58.7,47.1c25.7,22.7,49.7,52,82.5,62.5c7.9,2.5,16.7,3.8,24.3,0.5
		c9.8-4.2,15.3-15.2,15.9-25.8s6.3-27.3,2.6-37.2c-16.8-44.6-48.7-80.6-76.4-119.5c-3.4-4.8-7.1-9.7-12.2-12.5
		c-6.7-3.7-14.8-3.4-22.5-2.9c-23.2,1.5-92.2-1.9-109.7,14.3C507.8,513.2,549.6,552.1,566.7,566.5z"/>
	<g>
		<path d="M592.9,412.2c9.6-1.3,19.2-1.1,28.7,0.8c5.5,1.1,7.8-7.3,2.3-8.4c-10.3-2-20.7-2.5-31-1.1c-2.3,0.3-4.3,1.8-4.3,4.4
			C588.5,409.9,590.6,412.5,592.9,412.2L592.9,412.2z"/>
	</g>
	<path class="st0" d="M805,472c-5.2,6.2-14.3,6.7-21.8,9.7s-13.9,13.2-7.9,18.6c1.4,1.3,3.2,1.9,5,2.6c17.1,6.2,34.3,12.5,51.4,18.7
		c5.9,2.2,12.1,4.3,18.3,3.8s12.7-4.7,13.8-10.9c1.3-7.4-5.1-13.8-11.2-18.2c-15.6-11.5-33-20.6-51.3-26.9"/>
	<g>
		<path d="M267.7,599.8c43.4,18.4,90.1,26,137,28.3c23.6,1.2,47.3,1.2,71,0.7c20-0.4,40-0.8,59.9-2.1c20.3-1.3,41-2.6,60.9-6.9
			c5.5-1.2,3.2-9.5-2.3-8.4c-17.1,3.6-34.8,4.9-52.2,6.1c-18.8,1.3-37.6,1.8-56.5,2.3c-46.2,1.1-92.9,1.1-138.6-6.5
			c-25.6-4.3-50.9-11-74.8-21.2c-2.2-0.9-4.6-0.6-6,1.6C265,595.7,265.5,598.9,267.7,599.8L267.7,599.8z"/>
	</g>
	<g>
		<path d="M500.5,517.1c49.3,49.8,100.9,97.3,154.5,142.3c7.4,6.2,14.8,12.3,22.2,18.4c5.6,4.6,13.9,13.3,21.3,6.8
			c4.2-3.7-2-9.9-6.2-6.2c-1,0.9-15.8-12.4-17.5-13.7c-6.3-5.2-12.7-10.5-19-15.8c-12.6-10.6-25.1-21.4-37.4-32.3
			c-24.5-21.7-48.6-43.8-72.2-66.5c-13.4-12.8-26.6-25.9-39.6-39C502.7,507,496.5,513.1,500.5,517.1L500.5,517.1z"/>
	</g>
	<g>
		<path d="M555.2,494.9c14.2-2.9,28.5-5.9,42.7-8.8c7-1.4,14-2.9,21-4.3c6.8-1.4,13.7-3.3,20.6-3.7c13.6-0.8,22.8,8.7,31.7,17.7
			c8.8,8.8,16.8,18.4,24.1,28.4c14.9,20.3,27.4,42.3,39.5,64.3c11.4,20.7,26.6,44.4,20.2,69.1c-3,11.7-10.9,21.2-22.8,24.3
			c-12.7,3.3-26.5-0.3-38.1-5.5c-5.1-2.3-9.5,5.2-4.4,7.5c22.1,10,51.5,13.3,67.1-9.3c15.6-22.6,6.5-51-5-73.1
			c-12.7-24.4-26.4-48.8-41.9-71.6c-7.6-11.2-15.9-22.1-25-32.2c-8.5-9.4-18.2-20.7-30-25.8c-7.7-3.3-15.9-2.9-24-1.5
			c-8.6,1.5-17.1,3.5-25.6,5.2c-17.5,3.6-35,7.2-52.5,10.8C547.4,487.6,549.7,496,555.2,494.9L555.2,494.9z"/>
	</g>
	<g>
		<path d="M360,399.2c-11-14.8-19.2-31.5-24-49.3c-4-15-6.2-31.4-1.4-46.4c5-15.5,18.4-23.8,34.5-23.4c17.3,0.5,34.5,8.2,49.7,16
			c18.3,9.4,35.1,21.4,49.9,35.6c4,3.9,10.2-2.3,6.1-6.1c-14.5-13.8-30.8-25.8-48.4-35.2c-16.6-8.9-35-17.1-53.9-18.7
			c-17.8-1.5-35.2,5.7-43.3,22.2c-7.3,14.8-7.1,32.2-4,48.1c4.3,22.2,13.8,43.4,27.3,61.6C355.8,408.1,363.3,403.7,360,399.2
			L360,399.2z"/>
	</g>
	<g>
		<path d="M133,355.6c18.8,36.8,37.6,73.6,56.4,110.4c2.6,5,10.1,0.6,7.5-4.4c-18.8-36.8-37.6-73.6-56.4-110.4
			C137.9,346.2,130.4,350.6,133,355.6L133,355.6z"/>
	</g>
	<g>
		<path d="M142.7,360.3c3.1-6.3,7.9-10.9,14.3-13.9c-2-0.5-4-1-5.9-1.6c20.3,44,39.7,88.4,58.1,133.2c2.1,5.1,10.5,2.9,8.4-2.3
			c-18.7-45.5-38.3-90.7-59-135.3c-1.1-2.3-4-2.5-5.9-1.6c-7.5,3.5-13.7,9.6-17.4,17C132.7,360.9,140.2,365.3,142.7,360.3
			L142.7,360.3z"/>
	</g>
	<g>
		<path d="M223.2,541.9c10.1,24.9,20.2,49.8,30.2,74.7c5,12.5,10.1,24.9,15.1,37.3c5,12.3,9.4,25.1,15,37.1c1.2,2.5,3.1,4.6,6,5
			c2.6,0.3,5-1.2,5.7-3.7c1.5-5.3-4.3-9.2-8.4-5.7c-4.3,3.6,1.9,9.7,6.1,6.2c0.1-0.1,0.2-0.2,0.3-0.3c-1.4,0.4-2.8,0.8-4.2,1.1
			c5.7,0.8,1.4-8.3,0.8-9.9c-0.5-1.3-1.1-2.7-1.6-4c-1.3-3.1-2.5-6.2-3.8-9.3c-2.5-6.2-5-12.5-7.6-18.7c-5-12.5-10.1-24.9-15.1-37.3
			c-10.1-24.9-20.2-49.8-30.2-74.7C229.5,534.5,221.1,536.7,223.2,541.9L223.2,541.9z"/>
	</g>
	<g>
		<path d="M230.1,516.3c27.8,53.3,55.5,106.6,83.3,159.9c2.6,5,10.1,0.6,7.5-4.4c-27.8-53.3-55.5-106.6-83.3-159.9
			C235.1,506.9,227.5,511.3,230.1,516.3L230.1,516.3z"/>
	</g>
	<g>
		<path d="M278.1,681.9c11.7,11,32.8,5.4,37.5-10c1.6-5.4-6.7-7.7-8.4-2.3c-2.8,9-16.1,12.6-23,6.1
			C280.2,672,274.1,678.1,278.1,681.9L278.1,681.9z"/>
	</g>
	<g>
		<path d="M642.4,411.6c12.8-1.4,25.8-1.2,38.6,0.9c5.5,0.9,7.8-7.5,2.3-8.4c-13.6-2.2-27.2-2.7-40.9-1.2
			C636.9,403.5,636.8,412.2,642.4,411.6L642.4,411.6z"/>
	</g>
	<g>
		<path d="M693.2,426c7.8-14.6,15.6-29.3,23.4-43.9c7.2-13.5,13.9-27.7,22.4-40.5c7.3-11,16.8-19.5,28.7-25.3
			c11.1-5.3,23.4-8,35.6-9.4c14.3-1.6,28.8-1.5,43.1-1.2c5.6,0.1,5.6-8.6,0-8.7c-25.9-0.5-53.4-0.6-77.7,9.5
			c-12.2,5-23.1,12.6-31.4,22.9c-9.8,12.1-16.5,26.4-23.8,40.1c-9.3,17.4-18.5,34.8-27.8,52.2C683.1,426.6,690.6,431,693.2,426
			L693.2,426z"/>
	</g>
	<g>
		<path d="M841.2,303.6c3,9.2,0,18.5-3.8,27c-3.8,8.5-8,16.9-11.6,25.5c-7.3,17.8-12.6,36.3-16,55.2c-1,5.5,7.4,7.8,8.4,2.3
			c3.5-19.8,9.2-39.2,17-57.7c7.1-16.9,20.5-35.5,14.4-54.6C847.9,296,839.5,298.3,841.2,303.6L841.2,303.6z"/>
	</g>
	<g>
		<path d="M793.6,467.5c12.9,5.2,25.4,11.3,37.5,18.3c5.8,3.3,11.5,6.8,16.9,10.6c4.6,3.2,9.2,6.9,12,11.8c4.6,8,1.6,21.4-9.7,19
			c-7-1.5-14-4.6-20.8-6.9c-7-2.4-14.1-4.8-21.1-7.2c-7.4-2.5-14.9-5-22.3-7.6c-6.5-2.3-12.7-5.1-17.3-10.3c-3.7-4.2-9.8,2-6.2,6.1
			c9.8,11.1,26.6,14.4,40.1,19c8.4,2.9,16.8,5.7,25.2,8.6c7.6,2.6,15.8,6.5,23.8,7.2c12.9,1.2,20.6-11.8,19-23.4
			c-1.9-13.8-15.3-22.2-26-28.9c-15.5-9.7-31.8-17.9-48.7-24.7C790.7,457,788.5,465.5,793.6,467.5L793.6,467.5z"/>
	</g>
	<g>
		<path d="M762.7,495.4c7.4-5.8,16-9.6,25.1-11.8c5.4-1.3,3.1-9.7-2.3-8.4c-10.7,2.5-20.3,7.3-29,14c-1.9,1.5-1.5,4.6,0,6.1
			C758.4,497.2,760.9,496.8,762.7,495.4L762.7,495.4z"/>
	</g>
	<g>
		<path d="M813.3,429.2c8.5,0.1,14.5,8.9,14.8,16.8c0.4,10.6-6.5,20-13.4,27.3c-3.8,4.1,2.3,10.2,6.2,6.1
			c9.1-9.8,17.6-22.5,15.6-36.5c-1.7-11.7-10.9-22.4-23.2-22.5C807.7,420.4,807.7,429.1,813.3,429.2L813.3,429.2z"/>
	</g>
	<g>
		<path d="M727.2,566.7c27.1-11,52.7-25.2,76.1-42.8c4.4-3.3,0.1-10.9-4.4-7.5c-22.8,17-47.7,31.2-74,41.9
			C719.8,560.4,722,568.8,727.2,566.7L727.2,566.7z"/>
	</g>
	<g>
		<path d="M711.3,492.3c12.3-2.7,24.7-5.3,37-8c5.5-1.2,3.2-9.6-2.3-8.4c-12.3,2.7-24.7,5.3-37,8
			C703.5,485.1,705.8,493.4,711.3,492.3L711.3,492.3z"/>
	</g>
	<g>
		<path d="M461.9,392.9c-1.4-7.8,5.4-16.3,13.4-16.5c8-0.1,15,8.4,13.7,16.2c-0.9,5.5,7.5,7.8,8.4,2.3c2.2-13.3-8.1-27.3-22.1-27.2
			c-14,0.1-24.2,14.2-21.8,27.5C454.5,400.7,462.9,398.4,461.9,392.9L461.9,392.9z"/>
	</g>
	<g>
		<path d="M500.9,397.6c1.5-6.7,7.6-12.1,14.6-11.9c6.7,0.2,13,5.9,13.8,12.6c0.7,5.5,9.4,5.5,8.7,0c-1.4-11.2-10-20.4-21.5-21.3
			c-11.1-0.9-21.6,7.6-24,18.2C491.3,400.7,499.7,403,500.9,397.6L500.9,397.6z"/>
	</g>
	<g>
		<path d="M465.6,622.4c-7,10.5-8.5,24-3.8,35.7c2.1,5.1,10.5,2.9,8.4-2.3c-3.9-9.7-3-20.3,2.9-29
			C476.3,622.1,468.7,617.8,465.6,622.4L465.6,622.4z"/>
	</g>
	<g>
		<path d="M485.1,626.8c-3.1,4.7-3.9,10.4-2.5,15.8c1.4,5.4,9.8,3.1,8.4-2.3c-0.9-3.3-0.2-6.3,1.6-9.1
			C495.7,626.5,488.2,622.2,485.1,626.8L485.1,626.8z"/>
	</g>
	<g>
		<path d="M484.5,644.3c4.1,1.8,7.6,1.2,11.6-0.6c1.5-0.7,3-1.9,4.6-2.2c0.6-0.1,1.2,0.1,1.7,0c1.8-0.3-0.1,2.1,0.4-1.1
			c-0.9,5.5,7.5,7.8,8.4,2.3c0.8-5.1-2.3-8.8-7.3-9.7c-2.4-0.4-4.8-0.2-7.1,0.7c-1.9,0.7-6,4.1-8,3.2
			C483.8,634.5,479.4,642,484.5,644.3L484.5,644.3z"/>
	</g>
	<g>
		<path d="M464.3,656.4c-7.9,8.3-1.3,24.1,10.5,23.5c5.6-0.3,5.6-9,0-8.7c-3.9,0.2-7.2-5.6-4.3-8.6
			C474.3,658.5,468.1,652.3,464.3,656.4L464.3,656.4z"/>
	</g>
	<g>
		<path d="M487,680.1c3.7-10.9,11.7-19.6,21.9-24.7c5-2.5,0.6-10-4.4-7.5c-12.3,6.1-21.5,16.9-25.9,29.8
			C476.8,683.1,485.2,685.4,487,680.1L487,680.1z"/>
	</g>
	<g>
		<path d="M510.9,659.3c3.7-2.1,8.1,0.4,10.2,3.7c2.8,4.3,1,9.9-1.7,13.8c-4.8,6.7-17.7,14.4-24.5,6.4c-3.6-4.3-9.8,1.9-6.1,6.2
			c11.5,13.5,33.3,1.9,39.8-10.9c3.7-7.2,3.7-15.8-1.7-22.1c-5-5.9-13.4-8.4-20.3-4.4C501.7,654.6,506.1,662.1,510.9,659.3
			L510.9,659.3z"/>
	</g>
	<g>
		<path d="M336.4,628.2c5.5,10.2,16.4,17.1,28,17.4c11.7,0.4,22.8-6.1,28.9-15.9c3-4.8-4.5-9.1-7.5-4.4
			c-4.6,7.3-12.8,11.8-21.4,11.6c-8.7-0.3-16.4-5.6-20.5-13.1C341.2,618.9,333.7,623.3,336.4,628.2L336.4,628.2z"/>
	</g>
	<g>
		<path d="M723.5,635.1c2.1-6.7,8.2-11.7,15.3-12.2c5.5-0.4,5.6-9.1,0-8.7c-11,0.7-20.4,8-23.7,18.5
			C713.5,638.1,721.9,640.4,723.5,635.1L723.5,635.1z"/>
	</g>
	<g>
		<path d="M561.8,419.5c9.5,1.5,19,0.9,28.1-2c5.3-1.7,3-10.1-2.3-8.4c-7.6,2.4-15.6,3.2-23.5,2
			C558.7,410.3,556.3,418.6,561.8,419.5L561.8,419.5z"/>
	</g>
	<g>
		<path d="M617.2,412c-0.2,5.8,4.5,10.2,10,11c6.3,0.9,11.5-3.1,16.1-6.9c4.3-3.6-1.9-9.7-6.2-6.1c-2,1.7-4.3,3.8-7,4.3
			c-1.8,0.4-4.3-0.1-4.2-2.3C626.2,406.4,617.5,406.5,617.2,412L617.2,412z"/>
	</g>
	<g>
		<path d="M351.2,616.3c22.3-27.4,20.6-63.7,16.6-96.8c-0.7-5.5-9.4-5.5-8.7,0c3.6,30.2,6.5,65.3-14.1,90.6
			C341.5,614.5,347.7,620.7,351.2,616.3L351.2,616.3z"/>
	</g>
</g>
</svg>
