<svg xmlns="http://www.w3.org/2000/svg" width="1000" height="1000"><style>.st0,.st4{opacity:.7;fill:#f3d02a}.st4{fill:#9e000f}</style><path class="st0" d="M815 426.5c-2-36.1 5.6-72.8 21.9-105.1 2.5-4.9 5-11.2 1.2-15.3-2.1-2.3-5.5-2.8-8.7-3-33.3-1.9-65.8 14.8-89 38.8-15.4 15.9-54.2 59.1-35 79.8 17.2 18.5 87 3.9 109.6 4.8z"/><path d="M813.3 371.7l.6-.9c-.1.1-.6.8-1.6 2.2.1-.1.2-.2.2-.3.3-.3.5-.6.8-1z" fill="#aa222e"/><path d="M811.7 477.1c14.3-14.1 14.7-39.4 2-54.6-5 2.3-10.3 4-15.7 4.8-16.2 2.4-32.6 1.1-48.5-2.2-13.6-2.7-29.8-8-36.6-21.2-1.2-2.4-2.2-4.8-3-7.2-.5-1.4-2.2-1.9-3.4-1-16.1 13.1-37.3 19.1-58 19.4-58.9.7-89.5-5.9-149-5-29.8.5-99.5-21.5-126 3.9-.1-.4-.1-.8-.2-1.1-13.9.1-74.5-4.8-83.3 4.8-10 11 8.2 37.7 11.3 50.4 2.5 10.7-5 132.2-23.2 121.9 19.7 11.2 42.5 16.9 65.1 16.3 3.2-.1 6.5-.3 9.1-2.2 2.8-2 4.1-5.3 5.3-8.5.6-1.6 1.1-3.2 1.7-4.8.5 5.3 2.3 10.3 6.1 14.4 6.9 7.5 18.1 8.9 28.2 9.7 41.9 3.2 84.1 3.7 126.1 1.7 28.2-1.4 59.8-9.9 86.2-4.8.7.1 1.5.3 2.2.5-.5-.9-.9-1.7-1.3-2.6-17.4-11.4-34.7-22.9-50.8-36.1-17-13.9-33.9-31.1-39.9-52.9-3.6-12.9 2.6-25.6 13.3-32.8 13.6-9.1 36.3-10.3 52.1-14 16-3.8 33.3-9.1 49.8-8.8 7.6.1 9.8-.7 17 1.6 9.9 3.1 17.5 8.3 25.5 14.6 12.7 10 23 23.2 32.1 36.5 7.2 10.6 13.6 22 18.2 34.1 22.8-10.5 50-24.3 67.9-39.9 7 18.2 53 22.6 62.6 5.6 9.6-17-23.6-43.8-42.9-40.5z" opacity=".7" fill="#cc1425"/><path class="st0" d="M362.2 401.6c-14.2-18.7-19.8-42.5-23.7-65.6-2.6-15.6-3.8-34.1 7.9-44.9 7.7-7 19-8.7 29.4-7.6 25.7 2.6 47.6 19 67.9 34.9 2 1.6 4.3 3.5 4.6 6 .4 2.9-1.8 5.4-3.9 7.5-13.7 14.3-27.5 28.6-41.2 42.9-6.4 6.6-13 13.4-21.7 16.6s-19.8 1.5-24.8-6.2"/><path d="M423.1 395.2c9.4-13.2 18.9-26.6 31.5-36.8s28.8-17 44.9-14.7c26.5 3.7 44.5 31.4 45.3 58.2-42.4 2-85.1-4-125.2-17.7m171.5 23.7c-6.3-5.4-8.9-14.7-6.4-22.6 13.3-.1 25.9 10.3 28.5 23.3" opacity=".7" fill="#acced4"/><path class="st4" d="M464.9 629.7c1.1 9.2 3.5 18.2 7 26.8-7.6 4.6-9.4 16.5-3.4 23.1 5.8-14.8 20.2-25.8 36-27.3.1-3.1.1-6.2.2-9.2-6.5-.5-13 .5-19.1 2.8-.4-7.5-.8-15-1.1-22.5-6.6.6-13.4-.5-19.4-3.3"/><path d="M508.2 652.7c-5.2 2.4-10.5 4.8-15.8 7.3-7 9.7-1.7 25.7 9.7 29.3 11.5 3.6 24.9-6.5 24.7-18.5-.2-12-14.1-21.6-25.4-17.5M341.5 612c-3.4 9.4 3.8 20.1 13.3 23.4s19.9.8 29-3.3c2.8-1.2 5.8-3 6.2-6 .6-3.7-2.9-6.6-6.1-8.4-10.4-5.7-22.3-8.5-34.1-8" fill="#454040" opacity=".7"/><path d="M215 472.7c16.7 4.7 26.9 25 20.8 41.2-2.1-5.2-10.7-3.9-13.4 1.1-2.6 4.9-1.2 11 .3 16.4 1.5 5.4 3 11.4.5 16.4-14.4-4.2-29.7-8.9-39.1-20.6s-8.5-32.6 5.2-38.5c7.3-3.1 16.7-1.6 22.4-7.1" opacity=".7" fill="#ffb300"/><path class="st4" d="M499.4 329.4c20.4 1 35 19.1 46.9 35.7 6.4 9 13 18.2 15.8 28.9 1.5 5.4.4 16.5 3.4 21.2 3 4.7 14.6 2 19.1-1.5 0-10.9-3.2-21.3-3.3-32.2 0-5.2 1.6-12.1 6.8-12.2 2.2 0 4.1 1.4 5.8 2.7 12.1 9.4 24.8 19.5 30.2 33.9 1.5 4-.2 10.7-4.2 9 4.6 3.3 10.8 4.1 16.1 2.3 1.3-13.3-6.1-25.8-14.5-36.2-25.9-32.4-63.8-54.9-104.6-62.1-6.3-1.1-12.8-1.9-19.1-1.2-21.7 2.4-130.4 93.1-81.2 76.2 19.5-18.9 50.4-66 82.8-64.5z"/><path d="M257.3 539.7c-3.1 5.8-7.1 11.3-8.3 17.7-2 10.6 5.2 22.1 15.6 25 18.6-27.4 55.5-134.3 17.5-161.2-30.6-21.7-23.9 21-21.4 37.5 4.3 28.1 11.2 54.1-3.4 81z" opacity=".7" fill="#f5d400"/><path d="M138.3 349.1c-4 2.9 40.5 83.3 49.6 89-9.4-30.7-20.4-61-30-91.8-6.5-2.2-14-1.1-19.6 2.8zm122 220.1l-15.9-35.7c-2.5 3.1-6 5.5-10.1 6.8-.2.1-.4.1-.7.2 16.3 45.1 32.6 90.3 48.8 135.4 2.8-9.9 14.4-16.3 24.3-13.5-18-29.6-32.2-61.4-46.4-93.2z" fill="#6bb9b6" opacity=".7"/><path d="M452 395.3c-.5-9.4 4.9-18.8 13.2-23.1 9.5 2 17.7 9.3 20.9 18.5 3.3-8.2 14.1-9.9 23-9.6 5.8.1 12 .7 16.2 4.6s4.4 12.3-.9 14.5c-2.2.9-4.7.5-7.1.1-24.1-4-48.2-7.9-72.4-11.8" opacity=".7" fill="#6998a1"/><path d="M225.6 475.1c-3.2-14.7 1.9-30.9 13.1-41 1.4-1.2 3-2.5 4.8-2.5 3.1 0 5.1 3.1 6.6 5.9 9.1 18.1 17.7 36.8 20.2 56.9s-1.8 41.9-15.7 56.5c-4.3-9.1-11.5-16.7-20.3-21.5 17.8-19 10.8-54.8-12.8-65.7" opacity=".7" fill="#006678"/><path d="M225.5 425.6c-6.2 17.9-9.6 36.6-10.3 55.5-.2 5.6 8.5 5.6 8.7 0 .7-18.2 4.1-36 10-53.2 1.8-5.3-6.6-7.5-8.4-2.3z"/><path d="M231.8 434.1c2.5-4.8 8.3-4.4 11.7-.5 3.7 4.2 6.2 10.1 8.6 15.1 5.3 10.5 9.3 21.7 11.8 33.2 5 22.6 3.3 46.4-6.5 67.5-2.4 5 5.1 9.5 7.5 4.4 9.2-19.8 12.2-41.5 9.3-63-1.5-11-4.3-21.7-8.2-32-3.9-10.1-8.6-20.7-15-29.5-6.6-9.2-21.2-10.1-26.8.6-2.5 4.8 5 9.2 7.6 4.2z"/><path d="M242.4 425.1c11.3-4.5 23.4-5.9 35.3-3.5 5.5 1.1 7.8-7.3 2.3-8.4-13.4-2.6-27.2-1.6-39.9 3.5-5.2 2-2.9 10.4 2.3 8.4z"/><path d="M271.9 417.2c22.8 38.9 27 87.2 12.8 129.9-4 12.2-9.6 23.7-16.6 34.5-3 4.7 4.5 9.1 7.5 4.4 25.8-39.8 32.5-90.9 19.5-136.4-3.7-12.9-9-25.2-15.7-36.8-2.8-4.8-10.3-.5-7.5 4.4zm-48.5 51.5c-13.4 2-26.4 6.7-37.8 13.8-10.7 6.6-18.2 16.6-14.6 29.7 3.3 11.9 13.1 21.6 22.8 28.8 9.9 7.3 21.4 12.4 33.4 14.8 5.5 1.1 7.8-7.3 2.3-8.4-10.2-2.1-19.9-6-28.5-11.9-8.4-5.7-17.2-13.7-20.9-23.4-1.8-4.7-2.1-9.8.7-14.1 2.9-4.5 7.9-7.4 12.4-10 10.1-5.7 21.1-9.3 32.5-11 5.6-.8 3.2-9.1-2.3-8.3z"/><path d="M225.8 478.5c8.3 1.6 13.4 9 14.9 17 2 10.6-2.4 21.6-6 31.3-1.9 5.3 6.5 7.5 8.4 2.3 4.4-12 9-25.1 5.6-37.9-2.6-9.9-10-19.1-20.5-21.1-5.6-1.1-8 7.3-2.4 8.4zm17-47.6c55.2-15.6 112-24.7 169.3-26.9 5.6-.2 5.6-8.9 0-8.7-58 2.2-115.7 11.3-171.6 27.2-5.4 1.5-3.1 9.9 2.3 8.4z"/><path d="M390.2 406.9c25-34.1 53.8-69.8 96-82.4 20.3-6 41.7-5.6 61.1 3.2 19.1 8.7 36 22.6 52.1 35.9 17.1 14.1 33.9 30.4 41 52 1.7 5.3 10.1 3 8.4-2.3-6.6-20.2-20.8-36.4-36.6-50.2-8.2-7.2-16.9-13.9-25.5-20.5-9-6.9-18.3-13.6-28.3-19-20.3-10.9-42.5-14.3-65.1-9.7-22.1 4.5-42.1 15.8-59.2 30.2-19.9 16.8-35.9 37.6-51.2 58.5-3.5 4.4 4 8.8 7.3 4.3z"/><path d="M429.5 392.4c8-9.6 16.4-18.8 25.3-27.5 8.1-8 16.8-16.6 27.6-20.9 20.8-8.2 42.2 5.4 53.8 22.2 7.4 10.7 12.3 22.8 16.7 35 1.9 5.2 10.3 3 8.4-2.3-8.3-22.7-18.9-46.9-41-59.2-10.1-5.6-21.9-8.3-33.4-6.1-12.1 2.3-22.2 10.2-31 18.3-11.6 10.6-22.4 22.2-32.5 34.3-3.6 4.3 2.6 10.5 6.1 6.2z"/><path d="M441.7 401.1c36.3 3.9 72.7 7.8 109 11.7 5.6.6 5.5-8.1 0-8.7-36.3-3.9-72.7-7.8-109-11.7-5.5-.6-5.5 8.1 0 8.7zm150.7 6.5c-1-10.2-3.5-20-7.5-29.4.2 1.1.3 2.2.4 3.4 1-2.3 6.2-.9 7.8-.4 3.8 1.2 7.5 3.6 10.7 5.9 7.3 5.1 13.2 12 17.6 19.8 2.7 4.9 10.2.5 7.5-4.4-4-7.2-9.4-13.8-15.8-19.1-5.7-4.7-12.6-9.6-19.9-11.1-5.8-1.2-14.7-.1-16.3 7-.5 2.2.8 4.1 1.5 6 1 2.5 1.8 5.1 2.5 7.6 1.3 4.8 2.3 9.7 2.7 14.7.7 5.5 9.4 5.6 8.8 0z"/><path class="st0" d="M566.7 566.5c19.7 16.4 39.5 30.2 58.7 47.1 25.7 22.7 49.7 52 82.5 62.5 7.9 2.5 16.7 3.8 24.3.5 9.8-4.2 15.3-15.2 15.9-25.8s6.3-27.3 2.6-37.2C733.9 569 702 533 674.3 494.1c-3.4-4.8-7.1-9.7-12.2-12.5-6.7-3.7-14.8-3.4-22.5-2.9-23.2 1.5-92.2-1.9-109.7 14.3-22.1 20.2 19.7 59.1 36.8 73.5z"/><path d="M592.9 412.2c9.6-1.3 19.2-1.1 28.7.8 5.5 1.1 7.8-7.3 2.3-8.4-10.3-2-20.7-2.5-31-1.1-2.3.3-4.3 1.8-4.3 4.4-.1 2 2 4.6 4.3 4.3z"/><path class="st0" d="M805 472c-5.2 6.2-14.3 6.7-21.8 9.7s-13.9 13.2-7.9 18.6c1.4 1.3 3.2 1.9 5 2.6 17.1 6.2 34.3 12.5 51.4 18.7 5.9 2.2 12.1 4.3 18.3 3.8s12.7-4.7 13.8-10.9c1.3-7.4-5.1-13.8-11.2-18.2-15.6-11.5-33-20.6-51.3-26.9"/><path d="M267.7 599.8c43.4 18.4 90.1 26 137 28.3 23.6 1.2 47.3 1.2 71 .7 20-.4 40-.8 59.9-2.1 20.3-1.3 41-2.6 60.9-6.9 5.5-1.2 3.2-9.5-2.3-8.4-17.1 3.6-34.8 4.9-52.2 6.1-18.8 1.3-37.6 1.8-56.5 2.3-46.2 1.1-92.9 1.1-138.6-6.5-25.6-4.3-50.9-11-74.8-21.2-2.2-.9-4.6-.6-6 1.6-1.1 2-.6 5.2 1.6 6.1zm232.8-82.7c49.3 49.8 100.9 97.3 154.5 142.3 7.4 6.2 14.8 12.3 22.2 18.4 5.6 4.6 13.9 13.3 21.3 6.8 4.2-3.7-2-9.9-6.2-6.2-1 .9-15.8-12.4-17.5-13.7-6.3-5.2-12.7-10.5-19-15.8-12.6-10.6-25.1-21.4-37.4-32.3-24.5-21.7-48.6-43.8-72.2-66.5-13.4-12.8-26.6-25.9-39.6-39-3.9-4.1-10.1 2-6.1 6z"/><path d="M555.2 494.9c14.2-2.9 28.5-5.9 42.7-8.8 7-1.4 14-2.9 21-4.3 6.8-1.4 13.7-3.3 20.6-3.7 13.6-.8 22.8 8.7 31.7 17.7 8.8 8.8 16.8 18.4 24.1 28.4 14.9 20.3 27.4 42.3 39.5 64.3 11.4 20.7 26.6 44.4 20.2 69.1-3 11.7-10.9 21.2-22.8 24.3-12.7 3.3-26.5-.3-38.1-5.5-5.1-2.3-9.5 5.2-4.4 7.5 22.1 10 51.5 13.3 67.1-9.3 15.6-22.6 6.5-51-5-73.1-12.7-24.4-26.4-48.8-41.9-71.6-7.6-11.2-15.9-22.1-25-32.2-8.5-9.4-18.2-20.7-30-25.8-7.7-3.3-15.9-2.9-24-1.5-8.6 1.5-17.1 3.5-25.6 5.2l-52.5 10.8c-5.4 1.2-3.1 9.6 2.4 8.5zM360 399.2c-11-14.8-19.2-31.5-24-49.3-4-15-6.2-31.4-1.4-46.4 5-15.5 18.4-23.8 34.5-23.4 17.3.5 34.5 8.2 49.7 16 18.3 9.4 35.1 21.4 49.9 35.6 4 3.9 10.2-2.3 6.1-6.1-14.5-13.8-30.8-25.8-48.4-35.2-16.6-8.9-35-17.1-53.9-18.7-17.8-1.5-35.2 5.7-43.3 22.2-7.3 14.8-7.1 32.2-4 48.1 4.3 22.2 13.8 43.4 27.3 61.6 3.3 4.5 10.8.1 7.5-4.4zm-227-43.6L189.4 466c2.6 5 10.1.6 7.5-4.4l-56.4-110.4c-2.6-5-10.1-.6-7.5 4.4z"/><path d="M142.7 360.3c3.1-6.3 7.9-10.9 14.3-13.9-2-.5-4-1-5.9-1.6 20.3 44 39.7 88.4 58.1 133.2 2.1 5.1 10.5 2.9 8.4-2.3-18.7-45.5-38.3-90.7-59-135.3-1.1-2.3-4-2.5-5.9-1.6-7.5 3.5-13.7 9.6-17.4 17-2.6 5.1 4.9 9.5 7.4 4.5zm80.5 181.6c10.1 24.9 20.2 49.8 30.2 74.7 5 12.5 10.1 24.9 15.1 37.3 5 12.3 9.4 25.1 15 37.1 1.2 2.5 3.1 4.6 6 5 2.6.3 5-1.2 5.7-3.7 1.5-5.3-4.3-9.2-8.4-5.7-4.3 3.6 1.9 9.7 6.1 6.2l.3-.3c-1.4.4-2.8.8-4.2 1.1 5.7.8 1.4-8.3.8-9.9-.5-1.3-1.1-2.7-1.6-4-1.3-3.1-2.5-6.2-3.8-9.3-2.5-6.2-5-12.5-7.6-18.7-5-12.5-10.1-24.9-15.1-37.3-10.1-24.9-20.2-49.8-30.2-74.7-2-5.2-10.4-3-8.3 2.2zm6.9-25.6c27.8 53.3 55.5 106.6 83.3 159.9 2.6 5 10.1.6 7.5-4.4-27.8-53.3-55.5-106.6-83.3-159.9-2.5-5-10.1-.6-7.5 4.4z"/><path d="M278.1 681.9c11.7 11 32.8 5.4 37.5-10 1.6-5.4-6.7-7.7-8.4-2.3-2.8 9-16.1 12.6-23 6.1-4-3.7-10.1 2.4-6.1 6.2zm364.3-270.3c12.8-1.4 25.8-1.2 38.6.9 5.5.9 7.8-7.5 2.3-8.4-13.6-2.2-27.2-2.7-40.9-1.2-5.5.6-5.6 9.3 0 8.7zm50.8 14.4c7.8-14.6 15.6-29.3 23.4-43.9 7.2-13.5 13.9-27.7 22.4-40.5 7.3-11 16.8-19.5 28.7-25.3 11.1-5.3 23.4-8 35.6-9.4 14.3-1.6 28.8-1.5 43.1-1.2 5.6.1 5.6-8.6 0-8.7-25.9-.5-53.4-.6-77.7 9.5-12.2 5-23.1 12.6-31.4 22.9-9.8 12.1-16.5 26.4-23.8 40.1-9.3 17.4-18.5 34.8-27.8 52.2-2.6 4.9 4.9 9.3 7.5 4.3z"/><path d="M841.2 303.6c3 9.2 0 18.5-3.8 27s-8 16.9-11.6 25.5c-7.3 17.8-12.6 36.3-16 55.2-1 5.5 7.4 7.8 8.4 2.3 3.5-19.8 9.2-39.2 17-57.7 7.1-16.9 20.5-35.5 14.4-54.6-1.7-5.3-10.1-3-8.4 2.3zm-47.6 163.9a295.2 295.2 0 0 1 37.5 18.3c5.8 3.3 11.5 6.8 16.9 10.6 4.6 3.2 9.2 6.9 12 11.8 4.6 8 1.6 21.4-9.7 19-7-1.5-14-4.6-20.8-6.9-7-2.4-14.1-4.8-21.1-7.2-7.4-2.5-14.9-5-22.3-7.6-6.5-2.3-12.7-5.1-17.3-10.3-3.7-4.2-9.8 2-6.2 6.1 9.8 11.1 26.6 14.4 40.1 19 8.4 2.9 16.8 5.7 25.2 8.6 7.6 2.6 15.8 6.5 23.8 7.2 12.9 1.2 20.6-11.8 19-23.4-1.9-13.8-15.3-22.2-26-28.9-15.5-9.7-31.8-17.9-48.7-24.7-5.3-2.1-7.5 6.4-2.4 8.4z"/><path d="M762.7 495.4c7.4-5.8 16-9.6 25.1-11.8 5.4-1.3 3.1-9.7-2.3-8.4-10.7 2.5-20.3 7.3-29 14-1.9 1.5-1.5 4.6 0 6.1 1.9 1.9 4.4 1.5 6.2.1zm50.6-66.2c8.5.1 14.5 8.9 14.8 16.8.4 10.6-6.5 20-13.4 27.3-3.8 4.1 2.3 10.2 6.2 6.1 9.1-9.8 17.6-22.5 15.6-36.5-1.7-11.7-10.9-22.4-23.2-22.5-5.6 0-5.6 8.7 0 8.8zm-86.1 137.5c27.1-11 52.7-25.2 76.1-42.8 4.4-3.3.1-10.9-4.4-7.5-22.8 17-47.7 31.2-74 41.9-5.1 2.1-2.9 10.5 2.3 8.4zm-15.9-74.4c12.3-2.7 24.7-5.3 37-8 5.5-1.2 3.2-9.6-2.3-8.4-12.3 2.7-24.7 5.3-37 8-5.5 1.2-3.2 9.5 2.3 8.4zm-249.4-99.4c-1.4-7.8 5.4-16.3 13.4-16.5 8-.1 15 8.4 13.7 16.2-.9 5.5 7.5 7.8 8.4 2.3 2.2-13.3-8.1-27.3-22.1-27.2-14 .1-24.2 14.2-21.8 27.5 1 5.5 9.4 3.2 8.4-2.3z"/><path d="M500.9 397.6c1.5-6.7 7.6-12.1 14.6-11.9 6.7.2 13 5.9 13.8 12.6.7 5.5 9.4 5.5 8.7 0-1.4-11.2-10-20.4-21.5-21.3-11.1-.9-21.6 7.6-24 18.2-1.2 5.5 7.2 7.8 8.4 2.4zm-35.3 224.8c-7 10.5-8.5 24-3.8 35.7 2.1 5.1 10.5 2.9 8.4-2.3-3.9-9.7-3-20.3 2.9-29 3.2-4.7-4.4-9-7.5-4.4zm19.5 4.4c-3.1 4.7-3.9 10.4-2.5 15.8s9.8 3.1 8.4-2.3c-.9-3.3-.2-6.3 1.6-9.1 3.1-4.7-4.4-9-7.5-4.4z"/><path d="M484.5 644.3c4.1 1.8 7.6 1.2 11.6-.6 1.5-.7 3-1.9 4.6-2.2.6-.1 1.2.1 1.7 0 1.8-.3-.1 2.1.4-1.1-.9 5.5 7.5 7.8 8.4 2.3.8-5.1-2.3-8.8-7.3-9.7-2.4-.4-4.8-.2-7.1.7-1.9.7-6 4.1-8 3.2-5-2.4-9.4 5.1-4.3 7.4zm-20.2 12.1c-7.9 8.3-1.3 24.1 10.5 23.5 5.6-.3 5.6-9 0-8.7-3.9.2-7.2-5.6-4.3-8.6 3.8-4.1-2.4-10.3-6.2-6.2z"/><path d="M487 680.1c3.7-10.9 11.7-19.6 21.9-24.7 5-2.5.6-10-4.4-7.5-12.3 6.1-21.5 16.9-25.9 29.8-1.8 5.4 6.6 7.7 8.4 2.4z"/><path d="M510.9 659.3c3.7-2.1 8.1.4 10.2 3.7 2.8 4.3 1 9.9-1.7 13.8-4.8 6.7-17.7 14.4-24.5 6.4-3.6-4.3-9.8 1.9-6.1 6.2 11.5 13.5 33.3 1.9 39.8-10.9 3.7-7.2 3.7-15.8-1.7-22.1-5-5.9-13.4-8.4-20.3-4.4-4.9 2.6-.5 10.1 4.3 7.3zm-174.5-31.1c5.5 10.2 16.4 17.1 28 17.4 11.7.4 22.8-6.1 28.9-15.9 3-4.8-4.5-9.1-7.5-4.4-4.6 7.3-12.8 11.8-21.4 11.6-8.7-.3-16.4-5.6-20.5-13.1-2.7-4.9-10.2-.5-7.5 4.4zm387.1 6.9c2.1-6.7 8.2-11.7 15.3-12.2 5.5-.4 5.6-9.1 0-8.7-11 .7-20.4 8-23.7 18.5-1.6 5.4 6.8 7.7 8.4 2.4zM561.8 419.5c9.5 1.5 19 .9 28.1-2 5.3-1.7 3-10.1-2.3-8.4-7.6 2.4-15.6 3.2-23.5 2-5.4-.8-7.8 7.5-2.3 8.4zm55.4-7.5c-.2 5.8 4.5 10.2 10 11 6.3.9 11.5-3.1 16.1-6.9 4.3-3.6-1.9-9.7-6.2-6.1-2 1.7-4.3 3.8-7 4.3-1.8.4-4.3-.1-4.2-2.3.3-5.6-8.4-5.5-8.7 0zm-266 204.3c22.3-27.4 20.6-63.7 16.6-96.8-.7-5.5-9.4-5.5-8.7 0 3.6 30.2 6.5 65.3-14.1 90.6-3.5 4.4 2.7 10.6 6.2 6.2z"/></svg>