<svg version="1.1" id="Layer_1" xmlns="http://www.w3.org/2000/svg" x="0" y="0" viewBox="0 0 1000 1000" xml:space="preserve"><style>.st1{fill:#e81700}.st1,.st6{opacity:.7}.st7{fill:#fff9f7}</style><path d="M361.6 446.5c5.8 3.1 9.8 9.4 10.1 16" fill="#e81700"/><path class="st1" d="M560.9 438.5c-45.4-23.8-126-18.8-160.3 25-30.4 39-32.7 129.5-2.6 167.5 21.5 27.2 58.9 34.8 93.2 36.5 33.3 1.6 68.8-1.3 96-21 16.6-12.1 28.9-29.8 36-49.2 21.5-58.4-7.8-130.2-62.3-158.8zm42.4 128.1c-3.7 15-12.3 29.3-23.2 40.2-21 20.9-51.4 31.2-80.8 30.7-27.9-.4-58-9-78.5-28.8-22.5-21.7-24-53.9-18.7-82.9 4.9-26.2 19.8-56.1 45.2-67.9 3.7-1.7 7.4-2.8 11.1-3.3 12.9-8.9 28.7-11.4 44.4-10.3 14 1 29.3 1.3 42.5 6.1 29.7 10.7 51.2 35.7 57.7 66.7 3.6 16.3 4.4 33.3.3 49.5z"/><path class="st1" d="M472 573.9c.9.4 1.9.7 2.8 1 1.1.3.9.2-3.3-1.2.2 0 .3.1.5.2z"/><path d="M450.1 633c11 3.7 36.5 8.7 48 9.3 20.4 1.2 43.4-8.5 62.2-16.6 18.8-8.1 35.2-23 42.3-42.2 5.9-16.2 4.9-34.2 2-51.3-3.1-18.7-8.5-37.5-19.6-52.8-33.7-46.5-128.9-53.8-166.1-6.6-39.7 50.4-27.7 140.4 31.2 160.2z" opacity=".7" fill="#fcf59a"/><path d="M581.2 442.9c10.1-5.5 20.1-11 30.1-16.7 6.4 6.8 12.8 13.6 19.2 20.5l-23.1 17.4c-11.2-5.5-21.8-12.5-31.3-20.7" fill="#5c5453"/><path d="M373.7 468.5c5.1-3.4 10.4-6.9 13.9-12s4.7-12.2 1.4-17.4c-3-4.8-9.5-7.5-10.3-13.2-6.6 7.2-12.6 15.1-17.7 23.4 6.8 6.4 13.7 12.8 20.5 19.2" opacity=".7" fill="#5c5453"/><path class="st1" d="M418.3 660.6c-4.6 12.2-9.3 24.5-13.9 36.7 7.8-.2 15.5 1.6 22.4 5.2 3-6.8 6-13.6 9.1-20.4.9-2.1 1.9-4.5 1-6.7-.8-2.1-3.1-3.2-5.2-4.2-7.1-3.1-14.1-6.2-21.2-9.2m166 3.8c2.4 9.4 6.7 18.3 12.7 26 4.9-4.1 10.8-7 17-8.2-4.8-6.9-8.3-14.5-10.4-22.6-6.1.5-12.2 0-18.1-1.5"/><path d="M322.9 471.3c13-9.8 26-19.7 39.1-29.5 12.7-9.6 26.6-21.5 26.9-37.4.1-4.7-1.2-9.5-4.4-13-2.4-2.7-5.7-4.4-9.1-5.7-19.8-7.6-44.3-.1-56.5 17.2s-10.9 42.9 2.9 59c3.6 4.2 10.4 7.8 14.3 3.7m267.6-57.5c18.7 19 39.7 35.6 62.4 49.5 16.8-16.1 15.3-46.8-2.3-62.1-17.6-15.3-47.1-13.2-63.3 3.6" opacity=".7" fill="#fb0"/><g class="st6"><path class="st7" d="M339 421.6c-1.2-3-.5-7.2 3.1-8.4 7.3-2.4 4.2-14-3.2-11.6-9.2 3.1-15.3 13.8-11.5 23.2 1.2 3 4 5.1 7.4 4.2 2.8-.8 5.4-4.4 4.2-7.4z"/></g><g class="st6"><path class="st7" d="M633.2 412.9c4-2.4 8.2-2.3 12.1.2 6.5 4.2 12.5-6.2 6.1-10.4-7.3-4.8-16.8-4.8-24.2-.2-6.7 4.1-.7 14.5 6 10.4z"/></g><path d="M336 463.1c-1.7 1.4-3.3 2.8-5 4.2-5.9 5 2.6 13.4 8.5 8.5 9.4-7.8 18.8-15.6 28.1-23.5 8.5-7.1 17.7-13.8 25.5-21.7 12.9-13.2 14.7-31.2-.2-43.9-26.6-22.6-73.5-14-85.9 19.8-6.3 17-2.8 37.2 10.4 50 5.5 5.4 14.1-3.1 8.5-8.5-11.7-11.4-12.8-30.2-4.5-43.9 9-14.9 28.5-20.5 45-17 8.5 1.8 18 5.8 23 13.4 5.8 8.7.3 16.8-6.2 23-16.2 15.7-34.9 29.3-52.2 43.8l8.5 8.5c1.7-1.4 3.3-2.8 5-4.2 5.9-5-2.6-13.4-8.5-8.5z"/><path d="M358.4 453.6c3.5 9.3 9.5 17 18 22.2 6.6 4.1 12.6-6.3 6.1-10.4-5.7-3.5-10.2-8.8-12.5-15.1-2.7-7-14.3-3.9-11.6 3.3zm17.3-20.9c5 6.2 10.1 12.4 15.2 18.7 2 2.5 6.4 2.1 8.5 0 2.5-2.5 2-6 0-8.5-5-6.2-10.1-12.4-15.2-18.7-2-2.5-6.4-2.1-8.5 0-2.5 2.5-2.1 6 0 8.5z"/><path d="M407.7 447.8c49.5-32.8 115.7-35.9 167.9-7.4 6.8 3.7 12.9-6.7 6.1-10.4-55.8-30.5-126.9-27.7-180 7.4-6.5 4.3-.4 14.7 6 10.4z"/><path d="M580.8 449c9.6-4.3 19.2-8.6 28.8-12.8 7-3.1.9-13.5-6.1-10.4-9.6 4.3-19.2 8.6-28.8 12.8-7 3.2-.9 13.6 6.1 10.4zm32.8 19.6c9.1-2.7 17.2-7.8 23.4-14.9 5.1-5.8-3.4-14.3-8.5-8.5-4.9 5.6-11 9.6-18.1 11.8-7.4 2.2-4.3 13.8 3.2 11.6z"/><path d="M593 411.3c14.7 13.4 29.3 26.8 44 40.1 4.4 4 11.5 10.9 17.6 5.1 4.6-4.3 1.4-11.3-4-12.8-2.7-.8-5.2.6-6.8 2.8-.2.2-.3.4-.5.6-4.5 6.3 6 12.3 10.4 6.1.2-.2.3-.4.5-.6-2.3.9-4.5 1.8-6.8 2.8-.8-.8-1.6-1.5-2.4-2.3.2-1.5.4-3.1.6-4.6-.2.3-.3.6-.5.8 1.2-.9 2.4-1.8 3.6-2.8-.7.1-9.9-9.6-10.9-10.6-4.1-3.8-8.3-7.6-12.4-11.3-8-7.3-15.9-14.5-23.9-21.8-5.7-5.2-14.2 3.3-8.5 8.5z"/><path d="M603.2 407.5c12.7-18.5 42-23.4 59.5-8.8 8.3 7 13 17.9 13.6 28.6.3 5.7-.3 11.4-2.2 16.8-.5 1.5-6 14.3-8.1 13.6 1.2.9 2.4 1.8 3.6 2.8-.2-.3-.5-.6-.7-1-4.5-6.2-14.9-.2-10.4 6.1 11.8 16.5 26.5-13.9 28.5-23.1 3.5-15.9.1-33.3-10.1-46.1-21.4-27-65.4-22.4-84.1 5-4.4 6.4 6 12.4 10.4 6.1zm-229.6 67c-19.7 42.8-21.5 95.3-.7 138 17 35 51.2 57.5 88.4 66.4 26.5 6.3 53.8 6 80.7 1.9 7.6-1.2 4.4-12.7-3.2-11.6-40.1 6.1-83.4 2.2-118.1-20.5-32-21-48.1-56.6-50.2-94.2-1.4-25.3 3-51 13.6-74 3-6.9-7.3-13-10.5-6z"/><path d="M606.6 468.1c28.7 34.1 35.2 78.4 24.7 121-9.5 38.8-37.5 79.3-82 77.4-7.7-.3-7.7 11.7 0 12 48.9 2.1 81.9-40.9 93-84 12.3-47.6 4.9-96.7-27.2-134.9-5-5.9-13.4 2.6-8.5 8.5z"/><path d="M412 491.5c-17.5 36.6-23.6 84.9 3.8 118.5 27.3 33.5 79.2 39.8 119.4 32.9 21.4-3.7 41.8-13.2 55.1-30.8 12.2-16.1 17.1-36.4 17.7-56.3.7-21.3-3-43.5-10.5-63.4s-20.2-37-40.8-44.4c-22.8-8.1-50.5-8.9-74.3-5.5-23.2 3.2-45.4 12.4-61.4 29.9-3.5 3.8 2.2 9.5 5.7 5.7 26.5-29.1 69.5-32.4 106.2-27.2 11.3 1.6 23 4 32.7 10.4 8.3 5.5 14.5 13.5 19.2 22.2 8.9 16.8 13.3 36.7 14.8 55.6 1.5 18.6 0 38.3-8 55.5-8.5 18.2-24 30.8-43 36.9-19.2 6.2-40.3 6.8-60.3 4.6-19.1-2.1-38.5-7.7-54-19.4-38-28.6-33.7-82.6-15.3-121.1 2.1-4.7-4.8-8.8-7-4.1z"/><path d="M484.5 505.5c1.4 16.7 2.7 33.3 4.1 50 .6 7.7 12.6 7.7 12 0-1.4-16.7-2.7-33.3-4.1-50-.6-7.6-12.6-7.7-12 0z"/><path d="M492.5 559.6c21.8-4.1 43.9-5.3 66.1-3.8 7.7.5 7.7-11.5 0-12-23.2-1.6-46.4 0-69.3 4.3-7.6 1.3-4.3 12.9 3.2 11.5z"/><path d="M547 534.6c1 8.3 3.2 15.9 6.8 23.4 1.1 2.3 4.4 3.5 6.8 2.8 5.8-1.8 11.6-3.6 17.3-5.4 3.9-1.2 6.4-7 2.7-10-6.5-5.3-13.1-10.6-19.7-15.8-6-4.8-14.5 3.6-8.5 8.5 6.5 5.3 13.1 10.6 19.7 15.8.9-3.3 1.8-6.7 2.7-10-5.8 1.8-11.6 3.6-17.3 5.4 2.3.9 4.5 1.8 6.8 2.8-2.6-5.5-4.4-11.3-5.1-17.3-.4-3.2-2.5-6-6-6-3.1-.3-6.6 2.5-6.2 5.8zm-125.5 15.3c7.8-.9 15.6-1.8 23.5-2.6 7.6-.8 7.7-12.9 0-12-7.8.9-15.6 1.8-23.5 2.6-7.6.8-7.7 12.9 0 12zm63.2-100.3V460c0 3.2 2.8 6 6 6 3.3 0 6-2.8 6-6v-10.4c0-3.2-2.8-6-6-6-3.3 0-6 2.8-6 6zm5.5 42.2c2.3 6 4.6 12 6.9 17.9 1.9-2.5 3.9-5.1 5.8-7.6l-17.4.3c-7.7.1-7.8 12.2 0 12l17.4-.3c3.6-.1 7.2-3.8 5.8-7.6-2.3-6-4.6-12-6.9-17.9-1.2-3-4-5.1-7.4-4.2-2.9.8-5.4 4.4-4.2 7.4zm106 55h2.6c1.5 0 3.2-.7 4.2-1.8 1-1 1.8-2.8 1.8-4.2-.1-1.5-.6-3.2-1.8-4.2-1.2-1.1-2.6-1.8-4.2-1.8h-2.6c-1.5 0-3.2.7-4.2 1.8-1 1-1.8 2.8-1.8 4.2.1 1.5.6 3.2 1.8 4.2 1.2 1.1 2.6 1.8 4.2 1.8z"/><path d="M588.4 546.8h2.6c1.5 0 3.2-.7 4.2-1.8 1-1 1.8-2.8 1.8-4.2-.1-1.5-.6-3.2-1.8-4.2-1.2-1.1-2.6-1.8-4.2-1.8h-2.6c-1.5 0-3.2.7-4.2 1.8-1 1-1.8 2.8-1.8 4.2.1 1.5.6 3.2 1.8 4.2 1.1 1.1 2.6 1.8 4.2 1.8zM504.3 613c-3.2 5.3-4 11.7-1.9 17.5 1.5 4.2 6.6 6 10 2.7 7.3-7.1 8.8-19.1 2.8-27.5-4.5-6.2-14.9-.2-10.4 6.1 3 4.1 2.9 9.3-.9 13 3.4.9 6.7 1.8 10 2.7-1.1-3-1-5.5.6-8.3 4.2-6.8-6.2-12.8-10.2-6.2zm-95 43.3c-3.7 12.1-7.5 24.2-11.2 36.3-.8 2.5.5 5.5 2.8 6.8 7.5 4.5 15.4 8 23.6 10.9 7.3 2.5 10.5-9.1 3.2-11.6s-14.1-5.8-20.8-9.7c.9 2.3 1.8 4.5 2.8 6.8 3.7-12.1 7.5-24.2 11.2-36.3 2.3-7.5-9.3-10.6-11.6-3.2z"/><path d="M436.9 670.7c-5.1 10.5-10.3 20.9-15.5 31.4-3.4 6.9 7 13 10.4 6.1 5.1-10.5 10.3-20.9 15.5-31.4 3.4-6.9-7-13-10.4-6.1zm133.9 5.9c3.6 7.5 6.7 15.6 11 22.7 2.4 4 6.3 7 11.2 6.7 4.1-.2 7.5-2.8 10.4-5.5 1.8-1.6 6.4-7.9 9.3-7.5 7.6 1.2 10.8-10.4 3.2-11.6-8.5-1.3-13.8 3.7-19.5 9.2-.8.8-2.4 2.8-3.6 3-.7.1-.6-.3-1.5-2.1-3.6-6.9-6.8-14.1-10.2-21.1-3.3-6.8-13.6-.7-10.3 6.2z"/><path d="M596.4 666.4c4.2 7.9 8.5 15.8 12.7 23.7 3.7 6.8 14 .8 10.4-6.1-4.2-7.9-8.5-15.8-12.7-23.7-3.7-6.8-14.1-.7-10.4 6.1zM475.5 502.5c.2.1.1.2-.1.2-5.5 3.4-1.9 13.7 4.6 11 11-4.6 19.1-13.3 22.4-24.8 1.4-4.8-4.4-9.7-8.8-6.8-7.2 4.8-12.2 11.2-15.4 19.2-1.2 3 1.3 6.6 4.2 7.4 3.4 1 6.2-1.2 7.4-4.2 2-4.9 5.5-9.1 9.9-12-2.9-2.3-5.9-4.5-8.8-6.8-2 7.2-7 13.5-14 16.5 1.5 3.7 3.1 7.3 4.6 11 3.9-2.4 6-6 6-10.6.2-7.8-11.8-7.8-12-.1z"/><path d="M492.8 509.5V546c0 7.7 12 7.7 12 0v-36.5c.1-7.7-12-7.7-12 0zm185.5-133.7c8.2 4.1 14.7 10.2 19.2 18.2 3.8 6.7 14.2.7 10.4-6.1-5.5-9.7-13.6-17.6-23.6-22.6-6.8-3.4-12.9 7-6 10.5zM294 408.6c1.5-13.9 9.8-26 21.8-32.9 6.7-3.9.6-14.2-6.1-10.4-15.9 9.2-25.8 25.1-27.8 43.2-.7 7.8 11.3 7.7 12.1.1zm-28.1-12.4c3.4-15.6 12.3-29 25.7-37.8 6.4-4.2.4-14.6-6.1-10.4-15.9 10.4-27.1 26.3-31.2 45-1.6 7.5 9.9 10.8 11.6 3.2zM697 359.4c6.4 2.6 11.1 7.9 13.9 14.1 1.4 3 5.6 3.7 8.2 2.1 3-1.8 3.5-5.3 2.2-8.2-4.2-9.2-11.8-15.8-21.1-19.6-3-1.2-6.6 1.4-7.4 4.2-.9 3.5 1.2 6.1 4.2 7.4z"/></svg>