<?xml version="1.0" encoding="utf-8"?>
<!-- Generator: Adobe Illustrator 23.0.2, SVG Export Plug-In . SVG Version: 6.00 Build 0)  -->
<svg version="1.1" id="Layer_1" xmlns="http://www.w3.org/2000/svg" xmlns:xlink="http://www.w3.org/1999/xlink" x="0px" y="0px"
	 viewBox="0 0 1000 1000" style="enable-background:new 0 0 1000 1000;" xml:space="preserve">
<style type="text/css">
	.st0{fill:#E81700;}
	.st1{opacity:0.7;fill:#E81700;}
	.st2{opacity:0.7;fill:#FCF59A;}
	.st3{fill:#5C5453;}
	.st4{opacity:0.7;fill:#5C5453;}
	.st5{opacity:0.7;fill:#FFBB00;}
	.st6{opacity:0.7;}
	.st7{fill:#FFF9F7;}
</style>
<g>
	<path class="st0" d="M361.6,446.5c5.8,3.1,9.8,9.4,10.1,16"/>
	<path class="st1" d="M560.9,438.5c-45.4-23.8-126-18.8-160.3,25C370.2,502.5,367.9,593,398,631c21.5,27.2,58.9,34.8,93.2,36.5
		c33.3,1.6,68.8-1.3,96-21c16.6-12.1,28.9-29.8,36-49.2C644.7,538.9,615.4,467.1,560.9,438.5z M603.3,566.6
		c-3.7,15-12.3,29.3-23.2,40.2c-21,20.9-51.4,31.2-80.8,30.7c-27.9-0.4-58-9-78.5-28.8c-22.5-21.7-24-53.9-18.7-82.9
		c4.9-26.2,19.8-56.1,45.2-67.9c3.7-1.7,7.4-2.8,11.1-3.3c12.9-8.9,28.7-11.4,44.4-10.3c14,1,29.3,1.3,42.5,6.1
		c29.7,10.7,51.2,35.7,57.7,66.7C606.6,533.4,607.4,550.4,603.3,566.6z"/>
	<path class="st1" d="M472,573.9c0.9,0.4,1.9,0.7,2.8,1c1.1,0.3,0.9,0.2-3.3-1.2C471.7,573.7,471.8,573.8,472,573.9z"/>
	<path class="st2" d="M450.1,633c11,3.7,36.5,8.7,48,9.3c20.4,1.2,43.4-8.5,62.2-16.6c18.8-8.1,35.2-23,42.3-42.2
		c5.9-16.2,4.9-34.2,2-51.3c-3.1-18.7-8.5-37.5-19.6-52.8c-33.7-46.5-128.9-53.8-166.1-6.6C379.2,523.2,391.2,613.2,450.1,633z"/>
	<path class="st3" d="M581.2,442.9c10.1-5.5,20.1-11,30.1-16.7c6.4,6.8,12.8,13.6,19.2,20.5c-7.7,5.8-15.4,11.6-23.1,17.4
		c-11.2-5.5-21.8-12.5-31.3-20.7"/>
	<path class="st4" d="M373.7,468.5c5.1-3.4,10.4-6.9,13.9-12s4.7-12.2,1.4-17.4c-3-4.8-9.5-7.5-10.3-13.2
		c-6.6,7.2-12.6,15.1-17.7,23.4c6.8,6.4,13.7,12.8,20.5,19.2"/>
	<path class="st1" d="M418.3,660.6c-4.6,12.2-9.3,24.5-13.9,36.7c7.8-0.2,15.5,1.6,22.4,5.2c3-6.8,6-13.6,9.1-20.4
		c0.9-2.1,1.9-4.5,1-6.7c-0.8-2.1-3.1-3.2-5.2-4.2c-7.1-3.1-14.1-6.2-21.2-9.2"/>
	<path class="st1" d="M576.5,665.8c2.4,9.4,6.7,18.3,12.7,26c4.9-4.1,10.8-7,17-8.2c-4.8-6.9-8.3-14.5-10.4-22.6
		c-6.1,0.5-12.2,0-18.1-1.5"/>
	<path class="st5" d="M322.9,471.3c13-9.8,26-19.7,39.1-29.5c12.7-9.6,26.6-21.5,26.9-37.4c0.1-4.7-1.2-9.5-4.4-13
		c-2.4-2.7-5.7-4.4-9.1-5.7c-19.8-7.6-44.3-0.1-56.5,17.2s-10.9,42.9,2.9,59c3.6,4.2,10.4,7.8,14.3,3.7"/>
	<path class="st5" d="M603.7,408.1c18.7,19,39.7,35.6,62.4,49.5c16.8-16.1,15.3-46.8-2.3-62.1c-17.6-15.3-47.1-13.2-63.3,3.6"/>
	<g class="st6">
		<path class="st7" d="M339,421.6c-1.2-3-0.5-7.2,3.1-8.4c7.3-2.4,4.2-14-3.2-11.6c-9.2,3.1-15.3,13.8-11.5,23.2
			c1.2,3,4,5.1,7.4,4.2C337.6,428.2,340.2,424.6,339,421.6L339,421.6z"/>
	</g>
	<g class="st6">
		<path class="st7" d="M633.2,412.9c4-2.4,8.2-2.3,12.1,0.2c6.5,4.2,12.5-6.2,6.1-10.4c-7.3-4.8-16.8-4.8-24.2-0.2
			C620.5,406.6,626.5,417,633.2,412.9L633.2,412.9z"/>
	</g>
	<g>
		<path d="M336,463.1c-1.7,1.4-3.3,2.8-5,4.2c-5.9,5,2.6,13.4,8.5,8.5c9.4-7.8,18.8-15.6,28.1-23.5c8.5-7.1,17.7-13.8,25.5-21.7
			c12.9-13.2,14.7-31.2-0.2-43.9c-26.6-22.6-73.5-14-85.9,19.8c-6.3,17-2.8,37.2,10.4,50c5.5,5.4,14.1-3.1,8.5-8.5
			c-11.7-11.4-12.8-30.2-4.5-43.9c9-14.9,28.5-20.5,45-17c8.5,1.8,18,5.8,23,13.4c5.8,8.7,0.3,16.8-6.2,23
			c-16.2,15.7-34.9,29.3-52.2,43.8c2.8,2.8,5.7,5.7,8.5,8.5c1.7-1.4,3.3-2.8,5-4.2C350.4,466.6,341.9,458.2,336,463.1L336,463.1z"/>
	</g>
	<g>
		<path d="M358.4,453.6c3.5,9.3,9.5,17,18,22.2c6.6,4.1,12.6-6.3,6.1-10.4c-5.7-3.5-10.2-8.8-12.5-15.1
			C367.3,443.3,355.7,446.4,358.4,453.6L358.4,453.6z"/>
	</g>
	<g>
		<path d="M375.7,432.7c5,6.2,10.1,12.4,15.2,18.7c2,2.5,6.4,2.1,8.5,0c2.5-2.5,2-6,0-8.5c-5-6.2-10.1-12.4-15.2-18.7
			c-2-2.5-6.4-2.1-8.5,0C373.2,426.7,373.6,430.2,375.7,432.7L375.7,432.7z"/>
	</g>
	<g>
		<path d="M407.7,447.8c49.5-32.8,115.7-35.9,167.9-7.4c6.8,3.7,12.9-6.7,6.1-10.4c-55.8-30.5-126.9-27.7-180,7.4
			C395.2,441.7,401.3,452.1,407.7,447.8L407.7,447.8z"/>
	</g>
	<g>
		<path d="M580.8,449c9.6-4.3,19.2-8.6,28.8-12.8c7-3.1,0.9-13.5-6.1-10.4c-9.6,4.3-19.2,8.6-28.8,12.8
			C567.7,441.8,573.8,452.2,580.8,449L580.8,449z"/>
	</g>
	<g>
		<path d="M613.6,468.6c9.1-2.7,17.2-7.8,23.4-14.9c5.1-5.8-3.4-14.3-8.5-8.5c-4.9,5.6-11,9.6-18.1,11.8
			C603,459.2,606.1,470.8,613.6,468.6L613.6,468.6z"/>
	</g>
	<g>
		<path d="M593,411.3c14.7,13.4,29.3,26.8,44,40.1c4.4,4,11.5,10.9,17.6,5.1c4.6-4.3,1.4-11.3-4-12.8c-2.7-0.8-5.2,0.6-6.8,2.8
			c-0.2,0.2-0.3,0.4-0.5,0.6c-4.5,6.3,6,12.3,10.4,6.1c0.2-0.2,0.3-0.4,0.5-0.6c-2.3,0.9-4.5,1.8-6.8,2.8c-0.8-0.8-1.6-1.5-2.4-2.3
			c0.2-1.5,0.4-3.1,0.6-4.6c-0.2,0.3-0.3,0.6-0.5,0.8c1.2-0.9,2.4-1.8,3.6-2.8c-0.7,0.1-9.9-9.6-10.9-10.6
			c-4.1-3.8-8.3-7.6-12.4-11.3c-8-7.3-15.9-14.5-23.9-21.8C595.8,397.6,587.3,406.1,593,411.3L593,411.3z"/>
	</g>
	<g>
		<path d="M603.2,407.5c12.7-18.5,42-23.4,59.5-8.8c8.3,7,13,17.9,13.6,28.6c0.3,5.7-0.3,11.4-2.2,16.8c-0.5,1.5-6,14.3-8.1,13.6
			c1.2,0.9,2.4,1.8,3.6,2.8c-0.2-0.3-0.5-0.6-0.7-1c-4.5-6.2-14.9-0.2-10.4,6.1c11.8,16.5,26.5-13.9,28.5-23.1
			c3.5-15.9,0.1-33.3-10.1-46.1c-21.4-27-65.4-22.4-84.1,5C588.4,407.8,598.8,413.8,603.2,407.5L603.2,407.5z"/>
	</g>
	<g>
		<path d="M373.6,474.5c-19.7,42.8-21.5,95.3-0.7,138c17,35,51.2,57.5,88.4,66.4c26.5,6.3,53.8,6,80.7,1.9
			c7.6-1.2,4.4-12.7-3.2-11.6c-40.1,6.1-83.4,2.2-118.1-20.5c-32-21-48.1-56.6-50.2-94.2c-1.4-25.3,3-51,13.6-74
			C387.1,473.6,376.8,467.5,373.6,474.5L373.6,474.5z"/>
	</g>
	<g>
		<path d="M606.6,468.1c28.7,34.1,35.2,78.4,24.7,121c-9.5,38.8-37.5,79.3-82,77.4c-7.7-0.3-7.7,11.7,0,12c48.9,2.1,81.9-40.9,93-84
			c12.3-47.6,4.9-96.7-27.2-134.9C610.1,453.7,601.7,462.2,606.6,468.1L606.6,468.1z"/>
	</g>
	<g>
		<path d="M412,491.5c-17.5,36.6-23.6,84.9,3.8,118.5c27.3,33.5,79.2,39.8,119.4,32.9c21.4-3.7,41.8-13.2,55.1-30.8
			c12.2-16.1,17.1-36.4,17.7-56.3c0.7-21.3-3-43.5-10.5-63.4c-7.5-19.9-20.2-37-40.8-44.4c-22.8-8.1-50.5-8.9-74.3-5.5
			c-23.2,3.2-45.4,12.4-61.4,29.9c-3.5,3.8,2.2,9.5,5.7,5.7c26.5-29.1,69.5-32.4,106.2-27.2c11.3,1.6,23,4,32.7,10.4
			c8.3,5.5,14.5,13.5,19.2,22.2c8.9,16.8,13.3,36.7,14.8,55.6c1.5,18.6,0,38.3-8,55.5c-8.5,18.2-24,30.8-43,36.9
			c-19.2,6.2-40.3,6.8-60.3,4.6c-19.1-2.1-38.5-7.7-54-19.4c-38-28.6-33.7-82.6-15.3-121.1C421.1,490.9,414.2,486.8,412,491.5
			L412,491.5z"/>
	</g>
	<g>
		<path d="M484.5,505.5c1.4,16.7,2.7,33.3,4.1,50c0.6,7.7,12.6,7.7,12,0c-1.4-16.7-2.7-33.3-4.1-50
			C495.9,497.9,483.9,497.8,484.5,505.5L484.5,505.5z"/>
	</g>
	<g>
		<path d="M492.5,559.6c21.8-4.1,43.9-5.3,66.1-3.8c7.7,0.5,7.7-11.5,0-12c-23.2-1.6-46.4,0-69.3,4.3
			C481.7,549.4,485,561,492.5,559.6L492.5,559.6z"/>
	</g>
	<g>
		<path d="M547,534.6c1,8.3,3.2,15.9,6.8,23.4c1.1,2.3,4.4,3.5,6.8,2.8c5.8-1.8,11.6-3.6,17.3-5.4c3.9-1.2,6.4-7,2.7-10
			c-6.5-5.3-13.1-10.6-19.7-15.8c-6-4.8-14.5,3.6-8.5,8.5c6.5,5.3,13.1,10.6,19.7,15.8c0.9-3.3,1.8-6.7,2.7-10
			c-5.8,1.8-11.6,3.6-17.3,5.4c2.3,0.9,4.5,1.8,6.8,2.8c-2.6-5.5-4.4-11.3-5.1-17.3c-0.4-3.2-2.5-6-6-6
			C550.1,528.5,546.6,531.3,547,534.6L547,534.6z"/>
	</g>
	<g>
		<path d="M421.5,549.9c7.8-0.9,15.6-1.8,23.5-2.6c7.6-0.8,7.7-12.9,0-12c-7.8,0.9-15.6,1.8-23.5,2.6
			C413.9,538.7,413.8,550.8,421.5,549.9L421.5,549.9z"/>
	</g>
	<g>
		<path d="M484.7,449.6c0,3.5,0,7,0,10.4c0,3.2,2.8,6,6,6c3.3,0,6-2.8,6-6c0-3.5,0-7,0-10.4c0-3.2-2.8-6-6-6
			C487.4,443.6,484.7,446.4,484.7,449.6L484.7,449.6z"/>
	</g>
	<g>
		<path d="M490.2,491.8c2.3,6,4.6,12,6.9,17.9c1.9-2.5,3.9-5.1,5.8-7.6c-5.8,0.1-11.6,0.2-17.4,0.3c-7.7,0.1-7.8,12.2,0,12
			c5.8-0.1,11.6-0.2,17.4-0.3c3.6-0.1,7.2-3.8,5.8-7.6c-2.3-6-4.6-12-6.9-17.9c-1.2-3-4-5.1-7.4-4.2
			C491.5,485.2,489,488.8,490.2,491.8L490.2,491.8z"/>
	</g>
	<g>
		<path d="M596.2,546.8c0.9,0,1.7,0,2.6,0c1.5,0,3.2-0.7,4.2-1.8c1-1,1.8-2.8,1.8-4.2c-0.1-1.5-0.6-3.2-1.8-4.2
			c-1.2-1.1-2.6-1.8-4.2-1.8c-0.9,0-1.7,0-2.6,0c-1.5,0-3.2,0.7-4.2,1.8c-1,1-1.8,2.8-1.8,4.2c0.1,1.5,0.6,3.2,1.8,4.2
			C593.2,546.1,594.6,546.8,596.2,546.8L596.2,546.8z"/>
	</g>
	<g>
		<path d="M588.4,546.8c0.9,0,1.7,0,2.6,0c1.5,0,3.2-0.7,4.2-1.8c1-1,1.8-2.8,1.8-4.2c-0.1-1.5-0.6-3.2-1.8-4.2
			c-1.2-1.1-2.6-1.8-4.2-1.8c-0.9,0-1.7,0-2.6,0c-1.5,0-3.2,0.7-4.2,1.8c-1,1-1.8,2.8-1.8,4.2c0.1,1.5,0.6,3.2,1.8,4.2
			C585.3,546.1,586.8,546.8,588.4,546.8L588.4,546.8z"/>
	</g>
	<g>
		<path d="M504.3,613c-3.2,5.3-4,11.7-1.9,17.5c1.5,4.2,6.6,6,10,2.7c7.3-7.1,8.8-19.1,2.8-27.5c-4.5-6.2-14.9-0.2-10.4,6.1
			c3,4.1,2.9,9.3-0.9,13c3.4,0.9,6.7,1.8,10,2.7c-1.1-3-1-5.5,0.6-8.3C518.7,612.4,508.3,606.4,504.3,613L504.3,613z"/>
	</g>
	<g>
		<path d="M409.3,656.3c-3.7,12.1-7.5,24.2-11.2,36.3c-0.8,2.5,0.5,5.5,2.8,6.8c7.5,4.5,15.4,8,23.6,10.9c7.3,2.5,10.5-9.1,3.2-11.6
			c-7.3-2.5-14.1-5.8-20.8-9.7c0.9,2.3,1.8,4.5,2.8,6.8c3.7-12.1,7.5-24.2,11.2-36.3C423.2,652,411.6,648.9,409.3,656.3L409.3,656.3
			z"/>
	</g>
	<g>
		<path d="M436.9,670.7c-5.1,10.5-10.3,20.9-15.5,31.4c-3.4,6.9,7,13,10.4,6.1c5.1-10.5,10.3-20.9,15.5-31.4
			C450.7,669.9,440.3,663.8,436.9,670.7L436.9,670.7z"/>
	</g>
	<g>
		<path d="M570.8,676.6c3.6,7.5,6.7,15.6,11,22.7c2.4,4,6.3,7,11.2,6.7c4.1-0.2,7.5-2.8,10.4-5.5c1.8-1.6,6.4-7.9,9.3-7.5
			c7.6,1.2,10.8-10.4,3.2-11.6c-8.5-1.3-13.8,3.7-19.5,9.2c-0.8,0.8-2.4,2.8-3.6,3c-0.7,0.1-0.6-0.3-1.5-2.1
			c-3.6-6.9-6.8-14.1-10.2-21.1C577.8,663.6,567.5,669.7,570.8,676.6L570.8,676.6z"/>
	</g>
	<g>
		<path d="M596.4,666.4c4.2,7.9,8.5,15.8,12.7,23.7c3.7,6.8,14,0.8,10.4-6.1c-4.2-7.9-8.5-15.8-12.7-23.7
			C603.1,653.5,592.7,659.6,596.4,666.4L596.4,666.4z"/>
	</g>
	<g>
		<path d="M475.5,502.5c0.2,0.1,0.1,0.2-0.1,0.2c-5.5,3.4-1.9,13.7,4.6,11c11-4.6,19.1-13.3,22.4-24.8c1.4-4.8-4.4-9.7-8.8-6.8
			c-7.2,4.8-12.2,11.2-15.4,19.2c-1.2,3,1.3,6.6,4.2,7.4c3.4,1,6.2-1.2,7.4-4.2c2-4.9,5.5-9.1,9.9-12c-2.9-2.3-5.9-4.5-8.8-6.8
			c-2,7.2-7,13.5-14,16.5c1.5,3.7,3.1,7.3,4.6,11c3.9-2.4,6-6,6-10.6C487.7,494.8,475.7,494.8,475.5,502.5L475.5,502.5z"/>
	</g>
	<g>
		<path d="M492.8,509.5c0,12.2,0,24.3,0,36.5c0,7.7,12,7.7,12,0c0-12.2,0-24.3,0-36.5C504.9,501.8,492.8,501.8,492.8,509.5
			L492.8,509.5z"/>
	</g>
	<g>
		<path d="M678.3,375.8c8.2,4.1,14.7,10.2,19.2,18.2c3.8,6.7,14.2,0.7,10.4-6.1c-5.5-9.7-13.6-17.6-23.6-22.6
			C677.5,361.9,671.4,372.3,678.3,375.8L678.3,375.8z"/>
	</g>
	<g>
		<path d="M294,408.6c1.5-13.9,9.8-26,21.8-32.9c6.7-3.9,0.6-14.2-6.1-10.4c-15.9,9.2-25.8,25.1-27.8,43.2
			C281.2,416.3,293.2,416.2,294,408.6L294,408.6z"/>
	</g>
	<g>
		<path d="M265.9,396.2c3.4-15.6,12.3-29,25.7-37.8c6.4-4.2,0.4-14.6-6.1-10.4c-15.9,10.4-27.1,26.3-31.2,45
			C252.7,400.5,264.2,403.8,265.9,396.2L265.9,396.2z"/>
	</g>
	<g>
		<path d="M697,359.4c6.4,2.6,11.1,7.9,13.9,14.1c1.4,3,5.6,3.7,8.2,2.1c3-1.8,3.5-5.3,2.2-8.2c-4.2-9.2-11.8-15.8-21.1-19.6
			c-3-1.2-6.6,1.4-7.4,4.2C691.9,355.5,694,358.1,697,359.4L697,359.4z"/>
	</g>
</g>
</svg>
