<svg version="1.1" id="Layer_1" xmlns="http://www.w3.org/2000/svg" x="0" y="0" viewBox="0 0 1000 1000" xml:space="preserve"><style>.st0{opacity:.7;fill:#c6e000}</style><path class="st0" d="M388.4 247.2c2.6-9.5 5.2-19 7.8-28.6-2.1-1.9-4.2-3.7-6.3-5.6l-1.5 34.2z"/><path class="st0" d="M660.3 906.8l15-19.5c-14.5-3.8-29 4.9-43 10.2-14 5.4-33.8 5.4-40-8.3-12.5-21.6-13-49.7-1.2-71.7-6.3 1.8-13-3-15.8-9-7.6-16.2-7.5-36.8-11.7-55.3 8.8-11.4 9.6-26.9 9.4-41.3-.7-43.6-7.8-87-21.2-128.5 32.3 11.6 59.2 37.3 72.4 68.9s12.4 68.8-2.1 99.9c8.9-2.7 16.5-9.7 19.8-18.3-4.9 12.7 4.8 28.8 18.4 30.4 4.1.6 8.3 1.3 12.4 1.9 6.7-73.9-32.4-150-96.4-187.7-13.6-8-27.2-14.9-34.6-29.7-4.2-8.4-2.1-28.6-4.4-39.6.1-3.5.2-7 .3-10.6 14.7 4.3 29.5 5.2 45.5-1 48.4-18.9 83-72.3 74-123.5-22.8-7.4-41.9 29.9-65 23.5-13.6-3.8-18.6-20.6-18.7-34.7-.3-35.1 16-70.1 43.2-92.3 11.5-9.5 25.4-17.4 31.8-30.9s-1.5-34.4-16.4-33.1c1.2-21.9 16.3-42.4 36.8-50 2.2-12.1-4.7-25.2-15.8-30.3-11.6 19.4-28.4 35.6-48.1 46.6-21.6-34.3-62.1-56-102.7-54.9-40.6 1.1-79.8 24.9-99.5 60.4-9.9-.4-15.4-11.8-16.7-21.6-1.2-9.8-.7-20.8-7.1-28.4-6.4-7.6-22.9-4.8-21.6 5l44.2 64.8c-1.8 6.7-3.7 13.4-5.5 20.1 53.4 48.3 88 116.9 95.3 188.4.9 8.4-6.4 15.3-14.7 14-48.3-7.3-92.5-39.4-113.4-83.6 8.7 51.2 25.6 113.8 76.8 122.8 21.5 3.8 40.3 12.8 58 21.5 1.1 14.2 5.2 28.1 11.8 40.7-1.8 4.4-3.1 8.5-3.6 11.4-3.5 19.6 5.6 23.1-11.5 34.3-12.4 8.1-26.9 12.5-39.3 21.3-23.5 16.6-43.3 38.4-57.7 63.2-8.4 14.4-15 29.8-19.5 45.9-3.3 12-1.1 36.1-6.8 45.9l16.8-28.8c5.3 9.6 10.5 19.3 15.8 28.9 5.8-18.7 6.5-39 1.9-58 6.6 5.2 13.2 10.3 19.9 15.4 4-12.7-1.6-27.8-13-34.8 18.8-29.7 45.1-54.7 75.8-71.9 1.7 26.1-5.5 51.9-8.6 77.9-3 25-1.7 52.3 13.1 72.5-15.6 17.2-22 42.5-15.8 65-3.4-1.3-6.7-2.7-10.1-4-6.6 2.9-2.5 15.5 4.6 14 .7 14.9 1.4 29.9 2.1 44.8-23 10.5-46.1 21-69.1 31.5-3.8-7.6-12.4-12.5-20.8-12-8.5.5-16.4 6.3-19.4 14.2 11.8 6.5 25.2 9.8 38.7 9.7-5.2 1.3-5.7 9.5-1.5 12.8 4.2 3.3 10.5 2.3 15-.5s7.9-7.2 11.7-10.9c11.3-10.9 27.7-16.5 43.4-14.6 4.8.6 9.7 1.8 14.4 1 4.8-.8 9.6-4.4 9.6-9.2.1-4.2-3.2-7.6-5.8-10.9-11.3-14.6-10.4-34.9-8.9-53.4 1.3-17 3.3-35.5 15.2-47.6 5-5.1 11.5-8.7 16.8-13.5 12 5.4 25.9 6.4 37.1 1.6 2.5 6.7 4.9 13.1 6.7 18.8 12.4 39.7 25.3 78 24.9 120.2-1.2-1.6-4.3-3.5-6.1-1.5-2 2.2-1 6 1.3 8 2.3 1.9 5.5 2.4 8.4 2.9 21 3.2 42 6.5 63 9.7 4.6.7 9.3 1.4 13.7 0s8.3-5.5 7.9-10.1c-.1-4.6-6.5-7.8-9.8-4.5z"/><path d="M583.5 393.6c-7.1-15.1-7.2-32.9-3-49 4.2-16.2 12.3-31.1 21.2-45.2 7.3-11.6 15.5-23.1 26.4-31.4s25.3-13.1 38.7-10c20.2 4.7 33 27.1 31.3 47.9s-15.1 39-31.7 51.6c-16.6 12.6-36.2 20.3-55.4 28.3-8.8 3.7-19.2 7.4-27.5 2.7-10.8-6.1-10.7-21.4-9.1-33.6m-156.1 25.7c6.9 6.1 14.7 11.8 23.7 13.6 9 1.8 19.6-1.3 24.1-9.3 3.7-6.7 2.5-15 .7-22.4-7.7-32.8-45.1-122.4-93-108-49.2 14.9 25.5 109.6 44.5 126.1z" fill="#000d0c"/><path d="M368.6 108.7c-5.9 4.5-11.3 9.4-16.2 14.9-3.3 3.7-9.7 9.6-9.6 15 .3 13.7 23.9 3.2 29.5 1.2 4.5-1.7 2.6-9-2-7.3-4.3 1.6-8.7 3.1-13.2 4.3-1.8.5-3.6 1.2-5.5 1.2-.1 0-1.5-.3-1 .2-.2-.2 2.1-3 2.3-3.3 5.6-7.4 12.2-14 19.6-19.7 3.8-2.9 0-9.5-3.9-6.5z"/><path d="M356.6 143.8c14.5 22.1 29 44.1 43.5 66.2 2.7 4.1 9.2.3 6.6-3.8-14.5-22.1-29-44.1-43.5-66.2-2.7-4.1-9.3-.3-6.6 3.8zm13.6-30c2.8-1.4 6.1-3.9 9.1-4.5v-1c.3 1.2.6 2.3.8 3.5.4 1.7.6 3.5.8 5.2.3 3.3.3 6.6 0 9.9-.3 2.9-.9 5.9-.2 8.8 1.4 5.5 7 10.5 10.3 14.9 4.4 5.8 8.7 11.8 12.9 17.8 2.8 4 9.3.2 6.6-3.8-4.7-6.8-9.5-13.5-14.6-20-2.3-2.9-6.9-7.1-7.8-10.8-.9-3.6.7-8.5.7-12.2 0-5.4.1-15.9-4.8-19.5-4.8-3.6-13.4 3.2-17.6 5.3-4.4 2-.5 8.6 3.8 6.4z"/><path d="M407 183.4c14.6-26.9 37.2-49.4 64.8-62.8 15.5-7.6 32.5-11.3 49.7-8.9 16.7 2.3 32.3 9.3 46.2 18.7 15.9 10.7 29.5 24.4 42.4 38.5 3.3 3.6 8.7-1.8 5.4-5.4-23.9-26-51.8-51.5-87.6-58.4-34.6-6.6-67.7 8.8-93.3 31.4-13.9 12.2-25.4 26.9-34.2 43.1-2.3 4.2 4.3 8.1 6.6 3.8z"/><path d="M609 170.8c18.2-12.6 35.8-26.3 52.5-40.9 1.3-1.1 1.3-3.2.6-4.6-3.9-7.7-5.9-15.8-6-24.5l-3.8 3.8c5.5 0 9 5.2 11.7 9.3 3.6 5.5 7.1 11.1 10.3 16.8 6.5 11.3 12.1 23.1 15.3 35.8.9-1.6 1.8-3.1 2.7-4.7-9.1 1.4-21.5 3-26.8-6.6-2.4-4.3-8.9-.4-6.6 3.8 7.2 13 22.8 12.1 35.4 10.1 2-.3 3.1-2.9 2.7-4.7-3.9-15-10.8-28.9-18.7-42.1-5.8-9.6-12.8-25.5-26-25.4-2 0-3.8 1.7-3.8 3.8.1 10 2.5 19.4 7 28.3.2-1.5.4-3.1.6-4.6-16.2 14.2-33.2 27.5-50.9 39.7-4 2.9-.3 9.5 3.8 6.7z"/><path d="M664.3 157.9c-7.8 8.6-14.8 17.8-21 27.7-2.6 4.2 4 8 6.6 3.8 5.8-9.3 12.4-18 19.8-26.1 3.3-3.6-2.1-9-5.4-5.4zm-273.1 49.3c-7.4 11-12.4 23.4-14.5 36.5-.8 4.8 6.5 6.8 7.3 2 2-12.5 6.6-24.1 13.7-34.7 2.8-4-3.8-7.8-6.5-3.8z"/><path d="M485.2 405.7c-.2-33.9-9.2-67.4-25.1-97.3-8-14.9-17.7-28.9-28.9-41.6-10.6-12-22.8-24-38.3-29.1-13-4.2-28.2-1.9-38.2 7.8-12.5 12.3-7.3 29.1-2.7 43.8 10.5 33.6 25.4 66.8 50.9 91.8 12.9 12.6 28.3 22.9 45.5 28.8 7.1 2.5 14.9 3.8 20.5-2.6 4.7-5.4 5.6-13.3 5.8-20.2.1-4.9-7.5-4.9-7.6 0-.1 5-.5 11.8-4.3 15.6-4.7 4.7-14.8-.8-19.8-3-13.2-5.9-25-14.4-35.2-24.5-22.2-21.9-36-50.6-45.8-79.9-2.5-7.5-5.1-15-6.8-22.7-1.6-7.2-1.3-14.6 3.7-20.4 8.5-9.7 22.8-10.8 34.2-6.4 13.7 5.3 24.5 16.8 33.9 27.6 9.8 11.3 18.4 23.7 25.6 36.8 16 29.2 25 62.1 25.2 95.5-.1 4.9 7.5 4.9 7.4 0zm93.4-12.3c-2.6-25.7 1.5-51.9 12.2-75.4 10.4-22.9 27.3-46.2 50.1-57.9 11.9-6.1 26.2-8.4 39-3.7 11.5 4.1 19.7 14.2 23.4 25.6 8.2 25.2-5.7 50.5-24.3 67-11.7 10.3-25.5 18-39.3 24.9-14.5 7.2-29.6 13.9-46 14.2-4.9.1-4.9 7.7 0 7.6 15.8-.3 30.5-5.9 44.5-12.7 13.9-6.7 27.6-14 39.8-23.4 21.7-16.8 39.3-43 34.6-71.6-2-12.3-8.3-24.1-18.2-31.9-11-8.7-25.3-11-38.9-8.7-28.3 4.8-50.5 29.8-64.3 53.4-16.2 27.9-23.5 60.7-20.3 92.8.6 4.6 8.2 4.7 7.7-.2zm68.8-194.9c-.1-.1-.2-.3-.3-.4.3 1.2.7 2.5 1 3.7.1-.2.1-.4.2-.6-.6.8-1.2 1.5-1.8 2.3.2-.1.4-.2.5-.3-1 .1-2 .3-2.9.4.9.3 2.7 3.9 3.3 4.7 1 1.4 1.9 2.7 2.8 4.1 2.2 3.2 4.2 6.5 6.2 9.9 3.9 6.7 7.4 13.7 10.5 20.9 2 4.5 8.5.6 6.6-3.8-5.1-11.8-11.3-23-18.7-33.5-2.1-3-5.3-9.8-9.8-9.7-4.4 0-5.4 5-3.1 7.8 3.2 3.6 8.5-1.8 5.5-5.5zM367.7 340.6c0-.5 0-1.1.1-1.6.1-2-1.8-3.9-3.8-3.8-2.1.1-3.7 1.7-3.8 3.8 0 .5 0 1.1-.1 1.6-.1 2 1.8 3.9 3.8 3.8 2.1-.1 3.7-1.6 3.8-3.8zm-11.8 18.9c8.1 50 43.1 94.2 88.7 115.6 13 6.1 26.6 10.3 40.8 12.5l-2.6-2.6c10.9 31.5 19.2 63.8 24.8 96.7.8 4.8 8.1 2.8 7.3-2a609.8 609.8 0 0 0-24.8-96.7c-.4-1.1-1.3-2.5-2.6-2.6-48.2-7.2-90.5-39.7-111.8-83.3-6.1-12.5-10.2-25.8-12.4-39.5-.9-5-8.2-2.9-7.4 1.9zm198.9 206.8c-.4-22.2-.8-44.5-1.1-66.7l-3.8 3.8c54.7-2 103.5-36.9 122.8-88.1 5.4-14.3 8.2-29.4 8.6-44.6.1-4.9-7.5-4.9-7.6 0-.9 32.4-14.1 64.2-37 87.3-22.9 23.1-54.5 36.7-86.9 37.9-2 .1-3.8 1.7-3.8 3.8.4 22.2.8 44.5 1.1 66.7.2 4.8 7.8 4.8 7.7-.1zM508.6 439c5.1 7.9 13.4 15.2 23.4 14.2 8.5-.9 16.3-8.3 15.4-17.2-.5-4.8-8.1-4.9-7.6 0 .6 5.8-4.7 10-10.3 9.7-6.3-.4-11.2-5.6-14.4-10.5-2.6-4.1-9.2-.3-6.5 3.8zm-84.5-219.8c-.9.4-.4-.3-.4.3.1.8.4.4.2 1.3-.3 1.6-2.1 3.2-3.2 4.3-3.4 3.5 2 8.9 5.4 5.4 3.3-3.3 6.8-7.9 5.1-12.8-1.5-4.6-6.5-7.1-10.9-4.9-4.4 2-.6 8.6 3.8 6.4zm198.1 23c-5.3-8.9-6-19.1-2.1-28.7-1.6.9-3.1 1.8-4.7 2.6 3.4 1.1 5.3 4.1 5.2 7.6 0 4.9 7.6 4.9 7.6 0 0-7.1-4.2-12.7-10.8-14.9-2.1-.7-3.9.8-4.7 2.6-4.6 11.3-3.4 24.1 2.8 34.6 2.6 4.3 9.2.4 6.7-3.8z"/><path d="M382.1 283c12.5-6.6 28.9-1.3 35.5 11 2.3 4.3 8.9.5 6.6-3.8-8.6-16.1-29.9-22.2-45.9-13.7-4.3 2.3-.5 8.8 3.8 6.5zm54.7 65.7c.5 1.6.9 3.2 1.4 4.9.5 1.9 2.7 3.3 4.7 2.6 2-.6 3.2-2.6 2.6-4.7-.5-1.6-.9-3.2-1.4-4.9-.5-1.9-2.7-3.3-4.7-2.6-1.9.6-3.2 2.6-2.6 4.7zm178.9-15.4c4.4-17.2 15.5-31.8 30.8-40.6 4.2-2.4.4-9-3.8-6.6-17 9.8-29.4 26.1-34.3 45.1-1.2 4.8 6.1 6.9 7.3 2.1zm48-25.9c-2-1.1-4-2.2-6-3.4.3 2 .5 4 .8 6 6.3-5.1 13.2-9.5 20.5-13.1 4.4-2.2.5-8.8-3.8-6.6-7.9 4-15.2 8.8-22 14.3-1.9 1.5-1.2 4.9.8 6 2 1.1 4 2.2 6 3.4 4.1 2.4 7.9-4.2 3.7-6.6zm-171 246.2c-52.5 22.2-99.1 65-115.1 121-4.1 14.3-5.9 29.2-5.4 44 .2 4.9 7.8 4.9 7.6 0-1.9-54.1 29.9-103.2 72.8-134 13.7-9.8 28.5-18 44-24.5 4.5-1.9.6-8.4-3.9-6.5z"/><path d="M365.9 698.8c-8.2 19-1.4 39.5 14 52.7 2.2 1.8 5.5 1.2 6.4-1.7 1.8-6 3.6-12.1 5.5-18.1 1.4-4.7-5.9-6.7-7.3-2-1.8 6-3.6 12.1-5.5 18.1 2.1-.6 4.2-1.1 6.4-1.7-12.5-10.6-19.6-27.6-12.8-43.5 1.8-4.4-4.7-8.3-6.7-3.8z"/><path d="M386.9 714.4c.7 8.8 3.7 17.1 8.9 24.3 4 5.5 10.8 14.5 18.8 11.8 7.8-2.7 6.7-12.6 6.4-19-.6-11.5-1.9-23-3.9-34.4-.8-4.8-8.1-2.8-7.3 2 1.3 7.7 2.3 15.4 3 23.1.3 3.7.5 7.4.7 11.2.1 2.4 1 6.5-.3 8.7-2.9 4.6-11.4-7.9-12.9-10.3-3.2-5.3-5.2-11.1-5.7-17.3-.5-5-8.1-5-7.7-.1z"/><path d="M406.2 696.7c7.5 8.6 26.5 19.7 33.8 5 6.4-12.8-6.2-26.5-17.1-31.4-4.4-2-8.3 4.6-3.8 6.6 7.1 3.2 16.6 10.8 14.7 19.8-2.5 11.3-18.4-1-22.2-5.4-3.2-3.6-8.6 1.7-5.4 5.4z"/><path d="M415.6 678.5c6.8-12.7 14.9-24.7 24.2-35.8 4.5-5.4 9.3-10.6 14.3-15.6 2.7-2.7 5.5-5.4 8.4-8 1.2-1.1 2.5-2.2 3.8-3.3 1-.8 3.6-3.9 4.9-4-1.1-.6-2.2-1.2-3.3-1.9.1.2.2.4.4.5v-3.8l-.3.6c1.1-.6 2.2-1.2 3.3-1.9h-.6c-4.9-.3-4.9 7.3 0 7.6h.6c1.3.1 2.7-.8 3.3-1.9l.3-.6c.6-1.1.8-2.7 0-3.8-4.8-6.9-13.2 3.2-17 6.6-6.7 6-13.1 12.5-19.1 19.2-11.5 12.9-21.5 27-29.6 42.2-2.4 4.4 4.1 8.2 6.4 3.9zm65.9-78.2c1.4 29.8-9.1 58.1-13.8 87.1-2.1 13.2-4.3 28.4-.7 41.5 1.6 6 5.1 10.9 9.3 15.4 4 4.2 9 8.2 10.9 13.9 1.5 4.6 8.9 2.6 7.3-2-3.8-11.5-16.5-16.9-20-28.5-4.1-13.4-1.1-29.8 1.4-43.3 5.1-27.9 14.6-55.4 13.2-84.1-.2-4.8-7.8-4.8-7.6 0z"/><path d="M472.3 736.3c-4.6 21.7 4.3 43.9-1.7 65.3 1.6-.9 3.1-1.8 4.7-2.7-6.7-2.4-15.4-1.2-20.2 4.3-4.7 5.4-3.2 13.3 2 17.8 3.1 2.7 6.4 3.5 7.7 7.9 1 3.6.5 7.6.2 11.2-.5 5.7-1.2 11.4-1.8 17.1-.3 2.7-.6 5.4-1 8.1-.2 1.9.1 6-1 7.6.8-.6 1.5-1.2 2.3-1.8.3 0 .6.1.9.1.6 1.1 1.2 2.2 1.9 3.3v-.8c-.4.9-.7 1.8-1.1 2.7.2-.2.5-.4.7-.6-.9.4-1.8.7-2.7 1.1.3 0 .7-.1 1-.1 4.8-.5 4.9-8.1 0-7.6-3.5.4-7.2 3.3-4.9 7.2 1.6 2.7 5.8 3.1 8 1 1.6-1.5 1.5-3.9 1.8-5.9l1.2-9.9c.7-6.3 1.4-12.6 2-18.9.8-8.2 1.8-17.8-5-24-2.8-2.5-9.4-4.7-7.1-9.7 2.1-4.6 9.4-4.3 13.2-3 1.9.7 4.1-.8 4.7-2.7 6.1-21.6-2.9-43.7 1.7-65.3.8-4.5-6.5-6.5-7.5-1.7z"/><path class="st0" d="M467.2 885.5c-6 20.1-22.7 36.7-42.9 42.6-4.3 1.2-9.4 1.8-12.7-1.2-5.8-5.3.1-14.8 6.3-19.7 13.3-10.4 28.9-17.9 45.3-21.7"/><path d="M460.9 866.5c-9.3 3.7-18.5 7.4-27.8 11.1-8.5 3.4-17 7.5-25.7 10.2-4.9 1.6-6.9-1-11-3-2.7-1.3-5.5-2.2-8.5-2.8-6.4-1.1-13.3-.5-19.2 2.2-11.7 5.4-16.1 20.3-6.9 30.2 8.5 9.1 24.6 10.1 34.8 3.7 4.1-2.6.3-9.2-3.8-6.6-8.1 5.1-24.2 4.2-27.9-6.3-4.6-13.3 13.6-17.8 23-15.5 5.1 1.2 8.9 5.4 14.1 6.3 6.1 1.1 12.9-3.1 18.4-5.3 14.2-5.7 28.4-11.3 42.5-17 4.5-1.7 2.6-9-2-7.2z"/><path d="M455.3 886.6c-13.3 3.1-26 8.2-37.5 15.5l5.2 5.2c.8-1.3 1.7-2.6 2.5-3.8 1.2-1.9.1-5.2-2.3-5.6-11.7-1.8-26.4 1.8-31.4 13.8-4.5 10.9 2.4 23.4 13.5 26.7 13.2 4 27.7-5.5 38.2-12.6 6.2-4.1 12-8.7 18-13.1 3-2.2 6-4.4 9-6.5 1.3-.9 2.6-1.8 4-2.7 1.1-.7 4.1-1.7 3.4-3 2.3 4.3 8.9.5 6.6-3.8-4.9-9.3-19.8 4.3-24.2 7.6-9.6 7.1-19 14.6-29.5 20.5-9.4 5.3-26.9 12.8-32.2-2-4.7-13.2 12.7-19.1 22.6-17.6-.8-1.9-1.5-3.7-2.3-5.6-.8 1.3-1.7 2.6-2.5 3.8-2.1 3.2 2 7.2 5.2 5.2 11-7 23-11.8 35.7-14.7 4.8-1.1 2.8-8.4-2-7.3z"/><path d="M489.6 879c4.2 1.6 8.2 3.8 11.7 6.5 2.8 2.2 7.5 5.9 2 7.7-8.1 2.6-18.3 1.8-26.7 1.5-4.9-.2-4.9 7.4 0 7.6 7.9.3 15.9.1 23.7-.9 4.6-.6 10.5-1.9 12.9-6.4 5.9-10.9-14.3-20.6-21.6-23.4-4.6-1.7-6.6 5.7-2 7.4zm0-17.3c1.1-28.3 4.9-56.4 11.2-84h-7.3c2.1 7 10 7.2 16 5.8 9.7-2.3 18.5-3.8 28.5-2.5 4.8.6 4.8-7 0-7.6-6.2-.8-12.5-.8-18.7.1-2.4.3-17.4 5.3-18.4 2.2-1-3.5-6.5-3.8-7.3 0-6.5 28.2-10.4 57-11.5 86-.3 4.9 7.3 4.9 7.5 0zm55.1-85.2c11.1 23.5 18.8 48.6 22.1 74.5.6 4.8 8.2 4.8 7.6 0-3.5-27.2-11.4-53.5-23.2-78.3-2-4.5-8.5-.6-6.5 3.8zm27.8-5.9c4.8 13 7.5 26.5 7.8 40.4 0 2.5 2.4 4.3 4.8 3.7 4.9-1.3 17 2.7 10.3 8.9-2.4 2.2-6.2 1.9-8.6 4.3-2.2 2.3-2 5.2-1.8 8.2 1.2 18.3 3.5 36.5 6.4 54.6.8 4.8 8.1 2.8 7.3-2a648.8 648.8 0 0 1-4.5-34.1c-.6-5.5-1.1-11.1-1.5-16.7 0-.5-.6-3.6-.4-4.2.4-.9 1.2-.9 2.5-1.3 1.7-.6 3.2-1.3 4.6-2.4 5.3-4 7.2-11.4 3.1-16.9-4.3-5.9-12.7-7.5-19.5-5.8 1.6 1.2 3.2 2.4 4.8 3.7-.3-14.5-3.1-28.8-8.1-42.4-1.5-4.6-8.9-2.6-7.2 2z"/><path d="M573 845.8c-.9 17.7.8 35.3 4.8 52.6 1.1 4.8 8.4 2.8 7.3-2-3.8-16.6-5.3-33.6-4.5-50.6.2-4.9-7.4-4.9-7.6 0z"/><path d="M573.8 894.5c-12.7.4-18.4 15.4-8.3 23.6 13.8 11.1 33.5 3.9 49.3 4.4 4.9.2 4.9-7.4 0-7.6-11.8-.4-23.8 3.4-35.5 1.1-3.9-.8-9.9-2.5-11.4-6.7-1.4-4 2.1-7.1 5.8-7.2 5-.2 5-7.8.1-7.6zm27-2.7c11.2 3.2 22.4 6.8 33.4 10.8 2 .7 4-.8 4.7-2.7 4-11.2 17.9-16.3 28.9-15.9 5 .2 14.1 1.6 15.7 7.4 1.7 6-6.7 10.5-11 12.3-4.5 1.9-.6 8.5 3.8 6.6 7.2-3.1 15.3-9.5 15-18.2-.3-8.6-9.2-13.4-16.7-14.9-16.5-3.4-37.1 3.9-43.1 20.7 1.6-.9 3.1-1.8 4.7-2.7-11-4-22.1-7.6-33.4-10.8-4.7-1.2-6.8 6.1-2 7.4z"/><path d="M592.4 919.5c20 12.3 44.8 16.6 67.9 12.7 9.6-1.6 22.6-6.1 24.2-17.3 1.5-10.5-9.5-16.4-18.6-15.1-4.8.7-2.8 8 2 7.3 3.7-.5 9 1.7 9.1 6 .1 4.3-4.8 7.4-8.2 8.9-7.7 3.4-16.9 4-25.2 4-16.6 0-33.2-4.3-47.4-13.1-4.1-2.6-7.9 4-3.8 6.6z"/><path d="M648.9 909.4c4.9 0 4.9-7.6 0-7.6s-4.9 7.6 0 7.6zM560.4 594c5.6 28.7 11.2 57.4 15.3 86.4 2 14.3 3.6 28.7 4.6 43 .4 6.4.7 13-.1 19.4-.4 3.4-1.2 6.8-2.3 10-.5 1.4-1.1 2.8-1.8 4.1-.3.5-3.7 3.8-3.7 3.5-.3-4.9-7.9-4.9-7.6 0 .3 5.8 6.7 8.2 11.7 6.2 6.2-2.4 8.7-10.6 10.1-16.5 3.8-16 1-33.5-.8-49.6-4-36.5-11-72.6-18.1-108.6-.9-4.7-8.2-2.7-7.3 2.1z"/><path d="M556.8 592.7c11.1-.2 19.4 7.2 26.1 15.2 8 9.6 15.4 19.7 22.3 30.1 13.3 19.9 24.7 42 27.3 66.2.5 4.8 8.1 4.9 7.6 0-2.9-26.7-15.3-50.9-30.3-72.8-7.4-10.9-15.3-22.1-24.2-31.8-7.6-8.3-17.2-14.6-28.8-14.4-4.9 0-4.9 7.6 0 7.5z"/><path d="M555.9 561.4c27.8 10.1 49.1 33.5 68.5 54.8 20.9 23.1 39.9 50.6 39.8 83 0 4.9 7.6 4.9 7.6 0 0-33.8-19.1-62.8-40.9-87-20.6-23-43.3-47.3-73-58.1-4.6-1.7-6.6 5.7-2 7.3zm72.5 135.9c2.7 11.2-5.7 21-11 30-4.8 8.1-8.3 17.2-5.8 26.7 1.7 6.3 8.2 17.6 16.1 16.9 4.2-.4 6.5-5.1 8.6-8.2 3.3-4.8 6.3-9.8 9.3-14.8 2.5-4.2-4.1-8.1-6.6-3.8-2.3 4-4.8 8-7.3 11.9-1.2 1.9-2.4 4.1-3.9 5.8-1.7 1.9-1.7 1.1-3.7-.8-5.8-5.7-7-13.9-4.4-21.4 5.4-15.2 20.2-26.5 16-44.2-1.1-4.8-8.4-2.8-7.3 1.9z"/><path d="M640.5 726.9c-2 12-2.5 24.4-.1 36.4 1.7 8.6 7.3 19.8 17.7 19.1 9.8-.7 13.7-15 15.1-22.8 2-11 .7-22-3.7-32.2-1.9-4.5-8.5-.6-6.6 3.8 3.2 7.4 4.3 15.6 3.4 23.6-.5 4.8-3.4 20.5-9.8 19.9-7.4-.7-9-13-9.6-18.6-1-9-.7-18.2.9-27.2.8-4.8-6.5-6.8-7.3-2z"/><path d="M662.1 698.7c6.5 11.5 12.2 23.6 16.1 36.2 1.9 6.2 3.2 12.7 3 19.2-.1 3-.6 6.1-1.6 8.9-.6 1.6-3.8 8-5.7 4-2.1-4.4-8.6-.6-6.6 3.8 2.9 6.2 11.2 6.1 15.5 1.6 5.5-5.7 6.3-15.9 5.8-23.4-1.3-19-10.8-37.8-20-54.2-2.4-4.2-8.9-.4-6.5 3.9zm-144.7-9.8c2.8-5.5 8-9.6 14.2-10.4 4.8-.6 4.8-8.2 0-7.6-8.9 1.1-16.7 6-20.8 14.1-2.2 4.4 4.4 8.2 6.6 3.9z"/><path d="M441 322.3c-3-13.8-14.2-25.4-27.8-28.9L402.7 313c1.8 8.8 3.9 18 9.8 24.7 6 6.7 17.2 9.6 24 3.8 5.2-4.5 6-12.5 4.5-19.2zm195.9-24.1c-.4-5.2-6.8-7.5-13.9-8.5-13.8-1.9-27.2 6.6-30.7 20.1-1.2 4.7-1.2 9.4.9 13.8 5.1 10.8 21 13.1 30.8 6.3 9.9-6.8 13.8-19.8 12.9-31.7z" opacity=".56" fill="#9ad4d0"/></svg>