<?xml version="1.0" encoding="utf-8"?>
<!-- Generator: Adobe Illustrator 23.0.2, SVG Export Plug-In . SVG Version: 6.00 Build 0)  -->
<svg version="1.1" id="Layer_1" xmlns="http://www.w3.org/2000/svg" xmlns:xlink="http://www.w3.org/1999/xlink" x="0px" y="0px"
	 viewBox="0 0 1000 1000" style="enable-background:new 0 0 1000 1000;" xml:space="preserve">
<style type="text/css">
	.st0{opacity:0.7;fill:#C6E000;}
	.st1{fill:#000D0C;}
	.st2{opacity:0.56;fill:#9AD4D0;enable-background:new    ;}
</style>
<g>
	<g>
		<path class="st0" d="M388.4,247.2c2.6-9.5,5.2-19,7.8-28.6c-2.1-1.9-4.2-3.7-6.3-5.6L388.4,247.2z"/>
		<path class="st0" d="M660.3,906.8c5-6.5,10-13,15-19.5c-14.5-3.8-29,4.9-43,10.2c-14,5.4-33.8,5.4-40-8.3
			c-12.5-21.6-13-49.7-1.2-71.7c-6.3,1.8-13-3-15.8-9c-7.6-16.2-7.5-36.8-11.7-55.3c8.8-11.4,9.6-26.9,9.4-41.3
			c-0.7-43.6-7.8-87-21.2-128.5c32.3,11.6,59.2,37.3,72.4,68.9s12.4,68.8-2.1,99.9c8.9-2.7,16.5-9.7,19.8-18.3
			c-4.9,12.7,4.8,28.8,18.4,30.4c4.1,0.6,8.3,1.3,12.4,1.9c6.7-73.9-32.4-150-96.4-187.7c-13.6-8-27.2-14.9-34.6-29.7
			c-4.2-8.4-2.1-28.6-4.4-39.6c0.1-3.5,0.2-7,0.3-10.6c14.7,4.3,29.5,5.2,45.5-1c48.4-18.9,83-72.3,74-123.5
			c-22.8-7.4-41.9,29.9-65,23.5c-13.6-3.8-18.6-20.6-18.7-34.7c-0.3-35.1,16-70.1,43.2-92.3c11.5-9.5,25.4-17.4,31.8-30.9
			s-1.5-34.4-16.4-33.1c1.2-21.9,16.3-42.4,36.8-50c2.2-12.1-4.7-25.2-15.8-30.3c-11.6,19.4-28.4,35.6-48.1,46.6
			c-21.6-34.3-62.1-56-102.7-54.9c-40.6,1.1-79.8,24.9-99.5,60.4c-9.9-0.4-15.4-11.8-16.7-21.6c-1.2-9.8-0.7-20.8-7.1-28.4
			c-6.4-7.6-22.9-4.8-21.6,5l44.2,64.8c-1.8,6.7-3.7,13.4-5.5,20.1c53.4,48.3,88,116.9,95.3,188.4c0.9,8.4-6.4,15.3-14.7,14
			c-48.3-7.3-92.5-39.4-113.4-83.6c8.7,51.2,25.6,113.8,76.8,122.8c21.5,3.8,40.3,12.8,58,21.5c1.1,14.2,5.2,28.1,11.8,40.7
			c-1.8,4.4-3.1,8.5-3.6,11.4c-3.5,19.6,5.6,23.1-11.5,34.3c-12.4,8.1-26.9,12.5-39.3,21.3c-23.5,16.6-43.3,38.4-57.7,63.2
			c-8.4,14.4-15,29.8-19.5,45.9c-3.3,12-1.1,36.1-6.8,45.9c5.6-9.6,11.2-19.2,16.8-28.8c5.3,9.6,10.5,19.3,15.8,28.9
			c5.8-18.7,6.5-39,1.9-58c6.6,5.2,13.2,10.3,19.9,15.4c4-12.7-1.6-27.8-13-34.8c18.8-29.7,45.1-54.7,75.8-71.9
			c1.7,26.1-5.5,51.9-8.6,77.9c-3,25-1.7,52.3,13.1,72.5c-15.6,17.2-22,42.5-15.8,65c-3.4-1.3-6.7-2.7-10.1-4
			c-6.6,2.9-2.5,15.5,4.6,14c0.7,14.9,1.4,29.9,2.1,44.8c-23,10.5-46.1,21-69.1,31.5c-3.8-7.6-12.4-12.5-20.8-12
			c-8.5,0.5-16.4,6.3-19.4,14.2c11.8,6.5,25.2,9.8,38.7,9.7c-5.2,1.3-5.7,9.5-1.5,12.8c4.2,3.3,10.5,2.3,15-0.5
			c4.5-2.8,7.9-7.2,11.7-10.9c11.3-10.9,27.7-16.5,43.4-14.6c4.8,0.6,9.7,1.8,14.4,1c4.8-0.8,9.6-4.4,9.6-9.2
			c0.1-4.2-3.2-7.6-5.8-10.9c-11.3-14.6-10.4-34.9-8.9-53.4c1.3-17,3.3-35.5,15.2-47.6c5-5.1,11.5-8.7,16.8-13.5
			c12,5.4,25.9,6.4,37.1,1.6c2.5,6.7,4.9,13.1,6.7,18.8c12.4,39.7,25.3,78,24.9,120.2c-1.2-1.6-4.3-3.5-6.1-1.5c-2,2.2-1,6,1.3,8
			c2.3,1.9,5.5,2.4,8.4,2.9c21,3.2,42,6.5,63,9.7c4.6,0.7,9.3,1.4,13.7,0s8.3-5.5,7.9-10.1C670,906.7,663.6,903.5,660.3,906.8z"/>
	</g>
	<path class="st1" d="M583.5,393.6c-7.1-15.1-7.2-32.9-3-49c4.2-16.2,12.3-31.1,21.2-45.2c7.3-11.6,15.5-23.1,26.4-31.4
		s25.3-13.1,38.7-10c20.2,4.7,33,27.1,31.3,47.9s-15.1,39-31.7,51.6c-16.6,12.6-36.2,20.3-55.4,28.3c-8.8,3.7-19.2,7.4-27.5,2.7
		c-10.8-6.1-10.7-21.4-9.1-33.6"/>
	<path class="st1" d="M418.3,380.6c6.9,6.1,14.7,11.8,23.7,13.6c9,1.8,19.6-1.3,24.1-9.3c3.7-6.7,2.5-15,0.7-22.4
		c-7.7-32.8-45.1-122.4-93-108C324.6,269.4,399.3,364.1,418.3,380.6z"/>
	<g>
		<path d="M368.6,108.7c-5.9,4.5-11.3,9.4-16.2,14.9c-3.3,3.7-9.7,9.6-9.6,15c0.3,13.7,23.9,3.2,29.5,1.2c4.5-1.7,2.6-9-2-7.3
			c-4.3,1.6-8.7,3.1-13.2,4.3c-1.8,0.5-3.6,1.2-5.5,1.2c-0.1,0-1.5-0.3-1,0.2c-0.2-0.2,2.1-3,2.3-3.3c5.6-7.4,12.2-14,19.6-19.7
			C376.3,112.3,372.5,105.7,368.6,108.7L368.6,108.7z"/>
	</g>
	<g>
		<path d="M356.6,143.8c14.5,22.1,29,44.1,43.5,66.2c2.7,4.1,9.2,0.3,6.6-3.8c-14.5-22.1-29-44.1-43.5-66.2
			C360.5,135.9,353.9,139.7,356.6,143.8L356.6,143.8z"/>
	</g>
	<g>
		<path d="M370.2,113.8c2.8-1.4,6.1-3.9,9.1-4.5c0-0.3,0-0.7,0-1c0.3,1.2,0.6,2.3,0.8,3.5c0.4,1.7,0.6,3.5,0.8,5.2
			c0.3,3.3,0.3,6.6,0,9.9c-0.3,2.9-0.9,5.9-0.2,8.8c1.4,5.5,7,10.5,10.3,14.9c4.4,5.8,8.7,11.8,12.9,17.8c2.8,4,9.3,0.2,6.6-3.8
			c-4.7-6.8-9.5-13.5-14.6-20c-2.3-2.9-6.9-7.1-7.8-10.8c-0.9-3.6,0.7-8.5,0.7-12.2c0-5.4,0.1-15.9-4.8-19.5
			c-4.8-3.6-13.4,3.2-17.6,5.3C362,109.4,365.9,116,370.2,113.8L370.2,113.8z"/>
	</g>
	<g>
		<path d="M407,183.4c14.6-26.9,37.2-49.4,64.8-62.8c15.5-7.6,32.5-11.3,49.7-8.9c16.7,2.3,32.3,9.3,46.2,18.7
			c15.9,10.7,29.5,24.4,42.4,38.5c3.3,3.6,8.7-1.8,5.4-5.4c-23.9-26-51.8-51.5-87.6-58.4c-34.6-6.6-67.7,8.8-93.3,31.4
			c-13.9,12.2-25.4,26.9-34.2,43.1C398.1,183.8,404.7,187.7,407,183.4L407,183.4z"/>
	</g>
	<g>
		<path d="M609,170.8c18.2-12.6,35.8-26.3,52.5-40.9c1.3-1.1,1.3-3.2,0.6-4.6c-3.9-7.7-5.9-15.8-6-24.5c-1.3,1.3-2.5,2.5-3.8,3.8
			c5.5,0,9,5.2,11.7,9.3c3.6,5.5,7.1,11.1,10.3,16.8c6.5,11.3,12.1,23.1,15.3,35.8c0.9-1.6,1.8-3.1,2.7-4.7
			c-9.1,1.4-21.5,3-26.8-6.6c-2.4-4.3-8.9-0.4-6.6,3.8c7.2,13,22.8,12.1,35.4,10.1c2-0.3,3.1-2.9,2.7-4.7
			c-3.9-15-10.8-28.9-18.7-42.1c-5.8-9.6-12.8-25.5-26-25.4c-2,0-3.8,1.7-3.8,3.8c0.1,10,2.5,19.4,7,28.3c0.2-1.5,0.4-3.1,0.6-4.6
			c-16.2,14.2-33.2,27.5-50.9,39.7C601.2,167,604.9,173.6,609,170.8L609,170.8z"/>
	</g>
	<g>
		<path d="M664.3,157.9c-7.8,8.6-14.8,17.8-21,27.7c-2.6,4.2,4,8,6.6,3.8c5.8-9.3,12.4-18,19.8-26.1
			C673,159.7,667.6,154.3,664.3,157.9L664.3,157.9z"/>
	</g>
	<g>
		<path d="M391.2,207.2c-7.4,11-12.4,23.4-14.5,36.5c-0.8,4.8,6.5,6.8,7.3,2c2-12.5,6.6-24.1,13.7-34.7
			C400.5,207,393.9,203.2,391.2,207.2L391.2,207.2z"/>
	</g>
	<g>
		<path d="M485.2,405.7c-0.2-33.9-9.2-67.4-25.1-97.3c-8-14.9-17.7-28.9-28.9-41.6c-10.6-12-22.8-24-38.3-29.1
			c-13-4.2-28.2-1.9-38.2,7.8c-12.5,12.3-7.3,29.1-2.7,43.8c10.5,33.6,25.4,66.8,50.9,91.8c12.9,12.6,28.3,22.9,45.5,28.8
			c7.1,2.5,14.9,3.8,20.5-2.6c4.7-5.4,5.6-13.3,5.8-20.2c0.1-4.9-7.5-4.9-7.6,0c-0.1,5-0.5,11.8-4.3,15.6c-4.7,4.7-14.8-0.8-19.8-3
			c-13.2-5.9-25-14.4-35.2-24.5c-22.2-21.9-36-50.6-45.8-79.9c-2.5-7.5-5.1-15-6.8-22.7c-1.6-7.2-1.3-14.6,3.7-20.4
			c8.5-9.7,22.8-10.8,34.2-6.4c13.7,5.3,24.5,16.8,33.9,27.6c9.8,11.3,18.4,23.7,25.6,36.8c16,29.2,25,62.1,25.2,95.5
			C477.7,410.6,485.3,410.6,485.2,405.7L485.2,405.7z"/>
	</g>
	<g>
		<path d="M578.6,393.4c-2.6-25.7,1.5-51.9,12.2-75.4c10.4-22.9,27.3-46.2,50.1-57.9c11.9-6.1,26.2-8.4,39-3.7
			c11.5,4.1,19.7,14.2,23.4,25.6c8.2,25.2-5.7,50.5-24.3,67c-11.7,10.3-25.5,18-39.3,24.9c-14.5,7.2-29.6,13.9-46,14.2
			c-4.9,0.1-4.9,7.7,0,7.6c15.8-0.3,30.5-5.9,44.5-12.7c13.9-6.7,27.6-14,39.8-23.4c21.7-16.8,39.3-43,34.6-71.6
			c-2-12.3-8.3-24.1-18.2-31.9c-11-8.7-25.3-11-38.9-8.7c-28.3,4.8-50.5,29.8-64.3,53.4c-16.2,27.9-23.5,60.7-20.3,92.8
			C571.5,398.2,579.1,398.3,578.6,393.4L578.6,393.4z"/>
	</g>
	<g>
		<path d="M647.4,198.5c-0.1-0.1-0.2-0.3-0.3-0.4c0.3,1.2,0.7,2.5,1,3.7c0.1-0.2,0.1-0.4,0.2-0.6c-0.6,0.8-1.2,1.5-1.8,2.3
			c0.2-0.1,0.4-0.2,0.5-0.3c-1,0.1-2,0.3-2.9,0.4c0.9,0.3,2.7,3.9,3.3,4.7c1,1.4,1.9,2.7,2.8,4.1c2.2,3.2,4.2,6.5,6.2,9.9
			c3.9,6.7,7.4,13.7,10.5,20.9c2,4.5,8.5,0.6,6.6-3.8c-5.1-11.8-11.3-23-18.7-33.5c-2.1-3-5.3-9.8-9.8-9.7c-4.4,0-5.4,5-3.1,7.8
			C645.1,207.6,650.4,202.2,647.4,198.5L647.4,198.5z"/>
	</g>
	<g>
		<path d="M367.7,340.6c0-0.5,0-1.1,0.1-1.6c0.1-2-1.8-3.9-3.8-3.8c-2.1,0.1-3.7,1.7-3.8,3.8c0,0.5,0,1.1-0.1,1.6
			c-0.1,2,1.8,3.9,3.8,3.8C366,344.3,367.6,342.8,367.7,340.6L367.7,340.6z"/>
	</g>
	<g>
		<path d="M355.9,359.5c8.1,50,43.1,94.2,88.7,115.6c13,6.1,26.6,10.3,40.8,12.5c-0.9-0.9-1.8-1.8-2.6-2.6
			c10.9,31.5,19.2,63.8,24.8,96.7c0.8,4.8,8.1,2.8,7.3-2c-5.6-32.8-13.9-65.2-24.8-96.7c-0.4-1.1-1.3-2.5-2.6-2.6
			c-48.2-7.2-90.5-39.7-111.8-83.3c-6.1-12.5-10.2-25.8-12.4-39.5C362.4,352.6,355.1,354.7,355.9,359.5L355.9,359.5z"/>
	</g>
	<g>
		<path d="M554.8,566.3c-0.4-22.2-0.8-44.5-1.1-66.7c-1.3,1.3-2.5,2.5-3.8,3.8c54.7-2,103.5-36.9,122.8-88.1
			c5.4-14.3,8.2-29.4,8.6-44.6c0.1-4.9-7.5-4.9-7.6,0c-0.9,32.4-14.1,64.2-37,87.3c-22.9,23.1-54.5,36.7-86.9,37.9
			c-2,0.1-3.8,1.7-3.8,3.8c0.4,22.2,0.8,44.5,1.1,66.7C547.3,571.2,554.9,571.2,554.8,566.3L554.8,566.3z"/>
	</g>
	<g>
		<path d="M508.6,439c5.1,7.9,13.4,15.2,23.4,14.2c8.5-0.9,16.3-8.3,15.4-17.2c-0.5-4.8-8.1-4.9-7.6,0c0.6,5.8-4.7,10-10.3,9.7
			c-6.3-0.4-11.2-5.6-14.4-10.5C512.5,431.1,505.9,434.9,508.6,439L508.6,439z"/>
	</g>
	<g>
		<path d="M424.1,219.2c-0.9,0.4-0.4-0.3-0.4,0.3c0.1,0.8,0.4,0.4,0.2,1.3c-0.3,1.6-2.1,3.2-3.2,4.3c-3.4,3.5,2,8.9,5.4,5.4
			c3.3-3.3,6.8-7.9,5.1-12.8c-1.5-4.6-6.5-7.1-10.9-4.9C415.9,214.8,419.7,221.4,424.1,219.2L424.1,219.2z"/>
	</g>
	<g>
		<path d="M622.2,242.2c-5.3-8.9-6-19.1-2.1-28.7c-1.6,0.9-3.1,1.8-4.7,2.6c3.4,1.1,5.3,4.1,5.2,7.6c0,4.9,7.6,4.9,7.6,0
			c0-7.1-4.2-12.7-10.8-14.9c-2.1-0.7-3.9,0.8-4.7,2.6c-4.6,11.3-3.4,24.1,2.8,34.6C618.1,250.3,624.7,246.4,622.2,242.2
			L622.2,242.2z"/>
	</g>
	<g>
		<path d="M382.1,283c12.5-6.6,28.9-1.3,35.5,11c2.3,4.3,8.9,0.5,6.6-3.8c-8.6-16.1-29.9-22.2-45.9-13.7
			C374,278.8,377.8,285.3,382.1,283L382.1,283z"/>
	</g>
	<g>
		<path d="M436.8,348.7c0.5,1.6,0.9,3.2,1.4,4.9c0.5,1.9,2.7,3.3,4.7,2.6c2-0.6,3.2-2.6,2.6-4.7c-0.5-1.6-0.9-3.2-1.4-4.9
			c-0.5-1.9-2.7-3.3-4.7-2.6C437.5,344.6,436.2,346.6,436.8,348.7L436.8,348.7z"/>
	</g>
	<g>
		<path d="M615.7,333.3c4.4-17.2,15.5-31.8,30.8-40.6c4.2-2.4,0.4-9-3.8-6.6c-17,9.8-29.4,26.1-34.3,45.1
			C607.2,336,614.5,338.1,615.7,333.3L615.7,333.3z"/>
	</g>
	<g>
		<path d="M663.7,307.4c-2-1.1-4-2.2-6-3.4c0.3,2,0.5,4,0.8,6c6.3-5.1,13.2-9.5,20.5-13.1c4.4-2.2,0.5-8.8-3.8-6.6
			c-7.9,4-15.2,8.8-22,14.3c-1.9,1.5-1.2,4.9,0.8,6c2,1.1,4,2.2,6,3.4C664.1,316.4,667.9,309.8,663.7,307.4L663.7,307.4z"/>
	</g>
	<g>
		<path d="M492.7,553.6c-52.5,22.2-99.1,65-115.1,121c-4.1,14.3-5.9,29.2-5.4,44c0.2,4.9,7.8,4.9,7.6,0
			c-1.9-54.1,29.9-103.2,72.8-134c13.7-9.8,28.5-18,44-24.5C501.1,558.2,497.2,551.7,492.7,553.6L492.7,553.6z"/>
	</g>
	<g>
		<path d="M365.9,698.8c-8.2,19-1.4,39.5,14,52.7c2.2,1.8,5.5,1.2,6.4-1.7c1.8-6,3.6-12.1,5.5-18.1c1.4-4.7-5.9-6.7-7.3-2
			c-1.8,6-3.6,12.1-5.5,18.1c2.1-0.6,4.2-1.1,6.4-1.7c-12.5-10.6-19.6-27.6-12.8-43.5C374.4,698.2,367.9,694.3,365.9,698.8
			L365.9,698.8z"/>
	</g>
	<g>
		<path d="M386.9,714.4c0.7,8.8,3.7,17.1,8.9,24.3c4,5.5,10.8,14.5,18.8,11.8c7.8-2.7,6.7-12.6,6.4-19c-0.6-11.5-1.9-23-3.9-34.4
			c-0.8-4.8-8.1-2.8-7.3,2c1.3,7.7,2.3,15.4,3,23.1c0.3,3.7,0.5,7.4,0.7,11.2c0.1,2.4,1,6.5-0.3,8.7c-2.9,4.6-11.4-7.9-12.9-10.3
			c-3.2-5.3-5.2-11.1-5.7-17.3C394.1,709.5,386.5,709.5,386.9,714.4L386.9,714.4z"/>
	</g>
	<g>
		<path d="M406.2,696.7c7.5,8.6,26.5,19.7,33.8,5c6.4-12.8-6.2-26.5-17.1-31.4c-4.4-2-8.3,4.6-3.8,6.6c7.1,3.2,16.6,10.8,14.7,19.8
			c-2.5,11.3-18.4-1-22.2-5.4C408.4,687.7,403,693,406.2,696.7L406.2,696.7z"/>
	</g>
	<g>
		<path d="M415.6,678.5c6.8-12.7,14.9-24.7,24.2-35.8c4.5-5.4,9.3-10.6,14.3-15.6c2.7-2.7,5.5-5.4,8.4-8c1.2-1.1,2.5-2.2,3.8-3.3
			c1-0.8,3.6-3.9,4.9-4c-1.1-0.6-2.2-1.2-3.3-1.9c0.1,0.2,0.2,0.4,0.4,0.5c0-1.3,0-2.6,0-3.8c-0.1,0.2-0.2,0.4-0.3,0.6
			c1.1-0.6,2.2-1.2,3.3-1.9c-0.2,0-0.4,0-0.6,0c-4.9-0.3-4.9,7.3,0,7.6c0.2,0,0.4,0,0.6,0c1.3,0.1,2.7-0.8,3.3-1.9
			c0.1-0.2,0.2-0.4,0.3-0.6c0.6-1.1,0.8-2.7,0-3.8c-4.8-6.9-13.2,3.2-17,6.6c-6.7,6-13.1,12.5-19.1,19.2
			c-11.5,12.9-21.5,27-29.6,42.2C406.8,679,413.3,682.8,415.6,678.5L415.6,678.5z"/>
	</g>
	<g>
		<path d="M481.5,600.3c1.4,29.8-9.1,58.1-13.8,87.1c-2.1,13.2-4.3,28.4-0.7,41.5c1.6,6,5.1,10.9,9.3,15.4c4,4.2,9,8.2,10.9,13.9
			c1.5,4.6,8.9,2.6,7.3-2c-3.8-11.5-16.5-16.9-20-28.5c-4.1-13.4-1.1-29.8,1.4-43.3c5.1-27.9,14.6-55.4,13.2-84.1
			C488.9,595.5,481.3,595.5,481.5,600.3L481.5,600.3z"/>
	</g>
	<g>
		<path d="M472.3,736.3c-4.6,21.7,4.3,43.9-1.7,65.3c1.6-0.9,3.1-1.8,4.7-2.7c-6.7-2.4-15.4-1.2-20.2,4.3c-4.7,5.4-3.2,13.3,2,17.8
			c3.1,2.7,6.4,3.5,7.7,7.9c1,3.6,0.5,7.6,0.2,11.2c-0.5,5.7-1.2,11.4-1.8,17.1c-0.3,2.7-0.6,5.4-1,8.1c-0.2,1.9,0.1,6-1,7.6
			c0.8-0.6,1.5-1.2,2.3-1.8c0.3,0,0.6,0.1,0.9,0.1c0.6,1.1,1.2,2.2,1.9,3.3c0-0.3,0-0.5,0-0.8c-0.4,0.9-0.7,1.8-1.1,2.7
			c0.2-0.2,0.5-0.4,0.7-0.6c-0.9,0.4-1.8,0.7-2.7,1.1c0.3,0,0.7-0.1,1-0.1c4.8-0.5,4.9-8.1,0-7.6c-3.5,0.4-7.2,3.3-4.9,7.2
			c1.6,2.7,5.8,3.1,8,1c1.6-1.5,1.5-3.9,1.8-5.9c0.4-3.3,0.8-6.6,1.2-9.9c0.7-6.3,1.4-12.6,2-18.9c0.8-8.2,1.8-17.8-5-24
			c-2.8-2.5-9.4-4.7-7.1-9.7c2.1-4.6,9.4-4.3,13.2-3c1.9,0.7,4.1-0.8,4.7-2.7c6.1-21.6-2.9-43.7,1.7-65.3
			C480.6,733.5,473.3,731.5,472.3,736.3L472.3,736.3z"/>
	</g>
	<path class="st0" d="M467.2,885.5c-6,20.1-22.7,36.7-42.9,42.6c-4.3,1.2-9.4,1.8-12.7-1.2c-5.8-5.3,0.1-14.8,6.3-19.7
		c13.3-10.4,28.9-17.9,45.3-21.7"/>
	<g>
		<path d="M460.9,866.5c-9.3,3.7-18.5,7.4-27.8,11.1c-8.5,3.4-17,7.5-25.7,10.2c-4.9,1.6-6.9-1-11-3c-2.7-1.3-5.5-2.2-8.5-2.8
			c-6.4-1.1-13.3-0.5-19.2,2.2c-11.7,5.4-16.1,20.3-6.9,30.2c8.5,9.1,24.6,10.1,34.8,3.7c4.1-2.6,0.3-9.2-3.8-6.6
			c-8.1,5.1-24.2,4.2-27.9-6.3c-4.6-13.3,13.6-17.8,23-15.5c5.1,1.2,8.9,5.4,14.1,6.3c6.1,1.1,12.9-3.1,18.4-5.3
			c14.2-5.7,28.4-11.3,42.5-17C467.4,872,465.5,864.7,460.9,866.5L460.9,866.5z"/>
	</g>
	<g>
		<path d="M455.3,886.6c-13.3,3.1-26,8.2-37.5,15.5c1.7,1.7,3.5,3.5,5.2,5.2c0.8-1.3,1.7-2.6,2.5-3.8c1.2-1.9,0.1-5.2-2.3-5.6
			c-11.7-1.8-26.4,1.8-31.4,13.8c-4.5,10.9,2.4,23.4,13.5,26.7c13.2,4,27.7-5.5,38.2-12.6c6.2-4.1,12-8.7,18-13.1c3-2.2,6-4.4,9-6.5
			c1.3-0.9,2.6-1.8,4-2.7c1.1-0.7,4.1-1.7,3.4-3c2.3,4.3,8.9,0.5,6.6-3.8c-4.9-9.3-19.8,4.3-24.2,7.6c-9.6,7.1-19,14.6-29.5,20.5
			c-9.4,5.3-26.9,12.8-32.2-2c-4.7-13.2,12.7-19.1,22.6-17.6c-0.8-1.9-1.5-3.7-2.3-5.6c-0.8,1.3-1.7,2.6-2.5,3.8
			c-2.1,3.2,2,7.2,5.2,5.2c11-7,23-11.8,35.7-14.7C462.1,892.8,460.1,885.5,455.3,886.6L455.3,886.6z"/>
	</g>
	<g>
		<path d="M489.6,879c4.2,1.6,8.2,3.8,11.7,6.5c2.8,2.2,7.5,5.9,2,7.7c-8.1,2.6-18.3,1.8-26.7,1.5c-4.9-0.2-4.9,7.4,0,7.6
			c7.9,0.3,15.9,0.1,23.7-0.9c4.6-0.6,10.5-1.9,12.9-6.4c5.9-10.9-14.3-20.6-21.6-23.4C487,869.9,485,877.3,489.6,879L489.6,879z"/>
	</g>
	<g>
		<path d="M489.6,861.7c1.1-28.3,4.9-56.4,11.2-84c-2.4,0-4.9,0-7.3,0c2.1,7,10,7.2,16,5.8c9.7-2.3,18.5-3.8,28.5-2.5
			c4.8,0.6,4.8-7,0-7.6c-6.2-0.8-12.5-0.8-18.7,0.1c-2.4,0.3-17.4,5.3-18.4,2.2c-1-3.5-6.5-3.8-7.3,0c-6.5,28.2-10.4,57-11.5,86
			C481.8,866.6,489.4,866.6,489.6,861.7L489.6,861.7z"/>
	</g>
	<g>
		<path d="M544.7,776.5c11.1,23.5,18.8,48.6,22.1,74.5c0.6,4.8,8.2,4.8,7.6,0c-3.5-27.2-11.4-53.5-23.2-78.3
			C549.2,768.2,542.7,772.1,544.7,776.5L544.7,776.5z"/>
	</g>
	<g>
		<path d="M572.5,770.6c4.8,13,7.5,26.5,7.8,40.4c0,2.5,2.4,4.3,4.8,3.7c4.9-1.3,17,2.7,10.3,8.9c-2.4,2.2-6.2,1.9-8.6,4.3
			c-2.2,2.3-2,5.2-1.8,8.2c1.2,18.3,3.5,36.5,6.4,54.6c0.8,4.8,8.1,2.8,7.3-2c-1.8-11.3-3.3-22.7-4.5-34.1
			c-0.6-5.5-1.1-11.1-1.5-16.7c0-0.5-0.6-3.6-0.4-4.2c0.4-0.9,1.2-0.9,2.5-1.3c1.7-0.6,3.2-1.3,4.6-2.4c5.3-4,7.2-11.4,3.1-16.9
			c-4.3-5.9-12.7-7.5-19.5-5.8c1.6,1.2,3.2,2.4,4.8,3.7c-0.3-14.5-3.1-28.8-8.1-42.4C578.2,764,570.8,766,572.5,770.6L572.5,770.6z"
			/>
	</g>
	<g>
		<g>
			<path d="M573,845.8c-0.9,17.7,0.8,35.3,4.8,52.6c1.1,4.8,8.4,2.8,7.3-2c-3.8-16.6-5.3-33.6-4.5-50.6
				C580.8,840.9,573.2,840.9,573,845.8L573,845.8z"/>
		</g>
		<g>
			<path d="M573.8,894.5c-12.7,0.4-18.4,15.4-8.3,23.6c13.8,11.1,33.5,3.9,49.3,4.4c4.9,0.2,4.9-7.4,0-7.6
				c-11.8-0.4-23.8,3.4-35.5,1.1c-3.9-0.8-9.9-2.5-11.4-6.7c-1.4-4,2.1-7.1,5.8-7.2C578.7,901.9,578.7,894.3,573.8,894.5
				L573.8,894.5z"/>
		</g>
		<g>
			<path d="M600.8,891.8c11.2,3.2,22.4,6.8,33.4,10.8c2,0.7,4-0.8,4.7-2.7c4-11.2,17.9-16.3,28.9-15.9c5,0.2,14.1,1.6,15.7,7.4
				c1.7,6-6.7,10.5-11,12.3c-4.5,1.9-0.6,8.5,3.8,6.6c7.2-3.1,15.3-9.5,15-18.2c-0.3-8.6-9.2-13.4-16.7-14.9
				c-16.5-3.4-37.1,3.9-43.1,20.7c1.6-0.9,3.1-1.8,4.7-2.7c-11-4-22.1-7.6-33.4-10.8C598.1,883.2,596,890.5,600.8,891.8L600.8,891.8
				z"/>
		</g>
		<g>
			<path d="M592.4,919.5c20,12.3,44.8,16.6,67.9,12.7c9.6-1.6,22.6-6.1,24.2-17.3c1.5-10.5-9.5-16.4-18.6-15.1c-4.8,0.7-2.8,8,2,7.3
				c3.7-0.5,9,1.7,9.1,6c0.1,4.3-4.8,7.4-8.2,8.9c-7.7,3.4-16.9,4-25.2,4c-16.6,0-33.2-4.3-47.4-13.1
				C592.1,910.3,588.3,916.9,592.4,919.5L592.4,919.5z"/>
		</g>
		<g>
			<path d="M648.9,909.4c4.9,0,4.9-7.6,0-7.6C644,901.8,644,909.4,648.9,909.4L648.9,909.4z"/>
		</g>
	</g>
	<g>
		<path d="M560.4,594c5.6,28.7,11.2,57.4,15.3,86.4c2,14.3,3.6,28.7,4.6,43c0.4,6.4,0.7,13-0.1,19.4c-0.4,3.4-1.2,6.8-2.3,10
			c-0.5,1.4-1.1,2.8-1.8,4.1c-0.3,0.5-3.7,3.8-3.7,3.5c-0.3-4.9-7.9-4.9-7.6,0c0.3,5.8,6.7,8.2,11.7,6.2c6.2-2.4,8.7-10.6,10.1-16.5
			c3.8-16,1-33.5-0.8-49.6c-4-36.5-11-72.6-18.1-108.6C566.8,587.2,559.5,589.2,560.4,594L560.4,594z"/>
	</g>
	<g>
		<path d="M556.8,592.7c11.1-0.2,19.4,7.2,26.1,15.2c8,9.6,15.4,19.7,22.3,30.1c13.3,19.9,24.7,42,27.3,66.2c0.5,4.8,8.1,4.9,7.6,0
			c-2.9-26.7-15.3-50.9-30.3-72.8c-7.4-10.9-15.3-22.1-24.2-31.8c-7.6-8.3-17.2-14.6-28.8-14.4C551.9,585.2,551.9,592.8,556.8,592.7
			L556.8,592.7z"/>
	</g>
	<g>
		<path d="M555.9,561.4c27.8,10.1,49.1,33.5,68.5,54.8c20.9,23.1,39.9,50.6,39.8,83c0,4.9,7.6,4.9,7.6,0c0-33.8-19.1-62.8-40.9-87
			c-20.6-23-43.3-47.3-73-58.1C553.3,552.4,551.3,559.8,555.9,561.4L555.9,561.4z"/>
	</g>
	<g>
		<path d="M628.4,697.3c2.7,11.2-5.7,21-11,30c-4.8,8.1-8.3,17.2-5.8,26.7c1.7,6.3,8.2,17.6,16.1,16.9c4.2-0.4,6.5-5.1,8.6-8.2
			c3.3-4.8,6.3-9.8,9.3-14.8c2.5-4.2-4.1-8.1-6.6-3.8c-2.3,4-4.8,8-7.3,11.9c-1.2,1.9-2.4,4.1-3.9,5.8c-1.7,1.9-1.7,1.1-3.7-0.8
			c-5.8-5.7-7-13.9-4.4-21.4c5.4-15.2,20.2-26.5,16-44.2C634.6,690.6,627.3,692.6,628.4,697.3L628.4,697.3z"/>
	</g>
	<g>
		<path d="M640.5,726.9c-2,12-2.5,24.4-0.1,36.4c1.7,8.6,7.3,19.8,17.7,19.1c9.8-0.7,13.7-15,15.1-22.8c2-11,0.7-22-3.7-32.2
			c-1.9-4.5-8.5-0.6-6.6,3.8c3.2,7.4,4.3,15.6,3.4,23.6c-0.5,4.8-3.4,20.5-9.8,19.9c-7.4-0.7-9-13-9.6-18.6c-1-9-0.7-18.2,0.9-27.2
			C648.6,724.1,641.3,722.1,640.5,726.9L640.5,726.9z"/>
	</g>
	<g>
		<path d="M662.1,698.7c6.5,11.5,12.2,23.6,16.1,36.2c1.9,6.2,3.2,12.7,3,19.2c-0.1,3-0.6,6.1-1.6,8.9c-0.6,1.6-3.8,8-5.7,4
			c-2.1-4.4-8.6-0.6-6.6,3.8c2.9,6.2,11.2,6.1,15.5,1.6c5.5-5.7,6.3-15.9,5.8-23.4c-1.3-19-10.8-37.8-20-54.2
			C666.2,690.6,659.7,694.4,662.1,698.7L662.1,698.7z"/>
	</g>
	<g>
		<path d="M517.4,688.9c2.8-5.5,8-9.6,14.2-10.4c4.8-0.6,4.8-8.2,0-7.6c-8.9,1.1-16.7,6-20.8,14.1
			C508.6,689.4,515.2,693.2,517.4,688.9L517.4,688.9z"/>
	</g>
	<path class="st2" d="M441,322.3c-3-13.8-14.2-25.4-27.8-28.9L402.7,313c1.8,8.8,3.9,18,9.8,24.7c6,6.7,17.2,9.6,24,3.8
		C441.7,337,442.5,329,441,322.3z"/>
	<path class="st2" d="M636.9,298.2c-0.4-5.2-6.8-7.5-13.9-8.5c-13.8-1.9-27.2,6.6-30.7,20.1c-1.2,4.7-1.2,9.4,0.9,13.8
		c5.1,10.8,21,13.1,30.8,6.3C633.9,323.1,637.8,310.1,636.9,298.2z"/>
</g>
</svg>
