<svg xmlns="http://www.w3.org/2000/svg" viewBox="0 0 1000 1000"><path d="M447 441.4c-27.5 9.1-49.4 33.8-55.4 62.6-4.4 20.9-.8 42.7 5.6 63 15 47.9 43.2 95.6 83.8 124.2 10.1 7.1 26.1 8.3 36.8 2.3 5.1-2.9 8.9-8.3 14.5-9.9 10.8-3 19.1 8.9 27.9 15.9 20.7 16.5 56.9 1 59.8-25.6 20.8-4.9 37.5-21.7 47.2-41.1 9.6-19.4 13.2-41.4 15.5-63 3.2-29.8 4.1-61.3-8.8-88.2-12.7-26.5-38.7-46-67.4-50.4-13.4-2-27.2-.7-40.1 3.4-10.6 3.4-28.5 21.9-37.4 22.4-9.3.5-25.5-14-35.7-16.7-15.2-4-31.5-3.8-46.3 1.1z" opacity=".7" fill="#db1818"/><path d="M529 420.2c5.9-27.2.6-56.6-14.4-80-5.4.2-10.9.4-16.3.5 12.7 22.3 20.9 47.2 23.6 72.8" opacity=".7" fill="#7d592b"/><path d="M391.9 330.4c-25.1-6.1-52.5-2.5-75.1 10-15.5 8.5-28.4 20.9-41.2 33-4.4 4.2-9.2 9.6-8 15.5.8 3.7 3.7 6.5 6.4 9 10.7 9.8 22 20 35.9 24 8.4 2.4 17.2 2.5 25.9 1.9 32.6-2.2 73.1-13.3 98-35.8 30.6-27.5-13.9-50.8-41.9-57.6z" opacity=".7" fill="#9cc906"/><path d="M467.9 380.9c-18.2-29.8-49.9-50-84.1-56.1-16.9-3-34.3-2.8-51 1.4-18.5 4.6-35.3 14.2-50 26.1-17.7 14.3-32.1 32.2-44.9 50.9-2.7 4 3.8 7.8 6.5 3.8 20.7-30.5 47.7-60.2 83.8-71.7 31.2-10 66.1-4.8 94.1 11.5 15.9 9.2 29.4 22.1 39 37.8 2.6 4.2 9.1.4 6.6-3.7z"/><path d="M258.1 408c42.9 32.7 104.9 37.4 152.3 11.6 15.9-8.6 29.6-20.8 45.5-29.5 1.8-1 2.3-3.4 1.4-5.2-17.8-33.3-64.5-23.2-94.7-20.4-4.8.5-4.8 8 0 7.5 17-1.6 34.5-4.5 51.6-3.4 14.4 1 29.5 6.6 36.6 20 .5-1.7.9-3.4 1.4-5.2-13.5 7.4-25.4 17.2-38.4 25.4-11.2 7-23.3 12.2-36.1 15.4-25.1 6.4-51.9 5.5-76.5-2.4-14.1-4.5-27.4-11.5-39.2-20.5-4-2.8-7.7 3.7-3.9 6.7z"/><path d="M449.8 378.9c6 1.5 10.5 5.6 14.9 9.9 4.8 4.6 9.5 9.2 14.2 13.9 9.6 9.5 19 19.2 28.3 29.1 3.3 3.5 8.7-1.8 5.3-5.3-10-10.6-20.2-21.1-30.5-31.3-8.7-8.5-17.9-20.3-30.2-23.4-4.7-1.3-6.7 5.9-2 7.1zm77.8 37.9c-4.1-14.3-9-28.4-14.7-42.2-4.2-10.3-8.3-23.8-19.2-28.8-2.2-1-4.9-.3-5.5 2.2-1 3.8 1.6 7.5 5.6 7.3 4.8-.2 4.9-7.8 0-7.5.5.8 1.1 1.5 1.6 2.3-1.9.8-3.7 1.5-5.5 2.2 4.9 2.2 7.6 6.4 10 11 2.9 5.7 5.2 11.7 7.6 17.6 4.9 12.4 9.2 25 12.9 37.8 1.2 4.7 8.5 2.8 7.2-1.9z"/><path d="M490.1 344.1c4.3-10.5 19.3-8.3 27.2-3.9.6.4 2.2 1 2.4 1.7.3.8-1.6 2.6-2 3.1-1.6 2-3.4 3.9-5.3 5.7-3.9 3.7-8.1 6.9-12.7 9.6-4.2 2.5-.4 9 3.8 6.5 8.2-4.9 34.4-23.1 18.5-32.7-12.8-7.7-32.8-7.9-39.2 7.8-1.8 4.7 5.5 6.6 7.3 2.2z"/><path d="M516.2 343.6c15.3 26.1 18.5 58.1 8.6 86.7-1.6 4.6 5.7 6.6 7.3 2 10.4-30.5 6.9-64.8-9.4-92.5-2.5-4.2-9-.4-6.5 3.8zm-1.8 102.3c-15.2-7.5-30.6-14.4-47.8-15.3-14.5-.7-29 2.4-42.1 8.4-28.9 13.1-47.5 39.8-51.5 71-4.8 36.9 9.4 72.5 27.2 104 9.8 17.3 20.6 34 32.2 50.2 9.9 13.8 20.5 27.5 33.9 38 13.3 10.4 29.2 17.1 46.3 16.1 15.3-.9 29.9-7.6 38.3-20.8 2.6-4.1-3.9-7.9-6.5-3.8-6.9 10.8-19.3 16.3-31.8 17-14.1.8-27.1-4-38.5-12.1-12.6-8.9-22.6-21.1-31.7-33.4-10.7-14.5-20.7-29.6-30-45.1-17.3-28.9-32.9-60.7-33-95.1-.1-30.4 13-58.6 39.4-74.6 12.6-7.6 27.1-12 41.8-12.3 18-.4 33.9 6.5 49.8 14.3 4.5 2.1 8.3-4.4 4-6.5z"/><path d="M530 688.4c12.7 8.3 21.5 22.8 37.2 26.2 17.1 3.7 33.6-5.6 47.6-14.3 4.1-2.5.3-9.1-3.8-6.5-12.8 7.9-28.9 17.7-44.5 12.8-13.1-4.2-21.5-17.3-32.7-24.7-4.1-2.7-7.9 3.8-3.8 6.5zm7.8-233.1c10.5-22.7 39.3-30.4 62.4-29.7 23.6.8 47.1 10.5 63.8 27.4 17.9 18 26.5 43.2 29.1 68 2.7 26.6 0 54.4-6.5 80.3-7 28-23.5 57.4-54.3 62.9-6.4 1.2-3.7 10.8 2.7 9.7 28.8-5.2 48.1-30.2 57.3-56.5 5.2-14.8 7.8-30.4 9.8-45.9 1.8-14.1 2.5-28.5 1.7-42.7-1.6-28.2-9.5-56.4-28.1-78.2-17-20-42.2-32-68.1-34.8-28.2-3-65.4 6-78.3 34.1-2.9 6.2 5.8 11.3 8.5 5.4z"/></svg>