<?xml version="1.0" encoding="utf-8"?>
<!-- Generator: Adobe Illustrator 23.0.2, SVG Export Plug-In . SVG Version: 6.00 Build 0)  -->
<svg version="1.1" id="Layer_1" xmlns="http://www.w3.org/2000/svg" xmlns:xlink="http://www.w3.org/1999/xlink" x="0px" y="0px"
	 viewBox="0 0 1000 1000" style="enable-background:new 0 0 1000 1000;" xml:space="preserve">
<style type="text/css">
	.st0{opacity:0.7;fill:#DB1818;}
	.st1{opacity:0.7;fill:#7D592B;}
	.st2{opacity:0.7;fill:#9CC906;}
</style>
<g>
	<path class="st0" d="M447,441.4c-27.5,9.1-49.4,33.8-55.4,62.6c-4.4,20.9-0.8,42.7,5.6,63c15,47.9,43.2,95.6,83.8,124.2
		c10.1,7.1,26.1,8.3,36.8,2.3c5.1-2.9,8.9-8.3,14.5-9.9c10.8-3,19.1,8.9,27.9,15.9c20.7,16.5,56.9,1,59.8-25.6
		c20.8-4.9,37.5-21.7,47.2-41.1c9.6-19.4,13.2-41.4,15.5-63c3.2-29.8,4.1-61.3-8.8-88.2c-12.7-26.5-38.7-46-67.4-50.4
		c-13.4-2-27.2-0.7-40.1,3.4c-10.6,3.4-28.5,21.9-37.4,22.4c-9.3,0.5-25.5-14-35.7-16.7C478.1,436.3,461.8,436.5,447,441.4z"/>
	<path class="st1" d="M529,420.2c5.9-27.2,0.6-56.6-14.4-80c-5.4,0.2-10.9,0.4-16.3,0.5c12.7,22.3,20.9,47.2,23.6,72.8"/>
	<path class="st2" d="M391.9,330.4c-25.1-6.1-52.5-2.5-75.1,10c-15.5,8.5-28.4,20.9-41.2,33c-4.4,4.2-9.2,9.6-8,15.5
		c0.8,3.7,3.7,6.5,6.4,9c10.7,9.8,22,20,35.9,24c8.4,2.4,17.2,2.5,25.9,1.9c32.6-2.2,73.1-13.3,98-35.8
		C464.4,360.5,419.9,337.2,391.9,330.4z"/>
	<g>
		<path d="M467.9,380.9c-18.2-29.8-49.9-50-84.1-56.1c-16.9-3-34.3-2.8-51,1.4c-18.5,4.6-35.3,14.2-50,26.1
			c-17.7,14.3-32.1,32.2-44.9,50.9c-2.7,4,3.8,7.8,6.5,3.8c20.7-30.5,47.7-60.2,83.8-71.7c31.2-10,66.1-4.8,94.1,11.5
			c15.9,9.2,29.4,22.1,39,37.8C463.9,388.8,470.4,385,467.9,380.9L467.9,380.9z"/>
	</g>
	<g>
		<path d="M258.1,408c42.9,32.7,104.9,37.4,152.3,11.6c15.9-8.6,29.6-20.8,45.5-29.5c1.8-1,2.3-3.4,1.4-5.2
			c-17.8-33.3-64.5-23.2-94.7-20.4c-4.8,0.5-4.8,8,0,7.5c17-1.6,34.5-4.5,51.6-3.4c14.4,1,29.5,6.6,36.6,20c0.5-1.7,0.9-3.4,1.4-5.2
			c-13.5,7.4-25.4,17.2-38.4,25.4c-11.2,7-23.3,12.2-36.1,15.4c-25.1,6.4-51.9,5.5-76.5-2.4c-14.1-4.5-27.4-11.5-39.2-20.5
			C258,398.5,254.3,405,258.1,408L258.1,408z"/>
	</g>
	<g>
		<path d="M449.8,378.9c6,1.5,10.5,5.6,14.9,9.9c4.8,4.6,9.5,9.2,14.2,13.9c9.6,9.5,19,19.2,28.3,29.1c3.3,3.5,8.7-1.8,5.3-5.3
			c-10-10.6-20.2-21.1-30.5-31.3c-8.7-8.5-17.9-20.3-30.2-23.4C447.1,370.5,445.1,377.7,449.8,378.9L449.8,378.9z"/>
	</g>
	<g>
		<path d="M527.6,416.8c-4.1-14.3-9-28.4-14.7-42.2c-4.2-10.3-8.3-23.8-19.2-28.8c-2.2-1-4.9-0.3-5.5,2.2c-1,3.8,1.6,7.5,5.6,7.3
			c4.8-0.2,4.9-7.8,0-7.5c0.5,0.8,1.1,1.5,1.6,2.3c-1.9,0.8-3.7,1.5-5.5,2.2c4.9,2.2,7.6,6.4,10,11c2.9,5.7,5.2,11.7,7.6,17.6
			c4.9,12.4,9.2,25,12.9,37.8C521.6,423.4,528.9,421.5,527.6,416.8L527.6,416.8z"/>
	</g>
	<g>
		<path d="M490.1,344.1c4.3-10.5,19.3-8.3,27.2-3.9c0.6,0.4,2.2,1,2.4,1.7c0.3,0.8-1.6,2.6-2,3.1c-1.6,2-3.4,3.9-5.3,5.7
			c-3.9,3.7-8.1,6.9-12.7,9.6c-4.2,2.5-0.4,9,3.8,6.5c8.2-4.9,34.4-23.1,18.5-32.7c-12.8-7.7-32.8-7.9-39.2,7.8
			C481,346.6,488.3,348.5,490.1,344.1L490.1,344.1z"/>
	</g>
	<g>
		<path d="M516.2,343.6c15.3,26.1,18.5,58.1,8.6,86.7c-1.6,4.6,5.7,6.6,7.3,2c10.4-30.5,6.9-64.8-9.4-92.5
			C520.2,335.6,513.7,339.4,516.2,343.6L516.2,343.6z"/>
	</g>
	<g>
		<path d="M514.4,445.9c-15.2-7.5-30.6-14.4-47.8-15.3c-14.5-0.7-29,2.4-42.1,8.4c-28.9,13.1-47.5,39.8-51.5,71
			c-4.8,36.9,9.4,72.5,27.2,104c9.8,17.3,20.6,34,32.2,50.2c9.9,13.8,20.5,27.5,33.9,38c13.3,10.4,29.2,17.1,46.3,16.1
			c15.3-0.9,29.9-7.6,38.3-20.8c2.6-4.1-3.9-7.9-6.5-3.8c-6.9,10.8-19.3,16.3-31.8,17c-14.1,0.8-27.1-4-38.5-12.1
			c-12.6-8.9-22.6-21.1-31.7-33.4c-10.7-14.5-20.7-29.6-30-45.1c-17.3-28.9-32.9-60.7-33-95.1c-0.1-30.4,13-58.6,39.4-74.6
			c12.6-7.6,27.1-12,41.8-12.3c18-0.4,33.9,6.5,49.8,14.3C514.9,454.5,518.7,448,514.4,445.9L514.4,445.9z"/>
	</g>
	<g>
		<path d="M530,688.4c12.7,8.3,21.5,22.8,37.2,26.2c17.1,3.7,33.6-5.6,47.6-14.3c4.1-2.5,0.3-9.1-3.8-6.5
			c-12.8,7.9-28.9,17.7-44.5,12.8c-13.1-4.2-21.5-17.3-32.7-24.7C529.7,679.2,525.9,685.7,530,688.4L530,688.4z"/>
	</g>
	<g>
		<path d="M537.8,455.3c10.5-22.7,39.3-30.4,62.4-29.7c23.6,0.8,47.1,10.5,63.8,27.4c17.9,18,26.5,43.2,29.1,68
			c2.7,26.6,0,54.4-6.5,80.3c-7,28-23.5,57.4-54.3,62.9c-6.4,1.2-3.7,10.8,2.7,9.7c28.8-5.2,48.1-30.2,57.3-56.5
			c5.2-14.8,7.8-30.4,9.8-45.9c1.8-14.1,2.5-28.5,1.7-42.7c-1.6-28.2-9.5-56.4-28.1-78.2c-17-20-42.2-32-68.1-34.8
			c-28.2-3-65.4,6-78.3,34.1C526.4,456.1,535.1,461.2,537.8,455.3L537.8,455.3z"/>
	</g>
</g>
</svg>
