<svg version="1.1" id="Layer_1" xmlns="http://www.w3.org/2000/svg" x="0" y="0" viewBox="0 0 1000 1000" xml:space="preserve"><style>.st3{opacity:.7;fill:#bfd3e0}</style><path d="M344 566.8c.9 34.7 5.1 69.2 12.7 103 2.5 11.3 6.5 23.9 17 28.6 10.5 4.7 25.7-8 18.6-17 5.6 1.1 11.3 2.2 17 3.3 2-11.2 4-22.5 6-33.8 5.3-1.9 10.6-3.7 15.8-5.6 8.1 61.1 8 123.3-.3 184.4-11.1-9.9-31.1 1-32.6 15.8s10.7 28.3 24.7 33.4 29.4 3.8 44.3 2.5c12.7-1.1 26.6-2.8 35.4-12 11.6-12 9.7-31 8.3-47.6-3-37.6 1.1-75.7 12.1-111.8 23.6 49.3 25.6 105.8 27.1 160.5 30.2 9.7 63.3 9.8 93.6.4 4.5-17.4-5.5-34.9-13.3-51.1-24.9-51.5-30.3-112.3-14.8-167.4 2.4 6.2 4.9 12.5 7.3 18.7 5.1 1.7 10.6 2.2 16 1.5-6.8 8.6 8 20.6 17.8 15.6s12.8-17.4 13.9-28.3c4.9-45.9-3.3-92-12.6-137.2-3.4-16.8-7.4-34.2-18.4-47.3s-31.3-20-45.7-10.7c3.8-13-5.5-26.9-17.6-33-12.1-6.1-26.2-6.3-39.7-6.3-25.9-.1-62.4-7-86 5.4-16.4 8.6-24.8 25.7-42.3 34-47.8 22.7-65.9 44.1-64.3 102z" opacity=".7" fill="#f5fcff"/><path d="M326.8 242.5c-14.1 56.1 7 117.7 46.8 159.8 11.4 12 24.3 22.7 39.2 29.9 27.5 13.1 59.2 13 89.6 12.5 51-.7 108.1-4 142.7-41.4C671.6 374.7 677.8 333 680 294c1.6-28.2 1.5-57.4-8.9-83.7-53.8-136.2-310.2-103.9-344.3 32.2z" fill="#f5fcff"/><path d="M391.8 378.3c5 6.5 10.9 12.5 18.7 16.1 8.5 3.9 18.3 4.4 27.8 4.9 26.1 1.2 52.3 2.4 78.4 3.6 28.3 1.3 59.3 1.9 81.6-14 23.4-16.6 29.6-46.1 31.3-73 1.4-22.8.8-45.8-4.5-68.1-4.3-18.5-13-37.7-30.9-47.4-41.5-22.5-159.6-36.6-199.5-2.1-44.6 38.6-34.9 138.3-2.9 180z" opacity=".7" fill="#2b2f50"/><path class="st3" d="M464.6 545.1c7.3-7 20.4-6.3 26.9 1.3 6.6 7.6 5.2 20.7-2.8 26.8-3.9 3-8.8 4.3-13.6 5.6-5 1.3-10.1 2.6-15.1 3.9-4-20-17.9-37.7-36.4-46.3-4.5-6 4.2-14.6 11.4-12.8s11.5 9.2 14.3 16.2c2.9 7.2 5.3 14.8 10.6 20.5 5.3 5.6 14.8 8.3 20.8 3.5m74 31.9c-4.1 5.7-11.1 9.1-18 8.8-8.9-7.1-8.7-23.5 1.3-29 10-5.6 24.8 5 21.5 15.9 3.3-5.2 11.9-3.1 15.8 1.8 3.8 4.8 5.1 11.3 8.7 16.4 5.9 8.4 18.1 11.5 27.3 7 2.7 6.2 5.1 14 .7 19.1-5.7 6.7-17.1 1.8-22-5.5-5-7.2-7.3-16.5-14.2-21.9-5.2-4-12-5.1-18.3-6.6s-13.1-4-16.5-9.6c-3.4-5.6-.9-14.8 5.6-15.6"/><path d="M538 776.2c26 2.4 52.7-2.9 75.9-14.9 11.1 1.8 11.6 19.5 3 26.7s-20.9 7.3-32.1 8.4c-14.9 1.5-29.6 5.4-43.3 11.6 3.1-9.2 2.8-19.5-.8-28.5M346.2 629.1c13.1-.9 26.2-1.8 39.4-2.8 5.8-.4 11.9-.8 17.1 1.8 5.2 2.6 8.8 9.3 6 14.4-20.7-2.2-41.5-4.4-62.2-6.6m268.3-10.6c13.2-1.6 26.3-3.2 39.5-4.9 3.9-.5 8-.9 11.7.6 3.7 1.5 6.5 5.7 5.1 9.4-15.7 5-33.1 4.3-48.3-1.9" opacity=".7" fill="#d9461c"/><path d="M415.8 433.7c-4.5-2.9-10.3-2.9-15.7-2.4-12.4 1.1-25.1 4.4-34.5 12.5s-14.8 21.8-10.4 33.5c20.8-7.8 41.6-15.6 62.4-23.5l-12.9.6c4.9-2.3 9.7-4.5 14.6-6.8 3.4-4.2 1-11-3.5-13.9zM681 611c-17-88-6.6-106.5-19-157.3-6.4-26.3-11.6-23.6-30.3-20.8-2.8.4-38 12.2-33.2 16.8 7.7 7.4 20.8-.6 30.9 2.8 6.1 2 9.9 7.9 13 13.5 17.1 31.4 23.7 67.2 30.1 102.4 2.5 13.6 4.9 27.2 7.4 40.7.2 1 .6 1.7 1.2 2.3-.1-.2-.1-.3-.1-.4zM503.8 468c-8.6-.1-21.4-3.2-33.2-3.8-4.2-1.5-8.2-4.1-12.1-6.2-6.7-3.5-16.3-5.1-20.9.8-2.5 3.2-2.5 7.5-2.3 11.5.1 3.9.2 7.9.4 11.8 0 1.7.1 3.6 1.2 5 1.5 1.8 4.2 2.1 6.6 2.3 2.8.2 5.6.3 8.5.4 23 9.7 80.4 8 92.6 7.5 14.6-.6 30.3-2.3 41.5-11.5-2-8.1-4.1-16.2-6.1-24.4-25.3 3.4-50.7 6.8-76.2 6.6z" fill="#bfd3e0" opacity=".7"/><path class="st3" d="M417.2 648.1c5.2 9.2 3.4 21.7-4 29.1-3.1 3.1-7 5.3-9.7 8.7-2.7 3.4-3.9 8.7-1 11.9 5.7-1 11.4-2.1 17-3.1 7.7-18.6 6.7-40.6-2.5-58.5m201.4 12.3c-5 10.3-6.5 22.3-4.1 33.4 4.3-.1 8.6-.2 12.9-.2-7-15.1-8.5-32.8-4-48.8-2.6-1.2-5.6-1.4-8.3-.4-1.2 6.9-.9 14.2 1 21"/><path d="M426.5 333.7c20.6-30.8 41.2-61.5 61.8-92.3 1.9-2.9-20.7-17.4-25.3-16.7-8.2 1.4-18.6 24-21.9 30.6-12.4 24.1-17.7 51.6-14.6 78.4zm127-112l-44.7 94.8c4.7 2.5 10.8 0 14.1-4.2 3.3-4.2 4.5-9.6 6-14.7 9.1-31.9 29.6-59.2 49.7-85.7-2 2.5-4.1 5-6.1 7.4" opacity=".7" fill="#7a9be3"/><path d="M405.7 434.2c-34.2-14.1-60-44.2-73.1-78.3-7.4-19.2-11.2-39.6-12-60.1-.8-21.1 1.4-42.6 8.5-62.6 11.5-32.8 36.3-59.7 65.7-77.5 33.8-20.4 73.6-28.1 112.6-27.4 20.6.4 41.3 2.8 61.4 7.5 19 4.4 37.6 11.1 54 21.8 30.5 19.8 50.1 52.8 58.3 87.8 9.5 40.7 3.3 83.6-10.3 122.6-6.4 18.2-14.7 36.2-27.9 50.5-12.6 13.7-28.8 23.4-45.7 30.8-11.8 5.1-23.5 9.6-36.3 10.9-12.7 1.3-25.5 1.6-38.2 1.7-12.6 0-25.3-.2-37.8-1.4-4.7-.5-9.2-1.2-13.8-2.4-10.9-2.9-21.8-5.8-32.7-8.8-10.5-2.9-20.9-5.9-31.3-8.9-3.8-1.1-5.5 4.9-1.6 6 22.2 6.5 44.5 13 67 18.5 10.5 2.5 21.7 2.7 32.4 3 14.2.4 28.4.3 42.6-.5 10.3-.5 21.2-1 31.1-4.3 18.2-6.1 36.3-13.8 51.9-25.2 16.2-11.8 28.3-27.2 37-45.1 9.1-18.8 15.4-39.3 19.6-59.7 4.4-21.4 6.1-43.4 4-65.2-3.5-37.2-18.6-74.1-45.8-100.2-29.5-28.4-70.6-39.2-110.2-43.6-41.9-4.6-85.6-.8-124.4 16.6-32.3 14.5-60.9 38.8-78 70-20.1 36.4-22.4 81.3-13.7 121.4 8.3 38 29.1 73.3 61.4 95.6 7.4 5.1 15.4 9.3 23.7 12.8 3.6 1.2 5.2-4.8 1.6-6.3z"/><path d="M428.2 182.1c-27.6-1-49.9 19.5-59.9 43.8-11.8 28.6-9.4 60.9-7.6 91 1.5 24.5 4.5 51.1 20.9 70.6 18.3 21.7 49 25.8 75.5 28.9 32.5 3.7 65.4 3.6 97.9-.2 24.3-2.9 54.4-6.8 68.6-29.5 7.2-11.6 8.7-25.6 9.5-38.9 1-16.6 1.5-33.2 1.7-49.9.4-29.7 1.9-62.9-12.8-89.8-6.7-12.3-17-20.4-30.2-24.9-14.3-4.8-29.9-7-44.9-8.8-31.9-3.9-64.3-3.4-96.1 1.3-7.8 1.1-15.5 2.6-23.2 4.2-3.9.8-2.2 6.8 1.6 6 29.6-6.4 60-9 90.2-7.6 15.2.7 30.3 2.3 45.3 5 13.1 2.3 27.6 4.6 38.7 12.4 11 7.8 16.7 21 20.1 33.7 3.8 14.1 4.7 28.8 4.9 43.3.2 15.4 0 30.8-.5 46.2-.5 14.4-.4 29.3-2.7 43.5-2 12.6-7 24.3-17.5 32-9.6 7-21.5 10.3-33 12.5-29.4 5.6-60 6.8-89.9 5.4-15.2-.7-30.5-2.2-45.5-4.7-12.7-2.1-25.5-5-36.9-11.2-22.4-12.2-30.9-36-34-60-1.7-12.9-2.2-26-2.8-39-.6-15.1-.8-30.5 1.6-45.4 4.1-25.6 16.9-52 42.8-61.2 5.8-2.1 11.8-3 17.9-2.8 4.3.4 4.3-5.8.3-5.9z"/><path d="M456.9 220.6c-22.7 34.1-40.4 71.6-52.2 110.8-1.2 3.8 4.8 5.5 6 1.6 11.8-38.8 29.2-75.6 51.6-109.3 2.2-3.3-3.2-6.4-5.4-3.1zm52.5 17.2a710.82 710.82 0 0 0-46.7 99.1c-1.4 3.7 4.6 5.3 6 1.6 12.8-33.7 28.3-66.3 46.1-97.7 1.9-3.3-3.4-6.4-5.4-3zm32.5 46.7c-2.6 9.7-5.9 19.1-10 28.3-1.6 3.6 3.8 6.8 5.3 3.1 4.2-9.7 7.8-19.6 10.6-29.8 1.1-3.8-4.8-5.4-5.9-1.6zM426.6 447c-.7 5-1.5 10-2.2 15-.7 4.5-2.2 9.7-1.7 14.2.9 7.8 11.9 11 18.1 13.5 16.7 6.6 35.1 8.8 52.9 7 3.9-.4 4-6.6 0-6.2-15.4 1.6-31 .1-45.8-4.8-3.6-1.2-7.2-2.6-10.7-4.2-3.1-1.4-8.4-3.1-8.4-7.1 0-4.2 1.2-8.6 1.8-12.7.6-4.4 1.3-8.7 1.9-13 .6-3.9-5.3-5.6-5.9-1.7zm159.7 2.8c2.1 6.6 4.3 13.2 6.4 19.8 1 3 2.7 6.8.7 9.7-1.6 2.5-5 3.9-7.6 5.1-12.4 5.7-26.1 8.2-39.6 8-4 0-4 6.1 0 6.2 15.5.2 32-2.8 45.7-10.3 6.2-3.4 9.8-8.5 8.2-15.7-1.8-8.3-5.2-16.5-7.8-24.5-1.2-3.7-7.2-2.1-6 1.7z"/><path d="M422.5 454.6c-19.7 4.1-40.5 9.4-56.9 21.8-7.8 5.9-14.3 13.5-18.2 22.5-5 11.4-6 24-7 36.3-2.1 26.9-2.9 54-.3 80.8 1.2 13.2 3.3 26.3 6.4 39.2 2.8 11.8 6.1 24.5 12.2 35.2 6.1 10.5 17.4 19.1 30.1 16.7 10.3-2 18.3-13.6 14.2-23.7-1.5-3.6-7.5-2-6 1.7 3.9 9.4-5.9 17.5-14.9 16.1-11.1-1.7-17.9-11.8-21.8-21.4-8.7-21.7-12.7-45.6-14.6-68.8-1.9-23.9-1.3-48 .5-71.9.8-11.2 1.4-22.6 5-33.3 3-9 8.6-16.6 15.8-22.7 15.8-13.2 37.3-18.3 57-22.5 4-.8 2.4-6.8-1.5-6z"/><path d="M411.5 574.6c-1.6 12.7-.5 25.4 1.5 38 1 6.4 2.3 12.8 3.6 19.2 1.1 5.3 2.4 10.6 5 15.4 5.9 10.9 17.6 14.5 29.1 16.6 13.3 2.5 26.8 3.2 40.3 2.9 15.7-.4 31.4-2.2 47-3.9 3.9-.5 4-6.7 0-6.2-25.2 2.9-50.9 5.8-76.2 2.7-10.8-1.3-25.6-2.8-32.8-12-3.2-4.2-4.7-9.4-5.9-14.4-1.3-5.8-2.5-11.7-3.5-17.7-2.3-13.4-3.7-27.1-1.9-40.6.5-4-5.7-3.9-6.2 0zm166.6 83.6c9-.3 18.7-1.1 26.8-5.4 3.9-2.1 7.3-5.2 9.5-9 2.8-4.9 3.2-10.5 3.9-16 3.2-26.8 6.1-53.9 1.5-80.7-2.5-14.8-7.3-29.1-12-43.3-1.2-3.8-7.2-2.1-6 1.6 3.8 11.5 7.7 23.1 10.4 34.9 2.8 12.2 3.9 24.5 3.9 37 0 12.4-1 24.7-2.4 37-.7 6-1.2 12.1-2.1 18.1-.7 4.8-2.2 9.3-6.1 12.6-7.2 6.2-18.2 6.7-27.3 7-4.1.1-4.1 6.3-.1 6.2z"/><path d="M615.2 608.2c-4.1 4.3-5 10.1-2 15.4 3.4 5.9 10.2 9.1 16.5 11 16 4.6 32.9 1.6 49-1.2 3.9-.7 2.3-6.7-1.7-6-12.8 2.3-25.9 4.6-38.9 2.7-5.4-.8-11.1-2.2-15.7-5.4-4.1-2.9-6.8-7.8-2.9-12 2.8-3-1.6-7.4-4.3-4.5z"/><path d="M595 458.9c7.1-5 16.1-3.5 23.7-.2 8.2 3.5 15.7 9 21.3 16 6.1 7.6 10 16.8 13.1 26 3.5 10.1 6.4 20.5 9 30.9 5.5 21.7 9.4 43.9 11.6 66.2 1.1 11.3 1.8 22.6 2.1 34 .2 9.2.1 18.5-1.5 27.6-1.7 9.9-5.2 19.8-12 27.5-3.3 3.8-7.7 7.3-12.8 8.1-4.5.7-10.1-1.2-11.8-5.8-1.4-3.7-7.4-2.1-6 1.7 3.4 8.7 13.3 12.3 22 9.5 9.4-3.1 16.4-11.8 20.7-20.5 9.5-19.5 8.2-42.7 7-63.7-1.5-25.3-5.1-50.5-10.7-75.3-2.8-12.4-6.1-24.8-10-36.9-3.2-10.2-7.1-20.5-13.2-29.3-6.5-9.4-15.6-16.8-26-21.3-9.4-4-20.7-5.8-29.5.4-3.4 2-.3 7.4 3 5.1z"/><path d="M624.9 637.1c-4.7 7.9-6.5 17.1-5.1 26.2 1.1 7.4 5.4 16.1 13.5 17.7 8.9 1.8 14.3-6.8 17.3-13.8 3.9-9 5.7-18.8 5.2-28.6-.2-4-6.4-4-6.2 0 .3 7.4-.6 14.7-3 21.7-1.6 4.7-5.1 15.2-11.7 14.7-6.2-.5-8.8-9.2-9.3-14.2-.8-7.2.9-14.3 4.6-20.6 2.1-3.4-3.2-6.5-5.3-3.1zm-280 4.1c19.4 9.8 41.5 12.9 62.9 8.7 3.9-.8 2.2-6.7-1.6-6-19.7 3.8-40.2 1-58.1-8.1-3.7-1.7-6.8 3.7-3.2 5.4zm72.7-107.7c4.4-2.4 9.4.5 12.4 3.9 3.4 3.8 5.1 8.9 6.5 13.7 2.7 9.3 4.2 19.1 10.2 27 5.1 6.7 12.8 10.6 21.2 9 7.8-1.4 14.3-7 16.8-14.5 1.2-3.8-4.7-5.4-6-1.7-2.4 7.2-10.7 11.8-18.1 9.9-8.8-2.3-12.9-12.1-15.1-19.9-2.5-8.9-3.9-18.9-9.8-26.4-5-6.3-13.6-10.5-21.2-6.4-3.5 2-.4 7.4 3.1 5.4z"/><path d="M431.2 522.6c4.2-3.8 10.6-.8 13.9 2.7 4.6 5 5.4 12.7 7 19.1 2.7 11 9.9 23.5 23 21.7 3.9-.5 2.3-6.5-1.6-6-6.7.9-11.8-6.2-13.8-11.7-2.5-6.8-3-14.2-6-20.9-4.3-9.7-17.6-17.8-26.9-9.3-2.9 2.7 1.5 7.1 4.4 4.4z"/><path d="M472 564c6.6-1.5 9.6 6.5 4.8 10.6-3.1 2.6 1.3 6.9 4.4 4.4 4.2-3.5 5.7-9.9 3.1-14.9s-8.5-7.3-13.9-6.1c-3.9.9-2.3 6.8 1.6 6z"/><path d="M469.5 559.9c-3.9-6.4.6-14.9 7.4-17.1s14.6 1.1 18.8 6.6c4.7 6.3 3.7 15-.3 21.4-3.3 5.3-13.3 13.3-19.2 7-2.7-2.9-7.1 1.5-4.4 4.4 6.1 6.6 16.2 3.9 22.5-1 6.8-5.3 11.1-14 10.8-22.7-.7-16.2-20.4-29.1-34.8-19.2-7.5 5.2-11 15.8-6 23.8 1.9 3.3 7.2.2 5.2-3.2zm77.2-23.7c9.2-4.2 17.6 5.2 20.1 13 3.3 10.4 2.7 22.2 3.3 33 .2 4 6.4 4 6.2 0-.4-7.3-.7-14.6-1.3-21.9-.6-6.5-1.6-13-4.7-18.8-5-9.4-16.5-15.5-26.7-10.7-3.6 1.8-.5 7.1 3.1 5.4zm-87 53.8c.8 6.5 1.5 13.1 2.3 19.7.6 4.9.4 10.8 4.6 14.2 4.2 3.3 10.9 4.4 16 5.6 6.2 1.5 12.6 2.5 19 3 12.4 1 25.1.2 37.2-2.6 9.1-2.1 18.2-6.2 21.9-15.4 1.5-3.7-4.5-5.3-6-1.7-3.1 7.9-13 10.3-20.5 11.7-10.3 2-20.9 2.6-31.4 1.9-10.1-.7-21.1-2.4-30.5-6.3-4.7-2-4-8.6-4.5-13-.7-5.7-1.3-11.3-2-17-.4-4-6.6-4.1-6.1-.1z"/><path d="M611.7 614.8c-12.2 10.2-22.6-5.6-28-14.7-5.3-9.1-13.9-20.4-25.9-18.7-5.2.8-10 4.7-9.5 10.3.6 6 6.8 9.1 10.7 12.8 9.4 9 13.8 22 23.9 30.5 9.2 7.7 24.8 10.9 33.2.2 2.4-3.1-1.9-7.5-4.4-4.4-7 9-19.5 4.8-26.4-2-8.1-8-12.5-18.8-20.3-27.1-1.8-2-3.9-3.6-6-5.3-1.7-1.4-5-3.6-4.4-6.1.6-2.6 4.3-3 6.5-2.8 2.7.3 5.2 1.6 7.3 3.2 8 6.2 11.4 16.6 17.8 24.3 7.7 9.2 20.1 12.4 29.9 4.2 3-2.6-1.4-7-4.4-4.4z"/><path d="M561.7 587.5c4.5-7.7 1.3-18.1-6.6-22.2-9.1-4.7-20.4-.3-25.5 8.2-5 8.5-4.4 20 1.5 27.8 6 8 17.6 11.1 25.9 4.7 3.1-2.4 0-7.8-3.1-5.3-5.7 4.4-13.5 2.8-17.8-2.9-4.1-5.4-4.8-13.2-2.1-19.3 2.7-6.2 9.6-10.5 16.4-8.4 5.9 1.8 9.1 8.9 5.9 14.3-2 3.4 3.4 6.5 5.4 3.1zm-136.1 63.9c.4 3.8.7 7.7 1.1 11.5.3 3.3.1 7 1.1 10.2.8 2.7 3.1 4 5.8 4.3 4 .5 8.3.1 12.4 0 16.4-.1 32.9-.4 49.3-.8 33.1-.8 66.2-2 99.2-3.8 4.5-.2 9.1-.4 13.7-.8 2.8-.2 5.5-.9 6.5-3.8.6-1.6.4-3.5.5-5.1.1-2.5.2-4.9.3-7.4.2-4.7.3-9.4.5-14.1.2-4-6-4-6.2 0-.3 7.2-.5 14.3-.8 21.5 0 .4.1 2.5-.1 2.7-.1.1 3.6-2.5-.8 0-1 .6-3.5.2-4.8.3-3.9.2-7.8.4-11.6.6-14.4.8-28.7 1.4-43.1 2-29 1.1-58 1.9-87 2.3-8.2.1-16.4.2-24.7.2-.6 0-1.3.1-1.9 0-1.6-.3-1.4-.7-1.7-2-.5-1.8-.4-3.9-.5-5.8-.4-4.1-.8-8.1-1.1-12.2-.3-3.7-6.5-3.7-6.1.2z"/><path d="M427.3 675.9c-3.7 19.8-2.6 40.1 3.5 59.3 1.2 3.8 7.2 2.2 6-1.7-5.8-18.1-7-37.3-3.5-56 .7-3.8-5.3-5.5-6-1.6zm178.3-4.7c3.5 19.7 6.8 39.6 5.9 59.7-.2 4 6 4 6.2 0 1-20.7-2.5-41.1-6.1-61.3-.7-3.9-6.7-2.3-6 1.6zM518.1 714c-4.4 23.2-5.1 47-2 70.4.5 3.9 6.7 4 6.2 0-3-22.9-2.5-46.1 1.8-68.8.7-3.8-5.3-5.5-6-1.6zm-90.7 77.1v35.5c0 4 6.2 4 6.2 0v-35.5c0-4-6.2-4-6.2 0z"/><path d="M457.4 836.4c-9.9-4.7-19.8-10.2-30.4-13.3-8.8-2.6-18.6-2.7-25.9 3.5-6.6 5.6-8.8 14.5-9.4 22.8-.8 10.7.4 22 3.3 32.3 1.1 3.8 7.1 2.2 6-1.7-2.6-9.1-3.5-18.7-3.2-28.2.3-7.1 1.6-15.2 7-20.2 6.3-5.7 15.3-4.3 22.7-1.8 9.2 3.1 18 7.9 26.8 12 3.6 1.6 6.7-3.7 3.1-5.4zm40.6-56.8l13.8 3.9c2.8.8 2.3 1.1 2.5 4 .1 2.4.2 4.9.3 7.3.3 9.1.1 18.1-.4 27.2-1 18.5-3.7 36.9-8 54.9-.9 3.9 5.1 5.5 6 1.7 4.7-20.1 7.5-40.6 8.4-61.2.4-10.2.3-20.3-.2-30.5-.2-4.3-.6-7.3-5-8.8-5.2-1.7-10.5-3-15.8-4.5-3.8-1.1-5.4 4.9-1.6 6z"/><path d="M400.3 883c36.8.7 73.7-.5 110.4-3.6 3.9-.3 4-6.5 0-6.2-36.7 3.1-73.6 4.3-110.4 3.6-4 0-4 6.2 0 6.2zm119-169.2c1.5 14.4 4.1 28.7 8.1 42.7 2 6.8 4.2 13.6 6.8 20.2 1.7 4.2 6.1 9.8 11 6.4 3.3-2.2.2-7.6-3.1-5.3-.9.6-5.6-13-6-14.3-1.7-5.3-3.3-10.7-4.7-16.1-2.8-11-4.7-22.2-5.9-33.5-.4-4.1-6.6-4.1-6.2-.1z"/><path d="M533.4 776.7c1.1 26.4 3.7 52.7 7.7 78.8 1 6.7 2.2 13.3 3.4 20 1 5.3 2.4 9.2 8.3 10 12.9 1.8 26.2 1.6 39.1.8 15-.9 30-2.9 44.9-4.9 3.9-.5 4-6.7 0-6.2-24.2 3.2-48.6 6.5-73 5-2.9-.2-5.8-.4-8.7-.7-1.5-.2-2.8-.1-3.6-1.5-.7-1.2-.7-3-.9-4.3-1.1-6.2-2.2-12.4-3.2-18.7-1.9-12.2-3.5-24.4-4.7-36.7-1.4-13.9-2.4-27.8-3-41.8-.3-3.8-6.5-3.8-6.3.2z"/><path d="M582.4 843.1c8.4-7.3 18.4-12.7 29.2-15.7 9.4-2.6 23.5-5.8 30 3.8 5.8 8.5 5.4 21.2 5.5 31 0 2.7.8 7.3-.6 9.6-1.2 1.9-4.7 2.5-6.7 3-6.5 1.8-13.2 2.9-20 3.4-4 .3-4 6.5 0 6.2 6-.4 12-1.2 17.8-2.6 4.5-1 10.4-2 13.5-5.8 3.2-4 2.2-10.9 2.2-15.7-.1-5.7-.4-11.4-1.2-17-1.2-8.3-4.3-17.5-12.1-21.9-9-5-21.2-2.5-30.5.2-11.6 3.3-22.2 9.2-31.3 17.1-3.2 2.6 1.2 7 4.2 4.4z"/><path d="M619.2 766c.6 19.2 4.1 38.2 10.6 56.3 1.3 3.7 7.3 2.1 6-1.7-6.3-17.6-9.8-35.9-10.4-54.6-.1-3.9-6.3-3.9-6.2 0zm-53.3 104.2c27.3.1 54.6-3.2 81.1-9.9 3.9-1 2.2-7-1.7-6-26 6.6-52.7 9.8-79.5 9.7-3.9 0-3.9 6.2.1 6.2zm-169.6-6.3c24.9 2.1 49.9 2.6 74.9 1.6 4-.2 4-6.4 0-6.2-25 1-50 .5-74.9-1.6-3.9-.3-3.9 5.9 0 6.2zm96 2.9c7-.5 14-1 21-1.6 4-.3 4-6.5 0-6.2-7 .5-14 1-21 1.6-3.9.2-4 6.4 0 6.2zM378.9 590.9c10-2.8 20.3-2.1 29.9 1.8 3.7 1.5 5.3-4.5 1.6-6-10.6-4.3-22.2-4.9-33.2-1.8-3.8 1.1-2.2 7.1 1.7 6z"/><path d="M414.3 537.5c-.5 17.2-1.8 34.2-4.1 51.2-.5 3.9 5.7 3.9 6.2 0 2.3-17 3.6-34.1 4.1-51.2.1-4-6.1-4-6.2 0z"/><path d="M410.1 584.8c.5 23.2 1.1 46.4 1.6 69.7.1 4 6.3 4 6.2 0-.5-23.2-1.1-46.4-1.6-69.7-.1-4-6.3-4-6.2 0z"/><path d="M390.4 647c-2.9 8.3-2.5 17.4 1 25.5 3.2 7.1 9.7 15 18.4 13.6 10.2-1.7 9.1-12.5 9-20.4l-.6-34.8c-.1-4-6.3-4-6.2 0 .1 8.4.3 16.8.4 25.3.1 4.3.1 8.7.2 13 0 3 .9 8.1-1.9 10.1-6 4.3-12.3-5.6-14.1-10.1-2.7-6.6-2.7-13.8-.3-20.4 1.4-4-4.6-5.6-5.9-1.8zm16.5-220.3c-9.3.5-18.6 1.8-27.6 3.8-4.4 1-8.8 2.2-13.1 3.5-3.7 1.2-7.4 2.5-10.1 5.4-5.5 5.9-7.5 15.5-8.8 23.2-1.6 9.1-2 18.3-2.4 27.5-.2 4 6 4 6.2 0 .3-8 .6-16 1.8-23.9.6-4 1.5-7.9 2.6-11.7 1.1-3.6 2.3-7.8 4.9-10.6 2.5-2.7 6.4-3.5 9.8-4.5 3.9-1.2 7.9-2.2 11.9-3 8.2-1.8 16.4-2.9 24.7-3.3 4.1-.4 4.1-6.6.1-6.4zM398.2 699c8.9 1.8 17.9 2.7 27 2.5 4 0 4-6.2 0-6.2-8.5.1-17-.6-25.4-2.3-3.8-.7-5.5 5.2-1.6 6zm232-17.7c-1.8 5.3-.2 11.5 4.2 15.1 3 2.5 7.5-1.8 4.4-4.4-2.8-2.3-3.8-5.7-2.6-9.1 1.3-3.7-4.7-5.3-6-1.6z"/><path d="M614.5 689.3c5.6-.7 11.1-1.7 16.5-3.3 3.8-1.1 2.2-7.1-1.7-6-4.9 1.4-9.8 2.5-14.8 3.1-3.9.5-3.9 6.7 0 6.2zm9.6-110.7c6.5-3.2 13.5-4.4 20.6-3.9 4 .3 4-5.9 0-6.2-8.3-.6-16.3 1.1-23.8 4.7-3.5 1.8-.4 7.1 3.2 5.4zM426.8 728.4c-2.1 22.6-1.4 45.2 2 67.6.2 1.6 2.4 2.6 3.8 2.2 9-3 18.3-3.9 27.8-2.9 4 .4 3.9-5.8 0-6.2-10-1.1-19.9 0-29.4 3.1 1.3.7 2.5 1.4 3.8 2.2-3.3-21.8-3.8-44-1.8-66 .3-3.9-5.9-3.9-6.2 0z"/><path d="M607.2 688.1l6.9 52.8c.6 4.3 1.1 8.6 1.7 12.8.5 3.8 2 8-1.1 10.8-5.9 5.4-13.1 9.8-20.2 13.6-3.5 1.9-.4 7.2 3.1 5.3 7.4-4 14.6-8.7 21-14.2 6.8-5.8 3.3-15.3 2.3-23-2.5-19.4-5.1-38.8-7.6-58.2-.4-3.8-6.6-3.9-6.1.1zM469.4 540.9c2.1-8.6 16.4-8 23-8.3 11.6-.5 23.2 0 34.6 1.6 3.9.5 5.6-5.4 1.7-6-13.8-1.9-27.6-2.5-41.5-1.5-8.9.6-21.2 2.1-23.7 12.5-1 3.9 5 5.5 5.9 1.7zm192.4 25.9h7.9c4 0 4-6.2 0-6.2h-7.9c-4 .1-4 6.2 0 6.2zm-22.2-130.6c5.2-4.9 13.5-2 17.7 2.8 5.8 6.5 5.9 16.5 6.1 24.8.4 20.2.6 40.4.9 60.6.1 4 6.2 4 6.2 0-.2-12.2-.4-24.3-.5-36.5-.2-11.4.4-23.1-.9-34.5-1.1-9-4.3-18.1-12.5-22.9-6.8-3.9-15.4-4.2-21.3 1.4-3 2.7 1.4 7.1 4.3 4.3z"/></svg>