<?xml version="1.0" encoding="utf-8"?>
<!-- Generator: Adobe Illustrator 23.0.2, SVG Export Plug-In . SVG Version: 6.00 Build 0)  -->
<svg version="1.1" id="Layer_1" xmlns="http://www.w3.org/2000/svg" xmlns:xlink="http://www.w3.org/1999/xlink" x="0px" y="0px"
	 viewBox="0 0 1000 1000" style="enable-background:new 0 0 1000 1000;" xml:space="preserve">
<style type="text/css">
	.st0{opacity:0.7;fill:#F5FCFF;}
	.st1{fill:#F5FCFF;}
	.st2{opacity:0.7;fill:#2B2F50;}
	.st3{opacity:0.7;fill:#BFD3E0;}
	.st4{opacity:0.7;fill:#D9461C;}
	.st5{opacity:0.7;}
	.st6{fill:#BFD3E0;}
	.st7{opacity:0.7;fill:#7A9BE3;}
</style>
<g>
	<path class="st0" d="M344,566.8c0.9,34.7,5.1,69.2,12.7,103c2.5,11.3,6.5,23.9,17,28.6c10.5,4.7,25.7-8,18.6-17
		c5.6,1.1,11.3,2.2,17,3.3c2-11.2,4-22.5,6-33.8c5.3-1.9,10.6-3.7,15.8-5.6c8.1,61.1,8,123.3-0.3,184.4c-11.1-9.9-31.1,1-32.6,15.8
		s10.7,28.3,24.7,33.4s29.4,3.8,44.3,2.5c12.7-1.1,26.6-2.8,35.4-12c11.6-12,9.7-31,8.3-47.6c-3-37.6,1.1-75.7,12.1-111.8
		c23.6,49.3,25.6,105.8,27.1,160.5c30.2,9.7,63.3,9.8,93.6,0.4c4.5-17.4-5.5-34.9-13.3-51.1c-24.9-51.5-30.3-112.3-14.8-167.4
		c2.4,6.2,4.9,12.5,7.3,18.7c5.1,1.7,10.6,2.2,16,1.5c-6.8,8.6,8,20.6,17.8,15.6s12.8-17.4,13.9-28.3c4.9-45.9-3.3-92-12.6-137.2
		c-3.4-16.8-7.4-34.2-18.4-47.3s-31.3-20-45.7-10.7c3.8-13-5.5-26.9-17.6-33c-12.1-6.1-26.2-6.3-39.7-6.3c-25.9-0.1-62.4-7-86,5.4
		c-16.4,8.6-24.8,25.7-42.3,34C360.5,487.5,342.4,508.9,344,566.8z"/>
	<path class="st1" d="M326.8,242.5c-14.1,56.1,7,117.7,46.8,159.8c11.4,12,24.3,22.7,39.2,29.9c27.5,13.1,59.2,13,89.6,12.5
		c51-0.7,108.1-4,142.7-41.4c26.5-28.6,32.7-70.3,34.9-109.3c1.6-28.2,1.5-57.4-8.9-83.7C617.3,74.1,360.9,106.4,326.8,242.5z"/>
	<path class="st2" d="M391.8,378.3c5,6.5,10.9,12.5,18.7,16.1c8.5,3.9,18.3,4.4,27.8,4.9c26.1,1.2,52.3,2.4,78.4,3.6
		c28.3,1.3,59.3,1.9,81.6-14c23.4-16.6,29.6-46.1,31.3-73c1.4-22.8,0.8-45.8-4.5-68.1c-4.3-18.5-13-37.7-30.9-47.4
		c-41.5-22.5-159.6-36.6-199.5-2.1C350.1,236.9,359.8,336.6,391.8,378.3z"/>
	<path class="st3" d="M464.6,545.1c7.3-7,20.4-6.3,26.9,1.3c6.6,7.6,5.2,20.7-2.8,26.8c-3.9,3-8.8,4.3-13.6,5.6
		c-5,1.3-10.1,2.6-15.1,3.9c-4-20-17.9-37.7-36.4-46.3c-4.5-6,4.2-14.6,11.4-12.8s11.5,9.2,14.3,16.2c2.9,7.2,5.3,14.8,10.6,20.5
		c5.3,5.6,14.8,8.3,20.8,3.5"/>
	<path class="st3" d="M554.7,595.7c-4.1,5.7-11.1,9.1-18,8.8c-8.9-7.1-8.7-23.5,1.3-29c10-5.6,24.8,5,21.5,15.9
		c3.3-5.2,11.9-3.1,15.8,1.8c3.8,4.8,5.1,11.3,8.7,16.4c5.9,8.4,18.1,11.5,27.3,7c2.7,6.2,5.1,14,0.7,19.1c-5.7,6.7-17.1,1.8-22-5.5
		c-5-7.2-7.3-16.5-14.2-21.9c-5.2-4-12-5.1-18.3-6.6s-13.1-4-16.5-9.6c-3.4-5.6-0.9-14.8,5.6-15.6"/>
	<path class="st4" d="M538,776.2c26,2.4,52.7-2.9,75.9-14.9c11.1,1.8,11.6,19.5,3,26.7s-20.9,7.3-32.1,8.4
		c-14.9,1.5-29.6,5.4-43.3,11.6c3.1-9.2,2.8-19.5-0.8-28.5"/>
	<path class="st4" d="M346.2,629.1c13.1-0.9,26.2-1.8,39.4-2.8c5.8-0.4,11.9-0.8,17.1,1.8c5.2,2.6,8.8,9.3,6,14.4
		c-20.7-2.2-41.5-4.4-62.2-6.6"/>
	<path class="st4" d="M614.8,625.3c13.2-1.6,26.3-3.2,39.5-4.9c3.9-0.5,8-0.9,11.7,0.6c3.7,1.5,6.5,5.7,5.1,9.4
		c-15.7,5-33.1,4.3-48.3-1.9"/>
	<g class="st5">
		<path class="st6" d="M415.8,433.7c-4.5-2.9-10.3-2.9-15.7-2.4c-12.4,1.1-25.1,4.4-34.5,12.5s-14.8,21.8-10.4,33.5
			c20.8-7.8,41.6-15.6,62.4-23.5l-12.9,0.6c4.9-2.3,9.7-4.5,14.6-6.8C422.7,443.4,420.3,436.6,415.8,433.7z"/>
		<path class="st6" d="M681,611C681,611,681,611,681,611c-17-88-6.6-106.5-19-157.3c-6.4-26.3-11.6-23.6-30.3-20.8
			c-2.8,0.4-38,12.2-33.2,16.8c7.7,7.4,20.8-0.6,30.9,2.8c6.1,2,9.9,7.9,13,13.5c17.1,31.4,23.7,67.2,30.1,102.4
			c2.5,13.6,4.9,27.2,7.4,40.7c0.2,1,0.6,1.7,1.2,2.3C681,611.2,681,611.1,681,611z"/>
		<path class="st6" d="M503.8,468c-8.6-0.1-21.4-3.2-33.2-3.8c-4.2-1.5-8.2-4.1-12.1-6.2c-6.7-3.5-16.3-5.1-20.9,0.8
			c-2.5,3.2-2.5,7.5-2.3,11.5c0.1,3.9,0.2,7.9,0.4,11.8c0,1.7,0.1,3.6,1.2,5c1.5,1.8,4.2,2.1,6.6,2.3c2.8,0.2,5.6,0.3,8.5,0.4
			c23,9.7,80.4,8,92.6,7.5c14.6-0.6,30.3-2.3,41.5-11.5c-2-8.1-4.1-16.2-6.1-24.4C554.7,464.8,529.3,468.2,503.8,468z"/>
	</g>
	<path class="st3" d="M417.2,648.1c5.2,9.2,3.4,21.7-4,29.1c-3.1,3.1-7,5.3-9.7,8.7c-2.7,3.4-3.9,8.7-1,11.9c5.7-1,11.4-2.1,17-3.1
		c7.7-18.6,6.7-40.6-2.5-58.5"/>
	<path class="st3" d="M618.4,648.5c-5,10.3-6.5,22.3-4.1,33.4c4.3-0.1,8.6-0.2,12.9-0.2c-7-15.1-8.5-32.8-4-48.8
		c-2.6-1.2-5.6-1.4-8.3-0.4c-1.2,6.9-0.9,14.2,1,21"/>
	<path class="st7" d="M426.5,333.7c20.6-30.8,41.2-61.5,61.8-92.3c1.9-2.9-20.7-17.4-25.3-16.7c-8.2,1.4-18.6,24-21.9,30.6
		C428.7,279.4,423.4,306.9,426.5,333.7z"/>
	<path class="st7" d="M553.5,221.7c-14.9,31.6-29.8,63.2-44.7,94.8c4.7,2.5,10.8,0,14.1-4.2c3.3-4.2,4.5-9.6,6-14.7
		c9.1-31.9,29.6-59.2,49.7-85.7c-2,2.5-4.1,5-6.1,7.4"/>
	<g>
		<path d="M405.7,434.2c-34.2-14.1-60-44.2-73.1-78.3c-7.4-19.2-11.2-39.6-12-60.1c-0.8-21.1,1.4-42.6,8.5-62.6
			c11.5-32.8,36.3-59.7,65.7-77.5c33.8-20.4,73.6-28.1,112.6-27.4c20.6,0.4,41.3,2.8,61.4,7.5c19,4.4,37.6,11.1,54,21.8
			c30.5,19.8,50.1,52.8,58.3,87.8c9.5,40.7,3.3,83.6-10.3,122.6c-6.4,18.2-14.7,36.2-27.9,50.5c-12.6,13.7-28.8,23.4-45.7,30.8
			c-11.8,5.1-23.5,9.6-36.3,10.9c-12.7,1.3-25.5,1.6-38.2,1.7c-12.6,0-25.3-0.2-37.8-1.4c-4.7-0.5-9.2-1.2-13.8-2.4
			c-10.9-2.9-21.8-5.8-32.7-8.8c-10.5-2.9-20.9-5.9-31.3-8.9c-3.8-1.1-5.5,4.9-1.6,6c22.2,6.5,44.5,13,67,18.5
			c10.5,2.5,21.7,2.7,32.4,3c14.2,0.4,28.4,0.3,42.6-0.5c10.3-0.5,21.2-1,31.1-4.3c18.2-6.1,36.3-13.8,51.9-25.2
			c16.2-11.8,28.3-27.2,37-45.1c9.1-18.8,15.4-39.3,19.6-59.7c4.4-21.4,6.1-43.4,4-65.2c-3.5-37.2-18.6-74.1-45.8-100.2
			c-29.5-28.4-70.6-39.2-110.2-43.6c-41.9-4.6-85.6-0.8-124.4,16.6c-32.3,14.5-60.9,38.8-78,70c-20.1,36.4-22.4,81.3-13.7,121.4
			c8.3,38,29.1,73.3,61.4,95.6c7.4,5.1,15.4,9.3,23.7,12.8C407.7,441.7,409.3,435.7,405.7,434.2L405.7,434.2z"/>
	</g>
	<g>
		<path d="M428.2,182.1c-27.6-1-49.9,19.5-59.9,43.8c-11.8,28.6-9.4,60.9-7.6,91c1.5,24.5,4.5,51.1,20.9,70.6
			c18.3,21.7,49,25.8,75.5,28.9c32.5,3.7,65.4,3.6,97.9-0.2c24.3-2.9,54.4-6.8,68.6-29.5c7.2-11.6,8.7-25.6,9.5-38.9
			c1-16.6,1.5-33.2,1.7-49.9c0.4-29.7,1.9-62.9-12.8-89.8c-6.7-12.3-17-20.4-30.2-24.9c-14.3-4.8-29.9-7-44.9-8.8
			c-31.9-3.9-64.3-3.4-96.1,1.3c-7.8,1.1-15.5,2.6-23.2,4.2c-3.9,0.8-2.2,6.8,1.6,6c29.6-6.4,60-9,90.2-7.6
			c15.2,0.7,30.3,2.3,45.3,5c13.1,2.3,27.6,4.6,38.7,12.4c11,7.8,16.7,21,20.1,33.7c3.8,14.1,4.7,28.8,4.9,43.3
			c0.2,15.4,0,30.8-0.5,46.2c-0.5,14.4-0.4,29.3-2.7,43.5c-2,12.6-7,24.3-17.5,32c-9.6,7-21.5,10.3-33,12.5
			c-29.4,5.6-60,6.8-89.9,5.4c-15.2-0.7-30.5-2.2-45.5-4.7c-12.7-2.1-25.5-5-36.9-11.2c-22.4-12.2-30.9-36-34-60
			c-1.7-12.9-2.2-26-2.8-39c-0.6-15.1-0.8-30.5,1.6-45.4c4.1-25.6,16.9-52,42.8-61.2c5.8-2.1,11.8-3,17.9-2.8
			C432.2,188.4,432.2,182.2,428.2,182.1L428.2,182.1z"/>
	</g>
	<g>
		<path d="M456.9,220.6c-22.7,34.1-40.4,71.6-52.2,110.8c-1.2,3.8,4.8,5.5,6,1.6c11.8-38.8,29.2-75.6,51.6-109.3
			C464.5,220.4,459.1,217.3,456.9,220.6L456.9,220.6z"/>
	</g>
	<g>
		<path d="M509.4,237.8c-18.1,31.8-33.7,64.9-46.7,99.1c-1.4,3.7,4.6,5.3,6,1.6c12.8-33.7,28.3-66.3,46.1-97.7
			C516.7,237.5,511.4,234.4,509.4,237.8L509.4,237.8z"/>
	</g>
	<g>
		<path d="M541.9,284.5c-2.6,9.7-5.9,19.1-10,28.3c-1.6,3.6,3.8,6.8,5.3,3.1c4.2-9.7,7.8-19.6,10.6-29.8
			C548.9,282.3,543,280.7,541.9,284.5L541.9,284.5z"/>
	</g>
	<g>
		<path d="M426.6,447c-0.7,5-1.5,10-2.2,15c-0.7,4.5-2.2,9.7-1.7,14.2c0.9,7.8,11.9,11,18.1,13.5c16.7,6.6,35.1,8.8,52.9,7
			c3.9-0.4,4-6.6,0-6.2c-15.4,1.6-31,0.1-45.8-4.8c-3.6-1.2-7.2-2.6-10.7-4.2c-3.1-1.4-8.4-3.1-8.4-7.1c0-4.2,1.2-8.6,1.8-12.7
			c0.6-4.4,1.3-8.7,1.9-13C433.1,444.8,427.2,443.1,426.6,447L426.6,447z"/>
	</g>
	<g>
		<path d="M586.3,449.8c2.1,6.6,4.3,13.2,6.4,19.8c1,3,2.7,6.8,0.7,9.7c-1.6,2.5-5,3.9-7.6,5.1c-12.4,5.7-26.1,8.2-39.6,8
			c-4,0-4,6.1,0,6.2c15.5,0.2,32-2.8,45.7-10.3c6.2-3.4,9.8-8.5,8.2-15.7c-1.8-8.3-5.2-16.5-7.8-24.5
			C591.1,444.4,585.1,446,586.3,449.8L586.3,449.8z"/>
	</g>
	<g>
		<path d="M422.5,454.6c-19.7,4.1-40.5,9.4-56.9,21.8c-7.8,5.9-14.3,13.5-18.2,22.5c-5,11.4-6,24-7,36.3c-2.1,26.9-2.9,54-0.3,80.8
			c1.2,13.2,3.3,26.3,6.4,39.2c2.8,11.8,6.1,24.5,12.2,35.2c6.1,10.5,17.4,19.1,30.1,16.7c10.3-2,18.3-13.6,14.2-23.7
			c-1.5-3.6-7.5-2-6,1.7c3.9,9.4-5.9,17.5-14.9,16.1c-11.1-1.7-17.9-11.8-21.8-21.4c-8.7-21.7-12.7-45.6-14.6-68.8
			c-1.9-23.9-1.3-48,0.5-71.9c0.8-11.2,1.4-22.6,5-33.3c3-9,8.6-16.6,15.8-22.7c15.8-13.2,37.3-18.3,57-22.5
			C428,459.8,426.4,453.8,422.5,454.6L422.5,454.6z"/>
	</g>
	<g>
		<path d="M411.5,574.6c-1.6,12.7-0.5,25.4,1.5,38c1,6.4,2.3,12.8,3.6,19.2c1.1,5.3,2.4,10.6,5,15.4c5.9,10.9,17.6,14.5,29.1,16.6
			c13.3,2.5,26.8,3.2,40.3,2.9c15.7-0.4,31.4-2.2,47-3.9c3.9-0.5,4-6.7,0-6.2c-25.2,2.9-50.9,5.8-76.2,2.7
			c-10.8-1.3-25.6-2.8-32.8-12c-3.2-4.2-4.7-9.4-5.9-14.4c-1.3-5.8-2.5-11.7-3.5-17.7c-2.3-13.4-3.7-27.1-1.9-40.6
			C418.2,570.6,412,570.7,411.5,574.6L411.5,574.6z"/>
	</g>
	<g>
		<path d="M578.1,658.2c9-0.3,18.7-1.1,26.8-5.4c3.9-2.1,7.3-5.2,9.5-9c2.8-4.9,3.2-10.5,3.9-16c3.2-26.8,6.1-53.9,1.5-80.7
			c-2.5-14.8-7.3-29.1-12-43.3c-1.2-3.8-7.2-2.1-6,1.6c3.8,11.5,7.7,23.1,10.4,34.9c2.8,12.2,3.9,24.5,3.9,37c0,12.4-1,24.7-2.4,37
			c-0.7,6-1.2,12.1-2.1,18.1c-0.7,4.8-2.2,9.3-6.1,12.6c-7.2,6.2-18.2,6.7-27.3,7C574.1,652.1,574.1,658.3,578.1,658.2L578.1,658.2z
			"/>
	</g>
	<g>
		<path d="M615.2,608.2c-4.1,4.3-5,10.1-2,15.4c3.4,5.9,10.2,9.1,16.5,11c16,4.6,32.9,1.6,49-1.2c3.9-0.7,2.3-6.7-1.7-6
			c-12.8,2.3-25.9,4.6-38.9,2.7c-5.4-0.8-11.1-2.2-15.7-5.4c-4.1-2.9-6.8-7.8-2.9-12C622.3,609.7,617.9,605.3,615.2,608.2
			L615.2,608.2z"/>
	</g>
	<g>
		<path d="M595,458.9c7.1-5,16.1-3.5,23.7-0.2c8.2,3.5,15.7,9,21.3,16c6.1,7.6,10,16.8,13.1,26c3.5,10.1,6.4,20.5,9,30.9
			c5.5,21.7,9.4,43.9,11.6,66.2c1.1,11.3,1.8,22.6,2.1,34c0.2,9.2,0.1,18.5-1.5,27.6c-1.7,9.9-5.2,19.8-12,27.5
			c-3.3,3.8-7.7,7.3-12.8,8.1c-4.5,0.7-10.1-1.2-11.8-5.8c-1.4-3.7-7.4-2.1-6,1.7c3.4,8.7,13.3,12.3,22,9.5
			c9.4-3.1,16.4-11.8,20.7-20.5c9.5-19.5,8.2-42.7,7-63.7c-1.5-25.3-5.1-50.5-10.7-75.3c-2.8-12.4-6.1-24.8-10-36.9
			c-3.2-10.2-7.1-20.5-13.2-29.3c-6.5-9.4-15.6-16.8-26-21.3c-9.4-4-20.7-5.8-29.5,0.4C588.6,455.8,591.7,461.2,595,458.9L595,458.9
			z"/>
	</g>
	<g>
		<path d="M624.9,637.1c-4.7,7.9-6.5,17.1-5.1,26.2c1.1,7.4,5.4,16.1,13.5,17.7c8.9,1.8,14.3-6.8,17.3-13.8c3.9-9,5.7-18.8,5.2-28.6
			c-0.2-4-6.4-4-6.2,0c0.3,7.4-0.6,14.7-3,21.7c-1.6,4.7-5.1,15.2-11.7,14.7c-6.2-0.5-8.8-9.2-9.3-14.2c-0.8-7.2,0.9-14.3,4.6-20.6
			C632.3,636.8,627,633.7,624.9,637.1L624.9,637.1z"/>
	</g>
	<g>
		<path d="M344.9,641.2c19.4,9.8,41.5,12.9,62.9,8.7c3.9-0.8,2.2-6.7-1.6-6c-19.7,3.8-40.2,1-58.1-8.1
			C344.4,634.1,341.3,639.5,344.9,641.2L344.9,641.2z"/>
	</g>
	<g>
		<path d="M417.6,533.5c4.4-2.4,9.4,0.5,12.4,3.9c3.4,3.8,5.1,8.9,6.5,13.7c2.7,9.3,4.2,19.1,10.2,27c5.1,6.7,12.8,10.6,21.2,9
			c7.8-1.4,14.3-7,16.8-14.5c1.2-3.8-4.7-5.4-6-1.7c-2.4,7.2-10.7,11.8-18.1,9.9c-8.8-2.3-12.9-12.1-15.1-19.9
			c-2.5-8.9-3.9-18.9-9.8-26.4c-5-6.3-13.6-10.5-21.2-6.4C411,530.1,414.1,535.5,417.6,533.5L417.6,533.5z"/>
	</g>
	<g>
		<path d="M431.2,522.6c4.2-3.8,10.6-0.8,13.9,2.7c4.6,5,5.4,12.7,7,19.1c2.7,11,9.9,23.5,23,21.7c3.9-0.5,2.3-6.5-1.6-6
			c-6.7,0.9-11.8-6.2-13.8-11.7c-2.5-6.8-3-14.2-6-20.9c-4.3-9.7-17.6-17.8-26.9-9.3C423.9,520.9,428.3,525.3,431.2,522.6
			L431.2,522.6z"/>
	</g>
	<g>
		<path d="M472,564c6.6-1.5,9.6,6.5,4.8,10.6c-3.1,2.6,1.3,6.9,4.4,4.4c4.2-3.5,5.7-9.9,3.1-14.9c-2.6-5-8.5-7.3-13.9-6.1
			C466.5,558.9,468.1,564.8,472,564L472,564z"/>
	</g>
	<g>
		<path d="M469.5,559.9c-3.9-6.4,0.6-14.9,7.4-17.1s14.6,1.1,18.8,6.6c4.7,6.3,3.7,15-0.3,21.4c-3.3,5.3-13.3,13.3-19.2,7
			c-2.7-2.9-7.1,1.5-4.4,4.4c6.1,6.6,16.2,3.9,22.5-1c6.8-5.3,11.1-14,10.8-22.7c-0.7-16.2-20.4-29.1-34.8-19.2
			c-7.5,5.2-11,15.8-6,23.8C466.2,566.4,471.5,563.3,469.5,559.9L469.5,559.9z"/>
	</g>
	<g>
		<path d="M546.7,536.2c9.2-4.2,17.6,5.2,20.1,13c3.3,10.4,2.7,22.2,3.3,33c0.2,4,6.4,4,6.2,0c-0.4-7.3-0.7-14.6-1.3-21.9
			c-0.6-6.5-1.6-13-4.7-18.8c-5-9.4-16.5-15.5-26.7-10.7C540,532.6,543.1,537.9,546.7,536.2L546.7,536.2z"/>
	</g>
	<g>
		<path d="M459.7,590c0.8,6.5,1.5,13.1,2.3,19.7c0.6,4.9,0.4,10.8,4.6,14.2c4.2,3.3,10.9,4.4,16,5.6c6.2,1.5,12.6,2.5,19,3
			c12.4,1,25.1,0.2,37.2-2.6c9.1-2.1,18.2-6.2,21.9-15.4c1.5-3.7-4.5-5.3-6-1.7c-3.1,7.9-13,10.3-20.5,11.7
			c-10.3,2-20.9,2.6-31.4,1.9c-10.1-0.7-21.1-2.4-30.5-6.3c-4.7-2-4-8.6-4.5-13c-0.7-5.7-1.3-11.3-2-17
			C465.4,586.1,459.2,586,459.7,590L459.7,590z"/>
	</g>
	<g class="st5">
		<path d="M611.7,614.8c-12.2,10.2-22.6-5.6-28-14.7c-5.3-9.1-13.9-20.4-25.9-18.7c-5.2,0.8-10,4.7-9.5,10.3
			c0.6,6,6.8,9.1,10.7,12.8c9.4,9,13.8,22,23.9,30.5c9.2,7.7,24.8,10.9,33.2,0.2c2.4-3.1-1.9-7.5-4.4-4.4c-7,9-19.5,4.8-26.4-2
			c-8.1-8-12.5-18.8-20.3-27.1c-1.8-2-3.9-3.6-6-5.3c-1.7-1.4-5-3.6-4.4-6.1c0.6-2.6,4.3-3,6.5-2.8c2.7,0.3,5.2,1.6,7.3,3.2
			c8,6.2,11.4,16.6,17.8,24.3c7.7,9.2,20.1,12.4,29.9,4.2C619.1,616.6,614.7,612.2,611.7,614.8L611.7,614.8z"/>
	</g>
	<g>
		<path d="M561.7,587.5c4.5-7.7,1.3-18.1-6.6-22.2c-9.1-4.7-20.4-0.3-25.5,8.2c-5,8.5-4.4,20,1.5,27.8c6,8,17.6,11.1,25.9,4.7
			c3.1-2.4,0-7.8-3.1-5.3c-5.7,4.4-13.5,2.8-17.8-2.9c-4.1-5.4-4.8-13.2-2.1-19.3c2.7-6.2,9.6-10.5,16.4-8.4
			c5.9,1.8,9.1,8.9,5.9,14.3C554.3,587.8,559.7,590.9,561.7,587.5L561.7,587.5z"/>
	</g>
	<g>
		<path d="M425.6,651.4c0.4,3.8,0.7,7.7,1.1,11.5c0.3,3.3,0.1,7,1.1,10.2c0.8,2.7,3.1,4,5.8,4.3c4,0.5,8.3,0.1,12.4,0
			c16.4-0.1,32.9-0.4,49.3-0.8c33.1-0.8,66.2-2,99.2-3.8c4.5-0.2,9.1-0.4,13.7-0.8c2.8-0.2,5.5-0.9,6.5-3.8c0.6-1.6,0.4-3.5,0.5-5.1
			c0.1-2.5,0.2-4.9,0.3-7.4c0.2-4.7,0.3-9.4,0.5-14.1c0.2-4-6-4-6.2,0c-0.3,7.2-0.5,14.3-0.8,21.5c0,0.4,0.1,2.5-0.1,2.7
			c-0.1,0.1,3.6-2.5-0.8,0c-1,0.6-3.5,0.2-4.8,0.3c-3.9,0.2-7.8,0.4-11.6,0.6c-14.4,0.8-28.7,1.4-43.1,2c-29,1.1-58,1.9-87,2.3
			c-8.2,0.1-16.4,0.2-24.7,0.2c-0.6,0-1.3,0.1-1.9,0c-1.6-0.3-1.4-0.7-1.7-2c-0.5-1.8-0.4-3.9-0.5-5.8c-0.4-4.1-0.8-8.1-1.1-12.2
			C431.4,647.5,425.2,647.5,425.6,651.4L425.6,651.4z"/>
	</g>
	<g>
		<path d="M427.3,675.9c-3.7,19.8-2.6,40.1,3.5,59.3c1.2,3.8,7.2,2.2,6-1.7c-5.8-18.1-7-37.3-3.5-56C434,673.7,428,672,427.3,675.9
			L427.3,675.9z"/>
	</g>
	<g>
		<path d="M605.6,671.2c3.5,19.7,6.8,39.6,5.9,59.7c-0.2,4,6,4,6.2,0c1-20.7-2.5-41.1-6.1-61.3C610.9,665.7,604.9,667.3,605.6,671.2
			L605.6,671.2z"/>
	</g>
	<g>
		<path d="M518.1,714c-4.4,23.2-5.1,47-2,70.4c0.5,3.9,6.7,4,6.2,0c-3-22.9-2.5-46.1,1.8-68.8C524.8,711.8,518.8,710.1,518.1,714
			L518.1,714z"/>
	</g>
	<g>
		<path d="M427.4,791.1c0,11.8,0,23.7,0,35.5c0,4,6.2,4,6.2,0c0-11.8,0-23.7,0-35.5C433.6,787.1,427.4,787.1,427.4,791.1
			L427.4,791.1z"/>
	</g>
	<g>
		<path d="M457.4,836.4c-9.9-4.7-19.8-10.2-30.4-13.3c-8.8-2.6-18.6-2.7-25.9,3.5c-6.6,5.6-8.8,14.5-9.4,22.8
			c-0.8,10.7,0.4,22,3.3,32.3c1.1,3.8,7.1,2.2,6-1.7c-2.6-9.1-3.5-18.7-3.2-28.2c0.3-7.1,1.6-15.2,7-20.2c6.3-5.7,15.3-4.3,22.7-1.8
			c9.2,3.1,18,7.9,26.8,12C457.9,843.4,461,838.1,457.4,836.4L457.4,836.4z"/>
	</g>
	<g>
		<path d="M498,779.6c4.6,1.3,9.2,2.6,13.8,3.9c2.8,0.8,2.3,1.1,2.5,4c0.1,2.4,0.2,4.9,0.3,7.3c0.3,9.1,0.1,18.1-0.4,27.2
			c-1,18.5-3.7,36.9-8,54.9c-0.9,3.9,5.1,5.5,6,1.7c4.7-20.1,7.5-40.6,8.4-61.2c0.4-10.2,0.3-20.3-0.2-30.5c-0.2-4.3-0.6-7.3-5-8.8
			c-5.2-1.7-10.5-3-15.8-4.5C495.8,772.5,494.2,778.5,498,779.6L498,779.6z"/>
	</g>
	<g>
		<path d="M400.3,883c36.8,0.7,73.7-0.5,110.4-3.6c3.9-0.3,4-6.5,0-6.2c-36.7,3.1-73.6,4.3-110.4,3.6
			C396.3,876.8,396.3,883,400.3,883L400.3,883z"/>
	</g>
	<g>
		<path d="M519.3,713.8c1.5,14.4,4.1,28.7,8.1,42.7c2,6.8,4.2,13.6,6.8,20.2c1.7,4.2,6.1,9.8,11,6.4c3.3-2.2,0.2-7.6-3.1-5.3
			c-0.9,0.6-5.6-13-6-14.3c-1.7-5.3-3.3-10.7-4.7-16.1c-2.8-11-4.7-22.2-5.9-33.5C525.1,709.8,518.9,709.8,519.3,713.8L519.3,713.8z
			"/>
	</g>
	<g>
		<path d="M533.4,776.7c1.1,26.4,3.7,52.7,7.7,78.8c1,6.7,2.2,13.3,3.4,20c1,5.3,2.4,9.2,8.3,10c12.9,1.8,26.2,1.6,39.1,0.8
			c15-0.9,30-2.9,44.9-4.9c3.9-0.5,4-6.7,0-6.2c-24.2,3.2-48.6,6.5-73,5c-2.9-0.2-5.8-0.4-8.7-0.7c-1.5-0.2-2.8-0.1-3.6-1.5
			c-0.7-1.2-0.7-3-0.9-4.3c-1.1-6.2-2.2-12.4-3.2-18.7c-1.9-12.2-3.5-24.4-4.7-36.7c-1.4-13.9-2.4-27.8-3-41.8
			C539.4,772.7,533.2,772.7,533.4,776.7L533.4,776.7z"/>
	</g>
	<g>
		<path d="M582.4,843.1c8.4-7.3,18.4-12.7,29.2-15.7c9.4-2.6,23.5-5.8,30,3.8c5.8,8.5,5.4,21.2,5.5,31c0,2.7,0.8,7.3-0.6,9.6
			c-1.2,1.9-4.7,2.5-6.7,3c-6.5,1.8-13.2,2.9-20,3.4c-4,0.3-4,6.5,0,6.2c6-0.4,12-1.2,17.8-2.6c4.5-1,10.4-2,13.5-5.8
			c3.2-4,2.2-10.9,2.2-15.7c-0.1-5.7-0.4-11.4-1.2-17c-1.2-8.3-4.3-17.5-12.1-21.9c-9-5-21.2-2.5-30.5,0.2
			c-11.6,3.3-22.2,9.2-31.3,17.1C575,841.3,579.4,845.7,582.4,843.1L582.4,843.1z"/>
	</g>
	<g>
		<path d="M619.2,766c0.6,19.2,4.1,38.2,10.6,56.3c1.3,3.7,7.3,2.1,6-1.7c-6.3-17.6-9.8-35.9-10.4-54.6
			C625.3,762.1,619.1,762.1,619.2,766L619.2,766z"/>
	</g>
	<g>
		<path d="M565.9,870.2c27.3,0.1,54.6-3.2,81.1-9.9c3.9-1,2.2-7-1.7-6c-26,6.6-52.7,9.8-79.5,9.7C561.9,864,561.9,870.2,565.9,870.2
			L565.9,870.2z"/>
	</g>
	<g>
		<path d="M396.3,863.9c24.9,2.1,49.9,2.6,74.9,1.6c4-0.2,4-6.4,0-6.2c-25,1-50,0.5-74.9-1.6C392.4,857.4,392.4,863.6,396.3,863.9
			L396.3,863.9z"/>
	</g>
	<g>
		<path d="M492.3,866.8c7-0.5,14-1,21-1.6c4-0.3,4-6.5,0-6.2c-7,0.5-14,1-21,1.6C488.4,860.8,488.3,867,492.3,866.8L492.3,866.8z"/>
	</g>
	<g>
		<path d="M378.9,590.9c10-2.8,20.3-2.1,29.9,1.8c3.7,1.5,5.3-4.5,1.6-6c-10.6-4.3-22.2-4.9-33.2-1.8C373.4,586,375,592,378.9,590.9
			L378.9,590.9z"/>
	</g>
	<g>
		<path d="M414.3,537.5c-0.5,17.2-1.8,34.2-4.1,51.2c-0.5,3.9,5.7,3.9,6.2,0c2.3-17,3.6-34.1,4.1-51.2
			C420.6,533.5,414.4,533.5,414.3,537.5L414.3,537.5z"/>
	</g>
	<g>
		<path d="M410.1,584.8c0.5,23.2,1.1,46.4,1.6,69.7c0.1,4,6.3,4,6.2,0c-0.5-23.2-1.1-46.4-1.6-69.7
			C416.2,580.8,410,580.8,410.1,584.8L410.1,584.8z"/>
	</g>
	<g>
		<path d="M390.4,647c-2.9,8.3-2.5,17.4,1,25.5c3.2,7.1,9.7,15,18.4,13.6c10.2-1.7,9.1-12.5,9-20.4c-0.2-11.6-0.4-23.2-0.6-34.8
			c-0.1-4-6.3-4-6.2,0c0.1,8.4,0.3,16.8,0.4,25.3c0.1,4.3,0.1,8.7,0.2,13c0,3,0.9,8.1-1.9,10.1c-6,4.3-12.3-5.6-14.1-10.1
			c-2.7-6.6-2.7-13.8-0.3-20.4C397.7,644.8,391.7,643.2,390.4,647L390.4,647z"/>
	</g>
	<g>
		<path d="M406.9,426.7c-9.3,0.5-18.6,1.8-27.6,3.8c-4.4,1-8.8,2.2-13.1,3.5c-3.7,1.2-7.4,2.5-10.1,5.4c-5.5,5.9-7.5,15.5-8.8,23.2
			c-1.6,9.1-2,18.3-2.4,27.5c-0.2,4,6,4,6.2,0c0.3-8,0.6-16,1.8-23.9c0.6-4,1.5-7.9,2.6-11.7c1.1-3.6,2.3-7.8,4.9-10.6
			c2.5-2.7,6.4-3.5,9.8-4.5c3.9-1.2,7.9-2.2,11.9-3c8.2-1.8,16.4-2.9,24.7-3.3C410.9,432.7,410.9,426.5,406.9,426.7L406.9,426.7z"/>
	</g>
	<g>
		<path d="M398.2,699c8.9,1.8,17.9,2.7,27,2.5c4,0,4-6.2,0-6.2c-8.5,0.1-17-0.6-25.4-2.3C396,692.3,394.3,698.2,398.2,699L398.2,699
			z"/>
	</g>
	<g>
		<path d="M630.2,681.3c-1.8,5.3-0.2,11.5,4.2,15.1c3,2.5,7.5-1.8,4.4-4.4c-2.8-2.3-3.8-5.7-2.6-9.1
			C637.5,679.2,631.5,677.6,630.2,681.3L630.2,681.3z"/>
	</g>
	<g>
		<path d="M614.5,689.3c5.6-0.7,11.1-1.7,16.5-3.3c3.8-1.1,2.2-7.1-1.7-6c-4.9,1.4-9.8,2.5-14.8,3.1
			C610.6,683.6,610.6,689.8,614.5,689.3L614.5,689.3z"/>
	</g>
	<g>
		<path d="M624.1,578.6c6.5-3.2,13.5-4.4,20.6-3.9c4,0.3,4-5.9,0-6.2c-8.3-0.6-16.3,1.1-23.8,4.7C617.4,575,620.5,580.3,624.1,578.6
			L624.1,578.6z"/>
	</g>
	<g>
		<path d="M426.8,728.4c-2.1,22.6-1.4,45.2,2,67.6c0.2,1.6,2.4,2.6,3.8,2.2c9-3,18.3-3.9,27.8-2.9c4,0.4,3.9-5.8,0-6.2
			c-10-1.1-19.9,0-29.4,3.1c1.3,0.7,2.5,1.4,3.8,2.2c-3.3-21.8-3.8-44-1.8-66C433.3,724.5,427.1,724.5,426.8,728.4L426.8,728.4z"/>
	</g>
	<g>
		<path d="M607.2,688.1c2.3,17.6,4.6,35.2,6.9,52.8c0.6,4.3,1.1,8.6,1.7,12.8c0.5,3.8,2,8-1.1,10.8c-5.9,5.4-13.1,9.8-20.2,13.6
			c-3.5,1.9-0.4,7.2,3.1,5.3c7.4-4,14.6-8.7,21-14.2c6.8-5.8,3.3-15.3,2.3-23c-2.5-19.4-5.1-38.8-7.6-58.2
			C612.9,684.2,606.7,684.1,607.2,688.1L607.2,688.1z"/>
	</g>
	<g>
		<path d="M469.4,540.9c2.1-8.6,16.4-8,23-8.3c11.6-0.5,23.2,0,34.6,1.6c3.9,0.5,5.6-5.4,1.7-6c-13.8-1.9-27.6-2.5-41.5-1.5
			c-8.9,0.6-21.2,2.1-23.7,12.5C462.5,543.1,468.5,544.7,469.4,540.9L469.4,540.9z"/>
	</g>
	<g>
		<path d="M661.8,566.8c2.6,0,5.3,0,7.9,0c4,0,4-6.2,0-6.2c-2.6,0-5.3,0-7.9,0C657.8,560.7,657.8,566.8,661.8,566.8L661.8,566.8z"/>
	</g>
	<g>
		<path d="M639.6,436.2c5.2-4.9,13.5-2,17.7,2.8c5.8,6.5,5.9,16.5,6.1,24.8c0.4,20.2,0.6,40.4,0.9,60.6c0.1,4,6.2,4,6.2,0
			c-0.2-12.2-0.4-24.3-0.5-36.5c-0.2-11.4,0.4-23.1-0.9-34.5c-1.1-9-4.3-18.1-12.5-22.9c-6.8-3.9-15.4-4.2-21.3,1.4
			C632.3,434.6,636.7,439,639.6,436.2L639.6,436.2z"/>
	</g>
</g>
</svg>
