<?xml version="1.0" encoding="utf-8"?>
<!-- Generator: Adobe Illustrator 23.0.2, SVG Export Plug-In . SVG Version: 6.00 Build 0)  -->
<svg version="1.1" id="Layer_1" xmlns="http://www.w3.org/2000/svg" xmlns:xlink="http://www.w3.org/1999/xlink" x="0px" y="0px"
	 viewBox="0 0 1000 1000" style="enable-background:new 0 0 1000 1000;" xml:space="preserve">
<style type="text/css">
	.st0{opacity:0.7;}
	.st1{fill:#EEF6F7;}
	.st2{fill:#FBDFC5;}
	.st3{fill:#FFC0A8;}
	.st4{fill:#F28383;}
	.st5{fill:#D47E3F;}
	.st6{fill:#FFC2C2;}
	.st7{fill:#FFFFFF;}
</style>
<g>
	<g class="st0">
		<path class="st1" d="M461.3,723.3c-7.4-6.1-15.5-13.7-14.8-23.2c0.5-6.4,5.2-12,10.9-15c5.7-3,12.3-4,18.7-4.5
			c13.2-1,26.6-0.4,39.7,1.8c7.5,1.3,15.1,3.1,21.6,7.1s11.8,10.5,12.9,18c1.3,9.2-3.5,18-8.3,26c-3.7,6.2-7.6,12.7-13.9,16.4
			c-8.5,5-19.2,3.5-29,1.8c-3.1,4-2,10,0.4,14.5c2.4,4.5,5.9,8.6,7.3,13.5c2.3,8.3-2.5,17.9-10.4,21.2s-17.9,0.5-23.1-6.4
			c-5.2-6.9-5.4-17-0.8-24.3"/>
		<path class="st2" d="M417.2,298.6c47.1-32.9,122.9-28,167.6,8.2s54.2,100.7,31.7,153.6c5.7-5.9,16.9-1.4,19.5,6.4
			c2.6,7.8-1,16.3-5.9,22.9s-11.3,12-15.5,19c-8,13.4-7.1,30.3-13.5,44.5c-7.1,15.7-22.5,26.5-39,31.6c-16.5,5.1-34,5.3-51.3,4.9
			c-30.6-0.7-62.2-3.3-89.3-17.5c-27.1-14.2-48.7-42.8-46.1-73.3c-12.9,6.1-30.3-2.2-33.7-16c-5.4-21.6,18.4-22.7,23.1-37.9
			c4.2-13.5-4.8-38-2.6-53.7C367.1,354.7,386.8,319.9,417.2,298.6z"/>
		<path class="st2" d="M396.9,694.2c-10.7-19.5-39.8-25.6-57.5-12.1c-17.6,13.5-19.3,43.3-3.2,58.6c-5.3,1.6-10.5,3.2-15.8,4.8
			c-3.8,5.3-0.5,14.2,6,15.5c-9.7,15.5,6.8,36.5,25,38.3s35-8.5,50.3-18.5c9.9,6,24,3.3,31.1-5.9c3.4,5.2,3.7,12.3,0.8,17.7
			c9.5-7.5,22.1-10.8,34-9c9.2-9.7,10.1-26.2,2-36.9c-7.2-9.5-19.8-13.9-26.4-23.8c-11.1-16.5,0.6-40.4,18.4-49.2s38.7-6.9,58.5-4.8
			c19,2,42.4,7.8,46.2,26.5c1.7,8.5-1.6,17.3-5.6,25c-10.4,19.8-26,36.9-44.9,48.9c-4.8,4.3-2.7,13.8,3.5,15.5
			c-7.9,0.9-6.7,14.5,0.7,17.5s15.6-0.8,22.9-4.1c7.3-3.3,16.3-6,22.8-1.4c1.1-10,2.1-20,3.2-30c1.5,9.5,12.9,14.6,22.3,12.8
			s17.1-8.4,24.2-14.8c10.2,17.4,31.7,27.3,51.5,23.9s36.7-20.2,40.3-40c-3.7-7.8-7.3-15.7-11-23.5c-3.5-7.5-7.8-15.7-15.5-18.6
			s-18.7,4.4-15.5,12.1c2.2-22.2-22.7-42.3-43.9-35.4c-11.5-40.1-25.6-83.7-60.8-105.9c-36.3-22.9-94-17-129.9,5.1
			C403,599.7,380.2,663.7,396.9,694.2z"/>
		<path class="st3" d="M642.4,678.6c6.5-0.4,11.8,7.6,8.9,13.4s-12.5,6.4-16.1,1C631.7,687.5,635.9,679,642.4,678.6"/>
		<path class="st3" d="M355.9,763.1c-5.8-0.6-9.9,6.9-7.7,12.3s8.3,8.2,14.1,8.7c6.8,0.6,15.1-3,15.5-9.8c0.2-4.3-3.1-8.2-7-10
			s-8.4-2-12.7-2.2"/>
		<path class="st4" d="M468.8,539.2c1.8,6.6,8.5,11.5,15.4,11.3c6.9-0.2,13.2-5.6,14.6-12.3"/>
		<path class="st5" d="M480.4,240.6c9.1,5.8-6,24,3.2,29.5c5.5,3.3,11.8-3.9,12.7-10.2c2.1-14.7-9.2-30-23.8-32.5"/>
		<path class="st6" d="M398,506.6c-3.9,1.3-4.1,7.2-1.3,10.1c2.8,2.9,7.1,3.6,11.2,4.2c4.8,0.7,10.7,0.9,13.5-3.1
			c3.1-4.6-1-11.3-6.4-12.8s-11,0.5-16.2,2.5"/>
		<path class="st6" d="M560.7,513.3c-5.8-1-10.5,6.3-8.5,11.8c2,5.5,8.6,8.3,14.4,7.8c8.1-0.7,15.8-7.8,15.2-16
			c-0.7-8.1-11.7-13.9-17.8-8.5"/>
		<path class="st3" d="M655.7,763.4c0.8-9.5,6.3-18.5,14.4-23.5c3.5-2.1,7.9-3.6,11.7-2.1c7.5,2.9,6.7,15,0.3,19.9
			s-15.2,4.7-23.2,4.3"/>
	</g>
	<g>
		<path d="M476.6,278.9c9.4-11.5,16.1-28.2,6.4-41.7c-7.6-10.5-24.8-11.9-31.8,0.2c-2.3,4,3.9,7.7,6.2,3.6
			c5.1-8.9,17.2-5.1,21.1,2.7c5.2,10.4-0.3,21.9-7,30.1C468.6,277.3,473.7,282.5,476.6,278.9L476.6,278.9z"/>
	</g>
	<g>
		<path d="M509.1,273.6c-0.3-13.4-0.7-28.2-8.9-39.5c-6.8-9.3-18.4-15.4-30-12.1c-4.5,1.3-2.6,8.2,1.9,6.9c9.6-2.8,19,3.6,23.8,11.7
			c5.7,9.8,5.8,21.9,6,32.9C502,278.3,509.2,278.3,509.1,273.6L509.1,273.6z"/>
	</g>
	<g>
		<path d="M469.7,271c-30.9,6.9-59.5,23.4-81,46.7c-22.6,24.5-36.4,56-39.8,89.1c-2,19.5-0.3,39.4,5.1,58.2c2-1.2,4-2.3,6-3.5
			c-6.2-6.5-16.8-5.7-23.2,0c-7.8,6.9-8,19-4.9,28.1c3.1,9.4,9.8,18.3,19.6,21.3c8.8,2.7,18.4-0.2,23.8-7.7c2.7-3.8-3.5-7.4-6.2-3.6
			c-3.6,5-10.6,6.1-16.1,4.2c-6.6-2.3-11.2-8.6-13.6-15c-2.3-6.1-3.3-14,0.4-19.8c3.2-4.9,10.9-7.1,15.3-2.5c2.5,2.6,7-0.1,6-3.5
			c-9-31.9-7.1-66.3,5.3-97c11.6-28.6,32.6-53,58.8-69.2c14.4-8.9,30-15.3,46.5-19C476.2,277,474.3,270,469.7,271L469.7,271z"/>
	</g>
	<g>
		<path d="M532.7,276.2c27.7-1,54.9,10.8,73.5,31.3c20.8,23,26.3,54.4,25.5,84.4c-0.5,17.7-2.8,35.3-5.4,52.9
			c-0.7,4.5,6.3,6.5,7,1.9c4.8-32.6,9.5-66.6,1.5-99c-7.3-29.5-26.4-54.5-53.8-68.1c-15-7.4-31.6-11.2-48.3-10.6
			C528.1,269.1,528,276.4,532.7,276.2L532.7,276.2z"/>
	</g>
	<g>
		<path d="M627.8,467c2.6-4.1,8.4-3.6,11.7-0.8c3.9,3.2,5.5,8.8,5.6,13.7c0.1,4.7-1.1,10.2-5.1,13.2c-3.6,2.7-8.8,2.8-11.9-0.6
			c-3.1-3.4-8.2,1.7-5.1,5.1c5,5.5,13.5,6,19.8,2.3c7.2-4.2,10-13.2,9.4-21.2c-0.6-7.9-4-16.6-11.5-20.3c-6.7-3.3-15.2-1.5-19.2,4.9
			C619.1,467.3,625.3,470.9,627.8,467L627.8,467z"/>
	</g>
	<g>
		<path d="M363,513.3c-3.8,21.9,9.4,41.9,26.2,54.7c18.4,14,41.1,21.2,63.6,24.8c23.8,3.8,48.6,5.3,72.6,3.5
			c23.2-1.7,46.6-7.6,65.2-22.2c18.1-14.2,31.1-35.9,29.6-59.4c-0.3-4.6-7.5-4.6-7.2,0c1.2,19.4-8.3,37.3-22.5,50.1
			c-16.1,14.6-37.5,21.4-58.8,23.7c-21.6,2.4-43.8,1.3-65.4-1.1c-21.3-2.4-42.8-7.2-61.6-17.8c-18.9-10.7-39-30.6-34.9-54.4
			C370.7,510.7,363.7,508.7,363,513.3L363,513.3z"/>
	</g>
	<g>
		<path d="M466.6,538.3c11.9,7.8,28.2,4.3,36.5-7c-2.2-0.3-4.4-0.6-6.6-0.9c1.1,7.8-2.5,15.8-8.8,20.4c-3.7,2.7-0.1,8.9,3.6,6.2
			c9.2-6.7,13.7-17.2,12.1-28.5c-0.5-3.5-5-3-6.6-0.9c-6.1,8.2-18.3,9.9-26.7,4.4C466.3,529.5,462.7,535.8,466.6,538.3L466.6,538.3z
			"/>
	</g>
	<g>
		<path d="M403.6,409c3-3.6,7-5.5,11.8-5.3c4.6,0.2,4.6-7,0-7.2c-6.4-0.3-12.7,2.4-16.9,7.4C395.6,407.5,400.6,412.6,403.6,409
			L403.6,409z"/>
	</g>
	<g>
		<path d="M543.1,396c3-0.7,6-0.6,9,0.1c4.5,1.1,6.4-5.8,1.9-7c-4.3-1.1-8.6-1.1-12.9-0.1C536.7,390.1,538.6,397,543.1,396
			L543.1,396z"/>
	</g>
	<g>
		<path d="M410.4,584.5c-17.3,14-25.1,36.3-25.3,58.1c-0.2,25.6,8.4,51.1,18.8,74.2c5.8,12.9,12.7,25.2,20.5,37
			c0.7-1.8,1.4-3.5,2.1-5.3c-12.7,4.5-22.8,15.5-25.2,29c-1.1,6.1,0.2,12.6,6.9,14.5c2.9,0.8,6,0.6,8.9-0.2c4.2-1.1,8.3-4,12.8-3
			c-0.3-2.2-0.6-4.4-0.9-6.6c-9.4,4.5-6.6,18.3,2.1,21.6c12.4,4.7,21.8-6.8,26.8-16.4c-2.1,0-4.1,0-6.2,0c4.8,7.3,15,10.4,22.8,5.7
			c7.7-4.7,9.8-15.2,5.5-22.9c-2.3-4-8.5-0.4-6.2,3.6c2.4,4.2,1.4,10.3-2.9,13c-4.3,2.7-10.3,1-13-3.1c-1.4-2.1-4.9-2.5-6.2,0
			c-3,5.7-6.7,12.8-13.8,13.7c-2.8,0.4-6.1-0.3-7.2-3.3c-0.9-2.3-0.2-4.7,2-5.8c2.8-1.3,2-5.9-0.9-6.6c-6-1.4-10.5,1.2-16.1,2.8
			c-1.8,0.5-4.7,1.1-6.4,0c-2.2-1.5-1.1-5.3-0.6-7.5c2.5-10,10-18.3,19.7-21.7c2.1-0.7,3.5-3.2,2.1-5.3
			c-16.6-25-29.6-53.2-35.7-82.7c-5.7-27.4-2.6-59.1,20.5-77.8C419.1,586.7,414,581.7,410.4,584.5L410.4,584.5z"/>
	</g>
	<g>
		<path d="M472.9,755.1c2.2-4.5,8.9-4.4,10.1,0.8c1.2,5.5-4.8,8.7-9.3,6.2c-4.1-2.3-7.7,4-3.6,6.2c10,5.6,22.8-2.7,19.9-14.4
			c-2.7-11-18.2-12.8-23.3-2.6C464.6,755.6,470.9,759.3,472.9,755.1L472.9,755.1z"/>
	</g>
	<g>
		<path d="M467.9,747.8c-4.4-9.6-8.8-19.1-13.2-28.7c-2.2-4.8-4.4-9.5-6.6-14.3c-2.3-5.2-2.1-9.3-1.4-14.9
			c2.7-20.1,1.9-40.3-2.1-60.2c-0.9-4.5-7.9-2.6-7,1.9c2.1,10.6,3.3,21.3,3.5,32.1c0.1,10.4-1.2,20.5-2.2,30.8
			c-0.9,9.5,5.1,18.5,8.9,26.8c4.6,10,9.2,20.1,13.9,30.1C463.6,755.7,469.8,752,467.9,747.8L467.9,747.8z"/>
	</g>
	<g>
		<path d="M585.7,590.2c13,20.7,22.5,43.4,28,67.2c2.9,12.6,5.2,25.9,1.9,38.7c-3,11.5-9.2,22.1-15,32.4
			c-6.1,10.7-13,21.3-23.8,27.7c-4,2.3-0.4,8.6,3.6,6.2c9.9-5.8,17-14.7,22.9-24.4c6.5-10.5,12.9-21.7,17.2-33.3
			c4.8-13.1,4.5-26.5,2.1-40c-2.4-13-6-25.9-10.7-38.2c-5.3-13.9-12-27.3-19.9-40C589.5,582.7,583.2,586.3,585.7,590.2L585.7,590.2z
			"/>
	</g>
	<g>
		<path d="M558.3,638.4c1.2,18.2,4.4,36.2,9.7,53.7c0.6,1.9,2.5,3,4.4,2.5c5.9-1.5,11.8-1.5,17.7,0c4.5,1.1,6.4-5.8,1.9-7
			c-7.2-1.8-14.4-1.8-21.5,0c1.5,0.8,3,1.7,4.4,2.5c-5.1-16.9-8.2-34.2-9.4-51.8C565.2,633.8,558,633.7,558.3,638.4L558.3,638.4z"/>
	</g>
	<g>
		<path d="M571.1,687.6c-14.8,19.8-26,42.1-33,65.8c-1.3,4.5,5.6,6.4,7,1.9c6.8-23.2,17.9-44.8,32.3-64.1
			C580.1,687.5,573.8,683.9,571.1,687.6L571.1,687.6z"/>
	</g>
	<g>
		<path d="M540.9,755.9c-8.6,6-23.1,7.2-29-3.1c-0.9-1.5-3.4-2.5-4.9-1.3c-6.7,4.9-9.5,14.2-5,21.7c4.4,7.4,14.1,9.3,21.5,5.6
			c4.2-2.1,0.5-8.3-3.6-6.2c-9.5,4.7-17.9-8.5-9.2-14.9c-1.6-0.4-3.3-0.9-4.9-1.3c7.9,13.5,27.1,14,38.9,5.7
			C548.3,759.5,544.7,753.2,540.9,755.9L540.9,755.9z"/>
	</g>
	<g>
		<path d="M517.7,775.2c-10,2.7-20.8,13.7-18.4,25c1.1,5.3,5.9,8.2,11.1,7.9c6.3-0.4,10.4-5.4,13.9-10.1c2.8-3.7-3.5-7.3-6.2-3.6
			c-1.9,2.5-4.3,5.9-7.6,6.5c-4.4,0.7-4.6-3.3-3.6-6.5c1.8-6.1,6.7-10.5,12.8-12.2C524.1,781,522.2,774,517.7,775.2L517.7,775.2z"/>
	</g>
	<g>
		<path d="M522.4,790c-3.5,7.9-2.9,22.1,7.5,24.8c9.2,2.4,16.5-9.1,17.3-16.8c0.5-4.6-6.7-4.6-7.2,0c-0.3,3.1-4.2,10.7-8.3,9.8
			c-2.2-0.5-3.5-3.9-3.9-5.8c-0.6-2.8-0.3-5.8,0.9-8.4C530.5,789.4,524.3,785.8,522.4,790L522.4,790z"/>
	</g>
	<g>
		<path d="M393.3,724.8c3.5,7.8,5,16.2,4.7,24.7c-0.2,4.6,7,4.6,7.2,0c0.4-9.9-1.6-19.4-5.7-28.4
			C397.6,716.9,391.4,720.6,393.3,724.8L393.3,724.8z"/>
	</g>
	<g>
		<path d="M334.6,736.5c-11.5-5.3-27.6-5.2-31.5,9.5c-3.6,13.9,10.4,26.2,23.7,20.9c4.3-1.7,2.4-8.7-1.9-7
			c-8.5,3.4-17.9-3.8-14.6-13c3.2-8.9,13.7-7.5,20.6-4.3C335.1,744.7,338.8,738.5,334.6,736.5L334.6,736.5z"/>
	</g>
	<g>
		<path d="M320.1,762.1c-6.3,3.1-13.7,8.5-10.8,16.6c1,2.9,3.4,5.5,6.5,6.2c1.6,0.4,3.1,0.2,4.5-0.4c1-0.4,3.6-2.5,4-2.4
			c-0.5-2-1.1-4-1.6-6c-6.1,4.8-7.5,14.2-2.8,20.4c4.7,6.2,14.2,7.4,20.4,2.8c3.7-2.7,0.1-9-3.6-6.2c-3.3,2.5-8.4,2.6-11.1-1
			s-1.1-8.4,2.2-10.9c2.4-1.8,0.6-5.2-1.6-6c-1.7-0.7-3.3-0.5-5,0.3c-1.5,0.7-3.2,3.1-4.7,1.8c-3.9-3.4,5.2-7.9,7.2-8.9
			C327.9,766.3,324.2,760,320.1,762.1L320.1,762.1z"/>
	</g>
	<g>
		<path d="M361.7,743.6c4.7,8.6,14.2,10.8,23,13.2c4.6,1.3,9.6,2.7,13.2,6.1c4.5,4.2,6.1,10.1,5.3,16.1c-0.6,4.6,6.6,4.5,7.2,0
			c1.6-11.8-5.4-22.1-16.1-26.6c-8.4-3.5-21.5-3.6-26.4-12.5C365.8,735.9,359.5,739.5,361.7,743.6L361.7,743.6z"/>
	</g>
	<g>
		<path d="M351.8,801c18.7,3.1,41.5,5.3,53.6-12.6c2.6-3.8-3.6-7.5-6.2-3.6c-10,14.7-30.5,11.8-45.5,9.3
			C349.2,793.2,347.3,800.2,351.8,801L351.8,801z"/>
	</g>
	<g>
		<path d="M634.9,681c6.7-6.1,16.4-0.5,20.5,5.8c2.3,3.6,3.8,7.6,4.9,11.7c0.6,2.2,3.4,9,0.4,10.3c-4.2,1.8-0.6,8,3.6,6.2
			c5.3-2.3,5.3-8.8,4.2-13.7c-1.5-6.7-3.7-13.7-7.6-19.3c-6.9-9.9-21.3-15.1-31.2-6.2C626.3,679,631.5,684.1,634.9,681L634.9,681z"
			/>
	</g>
	<g>
		<path d="M640.2,763c5.7-6,10.1-13,13.1-20.7c1.4-3.6,2.1-7.4,3.2-11.1c0.5-1.9,1.2-4.2,2.8-5.4c0.8-0.6,3.2-1.6,4-0.5
			c2.8,3.6,9,0,6.2-3.6c-6.2-8-16.3-2.6-19.2,5.3c-2,5.3-2.7,11-5.1,16.2c-2.5,5.4-5.9,10.3-10,14.7
			C631.9,761.2,637,766.3,640.2,763L640.2,763z"/>
	</g>
	<g>
		<path d="M674.5,712.9c1.1-7.4,10.7-13.2,17.3-8.2c6.1,4.6,4.6,15.1-1.8,18.6c-2.6,1.4-2.2,6,0.9,6.6c5.4,1,11.9,1.9,16.8,4.5
			c5.6,2.9-0.7,8.9-3.6,11.5c-2.7,2.4,0.2,7.1,3.5,6c2.1-0.7,4.2-1.3,6.3-2c-1.4-0.5-2.7-1.1-4.1-1.7c2.1,4.2,3.9,9.4,2.3,14.1
			c-1.3,3.8-4.6,6.5-8.7,6.1c-4.6-0.4-4.6,6.8,0,7.2c6.5,0.5,12.3-3.6,14.9-9.4c3.2-7.1,1.1-15-2.2-21.7c-0.7-1.4-2.6-2.1-4.1-1.7
			c-2.1,0.7-4.2,1.3-6.3,2c1.2,2,2.3,4,3.5,6c4.9-4.3,10.8-11.8,6.9-18.6c-1.8-3.2-5.2-4.5-8.5-5.7c-4.8-1.7-9.8-2.9-14.8-3.8
			c0.3,2.2,0.6,4.4,0.9,6.6c10.8-5.9,12.5-23,2.5-30.5c-10.2-7.7-26.8-0.5-28.6,12C667,715.5,673.9,717.5,674.5,712.9L674.5,712.9z"
			/>
	</g>
	<g>
		<path d="M628.7,785.3c0,6.3,4,11.2,9.6,13.6c6.6,2.9,13.4,1.9,19.7-1.3c7.3-3.8,12.9-10.1,19.7-14.6c7.6-5,16.1-8.1,25.1-9.7
			c4.6-0.8,2.6-7.7-1.9-7c-14.2,2.5-26,9.1-36.9,18.2c-4.8,3.9-10.4,8.8-16.9,9c-4.9,0.1-11.1-2.6-11.1-8.2
			C635.9,780.7,628.7,780.7,628.7,785.3L628.7,785.3z"/>
	</g>
	<g>
		<path d="M612.5,734c-4.6,15.9,0.5,33.8,13.2,44.6c3.5,3,8.6-2.1,5.1-5.1c-10.8-9.2-15.3-24-11.3-37.6
			C620.8,731.5,613.8,729.6,612.5,734L612.5,734z"/>
	</g>
	<g>
		<path d="M581.3,786.1c16.3,1,32.6-6,43-18.7c2.9-3.6-2.2-8.7-5.1-5.1c-9.3,11.3-23.2,17.5-37.9,16.6
			C576.7,778.6,576.7,785.8,581.3,786.1L581.3,786.1z"/>
	</g>
	<g>
		<path d="M444.2,689.8c16.6-6.1,34.6-11.4,52.5-12.4c8.7-0.5,17.2,0.5,25.2,4.3c7.9,3.8,14.7,9.2,21.5,14.6
			c3.6,2.9,8.7-2.2,5.1-5.1c-7.1-5.6-14.2-11.4-22.3-15.4c-8.3-4.1-17.2-5.9-26.5-5.7c-19.4,0.4-39.2,6.2-57.3,12.8
			C438,684.5,439.9,691.4,444.2,689.8L444.2,689.8z"/>
	</g>
	<g>
		<path d="M473.6,715.5c2.4-4.7,6.8-8,12.1-8.5c4.6-0.4,4.6-7.6,0-7.2c-7.8,0.7-14.8,5-18.4,12C465.3,715.9,471.5,719.6,473.6,715.5
			L473.6,715.5z"/>
	</g>
	<g>
		<path d="M514.2,714.9c5.2-2.6,10.4-5.2,15.7-7.8c4.2-2.1,0.5-8.3-3.6-6.2c-5.2,2.6-10.4,5.2-15.6,7.8
			C506.4,710.8,510.1,717,514.2,714.9L514.2,714.9z"/>
	</g>
	<g>
		<path d="M475.8,726.2c16.9-5.5,34.5-7.5,52.3-6c4.6,0.4,4.6-6.8,0-7.2c-18.3-1.6-36.7,0.5-54.2,6.2
			C469.5,720.7,471.4,727.7,475.8,726.2L475.8,726.2z"/>
	</g>
	<g>
		<path d="M558.6,477.1c3.6-2.8,7.9-4.1,12.4-4.2c-1.2-0.9-2.3-1.8-3.5-2.6c2.2,5.3,2,11.8-2.3,16c-1.8,1.8-5.5,3.5-7,0.4
			c-1.2-2.5,0.6-5.3,2.1-7.3c1.2-1.6,3.3-4.8,5.2-2.2c1.3,1.7,0.8,3.9-1.3,4.6c-5.2,1.7-6.8-5-1.2-6c-1.4-0.5-2.7-1.1-4.1-1.7
			c2,2.8,2.3,6.2,0,9c1.7,0,3.4,0,5.1,0c-1-1.1-1.2-2.8,0.1-3.8c3.7-2.7,0.1-9-3.6-6.2c-5,3.7-6.1,10.4-1.6,15.1
			c1.3,1.3,3.9,1.5,5.1,0c4.3-5.2,5.1-12.1,1.2-17.8c-1-1.5-2.4-1.9-4.1-1.7c-8.8,1.5-12.7,13.6-4.5,18.6c7.3,4.5,18.2-0.5,16.7-9.8
			c-0.6-3.9-3.4-7.4-7.2-8.5c-5.4-1.6-8.7,2.1-11.6,6c-2.9,3.9-4.8,8.5-3.2,13.3c1.4,4.5,5.7,7.4,10.4,7.1
			c12.7-0.8,16.9-17.4,12.8-27.3c-0.6-1.5-1.8-2.7-3.5-2.6c-6.5,0.1-12.3,2.2-17.5,6.3C549.9,474.9,555,480,558.6,477.1L558.6,477.1
			z"/>
	</g>
	<path d="M437.6,482.4c-0.1-9.2-8.8-18-18.3-15.2c-6.2,1.8-10.4,7.8-10.9,14c-0.4,2.7,0.1,5.1,1.1,7.1c0.1,0.2,0.2,0.3,0.2,0.5
		c0,0,0,0.1,0.1,0.1c0.2,0.4,0.3,0.7,0.5,1.1c0.3,0.4,0.6,0.8,1.1,1.1c3.6,3.9,9.9,5.4,15.3,4.4c1.6-0.2,3.1-0.7,4.4-1.5
		C435,491.9,437.7,488.1,437.6,482.4z"/>
	<g>
		<path d="M476,498.5c-3.3,4.6-1.3,11.8,3.9,14.1c5.3,2.3,11.7-1,13.1-6.5c1.1-4.5-5.8-6.4-7-1.9c-0.3,1.3-2,2.6-3.4,1.8
			c-1.5-0.8-1.2-2.8-0.4-3.9c1.1-1.6,0.3-4-1.3-4.9C479.2,496.1,477.2,496.9,476,498.5L476,498.5z"/>
	</g>
	<g>
		<path d="M416,467.3c-3.8,1.3-7.5,1.8-11.5,1.5c-4.6-0.4-4.6,6.9,0,7.2c4.6,0.3,9.1-0.2,13.5-1.7
			C422.2,472.8,420.4,465.8,416,467.3L416,467.3z"/>
	</g>
	<g>
		<path d="M571.5,479.7c3,0.8,6.1,1.6,9.1,2.4c4.5,1.2,6.4-5.8,1.9-7c-3-0.8-6.1-1.6-9.1-2.4C568.9,471.6,567,478.5,571.5,479.7
			L571.5,479.7z"/>
	</g>
	<g>
		<path class="st7" d="M564.4,476.9c-0.6-1.2-2.2-1.1-3.1-0.3c-1,0.9-1,2.5,0.2,3.2c1.1,0.7,2.7,0.4,3.6-0.5
			c1.2-1.1,1.1-2.9,0.8-4.4c-0.1-0.6-0.7-0.8-1.2-0.9c-1.5-0.2-2.8,1-3.2,2.4c-0.4,1.6,0.3,3,1.8,3.6c0.6,0.2,1.3-0.2,1.5-0.8
			c0.2-0.7-0.2-1.2-0.8-1.5c-0.1,0-0.1-0.1-0.2-0.3c0,0.2,0-0.2,0-0.2c0-0.1,0-0.1,0.1-0.3c0.2-0.4,0.3-0.6,0.8-0.5
			c-0.4-0.3-0.8-0.6-1.2-0.9c0.1,0.5,0.2,1.1,0,1.6c-0.1,0.4-0.3,0.4-0.6,0.6c0,0-0.3,0-0.3,0c0.2-0.2,0.2,0.7,0.1,0.6
			s0.1,0,0.1-0.1c0,0.1-0.6-0.1-0.6-0.2C563,479.5,565.1,478.2,564.4,476.9L564.4,476.9z"/>
	</g>
	<path class="st7" d="M427.9,477c-0.8-0.8-1.9-1.2-3-1.3c-2.7-1.2-6.2,1.4-5.1,4.7c0.3,0.9,2,1.8,2,2.5
		C421.9,483.6,430.6,479.6,427.9,477z M424.7,478.9c-0.2,0-0.4,0-0.6,0c0-0.2,0-0.5,0-0.7c0.1,0,0.1,0,0.2,0
		C424.5,478.3,424.7,478.6,424.7,478.9z"/>
	<g>
		<path d="M490.8,328.3c-7.4,10.9-16.6,20.4-27.2,28.2c-3.7,2.7-0.1,9,3.6,6.2c11.6-8.6,21.6-18.9,29.8-30.8
			C499.6,328.1,493.4,324.5,490.8,328.3L490.8,328.3z"/>
	</g>
	<g>
		<path d="M515.3,340.9c-2.6,1.6-5.2,3.1-7.8,4.7c-4,2.4-0.4,8.6,3.6,6.2c2.6-1.6,5.2-3.1,7.8-4.7
			C522.9,344.8,519.3,338.5,515.3,340.9L515.3,340.9z"/>
	</g>
	<g>
		<path d="M537.9,815.4c12.8,4.2,20.3-8.6,24.2-18.5c1.7-4.3-5.3-6.2-7-1.9c-2.5,6.2-6.9,16.3-15.3,13.5
			C535.4,807,533.5,814,537.9,815.4L537.9,815.4z"/>
	</g>
	<g>
		<path d="M412.5,779.2c1.6-1,3.1-2.1,4.7-3.1s2.4-3.2,1.3-4.9c-1-1.6-3.2-2.4-4.9-1.3c-1.6,1-3.1,2.1-4.7,3.1s-2.4,3.2-1.3,4.9
			C408.6,779.5,410.8,780.3,412.5,779.2L412.5,779.2z"/>
	</g>
	<g>
		<path d="M476.3,788.3c7.3,0.9,14.6,1.7,22,2.6c4.6,0.5,4.6-6.7,0-7.2c-7.3-0.9-14.6-1.7-22-2.6
			C471.7,780.5,471.8,787.8,476.3,788.3L476.3,788.3z"/>
	</g>
	<g>
		<path d="M556.5,795.3c0.3,4.2,1,8.9,4.5,11.7c3.9,3,8.9,2,12.4-1.2c8.3-7.7,8.2-22.5,4.9-32.5c-1.4-4.4-8.4-2.5-7,1.9
			c2.1,6.5,2.4,13.2,0.3,19.7c-0.6,1.8-2.5,6.8-5.1,6.8c-2.7,0-2.8-4.5-2.9-6.3C563.3,790.7,556.1,790.7,556.5,795.3L556.5,795.3z"
			/>
	</g>
	<g>
		<path d="M543.3,766.2c3.5,0.3,7,0.7,10.4,1c1.9,0.2,3.6-1.8,3.6-3.6c0-2.1-1.7-3.4-3.6-3.6c-3.5-0.3-7-0.7-10.4-1
			c-1.9-0.2-3.6,1.8-3.6,3.6C539.7,764.7,541.4,766,543.3,766.2L543.3,766.2z"/>
	</g>
	<g>
		<path d="M342.4,740.6c-4.8-2.8-8-7.7-8.3-13.3c-0.4-6.1,3.1-11.1,9.5-11.2c5.7-0.1,10,4.3,12.1,9.2c2.8,6.7,1.5,14.1-0.6,20.7
			c-1.4,4.5,5.6,6.3,7,1.9c2.9-9.5,3.9-20.1-1.5-28.9c-4.2-6.9-11.9-11.3-20.1-9.9c-8.5,1.5-13.6,8.5-13.7,17
			c-0.1,8.5,4.7,16.3,11.9,20.6C342.8,749.2,346.4,743,342.4,740.6L342.4,740.6z"/>
	</g>
	<g>
		<path d="M333.6,706.4c2.9-23.9,29.7-36.9,50.5-25.3c4.1,2.3,7.7-4,3.6-6.2c-12.5-7-28.3-7.4-40.9-0.2
			c-11.6,6.6-18.9,18.6-20.5,31.7C325.8,711,333.1,710.9,333.6,706.4L333.6,706.4z"/>
	</g>
</g>
</svg>
