<svg xmlns="http://www.w3.org/2000/svg" width="1000" height="1000"><style>.st2{fill:#fbdfc5}.st3{fill:#ffc0a8}</style><g opacity=".7"><path d="M461.3 723.3c-7.4-6.1-15.5-13.7-14.8-23.2.5-6.4 5.2-12 10.9-15s12.3-4 18.7-4.5c13.2-1 26.6-.4 39.7 1.8 7.5 1.3 15.1 3.1 21.6 7.1s11.8 10.5 12.9 18c1.3 9.2-3.5 18-8.3 26-3.7 6.2-7.6 12.7-13.9 16.4-8.5 5-19.2 3.5-29 1.8-3.1 4-2 10 .4 14.5s5.9 8.6 7.3 13.5c2.3 8.3-2.5 17.9-10.4 21.2s-17.9.5-23.1-6.4c-5.2-6.9-5.4-17-.8-24.3" fill="#eef6f7"/><path class="st2" d="M417.2 298.6c47.1-32.9 122.9-28 167.6 8.2s54.2 100.7 31.7 153.6c5.7-5.9 16.9-1.4 19.5 6.4 2.6 7.8-1 16.3-5.9 22.9s-11.3 12-15.5 19c-8 13.4-7.1 30.3-13.5 44.5-7.1 15.7-22.5 26.5-39 31.6-16.5 5.1-34 5.3-51.3 4.9-30.6-.7-62.2-3.3-89.3-17.5-27.1-14.2-48.7-42.8-46.1-73.3-12.9 6.1-30.3-2.2-33.7-16-5.4-21.6 18.4-22.7 23.1-37.9 4.2-13.5-4.8-38-2.6-53.7 4.9-36.6 24.6-71.4 55-92.7z"/><path class="st2" d="M396.9 694.2c-10.7-19.5-39.8-25.6-57.5-12.1-17.6 13.5-19.3 43.3-3.2 58.6-5.3 1.6-10.5 3.2-15.8 4.8-3.8 5.3-.5 14.2 6 15.5-9.7 15.5 6.8 36.5 25 38.3s35-8.5 50.3-18.5c9.9 6 24 3.3 31.1-5.9 3.4 5.2 3.7 12.3.8 17.7 9.5-7.5 22.1-10.8 34-9 9.2-9.7 10.1-26.2 2-36.9-7.2-9.5-19.8-13.9-26.4-23.8-11.1-16.5.6-40.4 18.4-49.2s38.7-6.9 58.5-4.8c19 2 42.4 7.8 46.2 26.5 1.7 8.5-1.6 17.3-5.6 25-10.4 19.8-26 36.9-44.9 48.9-4.8 4.3-2.7 13.8 3.5 15.5-7.9.9-6.7 14.5.7 17.5s15.6-.8 22.9-4.1c7.3-3.3 16.3-6 22.8-1.4 1.1-10 2.1-20 3.2-30 1.5 9.5 12.9 14.6 22.3 12.8s17.1-8.4 24.2-14.8c10.2 17.4 31.7 27.3 51.5 23.9s36.7-20.2 40.3-40c-3.7-7.8-7.3-15.7-11-23.5-3.5-7.5-7.8-15.7-15.5-18.6s-18.7 4.4-15.5 12.1c2.2-22.2-22.7-42.3-43.9-35.4-11.5-40.1-25.6-83.7-60.8-105.9-36.3-22.9-94-17-129.9 5.1-27.6 17.2-50.4 81.2-33.7 111.7z"/><path class="st3" d="M642.4 678.6c6.5-.4 11.8 7.6 8.9 13.4s-12.5 6.4-16.1 1c-3.5-5.5.7-14 7.2-14.4m-286.5 84.5c-5.8-.6-9.9 6.9-7.7 12.3s8.3 8.2 14.1 8.7c6.8.6 15.1-3 15.5-9.8.2-4.3-3.1-8.2-7-10s-8.4-2-12.7-2.2"/><path d="M468.8 539.2c1.8 6.6 8.5 11.5 15.4 11.3 6.9-.2 13.2-5.6 14.6-12.3" fill="#f28383"/><path d="M480.4 240.6c9.1 5.8-6 24 3.2 29.5 5.5 3.3 11.8-3.9 12.7-10.2 2.1-14.7-9.2-30-23.8-32.5" fill="#d47e3f"/><path d="M398 506.6c-3.9 1.3-4.1 7.2-1.3 10.1 2.8 2.9 7.1 3.6 11.2 4.2 4.8.7 10.7.9 13.5-3.1 3.1-4.6-1-11.3-6.4-12.8s-11 .5-16.2 2.5m161.9 5.8c-5.8-1-10.5 6.3-8.5 11.8 2 5.5 8.6 8.3 14.4 7.8 8.1-.7 15.8-7.8 15.2-16-.7-8.1-11.7-13.9-17.8-8.5" fill="#ffc2c2"/><path class="st3" d="M655.7 763.4c.8-9.5 6.3-18.5 14.4-23.5 3.5-2.1 7.9-3.6 11.7-2.1 7.5 2.9 6.7 15 .3 19.9s-15.2 4.7-23.2 4.3"/></g><path d="M476.6 278.9c9.4-11.5 16.1-28.2 6.4-41.7-7.6-10.5-24.8-11.9-31.8.2-2.3 4 3.9 7.7 6.2 3.6 5.1-8.9 17.2-5.1 21.1 2.7 5.2 10.4-.3 21.9-7 30.1-2.9 3.5 2.2 8.7 5.1 5.1z"/><path d="M509.1 273.6c-.3-13.4-.7-28.2-8.9-39.5-6.8-9.3-18.4-15.4-30-12.1-4.5 1.3-2.6 8.2 1.9 6.9 9.6-2.8 19 3.6 23.8 11.7 5.7 9.8 5.8 21.9 6 32.9.1 4.8 7.3 4.8 7.2.1zm-39.4-2.6c-30.9 6.9-59.5 23.4-81 46.7-22.6 24.5-36.4 56-39.8 89.1-2 19.5-.3 39.4 5.1 58.2 2-1.2 4-2.3 6-3.5-6.2-6.5-16.8-5.7-23.2 0-7.8 6.9-8 19-4.9 28.1 3.1 9.4 9.8 18.3 19.6 21.3 8.8 2.7 18.4-.2 23.8-7.7 2.7-3.8-3.5-7.4-6.2-3.6-3.6 5-10.6 6.1-16.1 4.2-6.6-2.3-11.2-8.6-13.6-15-2.3-6.1-3.3-14 .4-19.8 3.2-4.9 10.9-7.1 15.3-2.5 2.5 2.6 7-.1 6-3.5-9-31.9-7.1-66.3 5.3-97 11.6-28.6 32.6-53 58.8-69.2 14.4-8.9 30-15.3 46.5-19 4.5-.8 2.6-7.8-2-6.8zm63 5.2c27.7-1 54.9 10.8 73.5 31.3 20.8 23 26.3 54.4 25.5 84.4-.5 17.7-2.8 35.3-5.4 52.9-.7 4.5 6.3 6.5 7 1.9 4.8-32.6 9.5-66.6 1.5-99-7.3-29.5-26.4-54.5-53.8-68.1-15-7.4-31.6-11.2-48.3-10.6-4.6.1-4.7 7.4 0 7.2zM627.8 467c2.6-4.1 8.4-3.6 11.7-.8 3.9 3.2 5.5 8.8 5.6 13.7.1 4.7-1.1 10.2-5.1 13.2-3.6 2.7-8.8 2.8-11.9-.6-3.1-3.4-8.2 1.7-5.1 5.1 5 5.5 13.5 6 19.8 2.3 7.2-4.2 10-13.2 9.4-21.2-.6-7.9-4-16.6-11.5-20.3-6.7-3.3-15.2-1.5-19.2 4.9-2.4 4 3.8 7.6 6.3 3.7z"/><path d="M363 513.3c-3.8 21.9 9.4 41.9 26.2 54.7 18.4 14 41.1 21.2 63.6 24.8 23.8 3.8 48.6 5.3 72.6 3.5 23.2-1.7 46.6-7.6 65.2-22.2 18.1-14.2 31.1-35.9 29.6-59.4-.3-4.6-7.5-4.6-7.2 0 1.2 19.4-8.3 37.3-22.5 50.1-16.1 14.6-37.5 21.4-58.8 23.7-21.6 2.4-43.8 1.3-65.4-1.1-21.3-2.4-42.8-7.2-61.6-17.8-18.9-10.7-39-30.6-34.9-54.4.9-4.5-6.1-6.5-6.8-1.9z"/><path d="M466.6 538.3c11.9 7.8 28.2 4.3 36.5-7l-6.6-.9c1.1 7.8-2.5 15.8-8.8 20.4-3.7 2.7-.1 8.9 3.6 6.2 9.2-6.7 13.7-17.2 12.1-28.5-.5-3.5-5-3-6.6-.9-6.1 8.2-18.3 9.9-26.7 4.4-3.8-2.5-7.4 3.8-3.5 6.3zm-63-129.3c3-3.6 7-5.5 11.8-5.3 4.6.2 4.6-7 0-7.2-6.4-.3-12.7 2.4-16.9 7.4-2.9 3.6 2.1 8.7 5.1 5.1zm139.5-13c3-.7 6-.6 9 .1 4.5 1.1 6.4-5.8 1.9-7-4.3-1.1-8.6-1.1-12.9-.1-4.4 1.1-2.5 8 2 7zM410.4 584.5c-17.3 14-25.1 36.3-25.3 58.1-.2 25.6 8.4 51.1 18.8 74.2 5.8 12.9 12.7 25.2 20.5 37 .7-1.8 1.4-3.5 2.1-5.3-12.7 4.5-22.8 15.5-25.2 29-1.1 6.1.2 12.6 6.9 14.5 2.9.8 6 .6 8.9-.2 4.2-1.1 8.3-4 12.8-3l-.9-6.6c-9.4 4.5-6.6 18.3 2.1 21.6 12.4 4.7 21.8-6.8 26.8-16.4h-6.2c4.8 7.3 15 10.4 22.8 5.7 7.7-4.7 9.8-15.2 5.5-22.9-2.3-4-8.5-.4-6.2 3.6 2.4 4.2 1.4 10.3-2.9 13-4.3 2.7-10.3 1-13-3.1-1.4-2.1-4.9-2.5-6.2 0-3 5.7-6.7 12.8-13.8 13.7-2.8.4-6.1-.3-7.2-3.3-.9-2.3-.2-4.7 2-5.8 2.8-1.3 2-5.9-.9-6.6-6-1.4-10.5 1.2-16.1 2.8-1.8.5-4.7 1.1-6.4 0-2.2-1.5-1.1-5.3-.6-7.5 2.5-10 10-18.3 19.7-21.7 2.1-.7 3.5-3.2 2.1-5.3-16.6-25-29.6-53.2-35.7-82.7-5.7-27.4-2.6-59.1 20.5-77.8 3.8-2.8-1.3-7.8-4.9-5z"/><path d="M472.9 755.1c2.2-4.5 8.9-4.4 10.1.8 1.2 5.5-4.8 8.7-9.3 6.2-4.1-2.3-7.7 4-3.6 6.2 10 5.6 22.8-2.7 19.9-14.4-2.7-11-18.2-12.8-23.3-2.6-2.1 4.3 4.2 8 6.2 3.8z"/><path d="M467.9 747.8c-4.4-9.6-8.8-19.1-13.2-28.7-2.2-4.8-4.4-9.5-6.6-14.3-2.3-5.2-2.1-9.3-1.4-14.9 2.7-20.1 1.9-40.3-2.1-60.2-.9-4.5-7.9-2.6-7 1.9 2.1 10.6 3.3 21.3 3.5 32.1.1 10.4-1.2 20.5-2.2 30.8-.9 9.5 5.1 18.5 8.9 26.8 4.6 10 9.2 20.1 13.9 30.1 1.9 4.3 8.1.6 6.2-3.6zm117.8-157.6c13 20.7 22.5 43.4 28 67.2 2.9 12.6 5.2 25.9 1.9 38.7-3 11.5-9.2 22.1-15 32.4-6.1 10.7-13 21.3-23.8 27.7-4 2.3-.4 8.6 3.6 6.2 9.9-5.8 17-14.7 22.9-24.4 6.5-10.5 12.9-21.7 17.2-33.3 4.8-13.1 4.5-26.5 2.1-40-2.4-13-6-25.9-10.7-38.2-5.3-13.9-12-27.3-19.9-40-2.5-3.8-8.8-.2-6.3 3.7z"/><path d="M558.3 638.4c1.2 18.2 4.4 36.2 9.7 53.7.6 1.9 2.5 3 4.4 2.5 5.9-1.5 11.8-1.5 17.7 0 4.5 1.1 6.4-5.8 1.9-7-7.2-1.8-14.4-1.8-21.5 0 1.5.8 3 1.7 4.4 2.5-5.1-16.9-8.2-34.2-9.4-51.8-.3-4.5-7.5-4.6-7.2.1z"/><path d="M571.1 687.6c-14.8 19.8-26 42.1-33 65.8-1.3 4.5 5.6 6.4 7 1.9 6.8-23.2 17.9-44.8 32.3-64.1 2.7-3.7-3.6-7.3-6.3-3.6z"/><path d="M540.9 755.9c-8.6 6-23.1 7.2-29-3.1-.9-1.5-3.4-2.5-4.9-1.3-6.7 4.9-9.5 14.2-5 21.7 4.4 7.4 14.1 9.3 21.5 5.6 4.2-2.1.5-8.3-3.6-6.2-9.5 4.7-17.9-8.5-9.2-14.9-1.6-.4-3.3-.9-4.9-1.3 7.9 13.5 27.1 14 38.9 5.7 3.6-2.6 0-8.9-3.8-6.2z"/><path d="M517.7 775.2c-10 2.7-20.8 13.7-18.4 25 1.1 5.3 5.9 8.2 11.1 7.9 6.3-.4 10.4-5.4 13.9-10.1 2.8-3.7-3.5-7.3-6.2-3.6-1.9 2.5-4.3 5.9-7.6 6.5-4.4.7-4.6-3.3-3.6-6.5 1.8-6.1 6.7-10.5 12.8-12.2 4.4-1.2 2.5-8.2-2-7z"/><path d="M522.4 790c-3.5 7.9-2.9 22.1 7.5 24.8 9.2 2.4 16.5-9.1 17.3-16.8.5-4.6-6.7-4.6-7.2 0-.3 3.1-4.2 10.7-8.3 9.8-2.2-.5-3.5-3.9-3.9-5.8-.6-2.8-.3-5.8.9-8.4 1.8-4.2-4.4-7.8-6.3-3.6zm-129.1-65.2c3.5 7.8 5 16.2 4.7 24.7-.2 4.6 7 4.6 7.2 0 .4-9.9-1.6-19.4-5.7-28.4-1.9-4.2-8.1-.5-6.2 3.7zm-58.7 11.7c-11.5-5.3-27.6-5.2-31.5 9.5-3.6 13.9 10.4 26.2 23.7 20.9 4.3-1.7 2.4-8.7-1.9-7-8.5 3.4-17.9-3.8-14.6-13 3.2-8.9 13.7-7.5 20.6-4.3 4.2 2.1 7.9-4.1 3.7-6.1z"/><path d="M320.1 762.1c-6.3 3.1-13.7 8.5-10.8 16.6 1 2.9 3.4 5.5 6.5 6.2 1.6.4 3.1.2 4.5-.4 1-.4 3.6-2.5 4-2.4-.5-2-1.1-4-1.6-6-6.1 4.8-7.5 14.2-2.8 20.4 4.7 6.2 14.2 7.4 20.4 2.8 3.7-2.7.1-9-3.6-6.2-3.3 2.5-8.4 2.6-11.1-1s-1.1-8.4 2.2-10.9c2.4-1.8.6-5.2-1.6-6-1.7-.7-3.3-.5-5 .3-1.5.7-3.2 3.1-4.7 1.8-3.9-3.4 5.2-7.9 7.2-8.9 4.2-2.1.5-8.4-3.6-6.3zm41.6-18.5c4.7 8.6 14.2 10.8 23 13.2 4.6 1.3 9.6 2.7 13.2 6.1 4.5 4.2 6.1 10.1 5.3 16.1-.6 4.6 6.6 4.5 7.2 0 1.6-11.8-5.4-22.1-16.1-26.6-8.4-3.5-21.5-3.6-26.4-12.5-2.1-4-8.4-.4-6.2 3.7zm-9.9 57.4c18.7 3.1 41.5 5.3 53.6-12.6 2.6-3.8-3.6-7.5-6.2-3.6-10 14.7-30.5 11.8-45.5 9.3-4.5-.9-6.4 6.1-1.9 6.9zm283.1-120c6.7-6.1 16.4-.5 20.5 5.8 2.3 3.6 3.8 7.6 4.9 11.7.6 2.2 3.4 9 .4 10.3-4.2 1.8-.6 8 3.6 6.2 5.3-2.3 5.3-8.8 4.2-13.7-1.5-6.7-3.7-13.7-7.6-19.3-6.9-9.9-21.3-15.1-31.2-6.2-3.4 3.2 1.8 8.3 5.2 5.2zm5.3 82c5.7-6 10.1-13 13.1-20.7 1.4-3.6 2.1-7.4 3.2-11.1.5-1.9 1.2-4.2 2.8-5.4.8-.6 3.2-1.6 4-.5 2.8 3.6 9 0 6.2-3.6-6.2-8-16.3-2.6-19.2 5.3-2 5.3-2.7 11-5.1 16.2-2.5 5.4-5.9 10.3-10 14.7-3.3 3.3 1.8 8.4 5 5.1z"/><path d="M674.5 712.9c1.1-7.4 10.7-13.2 17.3-8.2 6.1 4.6 4.6 15.1-1.8 18.6-2.6 1.4-2.2 6 .9 6.6 5.4 1 11.9 1.9 16.8 4.5 5.6 2.9-.7 8.9-3.6 11.5-2.7 2.4.2 7.1 3.5 6 2.1-.7 4.2-1.3 6.3-2-1.4-.5-2.7-1.1-4.1-1.7 2.1 4.2 3.9 9.4 2.3 14.1-1.3 3.8-4.6 6.5-8.7 6.1-4.6-.4-4.6 6.8 0 7.2 6.5.5 12.3-3.6 14.9-9.4 3.2-7.1 1.1-15-2.2-21.7-.7-1.4-2.6-2.1-4.1-1.7-2.1.7-4.2 1.3-6.3 2 1.2 2 2.3 4 3.5 6 4.9-4.3 10.8-11.8 6.9-18.6-1.8-3.2-5.2-4.5-8.5-5.7-4.8-1.7-9.8-2.9-14.8-3.8l.9 6.6c10.8-5.9 12.5-23 2.5-30.5-10.2-7.7-26.8-.5-28.6 12-.6 4.7 6.3 6.7 6.9 2.1z"/><path d="M628.7 785.3c0 6.3 4 11.2 9.6 13.6 6.6 2.9 13.4 1.9 19.7-1.3 7.3-3.8 12.9-10.1 19.7-14.6 7.6-5 16.1-8.1 25.1-9.7 4.6-.8 2.6-7.7-1.9-7-14.2 2.5-26 9.1-36.9 18.2-4.8 3.9-10.4 8.8-16.9 9-4.9.1-11.1-2.6-11.1-8.2-.1-4.6-7.3-4.6-7.3 0zM612.5 734c-4.6 15.9.5 33.8 13.2 44.6 3.5 3 8.6-2.1 5.1-5.1-10.8-9.2-15.3-24-11.3-37.6 1.3-4.4-5.7-6.3-7-1.9z"/><path d="M581.3 786.1c16.3 1 32.6-6 43-18.7 2.9-3.6-2.2-8.7-5.1-5.1-9.3 11.3-23.2 17.5-37.9 16.6-4.6-.3-4.6 6.9 0 7.2zm-137.1-96.3c16.6-6.1 34.6-11.4 52.5-12.4 8.7-.5 17.2.5 25.2 4.3 7.9 3.8 14.7 9.2 21.5 14.6 3.6 2.9 8.7-2.2 5.1-5.1-7.1-5.6-14.2-11.4-22.3-15.4-8.3-4.1-17.2-5.9-26.5-5.7-19.4.4-39.2 6.2-57.3 12.8-4.4 1.6-2.5 8.5 1.8 6.9zm29.4 25.7c2.4-4.7 6.8-8 12.1-8.5 4.6-.4 4.6-7.6 0-7.2-7.8.7-14.8 5-18.4 12-2 4.1 4.2 7.8 6.3 3.7zm40.6-.6c5.2-2.6 10.4-5.2 15.7-7.8 4.2-2.1.5-8.3-3.6-6.2l-15.6 7.8c-4.3 2.1-.6 8.3 3.5 6.2z"/><path d="M475.8 726.2c16.9-5.5 34.5-7.5 52.3-6 4.6.4 4.6-6.8 0-7.2-18.3-1.6-36.7.5-54.2 6.2-4.4 1.5-2.5 8.5 1.9 7zm82.8-249.1c3.6-2.8 7.9-4.1 12.4-4.2-1.2-.9-2.3-1.8-3.5-2.6 2.2 5.3 2 11.8-2.3 16-1.8 1.8-5.5 3.5-7 .4-1.2-2.5.6-5.3 2.1-7.3 1.2-1.6 3.3-4.8 5.2-2.2 1.3 1.7.8 3.9-1.3 4.6-5.2 1.7-6.8-5-1.2-6-1.4-.5-2.7-1.1-4.1-1.7 2 2.8 2.3 6.2 0 9h5.1c-1-1.1-1.2-2.8.1-3.8 3.7-2.7.1-9-3.6-6.2-5 3.7-6.1 10.4-1.6 15.1 1.3 1.3 3.9 1.5 5.1 0 4.3-5.2 5.1-12.1 1.2-17.8-1-1.5-2.4-1.9-4.1-1.7-8.8 1.5-12.7 13.6-4.5 18.6 7.3 4.5 18.2-.5 16.7-9.8-.6-3.9-3.4-7.4-7.2-8.5-5.4-1.6-8.7 2.1-11.6 6-2.9 3.9-4.8 8.5-3.2 13.3 1.4 4.5 5.7 7.4 10.4 7.1 12.7-.8 16.9-17.4 12.8-27.3-.6-1.5-1.8-2.7-3.5-2.6-6.5.1-12.3 2.2-17.5 6.3-3.6 3.1 1.5 8.2 5.1 5.3zm-121 5.3c-.1-9.2-8.8-18-18.3-15.2-6.2 1.8-10.4 7.8-10.9 14-.4 2.7.1 5.1 1.1 7.1.1.2.2.3.2.5 0 0 0 .1.1.1.2.4.3.7.5 1.1.3.4.6.8 1.1 1.1 3.6 3.9 9.9 5.4 15.3 4.4 1.6-.2 3.1-.7 4.4-1.5 3.9-2.1 6.6-5.9 6.5-11.6zm38.4 16.1c-3.3 4.6-1.3 11.8 3.9 14.1 5.3 2.3 11.7-1 13.1-6.5 1.1-4.5-5.8-6.4-7-1.9-.3 1.3-2 2.6-3.4 1.8-1.5-.8-1.2-2.8-.4-3.9 1.1-1.6.3-4-1.3-4.9-1.7-1.1-3.7-.3-4.9 1.3z"/><path d="M416 467.3c-3.8 1.3-7.5 1.8-11.5 1.5-4.6-.4-4.6 6.9 0 7.2 4.6.3 9.1-.2 13.5-1.7 4.2-1.5 2.4-8.5-2-7zm155.5 12.4c3 .8 6.1 1.6 9.1 2.4 4.5 1.2 6.4-5.8 1.9-7-3-.8-6.1-1.6-9.1-2.4-4.5-1.1-6.4 5.8-1.9 7z"/><path d="M564.4 476.9c-.6-1.2-2.2-1.1-3.1-.3-1 .9-1 2.5.2 3.2 1.1.7 2.7.4 3.6-.5 1.2-1.1 1.1-2.9.8-4.4-.1-.6-.7-.8-1.2-.9-1.5-.2-2.8 1-3.2 2.4-.4 1.6.3 3 1.8 3.6.6.2 1.3-.2 1.5-.8.2-.7-.2-1.2-.8-1.5-.1 0-.1-.1-.2-.3v-.2c0-.1 0-.1.1-.3.2-.4.3-.6.8-.5l-1.2-.9c.1.5.2 1.1 0 1.6-.1.4-.3.4-.6.6h-.3c.2-.2.2.7.1.6s.1 0 .1-.1c0 .1-.6-.1-.6-.2.8 1.5 2.9.2 2.2-1.1zm-136.5.1c-.8-.8-1.9-1.2-3-1.3-2.7-1.2-6.2 1.4-5.1 4.7.3.9 2 1.8 2 2.5.1.7 8.8-3.3 6.1-5.9zm-3.2 1.9h-.6v-.7h.2c.2.1.4.4.4.7z" fill="#fff"/><path d="M490.8 328.3c-7.4 10.9-16.6 20.4-27.2 28.2-3.7 2.7-.1 9 3.6 6.2 11.6-8.6 21.6-18.9 29.8-30.8 2.6-3.8-3.6-7.4-6.2-3.6zm24.5 12.6c-2.6 1.6-5.2 3.1-7.8 4.7-4 2.4-.4 8.6 3.6 6.2 2.6-1.6 5.2-3.1 7.8-4.7 4-2.3.4-8.6-3.6-6.2zm22.6 474.5c12.8 4.2 20.3-8.6 24.2-18.5 1.7-4.3-5.3-6.2-7-1.9-2.5 6.2-6.9 16.3-15.3 13.5-4.4-1.5-6.3 5.5-1.9 6.9zm-125.4-36.2c1.6-1 3.1-2.1 4.7-3.1s2.4-3.2 1.3-4.9c-1-1.6-3.2-2.4-4.9-1.3-1.6 1-3.1 2.1-4.7 3.1s-2.4 3.2-1.3 4.9c1 1.6 3.2 2.4 4.9 1.3zm63.8 9.1c7.3.9 14.6 1.7 22 2.6 4.6.5 4.6-6.7 0-7.2-7.3-.9-14.6-1.7-22-2.6-4.6-.6-4.5 6.7 0 7.2z"/><path d="M556.5 795.3c.3 4.2 1 8.9 4.5 11.7 3.9 3 8.9 2 12.4-1.2 8.3-7.7 8.2-22.5 4.9-32.5-1.4-4.4-8.4-2.5-7 1.9 2.1 6.5 2.4 13.2.3 19.7-.6 1.8-2.5 6.8-5.1 6.8-2.7 0-2.8-4.5-2.9-6.3-.3-4.7-7.5-4.7-7.1-.1zm-13.2-29.1c3.5.3 7 .7 10.4 1 1.9.2 3.6-1.8 3.6-3.6 0-2.1-1.7-3.4-3.6-3.6-3.5-.3-7-.7-10.4-1-1.9-.2-3.6 1.8-3.6 3.6 0 2.1 1.7 3.4 3.6 3.6zm-200.9-25.6c-4.8-2.8-8-7.7-8.3-13.3-.4-6.1 3.1-11.1 9.5-11.2 5.7-.1 10 4.3 12.1 9.2 2.8 6.7 1.5 14.1-.6 20.7-1.4 4.5 5.6 6.3 7 1.9 2.9-9.5 3.9-20.1-1.5-28.9-4.2-6.9-11.9-11.3-20.1-9.9-8.5 1.5-13.6 8.5-13.7 17-.1 8.5 4.7 16.3 11.9 20.6 4.1 2.5 7.7-3.7 3.7-6.1zm-8.8-34.2c2.9-23.9 29.7-36.9 50.5-25.3 4.1 2.3 7.7-4 3.6-6.2-12.5-7-28.3-7.4-40.9-.2-11.6 6.6-18.9 18.6-20.5 31.7-.5 4.6 6.8 4.5 7.3 0z"/></svg>