<svg xmlns="http://www.w3.org/2000/svg" width="1000" height="1000"><style>.st1{opacity:.7}.st2{fill:#870085}</style><path d="M455.4 517.7c19.3 21.1 46.6 37.9 75.5 35.7 40.2-3.1 68.2-40.6 82.4-77.4 12.4-32.1 18.8-67 13.3-100.8-10.2-62.5-70.4-116.9-138.8-99.9-56.5 14-78.1 95.9-74.2 144.3 2.9 35.9 17.1 71.2 41.8 98.1zm73.3 61.3c-6.4 10-12.7 19.9-19.1 29.9 9.9-1 19.8-2.1 29.6-3.1l-18-31.8" opacity=".7" fill="#ff00fb"/><g class="st1"><path class="st2" d="M522 569.6c-8.5-4.3-17.7-6-27.1-4.8-8.1 1.1-19.8 4.5-23.6 12.5-4.1 8.6 3.9 15.5 11.4 18 9.9 3.3 20.8 3.3 31 1.3 7.6-1.5 4.4-13.1-3.2-11.6-5.8 1.2-11.9 1.4-17.8.4-2.6-.4-5.5-1-7.9-2.1 0 0-2.7-1.3-2.6-1.7-.1.4 2-.8 2.2-1 9.5-5.6 21.7-5.7 31.5-.8 7 3.7 13-6.7 6.1-10.2z"/></g><g class="st1"><path class="st2" d="M519.7 575.9c-19.5 22.8-46.5 37.4-76.2 41.6-7.6 1.1-4.4 12.6 3.2 11.6 31.5-4.4 60.8-20.6 81.5-44.7 5-5.9-3.5-14.4-8.5-8.5z"/></g><g class="st1"><path class="st2" d="M519.6 617.2c-.6 10.8-6.3 20.5-10.3 30.3-3.5 8.7-5.6 18.5-3.7 27.8 4.1 20.2 24.9 23.8 42.2 24.8 7.7.5 16.8 1.2 23.1 6.1 7.2 5.7 5.9 15.2 1.4 22.2-5.2 8.1-14.5 12.5-22.9 16.6-8.7 4.3-17.5 8.5-24.7 15.1-7.1 6.6-12.1 15.7-11.5 25.6.5 9 5 18 13.6 21.6 7 3 13.1-7.3 6.1-10.4-6.7-2.9-8.9-10.4-7.1-17.2 2.2-8.2 9.9-13.9 16.9-17.9 15.7-9.1 35-14.5 42.7-32.7 7.3-17.1-2-33-19.1-38.2-8.2-2.5-16.7-2.5-25.2-3.2-7.5-.7-16.7-2.2-21.4-8.9-5.9-8.4-2.2-20.4 1.4-28.9 4.5-10.8 9.7-20.8 10.4-32.7.5-7.7-11.5-7.7-11.9 0z"/></g><path d="M503 261.7c-33.6-1-61 25.4-78.1 51.8-18.2 28.1-27.3 62.1-25.3 95.6 2.1 36 15.6 71.6 34.1 102.3 17.2 28.5 42.6 54 76.2 61.4 33.3 7.3 70.7-7.7 82.5-41.4 1.9-5.5-6.8-7.8-8.7-2.4-9.5 27.2-40.3 40.3-67.4 35.9-31.3-5.2-55.6-27.8-72.1-53.7-17.5-27.5-30.8-59.7-34.7-92.2-3.7-30.8 1.9-62.2 16.5-89.6 14.9-28.1 42.3-59.8 77-58.7 5.8.2 5.8-8.8 0-9z"/><path d="M535.3 298.4c-.7 15.2-1 30.7 3.2 45.3 4.2 14.6 13.5 28.5 27.4 34.7 4.6 2 9.7 3.2 14.7 2.3 11.2-2 18.1-13.6 20.1-24.8 5-27.5-13.7-57.1-40.6-64.5-8.3-2.3-21.2 2.7-17.5 10.4" opacity=".7" fill="#ffa1fe"/><path d="M481.9 275c26.8-11.1 57.5-9.5 83.7 2.7 26 12.1 45.9 33.9 58.2 59.6 26.8 55.7 14.7 125.2-18.2 175.8-16.6 25.5-40.6 47.2-71.2 53.2-5.7 1.1-3.3 9.8 2.4 8.7 61.4-12.1 97-79.4 107.3-135.8 5.9-32.3 4.2-66.1-8.3-96.8-11.3-28-30.8-53-57.3-68.1-29.7-17-67.1-21.2-99-7.9-5.3 2.1-2.9 10.9 2.4 8.6z"/><path d="M547.4 296.2c1.2-1 8.4 4.7 9.4 5.5 3 2.1 5.8 4.5 8.5 7 5.5 5.1 10.5 10.7 14.8 16.9 8.6 12.5 14.3 26.7 16.7 41.7.9 5.7 9.6 3.3 8.7-2.4-3-18.4-10.8-35.7-22.4-50.2-5.6-7.1-12.1-13.4-19.3-18.8-6.3-4.8-15.2-12.1-22.8-5.9-4.5 3.5 2 9.8 6.4 6.2zm54.9 112.9c1.7 18.1.4 36.1-4.2 53.7-1.5 5.6 7.2 8 8.7 2.4 4.8-18.3 6.3-37.3 4.5-56.1-.5-5.7-9.5-5.7-9 0zm-84.6 168.1c-5.9 13.9-13.5 27-22.5 39.1-2.5 3.4 1.6 7.4 5.1 6.6 9-2.1 17.9-4.3 27-6.2 4.6-1 12.1-2.4 14.5 2.9 2.3 5.3 10.1.7 7.8-4.5-3.2-7.2-11.5-8.7-18.6-8-11 1.1-22.1 4.7-32.9 7.2l5.1 6.6c9.6-12.8 17.3-26.5 23.4-41.2 2-5.5-6.7-7.8-8.9-2.5z"/><path d="M523.7 572.3c5.3 14.3 11.8 28.2 19.7 41.3 3 5 10.8.5 7.8-4.5-7.4-12.5-13.7-25.5-18.8-39.2-2-5.3-10.7-3-8.7 2.4z"/></svg>