<?xml version="1.0" encoding="utf-8"?>
<!-- Generator: Adobe Illustrator 23.0.2, SVG Export Plug-In . SVG Version: 6.00 Build 0)  -->
<svg version="1.1" id="Layer_1" xmlns="http://www.w3.org/2000/svg" xmlns:xlink="http://www.w3.org/1999/xlink" x="0px" y="0px"
	 viewBox="0 0 1000 1000" style="enable-background:new 0 0 1000 1000;" xml:space="preserve">
<style type="text/css">
	.st0{opacity:0.7;fill:#FF8417;}
	.st1{opacity:0.7;fill:#FFD800;}
	.st2{opacity:0.7;fill:#88F540;}
	.st3{opacity:0.7;fill:#0085D1;}
	.st4{opacity:0.7;fill:#E31217;}
	.st5{opacity:0.7;fill:#AD5FDE;}
	.st6{opacity:0.7;fill:#EBE4F0;}
	.st7{opacity:0.7;fill:#FF575B;}
	.st8{opacity:0.7;fill:#FFC354;}
	.st9{opacity:0.7;fill:#FFF8D4;}
	.st10{opacity:0.7;fill:#D9F5C6;}
	.st11{opacity:0.7;fill:#5FB9ED;}
	.st12{opacity:0.7;fill:#DEA8FF;}
</style>
<g>
	<path class="st0" d="M473.5,699.4c5.9,7.3,16.7,7.5,26.1,6.9c34.7-2.1,69.3-5.7,103.6-10.8c7.5-1.1,15.5-2.5,21.2-7.5
		c5.6-4.8,8.2-12.3,10.3-19.4c25.1-88.5,5.3-165.6-44.2-229.5c7.8,10.1-43.3,27.4-46.9,32.1c-11.4,15.1-8,50.5-11.4,68.6
		C521.5,595.8,501.6,650,473.5,699.4z"/>
	<path class="st1" d="M652.5,555.6c5.8,42.2,0.4,85.4-10.8,126.5c52.5-43.2,82.1-113.5,74.4-181c-6.8-60-60.6-109.9-108.7-77.1
		c-24.3,16.6,10.6,38.8,21.1,57.8C641.1,504.5,649,529.9,652.5,555.6z"/>
	<path class="st2" d="M693.2,439.7c5.1-12.4-5.5-25.2-15.2-34.5c-25.4-24.2-56.3-55.1-92.8-59.4c5.5,16.1,0.3,56.4,14.1,65.4
		c7.1,4.6,34.1-0.6,44.6,2.5C661.7,418.9,678,429.6,693.2,439.7z"/>
	<path class="st3" d="M493.4,346.8c17.3,9.8,31.1,25.8,38.1,44.4c13.2-6.2,29.6-4.8,41.7,3.4c4.7-13.3,6.3-27.7,4.5-41.7
		c-0.3-2.6-1-5.5-3.2-7c-1.4-0.9-3.2-1-4.9-1.1c-31.3-1.5-62.6-0.8-93.8,2.1"/>
	<path class="st4" d="M436.6,679.4c4.9,1.2,10.1,2.3,15,1c6.4-1.7,10.9-7.2,14.8-12.5c39-54.3,49.2-122.9,58.4-188.7
		c0.5-3.9,1.1-7.9,0.3-11.8c-2.6-12.9-19-20.6-19.5-33.7c-0.5-12.1-91.6,39.4-97.8,44.1c-24.2,18.5-54,39.7-67.1,67.9
		C311.5,608.9,380.9,665.3,436.6,679.4z"/>
	<path class="st5" d="M518.2,421.8c-2.4-8.8,1.8-18.8,10-23.7c-11.8-10.8-24.5-20.7-37.9-29.7c-5.1-3.4-10.4-6.8-16.5-8.2
		c-7.7-1.8-15.8-0.4-23.5,1.5c-46,11.4-86.3,41.3-108.5,80.5c-18.1,32-29.8,82.3-12.7,116.2C365.2,485,425.4,425,518.2,421.8z"/>
	<path class="st6" d="M560,393c-16.5-4.7-35.7,8.1-37.7,25.2c-2,17.1,13.8,33.9,30.9,33.1c7.2-0.3,14.1-3.3,20.6-6.5
		c6.6-3.3,13.4-7.2,17-13.6c7.9-14-4.2-32.4-19.5-37.1s-31.8,0-47.1,4.7"/>
	<path class="st7" d="M463,463c4.6,13.6,15.7,24.9,29.3,29.7c5,1.8,11.4,2.3,14.7-1.9c1.9-2.5,2.1-5.8,2-9c-0.4-11-3.5-22.5-11.6-30
		c-8-7.5-21.9-9.4-30-1.9"/>
	<path class="st8" d="M575.2,483.8c-7.8,0-15.6,4.3-19.6,11.1c5.8,7.8,16.8,11.3,26,8.4s16.2-12.1,16.6-21.8
		c-5.6-2.6-11.9-3.7-18-3.1"/>
	<path class="st9" d="M645,437.2c-4.9,4.9-10,10.3-11.1,17.2c-1.1,6.8,3.9,15.1,10.8,14.4c2.9-0.3,5.5-2.1,7.7-4
		c5.7-4.9,10.6-11.8,10.1-19.3c-0.5-7.5-8.6-14.5-15.5-11.4"/>
	<path class="st10" d="M604.3,376.5c1.3,5.1,2.8,10.3,6.4,14.2c3.5,3.9,9.8,5.8,14.1,2.8c5.4-3.8,4.1-12.7-0.7-17.1
		c-4.9-4.4-11.8-5.5-18.3-6.3"/>
	<path class="st11" d="M545.9,361.2c-5-2.2-8.5,6.7-4.6,10.5s10.2,3.1,15.5,2.2c5.1-0.9,11.8-4.2,10-9.1c-2.8-7.4-17.5,1.4-21.3-5.5
		"/>
	<path class="st12" d="M476.6,375.2c-5.5,5-11.2,10.4-13.8,17.4c-2.6,7-0.9,16.2,5.7,19.8c4.5-4.9,9-9.8,13.5-14.8
		c4.3-4.7,8.8-9.9,9.1-16.2c0.3-6.3-6.2-13.1-11.9-10.4"/>
	<g>
		<path d="M533.3,385.3c-7,3.5-14,7.5-18.9,13.7c-5.4,7-6.4,15.6-4.6,24.1c3.7,16.9,14.6,33.6,32.6,36.6c16.2,2.6,34.7,2.9,47.3-9.1
			c10.8-10.3,15.5-26.6,9.8-40.6c-6.3-15.6-23.4-26.1-40.2-23.9c-5.4,0.7-5.5,9.3,0,8.6c11.7-1.6,23.6,3.9,30,14
			c6.3,10.1,4.9,22.6-2.1,32c-8.7,11.6-21.5,12.2-34.9,11.6c-7.4-0.4-15.3-1.2-21-6.3c-5.1-4.5-8.4-11.4-10.9-17.7
			c-3-7.5-4.6-16.2,0.3-23.2c4.1-5.7,10.8-9.1,16.9-12.2C542.6,390.2,538.2,382.8,533.3,385.3L533.3,385.3z"/>
	</g>
	<g>
		<path d="M482.2,423.7c-28.5,1.7-53.8,16.6-76.4,32.9c-22.2,16-42.7,35.2-55.7,59.7c-7.3,13.7-11.9,28.6-13.2,44.1
			c-0.5,5.5,8.1,5.5,8.6,0c2.7-33.5,23.3-61.9,48-83.3c12.6-10.9,26.5-20.7,41-29c14.7-8.4,30.6-14.9,47.7-15.9
			C487.7,431.9,487.7,423.3,482.2,423.7L482.2,423.7z"/>
	</g>
	<g>
		<path d="M530.3,470.9c-4.6,62.6-14.8,127.1-44.9,183c-8.5,15.9-18.6,30.9-30.3,44.5c-3.6,4.2,2.5,10.3,6.1,6.1
			c42.7-50,62.6-114.2,71.8-178.3c2.7-18.4,4.5-36.8,5.9-55.3C539.3,465.4,530.7,465.4,530.3,470.9L530.3,470.9z"/>
	</g>
	<g>
		<path d="M591.9,440.6c44.1,47.5,64,115.3,55.2,179.3c-2.5,18.2-7.4,36.1-14.6,53c-2.1,5,5.2,9.4,7.4,4.3
			c26.7-62.6,22.6-136.1-9-196.1c-8.9-16.9-20-32.6-33-46.5C594.2,430.5,588.2,436.5,591.9,440.6L591.9,440.6z"/>
	</g>
	<g>
		<path d="M610.1,421.4c12-2.4,24.8-4.9,37-2.1c11.1,2.6,20.3,9.6,29.1,16.5c4.3,3.4,10.4-2.7,6.1-6.1c-10-7.8-20.3-15.8-32.9-18.7
			c-13.8-3.2-27.9-0.6-41.5,2.1C602.5,414.2,604.7,422.5,610.1,421.4L610.1,421.4z"/>
	</g>
	<g>
		<path d="M455.4,346.2c-76.2,9.5-134.2,82.9-142.3,156.6c-8.9,80.8,43.4,156.4,115.2,189.8C466,710.2,508.6,717,550,713.3
			c40.6-3.7,81.7-16.8,114-42.3c16.2-12.8,29.7-28.8,38.9-47.3c9.7-19.5,14.8-40.9,17.2-62.5c4.8-42.7,1.1-88.4-16.3-128
			c-16.8-38.2-48.3-67.6-86.5-83.9c-38.7-16.5-83-18.7-124.1-12.1c-9.9,1.6-19.6,3.9-29.2,6.9c-5.2,1.7-3,9.9,2.3,8.3
			c38-12.1,81.4-13.5,120.1-4.3c37.3,8.9,72.3,30.4,94.6,62c24,34,32.1,76.4,32.3,117.3c0.2,41.5-7.1,85.8-34.9,118.2
			c-25.3,29.5-62.5,46.7-100,54.8c-38.8,8.4-79.8,7-117.8-4.5C388.2,674,326.8,610.8,321,533.2c-2.7-37,7.7-73.5,27.5-104.6
			c19.2-30.1,47.6-56.1,81.7-67.9c8.1-2.8,16.6-4.9,25.1-6C460.8,354.1,460.8,345.6,455.4,346.2L455.4,346.2z"/>
	</g>
	<g>
		<path d="M475,348.9c22.9,5.5,42.4,22,51.1,43.9c2,5.1,10.3,2.9,8.3-2.3c-9.8-24.7-31.1-43.6-57.1-49.9
			C471.9,339.4,469.7,347.6,475,348.9L475,348.9z"/>
	</g>
	<g>
		<path d="M577.8,345.3c7.7,13.8,7.2,30.8-1.2,44.2c-2.9,4.7,4.5,9,7.4,4.3c10-16,10.4-36.4,1.2-52.8
			C582.5,336.1,575.1,340.5,577.8,345.3L577.8,345.3z"/>
	</g>
	<g>
		<path d="M547.9,409.3c-1.2,0.5-2.5,0.9-3.7,1.4c-2.4,0.9-3.4,2.8-3,5.3c1.6,10.4,15.4,14,21.9,5.7c1.4-1.8,1.8-4.3,0-6.1
			c-1.5-1.5-4.6-1.8-6.1,0c-2.7,3.4-6.9,2.4-7.5-1.9c-1,1.8-2,3.5-3,5.3c1.2-0.5,2.5-0.9,3.7-1.4
			C555.3,415.7,553.1,407.4,547.9,409.3L547.9,409.3z"/>
	</g>
</g>
</svg>
