<svg xmlns="http://www.w3.org/2000/svg" width="1000" height="1000"><path d="M473.5 699.4c5.9 7.3 16.7 7.5 26.1 6.9 34.7-2.1 69.3-5.7 103.6-10.8 7.5-1.1 15.5-2.5 21.2-7.5 5.6-4.8 8.2-12.3 10.3-19.4 25.1-88.5 5.3-165.6-44.2-229.5 7.8 10.1-43.3 27.4-46.9 32.1-11.4 15.1-8 50.5-11.4 68.6-10.7 56-30.6 110.2-58.7 159.6z" opacity=".7" fill="#ff8417"/><path d="M652.5 555.6c5.8 42.2.4 85.4-10.8 126.5 52.5-43.2 82.1-113.5 74.4-181-6.8-60-60.6-109.9-108.7-77.1-24.3 16.6 10.6 38.8 21.1 57.8 12.6 22.7 20.5 48.1 24 73.8z" opacity=".7" fill="#ffd800"/><path d="M693.2 439.7c5.1-12.4-5.5-25.2-15.2-34.5-25.4-24.2-56.3-55.1-92.8-59.4 5.5 16.1.3 56.4 14.1 65.4 7.1 4.6 34.1-.6 44.6 2.5 17.8 5.2 34.1 15.9 49.3 26z" opacity=".7" fill="#88f540"/><path d="M493.4 346.8c17.3 9.8 31.1 25.8 38.1 44.4 13.2-6.2 29.6-4.8 41.7 3.4 4.7-13.3 6.3-27.7 4.5-41.7-.3-2.6-1-5.5-3.2-7-1.4-.9-3.2-1-4.9-1.1-31.3-1.5-62.6-.8-93.8 2.1" opacity=".7" fill="#0085d1"/><path d="M436.6 679.4c4.9 1.2 10.1 2.3 15 1 6.4-1.7 10.9-7.2 14.8-12.5 39-54.3 49.2-122.9 58.4-188.7.5-3.9 1.1-7.9.3-11.8-2.6-12.9-19-20.6-19.5-33.7-.5-12.1-91.6 39.4-97.8 44.1-24.2 18.5-54 39.7-67.1 67.9-29.2 63.2 40.2 119.6 95.9 133.7z" opacity=".7" fill="#e31217"/><path d="M518.2 421.8c-2.4-8.8 1.8-18.8 10-23.7-11.8-10.8-24.5-20.7-37.9-29.7-5.1-3.4-10.4-6.8-16.5-8.2-7.7-1.8-15.8-.4-23.5 1.5-46 11.4-86.3 41.3-108.5 80.5-18.1 32-29.8 82.3-12.7 116.2C365.2 485 425.4 425 518.2 421.8z" opacity=".7" fill="#ad5fde"/><path d="M560 393c-16.5-4.7-35.7 8.1-37.7 25.2s13.8 33.9 30.9 33.1c7.2-.3 14.1-3.3 20.6-6.5 6.6-3.3 13.4-7.2 17-13.6 7.9-14-4.2-32.4-19.5-37.1s-31.8 0-47.1 4.7" opacity=".7" fill="#ebe4f0"/><path d="M463 463c4.6 13.6 15.7 24.9 29.3 29.7 5 1.8 11.4 2.3 14.7-1.9 1.9-2.5 2.1-5.8 2-9-.4-11-3.5-22.5-11.6-30-8-7.5-21.9-9.4-30-1.9" opacity=".7" fill="#ff575b"/><path d="M575.2 483.8c-7.8 0-15.6 4.3-19.6 11.1 5.8 7.8 16.8 11.3 26 8.4s16.2-12.1 16.6-21.8c-5.6-2.6-11.9-3.7-18-3.1" opacity=".7" fill="#ffc354"/><path d="M645 437.2c-4.9 4.9-10 10.3-11.1 17.2-1.1 6.8 3.9 15.1 10.8 14.4 2.9-.3 5.5-2.1 7.7-4 5.7-4.9 10.6-11.8 10.1-19.3s-8.6-14.5-15.5-11.4" opacity=".7" fill="#fff8d4"/><path d="M604.3 376.5c1.3 5.1 2.8 10.3 6.4 14.2 3.5 3.9 9.8 5.8 14.1 2.8 5.4-3.8 4.1-12.7-.7-17.1-4.9-4.4-11.8-5.5-18.3-6.3" opacity=".7" fill="#d9f5c6"/><path d="M545.9 361.2c-5-2.2-8.5 6.7-4.6 10.5s10.2 3.1 15.5 2.2c5.1-.9 11.8-4.2 10-9.1-2.8-7.4-17.5 1.4-21.3-5.5" opacity=".7" fill="#5fb9ed"/><path d="M476.6 375.2c-5.5 5-11.2 10.4-13.8 17.4-2.6 7-.9 16.2 5.7 19.8 4.5-4.9 9-9.8 13.5-14.8 4.3-4.7 8.8-9.9 9.1-16.2.3-6.3-6.2-13.1-11.9-10.4" opacity=".7" fill="#dea8ff"/><path d="M533.3 385.3c-7 3.5-14 7.5-18.9 13.7-5.4 7-6.4 15.6-4.6 24.1 3.7 16.9 14.6 33.6 32.6 36.6 16.2 2.6 34.7 2.9 47.3-9.1 10.8-10.3 15.5-26.6 9.8-40.6-6.3-15.6-23.4-26.1-40.2-23.9-5.4.7-5.5 9.3 0 8.6 11.7-1.6 23.6 3.9 30 14 6.3 10.1 4.9 22.6-2.1 32-8.7 11.6-21.5 12.2-34.9 11.6-7.4-.4-15.3-1.2-21-6.3-5.1-4.5-8.4-11.4-10.9-17.7-3-7.5-4.6-16.2.3-23.2 4.1-5.7 10.8-9.1 16.9-12.2 5-2.7.6-10.1-4.3-7.6zm-51.1 38.4c-28.5 1.7-53.8 16.6-76.4 32.9-22.2 16-42.7 35.2-55.7 59.7-7.3 13.7-11.9 28.6-13.2 44.1-.5 5.5 8.1 5.5 8.6 0 2.7-33.5 23.3-61.9 48-83.3 12.6-10.9 26.5-20.7 41-29 14.7-8.4 30.6-14.9 47.7-15.9 5.5-.3 5.5-8.9 0-8.5zm48.1 47.2c-4.6 62.6-14.8 127.1-44.9 183-8.5 15.9-18.6 30.9-30.3 44.5-3.6 4.2 2.5 10.3 6.1 6.1 42.7-50 62.6-114.2 71.8-178.3 2.7-18.4 4.5-36.8 5.9-55.3.4-5.5-8.2-5.5-8.6 0z"/><path d="M591.9 440.6c44.1 47.5 64 115.3 55.2 179.3-2.5 18.2-7.4 36.1-14.6 53-2.1 5 5.2 9.4 7.4 4.3 26.7-62.6 22.6-136.1-9-196.1-8.9-16.9-20-32.6-33-46.5-3.7-4.1-9.7 1.9-6 6zm18.2-19.2c12-2.4 24.8-4.9 37-2.1 11.1 2.6 20.3 9.6 29.1 16.5 4.3 3.4 10.4-2.7 6.1-6.1-10-7.8-20.3-15.8-32.9-18.7-13.8-3.2-27.9-.6-41.5 2.1-5.4 1.1-3.2 9.4 2.2 8.3z"/><path d="M455.4 346.2c-76.2 9.5-134.2 82.9-142.3 156.6-8.9 80.8 43.4 156.4 115.2 189.8C466 710.2 508.6 717 550 713.3c40.6-3.7 81.7-16.8 114-42.3 16.2-12.8 29.7-28.8 38.9-47.3 9.7-19.5 14.8-40.9 17.2-62.5 4.8-42.7 1.1-88.4-16.3-128-16.8-38.2-48.3-67.6-86.5-83.9-38.7-16.5-83-18.7-124.1-12.1-9.9 1.6-19.6 3.9-29.2 6.9-5.2 1.7-3 9.9 2.3 8.3 38-12.1 81.4-13.5 120.1-4.3 37.3 8.9 72.3 30.4 94.6 62 24 34 32.1 76.4 32.3 117.3.2 41.5-7.1 85.8-34.9 118.2-25.3 29.5-62.5 46.7-100 54.8-38.8 8.4-79.8 7-117.8-4.5C388.2 674 326.8 610.8 321 533.2c-2.7-37 7.7-73.5 27.5-104.6 19.2-30.1 47.6-56.1 81.7-67.9 8.1-2.8 16.6-4.9 25.1-6 5.5-.6 5.5-9.1.1-8.5z"/><path d="M475 348.9c22.9 5.5 42.4 22 51.1 43.9 2 5.1 10.3 2.9 8.3-2.3-9.8-24.7-31.1-43.6-57.1-49.9-5.4-1.2-7.6 7-2.3 8.3zm102.8-3.6c7.7 13.8 7.2 30.8-1.2 44.2-2.9 4.7 4.5 9 7.4 4.3 10-16 10.4-36.4 1.2-52.8-2.7-4.9-10.1-.5-7.4 4.3zm-29.9 64c-1.2.5-2.5.9-3.7 1.4-2.4.9-3.4 2.8-3 5.3 1.6 10.4 15.4 14 21.9 5.7 1.4-1.8 1.8-4.3 0-6.1-1.5-1.5-4.6-1.8-6.1 0-2.7 3.4-6.9 2.4-7.5-1.9-1 1.8-2 3.5-3 5.3 1.2-.5 2.5-.9 3.7-1.4 5.1-1.9 2.9-10.2-2.3-8.3z"/></svg>