<?xml version="1.0" encoding="utf-8"?>
<!-- Generator: Adobe Illustrator 23.0.2, SVG Export Plug-In . SVG Version: 6.00 Build 0)  -->
<svg version="1.1" id="Layer_1" xmlns="http://www.w3.org/2000/svg" xmlns:xlink="http://www.w3.org/1999/xlink" x="0px" y="0px"
	 viewBox="0 0 1000 1000" style="enable-background:new 0 0 1000 1000;" xml:space="preserve">
<style type="text/css">
	.st0{opacity:0.7;fill:#FF00FB;}
	.st1{opacity:0.7;}
	.st2{fill:#870085;}
	.st3{opacity:0.7;fill:#FFA1FE;}
</style>
<g>
	<path class="st0" d="M455.4,517.7c19.3,21.1,46.6,37.9,75.5,35.7c40.2-3.1,68.2-40.6,82.4-77.4c12.4-32.1,18.8-67,13.3-100.8
		c-10.2-62.5-70.4-116.9-138.8-99.9c-56.5,14-78.1,95.9-74.2,144.3C416.5,455.5,430.7,490.8,455.4,517.7z"/>
	<path class="st0" d="M528.7,579c-6.4,10-12.7,19.9-19.1,29.9c9.9-1,19.8-2.1,29.6-3.1c-6-10.6-12-21.2-18-31.8"/>
	<g class="st1">
		<path class="st2" d="M522,569.6c-8.5-4.3-17.7-6-27.1-4.8c-8.1,1.1-19.8,4.5-23.6,12.5c-4.1,8.6,3.9,15.5,11.4,18
			c9.9,3.3,20.8,3.3,31,1.3c7.6-1.5,4.4-13.1-3.2-11.6c-5.8,1.2-11.9,1.4-17.8,0.4c-2.6-0.4-5.5-1-7.9-2.1c0,0-2.7-1.3-2.6-1.7
			c-0.1,0.4,2-0.8,2.2-1c9.5-5.6,21.7-5.7,31.5-0.8C522.9,583.5,528.9,573.1,522,569.6L522,569.6z"/>
	</g>
	<g class="st1">
		<path class="st2" d="M519.7,575.9c-19.5,22.8-46.5,37.4-76.2,41.6c-7.6,1.1-4.4,12.6,3.2,11.6c31.5-4.4,60.8-20.6,81.5-44.7
			C533.2,578.5,524.7,570,519.7,575.9L519.7,575.9z"/>
	</g>
	<g class="st1">
		<path class="st2" d="M519.6,617.2c-0.6,10.8-6.3,20.5-10.3,30.3c-3.5,8.7-5.6,18.5-3.7,27.8c4.1,20.2,24.9,23.8,42.2,24.8
			c7.7,0.5,16.8,1.2,23.1,6.1c7.2,5.7,5.9,15.2,1.4,22.2c-5.2,8.1-14.5,12.5-22.9,16.6c-8.7,4.3-17.5,8.5-24.7,15.1
			c-7.1,6.6-12.1,15.7-11.5,25.6c0.5,9,5,18,13.6,21.6c7,3,13.1-7.3,6.1-10.4c-6.7-2.9-8.9-10.4-7.1-17.2
			c2.2-8.2,9.9-13.9,16.9-17.9c15.7-9.1,35-14.5,42.7-32.7c7.3-17.1-2-33-19.1-38.2c-8.2-2.5-16.7-2.5-25.2-3.2
			c-7.5-0.7-16.7-2.2-21.4-8.9c-5.9-8.4-2.2-20.4,1.4-28.9c4.5-10.8,9.7-20.8,10.4-32.7C532,609.5,520,609.5,519.6,617.2
			L519.6,617.2z"/>
	</g>
	<g>
		<path d="M503,261.7c-33.6-1-61,25.4-78.1,51.8c-18.2,28.1-27.3,62.1-25.3,95.6c2.1,36,15.6,71.6,34.1,102.3
			c17.2,28.5,42.6,54,76.2,61.4c33.3,7.3,70.7-7.7,82.5-41.4c1.9-5.5-6.8-7.8-8.7-2.4c-9.5,27.2-40.3,40.3-67.4,35.9
			c-31.3-5.2-55.6-27.8-72.1-53.7c-17.5-27.5-30.8-59.7-34.7-92.2c-3.7-30.8,1.9-62.2,16.5-89.6c14.9-28.1,42.3-59.8,77-58.7
			C508.8,270.9,508.8,261.9,503,261.7L503,261.7z"/>
	</g>
	<path class="st3" d="M535.3,298.4c-0.7,15.2-1,30.7,3.2,45.3c4.2,14.6,13.5,28.5,27.4,34.7c4.6,2,9.7,3.2,14.7,2.3
		c11.2-2,18.1-13.6,20.1-24.8c5-27.5-13.7-57.1-40.6-64.5c-8.3-2.3-21.2,2.7-17.5,10.4"/>
	<g>
		<path d="M481.9,275c26.8-11.1,57.5-9.5,83.7,2.7c26,12.1,45.9,33.9,58.2,59.6c26.8,55.7,14.7,125.2-18.2,175.8
			c-16.6,25.5-40.6,47.2-71.2,53.2c-5.7,1.1-3.3,9.8,2.4,8.7c61.4-12.1,97-79.4,107.3-135.8c5.9-32.3,4.2-66.1-8.3-96.8
			c-11.3-28-30.8-53-57.3-68.1c-29.7-17-67.1-21.2-99-7.9C474.2,268.5,476.6,277.3,481.9,275L481.9,275z"/>
	</g>
	<g>
		<path d="M547.4,296.2c1.2-1,8.4,4.7,9.4,5.5c3,2.1,5.8,4.5,8.5,7c5.5,5.1,10.5,10.7,14.8,16.9c8.6,12.5,14.3,26.7,16.7,41.7
			c0.9,5.7,9.6,3.3,8.7-2.4c-3-18.4-10.8-35.7-22.4-50.2c-5.6-7.1-12.1-13.4-19.3-18.8c-6.3-4.8-15.2-12.1-22.8-5.9
			C536.5,293.5,543,299.8,547.4,296.2L547.4,296.2z"/>
	</g>
	<g>
		<path d="M602.3,409.1c1.7,18.1,0.4,36.1-4.2,53.7c-1.5,5.6,7.2,8,8.7,2.4c4.8-18.3,6.3-37.3,4.5-56.1
			C610.8,403.4,601.8,403.4,602.3,409.1L602.3,409.1z"/>
	</g>
	<g>
		<path d="M517.7,577.2c-5.9,13.9-13.5,27-22.5,39.1c-2.5,3.4,1.6,7.4,5.1,6.6c9-2.1,17.9-4.3,27-6.2c4.6-1,12.1-2.4,14.5,2.9
			c2.3,5.3,10.1,0.7,7.8-4.5c-3.2-7.2-11.5-8.7-18.6-8c-11,1.1-22.1,4.7-32.9,7.2c1.7,2.2,3.4,4.4,5.1,6.6
			c9.6-12.8,17.3-26.5,23.4-41.2C528.6,574.2,519.9,571.9,517.7,577.2L517.7,577.2z"/>
	</g>
	<g>
		<path d="M523.7,572.3c5.3,14.3,11.8,28.2,19.7,41.3c3,5,10.8,0.5,7.8-4.5c-7.4-12.5-13.7-25.5-18.8-39.2
			C530.4,564.6,521.7,566.9,523.7,572.3L523.7,572.3z"/>
	</g>
</g>
</svg>
