<svg xmlns="http://www.w3.org/2000/svg" width="1000" height="1000"><path d="M608.8 608.6c-19.8-22.5-22.2-55.6-25.1-86s-9.2-64-33-81.8c-10.4-7.8-23.6-11.9-31.9-22-11.5-14-11.5-36.8-25.9-47.4-9.7-7.1-24.3-5.5-32.4 3.5-9.3 10.4-1.4 20.3-5.1 30.4-4.6 12.7-10.5 13.7-21.6 22.8-21.4 17.5-36.9 42.6-41 70.9-3.8 26.3 1.7 53.3-.6 79.8s-16.1 55.5-41.2 60.9c3.2 8.3 13.5 9.9 22.1 10.3 32.9 1.5 65.8 3 98.7 4.4-8.6 20.3 6.8 47.2 28 48.9 21.2 1.7 40.4-22.3 34.9-43.8 22.9-4.1 45.7-8.2 68.6-12.3 10.6-1.9 22.9-5 27.5-15.2 5.6-12.7-9.6-29.1-22-23.4zM479.3 415.5c-4.4-.8-8.5-4.4-9.5-8.7l.1 3.9c-4.2-8-5.4-17.5-3.5-26.4 2-1 3.9-1.9 5.9-2.9 11.9 5.7 20.8 17.8 23 31.3-5.1 1.9-10.6 3.8-16 2.8z" opacity=".7" fill="#ffd900"/><path d="M480.5 664.7c-5.9 2.3-9.7 6.7-9.9 11.2 22.5 3.4 46.7 1.4 67.3-5.4.9-.3 1.8-.6 2.4-1.2 1.9-1.9-2.2-4-5.5-4.6-21.6-4.4-45.2-4.5-66.9-.3" opacity=".7" fill="#c47f00"/><path d="M470 400.6l-.1-3.2c-.2 1.1-.1 2.2.1 3.2z" fill="#ff7300"/><path d="M470.7 394.6c-34.5 5.2-65.4 27.9-81.8 58.5-9.5 17.7-13 37-13.2 56.9-.2 22.1 2.9 44.5-.5 66.4-1.6 10.3-4.5 20.6-9.6 29.7-2.4 4.3-5.3 8.3-8.7 11.8-1.6 1.7-3.4 3.5-5.4 4.8-1 .6-4.3 1.7-4.4 1.4-1.4-5.6-10.1-3.2-8.7 2.4 2 8.1 11.8 7.6 17.6 4 7.5-4.6 13.5-12.8 17.7-20.4 9.6-17.5 12.1-37.9 12-57.5-.1-24.4-3.7-49.6 2.5-73.6 4.8-18.3 15-34.9 28.6-47.9 15.4-14.8 35-24.6 56.1-27.8 5.9-.8 3.4-9.5-2.2-8.7z"/><path d="M360.5 632.5c-3.5-9.6-16.9-16-24.7-7.2-6.8 7.8-4.1 20.7 3 27.4 9.6 9 24.3 9 36.6 10 16.8 1.4 33.6 2.8 50.5 4.1 32.9 2.6 65.6 3.2 98.5.5 32.4-2.7 64.6-7.8 96.6-13.5 12.6-2.2 29-4.8 35.3-17.7 4.9-10 2.2-23-8.8-27.2-5.4-2.1-7.8 6.6-2.4 8.7 8 3.1 4.2 15-.5 19-8.3 7.1-21.5 7.8-31.8 9.6-25.2 4.4-50.4 8.4-75.8 11-25.8 2.6-51.8 3.8-77.7 2.8-25.7-1-51.3-3.5-76.9-5.6-11.3-.9-27.5.3-36.7-7.5-3.4-2.9-5.5-8.1-4.4-12.5 1.5-6 8.8-4.5 10.6.7 1.8 5.2 10.5 2.9 8.6-2.6z"/><path d="M494.7 413.8c19.1-6.6 39.9 2.4 55.5 13.4 14.5 10.2 26.2 24.3 33.7 40.3 15.5 32.8 7.6 70.5 18.8 104.4 4.9 14.8 19 42 38.5 33.1 5.3-2.4.7-10.2-4.5-7.8-8.6 3.9-17.1-10.1-20.3-16.1-4.1-7.6-6.6-15.9-8.2-24.4-3.4-17.4-3.4-35.3-5.5-52.9-2.1-17.2-6.3-33.7-15.1-48.8-8.7-14.9-20.8-27.8-35.2-37.3-17.2-11.4-39.6-19.7-60-12.7-5.5 2-3.2 10.7 2.3 8.8z"/><path d="M609.4 616.5c7.5-6.4 18.5-12.3 28.5-8.8 7.9 2.8 13.3 11.5 10 19.5-2.2 5.3 6.5 7.7 8.7 2.4 4.9-11.7-3-24.8-13.9-29.6-13.8-6.1-29.1 1.1-39.7 10.2-4.4 3.8 2 10.1 6.4 6.3zM453.8 428c-14.6 7.3-26 20-32 35.2-3.2 8-4.3 16.5-4.4 25.1-.2 10.6.6 21.1-3.3 31.2-2.1 5.4 6.6 7.8 8.7 2.4 6.4-16.8.9-35.2 6.2-52.2 4.6-14.8 15.4-27.1 29.3-34 5.2-2.5.6-10.3-4.5-7.7zm-43.3 123.5c1.7 13.4 1 26.7-2.3 39.8-1.4 5.6 7.3 8 8.7 2.4 3.4-13.8 4.4-28 2.6-42.2-.7-5.6-9.7-5.7-9 0zm46.8-155.1c-.1-15 1.4-39.9 22.2-38.9 4.3.2 9.2 1.2 13.2 2.7 3.9 1.5 5.1 7.4 6.5 10.9 1.6 4.1 3.1 8.2 4.5 12.3.8 2.4 1.5 4.8 2.2 7.2.5 1.6 1.8 4.4 1.3 5.9l3.1-3.1h.6c1.1 1 2.1 2.1 3.1 3.1 0-.3-.1-.5-.2-.8-1.1-5.7-9.8-3.3-8.7 2.4.9 4.8 7.5 5.9 10.1 1.9 3.2-4.9-1.5-14.1-3.1-18.9-2.3-6.9-4.9-13.7-7.9-20.3-2.9-6.5-6.7-8.6-13.5-10.3-12.5-3.2-25-2.7-33.7 8-8.7 10.7-9.2 24.7-9.1 37.9.4 5.8 9.4 5.8 9.4 0z"/><path d="M472.6 395.3c-1.2-6.8 1.7-13.1 7.1-17.3-1.5.4-2.9.8-4.4 1.2 8.3 3.2 12.6 12 11.5 20.6-.8 5.7 8.2 5.7 9 0 1.5-11.5-5.2-24.3-16.2-28.6-5.9-2.3-10.3 3.5-12.9 8.4-3 5.7-3.8 11.8-2.6 18.1.9 5.6 9.6 3.2 8.5-2.4zm-9.7 269.3c-6.3 27.8 18.4 52.1 45.7 50.1 13.9-1 27.7-7.5 36.4-18.6 8.1-10.3 9.8-25.6-.3-35.3-4.2-4-10.6 2.3-6.4 6.4 8.5 8.1 3.5 20.2-3.8 27.1-7.7 7.3-18.4 11.5-29 11.5-20.2.1-38.7-18-33.9-38.8 1.2-5.6-7.5-8-8.7-2.4z"/><path d="M506 699.3c15.8 5.9 31-8.9 26.7-24.8-1.5-5.6-10.2-3.2-8.7 2.4 2.6 9.8-6.5 17.1-15.6 13.7-5.5-2-7.8 6.7-2.4 8.7z"/></svg>