<?xml version="1.0" encoding="utf-8"?>
<!-- Generator: Adobe Illustrator 23.0.2, SVG Export Plug-In . SVG Version: 6.00 Build 0)  -->
<svg version="1.1" id="Layer_1" xmlns="http://www.w3.org/2000/svg" xmlns:xlink="http://www.w3.org/1999/xlink" x="0px" y="0px"
	 viewBox="0 0 1000 1000" style="enable-background:new 0 0 1000 1000;" xml:space="preserve">
<style type="text/css">
	.st0{opacity:0.7;fill:#FFD900;}
	.st1{opacity:0.7;fill:#C47F00;}
	.st2{fill:#FF7300;}
</style>
<g>
	<path class="st0" d="M608.8,608.6c-19.8-22.5-22.2-55.6-25.1-86s-9.2-64-33-81.8c-10.4-7.8-23.6-11.9-31.9-22
		c-11.5-14-11.5-36.8-25.9-47.4c-9.7-7.1-24.3-5.5-32.4,3.5c-9.3,10.4-1.4,20.3-5.1,30.4c-4.6,12.7-10.5,13.7-21.6,22.8
		c-21.4,17.5-36.9,42.6-41,70.9c-3.8,26.3,1.7,53.3-0.6,79.8c-2.3,26.5-16.1,55.5-41.2,60.9c3.2,8.3,13.5,9.9,22.1,10.3
		c32.9,1.5,65.8,3,98.7,4.4c-8.6,20.3,6.8,47.2,28,48.9c21.2,1.7,40.4-22.3,34.9-43.8c22.9-4.1,45.7-8.2,68.6-12.3
		c10.6-1.9,22.9-5,27.5-15.2C636.4,619.3,621.2,602.9,608.8,608.6z M479.3,415.5c-4.4-0.8-8.5-4.4-9.5-8.7l0.1,3.9
		c-4.2-8-5.4-17.5-3.5-26.4c2-1,3.9-1.9,5.9-2.9c11.9,5.7,20.8,17.8,23,31.3C490.2,414.6,484.7,416.5,479.3,415.5z"/>
	<path class="st1" d="M480.5,664.7c-5.9,2.3-9.7,6.7-9.9,11.2c22.5,3.4,46.7,1.4,67.3-5.4c0.9-0.3,1.8-0.6,2.4-1.2
		c1.9-1.9-2.2-4-5.5-4.6c-21.6-4.4-45.2-4.5-66.9-0.3"/>
	<path class="st2" d="M470,400.6l-0.1-3.2C469.7,398.5,469.8,399.6,470,400.6z"/>
	<g>
		<path d="M470.7,394.6c-34.5,5.2-65.4,27.9-81.8,58.5c-9.5,17.7-13,37-13.2,56.9c-0.2,22.1,2.9,44.5-0.5,66.4
			c-1.6,10.3-4.5,20.6-9.6,29.7c-2.4,4.3-5.3,8.3-8.7,11.8c-1.6,1.7-3.4,3.5-5.4,4.8c-1,0.6-4.3,1.7-4.4,1.4
			c-1.4-5.6-10.1-3.2-8.7,2.4c2,8.1,11.8,7.6,17.6,4c7.5-4.6,13.5-12.8,17.7-20.4c9.6-17.5,12.1-37.9,12-57.5
			c-0.1-24.4-3.7-49.6,2.5-73.6c4.8-18.3,15-34.9,28.6-47.9c15.4-14.8,35-24.6,56.1-27.8C478.8,402.5,476.3,393.8,470.7,394.6
			L470.7,394.6z"/>
	</g>
	<g>
		<path d="M360.5,632.5c-3.5-9.6-16.9-16-24.7-7.2c-6.8,7.8-4.1,20.7,3,27.4c9.6,9,24.3,9,36.6,10c16.8,1.4,33.6,2.8,50.5,4.1
			c32.9,2.6,65.6,3.2,98.5,0.5c32.4-2.7,64.6-7.8,96.6-13.5c12.6-2.2,29-4.8,35.3-17.7c4.9-10,2.2-23-8.8-27.2
			c-5.4-2.1-7.8,6.6-2.4,8.7c8,3.1,4.2,15-0.5,19c-8.3,7.1-21.5,7.8-31.8,9.6c-25.2,4.4-50.4,8.4-75.8,11
			c-25.8,2.6-51.8,3.8-77.7,2.8c-25.7-1-51.3-3.5-76.9-5.6c-11.3-0.9-27.5,0.3-36.7-7.5c-3.4-2.9-5.5-8.1-4.4-12.5
			c1.5-6,8.8-4.5,10.6,0.7C353.7,640.3,362.4,638,360.5,632.5L360.5,632.5z"/>
	</g>
	<g>
		<path d="M494.7,413.8c19.1-6.6,39.9,2.4,55.5,13.4c14.5,10.2,26.2,24.3,33.7,40.3c15.5,32.8,7.6,70.5,18.8,104.4
			c4.9,14.8,19,42,38.5,33.1c5.3-2.4,0.7-10.2-4.5-7.8c-8.6,3.9-17.1-10.1-20.3-16.1c-4.1-7.6-6.6-15.9-8.2-24.4
			c-3.4-17.4-3.4-35.3-5.5-52.9c-2.1-17.2-6.3-33.7-15.1-48.8c-8.7-14.9-20.8-27.8-35.2-37.3c-17.2-11.4-39.6-19.7-60-12.7
			C486.9,407,489.2,415.7,494.7,413.8L494.7,413.8z"/>
	</g>
	<g>
		<path d="M609.4,616.5c7.5-6.4,18.5-12.3,28.5-8.8c7.9,2.8,13.3,11.5,10,19.5c-2.2,5.3,6.5,7.7,8.7,2.4c4.9-11.7-3-24.8-13.9-29.6
			c-13.8-6.1-29.1,1.1-39.7,10.2C598.6,614,605,620.3,609.4,616.5L609.4,616.5z"/>
	</g>
	<g>
		<path d="M453.8,428c-14.6,7.3-26,20-32,35.2c-3.2,8-4.3,16.5-4.4,25.1c-0.2,10.6,0.6,21.1-3.3,31.2c-2.1,5.4,6.6,7.8,8.7,2.4
			c6.4-16.8,0.9-35.2,6.2-52.2c4.6-14.8,15.4-27.1,29.3-34C463.5,433.2,458.9,425.4,453.8,428L453.8,428z"/>
	</g>
	<g>
		<path d="M410.5,551.5c1.7,13.4,1,26.7-2.3,39.8c-1.4,5.6,7.3,8,8.7,2.4c3.4-13.8,4.4-28,2.6-42.2
			C418.8,545.9,409.8,545.8,410.5,551.5L410.5,551.5z"/>
	</g>
	<g>
		<path d="M457.3,396.4c-0.1-15,1.4-39.9,22.2-38.9c4.3,0.2,9.2,1.2,13.2,2.7c3.9,1.5,5.1,7.4,6.5,10.9c1.6,4.1,3.1,8.2,4.5,12.3
			c0.8,2.4,1.5,4.8,2.2,7.2c0.5,1.6,1.8,4.4,1.3,5.9c1-1,2.1-2.1,3.1-3.1c0.2,0,0.4,0,0.6,0c1.1,1,2.1,2.1,3.1,3.1
			c0-0.3-0.1-0.5-0.2-0.8c-1.1-5.7-9.8-3.3-8.7,2.4c0.9,4.8,7.5,5.9,10.1,1.9c3.2-4.9-1.5-14.1-3.1-18.9c-2.3-6.9-4.9-13.7-7.9-20.3
			c-2.9-6.5-6.7-8.6-13.5-10.3c-12.5-3.2-25-2.7-33.7,8c-8.7,10.7-9.2,24.7-9.1,37.9C448.3,402.2,457.3,402.2,457.3,396.4
			L457.3,396.4z"/>
	</g>
	<g>
		<path d="M472.6,395.3c-1.2-6.8,1.7-13.1,7.1-17.3c-1.5,0.4-2.9,0.8-4.4,1.2c8.3,3.2,12.6,12,11.5,20.6c-0.8,5.7,8.2,5.7,9,0
			c1.5-11.5-5.2-24.3-16.2-28.6c-5.9-2.3-10.3,3.5-12.9,8.4c-3,5.7-3.8,11.8-2.6,18.1C465,403.3,473.7,400.9,472.6,395.3
			L472.6,395.3z"/>
	</g>
	<g>
		<path d="M462.9,664.6c-6.3,27.8,18.4,52.1,45.7,50.1c13.9-1,27.7-7.5,36.4-18.6c8.1-10.3,9.8-25.6-0.3-35.3
			c-4.2-4-10.6,2.3-6.4,6.4c8.5,8.1,3.5,20.2-3.8,27.1c-7.7,7.3-18.4,11.5-29,11.5c-20.2,0.1-38.7-18-33.9-38.8
			C472.8,661.4,464.1,659,462.9,664.6L462.9,664.6z"/>
	</g>
	<g>
		<path d="M506,699.3c15.8,5.9,31-8.9,26.7-24.8c-1.5-5.6-10.2-3.2-8.7,2.4c2.6,9.8-6.5,17.1-15.6,13.7
			C502.9,688.6,500.6,697.3,506,699.3L506,699.3z"/>
	</g>
</g>
</svg>
