<?xml version="1.0" encoding="utf-8"?>
<!-- Generator: Adobe Illustrator 23.0.2, SVG Export Plug-In . SVG Version: 6.00 Build 0)  -->
<svg version="1.1" id="Layer_1" xmlns="http://www.w3.org/2000/svg" xmlns:xlink="http://www.w3.org/1999/xlink" x="0px" y="0px"
	 viewBox="0 0 1000 1000" style="enable-background:new 0 0 1000 1000;" xml:space="preserve">
<style type="text/css">
	.st0{opacity:0.7;fill:#F0F5F4;}
	.st1{opacity:0.7;fill:#FFC400;}
	.st2{opacity:0.7;fill:#AED1C8;}
	.st3{fill:#FFFFFF;}
</style>
<g>
	<path class="st0" d="M414.7,425.4c-19.1-2-38.6,1.9-57.5-1.3c-15.9-2.7-30.5-10.2-44.9-17.7c-40.2-20.9-80.3-41.8-120.5-62.7
		c26.4,30.9,52.8,61.7,79.2,92.6c4.6,5.4,8.6,14.8,2.5,18.2c-5.5,3.1-11.9-3.6-18.2-3.3c-9.5,0.5-10.3,15.9-2.9,21.9
		c7.4,6,17.7,6.1,26.9,8.8c9.1,2.6,18.7,11,15.8,20.1c-2,6.4-9.2,9.6-12.8,15.3c-6.7,10.6,2.5,25.5,14.6,29.1
		c12,3.6,24.9-0.3,36.8-4.3c-11.6,5.9-14.7,23.7-5.8,33.2c8.9,9.5,26.9,7.4,33.4-3.8c3.7,18.3,21.9,32.5,40.5,31.6
		c18.6-0.9,35.4-16.8,37.3-35.4c1.2-12-3-24.2-0.6-36c3-14.6,15.5-25.1,22.8-38C479.1,462.4,444.1,428.5,414.7,425.4z"/>
	<path class="st0" d="M437.7,557.1c5,27.7,29.3,49,33.9,76.7c4.9,29.7-13.6,57.5-25.2,85.3c-2.6,6.1-4.7,13.5-1.1,19
		c3.8,5.7,12.2,6.5,18.4,3.5s10.5-8.6,14.6-14c1.5,12.2,19.5,15.8,29.4,8.4c9.9-7.3,13.4-20.3,16.3-32.3c3.3,9.1,7.1,18.8,15.1,24.2
		s21.5,3.6,24.3-5.7c1.3-4.2,0.2-8.8,1.5-12.9c1.4-4.1,7.8-6.7,9.8-2.9c5.5-8.3,1.7-19.7-4.1-27.8s-13.7-15-17.2-24.3
		c-4.8-12.6-0.5-27.3,7.7-38.1c8.1-10.8,19.6-18.5,30.9-26c10,12.5,27.1,18.8,42.8,16.1s29.6-14.5,34.9-29.6c8.6,4.9,20.2,4,28-2.1
		c7.8-6.1,11.4-17.1,8.7-26.7c8.9-12.1,23.1-18.8,36.2-26.2s26.3-17.2,30.5-31.6c4.2-14.4-6.2-33.3-21.2-31.8
		c54.4-33.1,96.1-86.5,115.2-147.3c-36.2,39.3-74.7,80-125.4,96.9c-26.7,8.9-55.3,10.6-82.3,18.6c-27,8-54,24.8-62.6,51.6
		c-2.9-12.3-14.5-22.1-27.1-22.8c12.2-18-2.9-45.2-24.2-49.7c-40.9-8.6-60,33.5-72.5,63.5C461,497.7,431.9,524.9,437.7,557.1z"/>
	<path class="st1" d="M527.7,478.9c-3.2,3.3-6.4,6.6-9.6,9.9c4.7,3.3,7.8,8.7,8.4,14.4c4.2-4.5,8.5-9.1,12.7-13.6
		c-2.9-6-8.5-10.6-15-12.1"/>
	<path class="st1" d="M470.7,645.4c-6.3,11.5-5.7,26.3,1.4,37.3c13.1-4.9,20.7-21,16.1-34.2"/>
	<path class="st1" d="M545.9,644.8c7.8,5-1,20.4,6.8,25.3c5.1,3.2,11.6-2.5,13-8.3c2.5-10.5-4.6-22.3-15.1-24.8"/>
	<path class="st2" d="M628.7,440.4c9.6-8.1,21.2-13.8,33.5-16.5c-1,20.6-7.8,41-19.5,58c-2.1,3.1-4.9,6.4-8.6,6.9
		c-6.7,0.8-10.7-7.3-11.3-14c-1.7-18,6-36.6,19.9-48.1"/>
	<path class="st2" d="M630.3,506.9c-0.9-4.4,4.5-8.3,8.8-7.1c4.4,1.2,7.1,5.7,7.8,10.2c0.7,4.5,0,9-0.3,13.5
		c-0.3,4.5-0.1,9.1-1.8,13.2c-1.8,4.1-6.4,7.5-10.6,6s-4.7-9.1-0.3-9.9"/>
	<path class="st2" d="M643,541.4c1.9-0.5,3.8-0.9,5.7-1.4c5.5,5.8,6.8,15.1,3.1,22.2c-3.7,7.1-12.1,11.3-20,10.2
		c6.6-10.8,8.5-24.4,4.9-36.6"/>
	<path class="st2" d="M674.6,482.6c6.7-1.9,11.8-7.2,17.9-10.6c6.1-3.4,15.2-3.9,18.8,2c3.6,5.9-0.8,13.5-5.9,18.1
		c-5.6,5.1-13,9.1-20.4,7.6c-7.4-1.5-13.2-10.6-9.1-16.9"/>
	<path class="st2" d="M362.3,433.9c-3.9,2.3-6.9,6.8-6.2,11.3c0.7,4.4,4.4,7.5,8,10.1c8.8,6.5,18.1,12.3,27.8,17.4
		c-5.5,0.2-8.9,6.8-7.8,12.1c1.2,5.3,5.5,9.4,9.9,12.6c11.8,8.5,27.7,14.8,42.3,13.8c-7.7-9.4-15.8-18-16.6-30.8
		c-0.6-9.3,5.6-18.5,4.5-27.5C421.8,431.4,378.3,424.5,362.3,433.9z"/>
	<path class="st2" d="M385.3,573.2c-7.1,1.9-11.6,10.3-9.3,17.3c2.3,7,10.9,11,17.8,8.3c6.8-2.7,10.4-11.5,7.3-18.2"/>
	<path class="st2" d="M455.6,698.8c-7.7,9.4-13.8,20.2-17.9,31.6c-1.9,5.2-2.7,12.4,2.2,15c3.6,1.9,8.1-0.2,11.4-2.6
		c14.7-10.6,24.4-28.1,25.5-46.2"/>
	<path class="st2" d="M496.3,715c-2,4.5-3.8,10.1-0.6,13.8c3.4,3.9,10.4,2.1,13.4-2.2s3.1-9.9,3.2-15.1"/>
	<path class="st2" d="M536,709.8c1,4.5,2.1,9.2,4.9,12.9s8,6,12.2,4.2c5-2.1,6.5-8.6,6.3-14s-1.4-11.2,1-16.2"/>
	<g>
		<path d="M485.6,453.1c1.6-11.2,5.8-22,12.1-31.4c3.2-4.7,6.8-9,11-12.9c2-1.9,4.2-3.7,6.4-5.4c2.4-1.8,5.5-4.5,8.6-3.2
			c3.6,1.5,5.6-4.3,2-5.7c-6.5-2.6-12.8,2.8-17.5,6.7c-5.1,4.3-9.8,9.2-13.7,14.6c-8,10.9-13,23.6-15,36.9
			C479,456.6,485.1,457,485.6,453.1L485.6,453.1z"/>
	</g>
	<g>
		<path d="M524.1,400.3c-0.6-3.8-1.2-7.5-1.9-11.2c-0.3-2-0.7-4-1-6c-0.1-0.8-0.2-1.9-0.4-2.6c-0.1-0.4-0.2-0.9-0.2-1.3
			c-0.7,0.4-0.7,0.7-0.1,0.8c2.4,2,4.7,3.6,6.4,6.3c1.8,2.6,2.8,5.6,3.4,8.7c0.7,3.9,6.5,2.6,5.9-1.2c0.2,1.6-0.3-0.4,0.7,0.4
			c0.6,0.4,0.5,0,1,0.8c0.9,1.7-0.9,4.9-1.6,6.4c-1.7,3.4,3.3,6.9,5,3.4c2.4-4.8,5.3-13.4-1.6-16.1c-4.6-1.8-10.2,1-9.5,6.3
			c2-0.4,4-0.8,5.9-1.2c-0.9-4.6-2.7-8.8-5.5-12.5c-2.4-3.2-6.4-7.4-10.6-7.6c-5.5-0.4-5.8,4.6-5.1,8.7c1.1,6.4,2.1,12.8,3.2,19.2
			C518.8,405.4,524.7,404.2,524.1,400.3L524.1,400.3z"/>
	</g>
	<g>
		<path d="M542.2,401.5c9.5-0.8,17.8,6.5,21.7,14.5c4.7,9.4,5,20.2,5.3,30.5c0.1,3.9,6.2,4.3,6,0.4c-0.4-12.2-0.8-25.5-7.4-36.2
			c-5.8-9.4-15.6-16-26.9-15.1C537.1,395.9,538.4,401.8,542.2,401.5L542.2,401.5z"/>
	</g>
	<g>
		<path d="M493.5,449.5c-1.4,5.2-0.9,10.4,1.7,15.2c0.9,1.6,3.2,2.3,4.7,0.9c4.4-4.2,5.7-11.1,2.6-16.5c-3.7-6.2-11.7,0.4-8.8,6.1
			c1.8,3.5,7.2,0.8,5.4-2.7c0.1,0.1-0.1,0.1-0.1,0.1c-0.7-0.3-1.4-0.7-2.1-1c2.1,2.9,1.6,7.1-1,9.5c1.6,0.3,3.1,0.6,4.7,0.9
			c-1.8-3.3-2.3-6.9-1.4-10.5C500.2,447.7,494.5,445.7,493.5,449.5L493.5,449.5z"/>
	</g>
	<g>
		<path d="M561.7,449.5c0,2.3-0.1,4.6-0.1,6.9c0,2.1,1.6,3.3,3.6,3.2c3.1-0.3,5.1-3.4,5.2-6.3c0.1-3.4-1.9-6.2-5.3-6.8
			c-1.6-0.3-3.1,1.3-3.2,2.8c-0.1,1.8,1.2,2.9,2.8,3.2c-0.4-0.1-0.4-0.1-0.1,0c-0.2,0-0.4-0.2-0.5-0.3c0.5,0.4-0.2-0.4,0.1,0.1
			c0.1,0.3,0.1,0.3,0-0.1c0,0.2,0.1,0.3,0.1,0.5c0,0.6,0.1-0.5,0,0.3c-0.1,0.8,0.1-0.3,0,0.3c0,0.2-0.1,0.3-0.2,0.5
			c0.2-0.3,0.2-0.4,0.1-0.2c-0.1,0.2-0.1,0.1,0.1-0.1c-0.3,0.2-0.2,0.2,0.1,0c-0.3,0.1-0.3,0.1,0.1,0c-0.2,0-0.3,0.1-0.5,0.1
			c1.2,1.1,2.4,2.1,3.6,3.2c0-2.3,0.1-4.6,0.1-6.9C567.8,446,561.8,445.6,561.7,449.5L561.7,449.5z"/>
	</g>
	<g>
		<path d="M519.6,482.1c-1.9,2.6-3.7,5.3-5.6,7.9c-1.2,1.7-0.3,3.9,1.5,4.6c6.2,2.5,9.9,8.8,9.2,15.4c-0.3,3.6,4.5,4.1,5.9,1.2
			c2.5-5.6,5.1-11.2,7.7-16.8c1.6-3.5-4.1-5.5-5.7-2c-2.5,5.6-5.1,11.2-7.7,16.8c2,0.4,3.9,0.8,5.9,1.2c0.9-9.3-4.7-18.1-13.3-21.5
			c0.5,1.5,1,3,1.5,4.6c1.9-2.6,3.7-5.3,5.6-7.9C526.9,482.3,521.9,478.9,519.6,482.1L519.6,482.1z"/>
	</g>
	<g>
		<path d="M483.5,458.8c-5.6-3.1-11.6-0.4-15.2,4.4c-3.9,5.2-4.5,12.5-3.5,18.6c2.6,14.8,14.7,24.7,25.9,33.4c3.1,2.4,6.5-2.6,3.4-5
			c-8.3-6.5-17.2-13.3-21.5-23.2c-2-4.5-2.9-9.8-1.9-14.7c0.8-3.5,4.6-11.1,9.3-8.5C483.5,465.6,486.9,460.6,483.5,458.8
			L483.5,458.8z"/>
	</g>
	<g>
		<path d="M581.5,456.8c4.5-1.9,7.8,3,8.5,6.8c0.9,4.3,0.2,9.1-1,13.2c-2.4,8.2-7.7,15.4-15,20c-3.3,2.1-0.6,7.5,2.7,5.4
			c10.3-6.5,17.4-17,19.2-29.1c0.9-5.8,0.7-12.5-2.9-17.5c-3.3-4.6-9.1-6.4-14.3-4.2C575.2,452.9,577.9,458.3,581.5,456.8
			L581.5,456.8z"/>
	</g>
	<g>
		<path d="M457,446.3c-16.9-5.1-27.3-22-44.6-26.4c-10.8-2.7-21.7,0.5-32.6-0.1c-10.4-0.6-20.4-3.9-29.9-7.9
			c-19.6-8.4-37.6-19.6-58.1-26c-20.5-6.5-41.9-10.8-59.8-23.4c-18.8-13.2-32.3-32.5-45.4-51.1c-2.2-3.2-6.8,0.8-4.6,4
			c11.7,16.6,23.6,33.3,39.2,46.4c16.8,14.1,37,20.5,57.7,26.5c10.6,3.1,21.1,6.4,31.1,11c9.8,4.5,19.3,9.6,29,14.3
			c9.3,4.5,18.9,8.5,29,10.6c5,1.1,10.1,1.7,15.2,1.7c6,0,11.9-1,17.8-1.1c11.4-0.3,19.9,4.9,28.6,11.7c7.9,6.1,15.6,12.6,25.3,15.5
			C458.7,453.1,460.7,447.4,457,446.3L457,446.3z"/>
	</g>
	<g>
		<path d="M176.5,312.8c-7.7,7.5-2.4,18.6,1.5,26.7c4.8,10,10.2,19.7,16.3,29c12.1,18.7,26.4,35.9,42.8,51.1
			c9.3,8.6,19.1,16.5,29.5,23.8c3.2,2.2,6.6-2.8,3.4-5c-33.6-23.5-61.6-54.8-81-90.9c-2.8-5.1-5.4-10.3-7.7-15.6
			c-1.8-4.1-4.4-10.8-0.6-14.5C183.3,314.6,179.3,310,176.5,312.8L176.5,312.8z"/>
	</g>
	<g>
		<path d="M267.4,441.3c-11-3-22.3-4.3-33.6-3.6c-4.4,0.3-8.9,0.9-12.4,3.8c-3,2.5-4.6,6.3-5.1,10.1c-1.1,9,4.7,16.4,11.4,21.7
			c8.2,6.4,17.6,11.6,26.9,16.2c11.3,5.6,23.1,10,35.2,13.4c3.7,1,5.8-4.7,2-5.7c-11.4-3.1-22.4-7.2-33-12.3
			c-10-4.8-20.5-10.3-28.9-17.5c-3.7-3.2-7.2-7.4-7.6-12.5c-0.4-4.8,1.8-9.1,6.6-10.4c5.4-1.5,11.7-1,17.2-0.6
			c6.5,0.4,13,1.5,19.3,3.3C269.1,448.1,271.1,442.4,267.4,441.3L267.4,441.3z"/>
	</g>
	<g>
		<path d="M287.9,505.6c-10.7,3.2-23.2,0.8-31.9,9.3c-6.9,6.8-6,16.5,1.3,22.5c3.6,2.9,7.9,4.8,12.2,6.3c6,2.2,12,4.1,18.1,5.8
			c12.5,3.4,25.3,5.8,38.2,7.1c3.9,0.4,4.3-5.6,0.4-6c-10.7-1.1-21.3-2.9-31.7-5.5c-9.5-2.4-19.6-4.9-28.4-9.2
			c-3.1-1.5-6.6-3.6-8.2-6.8c-2.1-4.1,0.1-8.3,3.5-10.9c7.7-6,18.8-3.9,27.7-6.6C292.8,510.5,291.6,504.5,287.9,505.6L287.9,505.6z"
			/>
	</g>
	<g>
		<path d="M334.9,549.7c-8.6-1-19.4-1.4-25.4,6.1c-6.8,8.5-2.4,20.2,5.2,26.4c9.1,7.3,22.4,10,33.8,9.6c8.3-0.3,21.6-2.1,22.2-12.8
			c0.1-2.7-3-4.1-5-2.5c-5.5,4.4-7.5,11.5-6.4,18.4c1.2,7.4,6.1,13.4,12.8,16.6c16.8,8.1,34.2-1.4,48-10.8c3.2-2.2-0.8-6.7-4-4.6
			c-11,7.5-24.6,15.5-38.4,11.1c-5.6-1.8-10.5-5.7-12.2-11.5c-1.5-5.3-0.4-11.2,4-14.7c-1.7-0.8-3.3-1.7-5-2.5
			c-0.4,7.5-14.5,7.3-19.5,7.2c-8.7-0.3-18.1-2.3-25.3-7.3c-6-4.2-11.2-13.8-4.6-19.9c4.9-4.5,13.2-3.5,19.3-2.8
			C338.3,556.2,338.7,550.1,334.9,549.7L334.9,549.7z"/>
	</g>
	<g>
		<path d="M386.6,436.4c-7-5.5-16.3-7.5-25-5.9c-7.2,1.3-18.9,6.6-19,15.3c0,4.3,3.2,7.7,6.3,10.3c4.3,3.8,8.7,7.4,13.3,10.8
			c9.5,7.1,19.5,13.5,29.9,19.1c0.9-1.8,1.8-3.6,2.7-5.4c-5.9-1.9-13.4-3.3-19,0.1c-6.2,3.9-6.1,11.6-2.1,17
			c5,6.7,13.7,10.4,21,13.7c8.8,3.9,18.1,6.9,27.5,8.8c3.8,0.8,5.8-4.9,2-5.7c-13.8-2.9-28-7.6-39.9-15.2
			c-3.5-2.2-11.3-8.8-5.8-13.1c3.7-2.9,10.2-1.1,14.2,0.2c3.1,1,5.8-3.7,2.7-5.4c-8.1-4.4-15.9-9.1-23.5-14.4
			c-7.2-5-15.2-10.4-21.2-16.9c-1.4-1.5-2.6-3.1-1.7-5.2c0.7-1.7,2.6-3.1,4.1-4.1c2.9-2,6.2-3.3,9.6-3.9c7.2-1.3,14.6,0.4,20.4,4.9
			C386.3,443.8,389.7,438.8,386.6,436.4L386.6,436.4z"/>
	</g>
	<g>
		<path d="M601.9,461.7c3.6-11.4,11.1-21,21.3-27.2c3.3-2,0.7-7.4-2.7-5.4c-11.6,6.9-20.3,17.7-24.3,30.6
			C595,463.4,600.7,465.4,601.9,461.7L601.9,461.7z"/>
	</g>
	<g>
		<path d="M662.2,421.9c40.2,1,79.4-12.3,113.6-32.8c36.2-21.7,67-51.3,95.7-81.9c4-4.3,8-8.5,11.9-12.8c3.5-3.8,8.3-7.8,10.3-12.7
			c1.6-3.8,1.1-8.2-2.5-10.6c-3.1-2.2-7.4-2-9.6,1.3c-2.2,3.3,2.9,6.6,5,3.4c0.6-0.9,1.9,1.2,2,1.8c0.3,2.1-2.2,4.6-3.5,6
			c-3.2,3.6-6.5,7.1-9.8,10.7c-6.3,6.8-12.6,13.6-19,20.2c-12.8,13.3-26.1,26.1-40.2,38.1C788.4,376,757.2,396,722.3,407
			c-19.3,6.1-39.5,9.4-59.7,8.9C658.7,415.8,658.3,421.8,662.2,421.9L662.2,421.9z"/>
	</g>
	<g>
		<path d="M878.2,303.2c-15,56.8-52,107.2-101.2,139.3c-13.7,8.9-28.4,16.4-43.6,22.3c-3.6,1.4-0.9,6.8,2.7,5.4
			c55.7-21.4,102.6-64.5,129.7-117.6c7.7-15.1,13.9-31,18.2-47.4C884.9,301.4,879.2,299.4,878.2,303.2L878.2,303.2z"/>
	</g>
	<g>
		<path d="M766.5,468c5.3-2,12.1-4.5,17.4-1c5.7,3.7,2.3,11.5,0.1,16.4c-5,10.7-13.9,19.9-22.3,27.9c-17.1,16.3-37.4,28.8-59.5,37
			c-3.7,1.3-0.9,6.8,2.7,5.4c20.3-7.5,39.2-18.7,55.5-33c8-7,15.5-14.7,21.9-23.1c3.3-4.4,6.3-9.1,8.3-14.3
			c1.9-4.6,3.5-10.1,1.8-14.9c-1.7-4.8-6.2-7.7-11-8.7c-6.1-1.2-12,0.9-17.6,3C760.2,463.9,762.9,469.3,766.5,468L766.5,468z"/>
	</g>
	<g>
		<path d="M714.5,552.2c-5,14.3-16.3,33.8-34.7,28.9c-3.8-1-5.8,4.7-2,5.7c9.4,2.5,19.1-0.3,26.4-6.5c8-6.7,12.6-16.5,15.9-26.1
			C721.5,550.5,715.8,548.5,714.5,552.2L714.5,552.2z"/>
	</g>
	<g>
		<path d="M581,581c5.9,15.6,20.6,26.8,36.6,30.3c9.4,2.1,19.2,1.9,28.6-0.2c4.6-1,9.2-2.4,13.6-4.2c4.1-1.6,8.6-3.4,12.1-6.3
			c3.3-2.7,5.2-6.8,4.1-11.1c-0.5-1.7-1.5-3.3-2.9-4.4c-0.8-0.6-1.7-0.9-2.6-1.2c-0.3-0.1-1-0.3-1.3-0.2c-1,0.2-2.3,2.3-3.5,1.9
			c3.7,1.1,5.7-4.6,2-5.7c-3.8-1.2-6.6,2.7-5.3,6.2c0.8,2.2,2.8,2.9,4.9,3.4c2.3,0.5,3.7,1.3,2.8,4c-1,2.8-4.6,4.3-7.1,5.5
			c-2.5,1.2-5,2.3-7.5,3.2c-5.6,2.1-11.4,3.5-17.3,4.2c-21.1,2.4-43.8-7.2-51.7-28C585.1,574.6,579.7,577.3,581,581L581,581z"/>
	</g>
	<g>
		<path d="M636.1,432.6c4.5-2.8,9.1-5.5,13.8-8.1c2.3-1.3,4.7-2.5,7.1-3.7c2.3-1.2,5.5-3,8.2-1.9c3.2,1.3,3.4,5.9,3.3,8.8
			c-0.2,4-1.6,8-3,11.8c-6.4,18-17.8,33.8-32.7,45.8c1.3,1.5,2.7,3,4,4.6c1.1-1,2.1-2.1,3.2-3.1c2.8-2.7-1.2-7.3-4-4.6
			c-1.1,1-2.1,2.1-3.2,3.1c-2.8,2.7,1,7,4,4.6c17.3-14,31-33.8,36.7-55.5c1.9-7.2,2-18.3-6.6-21.2c-5.7-1.9-11.5,1.7-16.4,4.3
			c-5.8,3-11.5,6.3-17.1,9.8C630.1,429.2,632.8,434.6,636.1,432.6L636.1,432.6z"/>
	</g>
	<g>
		<path d="M643.6,499.6c3.9-0.7,7.6,2,9,5.5c1.9,4.7-1.8,8.1-4.5,11.5c-4.1,5.2-6.2,15.2,1.9,17.9c3.7,1.2,5.7-4.5,2-5.7
			c-4.6-1.5,0.7-8.2,2.1-10c2.9-3.5,5.5-7.2,5.1-12c-0.7-8.2-8.6-14.6-16.8-13.1C638.6,494.4,639.8,500.3,643.6,499.6L643.6,499.6z"
			/>
	</g>
	<g>
		<path d="M471.7,499.7c-24.2,10.9-29.1,39.6-26.1,63.3c3.1,24.2,11.9,47.9,24.8,68.6c7.2,11.5,15.7,22.2,25.4,31.8
			c2.8,2.7,7.3-1.2,4.6-4c-16-15.8-28.8-34.7-37.5-55.4c-4.4-10.4-7.6-21.2-9.8-32.3c-2.5-12.7-3.8-26.1-0.5-38.8
			c3.1-11.8,10.4-22.6,21.8-27.7C477.9,503.6,475.2,498.1,471.7,499.7L471.7,499.7z"/>
	</g>
	<g>
		<path d="M583.4,509.3c14,17.3,18.9,41.3,13.8,62.9c-2.6,11-7.8,21-15.1,29.7c-7.5,9-16.5,16.6-25.3,24.2
			c-9.8,8.6-19.5,17.5-26.8,28.4c-2.2,3.2,2.8,6.6,5,3.4c13.9-20.5,36-33.4,51.8-52.2c15.2-18.2,21.3-42,17.1-65.3
			c-2.3-12.8-7.7-24.9-15.9-35C585.5,502.3,581,506.3,583.4,509.3L583.4,509.3z"/>
	</g>
	<g>
		<path d="M509.5,553.2c0.4,8.3,7,15.8,15.7,15.9c8.5,0.1,15.6-7.2,16-15.5c0.2-3.9-5.8-4.3-6-0.4c-0.2,5.1-4.3,9.8-9.6,9.9
			c-5.1,0.2-9.8-4.5-10-9.5C515.4,549.7,509.4,549.3,509.5,553.2L509.5,553.2z"/>
	</g>
	<g>
		<path d="M534.2,552.1c1.5,10.8,15.9,13.6,21.4,4.2c2-3.4-3.1-6.8-5-3.4c-2.9,5-9.6,3.8-10.4-2C539.6,547,533.7,548.2,534.2,552.1
			L534.2,552.1z"/>
	</g>
	<g>
		<path d="M542.5,580.8c1.1,3.5,4.3,5.3,7.9,4.8c3.2-0.5,6.2-2.9,6.2-6.3c0-3.9-6-4.3-6-0.4c0,0.4,0,0.4,0.1,0.1
			c-0.1,0.3-0.1,0.3,0,0.1c-0.6,0.7,0.5-0.3-0.2,0.3c-0.3,0.3,0.1,0-0.5,0.2c-0.2,0.1-0.2,0.1,0,0c-0.2,0-0.4,0.1-0.6,0.1
			c-0.7,0.1,0.3,0-0.4,0c-0.2,0-0.4,0-0.6-0.1c0.3,0.1,0.3,0,0,0c-0.2-0.1-0.3-0.1-0.3-0.2c0.1,0.1,0.2,0.2,0.3,0.3
			c-0.2-0.3-0.2-0.3-0.1-0.1c-0.5-1.6-1.9-2.7-3.6-2.4C543.3,577.6,542,579.3,542.5,580.8L542.5,580.8z"/>
	</g>
	<g>
		<path d="M571,567.5c4.9,1,8.9-5.2,6.5-9.3c-0.8-1.4-2.5-2.1-4.1-1.4c-1.4,0.7-2.2,2.6-1.4,4.1c0.3,0.6,0-0.5,0.1,0.1
			c0.1,0.8,0-0.7,0,0.1c0-0.6,0-0.2-0.1,0.1c0.1-0.5,0-0.1-0.1,0.1c-0.3,0.5,0.2-0.4-0.1,0.1c-0.3,0.5,0.3-0.3-0.2,0.1
			c0.3-0.2,0.4,0,0,0c-0.2,0-0.2,0,0.2,0c-0.2,0-0.3,0-0.5-0.1c-1.6-0.3-3.1,1.3-3.2,2.8C568.1,566.1,569.4,567.2,571,567.5
			L571,567.5z"/>
	</g>
	<g>
		<path d="M562.9,451.2c-3.6,3.5-4.7,9.2-1.9,13.6c1,1.6,3.2,2.4,4.7,0.9c4.2-3.9,4.6-10.2,1.2-14.7c-0.9-1.1-2.4-1.2-3.6-0.7
			c-5,1.9-7,7.8-5,12.5c1.5,3.6,6.9,0.9,5.4-2.7c-0.8-1.9,0.6-3.7,2.3-4.3c-1.2-0.2-2.4-0.5-3.6-0.7c1.4,1.8,1,4.6-0.6,6.1
			c1.6,0.3,3.1,0.6,4.7,0.9c-1.3-2-1.3-4.6,0.5-6.3C569.7,453.1,565.7,448.5,562.9,451.2L562.9,451.2z"/>
	</g>
	<g>
		<path d="M487.1,452.5c3.4-2.1,6.9-3,10.9-2.5c3.9,0.5,4.3-5.6,0.4-6c-4.9-0.6-9.8,0.5-14,3.1C481.2,449.2,483.9,454.6,487.1,452.5
			L487.1,452.5z"/>
	</g>
	<g>
		<path d="M483.5,640.1c-10.6-7.7-18.5,7.1-21.9,14.9c-3.8,8.8-6.1,19.8,0.9,27.6c2.6,2.9,7.2-1.1,4.6-4c-4.8-5.3-3.2-12.7-0.9-18.8
			c1.6-4.3,7.2-19.5,13.9-14.7C483.3,647.4,486.7,642.4,483.5,640.1L483.5,640.1z"/>
	</g>
	<g>
		<path d="M476,649.6c-7.4,5.9-10.6,16.2-7.5,25.2c1.2,3.6,7.2,2.5,5.9-1.2c-2.4-7.1-0.3-14.8,5.6-19.5
			C483.1,651.7,479.1,647.1,476,649.6L476,649.6z"/>
	</g>
	<g>
		<path d="M483.8,653.7c-3.1,5.6-4,12-1.9,18.1c1.2,3.6,7.2,2.5,5.9-1.2c-1.5-4.5-1.4-9.2,1-13.4
			C490.7,653.8,485.7,650.3,483.8,653.7L483.8,653.7z"/>
	</g>
	<g>
		<path d="M553,641.4c8.2,2.2,11.5,12.9,6.2,19.4c-2.5,3,2.5,6.4,5,3.4c7.8-9.4,2.5-25.4-9.2-28.5
			C551.3,634.7,549.3,640.4,553,641.4L553,641.4z"/>
	</g>
	<g>
		<path d="M549.9,651.7c1.5,4.8,1.6,9.5,0,14.3c-1.2,3.7,4.5,5.7,5.7,2c1.9-5.7,2-11.7,0.2-17.5C554.7,646.8,548.7,648,549.9,651.7
			L549.9,651.7z"/>
	</g>
	<g>
		<path d="M467.7,627.8c-1.2,19.6-5.7,38.9-13.5,57c-3.9,9-8.5,17.6-13.9,25.8c-5.2,7.9-11.6,15.1-14.5,24.3c-1.2,3.7,4.5,5.7,5.7,2
			c2.9-9.3,9.9-16.7,15.1-24.8c5.3-8.4,9.9-17.2,13.7-26.3c7.6-18.2,12.1-37.8,13.3-57.5C474,624.3,468,623.9,467.7,627.8
			L467.7,627.8z"/>
	</g>
	<g>
		<path d="M438.3,720.3c-6.4,6.3-8.5,16.2-4.6,24.4c3.7,7.9,12.7,12.4,21.2,11.6c10.4-1,18.6-10.6,25.3-17.7
			c7.8-8.2,14.7-17,20.9-26.5c2.1-3.3-2.9-6.7-5-3.4c-4.9,7.5-10.2,14.6-16.1,21.2c-5.7,6.4-12.1,13.9-19.5,18.2
			c-6.2,3.6-14.4,2.5-19.2-3.1c-5-5.8-4.2-15,1.1-20.3C445,722.2,441,717.6,438.3,720.3L438.3,720.3z"/>
	</g>
	<g>
		<path d="M480.5,733.7c2.5,6.5,5.5,13.3,12.1,16.5c6.4,3,12.5,0.9,16.9-4.2c10.1-11.8,16.3-27,19.2-42.1c0.7-3.8-5.3-4.2-6-0.4
			c-2.4,12.1-7.2,23.7-14.3,33.9c-3,4.4-6.8,10.2-12.9,7.5c-5.5-2.4-7.6-8.7-9.6-13.9C484.5,727.4,479.1,730.1,480.5,733.7
			L480.5,733.7z"/>
	</g>
	<g>
		<path d="M525.4,713.1c1.4,7.4,4.3,14.4,8.5,20.6c3.7,5.4,9.6,12.5,16.4,13.7c7.3,1.3,12.5-5.6,15.7-11.2
			c3.8-6.9,5.7-14.6,5.3-22.5c-0.2-3.8-6.2-4.3-6-0.4c0.3,6-0.6,11.8-3.1,17.3c-2,4.5-6.7,13.3-12.7,10.1
			c-4.9-2.6-9.1-7.9-11.9-12.5c-3.1-5-5.1-10.5-6.2-16.2C530.7,708.1,524.7,709.3,525.4,713.1L525.4,713.1z"/>
	</g>
	<g>
		<path d="M565.1,667.4c3.6,8.1,7.2,16.2,10.7,24.4c2.5,5.7,6.1,15.7-1.7,19c-3.6,1.5-0.9,6.9,2.7,5.4c8.4-3.5,9.3-13.6,6.8-21.2
			c-3.4-10.4-8.7-20.3-13-30.3C568.9,661.2,563.5,663.9,565.1,667.4L565.1,667.4z"/>
	</g>
	<g>
		<path d="M497.6,641.6c3.9,0.3,4.3-5.8,0.4-6C494.1,635.3,493.7,641.3,497.6,641.6L497.6,641.6z"/>
	</g>
	<g>
		<path class="st3" d="M497.1,451.3c0,0.4-0.1,0.9-0.1,1.3c0,0.8,0.2,1.6,0.7,2.2c0.5,0.6,1.3,1,2.1,1c0.8,0,1.6-0.2,2.2-0.7
			c0.6-0.6,1-1.3,1-2.1c0-0.4,0.1-0.9,0.1-1.3c0-0.8-0.2-1.6-0.7-2.2c-0.5-0.6-1.3-1-2.1-1c-0.8,0-1.6,0.2-2.2,0.7
			C497.5,449.8,497.1,450.5,497.1,451.3L497.1,451.3z"/>
	</g>
	<g>
		<path class="st3" d="M562.8,460c3.9,0.3,4.3-5.8,0.4-6C559.3,453.8,558.9,459.8,562.8,460L562.8,460z"/>
	</g>
	<g>
		<path d="M676.9,483c10.1-6.1,21.6-9,33.4-8.2c-0.8-1.6-1.5-3.1-2.3-4.7c-4.7,8.5-11.7,15.1-20.5,19.1c-3.5,1.6-0.8,7,2.7,5.4
			c9.7-4.4,17.7-11.8,22.8-21.1c1.1-2,0.2-4.6-2.3-4.7c-12.8-0.8-25.5,2.2-36.5,8.9C670.9,479.6,673.5,485.1,676.9,483L676.9,483z"
			/>
	</g>
</g>
</svg>
