<svg version="1.1" id="Layer_1" xmlns="http://www.w3.org/2000/svg" x="0" y="0" viewBox="0 0 1000 1000" xml:space="preserve"><style>.st0,.st2{opacity:.7;fill:#f0f5f4}.st2{fill:#aed1c8}</style><path class="st0" d="M414.7 425.4c-19.1-2-38.6 1.9-57.5-1.3-15.9-2.7-30.5-10.2-44.9-17.7-40.2-20.9-80.3-41.8-120.5-62.7 26.4 30.9 52.8 61.7 79.2 92.6 4.6 5.4 8.6 14.8 2.5 18.2-5.5 3.1-11.9-3.6-18.2-3.3-9.5.5-10.3 15.9-2.9 21.9 7.4 6 17.7 6.1 26.9 8.8 9.1 2.6 18.7 11 15.8 20.1-2 6.4-9.2 9.6-12.8 15.3-6.7 10.6 2.5 25.5 14.6 29.1 12 3.6 24.9-.3 36.8-4.3-11.6 5.9-14.7 23.7-5.8 33.2 8.9 9.5 26.9 7.4 33.4-3.8 3.7 18.3 21.9 32.5 40.5 31.6 18.6-.9 35.4-16.8 37.3-35.4 1.2-12-3-24.2-.6-36 3-14.6 15.5-25.1 22.8-38 17.8-31.3-17.2-65.2-46.6-68.3z"/><path class="st0" d="M437.7 557.1c5 27.7 29.3 49 33.9 76.7 4.9 29.7-13.6 57.5-25.2 85.3-2.6 6.1-4.7 13.5-1.1 19 3.8 5.7 12.2 6.5 18.4 3.5s10.5-8.6 14.6-14c1.5 12.2 19.5 15.8 29.4 8.4 9.9-7.3 13.4-20.3 16.3-32.3 3.3 9.1 7.1 18.8 15.1 24.2s21.5 3.6 24.3-5.7c1.3-4.2.2-8.8 1.5-12.9 1.4-4.1 7.8-6.7 9.8-2.9 5.5-8.3 1.7-19.7-4.1-27.8s-13.7-15-17.2-24.3c-4.8-12.6-.5-27.3 7.7-38.1 8.1-10.8 19.6-18.5 30.9-26 10 12.5 27.1 18.8 42.8 16.1s29.6-14.5 34.9-29.6c8.6 4.9 20.2 4 28-2.1 7.8-6.1 11.4-17.1 8.7-26.7 8.9-12.1 23.1-18.8 36.2-26.2s26.3-17.2 30.5-31.6c4.2-14.4-6.2-33.3-21.2-31.8 54.4-33.1 96.1-86.5 115.2-147.3-36.2 39.3-74.7 80-125.4 96.9-26.7 8.9-55.3 10.6-82.3 18.6-27 8-54 24.8-62.6 51.6-2.9-12.3-14.5-22.1-27.1-22.8 12.2-18-2.9-45.2-24.2-49.7-40.9-8.6-60 33.5-72.5 63.5-12 28.6-41.1 55.8-35.3 88z"/><path d="M527.7 478.9l-9.6 9.9c4.7 3.3 7.8 8.7 8.4 14.4 4.2-4.5 8.5-9.1 12.7-13.6-2.9-6-8.5-10.6-15-12.1m-53.5 167.9c-6.3 11.5-5.7 26.3 1.4 37.3 13.1-4.9 20.7-21 16.1-34.2m57.7-3.7c7.8 5-1 20.4 6.8 25.3 5.1 3.2 11.6-2.5 13-8.3 2.5-10.5-4.6-22.3-15.1-24.8" fill="#ffc400" opacity=".7"/><path class="st2" d="M628.7 440.4c9.6-8.1 21.2-13.8 33.5-16.5-1 20.6-7.8 41-19.5 58-2.1 3.1-4.9 6.4-8.6 6.9-6.7.8-10.7-7.3-11.3-14-1.7-18 6-36.6 19.9-48.1m-12.4 80.2c-.9-4.4 4.5-8.3 8.8-7.1 4.4 1.2 7.1 5.7 7.8 10.2.7 4.5 0 9-.3 13.5s-.1 9.1-1.8 13.2c-1.8 4.1-6.4 7.5-10.6 6s-4.7-9.1-.3-9.9"/><path class="st2" d="M643 541.4c1.9-.5 3.8-.9 5.7-1.4 5.5 5.8 6.8 15.1 3.1 22.2-3.7 7.1-12.1 11.3-20 10.2 6.6-10.8 8.5-24.4 4.9-36.6m37.9-53.2c6.7-1.9 11.8-7.2 17.9-10.6 6.1-3.4 15.2-3.9 18.8 2 3.6 5.9-.8 13.5-5.9 18.1-5.6 5.1-13 9.1-20.4 7.6-7.4-1.5-13.2-10.6-9.1-16.9m-313.6-48.9c-3.9 2.3-6.9 6.8-6.2 11.3.7 4.4 4.4 7.5 8 10.1 8.8 6.5 18.1 12.3 27.8 17.4-5.5.2-8.9 6.8-7.8 12.1 1.2 5.3 5.5 9.4 9.9 12.6 11.8 8.5 27.7 14.8 42.3 13.8-7.7-9.4-15.8-18-16.6-30.8-.6-9.3 5.6-18.5 4.5-27.5-2.4-21.5-45.9-28.4-61.9-19zm23 139.3c-7.1 1.9-11.6 10.3-9.3 17.3 2.3 7 10.9 11 17.8 8.3 6.8-2.7 10.4-11.5 7.3-18.2m54.5 118.2c-7.7 9.4-13.8 20.2-17.9 31.6-1.9 5.2-2.7 12.4 2.2 15 3.6 1.9 8.1-.2 11.4-2.6 14.7-10.6 24.4-28.1 25.5-46.2m19.5 18.4c-2 4.5-3.8 10.1-.6 13.8 3.4 3.9 10.4 2.1 13.4-2.2s3.1-9.9 3.2-15.1m23.7-1.7c1 4.5 2.1 9.2 4.9 12.9s8 6 12.2 4.2c5-2.1 6.5-8.6 6.3-14s-1.4-11.2 1-16.2"/><path d="M485.6 453.1c1.6-11.2 5.8-22 12.1-31.4 3.2-4.7 6.8-9 11-12.9 2-1.9 4.2-3.7 6.4-5.4 2.4-1.8 5.5-4.5 8.6-3.2 3.6 1.5 5.6-4.3 2-5.7-6.5-2.6-12.8 2.8-17.5 6.7-5.1 4.3-9.8 9.2-13.7 14.6-8 10.9-13 23.6-15 36.9-.5 3.9 5.6 4.3 6.1.4z"/><path d="M524.1 400.3c-.6-3.8-1.2-7.5-1.9-11.2-.3-2-.7-4-1-6-.1-.8-.2-1.9-.4-2.6-.1-.4-.2-.9-.2-1.3-.7.4-.7.7-.1.8 2.4 2 4.7 3.6 6.4 6.3 1.8 2.6 2.8 5.6 3.4 8.7.7 3.9 6.5 2.6 5.9-1.2.2 1.6-.3-.4.7.4.6.4.5 0 1 .8.9 1.7-.9 4.9-1.6 6.4-1.7 3.4 3.3 6.9 5 3.4 2.4-4.8 5.3-13.4-1.6-16.1-4.6-1.8-10.2 1-9.5 6.3 2-.4 4-.8 5.9-1.2-.9-4.6-2.7-8.8-5.5-12.5-2.4-3.2-6.4-7.4-10.6-7.6-5.5-.4-5.8 4.6-5.1 8.7 1.1 6.4 2.1 12.8 3.2 19.2.7 3.8 6.6 2.6 6-1.3z"/><path d="M542.2 401.5c9.5-.8 17.8 6.5 21.7 14.5 4.7 9.4 5 20.2 5.3 30.5.1 3.9 6.2 4.3 6 .4-.4-12.2-.8-25.5-7.4-36.2-5.8-9.4-15.6-16-26.9-15.1-3.8.3-2.5 6.2 1.3 5.9zm-48.7 48c-1.4 5.2-.9 10.4 1.7 15.2.9 1.6 3.2 2.3 4.7.9 4.4-4.2 5.7-11.1 2.6-16.5-3.7-6.2-11.7.4-8.8 6.1 1.8 3.5 7.2.8 5.4-2.7.1.1-.1.1-.1.1-.7-.3-1.4-.7-2.1-1 2.1 2.9 1.6 7.1-1 9.5 1.6.3 3.1.6 4.7.9-1.8-3.3-2.3-6.9-1.4-10.5 1-3.8-4.7-5.8-5.7-2z"/><path d="M561.7 449.5c0 2.3-.1 4.6-.1 6.9 0 2.1 1.6 3.3 3.6 3.2 3.1-.3 5.1-3.4 5.2-6.3.1-3.4-1.9-6.2-5.3-6.8-1.6-.3-3.1 1.3-3.2 2.8-.1 1.8 1.2 2.9 2.8 3.2-.4-.1-.4-.1-.1 0-.2 0-.4-.2-.5-.3.5.4-.2-.4.1.1.1.3.1.3 0-.1 0 .2.1.3.1.5 0 .6.1-.5 0 .3s.1-.3 0 .3c0 .2-.1.3-.2.5.2-.3.2-.4.1-.2s-.1.1.1-.1c-.3.2-.2.2.1 0-.3.1-.3.1.1 0-.2 0-.3.1-.5.1 1.2 1.1 2.4 2.1 3.6 3.2 0-2.3.1-4.6.1-6.9.1-3.9-5.9-4.3-6-.4zm-42.1 32.6c-1.9 2.6-3.7 5.3-5.6 7.9-1.2 1.7-.3 3.9 1.5 4.6 6.2 2.5 9.9 8.8 9.2 15.4-.3 3.6 4.5 4.1 5.9 1.2 2.5-5.6 5.1-11.2 7.7-16.8 1.6-3.5-4.1-5.5-5.7-2-2.5 5.6-5.1 11.2-7.7 16.8 2 .4 3.9.8 5.9 1.2.9-9.3-4.7-18.1-13.3-21.5.5 1.5 1 3 1.5 4.6 1.9-2.6 3.7-5.3 5.6-7.9 2.3-3.3-2.7-6.7-5-3.5zm-36.1-23.3c-5.6-3.1-11.6-.4-15.2 4.4-3.9 5.2-4.5 12.5-3.5 18.6 2.6 14.8 14.7 24.7 25.9 33.4 3.1 2.4 6.5-2.6 3.4-5-8.3-6.5-17.2-13.3-21.5-23.2-2-4.5-2.9-9.8-1.9-14.7.8-3.5 4.6-11.1 9.3-8.5 3.5 1.8 6.9-3.2 3.5-5zm98-2c4.5-1.9 7.8 3 8.5 6.8.9 4.3.2 9.1-1 13.2-2.4 8.2-7.7 15.4-15 20-3.3 2.1-.6 7.5 2.7 5.4 10.3-6.5 17.4-17 19.2-29.1.9-5.8.7-12.5-2.9-17.5-3.3-4.6-9.1-6.4-14.3-4.2-3.5 1.5-.8 6.9 2.8 5.4zM457 446.3c-16.9-5.1-27.3-22-44.6-26.4-10.8-2.7-21.7.5-32.6-.1-10.4-.6-20.4-3.9-29.9-7.9-19.6-8.4-37.6-19.6-58.1-26-20.5-6.5-41.9-10.8-59.8-23.4-18.8-13.2-32.3-32.5-45.4-51.1-2.2-3.2-6.8.8-4.6 4 11.7 16.6 23.6 33.3 39.2 46.4 16.8 14.1 37 20.5 57.7 26.5 10.6 3.1 21.1 6.4 31.1 11 9.8 4.5 19.3 9.6 29 14.3 9.3 4.5 18.9 8.5 29 10.6 5 1.1 10.1 1.7 15.2 1.7 6 0 11.9-1 17.8-1.1 11.4-.3 19.9 4.9 28.6 11.7 7.9 6.1 15.6 12.6 25.3 15.5 3.8 1.1 5.8-4.6 2.1-5.7z"/><path d="M176.5 312.8c-7.7 7.5-2.4 18.6 1.5 26.7 4.8 10 10.2 19.7 16.3 29 12.1 18.7 26.4 35.9 42.8 51.1 9.3 8.6 19.1 16.5 29.5 23.8 3.2 2.2 6.6-2.8 3.4-5-33.6-23.5-61.6-54.8-81-90.9-2.8-5.1-5.4-10.3-7.7-15.6-1.8-4.1-4.4-10.8-.6-14.5 2.6-2.8-1.4-7.4-4.2-4.6z"/><path d="M267.4 441.3c-11-3-22.3-4.3-33.6-3.6-4.4.3-8.9.9-12.4 3.8-3 2.5-4.6 6.3-5.1 10.1-1.1 9 4.7 16.4 11.4 21.7 8.2 6.4 17.6 11.6 26.9 16.2 11.3 5.6 23.1 10 35.2 13.4 3.7 1 5.8-4.7 2-5.7-11.4-3.1-22.4-7.2-33-12.3-10-4.8-20.5-10.3-28.9-17.5-3.7-3.2-7.2-7.4-7.6-12.5-.4-4.8 1.8-9.1 6.6-10.4 5.4-1.5 11.7-1 17.2-.6 6.5.4 13 1.5 19.3 3.3 3.7.9 5.7-4.8 2-5.9zm20.5 64.3c-10.7 3.2-23.2.8-31.9 9.3-6.9 6.8-6 16.5 1.3 22.5 3.6 2.9 7.9 4.8 12.2 6.3 6 2.2 12 4.1 18.1 5.8 12.5 3.4 25.3 5.8 38.2 7.1 3.9.4 4.3-5.6.4-6-10.7-1.1-21.3-2.9-31.7-5.5-9.5-2.4-19.6-4.9-28.4-9.2-3.1-1.5-6.6-3.6-8.2-6.8-2.1-4.1.1-8.3 3.5-10.9 7.7-6 18.8-3.9 27.7-6.6 3.7-1.1 2.5-7.1-1.2-6z"/><path d="M334.9 549.7c-8.6-1-19.4-1.4-25.4 6.1-6.8 8.5-2.4 20.2 5.2 26.4 9.1 7.3 22.4 10 33.8 9.6 8.3-.3 21.6-2.1 22.2-12.8.1-2.7-3-4.1-5-2.5-5.5 4.4-7.5 11.5-6.4 18.4 1.2 7.4 6.1 13.4 12.8 16.6 16.8 8.1 34.2-1.4 48-10.8 3.2-2.2-.8-6.7-4-4.6-11 7.5-24.6 15.5-38.4 11.1-5.6-1.8-10.5-5.7-12.2-11.5-1.5-5.3-.4-11.2 4-14.7-1.7-.8-3.3-1.7-5-2.5-.4 7.5-14.5 7.3-19.5 7.2-8.7-.3-18.1-2.3-25.3-7.3-6-4.2-11.2-13.8-4.6-19.9 4.9-4.5 13.2-3.5 19.3-2.8 3.9.5 4.3-5.6.5-6zm51.7-113.3c-7-5.5-16.3-7.5-25-5.9-7.2 1.3-18.9 6.6-19 15.3 0 4.3 3.2 7.7 6.3 10.3 4.3 3.8 8.7 7.4 13.3 10.8 9.5 7.1 19.5 13.5 29.9 19.1l2.7-5.4c-5.9-1.9-13.4-3.3-19 .1-6.2 3.9-6.1 11.6-2.1 17 5 6.7 13.7 10.4 21 13.7 8.8 3.9 18.1 6.9 27.5 8.8 3.8.8 5.8-4.9 2-5.7-13.8-2.9-28-7.6-39.9-15.2-3.5-2.2-11.3-8.8-5.8-13.1 3.7-2.9 10.2-1.1 14.2.2 3.1 1 5.8-3.7 2.7-5.4-8.1-4.4-15.9-9.1-23.5-14.4-7.2-5-15.2-10.4-21.2-16.9-1.4-1.5-2.6-3.1-1.7-5.2.7-1.7 2.6-3.1 4.1-4.1 2.9-2 6.2-3.3 9.6-3.9 7.2-1.3 14.6.4 20.4 4.9 3.2 2.4 6.6-2.6 3.5-5zm215.3 25.3c3.6-11.4 11.1-21 21.3-27.2 3.3-2 .7-7.4-2.7-5.4-11.6 6.9-20.3 17.7-24.3 30.6-1.2 3.7 4.5 5.7 5.7 2zm60.3-39.8c40.2 1 79.4-12.3 113.6-32.8 36.2-21.7 67-51.3 95.7-81.9 4-4.3 8-8.5 11.9-12.8 3.5-3.8 8.3-7.8 10.3-12.7 1.6-3.8 1.1-8.2-2.5-10.6-3.1-2.2-7.4-2-9.6 1.3-2.2 3.3 2.9 6.6 5 3.4.6-.9 1.9 1.2 2 1.8.3 2.1-2.2 4.6-3.5 6-3.2 3.6-6.5 7.1-9.8 10.7-6.3 6.8-12.6 13.6-19 20.2-12.8 13.3-26.1 26.1-40.2 38.1-27.7 23.4-58.9 43.4-93.8 54.4-19.3 6.1-39.5 9.4-59.7 8.9-3.9-.1-4.3 5.9-.4 6zm216-118.7c-15 56.8-52 107.2-101.2 139.3-13.7 8.9-28.4 16.4-43.6 22.3-3.6 1.4-.9 6.8 2.7 5.4 55.7-21.4 102.6-64.5 129.7-117.6 7.7-15.1 13.9-31 18.2-47.4.9-3.8-4.8-5.8-5.8-2zM766.5 468c5.3-2 12.1-4.5 17.4-1 5.7 3.7 2.3 11.5.1 16.4-5 10.7-13.9 19.9-22.3 27.9-17.1 16.3-37.4 28.8-59.5 37-3.7 1.3-.9 6.8 2.7 5.4 20.3-7.5 39.2-18.7 55.5-33 8-7 15.5-14.7 21.9-23.1 3.3-4.4 6.3-9.1 8.3-14.3 1.9-4.6 3.5-10.1 1.8-14.9-1.7-4.8-6.2-7.7-11-8.7-6.1-1.2-12 .9-17.6 3-3.6 1.2-.9 6.6 2.7 5.3zm-52 84.2c-5 14.3-16.3 33.8-34.7 28.9-3.8-1-5.8 4.7-2 5.7 9.4 2.5 19.1-.3 26.4-6.5 8-6.7 12.6-16.5 15.9-26.1 1.4-3.7-4.3-5.7-5.6-2zM581 581c5.9 15.6 20.6 26.8 36.6 30.3 9.4 2.1 19.2 1.9 28.6-.2 4.6-1 9.2-2.4 13.6-4.2 4.1-1.6 8.6-3.4 12.1-6.3 3.3-2.7 5.2-6.8 4.1-11.1-.5-1.7-1.5-3.3-2.9-4.4-.8-.6-1.7-.9-2.6-1.2-.3-.1-1-.3-1.3-.2-1 .2-2.3 2.3-3.5 1.9 3.7 1.1 5.7-4.6 2-5.7-3.8-1.2-6.6 2.7-5.3 6.2.8 2.2 2.8 2.9 4.9 3.4 2.3.5 3.7 1.3 2.8 4-1 2.8-4.6 4.3-7.1 5.5-2.5 1.2-5 2.3-7.5 3.2-5.6 2.1-11.4 3.5-17.3 4.2-21.1 2.4-43.8-7.2-51.7-28-1.4-3.8-6.8-1.1-5.5 2.6z"/><path d="M636.1 432.6c4.5-2.8 9.1-5.5 13.8-8.1 2.3-1.3 4.7-2.5 7.1-3.7 2.3-1.2 5.5-3 8.2-1.9 3.2 1.3 3.4 5.9 3.3 8.8-.2 4-1.6 8-3 11.8-6.4 18-17.8 33.8-32.7 45.8 1.3 1.5 2.7 3 4 4.6 1.1-1 2.1-2.1 3.2-3.1 2.8-2.7-1.2-7.3-4-4.6-1.1 1-2.1 2.1-3.2 3.1-2.8 2.7 1 7 4 4.6 17.3-14 31-33.8 36.7-55.5 1.9-7.2 2-18.3-6.6-21.2-5.7-1.9-11.5 1.7-16.4 4.3-5.8 3-11.5 6.3-17.1 9.8-3.3 1.9-.6 7.3 2.7 5.3zm7.5 67c3.9-.7 7.6 2 9 5.5 1.9 4.7-1.8 8.1-4.5 11.5-4.1 5.2-6.2 15.2 1.9 17.9 3.7 1.2 5.7-4.5 2-5.7-4.6-1.5.7-8.2 2.1-10 2.9-3.5 5.5-7.2 5.1-12-.7-8.2-8.6-14.6-16.8-13.1-3.8.7-2.6 6.6 1.2 5.9zm-171.9.1c-24.2 10.9-29.1 39.6-26.1 63.3 3.1 24.2 11.9 47.9 24.8 68.6 7.2 11.5 15.7 22.2 25.4 31.8 2.8 2.7 7.3-1.2 4.6-4-16-15.8-28.8-34.7-37.5-55.4-4.4-10.4-7.6-21.2-9.8-32.3-2.5-12.7-3.8-26.1-.5-38.8 3.1-11.8 10.4-22.6 21.8-27.7 3.5-1.6.8-7.1-2.7-5.5zm111.7 9.6c14 17.3 18.9 41.3 13.8 62.9-2.6 11-7.8 21-15.1 29.7-7.5 9-16.5 16.6-25.3 24.2-9.8 8.6-19.5 17.5-26.8 28.4-2.2 3.2 2.8 6.6 5 3.4 13.9-20.5 36-33.4 51.8-52.2 15.2-18.2 21.3-42 17.1-65.3-2.3-12.8-7.7-24.9-15.9-35-2.5-3.1-7 .9-4.6 3.9zm-73.9 43.9c.4 8.3 7 15.8 15.7 15.9 8.5.1 15.6-7.2 16-15.5.2-3.9-5.8-4.3-6-.4-.2 5.1-4.3 9.8-9.6 9.9-5.1.2-9.8-4.5-10-9.5-.2-3.9-6.2-4.3-6.1-.4z"/><path d="M534.2 552.1c1.5 10.8 15.9 13.6 21.4 4.2 2-3.4-3.1-6.8-5-3.4-2.9 5-9.6 3.8-10.4-2-.6-3.9-6.5-2.7-6 1.2zm8.3 28.7c1.1 3.5 4.3 5.3 7.9 4.8 3.2-.5 6.2-2.9 6.2-6.3 0-3.9-6-4.3-6-.4 0 .4 0 .4.1.1-.1.3-.1.3 0 .1-.6.7.5-.3-.2.3-.3.3.1 0-.5.2-.2.1-.2.1 0 0-.2 0-.4.1-.6.1-.7.1.3 0-.4 0-.2 0-.4 0-.6-.1.3.1.3 0 0 0-.2-.1-.3-.1-.3-.2l.3.3c-.2-.3-.2-.3-.1-.1-.5-1.6-1.9-2.7-3.6-2.4-1.4.4-2.7 2.1-2.2 3.6zm28.5-13.3c4.9 1 8.9-5.2 6.5-9.3-.8-1.4-2.5-2.1-4.1-1.4-1.4.7-2.2 2.6-1.4 4.1.3.6 0-.5.1.1.1.8 0-.7 0 .1 0-.6 0-.2-.1.1.1-.5 0-.1-.1.1-.3.5.2-.4-.1.1-.3.5.3-.3-.2.1.3-.2.4 0 0 0h.2c-.2 0-.3 0-.5-.1-1.6-.3-3.1 1.3-3.2 2.8 0 1.9 1.3 3 2.9 3.3zm-8.1-116.3c-3.6 3.5-4.7 9.2-1.9 13.6 1 1.6 3.2 2.4 4.7.9 4.2-3.9 4.6-10.2 1.2-14.7-.9-1.1-2.4-1.2-3.6-.7-5 1.9-7 7.8-5 12.5 1.5 3.6 6.9.9 5.4-2.7-.8-1.9.6-3.7 2.3-4.3-1.2-.2-2.4-.5-3.6-.7 1.4 1.8 1 4.6-.6 6.1 1.6.3 3.1.6 4.7.9-1.3-2-1.3-4.6.5-6.3 2.7-2.7-1.3-7.3-4.1-4.6zm-75.8 1.3c3.4-2.1 6.9-3 10.9-2.5 3.9.5 4.3-5.6.4-6-4.9-.6-9.8.5-14 3.1-3.2 2.1-.5 7.5 2.7 5.4zm-3.6 187.6c-10.6-7.7-18.5 7.1-21.9 14.9-3.8 8.8-6.1 19.8.9 27.6 2.6 2.9 7.2-1.1 4.6-4-4.8-5.3-3.2-12.7-.9-18.8 1.6-4.3 7.2-19.5 13.9-14.7 3.2 2.3 6.6-2.7 3.4-5z"/><path d="M476 649.6c-7.4 5.9-10.6 16.2-7.5 25.2 1.2 3.6 7.2 2.5 5.9-1.2-2.4-7.1-.3-14.8 5.6-19.5 3.1-2.4-.9-7-4-4.5zm7.8 4.1c-3.1 5.6-4 12-1.9 18.1 1.2 3.6 7.2 2.5 5.9-1.2-1.5-4.5-1.4-9.2 1-13.4 1.9-3.4-3.1-6.9-5-3.5zm69.2-12.3c8.2 2.2 11.5 12.9 6.2 19.4-2.5 3 2.5 6.4 5 3.4 7.8-9.4 2.5-25.4-9.2-28.5-3.7-1-5.7 4.7-2 5.7z"/><path d="M549.9 651.7c1.5 4.8 1.6 9.5 0 14.3-1.2 3.7 4.5 5.7 5.7 2 1.9-5.7 2-11.7.2-17.5-1.1-3.7-7.1-2.5-5.9 1.2zm-82.2-23.9c-1.2 19.6-5.7 38.9-13.5 57-3.9 9-8.5 17.6-13.9 25.8-5.2 7.9-11.6 15.1-14.5 24.3-1.2 3.7 4.5 5.7 5.7 2 2.9-9.3 9.9-16.7 15.1-24.8 5.3-8.4 9.9-17.2 13.7-26.3 7.6-18.2 12.1-37.8 13.3-57.5.4-4-5.6-4.4-5.9-.5z"/><path d="M438.3 720.3c-6.4 6.3-8.5 16.2-4.6 24.4 3.7 7.9 12.7 12.4 21.2 11.6 10.4-1 18.6-10.6 25.3-17.7 7.8-8.2 14.7-17 20.9-26.5 2.1-3.3-2.9-6.7-5-3.4-4.9 7.5-10.2 14.6-16.1 21.2-5.7 6.4-12.1 13.9-19.5 18.2-6.2 3.6-14.4 2.5-19.2-3.1-5-5.8-4.2-15 1.1-20.3 2.6-2.5-1.4-7.1-4.1-4.4z"/><path d="M480.5 733.7c2.5 6.5 5.5 13.3 12.1 16.5 6.4 3 12.5.9 16.9-4.2 10.1-11.8 16.3-27 19.2-42.1.7-3.8-5.3-4.2-6-.4-2.4 12.1-7.2 23.7-14.3 33.9-3 4.4-6.8 10.2-12.9 7.5-5.5-2.4-7.6-8.7-9.6-13.9-1.4-3.6-6.8-.9-5.4 2.7z"/><path d="M525.4 713.1c1.4 7.4 4.3 14.4 8.5 20.6 3.7 5.4 9.6 12.5 16.4 13.7 7.3 1.3 12.5-5.6 15.7-11.2 3.8-6.9 5.7-14.6 5.3-22.5-.2-3.8-6.2-4.3-6-.4.3 6-.6 11.8-3.1 17.3-2 4.5-6.7 13.3-12.7 10.1-4.9-2.6-9.1-7.9-11.9-12.5-3.1-5-5.1-10.5-6.2-16.2-.7-3.9-6.7-2.7-6 1.1zm39.7-45.7c3.6 8.1 7.2 16.2 10.7 24.4 2.5 5.7 6.1 15.7-1.7 19-3.6 1.5-.9 6.9 2.7 5.4 8.4-3.5 9.3-13.6 6.8-21.2-3.4-10.4-8.7-20.3-13-30.3-1.7-3.5-7.1-.8-5.5 2.7zm-67.5-25.8c3.9.3 4.3-5.8.4-6-3.9-.3-4.3 5.7-.4 6z"/><path d="M497.1 451.3c0 .4-.1.9-.1 1.3 0 .8.2 1.6.7 2.2.5.6 1.3 1 2.1 1s1.6-.2 2.2-.7c.6-.6 1-1.3 1-2.1 0-.4.1-.9.1-1.3 0-.8-.2-1.6-.7-2.2-.5-.6-1.3-1-2.1-1s-1.6.2-2.2.7c-.6.6-1 1.3-1 2.1zm65.7 8.7c3.9.3 4.3-5.8.4-6-3.9-.2-4.3 5.8-.4 6z" fill="#fff"/><path d="M676.9 483c10.1-6.1 21.6-9 33.4-8.2-.8-1.6-1.5-3.1-2.3-4.7-4.7 8.5-11.7 15.1-20.5 19.1-3.5 1.6-.8 7 2.7 5.4 9.7-4.4 17.7-11.8 22.8-21.1 1.1-2 .2-4.6-2.3-4.7-12.8-.8-25.5 2.2-36.5 8.9-3.3 1.9-.7 7.4 2.7 5.3z"/></svg>