<?xml version="1.0" encoding="utf-8"?>
<!-- Generator: Adobe Illustrator 23.0.2, SVG Export Plug-In . SVG Version: 6.00 Build 0)  -->
<svg version="1.1" id="Layer_1" xmlns="http://www.w3.org/2000/svg" xmlns:xlink="http://www.w3.org/1999/xlink" x="0px" y="0px"
	 viewBox="0 0 1000 1000" style="enable-background:new 0 0 1000 1000;" xml:space="preserve">
<style type="text/css">
	.st0{opacity:0.7;fill:#A67108;}
	.st1{opacity:0.7;fill:#EBF5F7;}
	.st2{opacity:0.7;fill:#F74545;}
</style>
<g>
	<path class="st0" d="M418.1,794.8c82.3,4.8,164.6-5.3,246.4-15.3c25.9-3.2,32.5,1.6,54.5-12.4s31-42,34-68
		c-88.5,26.5-172.1,37.4-263,21.2c-38-6.8-193.8-86.2-190.7-43.3C305.1,759.5,377.8,793.4,418.1,794.8z"/>
	<path class="st1" d="M345,424.8c22-70.1,63.1-134.8,120.3-181c-25.8,115.4-30.4,235.6-13.2,352.7c39.5,77.9-72.2,31-76.5,30.2
		c-42.9-7.8-45-7.9-46.2-21.4C324.5,552.1,329.8,473.3,345,424.8z"/>
	<path class="st1" d="M524.5,387.8c1.6,81.3-1,162.6-7.9,243.6c20.7-8.5,41.9-15.7,63.5-21.3c22.1-5.8,32.8-30.6,22-50.7
		c-2.8-5.2-5.1-10.2-6.5-14.6c-29.6-89.7-69.7-230.2-72.1-269.4"/>
	<path class="st2" d="M647.4,165.7c-16.4-2.9-40.9-14.4-63.8-18.4c-12.3-6.9-25.4-12.4-39-16.2c-5.3-1.5-10.8-2.7-16.2-1.7
		c-10.8,2-18.4,12.6-20.4,23.4c-2,10.9,0.5,22,3,32.7c8.2,0.4,16.5,0.6,24.8,0.6c14,6.1,46.2,0.6,68-4.7c5.3-0.7,10.7-1.6,16-2.5
		l-0.9-1.6c1.5-0.5,2.8-0.9,3.9-1.2C631.3,173.2,639.5,169.8,647.4,165.7z"/>
	<g>
		<path d="M324.4,630.6c-15.9-61.1-12.2-126.1,6.2-186.3c16.1-52.5,46.2-99.8,79.1-143.4c17.9-23.7,37.1-46.5,57.8-67.8
			c3.6-3.7-2-9.3-5.6-5.6C423.3,267,389,311.7,360.8,359.2c-13.7,23.1-25.9,47.2-34.5,72.6c-10.3,30.3-16.8,62-19,93.9
			c-2.6,35.9,0.4,72.1,9.5,107C318,637.6,325.7,635.5,324.4,630.6L324.4,630.6z"/>
	</g>
	<g>
		<path d="M480.7,216.2c-12.2,16.9-17.4,37.4-20.2,57.7c-3.2,23.3-4.8,46.9-6.2,70.4c-2.1,35.5-3.1,71.1-1.8,106.7
			c1.1,29.2,3.2,58.3,6,87.4c3.1,31.5,7.1,63,13.3,94c2.6,13.2,5.7,26.3,9.7,39.2c3.1,10.1,6.8,20.3,12,29.5c1,1.8,2.1,3.5,3.3,5.2
			c2.9,4.2,9.8,0.2,6.9-4c-5.4-7.7-9-16.5-12.1-25.4c-4.1-11.9-7.3-24.2-10-36.5c-6.6-29.8-10.7-60.2-14-90.5
			c-3.2-29.6-5.5-59.3-6.8-89c-1.4-31.6-1.2-63.2,0.2-94.8c1.1-24.5,2.8-49,5.2-73.4c2-20.1,4.5-40.9,13.4-59.3
			c2.2-4.6,4.9-8.9,7.8-13C490.6,216.1,483.7,212.1,480.7,216.2L480.7,216.2z"/>
	</g>
	<g>
		<path d="M332.2,657.2c38.5-10.4,82-4.6,118,11.7c11.6,5.3,22.7,11.8,32.9,19.5c4.1,3.1,8-3.8,4-6.9c-35.4-26.6-81.5-39.6-125.6-37
			c-10.6,0.6-21.1,2.2-31.4,5C325.1,650.9,327.2,658.6,332.2,657.2L332.2,657.2z"/>
	</g>
	<g>
		<path d="M497.6,207c-0.7,82.7-1.4,165.4-2.1,248.1c-0.2,23.3-0.4,46.6-0.6,70c0,5.1,7.9,5.1,7.9,0c0.7-82.7,1.4-165.4,2.1-248.1
			c0.2-23.3,0.4-46.6,0.6-69.9C505.6,201.9,497.6,201.9,497.6,207L497.6,207z"/>
	</g>
	<g>
		<path d="M499,269.6c19.7,80.8,26.9,164.4,21.3,247.4c-1.6,23.2-4.1,46.3-7.7,69.3c-0.8,5,6.9,7.2,7.7,2.1
			c12.9-83.3,13-168.2,0.2-251.5c-3.6-23.3-8.2-46.5-13.8-69.4C505.5,262.5,497.8,264.6,499,269.6L499,269.6z"/>
	</g>
	<g>
		<path d="M504.3,135.6c2.9-2.4,1.2-7.1-2.2-8c-4.1-1.1-6.2,2.9-6.4,6.3c-0.4,10.2,0.4,20.6,0.6,30.8c0.4,20.8,0.8,41.6,1.2,62.3
			c0.1,5.1,8,5.1,7.9,0c-0.3-15.8-0.6-31.5-0.9-47.2c-0.1-7.7-0.3-15.3-0.5-23c-0.1-3.9-0.2-7.9-0.2-11.8c0-2-0.1-3.9-0.1-5.9
			c0-0.9,0-1.8,0-2.6c0-0.8,0.4-2.8-0.3-2.2c-0.9,0.4-1.9,0.8-2.8,1.2c-0.9-1-1.8-1.9-2.8-2.9c0.4-0.9,0.8-1.9,1.2-2.8
			c-0.1,0.1-0.2,0.2-0.3,0.3C494.7,133.2,500.4,138.8,504.3,135.6L504.3,135.6z"/>
	</g>
	<g>
		<path d="M501.4,139.3c22.2-10.6,47.8-4.8,69.8,3c11.9,4.2,23.5,9.1,35.5,12.9c11.5,3.8,24,7.4,36.2,5.1
			c11.4-2.1,21.3-10.9,22.2-22.9c0.4-5.1-7.6-5.1-7.9,0c-0.8,10.4-12,15.5-21.2,15.6c-11.8,0.2-23.7-4.2-34.7-8.1
			c-22.1-7.9-43.8-17.8-67.6-19.2c-12.5-0.7-25,1.2-36.4,6.6C492.8,134.6,496.8,141.5,501.4,139.3L501.4,139.3z"/>
	</g>
	<g>
		<path d="M518.9,194.8c2.4-1,6.8-2.1,10.1-2.6c4.2-0.7,8.4-1,12.6-1.2c10.5-0.6,21-0.7,31.6-1.1c22.6-0.9,46.5-2.7,66.9-13.4
			c11.3-5.9,20.6-14.9,26.5-26.2c2.4-4.5-4.5-8.5-6.9-4c-10.5,20.1-31.4,28.8-52.7,32.5c-21.4,3.8-43.2,2.9-64.8,4.1
			c-9.2,0.5-18.7,1.2-27.2,5C510.2,190,514.3,196.8,518.9,194.8L518.9,194.8z"/>
	</g>
	<g>
		<path d="M287.2,649.2c-0.1,21.5,3.6,43.1,8.5,63.9c4.4,18.7,11.2,37.1,23.7,51.9c6.5,7.7,14.4,14.1,23.5,18.3
			c4.6,2.2,8.6-4.7,4-6.9c-20.7-9.7-32.9-30.1-39.6-51.1c-3.8-11.8-6.2-24-8.4-36.1c-2.4-13.2-3.9-26.6-3.8-40.1
			C295.2,644.1,287.2,644.1,287.2,649.2L287.2,649.2z"/>
	</g>
	<g>
		<path d="M291.3,657.8c5.2-0.5,10.2-0.2,15.2,1.2c4.9,1.3,7-6.3,2.1-7.7c-5.7-1.5-11.5-2.1-17.3-1.5
			C286.3,650.3,286.2,658.3,291.3,657.8L291.3,657.8z"/>
	</g>
	<g>
		<path d="M299.5,653.2c8.6,20,17.3,39.9,25.9,59.9c2,4.7,8.9,0.6,6.9-4c-8.6-20-17.3-39.9-25.9-59.9
			C304.3,644.5,297.4,648.6,299.5,653.2L299.5,653.2z"/>
	</g>
	<g>
		<path d="M344,784.3c6.7,3.8,13.9,6.6,21.3,8.5c5,1.2,7.1-6.4,2.1-7.7c-6.8-1.7-13.3-4.2-19.4-7.7
			C343.5,774.9,339.5,781.8,344,784.3L344,784.3z"/>
	</g>
	<g>
		<path d="M352.9,773c3.7,7,7.4,14,11.1,21c2.4,4.5,9.2,0.5,6.9-4c-3.7-7-7.4-14-11.1-21C357.4,764.5,350.5,768.5,352.9,773
			L352.9,773z"/>
	</g>
	<g>
		<path d="M761.6,694.3c-3,18.4-7.8,35.8-14.3,51.6c-2,5,2.9,9.7,4.9,4.7c6.7-16.5,11.7-34.7,14.9-53.9
			C768,691,762.5,688.5,761.6,694.3L761.6,694.3z"/>
	</g>
	<g>
		<path d="M363.5,798.3c49.4,6.7,99.3,9.6,149.1,8.5c49.6-1.2,99.2-6.2,148-15.2c27.7-5.1,55.2-11.4,82.4-18.9
			c4.9-1.4,2.8-9-2.1-7.7c-47.5,13.2-96.1,22.7-145.2,28.2c-48.8,5.5-98,7.1-147,4.9c-27.8-1.2-55.6-3.7-83.1-7.5
			c-2.1-0.3-4.2,0.5-4.9,2.8C360.2,795.2,361.4,798,363.5,798.3L363.5,798.3z"/>
	</g>
	<g>
		<path d="M361.1,729.6c28,9.8,57.9,14,87.5,12.2c5.1-0.3,5.1-8.2,0-7.9c-29,1.8-58-2.3-85.4-11.9
			C358.4,720.2,356.3,727.9,361.1,729.6L361.1,729.6z"/>
	</g>
	<g>
		<path d="M699.9,755.5c11.8-0.9,23.7-1.8,35.5-2.6c5.1-0.4,5.1-8.3,0-7.9c-11.8,0.9-23.7,1.8-35.5,2.6
			C694.9,747.9,694.8,755.8,699.9,755.5L699.9,755.5z"/>
	</g>
	<g>
		<path d="M496.6,637.5c3.5,20.4,7,40.8,10.6,61.3c0.9,5,8.5,2.9,7.7-2.1c-3.5-20.4-7-40.8-10.6-61.3
			C503.4,630.3,495.8,632.4,496.6,637.5L496.6,637.5z"/>
	</g>
	<g>
		<path d="M537.5,677.5c17.4-28.4,41.2-52.6,69.4-70.4c4.3-2.7,0.3-9.6-4-6.9c-29.3,18.5-54.2,43.7-72.3,73.2
			C528,677.8,534.8,681.8,537.5,677.5L537.5,677.5z"/>
	</g>
	<g>
		<path d="M514.9,235.8c11.9,48.2,25.7,95.8,40,143.3c13,43.3,26.1,86.6,37.1,130.5c6.9,27.7,13.1,55.5,18.4,83.5
			c1,5,8.6,2.9,7.7-2.1c-9.1-47.7-20.7-94.7-34-141.4c-12.5-43.8-26.2-87.2-38.7-131c-8.1-28.2-15.7-56.5-22.8-84.9
			C521.4,228.7,513.7,230.8,514.9,235.8L514.9,235.8z"/>
	</g>
	<g>
		<path d="M496.1,498.4c-1.3,33.7-0.3,67.5,3,101c0.5,5,8.4,5.1,7.9,0c-3.3-33.6-4.2-67.3-3-101
			C504.3,493.3,496.4,493.3,496.1,498.4L496.1,498.4z"/>
	</g>
	<g>
		<path d="M307.8,660.8c24.7,15.9,52.8,25.5,81,33.2c30.4,8.3,61.2,15.6,92.3,21.4c61.1,11.4,123.8,16.1,185.5,6.9
			c33.3-5,65.8-14.2,96.4-28.1c4.6-2.1,0.6-9-4-6.9c-54,24.6-113.9,33.3-172.8,31.9c-62.5-1.5-124.1-14.2-184.4-29.9
			c-31.2-8.2-62.5-17.7-89.9-35.3C307.5,651.1,303.5,658,307.8,660.8L307.8,660.8z"/>
	</g>
</g>
</svg>
