<svg xmlns="http://www.w3.org/2000/svg" viewBox="0 0 1000 1000"><path d="M418.1 794.8c82.3 4.8 164.6-5.3 246.4-15.3 25.9-3.2 32.5 1.6 54.5-12.4s31-42 34-68c-88.5 26.5-172.1 37.4-263 21.2-38-6.8-193.8-86.2-190.7-43.3 5.8 82.5 78.5 116.4 118.8 117.8z" opacity=".7" fill="#a67108"/><path d="M345 424.8c22-70.1 63.1-134.8 120.3-181-25.8 115.4-30.4 235.6-13.2 352.7 39.5 77.9-72.2 31-76.5 30.2-42.9-7.8-45-7.9-46.2-21.4-4.9-53.2.4-132 15.6-180.5zm179.5-37c1.6 81.3-1 162.6-7.9 243.6 20.7-8.5 41.9-15.7 63.5-21.3 22.1-5.8 32.8-30.6 22-50.7-2.8-5.2-5.1-10.2-6.5-14.6-29.6-89.7-69.7-230.2-72.1-269.4" opacity=".7" fill="#ebf5f7"/><path d="M647.4 165.7c-16.4-2.9-40.9-14.4-63.8-18.4-12.3-6.9-25.4-12.4-39-16.2-5.3-1.5-10.8-2.7-16.2-1.7-10.8 2-18.4 12.6-20.4 23.4-2 10.9.5 22 3 32.7 8.2.4 16.5.6 24.8.6 14 6.1 46.2.6 68-4.7 5.3-.7 10.7-1.6 16-2.5l-.9-1.6c1.5-.5 2.8-.9 3.9-1.2 8.5-2.9 16.7-6.3 24.6-10.4z" opacity=".7" fill="#f74545"/><path d="M324.4 630.6c-15.9-61.1-12.2-126.1 6.2-186.3 16.1-52.5 46.2-99.8 79.1-143.4 17.9-23.7 37.1-46.5 57.8-67.8 3.6-3.7-2-9.3-5.6-5.6-38.6 39.5-72.9 84.2-101.1 131.7-13.7 23.1-25.9 47.2-34.5 72.6-10.3 30.3-16.8 62-19 93.9-2.6 35.9.4 72.1 9.5 107 1.2 4.9 8.9 2.8 7.6-2.1zm156.3-414.4c-12.2 16.9-17.4 37.4-20.2 57.7-3.2 23.3-4.8 46.9-6.2 70.4-2.1 35.5-3.1 71.1-1.8 106.7 1.1 29.2 3.2 58.3 6 87.4 3.1 31.5 7.1 63 13.3 94 2.6 13.2 5.7 26.3 9.7 39.2 3.1 10.1 6.8 20.3 12 29.5 1 1.8 2.1 3.5 3.3 5.2 2.9 4.2 9.8.2 6.9-4-5.4-7.7-9-16.5-12.1-25.4-4.1-11.9-7.3-24.2-10-36.5-6.6-29.8-10.7-60.2-14-90.5-3.2-29.6-5.5-59.3-6.8-89-1.4-31.6-1.2-63.2.2-94.8 1.1-24.5 2.8-49 5.2-73.4 2-20.1 4.5-40.9 13.4-59.3 2.2-4.6 4.9-8.9 7.8-13 3.2-4.3-3.7-8.3-6.7-4.2z"/><path d="M332.2 657.2c38.5-10.4 82-4.6 118 11.7 11.6 5.3 22.7 11.8 32.9 19.5 4.1 3.1 8-3.8 4-6.9-35.4-26.6-81.5-39.6-125.6-37-10.6.6-21.1 2.2-31.4 5-5 1.4-2.9 9.1 2.1 7.7zM497.6 207l-2.1 248.1-.6 70c0 5.1 7.9 5.1 7.9 0l2.1-248.1.6-69.9c.1-5.2-7.9-5.2-7.9-.1z"/><path d="M499 269.6c19.7 80.8 26.9 164.4 21.3 247.4-1.6 23.2-4.1 46.3-7.7 69.3-.8 5 6.9 7.2 7.7 2.1 12.9-83.3 13-168.2.2-251.5-3.6-23.3-8.2-46.5-13.8-69.4-1.2-5-8.9-2.9-7.7 2.1zm5.3-134c2.9-2.4 1.2-7.1-2.2-8-4.1-1.1-6.2 2.9-6.4 6.3-.4 10.2.4 20.6.6 30.8.4 20.8.8 41.6 1.2 62.3.1 5.1 8 5.1 7.9 0-.3-15.8-.6-31.5-.9-47.2-.1-7.7-.3-15.3-.5-23-.1-3.9-.2-7.9-.2-11.8 0-2-.1-3.9-.1-5.9v-2.6c0-.8.4-2.8-.3-2.2-.9.4-1.9.8-2.8 1.2-.9-1-1.8-1.9-2.8-2.9.4-.9.8-1.9 1.2-2.8l-.3.3c-4 3.1 1.7 8.7 5.6 5.5z"/><path d="M501.4 139.3c22.2-10.6 47.8-4.8 69.8 3 11.9 4.2 23.5 9.1 35.5 12.9 11.5 3.8 24 7.4 36.2 5.1 11.4-2.1 21.3-10.9 22.2-22.9.4-5.1-7.6-5.1-7.9 0-.8 10.4-12 15.5-21.2 15.6-11.8.2-23.7-4.2-34.7-8.1-22.1-7.9-43.8-17.8-67.6-19.2-12.5-.7-25 1.2-36.4 6.6-4.5 2.3-.5 9.2 4.1 7z"/><path d="M518.9 194.8c2.4-1 6.8-2.1 10.1-2.6 4.2-.7 8.4-1 12.6-1.2 10.5-.6 21-.7 31.6-1.1 22.6-.9 46.5-2.7 66.9-13.4 11.3-5.9 20.6-14.9 26.5-26.2 2.4-4.5-4.5-8.5-6.9-4-10.5 20.1-31.4 28.8-52.7 32.5-21.4 3.8-43.2 2.9-64.8 4.1-9.2.5-18.7 1.2-27.2 5-4.8 2.1-.7 8.9 3.9 6.9zM287.2 649.2c-.1 21.5 3.6 43.1 8.5 63.9 4.4 18.7 11.2 37.1 23.7 51.9 6.5 7.7 14.4 14.1 23.5 18.3 4.6 2.2 8.6-4.7 4-6.9-20.7-9.7-32.9-30.1-39.6-51.1-3.8-11.8-6.2-24-8.4-36.1-2.4-13.2-3.9-26.6-3.8-40.1.1-5-7.9-5-7.9.1z"/><path d="M291.3 657.8c5.2-.5 10.2-.2 15.2 1.2 4.9 1.3 7-6.3 2.1-7.7-5.7-1.5-11.5-2.1-17.3-1.5-5 .5-5.1 8.5 0 8z"/><path d="M299.5 653.2c8.6 20 17.3 39.9 25.9 59.9 2 4.7 8.9.6 6.9-4-8.6-20-17.3-39.9-25.9-59.9-2.1-4.7-9-.6-6.9 4zM344 784.3c6.7 3.8 13.9 6.6 21.3 8.5 5 1.2 7.1-6.4 2.1-7.7-6.8-1.7-13.3-4.2-19.4-7.7-4.5-2.5-8.5 4.4-4 6.9z"/><path d="M352.9 773l11.1 21c2.4 4.5 9.2.5 6.9-4l-11.1-21c-2.4-4.5-9.3-.5-6.9 4zm408.7-78.7c-3 18.4-7.8 35.8-14.3 51.6-2 5 2.9 9.7 4.9 4.7 6.7-16.5 11.7-34.7 14.9-53.9.9-5.7-4.6-8.2-5.5-2.4z"/><path d="M363.5 798.3c49.4 6.7 99.3 9.6 149.1 8.5 49.6-1.2 99.2-6.2 148-15.2 27.7-5.1 55.2-11.4 82.4-18.9 4.9-1.4 2.8-9-2.1-7.7-47.5 13.2-96.1 22.7-145.2 28.2-48.8 5.5-98 7.1-147 4.9-27.8-1.2-55.6-3.7-83.1-7.5-2.1-.3-4.2.5-4.9 2.8-.5 1.8.7 4.6 2.8 4.9zm-2.4-68.7c28 9.8 57.9 14 87.5 12.2 5.1-.3 5.1-8.2 0-7.9-29 1.8-58-2.3-85.4-11.9-4.8-1.8-6.9 5.9-2.1 7.6zm338.8 25.9c11.8-.9 23.7-1.8 35.5-2.6 5.1-.4 5.1-8.3 0-7.9-11.8.9-23.7 1.8-35.5 2.6-5 .3-5.1 8.2 0 7.9zm-203.3-118c3.5 20.4 7 40.8 10.6 61.3.9 5 8.5 2.9 7.7-2.1-3.5-20.4-7-40.8-10.6-61.3-.9-5.1-8.5-3-7.7 2.1zm40.9 40c17.4-28.4 41.2-52.6 69.4-70.4 4.3-2.7.3-9.6-4-6.9-29.3 18.5-54.2 43.7-72.3 73.2-2.6 4.4 4.2 8.4 6.9 4.1zm-22.6-441.7c11.9 48.2 25.7 95.8 40 143.3 13 43.3 26.1 86.6 37.1 130.5 6.9 27.7 13.1 55.5 18.4 83.5 1 5 8.6 2.9 7.7-2.1-9.1-47.7-20.7-94.7-34-141.4-12.5-43.8-26.2-87.2-38.7-131-8.1-28.2-15.7-56.5-22.8-84.9-1.2-5-8.9-2.9-7.7 2.1zm-18.8 262.6c-1.3 33.7-.3 67.5 3 101 .5 5 8.4 5.1 7.9 0-3.3-33.6-4.2-67.3-3-101 .3-5.1-7.6-5.1-7.9 0z"/><path d="M307.8 660.8c24.7 15.9 52.8 25.5 81 33.2 30.4 8.3 61.2 15.6 92.3 21.4 61.1 11.4 123.8 16.1 185.5 6.9 33.3-5 65.8-14.2 96.4-28.1 4.6-2.1.6-9-4-6.9-54 24.6-113.9 33.3-172.8 31.9-62.5-1.5-124.1-14.2-184.4-29.9-31.2-8.2-62.5-17.7-89.9-35.3-4.4-2.9-8.4 4-4.1 6.8z"/></svg>