<?xml version="1.0" encoding="utf-8"?>
<!-- Generator: Adobe Illustrator 23.0.2, SVG Export Plug-In . SVG Version: 6.00 Build 0)  -->
<svg version="1.1" id="Layer_1" xmlns="http://www.w3.org/2000/svg" xmlns:xlink="http://www.w3.org/1999/xlink" x="0px" y="0px"
	 viewBox="0 0 1000 1000" style="enable-background:new 0 0 1000 1000;" xml:space="preserve">
<style type="text/css">
	.st0{opacity:0.7;fill:#B0581A;}
	.st1{opacity:0.7;fill:#FFF5C9;}
	.st2{opacity:0.7;fill:#CCBF7F;}
	.st3{opacity:0.7;fill:#733911;}
	.st4{opacity:0.7;fill:#FF4000;}
	.st5{opacity:0.7;fill:#BA998E;}
</style>
<g>
	<g>
		<path class="st0" d="M466.2,676.9c-6.3-3.6-14.2-4.2-21.7-4.6c-56.4-3.1-113.7-5.5-168.7,5.8c-4.3-8.8,0.9-19.4,9.3-25.5
			c8.3-6.1,19.2-8.7,29.6-11.2c-16.7,4-34.4-4.3-47.6,6.2c-12.9,10.3-20.4,38.7-27.6,52.6c-1,2-2,4.6-0.3,6.2c1.5,1.4,4,1.2,6.1,0.9
			c75-11.5,151.3-15.9,227.3-13.3C476.4,688.4,472.5,680.6,466.2,676.9z"/>
		<path class="st0" d="M744.9,629.7c-0.5,8.5-0.9,16.9-1.4,25.3c-0.1,2.3-0.3,4.8-1.9,6.6c-2.2,2.5-6,2.7-9.4,2.8
			c-54.6,0.4-114.5-5.6-168.3,1.8c0.1,0.7,0.3,4.3,0.6,8.7c-4.4,4.5-8.3,14.1-11.4,16.6c-15.2,12.4-36.4,8.1-54.3,10.2
			c-5.3-9.9-10.9-19.6-17-29.1c-4.9,0.6-7.3,6.9-5.6,11.5s5.8,7.8,9.9,10.6c3.2,2.2,6.5,4.5,8.7,7.5c-1.6,0.3-3.2,0.7-4.8,1.1
			c18.9,14.3,49.8,13.9,69.7,1.5c3.3-2,7.9-6.1,11.3-10.9c57.1-5.1,112-9.9,168.6-1c15.9,2.5,32.3,5.6,48.1,2.5
			C781.4,670,766.1,646.5,744.9,629.7z"/>
	</g>
	<path class="st1" d="M263.4,597c57.4-20.9,120.4-5.6,179.4,9.9c22.5,5.9,47.3,13.5,59.5,34c3.7,6.3,12.3,14.2,15.8,7.7
		c0.7-1.4,0.8-3,0.8-4.5c0.8-48,1.5-96,2.3-144c0.1-8.6,0.2-17.5-2.5-25.6c-3.3-9.9-10.3-17.9-17.7-25.1
		c-29.4-29-102.2-85.3-140.8-46.6c-21.8,21.8-48,52.8-61.2,80.2C281.8,518.6,279.3,560.5,263.4,597z"/>
	<path class="st1" d="M525.5,653.6c63.5-48.7,152.1-82.5,230.9-68.4c-1.9-17.8-7.9-34.8-13.8-51.6c-12.6-35.5-25.2-71-37.7-106.5
		c-0.7-2-1.5-4.2-3.3-5.3c-1.7-1.1-3.9-1-6-0.9c-41.9,3.1-130,15.5-156,54c-10.7,15.9-8.3,45.3-9.7,63.4
		C527.2,572.2,522.9,619.6,525.5,653.6z"/>
	<path class="st2" d="M299,647c-4.3,1.4-8.8,2.9-12.1,6s-5,8.5-2.6,12.4c66.7-20.8,140.2-18.9,205.9,5.2c4.3-4.7,8.6-9.4,12.9-14.2
		c-1.7-13.9-10.3-26.8-22.5-33.6c-8.7-4.9-18.7-6.7-28.5-8.5c-28.6-5.1-57.1-10.3-85.7-15.4c-16.4-3-87.6-18-88.8,9.3
		c-1.3,27.7,56,9.1,70,22.7C332.1,637.7,315.1,641.8,299,647z"/>
	<path class="st2" d="M750.9,663.8c2.2-12.9,1.5-26.2-1.8-38.9c7.3-9.3,7.9-23.4,1.3-33.3c-8-12-98.8,3.2-112,6.5
		c-22.8,5.6-72.6,34.3-96.8,53.4c-27.2,21.5,67.9,17.6,89,17.3C670.8,668.3,710.9,666.7,750.9,663.8z"/>
	<path class="st3" d="M507.4,670.8c-6.6-4.3-16.3,1.9-17,9.8s5.5,15,12.8,17.9c7.3,2.9,15.5,2.4,23.3,1.4c6.3-0.8,12.7-1.9,18.1-5.2
		c5.4-3.3,9.6-9.3,9-15.6c-0.6-6.7-6.3-12.1-12.7-14.2c-6.4-2.1-13.3-1.5-20-0.7c-9.8,1.2-19.4,3-29,5.4"/>
	<path class="st4" d="M244.3,476.3c3,3.2,6.7,5.6,10.8,7.1c-5.3,11.6-10.6,23.1-16.2,34.6c10.5-5.8,22.1-9.5,34-10.7
		c6.3-15.4,15.2-29.7,26.1-42.3c-15.6,1.7-31.2,3.4-46.8,5c-6.9,0.7-14.8,2.1-18.4,8"/>
	<path class="st5" d="M577.8,460.5c-1,18.2-1.9,36.3-2.7,54.5c11.9,4.4,25.6,3.6,36.9-2.2c-0.3-19.4-0.6-38.8-0.9-58.2
		c-14.3,1.6-28.4,4.6-42.2,9"/>
	<g>
		<path d="M352.6,382.1c-41.5,50.4-73.9,108-95.1,169.8c-6,17.5-11.1,35.4-15.3,53.5c-0.8,3.5,2.7,5.8,5.7,4.4
			c35-15.8,74.1-18,111.8-13.7c19.3,2.2,38.4,6.2,57.2,11.1c16.7,4.3,33.7,8.9,49.5,16c16.5,7.4,31.9,17.9,40.6,34.3
			c2.4,4.4,9.1,0.5,6.7-3.9c-16.7-31.4-54-42.7-86-51.5c-38.5-10.6-78.8-18.1-118.9-15.1c-22.4,1.7-44.3,6.8-64.9,16.1
			c1.9,1.5,3.8,2.9,5.7,4.4c14.5-62.6,40.3-122.4,75.9-175.9c10.1-15.2,21-29.8,32.5-43.9C361.3,383.8,355.8,378.3,352.6,382.1
			L352.6,382.1z"/>
	</g>
	<g>
		<path d="M354.5,390.1c50.6,0.9,100.4,20,138.9,52.9c10.8,9.2,20.6,19.5,29.5,30.6c3.1,3.9,8.6-1.6,5.5-5.5
			c-32.3-40.8-79.2-69.5-130-80.6c-14.4-3.1-29.1-4.9-43.9-5.1C349.5,382.2,349.5,390,354.5,390.1L354.5,390.1z"/>
	</g>
	<g>
		<path d="M521.2,468.6c2.7,28,2.7,56.2,2,84.4c-0.6,28.4-1.5,56.7-2.3,85.1c-0.1,5,7.6,5,7.8,0c0.8-28.3,1.7-56.7,2.3-85.1
			c0.6-28.2,0.6-56.3-2-84.4C528.5,463.7,520.8,463.6,521.2,468.6L521.2,468.6z"/>
	</g>
	<g>
		<path d="M531.5,475.2c28.3-36.9,74.2-53.6,118.7-60.4c11.6-1.8,23.3-2.9,35.1-3.5c5.8-0.3,11.7-0.7,17.5-0.5
			c6.8,0.2,11.2,3,14,9.1c2.9,6.2,4.6,13.1,6.7,19.6c2.4,7.4,4.8,14.7,7.2,22.1c4.7,14.5,9.4,28.9,14.1,43.3
			c10.8,33.3,21.7,66.5,32.5,99.8c1.5,4.7,9.1,2.7,7.5-2.1c-10.2-31.3-20.4-62.7-30.7-94c-5.1-15.5-10.1-31.1-15.2-46.6
			c-4.7-14.5-8.7-29.8-14.5-43.9c-2.2-5.2-5.4-10.2-10.6-12.8c-5.6-2.8-12.2-2.4-18.3-2.2c-12.3,0.4-24.5,1.2-36.7,2.7
			c-24.3,3-48.4,8.4-71.1,18c-24.7,10.5-46.6,26.1-63,47.4C521.8,475.3,528.5,479.2,531.5,475.2L531.5,475.2z"/>
	</g>
	<g>
		<path d="M537.4,649.2c50.4-41.7,116.7-62.7,181.9-57.5c18.4,1.5,36.5,5.1,54.1,10.7c4.8,1.5,6.8-6,2.1-7.5
			c-64.4-20.5-135.7-13.4-195.7,17.2c-17.1,8.7-33.1,19.4-47.9,31.6C528.1,646.9,533.6,652.4,537.4,649.2L537.4,649.2z"/>
	</g>
	<g>
		<path d="M297.4,458.6c-12.7-0.1-25.3,1.6-37.5,5.1c-6,1.8-11.8,4-17.5,6.6c-4,1.8-9.8,3.9-9.9,9.2c0,3,2.1,5.1,4.6,6.4
			c1.5,0.8,7.5,1.9,8.2,3.6c0.1,0.3-2.9,4.6-3.3,5.3c-1.7,2.8-3.5,5.7-5.2,8.5c-3.8,6.1-7.6,12.3-11.3,18.4
			c-1.8,2.8,1.2,6.7,4.4,5.7c11-3.4,22-6.7,33-10.1c4.8-1.5,2.7-9-2.1-7.5c-11,3.4-22,6.7-33,10.1c1.5,1.9,2.9,3.8,4.4,5.7
			c6.5-10.6,14.1-21.1,19.7-32.2c3.7-7.3-2.5-11.1-8.5-13.4c-0.4-0.2-2.9-1.5-3.3-1.4c-0.1,0-0.2-0.1-0.3-0.2
			c-0.2,1.5,0.2,1.9,1,1.2c0.9,0,2.5-1.3,3.4-1.7c5.7-2.7,11.6-5,17.7-6.8c11.5-3.4,23.4-4.9,35.4-4.8
			C302.4,466.4,302.4,458.6,297.4,458.6L297.4,458.6z"/>
	</g>
	<g>
		<path d="M359.7,453.2c15.8-4.4,32.4-9,48.8-4.8c15.8,4.1,30.4,13.1,44.9,20.4c4.5,2.2,8.4-4.5,3.9-6.7
			c-15.5-7.8-31.2-17.6-48.2-21.5c-17.3-4-34.7,0.4-51.4,5.1C352.8,447,354.9,454.5,359.7,453.2L359.7,453.2z"/>
	</g>
	<g>
		<path d="M483.2,483.3c2,6.7,8.2,11.3,15.2,11.4c5,0,5-7.8,0-7.8c-3.5,0-6.7-2.3-7.7-5.7C489.2,476.4,481.7,478.5,483.2,483.3
			L483.2,483.3z"/>
	</g>
	<g>
		<path d="M349.5,503c16-2.5,32.2-0.9,47.4,4.5c4.7,1.7,6.8-5.8,2.1-7.5c-16.6-5.9-34.2-7.3-51.5-4.5
			C342.5,496.3,344.6,503.8,349.5,503L349.5,503z"/>
	</g>
	<g>
		<path d="M426.5,505.5c6.6,2.8,13.4,4.2,20.6,4.6c5,0.3,5-7.5,0-7.8c-6.4-0.4-12.6-1.9-18.5-4.4C424,496,422,503.5,426.5,505.5
			L426.5,505.5z"/>
	</g>
	<g>
		<path d="M482.6,525.1c2,1.3,3.9,2.6,5.9,3.9c1.7,1.1,4.4,0.4,5.3-1.4c1-2,0.4-4.1-1.4-5.3c-2-1.3-3.9-2.6-5.9-3.9
			c-1.7-1.1-4.4-0.4-5.3,1.4C480.2,521.8,480.8,523.9,482.6,525.1L482.6,525.1z"/>
	</g>
	<g>
		<path d="M355.5,548.9c20.9-3,42.5-0.2,61.9,8.1c4.5,2,8.5-4.8,3.9-6.7c-21.5-9.2-44.7-12.3-67.9-8.9
			C348.5,542.1,350.6,549.6,355.5,548.9L355.5,548.9z"/>
	</g>
	<g>
		<path d="M569.7,468.6c-1.9,14.3-1,28.7,2.6,42.7c1.2,4.8,8.7,2.8,7.5-2.1c-3.4-13.3-4.1-27-2.3-40.6
			C578.1,463.7,570.3,463.7,569.7,468.6L569.7,468.6z"/>
	</g>
	<g>
		<path d="M584.1,462.6c6.6-1.7,13.2-2.9,19.9-3.6c2.4-0.2,5.4-1,7.8-0.4c3.1,0.8,2.4,5.5,2.5,8c0.5,13.1,0.6,26.3,0.2,39.4
			c-0.1,5,7.7,5,7.8,0c0.2-8.4,0.3-16.8,0.2-25.1c-0.1-4.5-0.2-8.9-0.4-13.4c-0.1-3.4,0.1-7.2-1.1-10.5c-2.4-6.3-8.7-6.5-14.5-6
			c-8.3,0.7-16.4,2.1-24.5,4.1C577.2,456.3,579.3,463.8,584.1,462.6L584.1,462.6z"/>
	</g>
	<g>
		<path d="M639.5,457.2c12.5-3.3,25.3-4.4,38.3-3.5c5,0.4,5-7.4,0-7.8c-13.6-1-27.2,0.3-40.3,3.8C632.5,451,634.6,458.5,639.5,457.2
			L639.5,457.2z"/>
	</g>
	<g>
		<path d="M640.3,502.7c16.4-0.4,32.7-3.2,48.3-8.5c4.7-1.6,2.7-9.1-2.1-7.5c-15,5-30.4,7.8-46.2,8.2
			C635.4,495,635.3,502.8,640.3,502.7L640.3,502.7z"/>
	</g>
	<g>
		<path d="M575.2,578.2c20.3-9.7,41.8-16.6,63.9-20.7c11-2,22.1-3.3,33.3-3.9c9-0.5,21.6-2.3,28.7,4.5c3.6,3.5,9.1-2,5.5-5.5
			c-7.7-7.4-18.7-7.3-28.7-7c-12.1,0.3-24.2,1.6-36.2,3.6c-24.4,4.1-48,11.7-70.4,22.3C566.8,573.6,570.7,580.3,575.2,578.2
			L575.2,578.2z"/>
	</g>
	<g>
		<path d="M576.2,521.6c7.2-1.3,14.5-2.5,21.7-3.8c4.9-0.9,2.8-8.4-2.1-7.5c-7.2,1.3-14.5,2.5-21.7,3.8
			C569.2,514.9,571.3,522.4,576.2,521.6L576.2,521.6z"/>
	</g>
	<g>
		<path d="M267.9,598.6c1.2,11.2,2.3,22.4,3.5,33.5c0.5,4.9,8.3,5,7.8,0c-1.2-11.2-2.3-22.4-3.5-33.5
			C275.2,593.7,267.4,593.6,267.9,598.6L267.9,598.6z"/>
	</g>
	<g>
		<path d="M275.7,632c20.4,0,40.7,0,61.1,0c5,0,5-7.8,0-7.8c-20.4,0-40.7,0-61.1,0C270.7,624.3,270.7,632,275.7,632L275.7,632z"/>
	</g>
	<g>
		<path d="M342.7,627.8c-25.4,0.5-49.9,11.1-67.7,29.2c-3.5,3.6,2,9.1,5.5,5.5c16.4-16.7,38.8-26.5,62.2-27
			C347.7,635.4,347.7,627.7,342.7,627.8L342.7,627.8z"/>
	</g>
	<g>
		<path d="M275.5,652.9c1.2,7.2,2.3,14.5,3.5,21.8c0.8,4.9,8.3,2.8,7.5-2.1c-1.2-7.2-2.3-14.5-3.5-21.8
			C282.2,645.9,274.7,648,275.5,652.9L275.5,652.9z"/>
	</g>
	<g>
		<path d="M283,677.8c14.4-7,30.9-8.3,46.5-10.5c17.3-2.4,34.7-4.5,52.1-5.3c33.3-1.5,66.5,2.7,98.3,12.7c4.8,1.5,6.8-6,2.1-7.5
			c-33-10.3-67.5-14.6-102-12.9c-17.6,0.9-35.1,3.1-52.5,5.5c-16.4,2.3-33.3,3.9-48.4,11.3C274.6,673.2,278.5,680,283,677.8
			L283,677.8z"/>
	</g>
	<g>
		<path d="M388.1,634.6c34.4-3.7,69.2,4,98.8,22c4.3,2.6,8.2-4.1,3.9-6.7c-30.6-18.7-67-26.9-102.7-23.1
			C383.1,627.4,383.1,635.2,388.1,634.6L388.1,634.6z"/>
	</g>
	<g>
		<path d="M496.2,681.4c-0.5-1.5,3.6-5.5,4.5-6.4c2-1.9,4.2-3.4,6.6-4.7c4.7-2.4,10.1-3.6,15.4-3.6c6.1,0,12.2,1.5,17.8,3.8
			c2.9,1.1,5.7,2.5,8.4,4c1.2,0.7,7.8,3.7,8.1,4.6c0.6-1.5,1.2-2.9,1.8-4.4c-0.2,0.1-0.3,0.2-0.5,0.3c1-0.1,2-0.3,3-0.4
			c-0.2-0.1-0.4-0.1-0.6-0.2c1,1.2,1.9,2.5,2.9,3.8c0-0.1,0-0.3,0-0.4c0.1-5-7.7-5-7.8,0c0,0.1,0,0.3,0,0.4c0,1.8,1.2,3.2,2.9,3.8
			c1.5,0.5,2.8,0.3,4-0.5c1.5-1,2.2-2.6,1.8-4.4c-0.9-3.6-4.8-5.3-7.8-7.1c-3.9-2.4-8-4.5-12.3-6.3c-7.8-3.2-16.3-5.3-24.8-4.7
			c-7.2,0.6-14.4,2.8-20.4,7.1c-4.6,3.3-13,10.9-10.6,17.3C490.4,688.1,497.9,686.1,496.2,681.4L496.2,681.4z"/>
	</g>
	<g>
		<path d="M470.4,684.5c5.8,22.4,28.6,34.2,50.5,34.1c18.6,0,57.7-8.1,51.2-34.8c-1.2-4.9-8.7-2.8-7.5,2.1
			c2.5,10.2-7.8,16.9-16,19.8c-9.8,3.5-20.4,5.5-30.9,5c-17.4-0.8-35.2-10.6-39.8-28.4C476.7,677.6,469.2,679.7,470.4,684.5
			L470.4,684.5z"/>
	</g>
	<g>
		<path d="M581.2,671.9c27.6-3.3,55.2,1.5,82.8,2.4c13.8,0.5,27.3-1,41-2.2c14.4-1.3,28.5-0.5,42.5,3.4c4.8,1.3,6.9-6.2,2.1-7.5
			c-13.8-3.8-27.9-5-42.1-3.8c-14,1.1-27.8,2.8-41.8,2.5c-28.2-0.8-56.3-5.8-84.5-2.4C576.3,664.7,576.2,672.5,581.2,671.9
			L581.2,671.9z"/>
	</g>
	<g>
		<path d="M756,590.8c0.5,6.6,1,13.3,1.5,19.9c0,0.6,0.7,4.5,0.4,5c-0.5,0.7-3,0.8-3.7,0.9c-3.4,0.6-6.8,1-10.3,1.3
			c-13.2,1.2-26.5,0.6-39.5-1.6c-4.9-0.8-7,6.6-2.1,7.5c16.1,2.8,32.3,3.3,48.5,1.1c6-0.8,14.5-0.8,14.8-8.5
			c0.3-8.4-1.2-17.2-1.9-25.5C763.4,585.8,755.6,585.8,756,590.8L756,590.8z"/>
	</g>
	<g>
		<path d="M666.8,626.4c-21.8-3.8-43.9-0.9-63.9,8.5c-4.5,2.1-0.6,8.8,3.9,6.7c18-8.5,38.4-11.2,58-7.7
			C669.7,634.8,671.8,627.3,666.8,626.4L666.8,626.4z"/>
	</g>
	<g>
		<path d="M750.6,620.3c0,15.1,0,30.2,0,45.3c0,5,7.8,5,7.8,0c0-15.1,0-30.2,0-45.3C758.4,615.3,750.6,615.3,750.6,620.3
			L750.6,620.3z"/>
	</g>
	<g>
		<path d="M269.2,616.8c-11,21.7-22.1,43.4-33.1,65.2c-2.5,4.9-4.9,9.8-6.8,14.9c-1.8,4.5-4,10.2-3.4,15.2
			c1.2,11.2,15.6,7.1,22.7,5.9c23.8-4,47.2-9.6,71.1-13.1c24.1-3.5,48.3-5.5,72.6-6.2c27.5-0.8,54.9,0.2,82.3,2.9c5,0.5,5-7.3,0-7.8
			c-44.6-4.4-89.7-4.2-134.3,0.7c-22.1,2.4-44,6.1-65.8,10.5c-11,2.2-22,4.5-33.1,6.2c-2,0.3-6.8,2-8-0.4c-0.7-1.4,1.1-5.3,1.5-6.8
			c1.6-5.3,3.9-10.3,6.4-15.3c11.3-22.7,23-45.3,34.4-67.9C278.2,616.3,271.5,612.3,269.2,616.8L269.2,616.8z"/>
	</g>
	<g>
		<path d="M487.9,681.2c1.5,15.8,16.8,24.3,31.5,24.2c8.7-0.1,18-2.2,26.2-5c6.1-2.1,12-6,12.1-13.1c0.1-5-7.7-5-7.8,0
			c-0.1,4.8-8.2,6.2-11.7,7.1c-6.2,1.7-12.4,3.2-18.8,3.2c-10,0.1-22.6-5-23.7-16.4C495.2,676.3,487.4,676.2,487.9,681.2
			L487.9,681.2z"/>
	</g>
	<g>
		<path d="M565.2,711c70.1-6.1,140.8-5.4,210.8,2.2c5.1,0.5,10.1,1.1,15.2,1.7c3.7,0.5,7.7,1.6,11.4,0.5c5.5-1.7,9.2-7.7,3.7-11.7
			c-4.1-2.9-8,3.8-3.9,6.7c-1.2-0.8,0-2.4-1.4-2.7c-0.3-0.1-1.3,0.4-1.7,0.4c-1.5,0.1-3.2-0.4-4.7-0.5c-4.2-0.5-8.4-1-12.6-1.5
			c-7.6-0.9-15.2-1.6-22.8-2.3c-15.8-1.5-31.5-2.5-47.4-3.3c-31-1.5-62.2-1.7-93.2-0.5c-17.8,0.7-35.6,1.8-53.3,3.3
			C560.3,703.6,560.2,711.4,565.2,711L565.2,711z"/>
	</g>
	<g>
		<path d="M754.5,624.7c8.3,14.7,17.5,28.8,27.7,42.2c8.5,11.2,22.9,25.6,17.3,40.9c-1.7,4.7,5.8,6.7,7.5,2.1
			c5.8-15.9-5.5-30.8-14.8-42.7c-11.5-14.7-21.8-30.2-30.9-46.4C758.8,616.4,752,620.3,754.5,624.7L754.5,624.7z"/>
	</g>
</g>
</svg>
