<svg xmlns="http://www.w3.org/2000/svg" width="1000" height="1000"><path d="M466.2 676.9c-6.3-3.6-14.2-4.2-21.7-4.6-56.4-3.1-113.7-5.5-168.7 5.8-4.3-8.8.9-19.4 9.3-25.5 8.3-6.1 19.2-8.7 29.6-11.2-16.7 4-34.4-4.3-47.6 6.2-12.9 10.3-20.4 38.7-27.6 52.6-1 2-2 4.6-.3 6.2 1.5 1.4 4 1.2 6.1.9 75-11.5 151.3-15.9 227.3-13.3 3.8-5.6-.1-13.4-6.4-17.1zm278.7-47.2c-.5 8.5-.9 16.9-1.4 25.3-.1 2.3-.3 4.8-1.9 6.6-2.2 2.5-6 2.7-9.4 2.8-54.6.4-114.5-5.6-168.3 1.8.1.7.3 4.3.6 8.7-4.4 4.5-8.3 14.1-11.4 16.6-15.2 12.4-36.4 8.1-54.3 10.2-5.3-9.9-10.9-19.6-17-29.1-4.9.6-7.3 6.9-5.6 11.5s5.8 7.8 9.9 10.6c3.2 2.2 6.5 4.5 8.7 7.5-1.6.3-3.2.7-4.8 1.1 18.9 14.3 49.8 13.9 69.7 1.5 3.3-2 7.9-6.1 11.3-10.9 57.1-5.1 112-9.9 168.6-1 15.9 2.5 32.3 5.6 48.1 2.5-6.3-25.4-21.6-48.9-42.8-65.7z" opacity=".7" fill="#b0581a"/><path d="M263.4 597c57.4-20.9 120.4-5.6 179.4 9.9 22.5 5.9 47.3 13.5 59.5 34 3.7 6.3 12.3 14.2 15.8 7.7.7-1.4.8-3 .8-4.5.8-48 1.5-96 2.3-144 .1-8.6.2-17.5-2.5-25.6-3.3-9.9-10.3-17.9-17.7-25.1-29.4-29-102.2-85.3-140.8-46.6-21.8 21.8-48 52.8-61.2 80.2-17.2 35.6-19.7 77.5-35.6 114zm262.1 56.6c63.5-48.7 152.1-82.5 230.9-68.4-1.9-17.8-7.9-34.8-13.8-51.6-12.6-35.5-25.2-71-37.7-106.5-.7-2-1.5-4.2-3.3-5.3-1.7-1.1-3.9-1-6-.9-41.9 3.1-130 15.5-156 54-10.7 15.9-8.3 45.3-9.7 63.4-2.7 33.9-7 81.3-4.4 115.3z" fill="#fff5c9" opacity=".7"/><path d="M299 647c-4.3 1.4-8.8 2.9-12.1 6s-5 8.5-2.6 12.4c66.7-20.8 140.2-18.9 205.9 5.2 4.3-4.7 8.6-9.4 12.9-14.2-1.7-13.9-10.3-26.8-22.5-33.6-8.7-4.9-18.7-6.7-28.5-8.5-28.6-5.1-57.1-10.3-85.7-15.4-16.4-3-87.6-18-88.8 9.3-1.3 27.7 56 9.1 70 22.7-15.5 6.8-32.5 10.9-48.6 16.1zm451.9 16.8c2.2-12.9 1.5-26.2-1.8-38.9 7.3-9.3 7.9-23.4 1.3-33.3-8-12-98.8 3.2-112 6.5-22.8 5.6-72.6 34.3-96.8 53.4-27.2 21.5 67.9 17.6 89 17.3 40.2-.5 80.3-2.1 120.3-5z" fill="#ccbf7f" opacity=".7"/><path d="M507.4 670.8c-6.6-4.3-16.3 1.9-17 9.8s5.5 15 12.8 17.9c7.3 2.9 15.5 2.4 23.3 1.4 6.3-.8 12.7-1.9 18.1-5.2 5.4-3.3 9.6-9.3 9-15.6-.6-6.7-6.3-12.1-12.7-14.2-6.4-2.1-13.3-1.5-20-.7-9.8 1.2-19.4 3-29 5.4" opacity=".7" fill="#733911"/><path d="M244.3 476.3c3 3.2 6.7 5.6 10.8 7.1-5.3 11.6-10.6 23.1-16.2 34.6 10.5-5.8 22.1-9.5 34-10.7 6.3-15.4 15.2-29.7 26.1-42.3-15.6 1.7-31.2 3.4-46.8 5-6.9.7-14.8 2.1-18.4 8" opacity=".7" fill="#ff4000"/><path d="M577.8 460.5c-1 18.2-1.9 36.3-2.7 54.5 11.9 4.4 25.6 3.6 36.9-2.2l-.9-58.2c-14.3 1.6-28.4 4.6-42.2 9" opacity=".7" fill="#ba998e"/><path d="M352.6 382.1c-41.5 50.4-73.9 108-95.1 169.8-6 17.5-11.1 35.4-15.3 53.5-.8 3.5 2.7 5.8 5.7 4.4 35-15.8 74.1-18 111.8-13.7 19.3 2.2 38.4 6.2 57.2 11.1 16.7 4.3 33.7 8.9 49.5 16 16.5 7.4 31.9 17.9 40.6 34.3 2.4 4.4 9.1.5 6.7-3.9-16.7-31.4-54-42.7-86-51.5-38.5-10.6-78.8-18.1-118.9-15.1-22.4 1.7-44.3 6.8-64.9 16.1 1.9 1.5 3.8 2.9 5.7 4.4 14.5-62.6 40.3-122.4 75.9-175.9 10.1-15.2 21-29.8 32.5-43.9 3.3-3.9-2.2-9.4-5.4-5.6z"/><path d="M354.5 390.1c50.6.9 100.4 20 138.9 52.9 10.8 9.2 20.6 19.5 29.5 30.6 3.1 3.9 8.6-1.6 5.5-5.5-32.3-40.8-79.2-69.5-130-80.6-14.4-3.1-29.1-4.9-43.9-5.1-5-.2-5 7.6 0 7.7z"/><path d="M521.2 468.6c2.7 28 2.7 56.2 2 84.4-.6 28.4-1.5 56.7-2.3 85.1-.1 5 7.6 5 7.8 0 .8-28.3 1.7-56.7 2.3-85.1.6-28.2.6-56.3-2-84.4-.5-4.9-8.2-5-7.8 0z"/><path d="M531.5 475.2c28.3-36.9 74.2-53.6 118.7-60.4 11.6-1.8 23.3-2.9 35.1-3.5 5.8-.3 11.7-.7 17.5-.5 6.8.2 11.2 3 14 9.1 2.9 6.2 4.6 13.1 6.7 19.6 2.4 7.4 4.8 14.7 7.2 22.1 4.7 14.5 9.4 28.9 14.1 43.3 10.8 33.3 21.7 66.5 32.5 99.8 1.5 4.7 9.1 2.7 7.5-2.1-10.2-31.3-20.4-62.7-30.7-94-5.1-15.5-10.1-31.1-15.2-46.6-4.7-14.5-8.7-29.8-14.5-43.9-2.2-5.2-5.4-10.2-10.6-12.8-5.6-2.8-12.2-2.4-18.3-2.2-12.3.4-24.5 1.2-36.7 2.7-24.3 3-48.4 8.4-71.1 18-24.7 10.5-46.6 26.1-63 47.4-2.9 4.1 3.8 8 6.8 4z"/><path d="M537.4 649.2c50.4-41.7 116.7-62.7 181.9-57.5 18.4 1.5 36.5 5.1 54.1 10.7 4.8 1.5 6.8-6 2.1-7.5-64.4-20.5-135.7-13.4-195.7 17.2-17.1 8.7-33.1 19.4-47.9 31.6-3.8 3.2 1.7 8.7 5.5 5.5zm-240-190.6c-12.7-.1-25.3 1.6-37.5 5.1-6 1.8-11.8 4-17.5 6.6-4 1.8-9.8 3.9-9.9 9.2 0 3 2.1 5.1 4.6 6.4 1.5.8 7.5 1.9 8.2 3.6.1.3-2.9 4.6-3.3 5.3-1.7 2.8-3.5 5.7-5.2 8.5-3.8 6.1-7.6 12.3-11.3 18.4-1.8 2.8 1.2 6.7 4.4 5.7 11-3.4 22-6.7 33-10.1 4.8-1.5 2.7-9-2.1-7.5-11 3.4-22 6.7-33 10.1 1.5 1.9 2.9 3.8 4.4 5.7 6.5-10.6 14.1-21.1 19.7-32.2 3.7-7.3-2.5-11.1-8.5-13.4-.4-.2-2.9-1.5-3.3-1.4-.1 0-.2-.1-.3-.2-.2 1.5.2 1.9 1 1.2.9 0 2.5-1.3 3.4-1.7 5.7-2.7 11.6-5 17.7-6.8 11.5-3.4 23.4-4.9 35.4-4.8 5.1.1 5.1-7.7.1-7.7zm62.3-5.4c15.8-4.4 32.4-9 48.8-4.8 15.8 4.1 30.4 13.1 44.9 20.4 4.5 2.2 8.4-4.5 3.9-6.7-15.5-7.8-31.2-17.6-48.2-21.5-17.3-4-34.7.4-51.4 5.1-4.9 1.3-2.8 8.8 2 7.5zm123.5 30.1c2 6.7 8.2 11.3 15.2 11.4 5 0 5-7.8 0-7.8-3.5 0-6.7-2.3-7.7-5.7-1.5-4.8-9-2.7-7.5 2.1zM349.5 503c16-2.5 32.2-.9 47.4 4.5 4.7 1.7 6.8-5.8 2.1-7.5-16.6-5.9-34.2-7.3-51.5-4.5-5 .8-2.9 8.3 2 7.5zm77 2.5c6.6 2.8 13.4 4.2 20.6 4.6 5 .3 5-7.5 0-7.8-6.4-.4-12.6-1.9-18.5-4.4-4.6-1.9-6.6 5.6-2.1 7.6zm56.1 19.6c2 1.3 3.9 2.6 5.9 3.9 1.7 1.1 4.4.4 5.3-1.4 1-2 .4-4.1-1.4-5.3-2-1.3-3.9-2.6-5.9-3.9-1.7-1.1-4.4-.4-5.3 1.4-1 2-.4 4.1 1.4 5.3zm-127.1 23.8c20.9-3 42.5-.2 61.9 8.1 4.5 2 8.5-4.8 3.9-6.7-21.5-9.2-44.7-12.3-67.9-8.9-4.9.7-2.8 8.2 2.1 7.5zm214.2-80.3c-1.9 14.3-1 28.7 2.6 42.7 1.2 4.8 8.7 2.8 7.5-2.1-3.4-13.3-4.1-27-2.3-40.6.6-4.9-7.2-4.9-7.8 0zm14.4-6c6.6-1.7 13.2-2.9 19.9-3.6 2.4-.2 5.4-1 7.8-.4 3.1.8 2.4 5.5 2.5 8 .5 13.1.6 26.3.2 39.4-.1 5 7.7 5 7.8 0 .2-8.4.3-16.8.2-25.1-.1-4.5-.2-8.9-.4-13.4-.1-3.4.1-7.2-1.1-10.5-2.4-6.3-8.7-6.5-14.5-6-8.3.7-16.4 2.1-24.5 4.1-4.8 1.2-2.7 8.7 2.1 7.5zm55.4-5.4c12.5-3.3 25.3-4.4 38.3-3.5 5 .4 5-7.4 0-7.8-13.6-1-27.2.3-40.3 3.8-5 1.3-2.9 8.8 2 7.5zm.8 45.5c16.4-.4 32.7-3.2 48.3-8.5 4.7-1.6 2.7-9.1-2.1-7.5-15 5-30.4 7.8-46.2 8.2-4.9.1-5 7.9 0 7.8zm-65.1 75.5c20.3-9.7 41.8-16.6 63.9-20.7 11-2 22.1-3.3 33.3-3.9 9-.5 21.6-2.3 28.7 4.5 3.6 3.5 9.1-2 5.5-5.5-7.7-7.4-18.7-7.3-28.7-7-12.1.3-24.2 1.6-36.2 3.6-24.4 4.1-48 11.7-70.4 22.3-4.5 2.1-.6 8.8 3.9 6.7z"/><path d="M576.2 521.6c7.2-1.3 14.5-2.5 21.7-3.8 4.9-.9 2.8-8.4-2.1-7.5-7.2 1.3-14.5 2.5-21.7 3.8-4.9.8-2.8 8.3 2.1 7.5zm-308.3 77c1.2 11.2 2.3 22.4 3.5 33.5.5 4.9 8.3 5 7.8 0-1.2-11.2-2.3-22.4-3.5-33.5-.5-4.9-8.3-5-7.8 0z"/><path d="M275.7 632h61.1c5 0 5-7.8 0-7.8h-61.1c-5 .1-5 7.8 0 7.8z"/><path d="M342.7 627.8c-25.4.5-49.9 11.1-67.7 29.2-3.5 3.6 2 9.1 5.5 5.5 16.4-16.7 38.8-26.5 62.2-27 5-.1 5-7.8 0-7.7z"/><path d="M275.5 652.9c1.2 7.2 2.3 14.5 3.5 21.8.8 4.9 8.3 2.8 7.5-2.1-1.2-7.2-2.3-14.5-3.5-21.8-.8-4.9-8.3-2.8-7.5 2.1z"/><path d="M283 677.8c14.4-7 30.9-8.3 46.5-10.5 17.3-2.4 34.7-4.5 52.1-5.3 33.3-1.5 66.5 2.7 98.3 12.7 4.8 1.5 6.8-6 2.1-7.5-33-10.3-67.5-14.6-102-12.9-17.6.9-35.1 3.1-52.5 5.5-16.4 2.3-33.3 3.9-48.4 11.3-4.5 2.1-.6 8.9 3.9 6.7zm105.1-43.2c34.4-3.7 69.2 4 98.8 22 4.3 2.6 8.2-4.1 3.9-6.7-30.6-18.7-67-26.9-102.7-23.1-5 .6-5 8.4 0 7.8zm108.1 46.8c-.5-1.5 3.6-5.5 4.5-6.4 2-1.9 4.2-3.4 6.6-4.7 4.7-2.4 10.1-3.6 15.4-3.6 6.1 0 12.2 1.5 17.8 3.8 2.9 1.1 5.7 2.5 8.4 4 1.2.7 7.8 3.7 8.1 4.6.6-1.5 1.2-2.9 1.8-4.4-.2.1-.3.2-.5.3 1-.1 2-.3 3-.4-.2-.1-.4-.1-.6-.2 1 1.2 1.9 2.5 2.9 3.8v-.4c.1-5-7.7-5-7.8 0v.4c0 1.8 1.2 3.2 2.9 3.8 1.5.5 2.8.3 4-.5 1.5-1 2.2-2.6 1.8-4.4-.9-3.6-4.8-5.3-7.8-7.1-3.9-2.4-8-4.5-12.3-6.3-7.8-3.2-16.3-5.3-24.8-4.7-7.2.6-14.4 2.8-20.4 7.1-4.6 3.3-13 10.9-10.6 17.3 1.8 4.7 9.3 2.7 7.6-2z"/><path d="M470.4 684.5c5.8 22.4 28.6 34.2 50.5 34.1 18.6 0 57.7-8.1 51.2-34.8-1.2-4.9-8.7-2.8-7.5 2.1 2.5 10.2-7.8 16.9-16 19.8-9.8 3.5-20.4 5.5-30.9 5-17.4-.8-35.2-10.6-39.8-28.4-1.2-4.7-8.7-2.6-7.5 2.2zm110.8-12.6c27.6-3.3 55.2 1.5 82.8 2.4 13.8.5 27.3-1 41-2.2 14.4-1.3 28.5-.5 42.5 3.4 4.8 1.3 6.9-6.2 2.1-7.5-13.8-3.8-27.9-5-42.1-3.8-14 1.1-27.8 2.8-41.8 2.5-28.2-.8-56.3-5.8-84.5-2.4-4.9.4-5 8.2 0 7.6zM756 590.8c.5 6.6 1 13.3 1.5 19.9 0 .6.7 4.5.4 5-.5.7-3 .8-3.7.9-3.4.6-6.8 1-10.3 1.3-13.2 1.2-26.5.6-39.5-1.6-4.9-.8-7 6.6-2.1 7.5 16.1 2.8 32.3 3.3 48.5 1.1 6-.8 14.5-.8 14.8-8.5.3-8.4-1.2-17.2-1.9-25.5-.3-5.1-8.1-5.1-7.7-.1zm-89.2 35.6c-21.8-3.8-43.9-.9-63.9 8.5-4.5 2.1-.6 8.8 3.9 6.7 18-8.5 38.4-11.2 58-7.7 4.9.9 7-6.6 2-7.5z"/><path d="M750.6 620.3v45.3c0 5 7.8 5 7.8 0v-45.3c0-5-7.8-5-7.8 0zm-481.4-3.5c-11 21.7-22.1 43.4-33.1 65.2-2.5 4.9-4.9 9.8-6.8 14.9-1.8 4.5-4 10.2-3.4 15.2 1.2 11.2 15.6 7.1 22.7 5.9 23.8-4 47.2-9.6 71.1-13.1 24.1-3.5 48.3-5.5 72.6-6.2 27.5-.8 54.9.2 82.3 2.9 5 .5 5-7.3 0-7.8-44.6-4.4-89.7-4.2-134.3.7-22.1 2.4-44 6.1-65.8 10.5-11 2.2-22 4.5-33.1 6.2-2 .3-6.8 2-8-.4-.7-1.4 1.1-5.3 1.5-6.8 1.6-5.3 3.9-10.3 6.4-15.3 11.3-22.7 23-45.3 34.4-67.9 2.5-4.5-4.2-8.5-6.5-4zm218.7 64.4c1.5 15.8 16.8 24.3 31.5 24.2 8.7-.1 18-2.2 26.2-5 6.1-2.1 12-6 12.1-13.1.1-5-7.7-5-7.8 0-.1 4.8-8.2 6.2-11.7 7.1-6.2 1.7-12.4 3.2-18.8 3.2-10 .1-22.6-5-23.7-16.4-.5-4.9-8.3-5-7.8 0zm77.3 29.8c70.1-6.1 140.8-5.4 210.8 2.2 5.1.5 10.1 1.1 15.2 1.7 3.7.5 7.7 1.6 11.4.5 5.5-1.7 9.2-7.7 3.7-11.7-4.1-2.9-8 3.8-3.9 6.7-1.2-.8 0-2.4-1.4-2.7-.3-.1-1.3.4-1.7.4-1.5.1-3.2-.4-4.7-.5l-12.6-1.5c-7.6-.9-15.2-1.6-22.8-2.3-15.8-1.5-31.5-2.5-47.4-3.3-31-1.5-62.2-1.7-93.2-.5-17.8.7-35.6 1.8-53.3 3.3-5 .3-5.1 8.1-.1 7.7z"/><path d="M754.5 624.7c8.3 14.7 17.5 28.8 27.7 42.2 8.5 11.2 22.9 25.6 17.3 40.9-1.7 4.7 5.8 6.7 7.5 2.1 5.8-15.9-5.5-30.8-14.8-42.7-11.5-14.7-21.8-30.2-30.9-46.4-2.5-4.4-9.3-.5-6.8 3.9z"/></svg>