<?xml version="1.0" encoding="utf-8"?>
<!-- Generator: Adobe Illustrator 23.0.2, SVG Export Plug-In . SVG Version: 6.00 Build 0)  -->
<svg version="1.1" id="Layer_1" xmlns="http://www.w3.org/2000/svg" xmlns:xlink="http://www.w3.org/1999/xlink" x="0px" y="0px"
	 viewBox="0 0 974 1118" style="enable-background:new 0 0 974 1118;" xml:space="preserve">
<style type="text/css">
	.st0{fill:#FCDFC7;}
	.st1{fill:#FFFFFF;}
	.st2{opacity:0.7;}
	.st3{fill:#A87532;}
	.st4{fill:#FCA586;}
	.st5{fill:#76B869;}
	.st6{fill:#3593A1;}
	.st7{fill:#EBE5E4;}
	.st8{fill:#D19E5A;}
</style>
<g>
	<path class="st0" d="M419.7,692.2c-7.5,2-15,6.4-17.6,13.7s2.8,17.2,10.5,16.5c-4.6,4.5-9.4,9.2-11.5,15.2c-2.1,6.1-0.6,13.9,5,17
		c6.3,3.4,14.5-0.8,18-7s3.4-13.8,3.3-20.9c-0.2-13.3-0.4-26.6-0.7-39.9"/>
	<path class="st0" d="M599.7,835.3c9.6-10.2,16.3-23.1,19.3-36.8c2.1-9.7,2.2-20.4-2.8-29c-11.1-19-25-11.5-27.1,6.5
		C586.7,796.1,590.4,817.2,599.7,835.3z"/>
	<path class="st1" d="M432.8,367.7c-3.9-0.3-5.9,6-2.6,8c1.4-2,2.8-4.1,4.2-6.1"/>
	<g class="st2">
		<path class="st0" d="M699.4,399.2c-2.8-15.9-20.2-28.2-35.7-23.8c-1.8-11.5,3.4-22.9,7.7-33.7c4.3-10.9,7.8-23.4,2.8-33.9
			s-22.3-14.8-28.1-4.6c-11.8-18.5-23.9-37.2-40.5-51.5c-16.6-14.3-38.7-23.8-60.4-20.4c-20.3,3.2-37,17-54.5,27.8
			c-15.6,9.7-34.9,17.4-52.2,12.9c-9.9,6.1-21.4,10-32.9,12.4c-16,3.3-32.3,4.8-48.5,6.9c-2.9,0.4-5.7,1-8.5,1.6
			c-10.6,2.6-20.9,1.2-30.5-3.7c-3.9,28.7,4.3,58.9,22.5,81.4c-15.4-0.9-31.7-1.5-45.2,5.9c-13.5,7.4-22.1,26-13.5,38.8
			c5.5,8.3,16.4,11.6,26.3,10.8c9.9-0.8,19.2-5.1,28.2-9.3c13.4,46.6,55.8,83.4,103.8,90.1c11.1,1.5,23.2,1.9,31.9,9
			c8.7,7.1,6.3,28.6-4.4,31.7c7.2,4.6,12.5,9.3,21,10.1c8.5,0.8,31.8-1.8,33.7-10.1c0.9-4-8.5-14.6-7.4-18.5
			c2.8-10.1,16-11.9,26.4-13.3c43.3-5.8,81.1-41.1,90-83.9c13.2,9.3,31.1,12.5,45.9,6.1C691.8,431.7,702.2,415,699.4,399.2z"/>
		<path class="st3" d="M342.5,235.1c-12.3,19.4-18.8,42.2-19.2,65.1c-0.2,13.8,15.5,22,26.6,13.8c13.6-10.1,31-16,48-18.2
			c28.3-3.6,57,0.7,85.5-0.5c28.5-1.2,59-9.4,76.5-31.8c4.5-5.8,8.1-12.4,13.7-17.2c5.5-4.8,14-7.4,20.3-3.6
			c7.6,4.7,7.8,15.4,10.5,23.9s14.8,16,19.6,8.5c-7.7,9.6-0.2,25.8,11.8,28.7c12,2.9,34.7-5.1,40.2-16.1c5.5-11-5.2-24.2-8-36.2
			c-10.5-43.6-53.1-77.3-97.9-77.5c-14.5,0-32.6,1.2-39.3-11.7c-3.4-6.6-2.6-15.6-8.5-20.2c-9.5-7.4-21.2,5-30.8,12.1
			c-15.5,11.4-37.2,7.9-50.6-4.8c3,29.7-16,27.4-38.2,36.3C378,195.5,356.6,212.9,342.5,235.1z"/>
		<path class="st4" d="M554.1,408.1c3.1-3.8,6.5-7.7,11.2-9c4.7-1.3,10.8,1.6,10.9,6.4c0.1,4.1-4.1,7.2-8.2,7.5
			c-4.1,0.3-8-1.5-11.6-3.2"/>
		<path class="st4" d="M429.8,412.6c-0.6-6.8-10.1-10.7-15.4-6.5c-5.3,4.2-3.9,14.1,2.4,16.8s14.4-2.7,14.5-9.5"/>
		<path class="st5" d="M376.7,574c-22.7,10.8-43.4,27.9-53.5,51s-19.1,48,9.8,70.5c19.9,15.4,50.7,19.8,67.1,0.7
			c5.6-6.5,7.6-18.8-0.4-22c-4.6-1.9-9.9,0.7-14.8,0.2c-12.5-1.2-14.6-20.6-5.7-29.4s22.5-10,34.8-12.1s26.1-6.9,30.6-18.6
			c-2.5,36.7-4.9,73.4-7.4,110.1c-0.8,11.9-1.4,24.6,4.7,34.8c10.9,18.3,36.7,19.4,57.9,17c33.1-3.8,25.7,16.5,97.5-20.9
			c9.7-5.1,21.5-7.5,27.8-16.5c6.3-9,6.5-20.8,5.9-31.8c-2.1-39.5-11.2-78.6-26.8-114.9c-6.3-14.8-14.7-30.2-29.3-37.1
			c-14.5-6.9-31.6-3.7-46.8,1.2c-33.8,11.1-47.1,8.5-80.2,1.9C424.5,553.5,397.9,563.9,376.7,574z"/>
		<path class="st6" d="M450,902.5c-0.2,11-0.7,22.3,3.2,32.5s13.7,19.2,24.6,18.3c11.9-1,20.2-13,22.2-24.8s-0.4-23.8-0.5-35.7
			s3.1-25.1,12.9-31.9c0.2,22.2,0.6,45.2,10.3,65.2c4.7,9.6,11.8,18.6,21.7,22.7c9.9,4.1,22.7,2.2,29.1-6.3
			c4.5-51.7,2.4-103.7,0.3-155.5c-0.2-4.1-0.8-8.9-4.4-10.9c-3.3-1.8-7.3-0.2-10.8,1.2c-42,17.6-81.5,8.7-121.5-7.9
			c-6.7,13.8,6.3,45.3,8.6,61.7C449,854.8,450.4,878.6,450,902.5z"/>
		<path class="st7" d="M457.3,971.2c-1-4.3-2-8.7-3-13c12.8-1.4,25.6-2.9,38.4-4.3c8.8,10.2,4.3,27.3-6.4,35.5s-25.2,9.3-38.6,8
			c-13-1.3-25.8-4.6-37.8-9.7c-3.8-1.6-7.8-3.7-9.7-7.4c-3.8-7.5,3.5-16,11.2-19.3c15.6-6.7,35.5-1.6,46,11.8"/>
		<path class="st7" d="M538.7,989.8c9.1,5.7,20.4,6.4,31.1,6.8c15.3,0.7,30.6,1.4,46,2c4.8,0.2,10.5-0.1,12.9-4.2
			c2.2-3.8,0.3-8.6-2.1-12.2c-13-19.6-41.1-27.3-62.3-17c2.2-5.5,1.4-12.1-2.1-16.8C544.9,953.9,505,968.8,538.7,989.8z"/>
	</g>
	<path class="st8" d="M435.4,185.1c-0.9,0-1.7,0-2.6,0"/>
	<g>
		<path d="M327.3,356.9c-20-35.5-18.8-79.8,2.6-114.4c2.4-3.9-3.8-7.5-6.2-3.6c-22.8,36.7-23.8,84-2.6,121.6
			C323.4,364.5,329.6,360.9,327.3,356.9L327.3,356.9z"/>
	</g>
	<g>
		<path d="M321.4,257.2c8.1-17.9,20-33.6,35.4-45.9c15.1-12.1,32.9-20.6,51-27c10.9-3.9,22.1-7.1,33.3-10c2-0.5,3.5-3.4,2.1-5.3
			c-6-8.1-12-16.2-18-24.3c-1,1.8-2.1,3.6-3.1,5.4c17.3-2,35.2,2.3,49,13c2,1.5,4.1,1.3,5.6-0.7c7.4-9.6,16.1-20.4,29.2-21.2
			c5.4-0.4,11.2,1.2,14.1,6c2.3,3.9,2.3,8.5-1.1,11.6c-3.4,3.1,1.7,8.2,5.1,5.1c4.9-4.4,6-11.3,3.7-17.3
			c-2.6-6.9-8.8-11.1-15.9-12.2c-18.3-2.9-31.2,11.4-41.2,24.4c1.9-0.2,3.8-0.5,5.6-0.7c-15.3-11.9-34.8-17.4-54.1-15.1
			c-2.4,0.3-4.9,3-3.1,5.4c6,8.1,12,16.2,18,24.3c0.7-1.8,1.4-3.5,2.1-5.3c-38.8,10-78.9,24.8-105.4,56.4
			c-7.6,9.1-13.8,19.1-18.6,29.9C313.4,257.8,319.5,261.4,321.4,257.2L321.4,257.2z"/>
	</g>
	<g>
		<path d="M520.9,164.8c50.2-5.2,101.4,14,136.8,49.6c10,10,18.5,21.3,25.5,33.6c1-1.8,2.1-3.6,3.1-5.4c-3.6-0.4-7.2-0.8-10.7-1.1
			c-2.4-0.2-4,2.5-3.5,4.5c10.4,42.2,6.2,87.5-12,127c-1.9,4.2,4.3,7.8,6.2,3.6c19-41.3,23.6-88.4,12.7-132.6
			c-1.2,1.5-2.3,3-3.5,4.5c3.6,0.4,7.2,0.8,10.7,1.1c2.8,0.3,4.3-3.2,3.1-5.4c-25.8-45.3-73.2-77.1-124.5-85.4
			c-14.6-2.4-29.4-2.9-44-1.4C516.3,158.1,516.3,165.2,520.9,164.8L520.9,164.8z"/>
	</g>
	<g>
		<path d="M657.9,388.2c6-9,18.2-15.3,29-12.2c13.1,3.7,17.6,20.6,16.7,32.6c-1,13.4-9,25.3-20.5,31.9c-10.5,6-25.8,8.1-34.6-1.9
			c-3-3.5-8.1,1.6-5.1,5.1c8,9.2,21.5,10.7,32.7,7.5c11.8-3.4,22.2-11.5,28.4-22.1c11.8-20.1,7.1-59.1-21.5-60.9
			c-12.4-0.8-24.5,6.4-31.3,16.4C649.1,388.5,655.3,392.1,657.9,388.2L657.9,388.2z"/>
	</g>
	<g>
		<path d="M341.2,372.4c-18.4-20.2-54.9-18.3-69.4,5.6c-7,11.6-8.3,26.8-3.1,39.4c5,12,15.7,20.3,28.6,22.3
			c14.4,2.2,29.3-2.9,37.9-14.9c2.7-3.8-3.5-7.3-6.2-3.6c-12.8,17.9-42.8,14.9-52.6-4.2c-5-9.8-4.9-22.2-0.2-32.1
			c4.9-10.3,14.4-16.9,25.5-18.8c12.5-2.1,25.8,1.9,34.4,11.3C339.3,380.9,344.4,375.8,341.2,372.4L341.2,372.4z"/>
	</g>
	<g>
		<path d="M330.4,422.8c-0.2,24.5,12.4,47,30,63.5c20.1,18.9,46.2,29.7,73,35.2c28.9,5.9,59.1,6.6,88.4,4.1
			c28.1-2.3,57.3-8.5,81.1-24.4c22.5-15,40.9-39.3,40.2-67.4c-0.1-4.6-7.3-4.6-7.2,0c0.6,23.5-13.9,44.4-32.2,58
			c-21.3,15.9-48.2,22.9-74.2,25.9c-27.4,3.1-55.9,3.1-83.2-1.1c-25.7-4-51.5-12.1-72.3-28c-20.5-15.7-36.7-39.2-36.5-65.8
			C337.6,418.2,330.4,418.2,330.4,422.8L330.4,422.8z"/>
	</g>
	<g>
		<path d="M388.4,281.1c1.5,18,20.5,22.5,35.5,23c15.5,0.6,32.8,1,45.8-8.8c3.6-2.7,0.1-9-3.6-6.2c-10.6,8-24.1,8.3-36.9,8
			c-11.3-0.3-32.3-0.5-33.6-16C395.2,276.6,388,276.5,388.4,281.1L388.4,281.1z"/>
	</g>
	<g>
		<path d="M457.1,285.8c14.8,13.3,35.4,16.3,54.4,12.1c21.4-4.7,39-18.9,53.1-35.2c8.4-9.8,15.8-20.3,23-31c2.6-3.8-3.6-7.4-6.2-3.6
			c-14.6,21.5-30.5,44.3-54.2,56.6c-20,10.4-47.3,12-65-3.9C458.8,277.6,453.7,282.7,457.1,285.8L457.1,285.8z"/>
	</g>
	<g>
		<path d="M602,263.8c0.5,4.7,1.4,9.3,2.7,13.9c1.1,3.6,2.3,7.8,5.9,9.6c3,1.6,6.6,1,9.6-0.5c3.7-1.8,6.1-5.7,10.1-6.9
			c-1.5-1.1-3-2.3-4.5-3.5c1.3,12.1,6.2,23.2,14.3,32.3c3.1,3.4,8.2-1.6,5.1-5.1c-6.8-7.6-11.1-17.1-12.2-27.2
			c-0.2-2.2-2.1-4.2-4.5-3.5c-2.3,0.7-4.2,1.8-6,3.2c-1.8,1.4-4.1,4.4-6.5,4.6c-4.9,0.6-6.2-13.5-6.7-17.1
			C608.7,259.2,601.5,259.2,602,263.8L602,263.8z"/>
	</g>
	<g>
		<path d="M464.1,437.8c-2,6.7,1,13.7,6.5,17.8c6.4,4.7,15.1,4.5,22.2,1.8c6.3-2.4,13.2-6.8,14.3-14c1-6.4-3.8-13.2-10.6-12.9
			c-4.6,0.2-4.6,7.4,0,7.2c4.6-0.2,3.7,5.8,1.7,8.1c-2.7,3.1-7.2,5-11.1,5.9c-7.4,1.7-19-2.2-16.1-11.9
			C472.3,435.3,465.4,433.4,464.1,437.8L464.1,437.8z"/>
	</g>
	<g>
		<path d="M473.7,526.3c5.9,7.5-0.8,15.8-7.9,19c-4.2,1.9-0.6,8.1,3.6,6.2c12-5.4,18-19.3,9.3-30.3
			C475.9,517.6,470.9,522.7,473.7,526.3L473.7,526.3z"/>
	</g>
	<g>
		<path d="M519.8,521.6c-3.6,10.1,5,21.5,15.6,21.2c4.6-0.1,4.6-7.3,0-7.2c-6.2,0.2-10.7-6.4-8.7-12.1
			C528.3,519.1,521.3,517.2,519.8,521.6L519.8,521.6z"/>
	</g>
	<g>
		<path d="M451,544.7c3,8.8,8.5,16.3,16.8,20.7c8.8,4.8,19,5.6,28.9,5c22.8-1.5,44.6-11.4,60.7-27.6c3.3-3.3-1.8-8.3-5.1-5.1
			c-14.1,14.2-33.1,23.4-53.1,25.3c-17.2,1.6-35-2.2-41.3-20.2C456.4,538.5,449.4,540.3,451,544.7L451,544.7z"/>
	</g>
	<g>
		<path d="M423.3,368.5c-2.8,6-4,12.6-2,19.1c2,6.7,7.5,13,15.2,10.7c6.1-1.8,9.5-8.8,10.6-14.6c1.3-6.7,0.3-12.9-2.6-19
			c-2-4.3-8.1-5.4-12-3.1c-4.4,2.5-5.2,7.7-3.1,12c0.8,1.6,1.1,3.6,0.9,5.4c-0.1,0.8-0.3,1.9-0.6,2.6c-0.1,0.5-0.3,0.9-0.6,1.2
			c-0.6,1.2-0.8,1.5-0.6,0.7c1.3-0.8,2.6-1.5,3.9-2.2c0.2,0,0.3-0.1,0.5-0.1c1.5,0.4,3,0.8,4.4,1.2c1.8,1.1,0.8,0.3,0.6-1.5
			c-0.1-1.2,0.1-2.5,0.6-3.6c2-4.3,1.2-9.5-3.1-12C431.5,363.1,425.3,364.2,423.3,368.5L423.3,368.5z"/>
	</g>
	<g>
		<path d="M538.3,364.3c-1.8,2.4-3.1,5.2-4,8c-0.4,1.2-0.7,2.5-0.9,3.8c-0.1,1-0.3,1.9-0.4,2.9c-0.1,1.3-0.1,1.5,0,0.6
			c-0.7,6.6,2.3,12.6,9.2,14.3c6.3,1.6,12.3-1.8,15.1-7.5c1.4-2.8,1.9-5.7,2.1-8.8c0.1-2.5-0.1-4.2,0.7-6.4
			c1.7-4.4-1.9-9.6-6.1-10.8c-4.9-1.4-9.1,1.7-10.8,6.1c-1.1,2.8-1.2,5.8-1.3,8.8c0,0.7,0,1.5,0,2.2c-0.1,1.1-0.1,1.2,0,0.4
			c-0.3,1-0.3,1.2,0,0.4c0.3-0.4,0.8-0.7,1.3-0.9c1-0.7,2.1-0.9,3.4-0.6c2.8,1,4,3.2,3.6,6.6c0.5-1.3,0.2-2.9,0.4-3.9
			c0.4-2.5,1.5-4.4,3-6.5c2.8-3.8,0.7-9.8-3.1-12C545.8,358.6,541,360.5,538.3,364.3L538.3,364.3z"/>
	</g>
	<g>
		<path d="M443.4,479.6c40.6,18,92.1,7.7,120.4-27.2c2.9-3.6-2.2-8.7-5.1-5.1c-26.1,32.3-74,43-111.8,26.1
			C442.8,471.6,439.1,477.7,443.4,479.6L443.4,479.6z"/>
	</g>
	<g>
		<path d="M549.8,451.5c6.3-1,12.3,0.9,17.4,4.7c3.7,2.8,7.3-3.5,3.6-6.2c-6.7-5-14.7-6.6-22.9-5.4
			C543.4,445.3,545.3,452.2,549.8,451.5L549.8,451.5z"/>
	</g>
	<g>
		<path d="M431.1,769.3c40.7,27,106.8,42.1,142-2c2.8-3.6-2.2-8.7-5.1-5.1c-33.2,41.6-95.2,26.2-133.3,0.9
			C430.9,760.6,427.3,766.8,431.1,769.3L431.1,769.3z"/>
	</g>
	<g>
		<path d="M435.1,780.8c-9.9,9.6-6.1,25.4-4.8,37.5c1.8,16.9,3.7,33.8,5.5,50.7c3.3,30.6,4.1,63.5,17.4,91.8c2,4.2,8.1,0.5,6.2-3.6
			c-6.2-13.2-9.2-27.6-11.2-42c-2.1-14.8-3.4-29.8-5-44.6c-1.7-15.3-3.3-30.6-5-45.9c-0.8-7.3-1.9-14.7-2.3-22.1
			c-0.4-5.9-0.2-12.3,4.3-16.6C443.5,782.6,438.4,777.6,435.1,780.8L435.1,780.8z"/>
	</g>
	<g>
		<path d="M468.9,973.2c-13.6-12.8-33.8-24.7-53.1-18.3c-15.3,5.1-28.1,22.1-22,38.4c1.6,4.3,8.5,2.4,6.9-1.9
			c-5-13.4,6.4-27,19.1-30.2c16.3-4.1,32.8,6.4,44,17.1C467.2,981.5,472.2,976.4,468.9,973.2L468.9,973.2z"/>
	</g>
	<g>
		<path d="M392.9,995.2c34.4,13.6,73.8,15.3,109.2,4.6c4.4-1.3,2.5-8.3-1.9-6.9c-34.3,10.4-72.1,8.6-105.4-4.6
			C390.5,986.6,388.6,993.5,392.9,995.2L392.9,995.2z"/>
	</g>
	<g>
		<path d="M501.7,991c8.3-48.1,10.7-97,7.1-145.6c-0.3-4.6-7.5-4.6-7.2,0c3.5,48,1.3,96.3-6.9,143.7C494,993.6,501,995.5,501.7,991
			L501.7,991z"/>
	</g>
	<g>
		<g>
			<path d="M577,778.8c4.3,4.7,4.5,11.8,4.3,17.8c-0.2,7.4-0.9,14.8-1.3,22.1c-1.1,16.3-2.1,32.7-3.2,49c-2,30.6-1.5,63.1-12.2,92.2
				c-1.6,4.3,5.3,6.2,6.9,1.9c8.7-23.7,9.6-49.4,11.2-74.4c1.7-26.9,3.5-53.8,5.2-80.6c0.7-11.1,2.3-24.2-5.8-33.1
				C579,770.3,573.9,775.3,577,778.8L577,778.8z"/>
		</g>
		<g>
			<path d="M534.9,992.7c-7.7-43.7-18.1-87.1-22-131.4c-1-11.9-1.6-23.8-1.2-35.8c0.1-4.6-7-4.6-7.2,0c-1.5,44.7,8.2,89.4,16.7,133
				c2.3,12,4.7,24,6.8,36.1C528.8,999.1,535.7,997.2,534.9,992.7L534.9,992.7z"/>
		</g>
	</g>
	<g>
		<path d="M554.5,976.5c21.1-22.9,69-16.1,75.3,17.3c0.9,4.5,7.8,2.6,6.9-1.9c-3.3-17.7-19.3-30.8-36.3-34.8
			c-17.7-4.1-38.4,0.7-51,14.3C546.3,974.8,551.4,979.9,554.5,976.5L554.5,976.5z"/>
	</g>
	<g>
		<path d="M530.8,995.9c23.8,6.3,48.5,8.1,72.9,5c4.5-0.6,4.6-7.7,0-7.2c-23.8,3-47.8,1.4-71-4.8
			C528.3,987.8,526.4,994.7,530.8,995.9L530.8,995.9z"/>
	</g>
	<g>
		<path d="M444.5,945.3c14,11.8,33.3,14.5,50,7.3c4.2-1.8,0.6-8-3.6-6.2c-13.6,5.8-30.1,3.3-41.4-6.2
			C446,937.2,440.9,942.3,444.5,945.3L444.5,945.3z"/>
	</g>
	<g>
		<path d="M526.9,957.7c12.5,3.1,25.7,0.8,36.2-6.7c3.7-2.7,0.1-8.9-3.6-6.2c-9,6.4-19.9,8.7-30.6,6
			C524.3,949.6,522.4,956.5,526.9,957.7L526.9,957.7z"/>
	</g>
	<g>
		<path d="M435.8,840.8c10-6.3,18-15,23.4-25.5c2.1-4.1-4.1-7.7-6.2-3.6c-4.8,9.4-11.9,17.3-20.8,23
			C428.3,837.1,431.9,843.3,435.8,840.8L435.8,840.8z"/>
	</g>
	<g>
		<path d="M571,604.1c7.8,54.2,11.1,108.9,10,163.6c-0.3,15.4-1,30.8-2,46.1c-0.3,4.6,6.9,4.6,7.2,0c3.7-55.2,2.8-110.6-2.6-165.7
			c-1.5-15.4-3.4-30.7-5.6-46C577.3,597.6,570.4,599.5,571,604.1L571,604.1z"/>
	</g>
	<g>
		<path d="M440.1,609.2c-15,60.3-19.3,123.2-12.5,185c1.9,17.3,4.7,34.5,8.2,51.5c1,4.5,7.9,2.6,6.9-1.9
			c-12.6-59.8-14.6-121.9-5.7-182.4c2.5-16.9,5.8-33.7,9.9-50.2C448.1,606.6,441.2,604.7,440.1,609.2L440.1,609.2z"/>
	</g>
	<g>
		<path d="M559.6,542.8c0.2,1.1,0.3,2.1,0.5,3.2c0.4,0.1,0.8,0.1,1.2,0.2c0.7,0.3,1.6,0.4,2.3,0.7c1.8,0.6,3.6,1.2,5.3,2.1
			c3.3,1.5,6.4,3.5,9.2,5.7c5.6,4.3,10.5,9.6,14.7,15.3c9,12.1,16,25.9,22.1,39.7c12.9,29.2,20.5,60.9,22.5,92.8
			c1.1,18,0.5,36.2-2,54c-0.6,4.5,6.3,6.5,6.9,1.9c5.2-37.1,2.9-75-6.7-111.2c-4.7-17.6-11.1-34.8-19.2-51.1
			c-7.5-15.3-16.3-31.1-29-42.8c-6.6-6.1-14.4-11.1-23.1-13.5c-3.3-0.9-7.8-1.4-9.9,2.1c-1.8,3.1-0.2,7,3.2,8
			C562.1,551,564,544.1,559.6,542.8L559.6,542.8z"/>
	</g>
	<g>
		<path d="M592.7,759.7c12.4,2.2,24.9,4.4,37.3,6.6c4.5,0.8,6.5-6.1,1.9-6.9c-12.4-2.2-24.9-4.4-37.3-6.6
			C590.1,752,588.2,758.9,592.7,759.7L592.7,759.7z"/>
	</g>
	<g>
		<path d="M622.5,762.2c4.3,26-3.1,53.4-19.8,73.7c-2.9,3.5,2.1,8.6,5.1,5.1c18.5-22.5,26.4-52,21.6-80.7
			C628.6,755.8,621.7,757.7,622.5,762.2L622.5,762.2z"/>
	</g>
	<g>
		<path d="M598.5,790.8c6,15.7,3.7,34-6.8,47.3c-2.8,3.6,2.2,8.7,5.1,5.1c12-15.3,15.6-36,8.6-54.3
			C603.8,784.6,596.8,786.5,598.5,790.8L598.5,790.8z"/>
	</g>
	<g>
		<path d="M456.6,539.9c-40.3,10.8-78.1,30-110.6,56.2c-8.1,6.5-15.8,13.4-23.2,20.7c-7.4,7.3-15,15-20.5,23.9
			c-5.4,8.5-8.7,19-4.8,28.8c3.7,9.3,12.5,15.3,20.6,20.5c21.6,14,45.6,24.3,70.6,30.3c4.5,1.1,6.4-5.8,1.9-6.9
			c-20.8-5-40.7-12.9-59.2-23.7c-8.2-4.8-17.9-9.9-23.9-17.5c-7.1-8.8-4.3-19.2,1.1-28c5.2-8.3,12.5-15.5,19.4-22.4
			c6.9-6.9,14.1-13.4,21.6-19.5c15-12.2,31.3-22.9,48.4-31.9c19.2-10.1,39.5-18,60.5-23.6C463,545.7,461.1,538.7,456.6,539.9
			L456.6,539.9z"/>
	</g>
	<g>
		<path d="M370.8,654.9c28-4.3,54.2-17.8,74-38.1c3.2-3.3-1.8-8.4-5.1-5.1c-19,19.5-43.9,32.2-70.9,36.3
			C364.3,648.7,366.2,655.6,370.8,654.9L370.8,654.9z"/>
	</g>
	<g>
		<path d="M355.7,657.2c23.5,4,45.2,15.1,61.9,32.1c3.2,3.3,8.3-1.8,5.1-5.1c-17.6-17.8-40.5-29.8-65.1-33.9
			C353.1,649.5,351.1,656.4,355.7,657.2L355.7,657.2z"/>
	</g>
	<g>
		<path d="M394.2,713.2c8-9.6,15.9-19.1,23.9-28.7c2.9-3.5-2.1-8.6-5.1-5.1c-8,9.6-15.9,19.1-23.9,28.7
			C386.2,711.6,391.2,716.7,394.2,713.2L394.2,713.2z"/>
	</g>
	<g>
		<path d="M392.5,747.1c1.6,5.9,6.1,10.2,12.3,11c6.9,0.9,13.6-2.7,19.3-6.2c3.9-2.4,0.3-8.6-3.6-6.2c-5.9,3.7-18.2,10-21-0.5
			C398.2,740.7,391.3,742.6,392.5,747.1L392.5,747.1z"/>
	</g>
	<g>
		<path d="M411.9,723.8c-14.1-2-23,11.1-21.4,24.1c0.6,4.5,7.7,4.6,7.2,0c-0.9-7.5,2.7-18.6,12.3-17.2
			C414.5,731.3,416.4,724.4,411.9,723.8L411.9,723.8z"/>
	</g>
	<g>
		<path d="M386.4,718.7c9.4,2.6,17.7,7.6,24.3,14.7c3.1,3.4,8.2-1.7,5.1-5.1c-7.5-8-16.9-13.7-27.5-16.6
			C383.8,710.5,381.9,717.5,386.4,718.7L386.4,718.7z"/>
	</g>
	<g>
		<path d="M309.9,378.7c-12.3-1.6-23.9,9.6-23,21.8c0.3,4.6,7.5,4.6,7.2,0c-0.6-8.8,7.2-15.8,15.8-14.7
			C314.4,386.5,314.4,379.3,309.9,378.7L309.9,378.7z"/>
	</g>
	<g>
		<path d="M672,399.2c11-1.8,17,12.7,8.1,19.3c-3.7,2.7-0.1,8.9,3.6,6.2c6.7-5,10-13.9,6.6-21.8c-3.4-8-12-11.9-20.2-10.5
			C665.5,393,667.5,399.9,672,399.2L672,399.2z"/>
	</g>
	<g>
		<path d="M546.9,310.3c4-2.9,9-3.9,13.6-1.9c4.2,1.9,7.8-4.3,3.6-6.2c-6.8-3.1-14.7-2.7-20.8,1.9
			C539.6,306.8,543.2,313,546.9,310.3L546.9,310.3z"/>
	</g>
	<g>
		<path d="M404.2,325.4c3.9-4.2,9-6,14.6-5.4c4.6,0.5,4.5-6.7,0-7.2c-7.4-0.8-14.7,2-19.7,7.5C396.1,323.8,401.1,328.9,404.2,325.4
			L404.2,325.4z"/>
	</g>
	<g>
		<path d="M452.5,968.2c2.2,4.9,4.5,9.8,6.7,14.8c1.9,4.2,8.1,0.5,6.2-3.6c-2.2-4.9-4.5-9.8-6.7-14.8
			C456.8,960.3,450.6,964,452.5,968.2L452.5,968.2z"/>
	</g>
	<path class="st1" d="M435.3,368.3c-3-0.4-5.8,2.9-5,5.8s5.1,4.1,7.3,2s1.5-6.3-1.3-7.5"/>
	<path class="st1" d="M546.2,367c-3-0.4-5.8,2.9-5,5.8s5.1,4.1,7.3,2s1.5-6.3-1.3-7.5"/>
	<g>
		<path d="M463.6,983.1c6-2.3,12.2-4.8,16.4-9.9c3.7-4.5,5.5-10.9,3.1-16.5c-4.5-10.7-18.4-10.4-27.6-6.9c-5.2,2-3,10.5,2.3,8.5
			c4.5-1.7,13.7-4.2,16.9,1.1c4.7,7.8-8.3,13.3-13.4,15.3C456.1,976.7,458.4,985.1,463.6,983.1L463.6,983.1z"/>
	</g>
	<g>
		<path d="M398.5,979.1c11.2,3.2,22.6,5.1,34.2,5.9c5.6,0.4,5.6-8.4,0-8.8c-10.8-0.8-21.4-2.7-31.9-5.6
			C395.4,969.1,393,977.6,398.5,979.1L398.5,979.1z"/>
	</g>
	<g>
		<path d="M575.8,986.6c15.9-1.4,31.9-2.8,47.8-4.2c5.6-0.5,5.6-9.3,0-8.8c-15.9,1.4-31.9,2.8-47.8,4.2
			C570.2,978.3,570.1,987.1,575.8,986.6L575.8,986.6z"/>
	</g>
	<g>
		<path d="M598.9,1002.5c6.2-0.3,12.5-0.3,18.6-0.9c4.9-0.5,10-1.5,13.8-4.8c5.9-5.2,6.8-16.5-1.2-20.3c-5.1-2.4-9.5,5.1-4.4,7.6
			c1.8,0.8,1.9,2.7,1.1,4.5c-1.1,2.5-3.9,3.3-6.3,3.9c-6.9,1.5-14.7,1-21.7,1.3C593.3,994,593.3,1002.8,598.9,1002.5L598.9,1002.5z"
			/>
	</g>
	<g>
		<path d="M563.7,993.1c-0.3-1.6,0-3.2,1.1-4.8c1.3-2,0.4-4.8-1.6-6c-2.1-1.2-4.7-0.4-6,1.6c-2.2,3.5-2.8,7.6-2,11.6
			c0.5,2.3,3.2,3.7,5.4,3.1C563,997.8,564.2,995.4,563.7,993.1L563.7,993.1z"/>
	</g>
	<g>
		<path d="M606.5,995.9c0-1.1,0-2.2,0-3.3c0-2.3-2-4.5-4.4-4.4c-2.4,0.1-4.4,1.9-4.4,4.4c0,1.1,0,2.2,0,3.3c0,2.3,2,4.5,4.4,4.4
			C604.5,1000.2,606.5,998.4,606.5,995.9L606.5,995.9z"/>
	</g>
	<g>
		<path d="M429.9,993.7c0.5-1.6,1.1-3.3,1.6-4.9c0.7-2.2-0.8-4.9-3.1-5.4c-2.4-0.5-4.6,0.7-5.4,3.1c-0.5,1.6-1.1,3.3-1.6,4.9
			c-0.7,2.2,0.8,4.9,3.1,5.4C426.9,997.3,429.1,996,429.9,993.7L429.9,993.7z"/>
	</g>
	<g>
		<path d="M460.1,994.3c0-2.7,0-5.5,0-8.2c0-5.6-8.8-5.7-8.8,0c0,2.7,0,5.5,0,8.2C451.3,999.9,460.1,999.9,460.1,994.3L460.1,994.3z
			"/>
	</g>
	<g>
		<path d="M478.7,993.7c5.6,0,5.6-8.8,0-8.8C473.1,985,473.1,993.7,478.7,993.7L478.7,993.7z"/>
	</g>
	<g>
		<ellipse transform="matrix(0.6 -0.8 0.8 0.6 -205.7553 548.6348)" cx="445.8" cy="480.1" rx="4.3" ry="6"/>
	</g>
	<g>
		<path d="M514.2,499.8c0.2,1.2-0.7,2.6-2.5,3.6c-1.9,1-4.7,1.6-7.8,1.2c-3.1-0.4-5.7-1.6-7.3-3.1c-1.6-1.4-2.1-3-1.6-4.1
			c0.5-1.1,2-1.7,3.7-1.9c1.8-0.2,3.9-0.2,6.2,0.1c2.3,0.3,4.4,0.7,6.1,1.4C512.7,497.7,514,498.6,514.2,499.8z"/>
	</g>
</g>
</svg>
