<svg xmlns="http://www.w3.org/2000/svg" width="974" height="1118"><style>.st0{fill:#fcdfc7}.st1{fill:#fff}</style><path class="st0" d="M419.7 692.2c-7.5 2-15 6.4-17.6 13.7s2.8 17.2 10.5 16.5c-4.6 4.5-9.4 9.2-11.5 15.2-2.1 6.1-.6 13.9 5 17 6.3 3.4 14.5-.8 18-7s3.4-13.8 3.3-20.9c-.2-13.3-.4-26.6-.7-39.9m173 148.5c9.6-10.2 16.3-23.1 19.3-36.8 2.1-9.7 2.2-20.4-2.8-29-11.1-19-25-11.5-27.1 6.5-2.4 20.1 1.3 41.2 10.6 59.3z"/><path class="st1" d="M432.8 367.7c-3.9-.3-5.9 6-2.6 8 1.4-2 2.8-4.1 4.2-6.1"/><g opacity=".7"><path class="st0" d="M699.4 399.2c-2.8-15.9-20.2-28.2-35.7-23.8-1.8-11.5 3.4-22.9 7.7-33.7 4.3-10.9 7.8-23.4 2.8-33.9s-22.3-14.8-28.1-4.6c-11.8-18.5-23.9-37.2-40.5-51.5-16.6-14.3-38.7-23.8-60.4-20.4-20.3 3.2-37 17-54.5 27.8-15.6 9.7-34.9 17.4-52.2 12.9-9.9 6.1-21.4 10-32.9 12.4-16 3.3-32.3 4.8-48.5 6.9-2.9.4-5.7 1-8.5 1.6-10.6 2.6-20.9 1.2-30.5-3.7-3.9 28.7 4.3 58.9 22.5 81.4-15.4-.9-31.7-1.5-45.2 5.9-13.5 7.4-22.1 26-13.5 38.8 5.5 8.3 16.4 11.6 26.3 10.8 9.9-.8 19.2-5.1 28.2-9.3 13.4 46.6 55.8 83.4 103.8 90.1 11.1 1.5 23.2 1.9 31.9 9s6.3 28.6-4.4 31.7c7.2 4.6 12.5 9.3 21 10.1 8.5.8 31.8-1.8 33.7-10.1.9-4-8.5-14.6-7.4-18.5 2.8-10.1 16-11.9 26.4-13.3 43.3-5.8 81.1-41.1 90-83.9 13.2 9.3 31.1 12.5 45.9 6.1 14.5-6.3 24.9-23 22.1-38.8z"/><path d="M342.5 235.1c-12.3 19.4-18.8 42.2-19.2 65.1-.2 13.8 15.5 22 26.6 13.8 13.6-10.1 31-16 48-18.2 28.3-3.6 57 .7 85.5-.5s59-9.4 76.5-31.8c4.5-5.8 8.1-12.4 13.7-17.2 5.5-4.8 14-7.4 20.3-3.6 7.6 4.7 7.8 15.4 10.5 23.9s14.8 16 19.6 8.5c-7.7 9.6-.2 25.8 11.8 28.7 12 2.9 34.7-5.1 40.2-16.1 5.5-11-5.2-24.2-8-36.2-10.5-43.6-53.1-77.3-97.9-77.5-14.5 0-32.6 1.2-39.3-11.7-3.4-6.6-2.6-15.6-8.5-20.2-9.5-7.4-21.2 5-30.8 12.1-15.5 11.4-37.2 7.9-50.6-4.8 3 29.7-16 27.4-38.2 36.3-24.7 9.8-46.1 27.2-60.2 49.4z" fill="#a87532"/><path d="M554.1 408.1c3.1-3.8 6.5-7.7 11.2-9 4.7-1.3 10.8 1.6 10.9 6.4.1 4.1-4.1 7.2-8.2 7.5-4.1.3-8-1.5-11.6-3.2m-126.6 2.8c-.6-6.8-10.1-10.7-15.4-6.5-5.3 4.2-3.9 14.1 2.4 16.8s14.4-2.7 14.5-9.5" fill="#fca586"/><path d="M376.7 574c-22.7 10.8-43.4 27.9-53.5 51s-19.1 48 9.8 70.5c19.9 15.4 50.7 19.8 67.1.7 5.6-6.5 7.6-18.8-.4-22-4.6-1.9-9.9.7-14.8.2-12.5-1.2-14.6-20.6-5.7-29.4s22.5-10 34.8-12.1 26.1-6.9 30.6-18.6c-2.5 36.7-4.9 73.4-7.4 110.1-.8 11.9-1.4 24.6 4.7 34.8 10.9 18.3 36.7 19.4 57.9 17 33.1-3.8 25.7 16.5 97.5-20.9 9.7-5.1 21.5-7.5 27.8-16.5 6.3-9 6.5-20.8 5.9-31.8-2.1-39.5-11.2-78.6-26.8-114.9-6.3-14.8-14.7-30.2-29.3-37.1-14.5-6.9-31.6-3.7-46.8 1.2-33.8 11.1-47.1 8.5-80.2 1.9-23.4-4.6-50 5.8-71.2 15.9z" fill="#76b869"/><path d="M450 902.5c-.2 11-.7 22.3 3.2 32.5s13.7 19.2 24.6 18.3c11.9-1 20.2-13 22.2-24.8s-.4-23.8-.5-35.7 3.1-25.1 12.9-31.9c.2 22.2.6 45.2 10.3 65.2 4.7 9.6 11.8 18.6 21.7 22.7 9.9 4.1 22.7 2.2 29.1-6.3 4.5-51.7 2.4-103.7.3-155.5-.2-4.1-.8-8.9-4.4-10.9-3.3-1.8-7.3-.2-10.8 1.2-42 17.6-81.5 8.7-121.5-7.9-6.7 13.8 6.3 45.3 8.6 61.7 3.3 23.7 4.7 47.5 4.3 71.4z" fill="#3593a1"/><path d="M457.3 971.2c-1-4.3-2-8.7-3-13 12.8-1.4 25.6-2.9 38.4-4.3 8.8 10.2 4.3 27.3-6.4 35.5s-25.2 9.3-38.6 8c-13-1.3-25.8-4.6-37.8-9.7-3.8-1.6-7.8-3.7-9.7-7.4-3.8-7.5 3.5-16 11.2-19.3 15.6-6.7 35.5-1.6 46 11.8m81.3 17c9.1 5.7 20.4 6.4 31.1 6.8 15.3.7 30.6 1.4 46 2 4.8.2 10.5-.1 12.9-4.2 2.2-3.8.3-8.6-2.1-12.2-13-19.6-41.1-27.3-62.3-17 2.2-5.5 1.4-12.1-2.1-16.8-17.3 5.5-57.2 20.4-23.5 41.4z" fill="#ebe5e4"/></g><path d="M435.4 185.1h-2.6" fill="#d19e5a"/><path d="M327.3 356.9c-20-35.5-18.8-79.8 2.6-114.4 2.4-3.9-3.8-7.5-6.2-3.6-22.8 36.7-23.8 84-2.6 121.6 2.3 4 8.5.4 6.2-3.6z"/><path d="M321.4 257.2c8.1-17.9 20-33.6 35.4-45.9 15.1-12.1 32.9-20.6 51-27 10.9-3.9 22.1-7.1 33.3-10 2-.5 3.5-3.4 2.1-5.3l-18-24.3c-1 1.8-2.1 3.6-3.1 5.4 17.3-2 35.2 2.3 49 13 2 1.5 4.1 1.3 5.6-.7 7.4-9.6 16.1-20.4 29.2-21.2 5.4-.4 11.2 1.2 14.1 6 2.3 3.9 2.3 8.5-1.1 11.6-3.4 3.1 1.7 8.2 5.1 5.1 4.9-4.4 6-11.3 3.7-17.3-2.6-6.9-8.8-11.1-15.9-12.2-18.3-2.9-31.2 11.4-41.2 24.4 1.9-.2 3.8-.5 5.6-.7-15.3-11.9-34.8-17.4-54.1-15.1-2.4.3-4.9 3-3.1 5.4l18 24.3c.7-1.8 1.4-3.5 2.1-5.3-38.8 10-78.9 24.8-105.4 56.4-7.6 9.1-13.8 19.1-18.6 29.9-1.7 4.1 4.4 7.7 6.3 3.5z"/><path d="M520.9 164.8c50.2-5.2 101.4 14 136.8 49.6 10 10 18.5 21.3 25.5 33.6 1-1.8 2.1-3.6 3.1-5.4-3.6-.4-7.2-.8-10.7-1.1-2.4-.2-4 2.5-3.5 4.5 10.4 42.2 6.2 87.5-12 127-1.9 4.2 4.3 7.8 6.2 3.6 19-41.3 23.6-88.4 12.7-132.6-1.2 1.5-2.3 3-3.5 4.5 3.6.4 7.2.8 10.7 1.1 2.8.3 4.3-3.2 3.1-5.4-25.8-45.3-73.2-77.1-124.5-85.4-14.6-2.4-29.4-2.9-44-1.4-4.5.7-4.5 7.8.1 7.4z"/><path d="M657.9 388.2c6-9 18.2-15.3 29-12.2 13.1 3.7 17.6 20.6 16.7 32.6-1 13.4-9 25.3-20.5 31.9-10.5 6-25.8 8.1-34.6-1.9-3-3.5-8.1 1.6-5.1 5.1 8 9.2 21.5 10.7 32.7 7.5 11.8-3.4 22.2-11.5 28.4-22.1 11.8-20.1 7.1-59.1-21.5-60.9-12.4-.8-24.5 6.4-31.3 16.4-2.6 3.9 3.6 7.5 6.2 3.6zm-316.7-15.8c-18.4-20.2-54.9-18.3-69.4 5.6-7 11.6-8.3 26.8-3.1 39.4 5 12 15.7 20.3 28.6 22.3 14.4 2.2 29.3-2.9 37.9-14.9 2.7-3.8-3.5-7.3-6.2-3.6-12.8 17.9-42.8 14.9-52.6-4.2-5-9.8-4.9-22.2-.2-32.1 4.9-10.3 14.4-16.9 25.5-18.8 12.5-2.1 25.8 1.9 34.4 11.3 3.2 3.5 8.3-1.6 5.1-5z"/><path d="M330.4 422.8c-.2 24.5 12.4 47 30 63.5 20.1 18.9 46.2 29.7 73 35.2 28.9 5.9 59.1 6.6 88.4 4.1 28.1-2.3 57.3-8.5 81.1-24.4 22.5-15 40.9-39.3 40.2-67.4-.1-4.6-7.3-4.6-7.2 0 .6 23.5-13.9 44.4-32.2 58-21.3 15.9-48.2 22.9-74.2 25.9-27.4 3.1-55.9 3.1-83.2-1.1-25.7-4-51.5-12.1-72.3-28-20.5-15.7-36.7-39.2-36.5-65.8.1-4.6-7.1-4.6-7.1 0zm58-141.7c1.5 18 20.5 22.5 35.5 23 15.5.6 32.8 1 45.8-8.8 3.6-2.7.1-9-3.6-6.2-10.6 8-24.1 8.3-36.9 8-11.3-.3-32.3-.5-33.6-16-.4-4.5-7.6-4.6-7.2 0z"/><path d="M457.1 285.8c14.8 13.3 35.4 16.3 54.4 12.1 21.4-4.7 39-18.9 53.1-35.2 8.4-9.8 15.8-20.3 23-31 2.6-3.8-3.6-7.4-6.2-3.6-14.6 21.5-30.5 44.3-54.2 56.6-20 10.4-47.3 12-65-3.9-3.4-3.2-8.5 1.9-5.1 5zm144.9-22c.5 4.7 1.4 9.3 2.7 13.9 1.1 3.6 2.3 7.8 5.9 9.6 3 1.6 6.6 1 9.6-.5 3.7-1.8 6.1-5.7 10.1-6.9-1.5-1.1-3-2.3-4.5-3.5 1.3 12.1 6.2 23.2 14.3 32.3 3.1 3.4 8.2-1.6 5.1-5.1-6.8-7.6-11.1-17.1-12.2-27.2-.2-2.2-2.1-4.2-4.5-3.5-2.3.7-4.2 1.8-6 3.2-1.8 1.4-4.1 4.4-6.5 4.6-4.9.6-6.2-13.5-6.7-17.1-.6-4.4-7.8-4.4-7.3.2zm-137.9 174c-2 6.7 1 13.7 6.5 17.8 6.4 4.7 15.1 4.5 22.2 1.8 6.3-2.4 13.2-6.8 14.3-14 1-6.4-3.8-13.2-10.6-12.9-4.6.2-4.6 7.4 0 7.2 4.6-.2 3.7 5.8 1.7 8.1-2.7 3.1-7.2 5-11.1 5.9-7.4 1.7-19-2.2-16.1-11.9 1.3-4.5-5.6-6.4-6.9-2zm9.6 88.5c5.9 7.5-.8 15.8-7.9 19-4.2 1.9-.6 8.1 3.6 6.2 12-5.4 18-19.3 9.3-30.3-2.8-3.6-7.8 1.5-5 5.1zm46.1-4.7c-3.6 10.1 5 21.5 15.6 21.2 4.6-.1 4.6-7.3 0-7.2-6.2.2-10.7-6.4-8.7-12.1 1.6-4.4-5.4-6.3-6.9-1.9z"/><path d="M451 544.7c3 8.8 8.5 16.3 16.8 20.7 8.8 4.8 19 5.6 28.9 5 22.8-1.5 44.6-11.4 60.7-27.6 3.3-3.3-1.8-8.3-5.1-5.1-14.1 14.2-33.1 23.4-53.1 25.3-17.2 1.6-35-2.2-41.3-20.2-1.5-4.3-8.5-2.5-6.9 1.9zm-27.7-176.2c-2.8 6-4 12.6-2 19.1 2 6.7 7.5 13 15.2 10.7 6.1-1.8 9.5-8.8 10.6-14.6 1.3-6.7.3-12.9-2.6-19-2-4.3-8.1-5.4-12-3.1-4.4 2.5-5.2 7.7-3.1 12 .8 1.6 1.1 3.6.9 5.4-.1.8-.3 1.9-.6 2.6-.1.5-.3.9-.6 1.2-.6 1.2-.8 1.5-.6.7 1.3-.8 2.6-1.5 3.9-2.2.2 0 .3-.1.5-.1 1.5.4 3 .8 4.4 1.2 1.8 1.1.8.3.6-1.5-.1-1.2.1-2.5.6-3.6 2-4.3 1.2-9.5-3.1-12-3.9-2.2-10.1-1.1-12.1 3.2zm115-4.2c-1.8 2.4-3.1 5.2-4 8-.4 1.2-.7 2.5-.9 3.8-.1 1-.3 1.9-.4 2.9-.1 1.3-.1 1.5 0 .6-.7 6.6 2.3 12.6 9.2 14.3 6.3 1.6 12.3-1.8 15.1-7.5 1.4-2.8 1.9-5.7 2.1-8.8.1-2.5-.1-4.2.7-6.4 1.7-4.4-1.9-9.6-6.1-10.8-4.9-1.4-9.1 1.7-10.8 6.1-1.1 2.8-1.2 5.8-1.3 8.8v2.2c-.1 1.1-.1 1.2 0 .4-.3 1-.3 1.2 0 .4.3-.4.8-.7 1.3-.9 1-.7 2.1-.9 3.4-.6 2.8 1 4 3.2 3.6 6.6.5-1.3.2-2.9.4-3.9.4-2.5 1.5-4.4 3-6.5 2.8-3.8.7-9.8-3.1-12-4.7-2.4-9.5-.5-12.2 3.3zm-94.9 115.3c40.6 18 92.1 7.7 120.4-27.2 2.9-3.6-2.2-8.7-5.1-5.1-26.1 32.3-74 43-111.8 26.1-4.1-1.8-7.8 4.3-3.5 6.2z"/><path d="M549.8 451.5c6.3-1 12.3.9 17.4 4.7 3.7 2.8 7.3-3.5 3.6-6.2-6.7-5-14.7-6.6-22.9-5.4-4.5.7-2.6 7.6 1.9 6.9zM431.1 769.3c40.7 27 106.8 42.1 142-2 2.8-3.6-2.2-8.7-5.1-5.1-33.2 41.6-95.2 26.2-133.3.9-3.8-2.5-7.4 3.7-3.6 6.2zm4 11.5c-9.9 9.6-6.1 25.4-4.8 37.5 1.8 16.9 3.7 33.8 5.5 50.7 3.3 30.6 4.1 63.5 17.4 91.8 2 4.2 8.1.5 6.2-3.6-6.2-13.2-9.2-27.6-11.2-42-2.1-14.8-3.4-29.8-5-44.6-1.7-15.3-3.3-30.6-5-45.9-.8-7.3-1.9-14.7-2.3-22.1-.4-5.9-.2-12.3 4.3-16.6 3.3-3.4-1.8-8.4-5.1-5.2z"/><path d="M468.9 973.2c-13.6-12.8-33.8-24.7-53.1-18.3-15.3 5.1-28.1 22.1-22 38.4 1.6 4.3 8.5 2.4 6.9-1.9-5-13.4 6.4-27 19.1-30.2 16.3-4.1 32.8 6.4 44 17.1 3.4 3.2 8.4-1.9 5.1-5.1z"/><path d="M392.9 995.2c34.4 13.6 73.8 15.3 109.2 4.6 4.4-1.3 2.5-8.3-1.9-6.9-34.3 10.4-72.1 8.6-105.4-4.6-4.3-1.7-6.2 5.2-1.9 6.9z"/><path d="M501.7 991c8.3-48.1 10.7-97 7.1-145.6-.3-4.6-7.5-4.6-7.2 0 3.5 48 1.3 96.3-6.9 143.7-.7 4.5 6.3 6.4 7 1.9zM577 778.8c4.3 4.7 4.5 11.8 4.3 17.8-.2 7.4-.9 14.8-1.3 22.1-1.1 16.3-2.1 32.7-3.2 49-2 30.6-1.5 63.1-12.2 92.2-1.6 4.3 5.3 6.2 6.9 1.9 8.7-23.7 9.6-49.4 11.2-74.4 1.7-26.9 3.5-53.8 5.2-80.6.7-11.1 2.3-24.2-5.8-33.1-3.1-3.4-8.2 1.6-5.1 5.1z"/><path d="M534.9 992.7c-7.7-43.7-18.1-87.1-22-131.4-1-11.9-1.6-23.8-1.2-35.8.1-4.6-7-4.6-7.2 0-1.5 44.7 8.2 89.4 16.7 133 2.3 12 4.7 24 6.8 36.1.8 4.5 7.7 2.6 6.9-1.9zm19.6-16.2c21.1-22.9 69-16.1 75.3 17.3.9 4.5 7.8 2.6 6.9-1.9-3.3-17.7-19.3-30.8-36.3-34.8-17.7-4.1-38.4.7-51 14.3-3.1 3.4 2 8.5 5.1 5.1z"/><path d="M530.8 995.9c23.8 6.3 48.5 8.1 72.9 5 4.5-.6 4.6-7.7 0-7.2-23.8 3-47.8 1.4-71-4.8-4.4-1.1-6.3 5.8-1.9 7zm-86.3-50.6c14 11.8 33.3 14.5 50 7.3 4.2-1.8.6-8-3.6-6.2-13.6 5.8-30.1 3.3-41.4-6.2-3.5-3-8.6 2.1-5 5.1zm82.4 12.4c12.5 3.1 25.7.8 36.2-6.7 3.7-2.7.1-8.9-3.6-6.2-9 6.4-19.9 8.7-30.6 6-4.6-1.2-6.5 5.7-2 6.9zm-91.1-116.9c10-6.3 18-15 23.4-25.5 2.1-4.1-4.1-7.7-6.2-3.6-4.8 9.4-11.9 17.3-20.8 23-3.9 2.4-.3 8.6 3.6 6.1zM571 604.1c7.8 54.2 11.1 108.9 10 163.6-.3 15.4-1 30.8-2 46.1-.3 4.6 6.9 4.6 7.2 0 3.7-55.2 2.8-110.6-2.6-165.7-1.5-15.4-3.4-30.7-5.6-46-.7-4.5-7.6-2.6-7 2z"/><path d="M440.1 609.2c-15 60.3-19.3 123.2-12.5 185 1.9 17.3 4.7 34.5 8.2 51.5 1 4.5 7.9 2.6 6.9-1.9-12.6-59.8-14.6-121.9-5.7-182.4 2.5-16.9 5.8-33.7 9.9-50.2 1.2-4.6-5.7-6.5-6.8-2zm119.5-66.4c.2 1.1.3 2.1.5 3.2.4.1.8.1 1.2.2.7.3 1.6.4 2.3.7 1.8.6 3.6 1.2 5.3 2.1 3.3 1.5 6.4 3.5 9.2 5.7 5.6 4.3 10.5 9.6 14.7 15.3 9 12.1 16 25.9 22.1 39.7 12.9 29.2 20.5 60.9 22.5 92.8 1.1 18 .5 36.2-2 54-.6 4.5 6.3 6.5 6.9 1.9 5.2-37.1 2.9-75-6.7-111.2-4.7-17.6-11.1-34.8-19.2-51.1-7.5-15.3-16.3-31.1-29-42.8-6.6-6.1-14.4-11.1-23.1-13.5-3.3-.9-7.8-1.4-9.9 2.1-1.8 3.1-.2 7 3.2 8 4.5 1.1 6.4-5.8 2-7.1zm33.1 216.9c12.4 2.2 24.9 4.4 37.3 6.6 4.5.8 6.5-6.1 1.9-6.9-12.4-2.2-24.9-4.4-37.3-6.6-4.5-.8-6.4 6.1-1.9 6.9z"/><path d="M622.5 762.2c4.3 26-3.1 53.4-19.8 73.7-2.9 3.5 2.1 8.6 5.1 5.1 18.5-22.5 26.4-52 21.6-80.7-.8-4.5-7.7-2.6-6.9 1.9z"/><path d="M598.5 790.8c6 15.7 3.7 34-6.8 47.3-2.8 3.6 2.2 8.7 5.1 5.1 12-15.3 15.6-36 8.6-54.3-1.6-4.3-8.6-2.4-6.9 1.9zM456.6 539.9c-40.3 10.8-78.1 30-110.6 56.2-8.1 6.5-15.8 13.4-23.2 20.7-7.4 7.3-15 15-20.5 23.9-5.4 8.5-8.7 19-4.8 28.8 3.7 9.3 12.5 15.3 20.6 20.5 21.6 14 45.6 24.3 70.6 30.3 4.5 1.1 6.4-5.8 1.9-6.9-20.8-5-40.7-12.9-59.2-23.7-8.2-4.8-17.9-9.9-23.9-17.5-7.1-8.8-4.3-19.2 1.1-28 5.2-8.3 12.5-15.5 19.4-22.4 6.9-6.9 14.1-13.4 21.6-19.5 15-12.2 31.3-22.9 48.4-31.9 19.2-10.1 39.5-18 60.5-23.6 4.5-1.1 2.6-8.1-1.9-6.9z"/><path d="M370.8 654.9c28-4.3 54.2-17.8 74-38.1 3.2-3.3-1.8-8.4-5.1-5.1-19 19.5-43.9 32.2-70.9 36.3-4.5.7-2.6 7.6 2 6.9z"/><path d="M355.7 657.2c23.5 4 45.2 15.1 61.9 32.1 3.2 3.3 8.3-1.8 5.1-5.1-17.6-17.8-40.5-29.8-65.1-33.9-4.5-.8-6.5 6.1-1.9 6.9z"/><path d="M394.2 713.2c8-9.6 15.9-19.1 23.9-28.7 2.9-3.5-2.1-8.6-5.1-5.1-8 9.6-15.9 19.1-23.9 28.7-2.9 3.5 2.1 8.6 5.1 5.1zm-1.7 33.9c1.6 5.9 6.1 10.2 12.3 11 6.9.9 13.6-2.7 19.3-6.2 3.9-2.4.3-8.6-3.6-6.2-5.9 3.7-18.2 10-21-.5-1.3-4.5-8.2-2.6-7 1.9z"/><path d="M411.9 723.8c-14.1-2-23 11.1-21.4 24.1.6 4.5 7.7 4.6 7.2 0-.9-7.5 2.7-18.6 12.3-17.2 4.5.6 6.4-6.3 1.9-6.9z"/><path d="M386.4 718.7c9.4 2.6 17.7 7.6 24.3 14.7 3.1 3.4 8.2-1.7 5.1-5.1-7.5-8-16.9-13.7-27.5-16.6-4.5-1.2-6.4 5.8-1.9 7zm-76.5-340c-12.3-1.6-23.9 9.6-23 21.8.3 4.6 7.5 4.6 7.2 0-.6-8.8 7.2-15.8 15.8-14.7 4.5.7 4.5-6.5 0-7.1zM672 399.2c11-1.8 17 12.7 8.1 19.3-3.7 2.7-.1 8.9 3.6 6.2 6.7-5 10-13.9 6.6-21.8-3.4-8-12-11.9-20.2-10.5-4.6.6-2.6 7.5 1.9 6.8zm-125.1-88.9c4-2.9 9-3.9 13.6-1.9 4.2 1.9 7.8-4.3 3.6-6.2-6.8-3.1-14.7-2.7-20.8 1.9-3.7 2.7-.1 8.9 3.6 6.2zm-142.7 15.1c3.9-4.2 9-6 14.6-5.4 4.6.5 4.5-6.7 0-7.2-7.4-.8-14.7 2-19.7 7.5-3 3.5 2 8.6 5.1 5.1zm48.3 642.8c2.2 4.9 4.5 9.8 6.7 14.8 1.9 4.2 8.1.5 6.2-3.6-2.2-4.9-4.5-9.8-6.7-14.8-1.9-4.3-8.1-.6-6.2 3.6z"/><path class="st1" d="M435.3 368.3c-3-.4-5.8 2.9-5 5.8s5.1 4.1 7.3 2 1.5-6.3-1.3-7.5m109.9-1.6c-3-.4-5.8 2.9-5 5.8s5.1 4.1 7.3 2 1.5-6.3-1.3-7.5"/><path d="M463.6 983.1c6-2.3 12.2-4.8 16.4-9.9 3.7-4.5 5.5-10.9 3.1-16.5-4.5-10.7-18.4-10.4-27.6-6.9-5.2 2-3 10.5 2.3 8.5 4.5-1.7 13.7-4.2 16.9 1.1 4.7 7.8-8.3 13.3-13.4 15.3-5.2 2-2.9 10.4 2.3 8.4zm-65.1-4c11.2 3.2 22.6 5.1 34.2 5.9 5.6.4 5.6-8.4 0-8.8-10.8-.8-21.4-2.7-31.9-5.6-5.4-1.5-7.8 7-2.3 8.5zm177.3 7.5c15.9-1.4 31.9-2.8 47.8-4.2 5.6-.5 5.6-9.3 0-8.8-15.9 1.4-31.9 2.8-47.8 4.2-5.6.5-5.7 9.3 0 8.8z"/><path d="M598.9 1002.5c6.2-.3 12.5-.3 18.6-.9 4.9-.5 10-1.5 13.8-4.8 5.9-5.2 6.8-16.5-1.2-20.3-5.1-2.4-9.5 5.1-4.4 7.6 1.8.8 1.9 2.7 1.1 4.5-1.1 2.5-3.9 3.3-6.3 3.9-6.9 1.5-14.7 1-21.7 1.3-5.5.2-5.5 9 .1 8.7zm-35.2-9.4c-.3-1.6 0-3.2 1.1-4.8 1.3-2 .4-4.8-1.6-6-2.1-1.2-4.7-.4-6 1.6-2.2 3.5-2.8 7.6-2 11.6.5 2.3 3.2 3.7 5.4 3.1 2.4-.8 3.6-3.2 3.1-5.5z"/><path d="M606.5 995.9v-3.3c0-2.3-2-4.5-4.4-4.4-2.4.1-4.4 1.9-4.4 4.4v3.3c0 2.3 2 4.5 4.4 4.4 2.4-.1 4.4-1.9 4.4-4.4zm-176.6-2.2c.5-1.6 1.1-3.3 1.6-4.9.7-2.2-.8-4.9-3.1-5.4-2.4-.5-4.6.7-5.4 3.1-.5 1.6-1.1 3.3-1.6 4.9-.7 2.2.8 4.9 3.1 5.4 2.4.5 4.6-.8 5.4-3.1zm30.2.6v-8.2c0-5.6-8.8-5.7-8.8 0v8.2c0 5.6 8.8 5.6 8.8 0zm18.6-.6c5.6 0 5.6-8.8 0-8.8-5.6.1-5.6 8.8 0 8.8z"/><ellipse transform="rotate(-53 445.757 480.073)" cx="445.8" cy="480.1" rx="4.3" ry="6"/><path d="M514.2 499.8c.2 1.2-.7 2.6-2.5 3.6-1.9 1-4.7 1.6-7.8 1.2-3.1-.4-5.7-1.6-7.3-3.1-1.6-1.4-2.1-3-1.6-4.1.5-1.1 2-1.7 3.7-1.9 1.8-.2 3.9-.2 6.2.1 2.3.3 4.4.7 6.1 1.4 1.7.7 3 1.6 3.2 2.8z"/></svg>