<?xml version="1.0" encoding="utf-8"?>
<!-- Generator: Adobe Illustrator 23.0.2, SVG Export Plug-In . SVG Version: 6.00 Build 0)  -->
<svg version="1.1" id="Layer_1" xmlns="http://www.w3.org/2000/svg" xmlns:xlink="http://www.w3.org/1999/xlink" x="0px" y="0px"
	 viewBox="0 0 1000 1000" style="enable-background:new 0 0 1000 1000;" xml:space="preserve">
<style type="text/css">
	.st0{opacity:0.7;fill:#85ECFF;}
	.st1{opacity:0.7;fill:#F7FEFF;}
	.st2{opacity:0.53;fill:#009DD1;enable-background:new    ;}
</style>
<g>
	<path class="st0" d="M496.4,441.7c-10.4,1.2-20.7,3.6-30.1,8.2c-22.4,10.9-38.2,34.2-40,59.1c-1.8,24.9,10.6,50.2,31.2,64.2
		c27.2,18.4,55.5,25.1,86.6,14.5c12.2-4.2,32.5-18.8,42.1-27.4c21-18.7,27.2-51.2,17-77.4c-10.3-26.2-35.3-45.2-62.9-50.9
		c-27.5-5.7-56.9,1.3-80.6,16.3"/>
	<path class="st1" d="M487.6,466.4c-8.9,4.5-17.4,10.2-23.5,18.1c-6.1,7.9-9.5,18.3-7.5,28c2.9,14.1,17.3,24.4,31.7,24.1
		s27.8-10.1,33.9-23.1c5-10.6,5.5-23.8-0.8-33.6c-6.3-9.9-20.2-14.9-30.6-9.5"/>
	<path class="st1" d="M548.8,474.5c2.2,8.8,8.7,19.4,17.3,16.8c5.9-1.8,8.3-9.5,6-15.2c-2.3-5.7-8-9.3-13.8-11.3
		c-1.5-0.5-3.2-0.9-4.4,0.1c-1.2,1-0.5,3.6,1,3.1"/>
	<path class="st2" d="M532,585.1c15.8-2.5,34-7.4,40.2-22.1c1.1-2.5,1.5-5.9-0.6-7.6c-2.3-2-5.8-0.5-8.5,0.8
		c-16.1,7.5-68.1,0.1-77.6,13.6C471,590.4,523.7,586.4,532,585.1z"/>
	<g>
		<path d="M507.9,425.4c-42.2-3.4-84.1,25-97.2,65.1c-12.9,39.5,5.5,85.6,40,107.8c40.8,26.2,99.6,14.7,137.4-11.9
			c18.3-12.9,32.2-30.9,36.9-53c4.4-20.7,1.6-42.5-7.5-61.6c-21.6-45.7-78-64.1-124.8-51.2c-7.4,2-4.3,13.6,3.2,11.6
			c36.8-10.1,81.6,0.8,104.1,33.3c21.7,31.3,20.3,75.8-8,102.5c-15.5,14.7-36.3,23.8-56.8,29c-21.5,5.4-44.9,6-65.8-2.4
			c-33.8-13.5-55.2-52.1-50.2-88c5.8-41.8,47.4-72.5,88.7-69.2C515.6,438,515.5,426,507.9,425.4L507.9,425.4z"/>
	</g>
</g>
</svg>
