<svg xmlns="http://www.w3.org/2000/svg" width="1000" height="1000"><path d="M496.4 441.7c-10.4 1.2-20.7 3.6-30.1 8.2-22.4 10.9-38.2 34.2-40 59.1-1.8 24.9 10.6 50.2 31.2 64.2 27.2 18.4 55.5 25.1 86.6 14.5 12.2-4.2 32.5-18.8 42.1-27.4 21-18.7 27.2-51.2 17-77.4-10.3-26.2-35.3-45.2-62.9-50.9-27.5-5.7-56.9 1.3-80.6 16.3" opacity=".7" fill="#85ecff"/><path d="M487.6 466.4c-8.9 4.5-17.4 10.2-23.5 18.1-6.1 7.9-9.5 18.3-7.5 28 2.9 14.1 17.3 24.4 31.7 24.1s27.8-10.1 33.9-23.1c5-10.6 5.5-23.8-.8-33.6-6.3-9.9-20.2-14.9-30.6-9.5m58 4.1c2.2 8.8 8.7 19.4 17.3 16.8 5.9-1.8 8.3-9.5 6-15.2-2.3-5.7-8-9.3-13.8-11.3-1.5-.5-3.2-.9-4.4.1-1.2 1-.5 3.6 1 3.1" opacity=".7" fill="#f7feff"/><path d="M532 585.1c15.8-2.5 34-7.4 40.2-22.1 1.1-2.5 1.5-5.9-.6-7.6-2.3-2-5.8-.5-8.5.8-16.1 7.5-68.1.1-77.6 13.6-14.5 20.6 38.2 16.6 46.5 15.3z" opacity=".53" fill="#009dd1"/><path d="M507.9 425.4c-42.2-3.4-84.1 25-97.2 65.1-12.9 39.5 5.5 85.6 40 107.8 40.8 26.2 99.6 14.7 137.4-11.9 18.3-12.9 32.2-30.9 36.9-53 4.4-20.7 1.6-42.5-7.5-61.6-21.6-45.7-78-64.1-124.8-51.2-7.4 2-4.3 13.6 3.2 11.6 36.8-10.1 81.6.8 104.1 33.3 21.7 31.3 20.3 75.8-8 102.5-15.5 14.7-36.3 23.8-56.8 29-21.5 5.4-44.9 6-65.8-2.4-33.8-13.5-55.2-52.1-50.2-88 5.8-41.8 47.4-72.5 88.7-69.2 7.7.6 7.6-11.4 0-12z"/></svg>