<?xml version="1.0" encoding="utf-8"?>
<!-- Generator: Adobe Illustrator 23.0.2, SVG Export Plug-In . SVG Version: 6.00 Build 0)  -->
<svg version="1.1" id="Layer_1" xmlns="http://www.w3.org/2000/svg" xmlns:xlink="http://www.w3.org/1999/xlink" x="0px" y="0px"
	 viewBox="0 0 1000 1000" style="enable-background:new 0 0 1000 1000;" xml:space="preserve">
<style type="text/css">
	.st0{opacity:0.7;fill:#6F5EA8;}
	.st1{opacity:0.7;fill:#D1FBFF;}
	.st2{fill:#D1FBFF;}
	.st3{fill:#997256;}
	.st4{opacity:0.7;fill:#99471C;}
	.st5{opacity:0.7;}
	.st6{fill:#4F240F;}
	.st7{fill:#99471C;}
	.st8{opacity:0.7;fill:#997256;}
	.st9{opacity:0.7;fill:#D9A179;}
	.st10{opacity:0.7;fill:#FFD2CC;}
	.st11{fill:#FFFFFF;}
</style>
<g>
	<g>
		<path class="st0" d="M650.1,384.1c2.7-4.5,7.1-14.6,11.9-8c9.2,36.4,12,65.5,11.8,103.2c-0.1,22.7-6.7,50.6-15.7,71
			s-26.3,37.5-46.9,40c10.8-1.3-4.9-34.5-18.1-44.4c-15.8-11.9-28.3,1.1-9.2-48.9C600.2,454.3,626.9,423,650.1,384.1z"/>
		<path class="st1" d="M424.9,684.1c-6.5-5.7-3.9-17,2.5-22.8c6.4-5.8,15.1-8,23.1-11.4c8-3.4,14.9-8.5,16.7-16.9
			c-21.9,7.7-40.7,6.8-63.2,2.9c-12-2.1-31.9-9.5-43.3-2c-13.6,8.9-10.3,29.2-1.4,40.2C375.2,693.7,403.4,688.6,424.9,684.1z"/>
		<path class="st1" d="M670.4,661.4c-28.3,32-83.6-23.2-62-51.8C636.2,572.6,702.9,624.5,670.4,661.4z"/>
		<path class="st2" d="M614.4,641.3c-6-0.7-12.2-1.5-17.7-4.3c-5.4-2.8-10-8-10.3-14.1c-0.3-7.5,5.7-13.8,12.1-17.7
			c6.4-3.9,13.7-6.7,18.8-12.2"/>
		<path class="st3" d="M593.9,660.5c3.1,5.3,6.2,10.6,9.5,15.8c1.6,2.4,3.1,4.8,4.8,7.2c0.8,1.2,1.6,2.3,2.5,3.4
			c0.2,0.2,2,2.7,1.2,1.7c0.4,0.5,0.7,1,1.1,1.5c3.8-5.6,5.8-12.7,5.4-19.5c-0.9-15-21.6-47.8-40.7-39.3
			C583.1,641,588.3,650.8,593.9,660.5z"/>
		<path class="st4" d="M602.4,716.5c0.3-3.9,2.8-7.5,6.2-9.3c7.9,14.6,15.8,29.3,23.6,43.9c-1.2-20.4-11.1-40.2-26.8-53.4
			c-3.2,16.5,5.1,34.5,19.7,42.8"/>
		<path class="st4" d="M627.3,750.5c-9.6,8.1-15.3,20.6-15.2,33.2c10.7-12,18.1-27,21.1-42.8"/>
		<g class="st5">
			<path class="st6" d="M484.1,632.7c-19.4,15.6-36.4,34.2-50,55c-3.9-4.7-7.9-9.5-11.8-14.2c20-14.2,40-28.4,59.9-42.6"/>
			<path class="st6" d="M580.5,629.8c14.8,9.5,26.9,23,34.8,38.7c5.8-0.8,8.6-8.4,6.6-13.9s-7-9.3-11.7-12.8
				c-12.7-9.3-28.5-14.5-41.2-23.8"/>
			<path class="st6" d="M434.4,687.9c-20,8.3-32.3,31.9-27.8,53.1c9.8-20,21.3-39.1,34.4-57"/>
			<path class="st6" d="M426.9,777.1c-9-5.5-20.9-5.7-30.1-0.6c9.6,7.5,22.6,10.2,34.4,7.1"/>
			<path class="st6" d="M446.5,698.9c-5.6,10.8-11.1,21.6-16.7,32.3c1.8,2.1,3.6,4.2,5.5,6.3c7.1-5.4,14.5-11.2,17.8-19.5
				c3.3-8.3,0.5-19.7-8-22.5"/>
			<path class="st6" d="M495.9,730.4c-6.1,8-9.1,18.2-8.3,28.3c7.9-6.8,14.5-15,19.5-24.2c-3.5-3.1-7.1-6.2-10.6-9.3"/>
			<path class="st6" d="M470.3,780.8c-7.8-2.8-17.1-0.6-23,5.2c8.5,3.2,17.9,4.1,26.9,2.7"/>
			<path class="st6" d="M510,793.8c-9.1-3.8-20.1-2.4-28,3.4c9.4,4.9,21.5,3.7,29.8-3"/>
			<path class="st6" d="M570.7,733.5c6.9,9.5,13.8,19,20.7,28.5c3.3-14.5-3.6-30.7-16.3-38.4"/>
			<path class="st6" d="M581.6,789.7c-1.8-4.8,5.6-9.3,9.6-6.2s2.8,10.4-1.6,13s-10.4,1.2-14.2-2.3"/>
			<path class="st6" d="M611.4,706.7c-2.5,0.4-5,0.8-7.4,1.2c5.6,17.3,16.5,32.8,30.9,43.9"/>
			<path class="st6" d="M613.5,786.5c1.2-7.8,8.3-14.2,16.2-14.6s15.5,5.5,17.3,13.2c-12.2,0.8-24.4,1.7-36.7,2.5"/>
			<path class="st6" d="M648.9,720.7c4.7,16.5,2,34.9-7.2,49.3c10.1-1.8,20.3-3.6,30.4-5.4c-7.7-3.2-15.8-5.3-24-6.5
				c8.9-14.7,10.4-33.6,4.1-49.6c-5.7-14.3-18.4-27.8-33.5-31.6C626.1,693.3,643.5,701.8,648.9,720.7z"/>
		</g>
		<path class="st7" d="M560.3,404c7.6,7,15.3,14,22.9,20.9c6.6-6.3,6.2-18.4-0.9-24.2s-19.1-3.8-23.9,3.9"/>
		<path class="st8" d="M598.2,660.5c-7.6-14.4-12.4-30.9-26.4-39c-1.5-0.9-3.1-1.6-4.7-2.3c-2.8,0.9-5.8,1.1-8.8,0.5
			c-12.2-2.6-26.8-0.8-40.1,0.9c-13.5,1.7-26.5,2.7-39.9,1.1c-2.7,4.6-4.5,9.8-5.1,15.2c-11.8,1.1-25.6,14.6-34.6,20.3
			c-6.4,4-13.5,9.1-14.3,16.6c-1,8.5,6.4,15.3,13,20.6c4.5,3.7,9.9,7.5,15.6,6.6c0.9-0.2,1.7-0.4,2.5-0.7c0.2,0.4,0.5,0.9,0.7,1.3
			c3.9,6.2,11,9.4,17.9,12.1c16.3,6.4,33,11.6,50,15.8c15.8,3.8,32.4,6.7,48.3,3.2c15.9-3.5,31.1-14.7,35-30.5
			C610.7,687.9,605,673.3,598.2,660.5z"/>
		<path class="st7" d="M432.1,419.4c5.1-11.5,20.6-16.9,31.7-10.9c-6.2-12.8-21-20.8-35.1-18.9c0.8,9.4,4.2,18.6,9.8,26.2"/>
		<path class="st9" d="M470.2,559.5c-10,3.5-18,12.1-20.6,22.3c-2.6,10.2,0.2,21.5,7.3,29.3c14.2,15.5,38.9,13.9,59.9,10.9
			c15-2.1,20.8,2.6,35.8,0.5c16.8-2.4,45.8-13.7,51.9-29.3c3.8-9.7,0.6-21.2-6.4-29s-17.2-12.2-27.5-14.2
			c1.6,0.3-13.4-28.2-17.5-31.2c-10.8-7.9-26-10.5-39.1-7.5C492.2,516,474.9,538.5,470.2,559.5z"/>
		<path class="st10" d="M473,575.2c-1.5-2.8-6.4-1.8-7.5,1.2c-1.1,3,0.8,6.4,3.6,8c2.7,1.6,6,1.9,9.2,2.2c2,0.2,4.1,0.3,5.9-0.5
			c1.9-0.8,3.4-2.8,2.9-4.7c-1.2-5-11.7-2.1-12.6-7.2"/>
		<path class="st10" d="M569.6,577.3c2.2-4,4.7-8.4,8.9-10.2c4.2-1.9,10.4,0.5,10.5,5.1c0,2.4-1.6,4.5-3.5,6
			c-4.9,3.7-12.3,3.8-17.2,0.1"/>
		<path class="st0" d="M442.5,591.9c-2.8-11.7,2.4-24.8,12.5-31.9c4.1-2.9,9.2-5.2,11.3-9.6c3-6.5-1.4-14-6.5-19.1
			C420,491.6,327.2,414.8,318.5,408.7c-5,31.2,19.7,115.4,21.5,121c11.3,34.8,32,68,64,88c9.9,6.2,21.2,11.2,33,11.7
			c11.9,0.5,24.5-4.1,31-13.6C455.7,613.4,445.2,603.7,442.5,591.9z"/>
	</g>
	<g>
		<path d="M492.5,553.1c-4.4,2.1-4.5,9-3.2,13c1.5,4.7,6.9,5.9,10.4,2.5c4.2-4,2.5-10.3-0.4-14.5c-1.5-2.2-4.9-2.4-7.4-2.7
			c-3.3-0.4-6.2-0.1-9.2,1.2c-2.6,1.1-0.4,5,2.2,3.8c3-1.3,6.5-0.9,9.5,0c2.3,0.7,3.4,3.9,3.4,6.2c0,2.9-3.4,5.3-4.6,1.6
			c-0.6-2-0.7-6.2,1.4-7.2C497.2,555.7,495,551.9,492.5,553.1L492.5,553.1z"/>
	</g>
	<g>
		<path d="M564.3,552.5c-1.2-1.9-3.4-2.6-5.5-1.6c-2.2,1-3.1,3.5-3.7,5.7c-1.2,4.5-0.8,10.8,4.7,12.1c4.5,1,9-2.8,9.8-7.1
			c1-5.2-2.4-10-7.1-11.8c-2.7-1-3.8,3.3-1.2,4.3c4,1.5,6,8,1.3,10c-2.4,1-3.7-0.8-3.7-3c0-1.1,0.2-2.2,0.5-3.2
			c0.1-0.4,1.2-2.9,1.2-3C562.1,557,565.9,554.8,564.3,552.5L564.3,552.5z"/>
	</g>
	<g>
		<path d="M559.8,555.2c3.3,1.5,6.9,2.2,10.5,1.9c2.8-0.2,2.8-4.6,0-4.4c-2.9,0.2-5.7-0.1-8.3-1.3
			C559.4,550.2,557.2,554,559.8,555.2L559.8,555.2z"/>
	</g>
	<g>
		<path d="M494.1,539.7c0.1-0.5,0.4-0.8,0.8-1c0.7-0.3,1-0.2,1.5,0c2.4,1.5,4.6-2.3,2.2-3.8c-3.2-2-7.8-0.1-8.7,3.6
			C489.2,541.3,493.4,542.5,494.1,539.7L494.1,539.7z"/>
	</g>
	<g>
		<path d="M553.2,540.3c0.8-0.6,2-0.9,3-0.2c0.9,0.7,2.2,0.9,3.1,0c0.8-0.8,0.9-2.4,0-3.1c-2.4-1.9-5.7-2.3-8.3-0.5
			c-1,0.7-1.4,1.9-0.8,3C550.7,540.4,552.2,541,553.2,540.3L553.2,540.3z"/>
	</g>
	<g>
		<path d="M481.2,786.4c-2.7-4.3-5.4-8.6-8.1-12.9c-1.5-2.4-5.3-0.2-3.8,2.2c2.7,4.3,5.4,8.6,8.1,12.9
			C478.9,791,482.7,788.8,481.2,786.4L481.2,786.4z"/>
	</g>
	<g>
		<path d="M399.3,730.7c3.1,3.1,5.6,6.7,7.5,10.7c1.2,2.6,5,0.3,3.8-2.2c-2-4.3-4.8-8.2-8.1-11.6
			C400.4,725.5,397.3,728.6,399.3,730.7L399.3,730.7z"/>
	</g>
	<g>
		<path d="M496,734.2c4-2.4,8,3.3,4.2,6c-2.3,1.6-0.1,5.5,2.2,3.8c3.5-2.5,4.9-7.4,2.5-11.2c-2.3-3.7-7.5-4.7-11.2-2.5
			C491.4,731.8,493.6,735.7,496,734.2L496,734.2z"/>
	</g>
	<g>
		<path d="M484.5,758.3c10.7,9.6,19.4,21,25.8,33.9c1.3,2.5,5.1,0.3,3.8-2.2c-6.5-13.2-15.5-25-26.5-34.8
			C485.5,753.3,482.3,756.4,484.5,758.3L484.5,758.3z"/>
	</g>
	<g>
		<path d="M510.4,789.4c-8.3-3.8-18-2.3-24.5,4.2c-1.5,1.4-0.3,3.6,1.6,3.8c1.9,0.2,3.1-0.6,4.1-2.2c1.6-2.4-2.2-4.6-3.8-2.2
			c-0.1,0-0.2,0-0.3,0c0.5,1.3,1,2.5,1.6,3.8c5-5,12.7-6.5,19.2-3.5C510.7,794.4,513,790.6,510.4,789.4L510.4,789.4z"/>
	</g>
	<g>
		<path d="M576.3,731.5c1.8-1.5,7.7-5.6,8.8-1.1c0.7,2.8,4.9,1.6,4.3-1.2c-0.8-3.1-3.6-5.1-6.7-5.2c-3.7-0.2-6.7,2.2-9.5,4.3
			C571,730.2,574.2,733.3,576.3,731.5L576.3,731.5z"/>
	</g>
	<g>
		<path d="M628.2,748.5c2.5-1.7,4.9-3.3,7.4-5c2.3-1.6,0.1-5.4-2.2-3.8c-2.5,1.7-4.9,3.3-7.4,5C623.6,746.2,625.8,750,628.2,748.5
			L628.2,748.5z"/>
	</g>
	<g>
		<g>
			<path d="M498.2,516.3c3.1-21.7,1.5-43.8-4.9-64.8c-3.1-10.2-7.4-20.2-12.6-29.5c-5.2-9.3-11.3-18.5-19.5-25.4
				c-8.5-7.1-19.3-11.9-30.3-8.3c-3.8,1.2-2.1,7.2,1.6,6c12.4-4.1,23.9,5,31.5,13.9c8,9.4,14.1,20.9,18.8,32.2
				c9.6,23.4,13,49.2,9.4,74.2C491.7,518.5,497.7,520.2,498.2,516.3L498.2,516.3z"/>
		</g>
		<g>
			<path d="M429,391.4c1.3,10.6,2.6,21.2,3.9,31.9c0.4,3.5,4.8,4.2,6.1,0.8c3.5-9.1,13.9-14.6,23.4-12.5c3.9,0.8,5.5-5.1,1.6-6
				c-13-2.8-26.2,4.5-31,16.8c2,0.3,4,0.5,6.1,0.8c-1.3-10.6-2.6-21.2-3.9-31.9C434.7,387.5,428.5,387.5,429,391.4L429,391.4z"/>
		</g>
		<g>
			<path d="M547.4,501.6c0.9-14,1.8-28.1,2.6-42.1c0.8-13.1,0.9-26.6,4.7-39.2c2.8-9.2,10.7-24,22.7-21.7c5.4,1,8.8,6.1,9.4,11.3
				c0.7,6.2-2.4,12.2-6.3,16.8c1.6,0.2,3.2,0.4,4.8,0.6c-5-9.8-12.9-17.8-22.6-23c-3.5-1.9-6.6,3.5-3.1,5.3
				c8.8,4.8,15.8,11.9,20.4,20.8c0.9,1.7,3.6,2.1,4.8,0.6c6.6-7.9,10.7-18.4,6.2-28.3c-4.1-9.1-14.2-12.7-23.3-8.8
				c-22.2,9.6-22.4,40.2-23.7,60.5c-1,15.7-2,31.5-2.9,47.2C540.9,505.6,547.1,505.6,547.4,501.6L547.4,501.6z"/>
		</g>
		<g>
			<path d="M468.2,559.6c9.5-23.6,25.8-47.3,52.8-51.8c11.7-1.9,23.4,1.2,32.5,8.9c8.4,7.1,14.2,17.9,12.6,29.1
				c-0.6,3.9,5.4,5.6,6,1.6c3-20.3-12-38.5-30.9-44.5c-21.1-6.6-43.6,4.2-58,19.6c-9.5,10.2-15.7,22.6-20.9,35.4
				C460.8,561.6,466.8,563.2,468.2,559.6L468.2,559.6z"/>
		</g>
		<g>
			<path d="M571,546.3c9.9,3.4,19.7,8.2,26.7,16.3c6.6,7.7,10.1,18.5,6.6,28.3c-7.6,21-33.2,24.1-52.4,24.4c-4,0.1-4,6.2,0,6.2
				c22.3-0.3,51-5.2,58.7-29.9c3.4-10.9-0.1-22.7-7-31.5c-7.7-9.9-19.2-15.7-30.9-19.7C568.9,539.1,567.3,545,571,546.3L571,546.3z"
				/>
		</g>
		<g>
			<path d="M513.4,598.8c7.5,10.8,23,12.2,31.5,1.8c2.5-3-1.8-7.4-4.4-4.4c-5.9,7-16.5,7.2-21.8-0.6
				C516.5,592.4,511.2,595.5,513.4,598.8L513.4,598.8z"/>
		</g>
		<g>
			<path d="M434.7,637.6c-33-9.8-59.7-33.6-78.3-62c-21.2-32.5-31.3-70.4-36.7-108.4c-3.4-23.5-5-47.2-6.6-70.9
				c-1.5,0.9-3.1,1.8-4.6,2.7c42.9,30.8,83.5,64.8,121.4,101.6c10.8,10.5,21.3,21.1,31.6,32c2.7,2.9,7.1-1.5,4.4-4.4
				c-36.7-38.7-76.2-74.6-118.2-107.5c-11.9-9.3-23.9-18.3-36.1-27.1c-1.9-1.3-4.8,0.4-4.6,2.7c5.3,77.5,13.1,165,76,219.4
				c14.6,12.6,31.5,22.4,50.1,27.9C436.9,644.7,438.5,638.7,434.7,637.6L434.7,637.6z"/>
		</g>
		<g>
			<path d="M572.9,529.9c12.1-48.5,37.4-92.1,64.9-133.3c7.8-11.8,15.9-23.4,23.9-35c-1.8,0-3.6,0-5.3,0c9.1,13.5,13.5,29.2,16.3,45
				c3,17,4.7,34.3,5,51.5c0.3,17.7-0.9,35.5-4.1,52.9c-3,16-7.4,32-15.5,46.1c-8.3,14.5-21.1,26.9-37.3,32.1c-3.8,1.2-2.2,7.2,1.6,6
				c32.1-10.2,48-42.3,55.1-72.9c8.4-36.2,7.8-73.8,2.3-110.4c-2.9-18.7-7.3-37.5-18-53.4c-1.3-2-4-2-5.3,0
				c-28.5,41.1-57.2,82.7-76.2,129.3c-5.4,13.2-9.8,26.7-13.3,40.5C565.9,532.1,571.9,533.8,572.9,529.9L572.9,529.9z"/>
		</g>
		<g>
			<path d="M394.1,618.9c-12.3-2.2-24.5,3.7-34.8,10c-9.6,5.8-17.4,14.2-19,25.7c-1.5,10.5,2,21.2,9.7,28.5
				c8,7.4,18.8,10.7,29.4,12.2c13.3,1.8,27.5,1.9,39.6-4.6c3.5-1.9,0.4-7.2-3.1-5.3c-11.5,6.2-26,5.6-38.6,3.4
				c-11-2-22.9-6.5-28.4-17c-5.7-10.9-2.7-24,6.2-32.2c4.7-4.3,10.4-7.3,16.1-10c6.6-3.2,13.8-6,21.2-4.6
				C396.4,625.6,398,619.6,394.1,618.9L394.1,618.9z"/>
		</g>
		<g>
			<path d="M632,593c22.8,1.8,46.4,19.1,49.8,42.8c1.7,11.7-3.4,23.3-12.8,30.3c-10.2,7.6-23.7,8.4-35.4,4.1c-3.7-1.4-5.3,4.6-1.6,6
				c20.4,7.6,44.6-0.6,53.4-21.2c8.9-20.8-3.6-43.5-20.4-56c-9.6-7.1-21-11.2-32.9-12.2C628,586.5,628,592.6,632,593L632,593z"/>
		</g>
		<g>
			<path d="M474.4,629.6c-15.8,13.2-32.6,25-50.4,35.3c-3.4,2-0.3,7.3,3.1,5.3c18.2-10.6,35.5-22.8,51.6-36.3
				C481.8,631.4,477.4,627.1,474.4,629.6L474.4,629.6z"/>
		</g>
		<g>
			<path d="M419.1,667.2c6.5,15.4,17.4,28.3,31.8,36.9c3.4,2,6.5-3.3,3.1-5.3c-12.9-7.7-23.1-19.3-28.9-33.2
				C423.5,662,417.6,663.5,419.1,667.2L419.1,667.2z"/>
		</g>
		<g>
			<path d="M458.2,699c-8.9-5.8,1.1-20,4.7-26.1c5.4-8.9,11.7-17.2,18.9-24.7c2.7-2.9-1.6-7.3-4.4-4.4c-9,9.5-16.8,20.1-23.1,31.6
				c-4.8,8.9-10,21.9,0.7,28.9C458.4,706.5,461.5,701.2,458.2,699L458.2,699z"/>
		</g>
		<g>
			<path d="M446.8,696.1c5.6,11.4,15.9,19.2,26.6,25.6c12.1,7.3,25.1,13.4,38.7,17.3c24.6,7.1,51.6,6.1,73.8-7.5
				c11.1-6.8,20.4-16.5,25.9-28.4c1.7-3.6-3.7-6.7-5.3-3.1c-9.3,20.1-29.4,32.5-50.8,36.2c-25.4,4.4-51.6-4.3-73.6-16.6
				c-11.7-6.5-23.9-14.2-30-26.7C450.4,689.4,445.1,692.5,446.8,696.1L446.8,696.1z"/>
		</g>
		<g>
			<path d="M579.7,636.5c0.6-0.6,1.2-1.2,1.9-1.8c-1.2,0.2-2.5,0.3-3.8,0.5c7.6,5.5,12.5,13.7,16.4,22c3,6.5,11.7,20.8,3.8,26.7
				c-3.2,2.3-0.1,7.7,3.1,5.3c10.7-7.9,4.6-21.2,0.4-30.9c-4.8-10.9-10.7-21.4-20.6-28.5c-1.1-0.8-2.8-0.4-3.8,0.5
				c-0.6,0.6-1.2,1.2-1.9,1.8C572.4,634.9,576.8,639.3,579.7,636.5L579.7,636.5z"/>
		</g>
		<g>
			<path d="M491,668.2c8.7,7.7,20.3,10.5,31.6,9c12.4-1.6,23.3-8,32.8-15.8c3.1-2.5-1.3-6.8-4.4-4.4c-15.2,12.3-38.9,21.6-55.7,6.8
				C492.4,661.2,488.1,665.5,491,668.2L491,668.2z"/>
		</g>
		<g>
			<path d="M479.4,684.2c10.2,12.5,26.6,17.1,42,18.7c17.1,1.7,35.6-1.8,47.3-15.2c2.6-3-1.7-7.4-4.4-4.4
				c-10.8,12.3-27.4,14.9-43,13.4c-13.9-1.4-28.5-5.7-37.7-16.8C481.2,676.7,476.9,681.1,479.4,684.2L479.4,684.2z"/>
		</g>
		<g>
			<path d="M580.5,629.8c4.8,6.2,11.9,9.7,18.8,12.9c6.7,3.2,14.5,6.7,18.2,13.5c4.2,7.9,0.8,18.1-2.3,25.8
				c-3.1,7.7-7.8,14.9-14.9,19.4c-3.4,2.1-0.3,7.5,3.1,5.3c7.7-4.8,13-12.1,16.6-20.3c3.8-8.5,7.2-18.9,4.8-28.3
				c-4.9-19.3-29.2-18.9-40-32.8C582.5,622.3,578.1,626.7,580.5,629.8L580.5,629.8z"/>
		</g>
		<g>
			<path d="M450.2,692.8c-13.3,8.6-21.3,23.7-20.8,39.6c0.1,4,6.3,4,6.2,0c-0.4-13.7,6.3-26.8,17.8-34.3
				C456.7,696,453.6,690.7,450.2,692.8L450.2,692.8z"/>
		</g>
		<g>
			<path d="M458.3,706.5c-7.2,7-13.3,15-17.9,24c-1.8,3.5,3.5,6.7,5.3,3.1c4.4-8.5,10-16.1,16.9-22.8
				C465.6,708.1,461.2,703.8,458.3,706.5L458.3,706.5z"/>
		</g>
		<g>
			<path d="M429.6,732.2c7.9,6.6,15.2,14,21.8,21.9c3.2,3.9,6.3,8,9.1,12.3c1.4,2.1,2.7,4.2,4,6.3c0.8,1.2,1.5,2.5,2.2,3.7
				c0.8,1.3,0.9,3.4,2.2,1.8c1.2-0.2,2.5-0.3,3.8-0.5c-0.1-0.1-0.2-0.1-0.4-0.2c-3.6-1.7-6.7,3.7-3.1,5.3c0.1,0.1,0.2,0.1,0.4,0.2
				c1.1,0.5,2.8,0.6,3.8-0.5c3.4-4.1-1.2-9.3-3.5-13c-3.2-5.3-6.7-10.4-10.5-15.3c-7.5-9.7-16-18.5-25.3-26.4
				C431,725.3,426.6,729.6,429.6,732.2L429.6,732.2z"/>
		</g>
		<g>
			<path d="M471.6,776.2c-11-2-22.3,1.9-29.4,10.7c-1.2,1.5-1.2,3.8,0.6,4.8c2.8,1.7,6.2,0.3,7-2.9c1-3.8-4.9-5.5-6-1.6
				c0.7-0.3,1.4-0.6,2-0.8c0.2,1.6,0.4,3.2,0.6,4.8c5.6-7,14.5-10.7,23.4-9.1C473.8,782.9,475.5,776.9,471.6,776.2L471.6,776.2z"/>
		</g>
		<g>
			<path d="M446,789.6c6.7,1.5,13.5,2.3,20.4,2.4c4.1,0,13.4,1.2,15.5-3.4c0.6-1.4,0.5-2.6-0.5-3.8c-0.1-0.1-0.2-0.3-0.3-0.4
				c-2.5-3.1-6.8,1.3-4.4,4.4c0.1,0.1,0.2,0.3,0.3,0.4c-0.2-1.2-0.3-2.5-0.5-3.8c-0.1,0.3-5.1,0.2-5.9,0.3c-2.6,0.1-5.2,0.1-7.8,0
				c-5.1-0.2-10.2-1-15.2-2.1C443.8,782.8,442.2,788.8,446,789.6L446,789.6z"/>
		</g>
		<g>
			<path d="M433.2,683.7c-16.1,9.9-28.1,25.3-33.8,43.3c-1.2,3.8,4.8,5.4,6,1.6c5.2-16.5,16.2-30.6,31-39.6
				C439.7,687,436.6,681.6,433.2,683.7L433.2,683.7z"/>
		</g>
		<g>
			<path d="M431.9,692.9c-11.6,15.8-21.6,32.6-29.9,50.3c-1.7,3.6,3.6,6.7,5.3,3.1c8.3-17.7,18.3-34.6,29.9-50.3
				C439.6,692.8,434.2,689.8,431.9,692.9L431.9,692.9z"/>
		</g>
		<g>
			<path d="M402.4,743.7c10,9.2,17.2,20.8,21.1,33.9c1.1,3.8,7.1,2.2,6-1.6c-4.1-14-11.9-26.7-22.7-36.6
				C403.9,736.7,399.5,741,402.4,743.7L402.4,743.7z"/>
		</g>
		<g>
			<path d="M423.3,771.9c-6.5,1.1-13-1.5-19.5-0.7c-4.7,0.6-8.8,2.5-11.5,6.5c-1.7,2.5,1.1,4.9,3.5,4.5c0.6-0.1,1.2-0.2,1.8-0.3
				c3.9-0.6,2.2-6.6-1.6-6c-0.6,0.1-1.2,0.2-1.8,0.3c1.2,1.5,2.3,3,3.5,4.5c2.4-3.5,7.2-3.8,11.1-3.6c5.5,0.3,10.7,1.5,16.2,0.6
				C428.9,777.2,427.2,771.2,423.3,771.9L423.3,771.9z"/>
		</g>
		<g>
			<path d="M397.9,782.9c10.8,4.4,22.8,4.7,33.8,0.9c3.7-1.3,2.1-7.3-1.6-6c-10.1,3.5-20.7,3.2-30.5-0.9
				C395.9,775.5,394.3,781.4,397.9,782.9L397.9,782.9z"/>
		</g>
		<g>
			<path d="M403.7,735.4c9.5,14.3,18.2,29.2,26.1,44.5c1.8,3.5,7.2,0.4,5.3-3.1c-7.9-15.3-16.6-30.1-26.1-44.5
				C406.9,729,401.5,732.1,403.7,735.4L403.7,735.4z"/>
		</g>
		<g>
			<path d="M496.4,723.5c-6.5,9.4-11.1,19.9-13.4,31.1c-0.8,3.9,5.2,5.5,6,1.6c2.2-10.7,6.5-20.7,12.7-29.7
				C504.1,723.3,498.7,720.2,496.4,723.5L496.4,723.5z"/>
		</g>
		<g>
			<path d="M503.1,735.5c-7.1,6.3-12.2,14.5-14.8,23.6c-1.1,3.8,4.9,5.5,6,1.6c2.3-8.2,6.8-15.3,13.2-20.9
				C510.5,737.2,506.1,732.9,503.1,735.5L503.1,735.5z"/>
		</g>
		<g>
			<path d="M481.7,760c1.3,1.9,2.5,3.8,3.8,5.7c0.9,1.4,2.7,2,4.2,1.1c1.4-0.8,2-2.8,1.1-4.2c-1.3-1.9-2.5-3.8-3.8-5.7
				c-0.9-1.4-2.7-2-4.2-1.1C481.4,756.5,480.8,758.6,481.7,760L481.7,760z"/>
		</g>
		<g>
			<path d="M489.5,762.7c10.3,9.5,18.6,20.7,24.6,33.4c1.7,3.6,7,0.5,5.3-3.1c-6.2-13.1-14.9-24.8-25.5-34.6
				C491,755.7,486.6,760,489.5,762.7L489.5,762.7z"/>
		</g>
		<g>
			<path d="M483.3,799.8c10.2,6.1,22.9,6.2,33.3,0.4c3.5-1.9,0.4-7.3-3.1-5.3c-8.5,4.7-18.7,4.5-27-0.4
				C483,792.4,479.9,797.7,483.3,799.8L483.3,799.8z"/>
		</g>
		<g>
			<path d="M568.5,731.5c5.8,8.7,11.6,17.4,17.5,26.2c2.2,3.3,7.5,0.2,5.3-3.1c-5.8-8.7-11.6-17.4-17.5-26.2
				C571.7,725.1,566.3,728.2,568.5,731.5L568.5,731.5z"/>
		</g>
		<g>
			<path d="M580.8,727.6c6.5,8.7,11.7,18.2,15.3,28.4c1.3,3.7,7.3,2.1,6-1.6c-3.9-10.7-9.2-20.7-16-29.8
				C583.8,721.3,578.4,724.4,580.8,727.6L580.8,727.6z"/>
		</g>
		<g>
			<path d="M595.2,748.9c-10.1,10.4-17.9,22.7-23.3,36.2c-1.5,3.7,4.5,5.3,6,1.6c4.9-12.5,12.3-23.8,21.7-33.4
				C602.3,750.4,598,746,595.2,748.9L595.2,748.9z"/>
		</g>
		<g>
			<path d="M590.5,756.6c-6.2,8.8-11.8,18-16.7,27.6c-1.8,3.5,3.5,6.7,5.3,3.1c5-9.5,10.5-18.7,16.7-27.6
				C598.1,756.5,592.8,753.4,590.5,756.6L590.5,756.6z"/>
		</g>
		<g>
			<path d="M572.8,795.4c5.5-4.6,17.7-13.4,23-3.6c1.9,3.5,7.2,0.4,5.3-3.1c-2.9-5.3-8.9-7.8-14.8-7.3c-7,0.6-12.7,5.3-17.9,9.6
				C565.4,793.6,569.8,797.9,572.8,795.4L572.8,795.4z"/>
		</g>
		<g>
			<path d="M570.2,794.8c8.4,10.6,23.2,0.6,30.9-5.5c3.1-2.5-1.3-6.8-4.4-4.4c-5.2,4-16.5,12.7-22.2,5.5
				C572,787.3,567.7,791.7,570.2,794.8L570.2,794.8z"/>
		</g>
		<g>
			<path d="M600.7,711.2c6.4,12.6,14.3,24.3,23.3,35.2c2.5,3.1,6.9-1.3,4.4-4.4c-8.7-10.4-16.2-21.8-22.4-33.9
				C604.3,704.5,598.9,707.7,600.7,711.2L600.7,711.2z"/>
		</g>
		<g>
			<path d="M607.9,701.8c8.3,12.5,15.2,25.8,20.6,39.8c1.4,3.7,7.4,2.1,6-1.6c-5.6-14.5-12.6-28.3-21.2-41.3
				C611,695.4,605.7,698.5,607.9,701.8L607.9,701.8z"/>
		</g>
		<g>
			<path d="M627,747.6c-4.7,6.2-8.9,12.8-12.3,19.7c-1.5,3.1-3,6.3-4.2,9.6c-1.2,2.9-3,6-1.6,9.1c0.4,0.9,1.7,1.6,2.7,1.5
				c1.5-0.2,2.5-0.6,3.2-1.9c0.7-1.2,0.5-2.8-0.5-3.8c-0.1-0.1-0.1-0.1-0.2-0.2c-2.8-2.8-7.2,1.5-4.4,4.4c0.1,0.1,0.1,0.1,0.2,0.2
				c-0.2-1.2-0.3-2.5-0.5-3.8c-0.1,0.1-0.1,0.2-0.2,0.3c0.9-0.5,1.8-1,2.7-1.5c-0.1,0-0.2,0-0.3,0c0.9,0.5,1.8,1,2.7,1.5
				c-0.1-0.2-0.2-0.4-0.2-0.6c0.1,0.8,0.2,1.6,0.3,2.4c1.2-6.1,4.6-12.3,7.5-17.7c3-5.7,6.6-11.1,10.5-16.3
				C634.8,747.6,629.4,744.5,627,747.6L627,747.6z"/>
		</g>
		<g>
			<path d="M632.2,745.9c-7.3,15.1-15.1,30-23.3,44.6c-2,3.5,3.4,6.6,5.3,3.1c8.2-14.6,16-29.5,23.3-44.6
				C639.3,745.5,634,742.3,632.2,745.9L632.2,745.9z"/>
		</g>
		<g>
			<path d="M615.5,788.6c5-4.5,10.9-8.7,17.3-11c3-1.1,6.8-1.9,9.7-0.2c2.3,1.3,4.1,4.2,2.8,6.8c-1.8,3.5,3.5,6.7,5.3,3.1
				c4.2-8.2-3-16.5-11.3-17c-10.4-0.5-20.9,7.3-28.2,13.9C608.2,786.9,612.5,791.2,615.5,788.6L615.5,788.6z"/>
		</g>
		<g>
			<path d="M613,794.7c10.5-4.6,21.8-6.8,33.3-6.7c4,0,4-6.2,0-6.2c-12.6-0.1-24.8,2.6-36.4,7.6C606.2,791,609.4,796.3,613,794.7
				L613,794.7z"/>
		</g>
		<g>
			<path d="M615,687.5c13,4.8,24.3,13.2,32.9,24.1c2.5,3.1,6.8-1.3,4.4-4.4c-9.3-11.7-21.6-20.5-35.7-25.7
				C612.9,680.2,611.3,686.1,615,687.5L615,687.5z"/>
		</g>
		<g>
			<path d="M618.4,675.9c16,9.8,29.2,23.4,38.6,39.7c2,3.4,7.3,0.3,5.3-3.1c-9.9-17.2-24-31.6-40.8-41.9
				C618.2,668.4,615,673.8,618.4,675.9L618.4,675.9z"/>
		</g>
		<g>
			<path d="M657,716.1c-2.3,13.1-5.5,26-9.4,38.8c-1.2,3.8,4.8,5.4,6,1.6c3.9-12.7,7-25.7,9.4-38.8
				C663.7,713.8,657.7,712.1,657,716.1L657,716.1z"/>
		</g>
		<g>
			<path d="M648.5,714.8c1.6,4.3,0.1,8.7-0.8,13c-0.9,4.4-1.8,8.7-2.6,13.1c-1.6,8.8-3.1,17.6-4.3,26.4c-0.5,3.9,5.4,5.6,6,1.6
				c1.3-9.8,3-19.5,4.8-29.2c0.9-4.6,1.9-9.2,2.8-13.8c0.9-4.3,1.7-8.5,0.1-12.8C653.2,709.4,647.2,711,648.5,714.8L648.5,714.8z"/>
		</g>
		<g>
			<path d="M644.8,766.9c7.5-4.8,17-5.8,25.3-2.2c3.6,1.6,6.8-3.7,3.1-5.3c-10.3-4.5-22-3.9-31.5,2.2
				C638.3,763.7,641.4,769,644.8,766.9L644.8,766.9z"/>
		</g>
		<g>
			<path d="M645.2,772.4c10.2,0.7,20.3-0.7,30-3.8c3.8-1.2,2.2-7.2-1.6-6c-9.2,3-18.7,4.2-28.4,3.6
				C641.2,766,641.2,772.2,645.2,772.4L645.2,772.4z"/>
		</g>
		<g>
			<path d="M471.8,562.3c-10.9-3.8-22,2.7-26.6,12.8c-4.6,10-3.2,21.5,1.9,31c11.8,22,38.3,27.1,61,22.7c3.9-0.8,2.2-6.7-1.6-6
				c-18.5,3.6-40.2,0.4-51.7-16.1c-5-7.2-7.6-16.3-5.4-25c2.4-9.3,10.9-17,20.8-13.5C473.9,569.6,475.5,563.6,471.8,562.3
				L471.8,562.3z"/>
		</g>
	</g>
	<g>
		<path d="M493,561.7c0,0.5,0.1,1.1,0.1,1.7c1.5,0,2.9,0,4.4,0c-0.1-1.4-0.3-2.8-0.5-4.2c-0.1-1.2-0.9-2.2-2.2-2.2
			c-1.2,0-2.3,1-2.2,2.2c0.1,1.3,0.1,2.7,0.2,4c0,1.2,1,2.2,2.2,2.2c1.2,0,2.3-1,2.2-2.2c-0.1-1.3-0.1-2.7-0.2-4c-1.5,0-2.9,0-4.4,0
			c0.1,1.4,0.3,2.8,0.5,4.2c0.1,1.2,0.9,2.2,2.2,2.2c1.1,0,2.3-1,2.2-2.2c0-0.5-0.1-1.1-0.1-1.7c-0.1-1.2-1-2.2-2.2-2.2
			C494,559.5,492.9,560.5,493,561.7L493,561.7z"/>
	</g>
	<g>
		<path d="M560.6,555.2c-1.3,0.2-2.4,0.8-2.8,2.1c-0.3,1.2,0,2.6,1,3.4c2.6,2,5.5-1.1,4.9-3.8c-0.5-2.4-4.4-1.9-4.3,0.6
			c0.1,2.4,0.1,4.8,0.2,7.3c0.1,2.1,3,3.1,4.1,1.1c1-1.7,1.9-3.4,2.9-5.1c1.4-2.5-2.4-4.7-3.8-2.2c-1,1.7-1.9,3.4-2.9,5.1
			c1.4,0.4,2.7,0.7,4.1,1.1c-0.1-2.4-0.1-4.8-0.2-7.3c-1.5,0.2-2.9,0.4-4.3,0.6c0.3-0.4,0.6-0.8,0.9-1.2c0.4,0.1,0.7,0.2,1.1,0.3
			c0.8,0.7,0.7,1.4-0.1,2.2c-0.4,0.1-0.7,0.2-1.1,0.3c0.1,0,0.2,0,0.2,0c1.2-0.1,2.2-0.9,2.2-2.2C562.8,556.3,561.8,555,560.6,555.2
			L560.6,555.2z"/>
	</g>
	<g>
		<path class="st11" d="M494.4,557.4c0,0.5,0,0.9,0,1.4c0,1.2,1,2.3,2.2,2.2c1.2,0,2.2-1,2.2-2.2c0-0.5,0-0.9,0-1.4
			c0-1.2-1-2.3-2.2-2.2C495.4,555.3,494.3,556.2,494.4,557.4L494.4,557.4z"/>
	</g>
	<g>
		<path class="st11" d="M563.2,560.4c2.8,0,2.8-4.4,0-4.4C560.3,556,560.3,560.4,563.2,560.4L563.2,560.4z"/>
	</g>
	<g>
		<path class="st11" d="M565.4,558.2c0-0.5,0-0.9,0-1.4c0-1.2-1-2.3-2.2-2.2c-1.2,0-2.2,1-2.2,2.2c0,0.5,0,0.9,0,1.4
			c0,1.2,1,2.3,2.2,2.2C564.4,560.3,565.4,559.4,565.4,558.2L565.4,558.2z"/>
	</g>
</g>
</svg>
