<svg version="1.1" id="Layer_1" xmlns="http://www.w3.org/2000/svg" x="0" y="0" viewBox="0 0 1000 1000" xml:space="preserve"><style>.st0,.st4{opacity:.7;fill:#6f5ea8}.st4{fill:#99471c}.st6{fill:#4f240f}.st7{fill:#99471c}.st11{fill:#fff}</style><path class="st0" d="M650.1 384.1c2.7-4.5 7.1-14.6 11.9-8 9.2 36.4 12 65.5 11.8 103.2-.1 22.7-6.7 50.6-15.7 71s-26.3 37.5-46.9 40c10.8-1.3-4.9-34.5-18.1-44.4-15.8-11.9-28.3 1.1-9.2-48.9 16.3-42.7 43-74 66.2-112.9z"/><path d="M424.9 684.1c-6.5-5.7-3.9-17 2.5-22.8 6.4-5.8 15.1-8 23.1-11.4 8-3.4 14.9-8.5 16.7-16.9-21.9 7.7-40.7 6.8-63.2 2.9-12-2.1-31.9-9.5-43.3-2-13.6 8.9-10.3 29.2-1.4 40.2 15.9 19.6 44.1 14.5 65.6 10zm245.5-22.7c-28.3 32-83.6-23.2-62-51.8 27.8-37 94.5 14.9 62 51.8z" fill="#d1fbff" opacity=".7"/><path d="M614.4 641.3c-6-.7-12.2-1.5-17.7-4.3-5.4-2.8-10-8-10.3-14.1-.3-7.5 5.7-13.8 12.1-17.7 6.4-3.9 13.7-6.7 18.8-12.2" fill="#d1fbff"/><path d="M593.9 660.5c3.1 5.3 6.2 10.6 9.5 15.8 1.6 2.4 3.1 4.8 4.8 7.2.8 1.2 1.6 2.3 2.5 3.4.2.2 2 2.7 1.2 1.7.4.5.7 1 1.1 1.5 3.8-5.6 5.8-12.7 5.4-19.5-.9-15-21.6-47.8-40.7-39.3 5.4 9.7 10.6 19.5 16.2 29.2z" fill="#997256"/><path class="st4" d="M602.4 716.5c.3-3.9 2.8-7.5 6.2-9.3 7.9 14.6 15.8 29.3 23.6 43.9-1.2-20.4-11.1-40.2-26.8-53.4-3.2 16.5 5.1 34.5 19.7 42.8"/><path class="st4" d="M627.3 750.5c-9.6 8.1-15.3 20.6-15.2 33.2 10.7-12 18.1-27 21.1-42.8"/><g opacity=".7"><path class="st6" d="M484.1 632.7c-19.4 15.6-36.4 34.2-50 55-3.9-4.7-7.9-9.5-11.8-14.2 20-14.2 40-28.4 59.9-42.6m98.3-1.1c14.8 9.5 26.9 23 34.8 38.7 5.8-.8 8.6-8.4 6.6-13.9s-7-9.3-11.7-12.8c-12.7-9.3-28.5-14.5-41.2-23.8"/><path class="st6" d="M434.4 687.9c-20 8.3-32.3 31.9-27.8 53.1 9.8-20 21.3-39.1 34.4-57m-14.1 93.1c-9-5.5-20.9-5.7-30.1-.6 9.6 7.5 22.6 10.2 34.4 7.1m15.3-84.7c-5.6 10.8-11.1 21.6-16.7 32.3 1.8 2.1 3.6 4.2 5.5 6.3 7.1-5.4 14.5-11.2 17.8-19.5 3.3-8.3.5-19.7-8-22.5m50.8 34.9c-6.1 8-9.1 18.2-8.3 28.3 7.9-6.8 14.5-15 19.5-24.2-3.5-3.1-7.1-6.2-10.6-9.3m-26.2 55.6c-7.8-2.8-17.1-.6-23 5.2 8.5 3.2 17.9 4.1 26.9 2.7m35.8 5.1c-9.1-3.8-20.1-2.4-28 3.4 9.4 4.9 21.5 3.7 29.8-3m58.9-60.7l20.7 28.5c3.3-14.5-3.6-30.7-16.3-38.4m6.5 66.1c-1.8-4.8 5.6-9.3 9.6-6.2s2.8 10.4-1.6 13-10.4 1.2-14.2-2.3m36-87.5c-2.5.4-5 .8-7.4 1.2 5.6 17.3 16.5 32.8 30.9 43.9m-21.4 34.7c1.2-7.8 8.3-14.2 16.2-14.6s15.5 5.5 17.3 13.2c-12.2.8-24.4 1.7-36.7 2.5m38.6-66.9c4.7 16.5 2 34.9-7.2 49.3 10.1-1.8 20.3-3.6 30.4-5.4-7.7-3.2-15.8-5.3-24-6.5 8.9-14.7 10.4-33.6 4.1-49.6-5.7-14.3-18.4-27.8-33.5-31.6 7.4 16.4 24.8 24.9 30.2 43.8z"/></g><path class="st7" d="M560.3 404c7.6 7 15.3 14 22.9 20.9 6.6-6.3 6.2-18.4-.9-24.2s-19.1-3.8-23.9 3.9"/><path d="M598.2 660.5c-7.6-14.4-12.4-30.9-26.4-39-1.5-.9-3.1-1.6-4.7-2.3-2.8.9-5.8 1.1-8.8.5-12.2-2.6-26.8-.8-40.1.9-13.5 1.7-26.5 2.7-39.9 1.1-2.7 4.6-4.5 9.8-5.1 15.2-11.8 1.1-25.6 14.6-34.6 20.3-6.4 4-13.5 9.1-14.3 16.6-1 8.5 6.4 15.3 13 20.6 4.5 3.7 9.9 7.5 15.6 6.6.9-.2 1.7-.4 2.5-.7.2.4.5.9.7 1.3 3.9 6.2 11 9.4 17.9 12.1 16.3 6.4 33 11.6 50 15.8 15.8 3.8 32.4 6.7 48.3 3.2 15.9-3.5 31.1-14.7 35-30.5 3.4-14.3-2.3-28.9-9.1-41.7z" opacity=".7" fill="#997256"/><path class="st7" d="M432.1 419.4c5.1-11.5 20.6-16.9 31.7-10.9-6.2-12.8-21-20.8-35.1-18.9.8 9.4 4.2 18.6 9.8 26.2"/><path d="M470.2 559.5c-10 3.5-18 12.1-20.6 22.3-2.6 10.2.2 21.5 7.3 29.3 14.2 15.5 38.9 13.9 59.9 10.9 15-2.1 20.8 2.6 35.8.5 16.8-2.4 45.8-13.7 51.9-29.3 3.8-9.7.6-21.2-6.4-29S580.9 552 570.6 550c1.6.3-13.4-28.2-17.5-31.2-10.8-7.9-26-10.5-39.1-7.5-21.8 4.7-39.1 27.2-43.8 48.2z" opacity=".7" fill="#d9a179"/><path d="M473 575.2c-1.5-2.8-6.4-1.8-7.5 1.2-1.1 3 .8 6.4 3.6 8 2.7 1.6 6 1.9 9.2 2.2 2 .2 4.1.3 5.9-.5 1.9-.8 3.4-2.8 2.9-4.7-1.2-5-11.7-2.1-12.6-7.2m95.1 3.1c2.2-4 4.7-8.4 8.9-10.2 4.2-1.9 10.4.5 10.5 5.1 0 2.4-1.6 4.5-3.5 6-4.9 3.7-12.3 3.8-17.2.1" opacity=".7" fill="#ffd2cc"/><path class="st0" d="M442.5 591.9c-2.8-11.7 2.4-24.8 12.5-31.9 4.1-2.9 9.2-5.2 11.3-9.6 3-6.5-1.4-14-6.5-19.1-39.8-39.7-132.6-116.5-141.3-122.6-5 31.2 19.7 115.4 21.5 121 11.3 34.8 32 68 64 88 9.9 6.2 21.2 11.2 33 11.7 11.9.5 24.5-4.1 31-13.6-12.3-2.4-22.8-12.1-25.5-23.9z"/><path d="M492.5 553.1c-4.4 2.1-4.5 9-3.2 13 1.5 4.7 6.9 5.9 10.4 2.5 4.2-4 2.5-10.3-.4-14.5-1.5-2.2-4.9-2.4-7.4-2.7-3.3-.4-6.2-.1-9.2 1.2-2.6 1.1-.4 5 2.2 3.8 3-1.3 6.5-.9 9.5 0 2.3.7 3.4 3.9 3.4 6.2 0 2.9-3.4 5.3-4.6 1.6-.6-2-.7-6.2 1.4-7.2 2.6-1.3.4-5.1-2.1-3.9zm71.8-.6c-1.2-1.9-3.4-2.6-5.5-1.6-2.2 1-3.1 3.5-3.7 5.7-1.2 4.5-.8 10.8 4.7 12.1 4.5 1 9-2.8 9.8-7.1 1-5.2-2.4-10-7.1-11.8-2.7-1-3.8 3.3-1.2 4.3 4 1.5 6 8 1.3 10-2.4 1-3.7-.8-3.7-3 0-1.1.2-2.2.5-3.2.1-.4 1.2-2.9 1.2-3 1.5 2.1 5.3-.1 3.7-2.4z"/><path d="M559.8 555.2c3.3 1.5 6.9 2.2 10.5 1.9 2.8-.2 2.8-4.6 0-4.4-2.9.2-5.7-.1-8.3-1.3-2.6-1.2-4.8 2.6-2.2 3.8zm-65.7-15.5c.1-.5.4-.8.8-1 .7-.3 1-.2 1.5 0 2.4 1.5 4.6-2.3 2.2-3.8-3.2-2-7.8-.1-8.7 3.6-.7 2.8 3.5 4 4.2 1.2zm59.1.6c.8-.6 2-.9 3-.2.9.7 2.2.9 3.1 0 .8-.8.9-2.4 0-3.1-2.4-1.9-5.7-2.3-8.3-.5-1 .7-1.4 1.9-.8 3 .5.9 2 1.5 3 .8zm-72 246.1l-8.1-12.9c-1.5-2.4-5.3-.2-3.8 2.2l8.1 12.9c1.5 2.4 5.3.2 3.8-2.2zm-81.9-55.7c3.1 3.1 5.6 6.7 7.5 10.7 1.2 2.6 5 .3 3.8-2.2-2-4.3-4.8-8.2-8.1-11.6-2.1-2.1-5.2 1-3.2 3.1zm96.7 3.5c4-2.4 8 3.3 4.2 6-2.3 1.6-.1 5.5 2.2 3.8 3.5-2.5 4.9-7.4 2.5-11.2-2.3-3.7-7.5-4.7-11.2-2.5-2.3 1.5-.1 5.4 2.3 3.9zm-11.5 24.1c10.7 9.6 19.4 21 25.8 33.9 1.3 2.5 5.1.3 3.8-2.2-6.5-13.2-15.5-25-26.5-34.8-2.1-1.9-5.3 1.2-3.1 3.1z"/><path d="M510.4 789.4c-8.3-3.8-18-2.3-24.5 4.2-1.5 1.4-.3 3.6 1.6 3.8 1.9.2 3.1-.6 4.1-2.2 1.6-2.4-2.2-4.6-3.8-2.2h-.3c.5 1.3 1 2.5 1.6 3.8 5-5 12.7-6.5 19.2-3.5 2.4 1.1 4.7-2.7 2.1-3.9zm65.9-57.9c1.8-1.5 7.7-5.6 8.8-1.1.7 2.8 4.9 1.6 4.3-1.2-.8-3.1-3.6-5.1-6.7-5.2-3.7-.2-6.7 2.2-9.5 4.3-2.2 1.9 1 5 3.1 3.2zm51.9 17c2.5-1.7 4.9-3.3 7.4-5 2.3-1.6.1-5.4-2.2-3.8-2.5 1.7-4.9 3.3-7.4 5-2.4 1.5-.2 5.3 2.2 3.8zm-130-232.2c3.1-21.7 1.5-43.8-4.9-64.8-3.1-10.2-7.4-20.2-12.6-29.5-5.2-9.3-11.3-18.5-19.5-25.4-8.5-7.1-19.3-11.9-30.3-8.3-3.8 1.2-2.1 7.2 1.6 6 12.4-4.1 23.9 5 31.5 13.9 8 9.4 14.1 20.9 18.8 32.2 9.6 23.4 13 49.2 9.4 74.2-.5 3.9 5.5 5.6 6 1.7z"/><path d="M429 391.4c1.3 10.6 2.6 21.2 3.9 31.9.4 3.5 4.8 4.2 6.1.8 3.5-9.1 13.9-14.6 23.4-12.5 3.9.8 5.5-5.1 1.6-6-13-2.8-26.2 4.5-31 16.8 2 .3 4 .5 6.1.8-1.3-10.6-2.6-21.2-3.9-31.9-.5-3.8-6.7-3.8-6.2.1zm118.4 110.2c.9-14 1.8-28.1 2.6-42.1.8-13.1.9-26.6 4.7-39.2 2.8-9.2 10.7-24 22.7-21.7 5.4 1 8.8 6.1 9.4 11.3.7 6.2-2.4 12.2-6.3 16.8l4.8.6c-5-9.8-12.9-17.8-22.6-23-3.5-1.9-6.6 3.5-3.1 5.3 8.8 4.8 15.8 11.9 20.4 20.8.9 1.7 3.6 2.1 4.8.6 6.6-7.9 10.7-18.4 6.2-28.3-4.1-9.1-14.2-12.7-23.3-8.8-22.2 9.6-22.4 40.2-23.7 60.5-1 15.7-2 31.5-2.9 47.2-.2 4 6 4 6.3 0z"/><path d="M468.2 559.6c9.5-23.6 25.8-47.3 52.8-51.8 11.7-1.9 23.4 1.2 32.5 8.9 8.4 7.1 14.2 17.9 12.6 29.1-.6 3.9 5.4 5.6 6 1.6 3-20.3-12-38.5-30.9-44.5-21.1-6.6-43.6 4.2-58 19.6-9.5 10.2-15.7 22.6-20.9 35.4-1.5 3.7 4.5 5.3 5.9 1.7z"/><path d="M571 546.3c9.9 3.4 19.7 8.2 26.7 16.3 6.6 7.7 10.1 18.5 6.6 28.3-7.6 21-33.2 24.1-52.4 24.4-4 .1-4 6.2 0 6.2 22.3-.3 51-5.2 58.7-29.9 3.4-10.9-.1-22.7-7-31.5-7.7-9.9-19.2-15.7-30.9-19.7-3.8-1.3-5.4 4.6-1.7 5.9zm-57.6 52.5c7.5 10.8 23 12.2 31.5 1.8 2.5-3-1.8-7.4-4.4-4.4-5.9 7-16.5 7.2-21.8-.6-2.2-3.2-7.5-.1-5.3 3.2zm-78.7 38.8c-33-9.8-59.7-33.6-78.3-62-21.2-32.5-31.3-70.4-36.7-108.4-3.4-23.5-5-47.2-6.6-70.9-1.5.9-3.1 1.8-4.6 2.7 42.9 30.8 83.5 64.8 121.4 101.6 10.8 10.5 21.3 21.1 31.6 32 2.7 2.9 7.1-1.5 4.4-4.4-36.7-38.7-76.2-74.6-118.2-107.5-11.9-9.3-23.9-18.3-36.1-27.1-1.9-1.3-4.8.4-4.6 2.7 5.3 77.5 13.1 165 76 219.4 14.6 12.6 31.5 22.4 50.1 27.9 3.8 1.1 5.4-4.9 1.6-6z"/><path d="M572.9 529.9c12.1-48.5 37.4-92.1 64.9-133.3 7.8-11.8 15.9-23.4 23.9-35h-5.3c9.1 13.5 13.5 29.2 16.3 45 3 17 4.7 34.3 5 51.5.3 17.7-.9 35.5-4.1 52.9-3 16-7.4 32-15.5 46.1-8.3 14.5-21.1 26.9-37.3 32.1-3.8 1.2-2.2 7.2 1.6 6 32.1-10.2 48-42.3 55.1-72.9 8.4-36.2 7.8-73.8 2.3-110.4-2.9-18.7-7.3-37.5-18-53.4-1.3-2-4-2-5.3 0-28.5 41.1-57.2 82.7-76.2 129.3-5.4 13.2-9.8 26.7-13.3 40.5-1.1 3.8 4.9 5.5 5.9 1.6zm-178.8 89c-12.3-2.2-24.5 3.7-34.8 10-9.6 5.8-17.4 14.2-19 25.7-1.5 10.5 2 21.2 9.7 28.5 8 7.4 18.8 10.7 29.4 12.2 13.3 1.8 27.5 1.9 39.6-4.6 3.5-1.9.4-7.2-3.1-5.3-11.5 6.2-26 5.6-38.6 3.4-11-2-22.9-6.5-28.4-17-5.7-10.9-2.7-24 6.2-32.2 4.7-4.3 10.4-7.3 16.1-10 6.6-3.2 13.8-6 21.2-4.6 4 .6 5.6-5.4 1.7-6.1z"/><path d="M632 593c22.8 1.8 46.4 19.1 49.8 42.8 1.7 11.7-3.4 23.3-12.8 30.3-10.2 7.6-23.7 8.4-35.4 4.1-3.7-1.4-5.3 4.6-1.6 6 20.4 7.6 44.6-.6 53.4-21.2 8.9-20.8-3.6-43.5-20.4-56-9.6-7.1-21-11.2-32.9-12.2-4.1-.3-4.1 5.8-.1 6.2zm-157.6 36.6c-15.8 13.2-32.6 25-50.4 35.3-3.4 2-.3 7.3 3.1 5.3 18.2-10.6 35.5-22.8 51.6-36.3 3.1-2.5-1.3-6.8-4.3-4.3z"/><path d="M419.1 667.2c6.5 15.4 17.4 28.3 31.8 36.9 3.4 2 6.5-3.3 3.1-5.3-12.9-7.7-23.1-19.3-28.9-33.2-1.6-3.6-7.5-2.1-6 1.6z"/><path d="M458.2 699c-8.9-5.8 1.1-20 4.7-26.1 5.4-8.9 11.7-17.2 18.9-24.7 2.7-2.9-1.6-7.3-4.4-4.4-9 9.5-16.8 20.1-23.1 31.6-4.8 8.9-10 21.9.7 28.9 3.4 2.2 6.5-3.1 3.2-5.3z"/><path d="M446.8 696.1c5.6 11.4 15.9 19.2 26.6 25.6 12.1 7.3 25.1 13.4 38.7 17.3 24.6 7.1 51.6 6.1 73.8-7.5 11.1-6.8 20.4-16.5 25.9-28.4 1.7-3.6-3.7-6.7-5.3-3.1-9.3 20.1-29.4 32.5-50.8 36.2-25.4 4.4-51.6-4.3-73.6-16.6-11.7-6.5-23.9-14.2-30-26.7-1.7-3.5-7-.4-5.3 3.2zm132.9-59.6c.6-.6 1.2-1.2 1.9-1.8-1.2.2-2.5.3-3.8.5 7.6 5.5 12.5 13.7 16.4 22 3 6.5 11.7 20.8 3.8 26.7-3.2 2.3-.1 7.7 3.1 5.3 10.7-7.9 4.6-21.2.4-30.9-4.8-10.9-10.7-21.4-20.6-28.5-1.1-.8-2.8-.4-3.8.5-.6.6-1.2 1.2-1.9 1.8-2.8 2.8 1.6 7.2 4.5 4.4zM491 668.2c8.7 7.7 20.3 10.5 31.6 9 12.4-1.6 23.3-8 32.8-15.8 3.1-2.5-1.3-6.8-4.4-4.4-15.2 12.3-38.9 21.6-55.7 6.8-2.9-2.6-7.2 1.7-4.3 4.4z"/><path d="M479.4 684.2c10.2 12.5 26.6 17.1 42 18.7 17.1 1.7 35.6-1.8 47.3-15.2 2.6-3-1.7-7.4-4.4-4.4-10.8 12.3-27.4 14.9-43 13.4-13.9-1.4-28.5-5.7-37.7-16.8-2.4-3.2-6.7 1.2-4.2 4.3zm101.1-54.4c4.8 6.2 11.9 9.7 18.8 12.9 6.7 3.2 14.5 6.7 18.2 13.5 4.2 7.9.8 18.1-2.3 25.8-3.1 7.7-7.8 14.9-14.9 19.4-3.4 2.1-.3 7.5 3.1 5.3 7.7-4.8 13-12.1 16.6-20.3 3.8-8.5 7.2-18.9 4.8-28.3-4.9-19.3-29.2-18.9-40-32.8-2.3-3-6.7 1.4-4.3 4.5zm-130.3 63c-13.3 8.6-21.3 23.7-20.8 39.6.1 4 6.3 4 6.2 0-.4-13.7 6.3-26.8 17.8-34.3 3.3-2.1.2-7.4-3.2-5.3zm8.1 13.7c-7.2 7-13.3 15-17.9 24-1.8 3.5 3.5 6.7 5.3 3.1 4.4-8.5 10-16.1 16.9-22.8 3-2.7-1.4-7-4.3-4.3z"/><path d="M429.6 732.2c7.9 6.6 15.2 14 21.8 21.9 3.2 3.9 6.3 8 9.1 12.3 1.4 2.1 2.7 4.2 4 6.3.8 1.2 1.5 2.5 2.2 3.7.8 1.3.9 3.4 2.2 1.8 1.2-.2 2.5-.3 3.8-.5-.1-.1-.2-.1-.4-.2-3.6-1.7-6.7 3.7-3.1 5.3.1.1.2.1.4.2 1.1.5 2.8.6 3.8-.5 3.4-4.1-1.2-9.3-3.5-13-3.2-5.3-6.7-10.4-10.5-15.3-7.5-9.7-16-18.5-25.3-26.4-3.1-2.5-7.5 1.8-4.5 4.4z"/><path d="M471.6 776.2c-11-2-22.3 1.9-29.4 10.7-1.2 1.5-1.2 3.8.6 4.8 2.8 1.7 6.2.3 7-2.9 1-3.8-4.9-5.5-6-1.6.7-.3 1.4-.6 2-.8l.6 4.8c5.6-7 14.5-10.7 23.4-9.1 4 .8 5.7-5.2 1.8-5.9z"/><path d="M446 789.6c6.7 1.5 13.5 2.3 20.4 2.4 4.1 0 13.4 1.2 15.5-3.4.6-1.4.5-2.6-.5-3.8-.1-.1-.2-.3-.3-.4-2.5-3.1-6.8 1.3-4.4 4.4.1.1.2.3.3.4-.2-1.2-.3-2.5-.5-3.8-.1.3-5.1.2-5.9.3-2.6.1-5.2.1-7.8 0-5.1-.2-10.2-1-15.2-2.1-3.8-.8-5.4 5.2-1.6 6zm-12.8-105.9a78.77 78.77 0 0 0-33.8 43.3c-1.2 3.8 4.8 5.4 6 1.6 5.2-16.5 16.2-30.6 31-39.6 3.3-2 .2-7.4-3.2-5.3z"/><path d="M431.9 692.9c-11.6 15.8-21.6 32.6-29.9 50.3-1.7 3.6 3.6 6.7 5.3 3.1 8.3-17.7 18.3-34.6 29.9-50.3 2.4-3.2-3-6.2-5.3-3.1z"/><path d="M402.4 743.7c10 9.2 17.2 20.8 21.1 33.9 1.1 3.8 7.1 2.2 6-1.6-4.1-14-11.9-26.7-22.7-36.6-2.9-2.7-7.3 1.6-4.4 4.3z"/><path d="M423.3 771.9c-6.5 1.1-13-1.5-19.5-.7-4.7.6-8.8 2.5-11.5 6.5-1.7 2.5 1.1 4.9 3.5 4.5l1.8-.3c3.9-.6 2.2-6.6-1.6-6l-1.8.3c1.2 1.5 2.3 3 3.5 4.5 2.4-3.5 7.2-3.8 11.1-3.6 5.5.3 10.7 1.5 16.2.6 3.9-.5 2.2-6.5-1.7-5.8z"/><path d="M397.9 782.9c10.8 4.4 22.8 4.7 33.8.9 3.7-1.3 2.1-7.3-1.6-6-10.1 3.5-20.7 3.2-30.5-.9-3.7-1.4-5.3 4.5-1.7 6z"/><path d="M403.7 735.4c9.5 14.3 18.2 29.2 26.1 44.5 1.8 3.5 7.2.4 5.3-3.1-7.9-15.3-16.6-30.1-26.1-44.5-2.1-3.3-7.5-.2-5.3 3.1zm92.7-11.9c-6.5 9.4-11.1 19.9-13.4 31.1-.8 3.9 5.2 5.5 6 1.6 2.2-10.7 6.5-20.7 12.7-29.7 2.4-3.2-3-6.3-5.3-3z"/><path d="M503.1 735.5c-7.1 6.3-12.2 14.5-14.8 23.6-1.1 3.8 4.9 5.5 6 1.6 2.3-8.2 6.8-15.3 13.2-20.9 3-2.6-1.4-6.9-4.4-4.3z"/><path d="M481.7 760c1.3 1.9 2.5 3.8 3.8 5.7.9 1.4 2.7 2 4.2 1.1 1.4-.8 2-2.8 1.1-4.2-1.3-1.9-2.5-3.8-3.8-5.7-.9-1.4-2.7-2-4.2-1.1-1.4.7-2 2.8-1.1 4.2z"/><path d="M489.5 762.7c10.3 9.5 18.6 20.7 24.6 33.4 1.7 3.6 7 .5 5.3-3.1-6.2-13.1-14.9-24.8-25.5-34.6-2.9-2.7-7.3 1.6-4.4 4.3z"/><path d="M483.3 799.8c10.2 6.1 22.9 6.2 33.3.4 3.5-1.9.4-7.3-3.1-5.3-8.5 4.7-18.7 4.5-27-.4-3.5-2.1-6.6 3.2-3.2 5.3zm85.2-68.3c5.8 8.7 11.6 17.4 17.5 26.2 2.2 3.3 7.5.2 5.3-3.1-5.8-8.7-11.6-17.4-17.5-26.2-2.1-3.3-7.5-.2-5.3 3.1zm12.3-3.9c6.5 8.7 11.7 18.2 15.3 28.4 1.3 3.7 7.3 2.1 6-1.6-3.9-10.7-9.2-20.7-16-29.8-2.3-3.3-7.7-.2-5.3 3z"/><path d="M595.2 748.9c-10.1 10.4-17.9 22.7-23.3 36.2-1.5 3.7 4.5 5.3 6 1.6 4.9-12.5 12.3-23.8 21.7-33.4 2.7-2.9-1.6-7.3-4.4-4.4z"/><path d="M590.5 756.6c-6.2 8.8-11.8 18-16.7 27.6-1.8 3.5 3.5 6.7 5.3 3.1 5-9.5 10.5-18.7 16.7-27.6 2.3-3.2-3-6.3-5.3-3.1z"/><path d="M572.8 795.4c5.5-4.6 17.7-13.4 23-3.6 1.9 3.5 7.2.4 5.3-3.1-2.9-5.3-8.9-7.8-14.8-7.3-7 .6-12.7 5.3-17.9 9.6-3 2.6 1.4 6.9 4.4 4.4z"/><path d="M570.2 794.8c8.4 10.6 23.2.6 30.9-5.5 3.1-2.5-1.3-6.8-4.4-4.4-5.2 4-16.5 12.7-22.2 5.5-2.5-3.1-6.8 1.3-4.3 4.4zm30.5-83.6c6.4 12.6 14.3 24.3 23.3 35.2 2.5 3.1 6.9-1.3 4.4-4.4-8.7-10.4-16.2-21.8-22.4-33.9-1.7-3.6-7.1-.4-5.3 3.1z"/><path d="M607.9 701.8c8.3 12.5 15.2 25.8 20.6 39.8 1.4 3.7 7.4 2.1 6-1.6-5.6-14.5-12.6-28.3-21.2-41.3-2.3-3.3-7.6-.2-5.4 3.1zm19.1 45.8c-4.7 6.2-8.9 12.8-12.3 19.7-1.5 3.1-3 6.3-4.2 9.6-1.2 2.9-3 6-1.6 9.1.4.9 1.7 1.6 2.7 1.5 1.5-.2 2.5-.6 3.2-1.9.7-1.2.5-2.8-.5-3.8l-.2-.2c-2.8-2.8-7.2 1.5-4.4 4.4l.2.2c-.2-1.2-.3-2.5-.5-3.8-.1.1-.1.2-.2.3l2.7-1.5h-.3l2.7 1.5c-.1-.2-.2-.4-.2-.6l.3 2.4c1.2-6.1 4.6-12.3 7.5-17.7 3-5.7 6.6-11.1 10.5-16.3 2.4-2.9-3-6-5.4-2.9z"/><path d="M632.2 745.9c-7.3 15.1-15.1 30-23.3 44.6-2 3.5 3.4 6.6 5.3 3.1 8.2-14.6 16-29.5 23.3-44.6 1.8-3.5-3.5-6.7-5.3-3.1z"/><path d="M615.5 788.6c5-4.5 10.9-8.7 17.3-11 3-1.1 6.8-1.9 9.7-.2 2.3 1.3 4.1 4.2 2.8 6.8-1.8 3.5 3.5 6.7 5.3 3.1 4.2-8.2-3-16.5-11.3-17-10.4-.5-20.9 7.3-28.2 13.9-2.9 2.7 1.4 7 4.4 4.4z"/><path d="M613 794.7c10.5-4.6 21.8-6.8 33.3-6.7 4 0 4-6.2 0-6.2-12.6-.1-24.8 2.6-36.4 7.6-3.7 1.6-.5 6.9 3.1 5.3zm2-107.2c13 4.8 24.3 13.2 32.9 24.1 2.5 3.1 6.8-1.3 4.4-4.4-9.3-11.7-21.6-20.5-35.7-25.7-3.7-1.3-5.3 4.6-1.6 6z"/><path d="M618.4 675.9c16 9.8 29.2 23.4 38.6 39.7 2 3.4 7.3.3 5.3-3.1-9.9-17.2-24-31.6-40.8-41.9-3.3-2.2-6.5 3.2-3.1 5.3z"/><path d="M657 716.1c-2.3 13.1-5.5 26-9.4 38.8-1.2 3.8 4.8 5.4 6 1.6 3.9-12.7 7-25.7 9.4-38.8.7-3.9-5.3-5.6-6-1.6z"/><path d="M648.5 714.8c1.6 4.3.1 8.7-.8 13-.9 4.4-1.8 8.7-2.6 13.1-1.6 8.8-3.1 17.6-4.3 26.4-.5 3.9 5.4 5.6 6 1.6 1.3-9.8 3-19.5 4.8-29.2.9-4.6 1.9-9.2 2.8-13.8.9-4.3 1.7-8.5.1-12.8-1.3-3.7-7.3-2.1-6 1.7z"/><path d="M644.8 766.9c7.5-4.8 17-5.8 25.3-2.2 3.6 1.6 6.8-3.7 3.1-5.3-10.3-4.5-22-3.9-31.5 2.2-3.4 2.1-.3 7.4 3.1 5.3z"/><path d="M645.2 772.4c10.2.7 20.3-.7 30-3.8 3.8-1.2 2.2-7.2-1.6-6-9.2 3-18.7 4.2-28.4 3.6-4-.2-4 6 0 6.2zM471.8 562.3c-10.9-3.8-22 2.7-26.6 12.8-4.6 10-3.2 21.5 1.9 31 11.8 22 38.3 27.1 61 22.7 3.9-.8 2.2-6.7-1.6-6-18.5 3.6-40.2.4-51.7-16.1-5-7.2-7.6-16.3-5.4-25 2.4-9.3 10.9-17 20.8-13.5 3.7 1.4 5.3-4.6 1.6-5.9zm21.2-.6c0 .5.1 1.1.1 1.7h4.4c-.1-1.4-.3-2.8-.5-4.2-.1-1.2-.9-2.2-2.2-2.2-1.2 0-2.3 1-2.2 2.2.1 1.3.1 2.7.2 4 0 1.2 1 2.2 2.2 2.2 1.2 0 2.3-1 2.2-2.2-.1-1.3-.1-2.7-.2-4h-4.4c.1 1.4.3 2.8.5 4.2.1 1.2.9 2.2 2.2 2.2 1.1 0 2.3-1 2.2-2.2 0-.5-.1-1.1-.1-1.7-.1-1.2-1-2.2-2.2-2.2-1.2 0-2.3 1-2.2 2.2zm67.6-6.5c-1.3.2-2.4.8-2.8 2.1-.3 1.2 0 2.6 1 3.4 2.6 2 5.5-1.1 4.9-3.8-.5-2.4-4.4-1.9-4.3.6.1 2.4.1 4.8.2 7.3.1 2.1 3 3.1 4.1 1.1 1-1.7 1.9-3.4 2.9-5.1 1.4-2.5-2.4-4.7-3.8-2.2-1 1.7-1.9 3.4-2.9 5.1 1.4.4 2.7.7 4.1 1.1-.1-2.4-.1-4.8-.2-7.3-1.5.2-2.9.4-4.3.6l.9-1.2c.4.1.7.2 1.1.3.8.7.7 1.4-.1 2.2-.4.1-.7.2-1.1.3h.2c1.2-.1 2.2-.9 2.2-2.2.1-1.2-.9-2.5-2.1-2.3z"/><path class="st11" d="M494.4 557.4v1.4c0 1.2 1 2.3 2.2 2.2 1.2 0 2.2-1 2.2-2.2v-1.4c0-1.2-1-2.3-2.2-2.2-1.2.1-2.3 1-2.2 2.2zm68.8 3c2.8 0 2.8-4.4 0-4.4-2.9 0-2.9 4.4 0 4.4z"/><path class="st11" d="M565.4 558.2v-1.4c0-1.2-1-2.3-2.2-2.2-1.2 0-2.2 1-2.2 2.2v1.4c0 1.2 1 2.3 2.2 2.2 1.2-.1 2.2-1 2.2-2.2z"/></svg>