<?xml version="1.0" encoding="utf-8"?>
<!-- Generator: Adobe Illustrator 23.0.2, SVG Export Plug-In . SVG Version: 6.00 Build 0)  -->
<svg version="1.1" id="Layer_1" xmlns="http://www.w3.org/2000/svg" xmlns:xlink="http://www.w3.org/1999/xlink" x="0px" y="0px"
	 viewBox="0 0 1000 1000" style="enable-background:new 0 0 1000 1000;" xml:space="preserve">
<style type="text/css">
	.st0{opacity:0.7;fill:#B95DC7;}
	.st1{opacity:0.7;fill:#615F61;}
	.st2{opacity:0.7;fill:#D4CFD4;}
	.st3{opacity:0.7;fill:#FFEC1F;}
	.st4{opacity:0.7;fill:#FF321F;}
	.st5{opacity:0.7;fill:#A8EDDC;}
</style>
<g>
	<path class="st0" d="M173.6,560.4c-19.7,13.8-37.3,35-32.6,58.6c2,10,6,9.7,4,20c-1.7,9-6.5,21.4,0.8,28c1.8,1.6,4.2,2.5,6.7,2.5
		c18.8,0.3,37.5,0.7,56.3,1c6.8,0.1,14,0.2,20-3.2c7.5-4.2,11.2-12.7,15.3-20.3c34.2-62.3,120.8-94.2,167.9-41
		c6.5,7.3,30.8,31.7,34,40.9c3.5,10.2,11.5,15,21.5,14.7c38.3-1.2,84.6-13,122.9-14.2c7.5-0.2,18.3,1.7,24.6-2.4
		c13.2-8.6,17.3-24.9,26-38c8.9-13.4,29.3-28.4,45-32c31-7.2,52.9-9.5,83.4-0.3c25.6,7.7,38.9,28.1,40.2,54.5
		c0.3,7.1,7,12,13.9,10.3c11.2-2.7,23.3-4.7,26.1-14c4.2-13.9,0.7-28.8-2.8-42.8c-28.9,4.3-57.7-17.4-65.9-44.8
		c-3.5-11.6,4.9-23.5,17.1-23.9c8.9-0.2,22.2-5.3,31-4.1c-5-23-24.8-51.6-43-69c-14.6-13.9-20.4-24.5-14.6-38.6
		c2.5-6.1-1.5-12.9-8-14c-59.4-9.7-123.1-10.8-182.8-13.4c-29.1-1.3-73.3,0.9-101.8,7.3c-74,16.5-89.1,62.6-149.3,97.1
		C283.4,505.9,223.2,525.7,173.6,560.4z"/>
	<path class="st1" d="M418,634.8c-11.5-18.2-22.3-30.9-42-39.8c-19.7-8.8-55.9-2.7-74,9c0,0-16.3,8.3-30.2,31.6s-15,53.9-2.5,78
		c4.4,8.6,10.6,16.5,18.5,22c15.1,10.4,35,11,53.1,7.6c27.7-5.2,53.8-19,73.7-39c6-6,11.5-12.8,14.3-20.8
		C434.3,667.1,427.2,649.3,418,634.8z"/>
	<path class="st1" d="M775.3,585.7c-19.6-13-45.8-10.8-68.6-4.5c-27.8,7.8-28.2,5.2-50.5,23.2l0.2-0.1
		c-18.6,14.1-30.8,36.4-29.9,59.5c1.8,42.5,47.1,76.5,90.5,71.8c43.4-4.7,78.7-43.3,83.5-85.6C803.2,626,795.8,599.2,775.3,585.7z"
		/>
	<path class="st2" d="M394.7,646.9c-4.5-9.1-15.8-12.5-25.9-13.3c-20-1.6-37.4-2-37.4-2c-21.2,3.3-38.5,23.5-38.4,45
		s17.6,41.5,38.8,44.6c30.8,4.4,58.1-24.7,64-55.2C397.1,659.6,397.6,652.7,394.7,646.9z"/>
	<path class="st2" d="M763.1,613.8c-13.6-16.3-39.8-7.1-58.3,3.3l0.2,2.9c-19.5-7.9-39,12.8-44.4,33.2c-5.4,20.4,7.2,43.2,26.6,51.7
		s43.1,3.2,59-10.7c15.8-13.9,23.9-35.5,23.8-56.5C769.9,629.2,768.5,620.3,763.1,613.8z"/>
	<path class="st3" d="M146.5,622.6c7.2-25.5,29.5-45.7,55.1-52.1c11.9-3,22.3,8.7,18.2,20.2c-9.4,26.5-37.8,46.8-66.2,42.8
		c-7.9-1.1-16.1-4.1-20.9-10.5c-4.8-6.4,18.1-16.1,24.4-21"/>
	<path class="st4" d="M833.9,522.8c-16-7.4-37.4,6.2-37.5,23.8s21.2,31.4,37.3,24.1c11.6-5.2,18-18.7,17.4-31.4
		c-0.6-12.7-7.2-24.5-15.8-33.8"/>
	<path class="st5" d="M510.1,404.5c-45.6,16-86.6,44.6-117.6,81.6c40.9-2.3,81.8-4.5,122.7-6.8c-2.5-25.6-3-51.3-1.6-76.9"/>
	<path class="st5" d="M734.5,484.8c-8.3-37.2-42.6-64.2-79.1-75c-39.9-11.8-111.6-27.5-104.9,36.4c2.3,22.2-2.8,31.2,10.1,39.3
		C601.7,511.1,697.6,484.3,734.5,484.8z"/>
	<path class="st2" d="M814,644.6c-0.9,1.9-1.6,3.8-2,5.8c-1.1,5.4,4.6,10.2,11.8,10c18.1-0.6,36-3.2,53.1-7.9l0.3-14.8
		c-18.2,5.9-37.3,9.9-56.9,12c-3.1,0.3-7.7-1.5-5.6-3.2"/>
	<g>
		<path d="M142.8,647c-10.3-12.7-11.4-30-7.2-45.3c4.6-16.8,15.6-30.3,28.8-41.3c14-11.7,30.2-20.6,45.9-29.7
			c16.7-9.7,33.6-19.2,51-27.5c10-4.8,20.2-9.1,30.6-12.8c5.3-1.9,10.8-3.6,16.2-5.1c2.5-0.7,5.1-1.4,7.6-2c1-0.2,2.2-0.6,3.2-0.6
			c0.5,0,1,0.1,1.5,0.2c0.9,0.5,0.9,0.3,0-0.8c-1.3,4,5,5.7,6.3,1.7c1.1-3.3-1.1-6.1-4.2-7.1c-4.3-1.4-8.9,0.3-13.1,1.4
			c-10.8,2.8-21.3,6.4-31.6,10.6c-20.6,8.3-40.2,18.8-59.5,29.8c-32.9,18.7-74.4,38.4-87.7,76.8c-6.5,18.8-5.4,40.4,7.5,56.2
			C140.8,654.9,145.4,650.3,142.8,647L142.8,647z"/>
	</g>
	<g>
		<path d="M147.9,612.8c7.6-9.8,15.4-19.7,24.7-27.9c7.5-6.5,18.1-14.6,28.6-13.7c16,1.3,24,22.5,13.1,34.1
			c-4.4,4.7-10.9,7.9-16.5,10.9c-7.1,3.8-14.5,6.9-22.1,9.5c-4,1.3-2.3,7.6,1.7,6.3c7.6-2.5,14.9-5.6,22-9.2
			c6.2-3.2,12.9-6.7,18.1-11.4c7.2-6.5,10-16.4,7.8-25.7c-2.1-8.7-8.4-16.2-16.8-19.4c-11.1-4.3-22.5,0.9-31.7,7.2
			c-13.4,9.2-23.7,22-33.6,34.8C140.8,611.4,145.4,616.1,147.9,612.8L147.9,612.8z"/>
	</g>
	<g>
		<path d="M324.9,489.4c10-17.8,21.5-34.9,35.6-49.8c13.1-13.9,28.3-25.5,44.9-34.9c10.5-5.9,21.4-10.9,32.6-15.3
			c3.9-1.5,2.2-7.9-1.7-6.3c-19.5,7.7-38.4,17.1-55.3,29.6c-15.9,11.8-29.6,26-41.5,41.9c-7.5,10-14.1,20.6-20.2,31.5
			C317.2,489.8,322.9,493.1,324.9,489.4L324.9,489.4z"/>
	</g>
	<g>
		<path d="M457.9,382c86-17.9,175.3-20.3,262.2-6.9c24.5,3.8,48.7,8.8,72.7,15c-0.8-1-1.6-2.1-2.4-3.1c-0.5,10.8-7.6,20.8-17.8,24.7
			c-2.1,0.8-3.4,3.7-1.4,5.5c44.6,40.2,72.7,97.5,78,157.2c1.5,16.9,1.2,34-1,50.8c-0.5,4.2,6,4.1,6.5,0
			c7.8-60.9-8.9-124.3-44.6-174.1c-10-14-21.5-27-34.4-38.5c-0.5,1.8-1,3.6-1.4,5.5c13-5,21.9-17.1,22.6-31c0.1-1.4-1.1-2.8-2.4-3.1
			c-86-22.2-175.9-28.9-264.2-19.6c-24.9,2.6-49.7,6.5-74.2,11.6C452.1,376.5,453.8,382.8,457.9,382L457.9,382z"/>
	</g>
	<g>
		<path d="M132.9,658.8c-6.5-4.5-15.6,1.1-16.2,8.5c-0.8,10.3,9.5,15.8,18.3,16.7c5.9,0.6,11.9,0,17.8-0.2
			c6.2-0.2,12.5-0.4,18.7-0.6c12.7-0.4,25.4-0.8,38.2-1.2c4.2-0.1,4.2-6.7,0-6.5c-18.5,0.6-37,1.2-55.5,1.7
			c-4.5,0.1-8.9,0.3-13.4,0.4c-4.1,0.1-8.6,0-12.4-2c-2.7-1.5-5.9-4.8-5.1-8.3c0.7-2.7,3.9-4.5,6.3-2.9
			C133.1,666.8,136.4,661.2,132.9,658.8L132.9,658.8z"/>
	</g>
	<g>
		<path d="M343,617.6c-27.2,0.9-53.8,18-60.9,45.2c-6.7,25.3,4.7,52.1,29.1,62.5c21.3,9,47.8,5.6,66.5-7.9
			c22.1-16,35.8-44.8,25.5-71.5c-5.2-13.5-15.9-24.6-30.1-28.3c-13.6-3.6-28.7-0.5-39,9.3c-3,2.9,1.6,7.5,4.6,4.6
			c8-7.7,19.8-10.4,30.6-8.1c11.4,2.4,20.4,10,25.7,20.2c11.8,22.7,2,49-16.4,64.8c-15.6,13.5-38,18.7-57.9,13.3
			c-9.5-2.5-18.1-7.6-24.4-15.3c-7.5-9.3-10.5-21.6-9.4-33.4c2.5-28.6,28.7-48,56.1-48.9C347.1,624,347.2,617.4,343,617.6L343,617.6
			z"/>
	</g>
	<g>
		<path d="M249.3,669.1c0.1-23.8,15.8-44,34.9-56.8c10.1-6.8,21.2-12.1,32.5-16.7c9.7-3.9,19.8-7.4,30.3-8.4
			c10.9-1,21.9,0.9,29.3,9.6c2.8,3.2,7.4-1.5,4.6-4.6c-15-17.5-41.6-12.2-60.5-5c-24.3,9.2-48.9,21.5-64.4,43.2
			c-8.1,11.3-13.2,24.8-13.2,38.8C242.8,673.3,249.3,673.3,249.3,669.1L249.3,669.1z"/>
	</g>
	<g>
		<path d="M446.8,673.3c52.7-10,106.5-13.2,160.1-9.8c4.2,0.3,4.2-6.3,0-6.5c-54.1-3.5-108.5-0.1-161.8,10
			C440.9,667.7,442.6,674,446.8,673.3L446.8,673.3z"/>
	</g>
	<g>
		<path d="M726,610.4c-23.3-3.4-47.6,7.5-59.5,28c-11.3,19.5-8.7,45.5,5.5,62.7c16.4,19.9,45,16.5,65.2,4.6
			c20.7-12.3,35.6-34.1,38.3-58.2c1.6-14.4-1.1-29.7-13.4-38.6c-10.4-7.5-24.2-9-36.7-9.7c-4.2-0.2-4.2,6.3,0,6.5
			c9.8,0.5,20.2,1.5,29,6.1c11,5.7,14.9,16.3,14.9,28.2c0,21.5-11.3,42.1-28.3,55.1c-15.9,12.2-42.4,20.8-59.5,6.3
			c-14.4-12.2-19.3-34.7-13-52.3c8-22.2,32.6-36,55.7-32.6C728.3,617.3,730.1,611,726,610.4L726,610.4z"/>
	</g>
	<g>
		<path d="M374.9,487.1c20.2-18.8,42-35.9,65.2-50.9c11.4-7.4,23.1-14.6,35.4-20.4c12.7-5.9,26.7-9.8,40.7-7c-0.8-1-1.6-2.1-2.4-3.1
			c-0.9,28.6-1.9,57.2-2.8,85.9c-0.1,4.2,6.4,4.2,6.5,0c0.9-28.6,1.9-57.2,2.8-85.9c0-1.4-1-2.9-2.4-3.1
			c-22.4-4.5-43.7,5.6-62.6,16.6c-19.4,11.3-38,24.1-55.6,38c-10.2,8-20,16.5-29.5,25.4C367.1,485.3,371.8,490,374.9,487.1
			L374.9,487.1z"/>
	</g>
	<g>
		<path d="M373.5,496.2c33.3-0.1,66.7-0.2,100-0.2c4.2,0,4.2-6.5,0-6.5c-33.3,0.1-66.7,0.2-100,0.2
			C369.3,489.7,369.2,496.2,373.5,496.2L373.5,496.2z"/>
	</g>
	<g>
		<path d="M543,404c-4.3,28.5-3.9,57.3,1.2,85.6c0.8,4.1,7.1,2.4,6.3-1.7c-4.9-27.1-5.3-54.9-1.2-82.2
			C549.9,401.6,543.6,399.8,543,404L543,404z"/>
	</g>
	<g>
		<path d="M550.5,404.5c59.4-4.3,128.2-5.7,172.3,41.4c10.2,10.9,18,24,22,38.4c1.1,4,7.4,2.3,6.3-1.7
			c-7.4-26.8-26.7-48.3-50.1-62.6c-27.2-16.8-59.2-22.8-90.8-23.9c-19.9-0.7-39.8,0.5-59.7,1.9C546.3,398.3,546.3,404.8,550.5,404.5
			L550.5,404.5z"/>
	</g>
	<g>
		<path d="M548.5,501.1c52.8-2.4,105.5-4.8,158.2-7.2c4.2-0.2,4.2-6.7,0-6.5c-52.8,2.4-105.5,4.8-158.2,7.2
			C544.3,494.8,544.3,501.4,548.5,501.1L548.5,501.1z"/>
	</g>
	<g>
		<path d="M490.5,550.2c-3.8,10,3.7,20,12.8,23.8c12.1,5,25.3-1.6,35.9-7.2c3.7-2,0.4-7.6-3.3-5.7c-8.3,4.4-18.3,9.9-28,7.5
			c-7.2-1.7-13.9-9.1-11.1-16.7C498.3,548,492,546.3,490.5,550.2L490.5,550.2z"/>
	</g>
	<g>
		<path d="M556.4,655.1c2.1-17.6,4.3-35.1,6.4-52.7c0.5-4.2-6-4.1-6.5,0c-2.1,17.6-4.3,35.1-6.4,52.7
			C549.4,659.2,555.9,659.2,556.4,655.1L556.4,655.1z"/>
	</g>
	<g>
		<path d="M332.9,667.9c-0.8,5.1,1.7,9.7,6.2,12.2c4.3,2.4,10,2.5,13.7-1.1c7.2-7.1,0.5-21.4-9.6-20.3c-4.1,0.5-4.2,7,0,6.5
			c4-0.5,8.1,5.1,5.5,8.7c-2.6,3.6-10-0.1-9.4-4.3C339.8,665.5,333.5,663.8,332.9,667.9L332.9,667.9z"/>
	</g>
	<g>
		<path d="M265,665.5c-12.4,29.3,2.3,66.7,31.2,79.9c3.8,1.7,7.1-3.9,3.3-5.7c-26.5-12.1-39.5-45.6-28.2-72.5
			C273,663.4,266.6,661.7,265,665.5L265,665.5z"/>
	</g>
	<g>
		<path d="M658.8,594.6c-17.7,12.5-26.1,33.5-28.9,54.8c-1.5,11.3-1.6,22.8-0.6,34.1c1.2,12.7,4,25.8,11.4,36.2
			c7.2,10.1,17.9,17.4,30.3,17.9c4,0.2,4-6.2,0-6.3c-23.7-0.9-33.7-27.2-35.6-47.7c-1.8-19.5-0.7-40.5,7.1-58.6
			c4.2-9.9,10.6-18.7,19.4-24.9C665.2,597.7,662.1,592.2,658.8,594.6L658.8,594.6z"/>
	</g>
	<g>
		<path d="M712.3,668.4c-6.1,0.2-11.6,2.6-15.9,6.9c-3,3,1.7,7.6,4.6,4.6c3.1-3.1,6.9-4.8,11.3-5
			C716.5,674.8,716.5,668.2,712.3,668.4L712.3,668.4z"/>
	</g>
	<g>
		<path d="M741.1,688.8c1.8,0.9,3.7,1.9,5.5,2.8c1.6,0.8,3.5,0.4,4.5-1.2c0.8-1.5,0.4-3.7-1.2-4.5c-1.8-0.9-3.7-1.9-5.5-2.8
			c-1.6-0.8-3.5-0.4-4.5,1.2C739.1,685.8,739.5,688,741.1,688.8L741.1,688.8z"/>
	</g>
	<g>
		<path d="M293.8,744.5c16.7,9.5,37.1,11.4,55.2,4.7c3.9-1.4,2.2-7.8-1.7-6.3c-16.5,6.1-34.9,4.7-50.1-4
			C293.5,736.7,290.2,742.4,293.8,744.5L293.8,744.5z"/>
	</g>
	<g>
		<path d="M842.8,512.3c-12.8,1-25.5,3.4-37.8,7.2c-4.9,1.5-11,2.9-14.4,7c-3.7,4.4-1.6,9.5,0.4,14.1c2.7,6.2,5.3,12.5,8,18.8
			c2,4.8,3.8,11.3,8.5,14.2c4.8,3,11.8,1.8,17.2,1.7c7-0.1,14-0.2,21-0.3c4.2-0.1,4.2-6.6,0-6.5c-5.6,0.1-11.2,0.2-16.8,0.3
			c-4.9,0.1-10.1,0.7-14.9,0.2c-5.5-0.6-6.8-7.1-8.7-11.5c-2.1-5-4.2-9.9-6.4-14.9c-1.1-2.5-2.2-4.9-3.2-7.4c-1-2.7-0.7-4.3,1.8-5.8
			c4-2.4,9.3-3.5,13.8-4.7c10.3-2.9,20.9-4.8,31.6-5.6C846.9,518.5,847,512,842.8,512.3L842.8,512.3z"/>
	</g>
	<g>
		<path d="M815.1,674.3c24.7-4.6,49.3-9.1,73.9-13.7c1.7-0.3,2.8-2.5,2.3-4c-3.5-9.8-4.6-19.9-3.3-30.2c0.4-2.9-3.8-4.2-5.6-2.3
			c-12,12.3-30,17.6-46.7,13.6c-4.1-1-5.8,5.3-1.7,6.3c19,4.6,39.5-1.3,53.1-15.3c-1.9-0.8-3.7-1.5-5.6-2.3
			c-1.4,10.8-0.2,21.7,3.6,31.9c0.8-1.3,1.5-2.7,2.3-4c-24.7,4.6-49.3,9.1-73.9,13.7C809.2,668.7,811,675,815.1,674.3L815.1,674.3z"
			/>
	</g>
	<g>
		<path d="M674.9,597.7c16.3-12.7,37.8-18.2,58-18.7c9.8-0.3,19.7,0.7,29,3.9c11.9,4,20,12.5,25.4,24c18.4,39.1,6.5,94.3-29.9,117.9
			c-19.8,12.9-45.3,15.8-66.9,5.9c-3.7-1.7-7,4-3.2,5.7c20.7,9.4,44.2,8.8,64.7-1.1c21.1-10.1,36.2-29.3,44-51.7
			c7.8-22.6,8.4-48.5,0.5-71.1c-4-11.6-10.3-22.8-20.3-29.9c-9.5-6.7-21.7-9.2-33-10c-24.2-1.7-51.7,4.1-71.4,19.4
			C668.4,594.6,671.6,600.3,674.9,597.7L674.9,597.7z"/>
	</g>
	<g>
		<path d="M398.8,607.1c19.3,17.3,32.4,43.3,30.8,69.6c-0.8,12.7-5.6,25-14.1,34.5c-8.7,9.8-20.2,16.5-32.4,21.1
			c-14.4,5.4-29.5,8.4-44.6,11.1c-4.1,0.7-2.4,7,1.7,6.3c27.4-4.9,58.1-11,78.2-32c19.8-20.7,21.8-50.8,11.7-76.6
			c-5.8-14.7-14.9-28.1-26.7-38.6C400.3,599.6,395.6,604.2,398.8,607.1L398.8,607.1z"/>
	</g>
	<g>
		<path d="M684.2,532c7,6.6,17.8,6.7,24.9,0.4c3.2-2.8-1.5-7.4-4.6-4.6c-4.4,3.9-11.4,3.7-15.7-0.4
			C685.8,524.5,681.1,529.1,684.2,532L684.2,532z"/>
	</g>
</g>
</svg>
