<?xml version="1.0" encoding="utf-8"?>
<!-- Generator: Adobe Illustrator 23.0.2, SVG Export Plug-In . SVG Version: 6.00 Build 0)  -->
<svg version="1.1" id="Layer_1" xmlns="http://www.w3.org/2000/svg" xmlns:xlink="http://www.w3.org/1999/xlink" x="0px" y="0px"
	 viewBox="0 0 1000 1000" style="enable-background:new 0 0 1000 1000;" xml:space="preserve">
<style type="text/css">
	.st0{opacity:0.7;fill:#CCF7FF;}
</style>
<g>
	<path class="st0" d="M640.9,410.7c-1.7-22.7-11.1-45.9-29.6-59.2c-18.5-13.3-42.8-14.9-65.6-15.5c-62.8-1.9-133.8,2.9-174.6,50.6
		c-21.4,25-30.7,58.2-34.9,90.9c-2.5,19.9-3.4,40.4,2.5,59.5c11.1,36.5,46.3,62.6,83.9,69.1c37.6,6.5,76.6-4.6,109.4-24.2
		c17-10.2,32.9-22.8,51.7-29.2c29.2-10.1,61.1-4.1,91.3,1.9c-6.7-1.3-32.9-60.1-35.1-68.5C633,460.7,642.9,437.6,640.9,410.7z"/>
	<g>
		<path d="M636.5,495.8c16-22.2,21.4-50.5,17-77.3c-4.7-28.3-21.1-52.2-44.9-68C582.4,333.3,550,326,519,324.3
			c-32.6-1.8-65.6,3.7-95.4,17.1c-52.6,23.7-93.8,75.8-96.4,134.6c-1.2,27.8,6.3,56.3,21.4,79.7c15.8,24.5,39.6,42.1,67.4,50.7
			c62.8,19.4,127.2-6.4,178.8-41.8c6.9-4.7,13.7-9.7,20.3-14.7c4.6-3.5,0.1-11.3-4.5-7.8c-47.5,36-103.7,67.4-165.4,61.1
			c-28-2.9-55.4-14.2-75.1-34.7c-18.2-18.8-29.5-43.9-32.9-69.8c-7.3-54.6,23-107.7,68.2-137.1c50.2-32.7,118.6-37.4,174.1-15.9
			c26,10.1,49.1,28.2,59.7,54.6c9.4,23.5,9.5,51-0.8,74.3c-2.6,5.9-5.8,11.4-9.6,16.6C625.3,496,633.2,500.5,636.5,495.8
			L636.5,495.8z"/>
	</g>
	<g>
		<path d="M594.7,563.4c26.4-1.6,53-0.2,79.1,4.3c5.7,1,8.1-7.7,2.4-8.7c-26.9-4.6-54.2-6.2-81.5-4.6
			C588.9,554.7,588.8,563.7,594.7,563.4L594.7,563.4z"/>
	</g>
	<g>
		<path d="M636.1,487.2c5.8,28.2,17.4,54.9,34.2,78.2c3.3,4.7,11.2,0.2,7.8-4.5c-16.4-22.8-27.7-48.6-33.3-76.1
			C643.6,479.2,634.9,481.6,636.1,487.2L636.1,487.2z"/>
	</g>
</g>
</svg>
