<svg xmlns="http://www.w3.org/2000/svg" width="1000" height="1000"><path d="M640.9 410.7c-1.7-22.7-11.1-45.9-29.6-59.2-18.5-13.3-42.8-14.9-65.6-15.5-62.8-1.9-133.8 2.9-174.6 50.6-21.4 25-30.7 58.2-34.9 90.9-2.5 19.9-3.4 40.4 2.5 59.5 11.1 36.5 46.3 62.6 83.9 69.1 37.6 6.5 76.6-4.6 109.4-24.2 17-10.2 32.9-22.8 51.7-29.2 29.2-10.1 61.1-4.1 91.3 1.9-6.7-1.3-32.9-60.1-35.1-68.5-6.9-25.4 3-48.5 1-75.4z" opacity=".7" fill="#ccf7ff"/><path d="M636.5 495.8c16-22.2 21.4-50.5 17-77.3-4.7-28.3-21.1-52.2-44.9-68-26.2-17.2-58.6-24.5-89.6-26.2-32.6-1.8-65.6 3.7-95.4 17.1-52.6 23.7-93.8 75.8-96.4 134.6-1.2 27.8 6.3 56.3 21.4 79.7 15.8 24.5 39.6 42.1 67.4 50.7 62.8 19.4 127.2-6.4 178.8-41.8 6.9-4.7 13.7-9.7 20.3-14.7 4.6-3.5.1-11.3-4.5-7.8-47.5 36-103.7 67.4-165.4 61.1-28-2.9-55.4-14.2-75.1-34.7-18.2-18.8-29.5-43.9-32.9-69.8-7.3-54.6 23-107.7 68.2-137.1 50.2-32.7 118.6-37.4 174.1-15.9 26 10.1 49.1 28.2 59.7 54.6 9.4 23.5 9.5 51-.8 74.3-2.6 5.9-5.8 11.4-9.6 16.6-3.5 4.8 4.4 9.3 7.7 4.6z"/><path d="M594.7 563.4c26.4-1.6 53-.2 79.1 4.3 5.7 1 8.1-7.7 2.4-8.7-26.9-4.6-54.2-6.2-81.5-4.6-5.8.3-5.9 9.3 0 9z"/><path d="M636.1 487.2c5.8 28.2 17.4 54.9 34.2 78.2 3.3 4.7 11.2.2 7.8-4.5-16.4-22.8-27.7-48.6-33.3-76.1-1.2-5.6-9.9-3.2-8.7 2.4z"/></svg>