<?xml version="1.0" encoding="utf-8"?>
<!-- Generator: Adobe Illustrator 23.0.2, SVG Export Plug-In . SVG Version: 6.00 Build 0)  -->
<svg version="1.1" id="Layer_1" xmlns="http://www.w3.org/2000/svg" xmlns:xlink="http://www.w3.org/1999/xlink" x="0px" y="0px"
	 viewBox="0 0 1000 1000" style="enable-background:new 0 0 1000 1000;" xml:space="preserve">
<style type="text/css">
	.st0{opacity:0.7;fill:#D17D24;}
	.st1{opacity:0.7;fill:#C3C7BB;}
	.st2{fill:#C3C7BB;}
</style>
<g>
	<path class="st0" d="M325.1,508.5c0.6,3.2,1.3,6.5,3.5,8.8c2.8,3,7.3,3.4,11.3,3.6c41.1,2.1,82.3,2.7,123.5,1.7
		c-2.9-36.3-9-72.4-18.1-107.6c-0.6-2.3-1.3-4.7-3-6.2c-1.6-1.4-3.7-1.9-5.8-2.2c-18.7-2.9-37.6,1.1-56.1,5.2
		c-17.4,3.9-44.1-1.6-52.8,17.4C318.4,449.6,321.4,487.5,325.1,508.5z"/>
	<path class="st0" d="M531,522.7c34,4.5,68.2,6.8,102.5,7.2c9,0.1,18.5-0.1,26-4.5c-8.8-31.6-4.6-66-3.7-98.5
		c0.1-2.4-8.2-3.4-9.9-5.2c-1.3-1.4-3.4-1.9-5.4-2.4c-22.2-5.2-77.7-26.6-91.4-3.6C544.1,424.2,532.6,522.9,531,522.7z"/>
	<path class="st0" d="M317.9,675.7c0.2,3.4-0.9,8.3,1,11.2c3.7,5.8,17.3,3.1,24.2,3.1c80.9,0.5,161.7,1,242.6,1.4
		c23.2,0.1,46.6,0.3,69.6-3.1c4.8-0.7,10-1.8,13-5.6c3.1-3.9,2.9-9.4,2.5-14.4c-2.2-29.6-4.4-59.2-6.6-88.9
		c-32.3,1.5-64.6,1.5-96.8,0.1c-4.7-0.2-9.5-0.4-13.9,1.1c-5,1.8-9,5.6-13.3,8.8c-19.7,14.6-49.2,14-68.2-1.5
		c-3.5-2.8-6.8-6.2-10.9-7.9c-4.5-1.9-9.5-1.9-14.4-1.8c-21.2,0.4-36.9-2.6-58.1-2.2c-15.1,0.3-48.3,2.6-67,3.2
		C298.4,580,316.4,655.3,317.9,675.7z"/>
	<path class="st1" d="M233.8,620c8.9-2.9,17.4-6.8,25.4-11.7c-0.1-4.6-0.2-9.2-0.4-13.8c-6.6,3.7-30.4,20.2-36.2,13
		c-5.3-6.7,22.9-31.1,26.4-35.4C217,575,191.2,633.7,233.8,620z"/>
	<path class="st1" d="M475.7,385.1c-4-1.1-8.2,1.7-10.1,5.4c-1.9,3.7-1.9,8-1.9,12.1c0.3,40.5,5.7,81.1,15.9,120.3
		c0.5,1.7,1,3.6,2.5,4.7c1.4,1,3.2,1,4.8,1c11.7-0.2,23.5-0.4,35.2-0.6c1.1,0,2.2,0,3.2-0.5c2.2-1.1,2.6-4,2.8-6.5
		c3.8-43.1,23.3-86.2,13.2-128.3c-0.8-3.2-1.8-6.6-4-9c-3.9-4.4-10.4-5.1-16.3-5.2c-23.6-0.5-47.4,3.8-69.3,12.6"/>
	<g>
		<path class="st2" d="M711.1,444.7c0.1,0.1,0.2,0.2,0.2,0.3C712.3,446.6,711.7,445.3,711.1,444.7z"/>
		<path class="st1" d="M717.8,534.5c-0.2-1.3-0.4-2.8-1.4-3.7c-0.4-0.3-0.9-0.6-1.4-0.8c-0.2-1.1-0.5-2.2-1.2-3
			c-1.1-1.3-2.9-1.9-4.6-2.3c-3.4-0.9-6.8-1.6-10.2-2.1c4.7-0.3,9.4-0.8,14.1-1.4c0.3-25.3-0.6-50.5-2.6-75.7
			c-0.1-1.2,0.3-1.1,0.7-0.8c-10.1-15.4-56.8-48.7-52.4-10.3c0.7,5.9,12,78.6,10.2,86.9c-8.9,0.4-17.8,1.2-26.6,2
			c-68,6.1-136.3,9.5-204.6,10c-34.4,0.3-68.9-0.2-103.3-1.4c-4.9-0.2-13.1-1.8-20.7-2c1.8-35.8,2.2-71.6-1.7-107.2
			c-18.6,7.1-36.2,8.7-39.2,32.6c-3.5,27.2-4.5,56.5-4,83.7c1.2,61.1-4.9,123.2,10.2,181.8c0.7,0,1.4-0.1,2.1-0.1
			c11.3,5.5,60.5,1.9,70.7,2.3c33.7,1.3,74.2-3.3,107.6,0.6c71,6,145.5-1.5,217.4-4.7c0,0.3-0.1,0.5-0.1,0.8
			c14.6-0.2,31.6,8.7,42.3-0.3c5.8-4.9,6.4-12.9,6.5-20.1C727,644.3,724.3,589.2,717.8,534.5z M685.5,579.1c0,1,0,2.1,0,3.1
			L685.5,579.1L685.5,579.1z M444.1,697.5c-34.8-1.6-70-4.7-104.8-4.8c-5,0-19,2.5-32.2,6.7c-1.8-43.8,1.5-87.8,4.4-131.8
			c50.1-0.9,100.2,0.4,150.2,3.9c14.9,23.9,49.7,32.7,74.1,18.7c9.8-5.6,15.6-10.8,26.4-14.2c9.6-3,22.4-4.9,32.3-3.4
			c29.2,4.2,58.7,6.3,88.2,6.4c0.4,18.9,0.7,37.8,1.1,56.6c-1,18.9-2.3,37.7-4.1,56.6C602.7,704.6,522.9,701.1,444.1,697.5z"/>
	</g>
	<path class="st1" d="M733.8,550.2c-1.3,3.7-2.6,7.5-3.9,11.2c5.9-0.4,11.1,3.6,15.7,7.3c6.1,5,12.3,10,18.4,15
		c1.4-3.6-0.8-7.5-3-10.7c-6.1-9-12.7-18.4-22.5-23c-4.8-2.3-10.7-3.6-13.3-8.3"/>
	<g>
		<path d="M259.9,444.5c-0.5,28.8-0.1,57.6,1,86.4c0.1,3.6,5.8,3.8,5.6,0.2c-1.2-28.8-1.5-57.6-1-86.4
			C265.5,441.1,259.9,440.9,259.9,444.5L259.9,444.5z"/>
	</g>
	<g>
		<path d="M282.6,531c49.7,0.9,99.3,1.2,149,0.9c49.4-0.3,98.8-1.4,148.2-2.5c27.8-0.7,55.7-1.3,83.5-2c3.6-0.1,3.8-5.7,0.2-5.6
			c-49.6,1.2-99.2,2.4-148.8,3.4c-49.4,1-98.7,1.4-148.1,1.2c-27.9-0.1-55.9-0.4-83.8-1C279.1,525.4,278.9,531,282.6,531L282.6,531z
			"/>
	</g>
	<g>
		<path d="M654.3,420.8c2.1,34.6,4.3,69.1,6.9,103.6c0.3,3.6,5.9,3.8,5.6,0.2c-2.5-34.5-4.8-69.1-6.9-103.6
			C659.8,417.4,654.1,417.2,654.3,420.8L654.3,420.8z"/>
	</g>
	<g>
		<path d="M262.7,444.4c-0.5-0.5-0.8-1-0.8-1.7c-0.5,0.8-1,1.6-1.5,2.4c19.4-8.9,39.5-16,60.2-21.4c-1.2-0.9-2.3-1.9-3.5-2.8
			c-0.5,5.7-1.3,11.4-2.4,17c-0.7,3.5,4.7,5.2,5.4,1.7c1.2-6.1,2.1-12.3,2.7-18.5c0.2-1.8-1.8-3.2-3.5-2.8
			c-21.1,5.5-41.7,12.8-61.5,21.9c-0.8,0.4-1.5,1.5-1.5,2.4c0.1,2.2,0.8,4.1,2.4,5.7C261.1,450.8,265.2,447,262.7,444.4L262.7,444.4
			z"/>
	</g>
	<g>
		<path d="M326.6,421.2c32-10.9,65.7-16.9,99.4-19.4c8.8-0.7,17.6-1.1,26.5-1.2c3.6,0,3.8-5.7,0.2-5.6c-33.3,0.5-66.8,4.5-99.1,12.5
			c-9.5,2.4-19,5.1-28.3,8.2C321.9,416.9,323.2,422.4,326.6,421.2L326.6,421.2z"/>
	</g>
	<g>
		<path d="M477.9,514c-3.5-22.7-6.9-45.3-10.4-68c-1.7-11.2-3.4-22.5-5.1-33.8c-0.9-5.6-1.8-11.2-2.5-16.8c-0.3-2-0.5-4.3,0.3-6.2
			c0.9-2,3-3,5-3.5c4.7-1.4,9.8-2.1,14.7-2.8c5.5-0.8,11.1-1.3,16.6-1.5c10.9-0.5,21.8-0.1,32.7,1.3c2.5,0.3,5,0.5,7.4,1.2
			c2.4,0.6,2.6,2.5,2.8,4.7c0.5,5.6,0.6,11.3,0.5,16.9c-0.2,11.2-1.2,22.3-2.7,33.4c-3.3,25.2-7.5,50.4-11.4,75.5
			c-0.5,3.6,5.1,3.7,5.6,0.2c3.7-24.1,7.7-48.2,10.9-72.3c1.6-11.8,2.8-23.7,3.1-35.6c0.1-6,0-11.9-0.5-17.8
			c-0.4-4.7-1.7-8.9-6.7-10.2c-5.2-1.4-11.1-1.7-16.5-2.2c-5.8-0.5-11.6-0.7-17.5-0.7c-11.6,0.1-23.2,1.2-34.6,3.3
			c-4.4,0.8-9.5,1.7-12.7,5.1c-3.5,3.7-3.2,8.8-2.5,13.5c1.8,12.2,3.7,24.3,5.5,36.4c4.1,27.1,8.3,54.3,12.4,81.4
			C473,518.9,478.4,517.6,477.9,514L477.9,514z"/>
	</g>
	<g>
		<path d="M542,397.6c41.2-1.3,82.5,4.9,121.5,18.1c9.8,3.3,19.5,7.1,28.9,11.3c4.8,2.1,9.5,4.3,14.2,6.7c4.3,2.2,7.4,4.9,8.8,9.6
			c1.4,4.8,1.7,9.9,2.3,14.8c0.6,5.5,1.1,11.1,1.5,16.6c0.7,11,0.9,22,0.6,33.1c-0.1,3.2-0.2,6.4-0.4,9.6c-0.1,1.3,0,2.8-0.3,4.1
			c-0.3,1.3-0.5,1.5-1.8,1.7c-5.9,1-12.2,1.1-18.2,1.2c-12.3,0.2-24.7-1-36.8-3.3c-3.5-0.7-5.2,4.7-1.7,5.4
			c11.4,2.2,23,3.5,34.7,3.6c5.8,0,11.7-0.2,17.5-0.7c4.6-0.4,10.2-0.4,11.5-5.8c0.6-2.3,0.5-4.9,0.6-7.3c0.2-3.1,0.3-6.1,0.3-9.2
			c0.2-6.1,0.2-12.2,0-18.4c-0.3-11.7-1.2-23.5-2.6-35.1c-0.6-5.1-1-10.4-3.2-15.1c-2-4.5-5.7-7.4-10-9.6c-9.7-5-19.8-9.4-30-13.4
			c-20.5-8-41.8-14-63.4-18c-24.4-4.5-49.2-6.4-74-5.6C538.6,392.1,538.4,397.7,542,397.6L542,397.6z"/>
	</g>
	<g>
		<path d="M316.1,457.6c-2,22.8-1.9,45.7,0.3,68.4c0.3,3.5,6,3.8,5.6,0.2c-2.2-22.8-2.3-45.6-0.3-68.4
			C322,454.2,316.4,454,316.1,457.6L316.1,457.6z"/>
	</g>
	<g>
		<path d="M335.5,472.9c35.1-0.7,70.4-2,105.5-1.2c3.6,0.1,3.8-5.5,0.2-5.6c-35.1-0.8-70.4,0.5-105.5,1.2
			C332.1,467.3,331.9,472.9,335.5,472.9L335.5,472.9z"/>
	</g>
	<g>
		<path d="M557.7,474.4c15.7-3.9,31.5-4.8,47.6-3.3c16.4,1.5,32.8,3.2,49.2,4.9c3.6,0.4,3.8-5.3,0.2-5.6c-16.7-1.7-33.3-3.5-50-5
			c-16.2-1.5-32.4-0.4-48.2,3.6C552.8,469.8,554.1,475.2,557.7,474.4L557.7,474.4z"/>
	</g>
	<g>
		<path d="M274.2,530.3c-4.3,0.9-8.5,1.7-12.8,2.6c-1.2,0.2-2.1,1.5-2.1,2.6c-0.2,49.7,1.8,99.4,5.9,148.9c1.2,14.1,2.5,28.2,4,42.2
			c0.4,3.6,5.8,2.2,5.5-1.3c-5.3-49.2-8.5-98.5-9.5-148c-0.3-13.9-0.4-27.8-0.3-41.7c-0.7,0.9-1.4,1.8-2.1,2.6
			c4.3-0.9,8.5-1.7,12.8-2.6C279,535,277.7,529.6,274.2,530.3L274.2,530.3z"/>
	</g>
	<g>
		<path d="M272.3,730.9c60-0.8,120.1-1.4,180.1-1.7s120.1-0.6,180.1-0.7c33.7-0.1,67.5-0.1,101.2-0.2c3.6,0,3.6-4.2,0-4.2
			c-60,0.1-120.1,0.2-180.1,0.4c-60,0.2-120.1,0.5-180.1,1.1c-33.7,0.3-67.5,0.7-101.2,1.2C268.7,726.8,268.7,730.9,272.3,730.9
			L272.3,730.9z"/>
	</g>
	<g>
		<path d="M722.2,537.3c5.4,47.3,7.3,95,5.9,142.5c-0.4,13.5-1.1,26.9-2,40.3c-0.2,3.4,4.9,3.5,5.2,0.2c3.4-48,3.3-96.2-0.2-144.2
			c-1-13.4-2.2-26.7-3.8-40C726.9,532.8,721.9,534,722.2,537.3L722.2,537.3z"/>
	</g>
	<g>
		<path d="M730.6,567.8c15.4,2.7,27.3,13.7,37.5,24.9c4,4.5,11.4,13.2,5.4,19c-5.8,5.6-15.3,1.6-20.9-2.3
			c-6.5-4.5-11.2-11.2-13.3-18.7c-1-3.5-6.4-2.2-5.5,1.3c2.3,8.2,7.2,15.4,13.8,20.7c6.8,5.4,16.9,9.5,25.4,5.9
			c3.8-1.7,6.9-5,7.9-9.1c1-4.5-0.5-9-2.7-12.8c-2.4-3.9-5.5-7.3-8.7-10.7c-3.2-3.4-6.6-6.8-10.3-9.8c-7.9-6.6-16.8-12-27.1-13.8
			c-1.5-0.3-3,0.3-3.5,1.8C728.3,565.6,729.1,567.5,730.6,567.8L730.6,567.8z"/>
	</g>
	<g>
		<path d="M729.3,548.2c13,2.6,22.5,14.1,30.9,23.5c4.5,5,8.7,10.3,11.4,16.5c3.1,7,3.7,14.8,4.2,22.3c0.2,3.6,5.8,3.8,5.6,0.2
			c-0.5-8.2-1.2-16.4-4.4-24.1c-2.8-6.8-7.4-12.7-12.2-18.1c-9.1-10.3-19.7-22.8-33.8-25.6C727.5,542.2,725.8,547.5,729.3,548.2
			L729.3,548.2z"/>
	</g>
	<g>
		<path d="M255.8,556.2c-18.9,10.1-39.1,21.5-48.7,41.7c-2.2,4.7-3.7,9.5-4.4,14.6c-0.6,4.7-1,10.7,2.7,14.3
			c3.3,3.2,8.2,3.6,12.5,3.1c5.1-0.6,10.1-2,14.9-3.7c11.2-4,21.4-10.3,30-18.5c2.6-2.5-1.2-6.6-3.8-4.1
			c-6.6,6.4-14.3,11.6-22.8,15.3c-4.2,1.9-8.6,3.3-13.1,4.4c-3.7,0.9-8.3,2.1-11.9,0.7c-4.2-1.7-3.2-7.6-2.7-11.2
			c0.6-4.4,2-8.8,4-12.8c4.1-8.4,10.4-15.4,17.7-21.2c8.7-7,18.6-12.3,28.4-17.5C261.7,559.4,259,554.4,255.8,556.2L255.8,556.2z"/>
	</g>
	<g>
		<path d="M257.2,568.2c-8.1,5-15.6,11.1-22,18.2c-5.7,6.4-14.2,15.5-11.3,24.9c1.1,3.4,6.5,2.1,5.5-1.3c-1.3-4.3,1.1-8.3,3.6-11.7
			c2.4-3.3,5-6.5,7.8-9.5c5.7-6,12.1-11.3,19.2-15.6C263,571.3,260.3,566.3,257.2,568.2L257.2,568.2z"/>
	</g>
	<g>
		<path d="M247.5,605c3-2,5.9-4.1,8.9-6.1c1.2-0.9,1.9-2.4,1.1-3.8c-0.7-1.2-2.6-2-3.8-1.1c-3,2-5.9,4.1-8.9,6.1
			c-1.2,0.9-1.9,2.4-1.1,3.8C244.3,605.1,246.2,605.9,247.5,605L247.5,605z"/>
	</g>
	<g>
		<path d="M304.9,574c1.1,37.4,2.2,74.7,3.3,112.1c0.1,3.6,5.7,3.8,5.6,0.2c-1.1-37.4-2.2-74.7-3.3-112.1
			C310.4,570.6,304.8,570.4,304.9,574L304.9,574z"/>
	</g>
	<g>
		<path d="M310.3,579.7c36.3-5.1,73.5-6.9,110.1-5.8c9.6,0.3,19.1,0.9,28.6,1.9c3.6,0.4,3.8-5.2,0.2-5.6
			c-17.8-1.9-35.8-2.3-53.7-2.2c-19.2,0.2-38.5,1.2-57.7,2.9c-9.7,0.9-19.3,1.9-29,3.3C305.4,574.7,306.7,580.2,310.3,579.7
			L310.3,579.7z"/>
	</g>
	<g>
		<path d="M455,528c-8.3,13-9.6,29.5-3.3,43.5c2.9,6.4,7.2,12,12.6,16.5c6.3,5.2,13.8,8.3,21.6,10.6c8.2,2.4,16.8,3.9,25.4,2.9
			c8.1-0.9,16-3.6,23.3-7c12.9-6,24.8-15.9,29.2-29.8c4.7-15-0.5-34.3-17-39.2c-3.5-1-5.1,4.3-1.7,5.4c12.7,3.8,16.8,18.5,13.8,30.2
			c-3.1,12.5-13.1,21.4-24.1,27.1c-6.1,3.2-12.7,5.6-19.4,7c-7.7,1.6-15.5,1.1-23.2-0.7c-13.4-3.2-26-9-33.3-21.2
			c-7.8-13.1-7.3-29.5,0.8-42.3C461.7,527.9,456.9,524.9,455,528L455,528z"/>
	</g>
	<g>
		<path d="M509.1,563c5.3-4.6,3.2-13.9-2.3-18.3c-3-2.5-7.8-3.8-10.8-1.2c-2.6,2.2-2.6,6-2.5,9.4c0.1,1.6,0.2,3.3,1.1,4.6
			c1.9,2.4,6.1,2.2,7.6,4.9c0.9,1.8,0.1,4-1.2,5.4c-1.4,1.4-3.3,2.2-5,3.2c-4,2.2-7.4,5.4-10,9.2c12.3-2.6,24.9-3.5,37.4-2.9
			c-4.9-3.9-10.4-7.1-16.2-9.4"/>
		<g>
			<path d="M511,565.1c9-8.4,1.2-25.1-10.5-25.7c-7.4-0.4-10,6.6-9.8,12.8c0.1,3.1,0.4,6.2,3,8.2c1,0.8,2.2,1.3,3.4,1.8
				c0.8,0.3,2.4,0.7,2.8,1.5c1.1,2.6-6.1,5.4-7.7,6.5c-3.3,2.3-6.1,5.2-8.4,8.5c-1.5,2.1,0.8,4.7,3,4.2c12.1-2.5,24.4-3.4,36.7-2.8
				c3,0.2,3.6-3.6,1.6-5.2c-5.1-4.1-10.8-7.3-16.9-9.7c-3.4-1.3-5,4-1.7,5.4c5.6,2.2,10.8,5.3,15.6,9.1c0.5-1.7,1-3.5,1.6-5.2
				c-12.8-0.6-25.6,0.4-38.2,3c1,1.4,2,2.8,3,4.2c2.1-3,4.8-5.7,8-7.6c3-1.8,6.4-3.1,8.2-6.4c1.5-2.8,1.2-6.2-1.2-8.4
				c-1-1-2.3-1.5-3.6-2c-1-0.4-2.3-0.7-3-1.7c-0.7-1.1-0.5-3.4-0.5-4.6c0-1.5,0.1-3.2,0.9-4.5c1.7-2.8,5.6-1.3,7.6,0.2
				c4.1,3,6.6,10.3,2.4,14.2C504.6,563.5,508.4,567.5,511,565.1L511,565.1z"/>
		</g>
	</g>
	<g>
		<path d="M565.5,579.4c29.4-1.3,58.8-2,88.2-1.5c7.8,0.1,15.5,0.3,23.3,0.7c3.6,0.2,3.8-5.4,0.2-5.6c-29.3-1.5-58.8-0.9-88.2,0
			c-7.8,0.2-15.5,0.5-23.3,0.9C562.1,574,561.8,579.6,565.5,579.4L565.5,579.4z"/>
	</g>
	<g>
		<path d="M673.5,576c0.2,39.3,1,78.5,2.4,117.8c0.1,3.6,5.8,3.8,5.6,0.2c-1.5-39.2-2.3-78.5-2.4-117.8
			C679.1,572.6,673.5,572.4,673.5,576L673.5,576z"/>
	</g>
	<g>
		<path d="M312.6,695c23.4-2.2,47.2,0.3,70.6,1.3c23.9,1,47.7,1.7,71.6,2.1c47.6,0.8,95.2,0.5,142.8-0.9c26.8-0.8,53.6-2,80.4-3.5
			c3.6-0.2,3.8-5.8,0.2-5.6c-47.7,2.7-95.4,4.3-143.2,4.8c-47.6,0.5-95.2-0.2-142.8-2.1c-13.3-0.5-26.6-1.1-39.8-1.8
			c-13.2-0.6-26.4-1.1-39.6,0.2C309.2,689.7,309,695.3,312.6,695L312.6,695z"/>
	</g>
	<g>
		<path d="M692.7,723.8c8.5-0.4,17.2-0.7,25.7-1.3c3.5-0.3,7.1-0.9,9.7-3.4c2.4-2.3,3.6-5.7,2.6-8.9c-1.2-3.4-6.6-2.1-5.5,1.3
			c2,6-9.5,5.6-12.7,5.7c-6.5,0.3-13.1,0.7-19.6,1C689.3,718.3,689.1,724,692.7,723.8L692.7,723.8z"/>
	</g>
	<g>
		<path d="M269.8,713.3c7.2-1.6,15,2.9,17.1,10c1,3.5,6.5,2.2,5.5-1.3c-2.9-10.1-13.6-16.5-23.9-14.1
			C265,708.7,266.3,714.2,269.8,713.3L269.8,713.3z"/>
	</g>
	<g>
		<path d="M694.9,720.4c3.1-5.1,6.9-9.6,11.4-13.4c3.6-3,10.3-8.6,15.2-5.6c3.1,1.9,6-2.8,3-4.8c-6.7-4.2-14.1,0.2-19.6,4.3
			c-5.9,4.5-10.9,10.1-14.7,16.4C688.2,720.5,693,723.5,694.9,720.4L694.9,720.4z"/>
	</g>
	<g>
		<path d="M356.4,631.1c39.4-1.6,78.9-1.7,118.3-0.2c11.2,0.4,22.3,1,33.5,1.7c3.6,0.2,3.8-5.4,0.2-5.6
			c-39.4-2.4-78.8-3.3-118.3-2.6c-11.2,0.2-22.4,0.5-33.5,1C353,625.7,352.8,631.3,356.4,631.1L356.4,631.1z"/>
	</g>
	<g>
		<path d="M429.5,661.5c50.5,3,101,4.7,151.6,5.1c14.3,0.1,28.5,0.1,42.8,0c3.6,0,3.8-5.6,0.2-5.6c-50.6,0.3-101.1-0.6-151.6-2.9
			c-14.3-0.6-28.5-1.4-42.8-2.2C426,655.6,425.9,661.2,429.5,661.5L429.5,661.5z"/>
	</g>
</g>
</svg>
