<svg xmlns="http://www.w3.org/2000/svg" width="1000" height="1000"><style>.st1{opacity:.7;fill:#c3c7bb}</style><path d="M325.1 508.5c.6 3.2 1.3 6.5 3.5 8.8 2.8 3 7.3 3.4 11.3 3.6 41.1 2.1 82.3 2.7 123.5 1.7-2.9-36.3-9-72.4-18.1-107.6-.6-2.3-1.3-4.7-3-6.2-1.6-1.4-3.7-1.9-5.8-2.2-18.7-2.9-37.6 1.1-56.1 5.2-17.4 3.9-44.1-1.6-52.8 17.4-9.2 20.4-6.2 58.3-2.5 79.3zM531 522.7c34 4.5 68.2 6.8 102.5 7.2 9 .1 18.5-.1 26-4.5-8.8-31.6-4.6-66-3.7-98.5.1-2.4-8.2-3.4-9.9-5.2-1.3-1.4-3.4-1.9-5.4-2.4-22.2-5.2-77.7-26.6-91.4-3.6-5 8.5-16.5 107.2-18.1 107zm-213.1 153c.2 3.4-.9 8.3 1 11.2 3.7 5.8 17.3 3.1 24.2 3.1 80.9.5 161.7 1 242.6 1.4 23.2.1 46.6.3 69.6-3.1 4.8-.7 10-1.8 13-5.6 3.1-3.9 2.9-9.4 2.5-14.4-2.2-29.6-4.4-59.2-6.6-88.9-32.3 1.5-64.6 1.5-96.8.1-4.7-.2-9.5-.4-13.9 1.1-5 1.8-9 5.6-13.3 8.8-19.7 14.6-49.2 14-68.2-1.5-3.5-2.8-6.8-6.2-10.9-7.9-4.5-1.9-9.5-1.9-14.4-1.8-21.2.4-36.9-2.6-58.1-2.2-15.1.3-48.3 2.6-67 3.2-23.2.8-5.2 76.1-3.7 96.5z" opacity=".7" fill="#d17d24"/><path class="st1" d="M233.8 620c8.9-2.9 17.4-6.8 25.4-11.7-.1-4.6-.2-9.2-.4-13.8-6.6 3.7-30.4 20.2-36.2 13-5.3-6.7 22.9-31.1 26.4-35.4-32 2.9-57.8 61.6-15.2 47.9zm241.9-234.9c-4-1.1-8.2 1.7-10.1 5.4-1.9 3.7-1.9 8-1.9 12.1.3 40.5 5.7 81.1 15.9 120.3.5 1.7 1 3.6 2.5 4.7 1.4 1 3.2 1 4.8 1l35.2-.6c1.1 0 2.2 0 3.2-.5 2.2-1.1 2.6-4 2.8-6.5 3.8-43.1 23.3-86.2 13.2-128.3-.8-3.2-1.8-6.6-4-9-3.9-4.4-10.4-5.1-16.3-5.2-23.6-.5-47.4 3.8-69.3 12.6"/><path d="M711.1 444.7c.1.1.2.2.2.3 1 1.6.4.3-.2-.3z" fill="#c3c7bb"/><path class="st1" d="M717.8 534.5c-.2-1.3-.4-2.8-1.4-3.7-.4-.3-.9-.6-1.4-.8-.2-1.1-.5-2.2-1.2-3-1.1-1.3-2.9-1.9-4.6-2.3-3.4-.9-6.8-1.6-10.2-2.1 4.7-.3 9.4-.8 14.1-1.4.3-25.3-.6-50.5-2.6-75.7-.1-1.2.3-1.1.7-.8-10.1-15.4-56.8-48.7-52.4-10.3.7 5.9 12 78.6 10.2 86.9-8.9.4-17.8 1.2-26.6 2-68 6.1-136.3 9.5-204.6 10-34.4.3-68.9-.2-103.3-1.4-4.9-.2-13.1-1.8-20.7-2 1.8-35.8 2.2-71.6-1.7-107.2-18.6 7.1-36.2 8.7-39.2 32.6-3.5 27.2-4.5 56.5-4 83.7 1.2 61.1-4.9 123.2 10.2 181.8.7 0 1.4-.1 2.1-.1 11.3 5.5 60.5 1.9 70.7 2.3 33.7 1.3 74.2-3.3 107.6.6 71 6 145.5-1.5 217.4-4.7 0 .3-.1.5-.1.8 14.6-.2 31.6 8.7 42.3-.3 5.8-4.9 6.4-12.9 6.5-20.1 1.4-55-1.3-110.1-7.8-164.8zm-32.3 44.6v3.1-3.1zM444.1 697.5c-34.8-1.6-70-4.7-104.8-4.8-5 0-19 2.5-32.2 6.7-1.8-43.8 1.5-87.8 4.4-131.8 50.1-.9 100.2.4 150.2 3.9 14.9 23.9 49.7 32.7 74.1 18.7 9.8-5.6 15.6-10.8 26.4-14.2 9.6-3 22.4-4.9 32.3-3.4 29.2 4.2 58.7 6.3 88.2 6.4.4 18.9.7 37.8 1.1 56.6-1 18.9-2.3 37.7-4.1 56.6-77 12.4-156.8 8.9-235.6 5.3zm289.7-147.3c-1.3 3.7-2.6 7.5-3.9 11.2 5.9-.4 11.1 3.6 15.7 7.3 6.1 5 12.3 10 18.4 15 1.4-3.6-.8-7.5-3-10.7-6.1-9-12.7-18.4-22.5-23-4.8-2.3-10.7-3.6-13.3-8.3"/><path d="M259.9 444.5c-.5 28.8-.1 57.6 1 86.4.1 3.6 5.8 3.8 5.6.2-1.2-28.8-1.5-57.6-1-86.4 0-3.6-5.6-3.8-5.6-.2zm22.7 86.5c49.7.9 99.3 1.2 149 .9 49.4-.3 98.8-1.4 148.2-2.5 27.8-.7 55.7-1.3 83.5-2 3.6-.1 3.8-5.7.2-5.6-49.6 1.2-99.2 2.4-148.8 3.4-49.4 1-98.7 1.4-148.1 1.2-27.9-.1-55.9-.4-83.8-1-3.7 0-3.9 5.6-.2 5.6z"/><path d="M654.3 420.8c2.1 34.6 4.3 69.1 6.9 103.6.3 3.6 5.9 3.8 5.6.2-2.5-34.5-4.8-69.1-6.9-103.6-.1-3.6-5.8-3.8-5.6-.2zm-391.6 23.6c-.5-.5-.8-1-.8-1.7l-1.5 2.4c19.4-8.9 39.5-16 60.2-21.4-1.2-.9-2.3-1.9-3.5-2.8-.5 5.7-1.3 11.4-2.4 17-.7 3.5 4.7 5.2 5.4 1.7 1.2-6.1 2.1-12.3 2.7-18.5.2-1.8-1.8-3.2-3.5-2.8-21.1 5.5-41.7 12.8-61.5 21.9-.8.4-1.5 1.5-1.5 2.4.1 2.2.8 4.1 2.4 5.7 2.4 2.5 6.5-1.3 4-3.9z"/><path d="M326.6 421.2c32-10.9 65.7-16.9 99.4-19.4 8.8-.7 17.6-1.1 26.5-1.2 3.6 0 3.8-5.7.2-5.6-33.3.5-66.8 4.5-99.1 12.5-9.5 2.4-19 5.1-28.3 8.2-3.4 1.2-2.1 6.7 1.3 5.5z"/><path d="M477.9 514c-3.5-22.7-6.9-45.3-10.4-68-1.7-11.2-3.4-22.5-5.1-33.8-.9-5.6-1.8-11.2-2.5-16.8-.3-2-.5-4.3.3-6.2.9-2 3-3 5-3.5 4.7-1.4 9.8-2.1 14.7-2.8 5.5-.8 11.1-1.3 16.6-1.5 10.9-.5 21.8-.1 32.7 1.3 2.5.3 5 .5 7.4 1.2 2.4.6 2.6 2.5 2.8 4.7.5 5.6.6 11.3.5 16.9-.2 11.2-1.2 22.3-2.7 33.4-3.3 25.2-7.5 50.4-11.4 75.5-.5 3.6 5.1 3.7 5.6.2 3.7-24.1 7.7-48.2 10.9-72.3 1.6-11.8 2.8-23.7 3.1-35.6.1-6 0-11.9-.5-17.8-.4-4.7-1.7-8.9-6.7-10.2-5.2-1.4-11.1-1.7-16.5-2.2-5.8-.5-11.6-.7-17.5-.7-11.6.1-23.2 1.2-34.6 3.3-4.4.8-9.5 1.7-12.7 5.1-3.5 3.7-3.2 8.8-2.5 13.5 1.8 12.2 3.7 24.3 5.5 36.4 4.1 27.1 8.3 54.3 12.4 81.4.7 3.4 6.1 2.1 5.6-1.5z"/><path d="M542 397.6c41.2-1.3 82.5 4.9 121.5 18.1 9.8 3.3 19.5 7.1 28.9 11.3 4.8 2.1 9.5 4.3 14.2 6.7 4.3 2.2 7.4 4.9 8.8 9.6 1.4 4.8 1.7 9.9 2.3 14.8.6 5.5 1.1 11.1 1.5 16.6.7 11 .9 22 .6 33.1-.1 3.2-.2 6.4-.4 9.6-.1 1.3 0 2.8-.3 4.1-.3 1.3-.5 1.5-1.8 1.7-5.9 1-12.2 1.1-18.2 1.2-12.3.2-24.7-1-36.8-3.3-3.5-.7-5.2 4.7-1.7 5.4 11.4 2.2 23 3.5 34.7 3.6 5.8 0 11.7-.2 17.5-.7 4.6-.4 10.2-.4 11.5-5.8.6-2.3.5-4.9.6-7.3.2-3.1.3-6.1.3-9.2.2-6.1.2-12.2 0-18.4-.3-11.7-1.2-23.5-2.6-35.1-.6-5.1-1-10.4-3.2-15.1-2-4.5-5.7-7.4-10-9.6-9.7-5-19.8-9.4-30-13.4-20.5-8-41.8-14-63.4-18-24.4-4.5-49.2-6.4-74-5.6-3.4.2-3.6 5.8 0 5.7zm-225.9 60c-2 22.8-1.9 45.7.3 68.4.3 3.5 6 3.8 5.6.2-2.2-22.8-2.3-45.6-.3-68.4.3-3.6-5.3-3.8-5.6-.2zm19.4 15.3c35.1-.7 70.4-2 105.5-1.2 3.6.1 3.8-5.5.2-5.6-35.1-.8-70.4.5-105.5 1.2-3.6 0-3.8 5.6-.2 5.6z"/><path d="M557.7 474.4c15.7-3.9 31.5-4.8 47.6-3.3 16.4 1.5 32.8 3.2 49.2 4.9 3.6.4 3.8-5.3.2-5.6-16.7-1.7-33.3-3.5-50-5-16.2-1.5-32.4-.4-48.2 3.6-3.7.8-2.4 6.2 1.2 5.4zm-283.5 55.9c-4.3.9-8.5 1.7-12.8 2.6-1.2.2-2.1 1.5-2.1 2.6-.2 49.7 1.8 99.4 5.9 148.9 1.2 14.1 2.5 28.2 4 42.2.4 3.6 5.8 2.2 5.5-1.3-5.3-49.2-8.5-98.5-9.5-148-.3-13.9-.4-27.8-.3-41.7-.7.9-1.4 1.8-2.1 2.6 4.3-.9 8.5-1.7 12.8-2.6 3.4-.6 2.1-6-1.4-5.3z"/><path d="M272.3 730.9c60-.8 120.1-1.4 180.1-1.7s120.1-.6 180.1-.7c33.7-.1 67.5-.1 101.2-.2 3.6 0 3.6-4.2 0-4.2-60 .1-120.1.2-180.1.4s-120.1.5-180.1 1.1c-33.7.3-67.5.7-101.2 1.2-3.6 0-3.6 4.1 0 4.1zm449.9-193.6c5.4 47.3 7.3 95 5.9 142.5-.4 13.5-1.1 26.9-2 40.3-.2 3.4 4.9 3.5 5.2.2 3.4-48 3.3-96.2-.2-144.2-1-13.4-2.2-26.7-3.8-40-.4-3.3-5.4-2.1-5.1 1.2z"/><path d="M730.6 567.8c15.4 2.7 27.3 13.7 37.5 24.9 4 4.5 11.4 13.2 5.4 19-5.8 5.6-15.3 1.6-20.9-2.3-6.5-4.5-11.2-11.2-13.3-18.7-1-3.5-6.4-2.2-5.5 1.3 2.3 8.2 7.2 15.4 13.8 20.7 6.8 5.4 16.9 9.5 25.4 5.9 3.8-1.7 6.9-5 7.9-9.1 1-4.5-.5-9-2.7-12.8-2.4-3.9-5.5-7.3-8.7-10.7-3.2-3.4-6.6-6.8-10.3-9.8-7.9-6.6-16.8-12-27.1-13.8-1.5-.3-3 .3-3.5 1.8-.3 1.4.5 3.3 2 3.6z"/><path d="M729.3 548.2c13 2.6 22.5 14.1 30.9 23.5 4.5 5 8.7 10.3 11.4 16.5 3.1 7 3.7 14.8 4.2 22.3.2 3.6 5.8 3.8 5.6.2-.5-8.2-1.2-16.4-4.4-24.1-2.8-6.8-7.4-12.7-12.2-18.1-9.1-10.3-19.7-22.8-33.8-25.6-3.5-.7-5.2 4.6-1.7 5.3zm-473.5 8c-18.9 10.1-39.1 21.5-48.7 41.7-2.2 4.7-3.7 9.5-4.4 14.6-.6 4.7-1 10.7 2.7 14.3 3.3 3.2 8.2 3.6 12.5 3.1 5.1-.6 10.1-2 14.9-3.7 11.2-4 21.4-10.3 30-18.5 2.6-2.5-1.2-6.6-3.8-4.1-6.6 6.4-14.3 11.6-22.8 15.3-4.2 1.9-8.6 3.3-13.1 4.4-3.7.9-8.3 2.1-11.9.7-4.2-1.7-3.2-7.6-2.7-11.2.6-4.4 2-8.8 4-12.8 4.1-8.4 10.4-15.4 17.7-21.2 8.7-7 18.6-12.3 28.4-17.5 3.1-1.9.4-6.9-2.8-5.1z"/><path d="M257.2 568.2c-8.1 5-15.6 11.1-22 18.2-5.7 6.4-14.2 15.5-11.3 24.9 1.1 3.4 6.5 2.1 5.5-1.3-1.3-4.3 1.1-8.3 3.6-11.7 2.4-3.3 5-6.5 7.8-9.5 5.7-6 12.1-11.3 19.2-15.6 3-1.9.3-6.9-2.8-5zm-9.7 36.8c3-2 5.9-4.1 8.9-6.1 1.2-.9 1.9-2.4 1.1-3.8-.7-1.2-2.6-2-3.8-1.1-3 2-5.9 4.1-8.9 6.1-1.2.9-1.9 2.4-1.1 3.8.6 1.2 2.5 2 3.8 1.1zm57.4-31l3.3 112.1c.1 3.6 5.7 3.8 5.6.2l-3.3-112.1c-.1-3.6-5.7-3.8-5.6-.2z"/><path d="M310.3 579.7c36.3-5.1 73.5-6.9 110.1-5.8 9.6.3 19.1.9 28.6 1.9 3.6.4 3.8-5.2.2-5.6-17.8-1.9-35.8-2.3-53.7-2.2-19.2.2-38.5 1.2-57.7 2.9-9.7.9-19.3 1.9-29 3.3-3.4.5-2.1 6 1.5 5.5z"/><path d="M455 528c-8.3 13-9.6 29.5-3.3 43.5 2.9 6.4 7.2 12 12.6 16.5 6.3 5.2 13.8 8.3 21.6 10.6 8.2 2.4 16.8 3.9 25.4 2.9 8.1-.9 16-3.6 23.3-7 12.9-6 24.8-15.9 29.2-29.8 4.7-15-.5-34.3-17-39.2-3.5-1-5.1 4.3-1.7 5.4 12.7 3.8 16.8 18.5 13.8 30.2-3.1 12.5-13.1 21.4-24.1 27.1-6.1 3.2-12.7 5.6-19.4 7-7.7 1.6-15.5 1.1-23.2-.7-13.4-3.2-26-9-33.3-21.2-7.8-13.1-7.3-29.5.8-42.3 2-3.1-2.8-6.1-4.7-3z"/><path d="M509.1 563c5.3-4.6 3.2-13.9-2.3-18.3-3-2.5-7.8-3.8-10.8-1.2-2.6 2.2-2.6 6-2.5 9.4.1 1.6.2 3.3 1.1 4.6 1.9 2.4 6.1 2.2 7.6 4.9.9 1.8.1 4-1.2 5.4-1.4 1.4-3.3 2.2-5 3.2-4 2.2-7.4 5.4-10 9.2 12.3-2.6 24.9-3.5 37.4-2.9-4.9-3.9-10.4-7.1-16.2-9.4"/><path d="M511 565.1c9-8.4 1.2-25.1-10.5-25.7-7.4-.4-10 6.6-9.8 12.8.1 3.1.4 6.2 3 8.2 1 .8 2.2 1.3 3.4 1.8.8.3 2.4.7 2.8 1.5 1.1 2.6-6.1 5.4-7.7 6.5-3.3 2.3-6.1 5.2-8.4 8.5-1.5 2.1.8 4.7 3 4.2 12.1-2.5 24.4-3.4 36.7-2.8 3 .2 3.6-3.6 1.6-5.2-5.1-4.1-10.8-7.3-16.9-9.7-3.4-1.3-5 4-1.7 5.4 5.6 2.2 10.8 5.3 15.6 9.1.5-1.7 1-3.5 1.6-5.2-12.8-.6-25.6.4-38.2 3l3 4.2c2.1-3 4.8-5.7 8-7.6 3-1.8 6.4-3.1 8.2-6.4 1.5-2.8 1.2-6.2-1.2-8.4-1-1-2.3-1.5-3.6-2-1-.4-2.3-.7-3-1.7-.7-1.1-.5-3.4-.5-4.6 0-1.5.1-3.2.9-4.5 1.7-2.8 5.6-1.3 7.6.2 4.1 3 6.6 10.3 2.4 14.2-2.7 2.6 1.1 6.6 3.7 4.2zm54.5 14.3c29.4-1.3 58.8-2 88.2-1.5 7.8.1 15.5.3 23.3.7 3.6.2 3.8-5.4.2-5.6-29.3-1.5-58.8-.9-88.2 0-7.8.2-15.5.5-23.3.9-3.6.1-3.9 5.7-.2 5.5z"/><path d="M673.5 576c.2 39.3 1 78.5 2.4 117.8.1 3.6 5.8 3.8 5.6.2-1.5-39.2-2.3-78.5-2.4-117.8 0-3.6-5.6-3.8-5.6-.2z"/><path d="M312.6 695c23.4-2.2 47.2.3 70.6 1.3 23.9 1 47.7 1.7 71.6 2.1 47.6.8 95.2.5 142.8-.9 26.8-.8 53.6-2 80.4-3.5 3.6-.2 3.8-5.8.2-5.6-47.7 2.7-95.4 4.3-143.2 4.8-47.6.5-95.2-.2-142.8-2.1-13.3-.5-26.6-1.1-39.8-1.8-13.2-.6-26.4-1.1-39.6.2-3.6.2-3.8 5.8-.2 5.5zm380.1 28.8c8.5-.4 17.2-.7 25.7-1.3 3.5-.3 7.1-.9 9.7-3.4 2.4-2.3 3.6-5.7 2.6-8.9-1.2-3.4-6.6-2.1-5.5 1.3 2 6-9.5 5.6-12.7 5.7-6.5.3-13.1.7-19.6 1-3.6.1-3.8 5.8-.2 5.6zm-422.9-10.5c7.2-1.6 15 2.9 17.1 10 1 3.5 6.5 2.2 5.5-1.3-2.9-10.1-13.6-16.5-23.9-14.1-3.5.8-2.2 6.3 1.3 5.4z"/><path d="M694.9 720.4c3.1-5.1 6.9-9.6 11.4-13.4 3.6-3 10.3-8.6 15.2-5.6 3.1 1.9 6-2.8 3-4.8-6.7-4.2-14.1.2-19.6 4.3a58.99 58.99 0 0 0-14.7 16.4c-2 3.2 2.8 6.2 4.7 3.1zm-338.5-89.3c39.4-1.6 78.9-1.7 118.3-.2 11.2.4 22.3 1 33.5 1.7 3.6.2 3.8-5.4.2-5.6-39.4-2.4-78.8-3.3-118.3-2.6-11.2.2-22.4.5-33.5 1-3.6.3-3.8 5.9-.2 5.7zm73.1 30.4c50.5 3 101 4.7 151.6 5.1 14.3.1 28.5.1 42.8 0 3.6 0 3.8-5.6.2-5.6-50.6.3-101.1-.6-151.6-2.9-14.3-.6-28.5-1.4-42.8-2.2-3.7-.3-3.8 5.3-.2 5.6z"/></svg>