<svg xmlns="http://www.w3.org/2000/svg" viewBox="0 0 1000 1000"><path d="M274.7 425.2c-15 .3-30.5.7-43.9 7.5-13.4 6.8-34.6 24.1-30.7 38.6 2.9 11 1.9 13.1 1.9 24.4 0 15.4 4.2 28.3-10.8 31.9s-33.1 9.1-36.5 24.2c-4 18.1 16.7 31.1 33.9 38 31.6 12.7 64.1 25.5 98.2 26.4s70.6-12.9 87.7-42.4c25.8 24.3 69.7 26.2 97.4 4.2 31.7 36.6 94.3 40.2 130 7.5 32.2 24 77 29.7 114.2 14.7 13.4-5.4 26.1-13.4 40.4-15.5 18.5-2.7 36.9 4.7 55.5 5.6s41.2-9.5 41.5-28.2c.3-15.1-15.1-26.7-30.1-27.8s-29.5 5.2-43.2 11.5c-8.4-27.2-47.2-39-69.3-21.2 9.9-13.2.8-32.9-12.5-42.7-13.3-9.8-30-14.1-43.4-23.8-11.7-8.5-20.1-20.7-31-30.2-10.9-9.5-26.3-16.3-39.7-10.9 15.2-19.7-.3-50.7-23.3-60.1-23-9.4-49.1-3.9-73.3 2.2-1.1-34.9-41.5-58.4-76-52.9-41.1 6.5-62.3 43.5-101.8 51.8-20.2 4.3-41 5.5-49.4 27.8-5.3 13.9-2.4 34.7 14.2 39.4z" opacity=".7" fill="#dbebe7"/><path d="M826.6 539.5c-7.5 19.9-26.2 35.1-47.2 38.3s-43.4-5.7-56.5-22.5c-3.9 24.6-36.9 32.3-60.9 25.6-11.2-3.1-22-8-32.9-12.3 6.5-2.2 12.4-5.7 17.2-11 2-2.2 3.9-5.1 3.2-8-1.2-5.2-8.5-5.4-13.7-4.3-10.7 2.3-21.4 5.1-32.3 5-10.9-.1-22.4-3.6-29.4-11.9-10.8-12.8-7.9-31.8-6.3-48.6.8-8.7.8-44.2-15.7-36.6-2.9 1.4-8.2 37.9-13.9 45.3-11.7 14.9-29.6 24.1-48 28.5-7.8 1.8-15.9 3-22.9 7-6.8 3.9-12.3 11.7-10.8 19.4-6 5.6-10.2 13.8-17.5 17.7-20.6 11-40-18.3-62.9-23.1-12.8-2.7-24.4 2.6-36 9.5-7.2.2-14.3-1.2-20.6-4.6-13-7.2-20.3-25-12.7-37.8-10.8 18-44.8-16.9-51.6-20.8-17.3 17.5 3.6 46.5 24.8 48.3 5 15 18.5 26.8 33.9 30.2-4.7 2.2-9.5 3.9-14.5 4.8-36.6 6.3-71.5-33.9-105.8-30.4-2.1-1.1-4.2-2.1-6.5-2.9-13-4.4-30.3.8-34 14-3 11 4.6 22.7 14.5 28.4 9.9 5.8 21.6 7.2 32.8 9.6 31.1 6.5 60.6 20.7 92.2 22.8s68.3-12.7 76-43.5c29.9 29.6 83.3 30.6 114.4 2.3 12.2 19 34.5 31.2 57.1 31s44.7-12.6 56.6-31.9c16 22 42.7 36 69.9 36.6s54.5-12.1 71.5-33.4c21.7 10.5 45.9 21.2 69 14.5s38.2-40 19.5-55.2zm-317.8 30.2c-4.3-2-8.3-5-12.4-8 4.1-1.6 8.3-3.3 12.5-4.4 19.5-5.2 39.6.9 59.3 6.8-20.5 5.7-40.9 14.5-59.4 5.6z" opacity=".7" fill="#a9c9c2"/><path d="M211.4 520.2c-16.2-1.3-32.6 3.2-45.8 12.7-11.7 8.5-24.1 22.9-21.3 38.4 2.7 15.3 19.1 21.7 31.9 26.9 16.2 6.6 33.8 11.3 50.4 3.6 4.4-2.1.6-8.7-3.9-6.6-13.4 6.3-28.4 2-41.4-3.1-10.6-4.2-28.8-10-29.7-23.7-.8-13.3 11.6-25.2 22-31.6 11.4-7 24.5-10 37.8-8.9 5 .3 4.9-7.3 0-7.7z"/><path d="M226.7 518.2c-12.5 2.7-23.9-5.4-29.9-16-6.5-11.6-5.1-25.1.8-36.7 5.7-11.3 15-20.7 25.2-28 11-7.9 26-14.8 39.3-8.4 4.4 2.1 8.3-4.5 3.9-6.6-29.6-14.3-66.1 17.6-76.9 43.5-5.9 14.2-5.7 30.1 3.1 43.1 8.2 12.1 21.9 19.7 36.6 16.5 4.7-1.1 2.7-8.4-2.1-7.4z"/><path d="M266.4 425c-18.7-.9-20.6-23.5-14.5-36.8 6.1-13.2 17.6-23.8 30.6-30.2 13.1-6.4 28.2-8.3 42.5-5.1 7.3 1.6 14.2 4.3 20.6 8.1 6.1 3.7 17.2 10.7 17.7 18.6.3 4.9 7.9 4.9 7.6 0-.6-9.1-7.9-15.5-14.8-20.7-7.8-5.9-16.7-10.2-26.2-12.7-18.5-4.9-38.1-2.3-54.8 7-16.2 9.1-31 25.3-34 44.1-2.6 16.5 7.3 34.4 25.2 35.2 5 .3 5-7.3.1-7.5zm87.8-88.3c19.9-20.8 48.8-31.1 77.4-28.8 14.4 1.1 28.9 5.7 40.9 13.9 13.5 9.3 23.5 27 13.4 42.4-2.7 4.1 3.9 8 6.6 3.9 9.4-14.3 4.9-32.6-6.2-44.6-11.8-12.6-29.6-19.7-46.3-22.3-33-5.1-67.8 5.8-91 30.1-3.6 3.6 1.8 9 5.2 5.4zm158.1 21.8c23.6-5.1 50.6-6.8 70.6 9.1 16.6 13.1 22.6 39.2 5.4 54.6-3.7 3.3 1.7 8.7 5.4 5.4 18.9-16.8 15.1-46.4-2.2-62.7-21.9-20.7-53.7-19.8-81.2-13.8-4.9 1.1-2.8 8.4 2 7.4zm24.1 83.1c10.4 17.5 9.7 40.9-3.2 57-12.2 15.4-33.4 21.8-52.2 16.9-4.8-1.2-6.8 6.1-2 7.4 22.1 5.8 46.8-2 60.8-20.3 14.2-18.5 15.1-45 3.2-64.8-2.5-4.3-9.1-.4-6.6 3.8zm-272 38.5c-8.1 11.5-5.9 28.8 5.4 37.6 14.9 11.6 35.1 4 50.2-2.8 4.5-2 .6-8.6-3.9-6.6-11.7 5.2-27.8 12-40 4.5-9.8-6.1-11.5-19.8-5.1-28.9 2.9-4-3.8-7.8-6.6-3.8z"/><path d="M323.4 487.8c-12 15.3-24.9 41.2-7.6 57.7 18.8 18 45.4 4 63.2-7.6 4.1-2.7.3-9.3-3.9-6.6-14.3 9.3-35.3 22.6-52 10.4-16.8-12.3-4.1-36.1 5.6-48.5 3.1-3.8-2.3-9.2-5.3-5.4zm-92 89.4c7.3 13.7 15.1 27.9 27.1 38 12.1 10.2 27.5 14.7 43.3 13.6 35.1-2.5 61-27.8 84.2-51.6 3.4-3.5-2-8.9-5.4-5.4-21.2 21.8-44.8 46-76.8 49.2-15.1 1.5-30-2.2-41.4-12.5-10.8-9.6-17.7-22.7-24.4-35.2-2.3-4.3-8.9-.4-6.6 3.9z"/><path d="M371.4 584.6c19.5 16.6 45.1 25.2 70.7 23.4 18.8-1.3 55-11.3 48.6-37.2-1.2-4.8-8.6-2.8-7.4 2 2.8 11.2-9.3 19.3-18.4 22.7-9.7 3.7-20.3 5.2-30.6 5.1-21-.3-41.5-7.8-57.5-21.3-3.7-3.3-9.1 2.1-5.4 5.3zm234.4-161.8c28.3.8 48.3 27.2 41.3 54.7-1.2 4.8 6.2 6.8 7.4 2 8.2-32.3-15.4-63.5-48.7-64.3-5-.1-5 7.5 0 7.6zM582 534.2c-10.5 15.7 16.4 25.5 27.5 26.2 16.3 1 32.1-6.5 41.8-19.6 2.9-4-3.7-7.8-6.6-3.9-6.6 9-17.2 14.6-28.4 15.7-5 .5-10.1.1-14.9-1.3-4.6-1.3-17.2-6.6-12.8-13.3 2.8-4.1-3.8-7.9-6.6-3.8zm88-64.3c13.2 3.2 28 7 38 16.9 11.6 11.5 11.2 29.7-1 40.5-3.7 3.3 1.7 8.7 5.4 5.4 13.4-12 15.7-32.5 4.9-46.9-10.5-14-29-19.3-45.2-23.3-4.9-1.1-6.9 6.2-2.1 7.4z"/><path d="M722.4 522.5c4.8-9.7 16.8-12.5 26.7-9.7 6.1 1.8 11.7 5.3 16.6 9.3 2.5 2 4.9 4.2 7.2 6.4 1 1 2.1 2 3.1 3 1.4 1.4 2.5 1.6 4 2.7.3 2 .5 4 .8 6 10.8-11.9 27.5-17.2 43-12.2 7.2 2.3 13.8 6.8 18.7 12.6 2.6 3.1 10.5 16 2.6 17.7-4.8 1-2.8 8.4 2 7.4 8.2-1.8 9.8-10.9 8-18-2.5-9.7-11.3-17.9-19.7-22.8-19.8-11.5-44.9-6.9-60.1 9.9-1.8 2-1.2 4.5.8 6 6.4 4.7 12.4-3.8 9.3-9.8-2.2-4.2-6.8-7.6-10.3-10.7-4.2-3.8-8.6-7.3-13.5-10.2-14.8-8.5-37.3-8.7-45.9 8.6-2.1 4.4 4.5 8.2 6.7 3.8zM465.3 585c5.9 12.3 20.4 19.2 32.4 24 13 5.2 27.1 7.7 41.2 7.7 28 .1 55.5-9.9 76.4-28.6 3.7-3.3-1.8-8.7-5.4-5.4-18.9 17-43.8 26-69.1 26.4-12.2.2-24.3-1.7-35.8-5.6-11.8-4-27.3-10.7-33-22.4-2.2-4.3-8.8-.5-6.7 3.9z"/><path d="M606.5 592.5c23.4 21.1 55.6 30.9 86.9 27.7 15.3-1.6 30.2-6 43.6-13.7 7.7-4.4 26.7-18.6 12.9-27.6-3.3-2.1-7.1 2-5.2 5.2 7.9 13.5 22.2 21.2 37.6 23.2 18.2 2.4 36-3.8 52-12 13-6.7 34.9-16 26.8-34.4-2.3-5.3-9.1-16.3-15.8-16.6-5.9-.3-6.9 6.5-2.5 9.4 1.5.9 3.4.5 4.6-.6l.5-.5c3.6-3.3-1.8-8.7-5.4-5.4l-.5.5c1.5-.2 3.1-.4 4.6-.6.1 0 .2.1.3.1v3.9c-1.2 2.4-2.1.1-.4 2.8.7 1.1 2 2.1 2.9 3.1 2.2 2.5 4.4 5.5 5.4 8.8 2.5 8.2-5.6 12.4-11.5 15.8-11 6.5-22.4 12.6-34.8 16-20.3 5.7-45.7 2.4-57.2-17.3l-5.2 5.2c5 3.2-9.5 12.4-11.3 13.5-5.4 3.2-11 5.9-17 8-11.9 4.2-24.4 6.2-37 6.1-25.2-.2-50.1-9.1-68.9-26-3.6-3.3-9 2.1-5.4 5.4z"/></svg>