<svg xmlns="http://www.w3.org/2000/svg" width="663.644" height="273.096"><path d="M334.15 27.342h-4.184c-3.724 0-6.753 3.087-6.753 6.887v33.684c0 3.793 3.03 6.881 6.753 6.881h4.184c3.727 0 6.753-3.088 6.753-6.881V34.229c0-3.8-3.026-6.887-6.753-6.887m0 2.416c2.399 0 4.344 1.999 4.344 4.47v33.685c0 2.472-1.945 4.468-4.344 4.468h-4.184c-2.399 0-4.341-1.996-4.341-4.468V34.229c0-2.472 1.942-4.471 4.341-4.471h4.184"/><path d="M332.463 73.184c-5.102 0-9.252 4.153-9.252 9.252 0 5.101 4.15 9.252 9.252 9.252 5.1 0 9.248-4.15 9.248-9.252 0-5.099-4.148-9.252-9.248-9.252m0 2.414a6.837 6.837 0 0 1 0 13.673 6.842 6.842 0 0 1-6.841-6.835c0-3.77 3.067-6.838 6.841-6.838M332.463 2.414c-7.098 0-12.87 5.776-12.87 12.874 0 7.092 5.772 12.86 12.87 12.86 7.095 0 12.867-5.768 12.867-12.86 0-7.098-5.772-12.874-12.867-12.874m0 2.41c5.771 0 10.452 4.682 10.452 10.464 0 5.766-4.681 10.45-10.452 10.45-5.774 0-10.461-4.684-10.461-10.45 0-5.782 4.687-10.464 10.461-10.464"/><path d="M332.463 89.307c-5.102 0-9.252 4.148-9.252 9.25 0 5.1 4.15 9.246 9.252 9.246 5.1 0 9.248-4.146 9.248-9.246 0-5.102-4.148-9.25-9.248-9.25m0 2.412a6.835 6.835 0 1 1 0 13.67c-3.774 0-6.841-3.06-6.841-6.832a6.84 6.84 0 0 1 6.841-6.838"/><path d="M332.463 106.196c-4.436 0-8.042 3.61-8.042 8.043 0 4.434 3.606 8.04 8.042 8.04 4.434 0 8.039-3.606 8.039-8.04 0-4.434-3.605-8.043-8.039-8.043m0 2.415a5.625 5.625 0 0 1 5.627 5.628 5.625 5.625 0 0 1-5.627 5.625 5.63 5.63 0 0 1-5.633-5.625 5.631 5.631 0 0 1 5.633-5.628"/><path d="M333.869 120.676c-4.105 0-7.44 3.337-7.44 7.436s3.335 7.436 7.44 7.436c4.099 0 7.436-3.337 7.436-7.436s-3.337-7.436-7.436-7.436m0 2.41a5.025 5.025 0 1 1 0 10.049 5.025 5.025 0 1 1 0-10.05"/><path d="M337.89 133.139a6.644 6.644 0 0 0-6.636 6.637c0 3.655 2.976 6.628 6.636 6.628 3.657 0 6.633-2.973 6.633-6.628 0-3.66-2.976-6.637-6.633-6.637m0 2.414a4.222 4.222 0 1 1-.001 8.444 4.222 4.222 0 0 1 0-8.444"/><path d="M343.119 143.998a5.437 5.437 0 0 0-5.432 5.428c0 2.99 2.439 5.426 5.432 5.426a5.43 5.43 0 0 0 5.424-5.426 5.43 5.43 0 0 0-5.424-5.428m0 2.415a3.01 3.01 0 0 1 3.012 3.013 3.016 3.016 0 0 1-6.03 0 3.015 3.015 0 0 1 3.018-3.013M330.468 4.285a6.632 6.632 0 0 0-6.2-4.285 6.635 6.635 0 0 0-6.633 6.633c0 2.423 1.3 4.535 3.237 5.694.596-4.459 5.373-6.746 9.596-8.042M334.325 4.285C335.277 1.781 337.686 0 340.519 0a6.634 6.634 0 0 1 6.638 6.633 6.617 6.617 0 0 1-3.239 5.694c-.599-4.459-5.375-6.746-9.593-8.042"/><path d="M251.957 16.815v2.414-2.414h-.004c-11.672 0-18.519 2.644-19.8 7.645-2.55 9.967 19.328 21.136 42.264 27.016 10.805 2.767 21.55 4.293 30.246 4.293 11.675 0 18.523-2.642 19.81-7.641 1.181-4.627-2.834-9.83-11.614-15.05-7.849-4.666-18.736-8.911-30.656-11.965-10.802-2.772-21.545-4.298-30.246-4.298m-.004 2.414c8.214 0 18.608 1.387 29.654 4.219 24.202 6.203 42.342 16.987 40.526 24.081-.988 3.854-7.679 5.828-17.47 5.828-8.208 0-18.605-1.392-29.648-4.217-24.2-6.207-42.345-16.99-40.525-24.081.99-3.856 7.679-5.83 17.463-5.83M411.35 16.815c-8.7 0-19.443 1.526-30.249 4.298-11.921 3.054-22.806 7.299-30.656 11.966-8.78 5.218-12.796 10.422-11.609 15.049 1.281 4.999 8.13 7.641 19.807 7.641 8.696 0 19.438-1.526 30.245-4.293 22.935-5.88 44.819-17.05 42.265-27.016-1.281-5.001-8.126-7.645-19.802-7.645m0 2.414c9.788 0 16.474 1.974 17.468 5.83 1.814 7.092-16.33 17.874-40.531 24.081-11.043 2.825-21.44 4.217-29.645 4.217-9.794 0-16.483-1.974-17.47-5.828-1.817-7.094 16.326-17.878 40.528-24.081 11.043-2.832 21.439-4.219 29.65-4.219" fill="#407fbf"/><path d="M307.922 42.029c-7.525 0-16.814 1.314-26.153 3.71-19.93 5.111-38.925 14.895-36.673 23.69 1.149 4.476 7.164 6.837 17.39 6.837 7.528 0 16.819-1.315 26.16-3.708 10.302-2.641 19.72-6.32 26.508-10.355 9.74-5.788 10.9-10.449 10.16-13.34-1.144-4.473-7.162-6.834-17.392-6.834m0 2.412c8.436 0 14.204 1.698 15.058 5.024 1.565 6.112-14.072 15.41-34.934 20.754-9.518 2.44-18.48 3.636-25.56 3.636-8.433 0-14.197-1.698-15.05-5.022-1.566-6.12 14.069-15.408 34.929-20.758 9.519-2.438 18.479-3.634 25.557-3.634M356.232 42.029v2.412-2.412h-.004c-10.228 0-16.244 2.361-17.39 6.833-.74 2.892.422 7.553 10.16 13.341 6.792 4.035 16.206 7.714 26.508 10.355 9.344 2.393 18.633 3.708 26.156 3.708 10.232 0 16.244-2.361 17.394-6.837 2.254-8.795-16.74-18.579-36.668-23.69-9.341-2.396-18.628-3.71-26.156-3.71m0 2.412c7.076-.003 16.036 1.196 25.554 3.634 20.864 5.35 36.5 14.638 34.933 20.758-.85 3.324-6.615 5.022-15.057 5.022-7.075 0-16.038-1.197-25.555-3.636-20.86-5.345-36.497-14.642-34.93-20.754.854-3.326 6.62-5.024 15.055-5.024" fill="#407fbf"/><path d="M184.326 32.123l-.828 3.064h-6.779l-5.101 20.276c-2.26 8.94-4.532 15.854-6.823 20.74-3.246 6.9-6.741 11.664-10.484 14.293-2.845 2.01-5.689 3.017-8.538 3.017-1.856 0-3.432-.562-4.73-1.672-.964-.776-1.441-1.78-1.441-3.018 0-.986.395-1.847 1.183-2.571.792-.732 1.754-1.093 2.905-1.093.832 0 1.535.269 2.108.786.57.526.857 1.13.857 1.816 0 .675-.328 1.31-.968 1.894-.5.44-.75.762-.75.977 0 .281.112.497.328.65.277.218.709.327 1.294.327 1.334 0 2.732-.418 4.204-1.254 1.467-.832 2.778-2.08 3.919-3.735 1.144-1.655 2.228-4.043 3.245-7.165.435-1.3 1.596-5.587 3.484-12.855l8.071-31.413h-8.07l.646-3.064c2.57 0 4.36-.18 5.384-.53 1.02-.36 1.955-1.04 2.805-2.044.852-1.004 1.959-2.881 3.318-5.637 1.825-3.715 3.574-6.59 5.245-8.633 2.288-2.754 4.696-4.816 7.213-6.192 2.522-1.378 4.896-2.067 7.124-2.067 2.354 0 4.238.597 5.66 1.787 1.424 1.197 2.13 2.484 2.13 3.872 0 1.088-.351 1.996-1.062 2.74-.712.744-1.622 1.117-2.737 1.117-.961 0-1.744-.28-2.345-.839-.603-.554-.904-1.217-.904-1.996 0-.49.2-1.105.602-1.832.406-.725.608-1.212.608-1.462 0-.432-.142-.755-.42-.975-.404-.307-.99-.464-1.768-.464-1.946 0-3.696.621-5.237 1.86-2.073 1.639-3.932 4.207-5.572 7.697-.836 1.83-2.364 6.36-4.592 13.598zM235.834 98.214v1.992c-5.414-2.726-9.938-5.918-13.558-9.578-5.164-5.198-9.145-11.329-11.94-18.4a59.177 59.177 0 0 1-4.198-22c0-11.117 2.745-21.26 8.232-30.428 5.486-9.158 12.642-15.717 21.464-19.66v2.258c-4.41 2.442-8.032 5.78-10.864 10.008-2.838 4.234-4.952 9.594-6.352 16.085-1.402 6.492-2.098 13.275-2.098 20.339 0 7.674.592 14.65 1.775 20.93.935 4.946 2.064 8.916 3.39 11.912 1.326 2.994 3.11 5.875 5.357 8.638 2.24 2.761 5.17 5.394 8.792 7.904M438.72 90.31c2.24-2.762 4.025-5.645 5.354-8.638 1.325-2.996 2.452-6.967 3.387-11.912 1.18-6.281 1.776-13.256 1.776-20.93 0-7.065-.696-13.847-2.1-20.34-1.396-6.489-3.512-11.849-6.351-16.085-2.828-4.228-6.455-7.565-10.865-10.008V.14c8.824 3.944 15.98 10.502 21.465 19.661 5.485 9.167 8.232 19.312 8.232 30.428 0 7.603-1.399 14.94-4.2 21.999-2.792 7.073-6.776 13.202-11.937 18.401-3.623 3.66-8.142 6.852-13.56 9.577v-1.992c3.628-2.509 6.556-5.142 8.798-7.904M470.148 56.765h38.856v4.424h-38.856zm0-17.61h38.856v4.433h-38.856z" fill="#a6a6a6"/><path d="M76.38 199.979c0 2.09-1.044 3.394-3.524 4.442-1.699.783-4.175 1.432-6.66 1.694-4.308-10.836-13.317-17.228-25.46-17.228-14.752 0-28.723 11.874-28.723 33.814 0 25.456 16.84 40.214 38.646 40.214 7.31 0 15.016-1.566 21.152-4.964.913 1.436 1.568 3.526 1.568 5.485 0 3.916-10.836 9.66-24.546 9.66C21.152 273.096 0 253.9 0 223.091c0-28.467 19.324-44.524 41.39-44.524 16.451 0 28.855 7.966 34.338 19.192.392.786.652 1.569.652 2.22M136.658 237.45c0-18.012-11.095-27.415-23.11-27.415-11.49 0-21.802 8.095-21.802 25.85 0 18.016 11.096 27.424 23.108 27.424 11.492 0 21.804-8.1 21.804-25.859m11.623-.779c0 23.108-15.671 36.424-34.082 36.424-18.406 0-34.073-13.316-34.073-36.424 0-23.108 15.667-36.428 34.073-36.428 18.411 0 34.082 13.32 34.082 36.428M210.643 245.289v-28.202c-5.097-4.832-11.36-7.05-17.89-7.05-14.233 0-24.809 12.4-24.809 29.114 0 15.147 8.094 24.284 20.762 24.284 8.352 0 17.233-5.874 21.937-18.146m0-69.07h7.699c2.613 0 3.658.912 3.658 3.003v76.901c0 5.483 1.828 7.186 4.96 7.186h2.611c.393 1.174.653 2.478.653 4.044 0 2.348-3.136 5.097-8.485 5.097-5.747 0-10.187-4.315-10.968-12.935-4.572 8.236-13.713 13.58-24.55 13.58-16.838 0-29.767-12.661-29.767-33.682 0-22.98 15.537-39.17 34.6-39.17 7.834 0 14.624 2.48 19.59 6.919zM243.154 231.707h37.993c.655-1.436 1.044-3.528 1.044-5.354 0-9.92-6.397-16.317-17.105-16.317-11.617 0-20.627 8.223-21.932 21.67m42.039 27.553c.917 1.176 1.57 3.39 1.57 5.092 0 3.524-8.228 8.745-20.764 8.745-19.844 0-34.596-15.013-34.596-36.424 0-22.719 15.93-36.43 34.206-36.43 16.45 0 27.678 10.837 27.678 25.59 0 3.79-.782 7.572-1.956 10.185-1.828 4.178-4.176 5.354-9.008 5.354h-39.169c1.437 14.364 11.88 21.937 24.673 21.937 6.14 0 12.012-1.181 17.366-4.05"/><path d="M398.35 268.53c-1.043 2.218-2.48 3-5.355 3H382.68l-21.802-76.513c-4.962 22.982-13.318 49.878-24.29 73.512-.91 2.086-2.48 3.002-5.349 3.002h-9.792l-27.157-88.652c3.001-1.96 6.525-3.396 9.137-3.396 1.83 0 2.873.521 3.525 2.352l22.196 75.725c9.531-21.021 17.628-47.264 23.502-77.428h10.838c3.131 0 4.568.916 5.222 3.136l21.416 74.292c10.181-21.804 18.536-48.572 23.893-77.428h8.616c2.87 0 3.915 1.044 3.525 3.267-5.614 28.596-14.624 56.536-27.812 85.13M482.44 237.45c0-18.012-11.097-27.415-23.109-27.415-11.49 0-21.804 8.095-21.804 25.85 0 18.016 11.098 27.424 23.11 27.424 11.489 0 21.802-8.1 21.802-25.859m11.622-.779c0 23.108-15.667 36.424-34.078 36.424-18.41 0-34.077-13.316-34.077-36.424 0-23.108 15.667-36.428 34.077-36.428 18.41 0 34.078 13.32 34.078 36.428M548.814 207.033c0 .912-.393 1.955-1.178 2.87-1.17 1.569-3.002 3.006-4.567 3.917-3.392-2.608-7.964-3.784-12.404-3.784-8.224 0-14.36 5.092-17.233 15.535v45.96h-7.702c-2.745 0-3.657-.783-3.657-2.874v-66.46c2.61-.778 5.352-1.172 7.835-1.172 2.48 0 3.524.916 3.524 2.742v8.354c4.178-7.178 11.229-11.878 20.366-11.878 5.096 0 9.142 1.044 11.882 2.741 2.354 1.437 3.134 2.348 3.134 4.05M574.612 272.45c-10.708 0-16.324-7.056-16.324-19.461v-76.512c2.612-.651 5.352-1.044 7.834-1.044 2.481 0 3.525.916 3.525 2.741v75.208c0 6.92 2.744 9.793 7.967 9.793 2.48 0 5.485-.526 7.573-1.437.783 1.177 1.435 3.135 1.435 4.572 0 2.347-4.442 6.14-12.01 6.14M644.06 245.289v-28.202c-5.092-4.832-11.361-7.05-17.886-7.05-14.234 0-24.81 12.4-24.81 29.114 0 15.147 8.099 24.284 20.76 24.284 8.355 0 17.238-5.874 21.936-18.146m0-69.07h7.702c2.613 0 3.66.912 3.66 3.003v76.901c0 5.483 1.826 7.186 4.96 7.186h2.613c.39 1.174.65 2.478.65 4.044 0 2.348-3.134 5.097-8.487 5.097-5.743 0-10.183-4.315-10.968-12.935-4.57 8.236-13.711 13.58-24.546 13.58-16.845 0-29.766-12.661-29.766-33.682 0-22.98 15.533-39.17 34.598-39.17 7.834 0 14.62 2.48 19.584 6.919z" fill="#407fbf"/></svg>