<?xml version="1.0" encoding="UTF-8" standalone="no"?>
<!-- Created with Inkscape (http://www.inkscape.org/) -->

<svg
   xmlns:dc="http://purl.org/dc/elements/1.1/"
   xmlns:cc="http://creativecommons.org/ns#"
   xmlns:rdf="http://www.w3.org/1999/02/22-rdf-syntax-ns#"
   xmlns:svg="http://www.w3.org/2000/svg"
   xmlns="http://www.w3.org/2000/svg"
   xmlns:sodipodi="http://sodipodi.sourceforge.net/DTD/sodipodi-0.dtd"
   xmlns:inkscape="http://www.inkscape.org/namespaces/inkscape"
   version="1.1"
   id="svg3713"
   xml:space="preserve"
   width="663.64423"
   height="273.09601"
   viewBox="0 0 663.64421 273.09601"
   sodipodi:docname="codeworld.svg"
   inkscape:version="0.92.3 (2405546, 2018-03-11)"><metadata
     id="metadata3719"><rdf:RDF><cc:Work
         rdf:about=""><dc:format>image/svg+xml</dc:format><dc:type
           rdf:resource="http://purl.org/dc/dcmitype/StillImage" /><dc:title /></cc:Work></rdf:RDF></metadata><defs
     id="defs3717"><clipPath
       clipPathUnits="userSpaceOnUse"
       id="clipPath3729"><path
         d="M 0,595.28 H 841.89 V 0 H 0 Z"
         id="path3727"
         inkscape:connector-curvature="0" /></clipPath></defs><sodipodi:namedview
     pagecolor="#ffffff"
     bordercolor="#666666"
     borderopacity="1"
     objecttolerance="10"
     gridtolerance="10"
     guidetolerance="10"
     inkscape:pageopacity="0"
     inkscape:pageshadow="2"
     inkscape:window-width="2560"
     inkscape:window-height="1386"
     id="namedview3715"
     showgrid="false"
     inkscape:zoom="2.2149241"
     inkscape:cx="332.72591"
     inkscape:cy="192.98733"
     inkscape:window-x="1440"
     inkscape:window-y="639"
     inkscape:window-maximized="1"
     inkscape:current-layer="g3721" /><g
     id="g3721"
     inkscape:groupmode="layer"
     inkscape:label="CODEWORLD_LO-FF"
     transform="matrix(1.3333333,0,0,-1.3333333,-229.43706,533.40185)"><g
       id="g3997"><g
         transform="translate(422.6904,379.5449)"
         id="g3731"><path
           inkscape:connector-curvature="0"
           id="path3733"
           style="fill:#000000;fill-opacity:1;fill-rule:nonzero;stroke:none"
           d="m 0,0 h -3.138 c -2.793,0 -5.065,-2.315 -5.065,-5.165 v -25.263 c 0,-2.845 2.272,-5.161 5.065,-5.161 H 0 c 2.795,0 5.065,2.316 5.065,5.161 V -5.165 C 5.065,-2.315 2.795,0 0,0 m 0,-1.812 c 1.799,0 3.258,-1.499 3.258,-3.353 v -25.263 c 0,-1.854 -1.459,-3.351 -3.258,-3.351 h -3.138 c -1.799,0 -3.256,1.497 -3.256,3.351 v 25.263 c 0,1.854 1.457,3.353 3.256,3.353 H 0" /></g><g
         transform="translate(421.4253,345.1636)"
         id="g3735"><path
           inkscape:connector-curvature="0"
           id="path3737"
           style="fill:#000000;fill-opacity:1;fill-rule:nonzero;stroke:none"
           d="m 0,0 c -3.827,0 -6.939,-3.115 -6.939,-6.939 0,-3.826 3.112,-6.939 6.939,-6.939 3.825,0 6.936,3.113 6.936,6.939 C 6.936,-3.115 3.825,0 0,0 m 0,-1.811 c 2.831,0 5.127,-2.301 5.127,-5.128 0,-2.831 -2.296,-5.127 -5.127,-5.127 -2.831,0 -5.131,2.296 -5.131,5.127 0,2.827 2.3,5.128 5.131,5.128" /></g><g
         transform="translate(421.4253,398.2407)"
         id="g3739"><path
           inkscape:connector-curvature="0"
           id="path3741"
           style="fill:#000000;fill-opacity:1;fill-rule:nonzero;stroke:none"
           d="m 0,0 c -5.324,0 -9.653,-4.332 -9.653,-9.655 0,-5.319 4.329,-9.645 9.653,-9.645 5.321,0 9.65,4.326 9.65,9.645 C 9.65,-4.332 5.321,0 0,0 m 0,-1.807 c 4.328,0 7.839,-3.512 7.839,-7.848 0,-4.325 -3.511,-7.838 -7.839,-7.838 -4.331,0 -7.846,3.513 -7.846,7.838 0,4.336 3.515,7.848 7.846,7.848" /></g><g
         transform="translate(421.4253,333.0708)"
         id="g3743"><path
           inkscape:connector-curvature="0"
           id="path3745"
           style="fill:#000000;fill-opacity:1;fill-rule:nonzero;stroke:none"
           d="m 0,0 c -3.827,0 -6.939,-3.111 -6.939,-6.937 0,-3.825 3.112,-6.935 6.939,-6.935 3.825,0 6.936,3.11 6.936,6.935 C 6.936,-3.111 3.825,0 0,0 m 0,-1.809 c 2.831,0 5.127,-2.293 5.127,-5.128 0,-2.829 -2.296,-5.124 -5.127,-5.124 -2.831,0 -5.131,2.295 -5.131,5.124 0,2.835 2.3,5.128 5.131,5.128" /></g><g
         transform="translate(421.4253,320.4043)"
         id="g3747"><path
           inkscape:connector-curvature="0"
           id="path3749"
           style="fill:#000000;fill-opacity:1;fill-rule:nonzero;stroke:none"
           d="m 0,0 c -3.327,0 -6.032,-2.707 -6.032,-6.032 0,-3.326 2.705,-6.03 6.032,-6.03 3.325,0 6.029,2.704 6.029,6.03 C 6.029,-2.707 3.325,0 0,0 m 0,-1.811 c 2.331,0 4.22,-1.888 4.22,-4.221 0,-2.331 -1.889,-4.219 -4.22,-4.219 -2.331,0 -4.225,1.888 -4.225,4.219 0,2.333 1.894,4.221 4.225,4.221" /></g><g
         transform="translate(422.4795,309.5444)"
         id="g3751"><path
           inkscape:connector-curvature="0"
           id="path3753"
           style="fill:#000000;fill-opacity:1;fill-rule:nonzero;stroke:none"
           d="m 0,0 c -3.079,0 -5.58,-2.503 -5.58,-5.577 0,-3.074 2.501,-5.577 5.58,-5.577 3.074,0 5.577,2.503 5.577,5.577 C 5.577,-2.503 3.074,0 0,0 m 0,-1.807 c 2.084,0 3.771,-1.687 3.771,-3.77 0,-2.081 -1.687,-3.767 -3.771,-3.767 -2.081,0 -3.77,1.686 -3.77,3.767 0,2.083 1.689,3.77 3.77,3.77" /></g><g
         transform="translate(425.4951,300.1973)"
         id="g3755"><path
           inkscape:connector-curvature="0"
           id="path3757"
           style="fill:#000000;fill-opacity:1;fill-rule:nonzero;stroke:none"
           d="m 0,0 c -2.745,0 -4.977,-2.233 -4.977,-4.978 0,-2.741 2.232,-4.971 4.977,-4.971 2.743,0 4.975,2.23 4.975,4.971 C 4.975,-2.233 2.743,0 0,0 m 0,-1.811 c 1.748,0 3.166,-1.417 3.166,-3.167 0,-1.745 -1.418,-3.164 -3.166,-3.164 -1.748,0 -3.168,1.419 -3.168,3.164 0,1.75 1.42,3.167 3.168,3.167" /></g><g
         transform="translate(429.417,292.0527)"
         id="g3759"><path
           inkscape:connector-curvature="0"
           id="path3761"
           style="fill:#000000;fill-opacity:1;fill-rule:nonzero;stroke:none"
           d="m 0,0 c -2.245,0 -4.074,-1.826 -4.074,-4.071 0,-2.242 1.829,-4.069 4.074,-4.069 2.245,0 4.068,1.827 4.068,4.069 C 4.068,-1.826 2.245,0 0,0 m 0,-1.811 c 1.247,0 2.259,-1.008 2.259,-2.26 0,-1.248 -1.012,-2.258 -2.259,-2.258 -1.248,0 -2.264,1.01 -2.264,2.258 0,1.252 1.016,2.26 2.264,2.26" /></g><g
         transform="translate(419.9287,396.8374)"
         id="g3763"><path
           inkscape:connector-curvature="0"
           id="path3765"
           style="fill:#000000;fill-opacity:1;fill-rule:nonzero;stroke:none"
           d="m 0,0 c -0.713,1.878 -2.523,3.214 -4.65,3.214 -2.746,0 -4.975,-2.228 -4.975,-4.975 0,-1.817 0.975,-3.401 2.428,-4.27 C -6.75,-2.687 -3.167,-0.972 0,0" /></g><g
         transform="translate(422.8213,396.8374)"
         id="g3767"><path
           inkscape:connector-curvature="0"
           id="path3769"
           style="fill:#000000;fill-opacity:1;fill-rule:nonzero;stroke:none"
           d="m 0,0 c 0.714,1.878 2.521,3.214 4.646,3.214 2.751,0 4.978,-2.228 4.978,-4.975 0,-1.817 -0.973,-3.401 -2.429,-4.27 C 6.746,-2.687 3.164,-0.972 0,0" /></g><g
         transform="translate(361.0454,387.4404)"
         id="g3771"><path
           inkscape:connector-curvature="0"
           id="path3773"
           style="fill:#407fbf;fill-opacity:1;fill-rule:nonzero;stroke:none"
           d="M 0,0 V -1.811 0 h -0.003 c -8.754,0 -13.889,-1.983 -14.85,-5.734 -1.913,-7.475 14.496,-15.852 31.698,-20.262 8.104,-2.075 16.162,-3.22 22.685,-3.22 8.756,0 13.892,1.982 14.857,5.731 0.886,3.47 -2.125,7.373 -8.71,11.287 -5.887,3.5 -14.052,6.684 -22.992,8.974 C 14.583,-1.145 6.526,0 0,0 m -0.003,-1.811 c 6.161,0 13.956,-1.04 22.241,-3.164 18.151,-4.652 31.756,-12.74 30.394,-18.061 -0.741,-2.89 -5.759,-4.371 -13.102,-4.371 -6.156,0 -13.954,1.044 -22.236,3.163 -18.151,4.655 -31.759,12.742 -30.394,18.061 0.742,2.892 5.759,4.372 13.097,4.372" /></g><g
         transform="translate(480.5908,387.4404)"
         id="g3775"><path
           inkscape:connector-curvature="0"
           id="path3777"
           style="fill:#407fbf;fill-opacity:1;fill-rule:nonzero;stroke:none"
           d="m 0,0 c -6.526,0 -14.583,-1.145 -22.687,-3.224 -8.941,-2.29 -17.105,-5.474 -22.992,-8.974 -6.585,-3.914 -9.597,-7.817 -8.707,-11.287 0.961,-3.749 6.097,-5.731 14.855,-5.731 6.522,0 14.579,1.145 22.684,3.22 17.201,4.41 33.614,12.787 31.699,20.262 C 13.891,-1.983 8.757,0 0,0 m 0,-1.811 c 7.341,0 12.356,-1.48 13.101,-4.372 1.361,-5.319 -12.247,-13.406 -30.398,-18.061 -8.282,-2.119 -16.08,-3.163 -22.234,-3.163 -7.345,0 -12.362,1.481 -13.102,4.371 -1.363,5.321 12.244,13.409 30.396,18.061 8.282,2.124 16.079,3.164 22.237,3.164" /></g><g
         transform="translate(403.0195,368.5298)"
         id="g3779"><path
           inkscape:connector-curvature="0"
           id="path3781"
           style="fill:#407fbf;fill-opacity:1;fill-rule:nonzero;stroke:none"
           d="m 0,0 c -5.644,0 -12.611,-0.986 -19.615,-2.782 -14.948,-3.834 -29.194,-11.172 -27.505,-17.768 0.862,-3.357 5.373,-5.128 13.043,-5.128 5.646,0 12.614,0.986 19.62,2.781 7.726,1.981 14.79,4.74 19.881,7.766 7.305,4.341 8.175,7.837 7.62,10.006 C 12.186,-1.771 7.672,0 0,0 m 0,-1.809 c 6.327,0 10.653,-1.274 11.293,-3.768 1.174,-4.584 -10.554,-11.557 -26.2,-15.566 -7.139,-1.829 -13.86,-2.727 -19.17,-2.727 -6.325,0 -10.648,1.274 -11.288,3.767 -1.174,4.59 10.552,11.556 26.197,15.568 7.139,1.829 13.859,2.726 19.168,2.726" /></g><g
         transform="translate(439.252,368.5298)"
         id="g3783"><path
           inkscape:connector-curvature="0"
           id="path3785"
           style="fill:#407fbf;fill-opacity:1;fill-rule:nonzero;stroke:none"
           d="M 0,0 V -1.809 0 h -0.003 c -7.671,0 -12.183,-1.771 -13.043,-5.125 -0.555,-2.169 0.317,-5.665 7.621,-10.006 5.093,-3.026 12.154,-5.785 19.88,-7.766 7.008,-1.795 13.975,-2.781 19.617,-2.781 7.674,0 12.183,1.771 13.046,5.128 1.69,6.596 -12.555,13.934 -27.501,17.768 C 12.611,-0.986 5.646,0 0,0 m 0,-1.809 c 5.307,0.002 12.027,-0.897 19.165,-2.726 15.648,-4.012 27.375,-10.978 26.2,-15.568 -0.638,-2.493 -4.961,-3.767 -11.293,-3.767 -5.306,0 -12.028,0.898 -19.166,2.727 -15.645,4.009 -27.373,10.982 -26.197,15.566 0.64,2.494 4.964,3.768 11.291,3.768" /></g><g
         transform="translate(310.3223,375.9595)"
         id="g3787"><path
           inkscape:connector-curvature="0"
           id="path3789"
           style="fill:#a6a6a6;fill-opacity:1;fill-rule:nonzero;stroke:none"
           d="m 0,0 -0.621,-2.298 h -5.084 l -3.826,-15.207 c -1.695,-6.706 -3.399,-11.891 -5.117,-15.555 -2.435,-5.175 -5.056,-8.748 -7.863,-10.72 -2.134,-1.508 -4.267,-2.263 -6.404,-2.263 -1.392,0 -2.574,0.422 -3.547,1.254 -0.723,0.582 -1.081,1.335 -1.081,2.264 0,0.739 0.296,1.385 0.887,1.928 0.594,0.549 1.316,0.82 2.179,0.82 0.624,0 1.151,-0.202 1.581,-0.59 0.427,-0.394 0.643,-0.848 0.643,-1.362 0,-0.506 -0.246,-0.982 -0.726,-1.42 -0.375,-0.33 -0.563,-0.572 -0.563,-0.733 0,-0.211 0.084,-0.373 0.246,-0.488 0.208,-0.163 0.532,-0.245 0.971,-0.245 1,0 2.049,0.314 3.153,0.941 1.1,0.624 2.083,1.559 2.939,2.801 0.858,1.241 1.671,3.032 2.434,5.374 0.326,0.975 1.197,4.19 2.613,9.641 l 6.053,23.56 h -6.053 L -16.701,0 c 1.927,0 3.27,0.134 4.038,0.397 0.765,0.27 1.466,0.78 2.104,1.533 0.639,0.753 1.469,2.161 2.488,4.228 1.369,2.786 2.681,4.943 3.934,6.475 1.716,2.065 3.522,3.612 5.41,4.644 1.891,1.033 3.672,1.55 5.343,1.55 1.765,0 3.178,-0.448 4.245,-1.34 1.068,-0.898 1.597,-1.863 1.597,-2.904 0,-0.816 -0.263,-1.497 -0.796,-2.056 -0.534,-0.557 -1.217,-0.837 -2.053,-0.837 -0.721,0 -1.308,0.21 -1.759,0.629 -0.452,0.416 -0.678,0.913 -0.678,1.497 0,0.368 0.15,0.829 0.452,1.374 0.304,0.544 0.456,0.909 0.456,1.097 0,0.324 -0.107,0.566 -0.315,0.731 -0.303,0.23 -0.743,0.348 -1.326,0.348 -1.46,0 -2.772,-0.466 -3.928,-1.395 C 0.956,14.742 -0.438,12.816 -1.668,10.198 -2.295,8.826 -3.441,5.428 -5.112,0 Z" /></g><g
         transform="translate(348.9531,326.3911)"
         id="g3791"><path
           inkscape:connector-curvature="0"
           id="path3793"
           style="fill:#a6a6a6;fill-opacity:1;fill-rule:nonzero;stroke:none"
           d="m 0,0 v -1.494 c -4.06,2.044 -7.453,4.438 -10.168,7.183 -3.873,3.899 -6.859,8.497 -8.955,13.801 -2.099,5.294 -3.149,10.797 -3.149,16.499 0,8.338 2.059,15.946 6.174,22.821 4.115,6.869 9.482,11.788 16.098,14.746 v -1.694 c -3.307,-1.832 -6.024,-4.335 -8.148,-7.506 -2.128,-3.176 -3.714,-7.196 -4.764,-12.064 -1.051,-4.869 -1.573,-9.956 -1.573,-15.254 0,-5.756 0.444,-10.987 1.331,-15.698 0.701,-3.709 1.548,-6.687 2.543,-8.934 C -9.617,10.161 -8.279,8 -6.594,5.928 -4.914,3.857 -2.716,1.882 0,0" /></g><g
         transform="translate(501.1172,332.3193)"
         id="g3795"><path
           inkscape:connector-curvature="0"
           id="path3797"
           style="fill:#a6a6a6;fill-opacity:1;fill-rule:nonzero;stroke:none"
           d="m 0,0 c 1.681,2.071 3.019,4.233 4.016,6.478 0.994,2.247 1.839,5.225 2.54,8.934 0.886,4.711 1.332,9.942 1.332,15.698 0,5.298 -0.522,10.385 -1.575,15.254 -1.047,4.867 -2.634,8.887 -4.763,12.064 -2.121,3.171 -4.841,5.674 -8.149,7.506 v 1.694 C 0.019,64.67 5.387,59.751 9.5,52.882 c 4.114,-6.875 6.174,-14.484 6.174,-22.821 0,-5.702 -1.049,-11.205 -3.15,-16.499 C 10.43,8.257 7.442,3.66 3.571,-0.239 0.854,-2.984 -2.535,-5.378 -6.599,-7.422 v 1.494 C -3.878,-4.046 -1.682,-2.071 0,0" /></g><path
         inkscape:connector-curvature="0"
         id="path3799"
         style="fill:#a6a6a6;fill-opacity:1;fill-rule:nonzero;stroke:none;stroke-width:0.81659341"
         d="m 524.68846,357.47771 h 29.14268 v -3.31795 h -29.14268 z m 0,13.2068 h 29.14268 v -3.32395 h -29.14268 z" /><g
         transform="translate(229.3628,250.0674)"
         id="g3801"><path
           inkscape:connector-curvature="0"
           id="path3803"
           style="fill:#000000;fill-opacity:1;fill-rule:nonzero;stroke:none"
           d="m 0,0 c 0,-1.568 -0.783,-2.546 -2.643,-3.332 -1.274,-0.587 -3.131,-1.074 -4.995,-1.27 -3.231,8.127 -9.988,12.921 -19.095,12.921 -11.064,0 -21.542,-8.906 -21.542,-25.361 0,-19.092 12.63,-30.16 28.984,-30.16 5.483,0 11.262,1.174 15.864,3.723 0.685,-1.077 1.176,-2.645 1.176,-4.114 0,-2.937 -8.127,-7.245 -18.409,-7.245 -20.761,0 -36.625,14.397 -36.625,37.504 0,21.35 14.493,33.393 31.043,33.393 12.338,0 21.641,-5.975 25.753,-14.394 C -0.195,1.075 0,0.488 0,0" /></g><g
         transform="translate(274.5713,221.9639)"
         id="g3805"><path
           inkscape:connector-curvature="0"
           id="path3807"
           style="fill:#000000;fill-opacity:1;fill-rule:nonzero;stroke:none"
           d="m 0,0 c 0,13.509 -8.321,20.561 -17.333,20.561 -8.617,0 -16.351,-6.071 -16.351,-19.387 0,-13.512 8.322,-20.568 17.331,-20.568 C -7.734,-19.394 0,-13.319 0,0 m 8.717,0.584 c 0,-17.331 -11.753,-27.318 -25.561,-27.318 -13.805,0 -25.555,9.987 -25.555,27.318 0,17.331 11.75,27.321 25.555,27.321 13.808,0 25.561,-9.99 25.561,-27.321" /></g><g
         transform="translate(330.0601,216.085)"
         id="g3809"><path
           inkscape:connector-curvature="0"
           id="path3811"
           style="fill:#000000;fill-opacity:1;fill-rule:nonzero;stroke:none"
           d="m 0,0 v 21.151 c -3.823,3.624 -8.52,5.288 -13.417,5.288 -10.675,0 -18.607,-9.3 -18.607,-21.836 0,-11.36 6.07,-18.213 15.571,-18.213 6.264,0 12.925,4.406 16.453,13.61 m 0,51.802 h 5.774 c 1.96,0 2.744,-0.684 2.744,-2.252 V -8.126 c 0,-4.112 1.371,-5.389 3.72,-5.389 h 1.958 c 0.295,-0.881 0.49,-1.859 0.49,-3.033 0,-1.761 -2.352,-3.823 -6.364,-3.823 -4.31,0 -7.64,3.236 -8.226,9.701 -3.429,-6.177 -10.285,-10.185 -18.412,-10.185 -12.629,0 -22.326,9.496 -22.326,25.262 0,17.235 11.653,29.377 25.95,29.377 5.876,0 10.968,-1.86 14.692,-5.189 z" /></g><g
         transform="translate(354.4434,226.2715)"
         id="g3813"><path
           inkscape:connector-curvature="0"
           id="path3815"
           style="fill:#000000;fill-opacity:1;fill-rule:nonzero;stroke:none"
           d="m 0,0 h 28.495 c 0.491,1.077 0.783,2.646 0.783,4.015 0,7.44 -4.798,12.238 -12.829,12.238 C 7.736,16.253 0.979,10.086 0,0 m 31.529,-20.664 c 0.688,-0.882 1.177,-2.543 1.177,-3.819 0,-2.643 -6.17,-6.559 -15.572,-6.559 -14.883,0 -25.947,11.26 -25.947,27.318 0,17.039 11.947,27.322 25.654,27.322 12.338,0 20.759,-8.127 20.759,-19.192 0,-2.842 -0.587,-5.679 -1.467,-7.639 -1.371,-3.133 -3.132,-4.015 -6.756,-4.015 L 0,-7.248 c 1.078,-10.773 8.91,-16.453 18.505,-16.453 4.605,0 9.009,0.886 13.024,3.037" /></g><g
         transform="translate(470.8398,198.6543)"
         id="g3817"><path
           inkscape:connector-curvature="0"
           id="path3819"
           style="fill:#407fbf;fill-opacity:1;fill-rule:nonzero;stroke:none"
           d="m 0,0 c -0.782,-1.664 -1.86,-2.251 -4.016,-2.251 h -7.735 L -28.103,55.134 C -31.824,37.898 -38.091,17.726 -46.32,0 c -0.683,-1.564 -1.86,-2.251 -4.012,-2.251 h -7.344 l -20.368,66.489 c 2.251,1.47 4.894,2.547 6.853,2.547 1.373,0 2.155,-0.391 2.644,-1.764 L -51.9,8.227 c 7.148,15.766 13.221,35.448 17.626,58.071 h 8.129 c 2.348,0 3.426,-0.687 3.916,-2.352 L -6.167,8.227 C 1.469,24.58 7.735,44.656 11.753,66.298 h 6.462 c 2.153,0 2.936,-0.783 2.644,-2.45 C 16.648,42.401 9.891,21.446 0,0" /></g><g
         transform="translate(533.9072,221.9639)"
         id="g3821"><path
           inkscape:connector-curvature="0"
           id="path3823"
           style="fill:#407fbf;fill-opacity:1;fill-rule:nonzero;stroke:none"
           d="m 0,0 c 0,13.509 -8.322,20.561 -17.331,20.561 -8.617,0 -16.353,-6.071 -16.353,-19.387 0,-13.512 8.323,-20.568 17.332,-20.568 C -7.735,-19.394 0,-13.319 0,0 m 8.716,0.584 c 0,-17.331 -11.75,-27.318 -25.558,-27.318 -13.808,0 -25.558,9.987 -25.558,27.318 0,17.331 11.75,27.321 25.558,27.321 13.808,0 25.558,-9.99 25.558,-27.321" /></g><g
         transform="translate(583.6885,244.7764)"
         id="g3825"><path
           inkscape:connector-curvature="0"
           id="path3827"
           style="fill:#407fbf;fill-opacity:1;fill-rule:nonzero;stroke:none"
           d="m 0,0 c 0,-0.684 -0.295,-1.466 -0.884,-2.152 -0.877,-1.177 -2.251,-2.255 -3.425,-2.938 -2.544,1.956 -5.973,2.838 -9.303,2.838 -6.168,0 -10.77,-3.819 -12.925,-11.651 v -34.47 h -5.776 c -2.059,0 -2.743,0.587 -2.743,2.155 V 3.627 c 1.958,0.584 4.014,0.879 5.876,0.879 1.861,0 2.643,-0.687 2.643,-2.056 v -6.266 c 3.134,5.384 8.422,8.909 15.275,8.909 3.822,0 6.856,-0.783 8.911,-2.056 C -0.585,1.959 0,1.276 0,0" /></g><g
         transform="translate(603.0371,195.7139)"
         id="g3829"><path
           inkscape:connector-curvature="0"
           id="path3831"
           style="fill:#407fbf;fill-opacity:1;fill-rule:nonzero;stroke:none"
           d="M 0,0 C -8.031,0 -12.243,5.292 -12.243,14.596 V 71.98 c 1.959,0.488 4.014,0.783 5.875,0.783 1.861,0 2.644,-0.687 2.644,-2.056 V 14.301 c 0,-5.19 2.058,-7.345 5.975,-7.345 1.86,0 4.114,0.395 5.68,1.078 C 8.518,7.151 9.007,5.683 9.007,4.605 9.007,2.845 5.676,0 0,0" /></g><g
         transform="translate(655.123,216.085)"
         id="g3833"><path
           inkscape:connector-curvature="0"
           id="path3835"
           style="fill:#407fbf;fill-opacity:1;fill-rule:nonzero;stroke:none"
           d="m 0,0 v 21.151 c -3.819,3.624 -8.521,5.288 -13.415,5.288 -10.675,0 -18.607,-9.3 -18.607,-21.836 0,-11.36 6.074,-18.213 15.57,-18.213 6.266,0 12.928,4.406 16.452,13.61 m 0,51.802 h 5.776 c 1.96,0 2.745,-0.684 2.745,-2.252 V -8.126 c 0,-4.112 1.37,-5.389 3.721,-5.389 h 1.959 c 0.292,-0.881 0.487,-1.859 0.487,-3.033 0,-1.761 -2.35,-3.823 -6.365,-3.823 -4.307,0 -7.637,3.236 -8.226,9.701 -3.427,-6.177 -10.283,-10.185 -18.409,-10.185 -12.634,0 -22.325,9.496 -22.325,25.262 0,17.235 11.65,29.377 25.949,29.377 5.875,0 10.965,-1.86 14.688,-5.189 z" /></g></g></g></svg>