<?xml version="1.0" encoding="utf-8"?>
<!-- Generator: Adobe Illustrator 23.0.2, SVG Export Plug-In . SVG Version: 6.00 Build 0)  -->
<svg version="1.1" id="Layer_1" xmlns="http://www.w3.org/2000/svg" xmlns:xlink="http://www.w3.org/1999/xlink" x="0px" y="0px"
	 viewBox="0 0 1000 1000" style="enable-background:new 0 0 1000 1000;" xml:space="preserve">
<style type="text/css">
	.st0{opacity:0.7;fill:#FFEE00;}
	.st1{opacity:0.7;fill:#CCA700;}
</style>
<g>
	<path class="st0" d="M482.5,649.6c13.2,0.4,26.2-3,38.5-7.8c8-3.2,15.8-7,23-11.8c30.5-20.4,47.9-59.9,42.9-97.7
		C577,456.7,468.3,405.4,413,461.7C358.6,517.1,403.3,647,482.5,649.6z"/>
	<path class="st1" d="M566.2,630.4c24.1-16.6,32-49.1,32.8-79c0.6-22.2-1.7-45-10.9-65.3c-20.4-45.2-76.6-70-122.2-53.8
		c18.9-20,50.4-21.7,76.8-13.9c39.1,11.5,73.3,42.4,86.1,82c12.8,39.5,2,86.6-28.8,113.1c-14.9,12.8-33.3,20.5-51.4,28"/>
	<g>
		<path d="M466,432.6c-21,0.1-41.3,16.1-54.6,31.1c-16.5,18.6-21.6,43.1-20.7,67.9c1.8,49.3,23.7,105,72,124.1
			c45.1,17.8,96.3-0.8,122.6-40.7c27.3-41.2,26.7-97.8-0.7-139.6c-15.5-23.6-38.7-41.4-65.8-47.9c-26.9-6.4-56-2-78.7,13.9
			c-4.9,3.5,0,11.7,5,8.2c38.2-26.8,90.9-16.9,121.8,17.9c30.7,34.6,37.8,86.5,18.5,127.9c-9.1,19.5-23.6,36.2-42.5,46.3
			c-18.3,9.8-40.2,13.3-60.8,9.5c-47.1-8.7-72.8-53.7-80-98.7c-4-24.9-4.3-54.8,10.9-75.9c6.5-9.1,15-16.9,24.1-23.1
			c8.5-5.9,18.5-11.4,29-11.4C472.3,442.2,472.1,432.6,466,432.6L466,432.6z"/>
	</g>
	<g>
		<path d="M411.3,477.4c2.2-8.1,8-14.1,14.3-19.1c6.9-5.5,14.2-10.7,21.5-15.6c14.2-9.7,29.1-17.3,46-20.6
			c29.4-5.7,61.1,1.4,86,18.7c52.7,36.6,63.1,117.8,22,166c-22.2,26-55.3,41.1-89.3,39.5c-6-0.3-5.8,9.3,0.2,9.6
			c32.9,1.5,65.2-11.7,88.8-34.7c24.2-23.6,36.9-57,35.1-91.4c-1.8-34.3-17-68.5-43.4-90.5c-25.5-21.3-59.4-31.5-91.8-27.8
			c-20.5,2.3-38.9,10.1-56,21.5c-8.9,5.9-17.8,12.2-26.1,19.1c-7.5,6.2-13.7,13.5-16.3,23.2C400.6,480.9,409.8,483.3,411.3,477.4
			L411.3,477.4z"/>
	</g>
	<g>
		<path d="M571.3,432.4c-3.7,9.6-7.5,19.3-11.2,28.9c-2.2,5.6,6,10.4,8.2,4.7c3.7-9.6,7.5-19.3,11.2-28.9
			C581.8,431.4,573.5,426.7,571.3,432.4L571.3,432.4z"/>
	</g>
	<g>
		<path d="M608.8,470.9c-5.7,5.9-10.7,12.5-14.7,19.8c-3,5.3,5.3,10,8.2,4.7c3.7-6.6,8.1-12.5,13.3-17.8
			C619.9,473.2,613.1,466.5,608.8,470.9L608.8,470.9z"/>
	</g>
	<g>
		<path d="M620.4,529.5c-4.7,3-9.5,6-14.2,9c-5.1,3.2-0.2,11.5,5,8.2c4.7-3,9.5-6,14.2-9C630.4,534.5,625.5,526.3,620.4,529.5
			L620.4,529.5z"/>
	</g>
	<g>
		<path d="M604.7,574.1c-2.2,2.1-4.4,4.2-6.7,6.3c-1.8,1.7-1.5,5.1,0.2,6.8c2,1.9,4.8,1.6,6.6-0.1c2.2-2.1,4.4-4.2,6.7-6.3
			c1.8-1.7,1.5-5.1-0.2-6.8C609.4,572.1,606.5,572.3,604.7,574.1L604.7,574.1z"/>
	</g>
	<path class="st1" d="M483.9,544.3c-3.7-0.6-7.3-1.2-11-1.8c-1-16.8-1.2-36,11.1-47.5c9-8.5,23.8-10.2,34.4-3.9s16.3,20,13.3,32
		c-3.3,12.9-15.4,25.8-9,37.5c1.4,2.5,3.5,4.5,4.4,7.2c2.2,6.5-3.9,13.3-10.5,15c-6.6,1.7-13.6,0.2-20.5,0
		c-10.8-0.3-30.9,5.9-32.1-8.7C463.7,572.3,487.5,544.9,483.9,544.3z"/>
	<g>
		<path d="M469.4,578.3c5.3-5.9,10.5-13.1,11.4-21.2c0.4-3.2-0.1-6.5-1.6-9.5c-2-3.8-5.7-5.5-8.4-8.6c-5-5.5-1.6-15,0.5-21
			c2.4-6.8,6.1-13.3,10.9-18.8c8.9-10.1,23.6-16.3,35.5-7.3c5,3.8,8.5,9.5,9.8,15.5c1.6,7.3-1,13.3-4.7,19.5
			c-2.4,4.2-4.9,8.4-6,13.2c-1,4.5-0.9,9-0.1,13.5c1.9,10.1,7.7,19.1,13.3,27.5c2.7,4,9.2,0.2,6.5-3.8c-5.2-7.7-10.6-15.9-12.5-25.2
			c-0.9-4.5-0.7-9.2,1-13.5c1.6-4.2,4.3-7.9,6.4-11.9c6.9-13.1,3.9-29-7.2-39c-11.4-10.2-27.7-9.8-39.8-1
			c-12.2,8.9-20.7,24.1-23.3,38.9c-0.8,4.5-1,9.2,0.8,13.6c1.9,4.6,5.7,6.5,9,9.9c6.6,7.1-2.2,18.2-7,23.7
			C460.9,576.6,466.2,581.9,469.4,578.3L469.4,578.3z"/>
	</g>
	<g>
		<path d="M417.7,522.2c-2.2-23.2,11.4-46,32.8-55.1c3.3-1.4,0.5-6.3-2.9-4.9c-23,9.8-38,35.1-35.6,60
			C412.3,525.8,418,525.8,417.7,522.2L417.7,522.2z"/>
	</g>
	<g>
		<path d="M532.3,628c18.4-9.4,33.3-25.4,41.6-44.4c8.6-19.7,9.5-42.1,2.9-62.5c-3.7-11.6-9.7-22.2-17.6-31.4c-2.4-2.8-6.4,1.2-4,4
			c13.3,15.5,20.5,35.7,20.3,56.1c-0.2,19.7-7.8,38.8-20.7,53.5c-7.1,8.2-15.7,14.9-25.4,19.8C526.2,624.8,529,629.7,532.3,628
			L532.3,628z"/>
	</g>
</g>
</svg>
