<svg version="1.1" id="Layer_1" xmlns="http://www.w3.org/2000/svg" x="0" y="0" viewBox="0 0 1000 1000" xml:space="preserve"><style>.st1{opacity:.7;fill:#cca700}</style><path d="M482.5 649.6c13.2.4 26.2-3 38.5-7.8 8-3.2 15.8-7 23-11.8 30.5-20.4 47.9-59.9 42.9-97.7-9.9-75.6-118.6-126.9-173.9-70.6-54.4 55.4-9.7 185.3 69.5 187.9z" opacity=".7" fill="#fe0"/><path class="st1" d="M566.2 630.4c24.1-16.6 32-49.1 32.8-79 .6-22.2-1.7-45-10.9-65.3-20.4-45.2-76.6-70-122.2-53.8 18.9-20 50.4-21.7 76.8-13.9 39.1 11.5 73.3 42.4 86.1 82 12.8 39.5 2 86.6-28.8 113.1-14.9 12.8-33.3 20.5-51.4 28"/><path d="M466 432.6c-21 .1-41.3 16.1-54.6 31.1-16.5 18.6-21.6 43.1-20.7 67.9 1.8 49.3 23.7 105 72 124.1 45.1 17.8 96.3-.8 122.6-40.7 27.3-41.2 26.7-97.8-.7-139.6-15.5-23.6-38.7-41.4-65.8-47.9-26.9-6.4-56-2-78.7 13.9-4.9 3.5 0 11.7 5 8.2 38.2-26.8 90.9-16.9 121.8 17.9 30.7 34.6 37.8 86.5 18.5 127.9-9.1 19.5-23.6 36.2-42.5 46.3-18.3 9.8-40.2 13.3-60.8 9.5-47.1-8.7-72.8-53.7-80-98.7-4-24.9-4.3-54.8 10.9-75.9 6.5-9.1 15-16.9 24.1-23.1 8.5-5.9 18.5-11.4 29-11.4 6.2.1 6-9.5-.1-9.5z"/><path d="M411.3 477.4c2.2-8.1 8-14.1 14.3-19.1 6.9-5.5 14.2-10.7 21.5-15.6 14.2-9.7 29.1-17.3 46-20.6 29.4-5.7 61.1 1.4 86 18.7 52.7 36.6 63.1 117.8 22 166-22.2 26-55.3 41.1-89.3 39.5-6-.3-5.8 9.3.2 9.6 32.9 1.5 65.2-11.7 88.8-34.7 24.2-23.6 36.9-57 35.1-91.4-1.8-34.3-17-68.5-43.4-90.5-25.5-21.3-59.4-31.5-91.8-27.8-20.5 2.3-38.9 10.1-56 21.5-8.9 5.9-17.8 12.2-26.1 19.1-7.5 6.2-13.7 13.5-16.3 23.2-1.7 5.6 7.5 8 9 2.1z"/><path d="M571.3 432.4c-3.7 9.6-7.5 19.3-11.2 28.9-2.2 5.6 6 10.4 8.2 4.7 3.7-9.6 7.5-19.3 11.2-28.9 2.3-5.7-6-10.4-8.2-4.7zm37.5 38.5c-5.7 5.9-10.7 12.5-14.7 19.8-3 5.3 5.3 10 8.2 4.7 3.7-6.6 8.1-12.5 13.3-17.8 4.3-4.4-2.5-11.1-6.8-6.7zm11.6 58.6c-4.7 3-9.5 6-14.2 9-5.1 3.2-.2 11.5 5 8.2 4.7-3 9.5-6 14.2-9 5-3.2.1-11.4-5-8.2zm-15.7 44.6c-2.2 2.1-4.4 4.2-6.7 6.3-1.8 1.7-1.5 5.1.2 6.8 2 1.9 4.8 1.6 6.6-.1 2.2-2.1 4.4-4.2 6.7-6.3 1.8-1.7 1.5-5.1-.2-6.8-1.9-1.9-4.8-1.7-6.6.1z"/><path class="st1" d="M483.9 544.3c-3.7-.6-7.3-1.2-11-1.8-1-16.8-1.2-36 11.1-47.5 9-8.5 23.8-10.2 34.4-3.9s16.3 20 13.3 32c-3.3 12.9-15.4 25.8-9 37.5 1.4 2.5 3.5 4.5 4.4 7.2 2.2 6.5-3.9 13.3-10.5 15-6.6 1.7-13.6.2-20.5 0-10.8-.3-30.9 5.9-32.1-8.7-.3-1.8 23.5-29.2 19.9-29.8z"/><path d="M469.4 578.3c5.3-5.9 10.5-13.1 11.4-21.2.4-3.2-.1-6.5-1.6-9.5-2-3.8-5.7-5.5-8.4-8.6-5-5.5-1.6-15 .5-21 2.4-6.8 6.1-13.3 10.9-18.8 8.9-10.1 23.6-16.3 35.5-7.3 5 3.8 8.5 9.5 9.8 15.5 1.6 7.3-1 13.3-4.7 19.5-2.4 4.2-4.9 8.4-6 13.2-1 4.5-.9 9-.1 13.5 1.9 10.1 7.7 19.1 13.3 27.5 2.7 4 9.2.2 6.5-3.8-5.2-7.7-10.6-15.9-12.5-25.2-.9-4.5-.7-9.2 1-13.5 1.6-4.2 4.3-7.9 6.4-11.9 6.9-13.1 3.9-29-7.2-39-11.4-10.2-27.7-9.8-39.8-1-12.2 8.9-20.7 24.1-23.3 38.9-.8 4.5-1 9.2.8 13.6 1.9 4.6 5.7 6.5 9 9.9 6.6 7.1-2.2 18.2-7 23.7-3 3.8 2.3 9.1 5.5 5.5zm-51.7-56.1c-2.2-23.2 11.4-46 32.8-55.1 3.3-1.4.5-6.3-2.9-4.9-23 9.8-38 35.1-35.6 60 .3 3.6 6 3.6 5.7 0z"/><path d="M532.3 628c18.4-9.4 33.3-25.4 41.6-44.4 8.6-19.7 9.5-42.1 2.9-62.5-3.7-11.6-9.7-22.2-17.6-31.4-2.4-2.8-6.4 1.2-4 4 13.3 15.5 20.5 35.7 20.3 56.1-.2 19.7-7.8 38.8-20.7 53.5-7.1 8.2-15.7 14.9-25.4 19.8-3.2 1.7-.4 6.6 2.9 4.9z"/></svg>