<svg version="1.1" id="Layer_1" xmlns="http://www.w3.org/2000/svg" x="0" y="0" viewBox="0 0 1000 1000" xml:space="preserve"><style>.st1{fill:#ffa617}.st3{fill:#fff}</style><g opacity=".7"><path class="st1" d="M343.1 328.4c-2.2-4-4.5-8.5-3.8-13 .7-4.6 4.4-8 7.8-11.2 16.8-15.3 33.6-30.6 50.4-46-2.8-1.3-5.6-2.5-8.4-3.8 4.4-4.5 8.8-9 13.2-13.4-3.4-3.6-6.7-7.1-10.1-10.7 16.5-4.3 34.6-1.8 49.3 6.7 15.5-26 52.4-36.4 79.2-22.4 13.6-8.3 30.9-10.1 45.9-4.9 15 5.2 27.5 17.4 33.1 32.2 3.7-7.2 13.8-8.8 21.2-5.6s12.7 9.8 17.7 16.1c11.9 15.1 20.9 21.7 32.8 36.8 4.7 6 21.1 18 21.9 25.5.9 8.7-9.8 22.3-14.3 29.8-11 18.4-24.4 34.2-35.4 52.5-2 3.3-4.2 6.8-7.8 8-5.8 1.9-12-3.7-13-9.8s1.4-12.1 3.7-17.8c2.3-5.7 4.5-12 2.9-17.9-.9-3.3-3.8-6.7-7.2-5.9-1.6.4-2.8 1.7-3.8 2.9-11.4 13.5-16.2 32.2-12.6 49.5 2.4 11.6 3.2 25.6 6.6 37 5.3 17.6-17.9 18.6-30.5 23.3-37.9 14.2-80.4 15.7-119.2 4-14.7-4.4-29.3-11.6-35.3-26.6-2-5.2-.6-21.1-4.6-24.3-4.2-3.4-9 1.1-13.6 1.3-19.3.9-25.3-18.1-33.5-32.9-10.8-19.8-21.7-39.6-32.6-59.4zm41.8 281c-1.6 5.8-3.3 12.3-.5 17.7 2.8 5.4 12 7.1 14.5 1.6l.9 29.4c-7.3-12.8-20.9-21.8-35.6-23.3-14.7-1.5-29.9 4.4-39.7 15.4 9.2 5.8 18.5 11.6 27.8 17.4-15.6 9.1-23.5 28.5-21.7 46.5 1.9 18 12.2 34.3 25.6 46.5 4.2 3.8 8.9 7.5 11.7 12.4 2.8 5 3.3 11.8-.6 16-3.4 3.6-8.8 4.1-13.3 6.2-15.2 7-14.6 30.9-2.7 42.7s29.8 14.7 46.4 16.4c92 9.8 230.3 15.7 276.2-11.2 11.5-6.8 26.9-5.6 36.9-14.4s14.5-25.4 6.2-35.8c-6.8-8.5-20.7-12-22.2-22.7-1-6.8 3.8-12.9 7.8-18.5 15.1-21.4 20.7-52.9 3.9-73-4.3-5.1-10.2-11.1-7.6-17.2 2-4.8 8.5-6.8 9.8-11.8 1.7-6.2-6.3-11.2-12.7-10.4s-12 4.7-18.4 6c-9.7 1.9-20.3-3.5-24.5-12.4-4.2-8.9-1.5-20.6 6.1-26.8 2-1.6 4.3-3 5.8-5.1 2.6-3.7 2-8.7 1.2-13.1-5.9-32.5-17.4-64-33.8-92.6 1.2 2-71.4 20.6-78.5 21.6-27.4 3.9-55.3 4.4-82.8 1.3-18.6-2.1-58-28.1-60.7 2.5-2.3 27.6-17.9 62-25.5 88.7z"/><path class="st1" d="M275.9 758.7c-2.2 7-9.2 11.1-15.6 14.7-19.9 11.1-39.8 23.5-53.6 41.6s-20.8 43-12.4 64.2c7.9 19.7 29.1 33.1 50.2 31.9s40.6-17.1 46.1-37.6c-11.9 3.5-27.7 5.6-33.9-5.1-5.5-9.5 2.4-22 12.4-26.6s21.5-4 32.4-6c36.9-6.6 72.9-51.7 54.7-89.8-14.9-31.1-68.9-11.7-91.1-.7 7-.6 13 6.2 10.8 13.4z"/><path d="M505.5 483.7c6.1.2 12.3.3 18.2-1.5 5.9-1.8 11.4-6 13.5-12.2 3.8-11.2-5.1-23.7-2.1-35.2-17.5 2-40.2-34.6-53.1-2.8-10.1 24.9-3.7 50.9 23.5 51.7z" fill="#ff7878"/><path class="st3" d="M467.7 442.3c2.4-4.2 9.6-4.4 12.1-.2 2.6 4.1-.7 10.5-5.5 10.8s-8.9-5.6-6.9-10m74.2-3.9c3.4.5 6.3 3.3 6.9 6.7s-1.3 7-4.3 8.6"/><path d="M415.4 471.1c-7.3 5.6-6.3 17.7-.2 24.6s15.4 9.8 24.3 11.9c32.7 7.7 66.9 8.8 100.1 3.2 6.1-5.6 2.3-16.6-4.8-20.6-7.2-4.1-15.9-3.5-24.1-3.1-35.5 1.6-66.9-1.8-95.8-22.4-2.6 9.2 3.8 18.9 1.2 28.2M576.5 505c18.8-9.9 42.3-7.2 61.5-16.2-8.4-5.6-4.2-22.5-13.8-25.7-2.8-.9-5.8-.2-8.6.6-15.1 4-40.9 7.4-53.2 17.2-14.4 11.5-13 38.4 14.1 24.1z" fill="#03b4e6"/><path d="M550.1 525.1c-5-2.9-11.4 2.1-12.4 7.8-1.5 8.7 6.8 17.5 15.6 16.6s14.9-11.5 11.5-19.6-15.2-11.1-22-5.5m4.9-9.3c-.4-9.7-3.7-19.2-9.5-27.1 0-2.8 3.7-4.2 6.3-3.1s4 3.8 5 6.3c3.8 9.2 4.9 19.5 3.1 29.2" fill="#ffe603"/><path d="M482.1 405.1c-3.9 5.8-3.2 14.4 1.6 19.5 9.5-5.2 21.8-4.6 30.7 1.6 3.9-3.2 2.4-10-1.6-13.2-4-3.1-9.3-3.7-14.3-4.4s-10.4-1.7-13.9-5.4" fill="#423f39"/></g><path d="M469.9 363c-3.6 3.7-4.4 11.4-3 17.3 1.5 5.9 4.3 12.4 7.6 16.2 8.5 9.8 19 15.4 29.9 16.7 13.4 1.6 45.2-20 30-43.3-8-12.1-56.3-15.4-64.5-6.9z" fill="#1c1203"/><path d="M444.6 222.2c16.1-19.8 46.3-26.4 69.2-15.2 3.4 1.6 6.6-3.3 3.2-4.9-26-12.8-59-5.6-77.3 16.9-2.4 2.9 2.5 6.1 4.9 3.2z"/><path d="M514 208.4c12.7-10.2 29.5-14.8 45.6-12.3 15.4 2.4 29.7 11.7 38.4 24.6 2.1 3.1 7.3.4 5.2-2.7-9.8-14.5-25-24.6-42.3-27.6-18-3.1-36.7 2.2-50.8 13.6-2.9 2.5 1 6.8 3.9 4.4zm-80.5 16.1c-14.1-8.8-31.3-14.1-48-13.1-6.2.4-12.2 4.9-8.5 11.7 1.8 3.3 5.1 5.6 7.9 7.9 3.7 2.9 7.5 5.7 11.5 8.2.8-1.8 1.7-3.5 2.5-5.2-14.1-4-29.7 3.9-34.7 17.7-1.3 3.6 4.3 5.4 5.6 1.9 3.9-10.7 16.3-17.1 27.3-13.9 3.1.9 5.4-3.4 2.5-5.2-5.4-3.5-11.1-7.2-15.6-11.8-.9-.9-2.5-2.4-2-3.7.4-1.1 1.7-1.3 2.8-1.5 3-.4 6.3-.1 9.3.1 12.9.9 25.3 5.1 36.2 12 3.2 1.8 6.5-3.1 3.2-5.1zm-47.8 25.2c-28.7 18.5-54 41.7-75.1 68.6-1.8 2.2 1.4 5.9 3.8 4.2l4.5-3c3.1-2.1.4-7.3-2.7-5.2l-4.5 3c1.3 1.4 2.5 2.8 3.8 4.2 20.4-26.1 45.1-48.6 72.9-66.6 3.2-2 .5-7.3-2.7-5.2z"/><path d="M318 311c-4.3 4.9-8.9 11.7-4.5 18.1 1.7 2.5 4.5 3.7 7.5 3.6 3.3-.2 6.8-2.8 10.1-2.1.4-1.9.7-3.8 1.1-5.7-3.3.2-4.9 2.5-4.7 5.7.3 4.2 3.9 8 6.1 11.4 5.7 8.9 11.5 17.7 17.2 26.5 11.6 17.9 23.2 35.8 34.7 53.6 2 3.1 7.3.5 5.2-2.7-9.9-15.4-19.9-30.7-29.8-46.1l-14.7-22.8c-2.5-3.8-4.9-7.6-7.4-11.4-1.2-1.8-2.3-3.6-3.5-5.4-.5-.8-1.4-1.8-1.7-2.8-.1-.2-.1-.5-.2-.7.1-1.1-.4-1-1.5.3 2.9-.2 4.6-5 1.1-5.7-2-.4-3.9-.4-5.9.1-2.1.5-4.3 1.8-6.5 1.8-2.3-.1-3.1-2.2-2.9-4.3.3-2.8 2.5-5.2 4.3-7.2 2.4-2.7-1.5-7.1-4-4.2zm97.5-28.5c-7 6-9.9 14.8-11.7 23.5-2.2 10.4-4.1 21-5.6 31.6-3.1 21.5-3.8 43.8 3 64.8 1.2 3.6 6.9 2.3 5.7-1.3-6.4-19.7-6-40.5-3.2-60.8 1.4-10.2 3.2-20.4 5.3-30.5 1.7-8.3 3.8-17.1 10.5-22.9 2.9-2.5-1.1-6.8-4-4.4zm85 77.6c-17-4.9-39.2 8.5-35.3 28 4 20.1 29.1 28.5 47 27.9 3.8-.1 4.1-6 .3-5.9-14.8.5-34.9-5.1-40.8-20.5-6-15.8 13.2-27.9 27-23.9 3.6 1 5.5-4.5 1.8-5.6z"/><path d="M525.1 368.3c7.4 5.1 10.7 15.2 8.1 23.8-2.7 8.8-11.3 15-20.5 14.2-3.8-.3-4.1 5.5-.3 5.9 11.7 1 23-7 26.4-18.2 3.4-11.1-.9-23.9-10.5-30.5-3.1-2.3-6.3 2.6-3.2 4.8zm-52.5 18.4c8.5 3.1 17.3 4.2 26.2 3.4 3.8-.3 2.5-6.1-1.3-5.7-7.9.7-15.7-.5-23.1-3.2-3.5-1.4-5.3 4.2-1.8 5.5zm-8.9-78.7c3.8.2 4.1-5.7.3-5.9-3.8-.2-4.1 5.7-.3 5.9z"/><path d="M464.9 303.4c-4.4-3.1-10.9-11-4-15.2 6.6-4.1 9.6 10.6 9.5 14.7-.1 3.1-1 5.8-4.6 5.5-2.6-.3-4.8-2-6.2-4.2-1.2-2-1.8-4.4-1.7-6.7.1-1.3.3-2.6.8-3.8.2-.5.5-.9.7-1.4.2-.3.4-.6.7-.9.6-.5.4-1-.7-1.5.1-.8.3-1.5.4-2.2l-.3.6c-1.7 3.3 3.2 6.6 4.9 3.2 2-3.9-1.5-8-5.7-6.3-3.6 1.5-5.8 6.1-6.4 9.7-1.4 7.6 2.5 16.5 10.3 18.9 23.4 7.1 13.6-41.7-4.7-30.5-4.3 2.6-6.5 7.7-5.5 12.6 1 5.4 5 9.6 9.4 12.6 3 2 6.2-2.9 3.1-5.1zm91.4 6.6c.2-4.6 1.1-9.5 3.5-13.5 1.4-2.4 7.1-7.5 7.2-1.6 0 4.4-8.7 20.6-13.9 14.4-2.4-2.9-6.8 1-4.4 3.9 10.2 12.1 25.9-10.3 24-20.4-1.3-6.7-8.4-8.3-13.5-4.5-6.3 4.8-8.4 13.9-8.7 21.4-.3 3.8 5.6 4.1 5.8.3zm-11.4-56.3c-1.4-3.1-3.3-7-2.5-10.5.5-2.3 3.3-4.9 5.7-3.4 3.2 2 6.4-2.9 3.2-4.9-4.6-2.9-10.3-.8-13.1 3.5-3.7 5.6-1 12.6 1.5 18 1.6 3.5 6.8.8 5.2-2.7zm-70.9 1.4c2.7-7.7-1.2-15.9-8.5-19.2-1.3-.6-2.6.2-3.4 1.2-2.5 3-2.2 6.9 0 9.9 2.2 3.1 6.5-.9 4.4-3.9-.7-1-.1-2 .6-2.8-1.1.4-2.3.8-3.4 1.2 4.4 2 6.3 7.4 4.8 11.8-1.3 3.6 4.3 5.4 5.5 1.8z"/><path d="M555.7 309.5c-.6-4.7-.9-13.8 5.2-15.3 5.4-1.3 5.2 7.3 4.5 10.5-.7 3.6-4.7 13.7-10 10.1-2.3-1.5-1.9-5.3-1.1-7.5 1.1-2.9 3.3-5.2 5.4-7.5 2.6-2.7-1.3-7.1-3.9-4.4-3.5 3.7-7 7.7-7.8 12.9-.6 4.1.5 8.9 4.2 11.3 9.3 6.1 17.1-5.4 18.8-13.2 1.5-7 0-18.5-9.4-18.3-11.3.2-12.8 14.2-11.7 22.6.6 3.8 6.3 2.5 5.8-1.2z"/><path d="M560.2 293.7c5 1.4 9.5 3.6 13.6 6.8 3 2.3 6.2-2.6 3.2-4.9-4.5-3.5-9.5-6-15-7.5-3.6-1-5.4 4.6-1.8 5.6zm-96.6-9.5c-5.9-.8-11.8.5-16.9 3.5-3.2 1.9-.6 7.1 2.7 5.2 4.3-2.6 8.9-3.5 13.9-2.8 3.8.5 4.1-5.4.3-5.9zM443 334.8c-12.6 6.4-19.2 22.2-14.6 35.6 1.2 3.5 7 2.3 5.7-1.3-3.8-11 1-23.8 11.5-29.2 3.5-1.6.8-6.8-2.6-5.1z"/><path d="M437.5 358c-15.4 12.1-22.6 33.1-15.4 51.7 7.2 18.5 25.8 27.6 45 24.8 11-1.7 21.2-6.7 30-13.3 3-2.3-.9-6.6-3.9-4.4-16.4 12.5-42.5 19.1-58.4 2.1-15.8-17-10.6-42.9 6.8-56.5 2.8-2.3-1.1-6.7-4.1-4.4z"/><path d="M497.8 421.1c9.3 5.1 18.7 10.3 29 13.1 9.2 2.5 18.9 2.8 28.2.8 16.4-3.4 37.3-15.4 39.9-33.6 1.7-11.8-4.9-23-11-32.6-2-3.2-7.2-.5-5.2 2.7 6 9.5 13.8 21.9 9.2 33.6-3.8 9.5-13.9 16.5-22.9 20.5-9.4 4.2-20 5.7-30.2 4.2-12.2-1.7-23.2-7.9-33.8-13.8-3.3-1.7-6.5 3.2-3.2 5.1zm-24.1 36.6c-.8 6.5-1.1 14.4 1.1 20.6 1.8 5.2 9.3 2.9 7-2.1-1.6-3.4-6.8-.7-5.2 2.7.1.1.1.3.2.4 0-1 .1-2 .1-3-.1.2-.2.3-.3.5.6-.4 1.2-.8 1.8-1.3-.2 0-.4.1-.6.1.8.1 1.5.3 2.2.4.5.6.5.3 0-.9-.2-.8-.3-1.6-.4-2.4-.3-1.7-.4-3.5-.5-5.2-.1-3.2 0-6.4.4-9.6.5-3.7-5.4-4-5.8-.2z"/><path d="M531.8 474.9h-.3c-1.4.1-2.4.7-2.9 2-1.4 3.6 3 6.2 5.8 3.7 1.4-1.2 2-3.6 2.6-5.3 1-2.5 1.8-5.1 2.4-7.8 2.3-10 2.3-20.4 0-30.4-.9-3.7-6.6-2.4-5.7 1.3 1.5 6.4 2 12.9 1.4 19.5-.3 3.2-.8 6.4-1.7 9.5-.4 1.5-.8 3-1.4 4.5-.3.8-1 4-1.7 4.3 1 0 2 .1 3 .1-.1-.1-.2-.1-.3-.2.4.6.8 1.2 1.3 1.8v.8c-1 .7-2 1.3-2.9 2h.3c3.6-.1 3.9-5.9.1-5.8zM504 452c-2-6.9-.6-14.4 4.2-19.9 2.5-2.8-1.4-7.2-3.9-4.4-6.2 7-8.7 16.4-6 25.5 1 3.7 6.7 2.5 5.7-1.2zm102.8-209.4c6.7-6.8 15.3-11.3 24.8-12.7 3.3-.5 9.6-1 9.4 3.8-.2 4.9-4 10.5-7.1 14-1.9 2.2-.4 5.4 2.6 5.1 1.6-.2 5.4-.7 4.9 1.8-.3 1.5 1.3 3.1 2.8 3.1 1.6 0 3.2-.1 4.7-.1-.9-1-1.9-2.1-2.8-3.1.9 20.4.1 40.7-2.4 61-.5 3.8 5.4 4 5.9.3 2.5-20.2 3.3-40.6 2.4-61-.1-1.5-1.1-3.1-2.8-3.1-1.6 0-3.2.1-4.7.1.9 1 1.9 2.1 2.8 3.1.5-2.6-.8-5.1-2.9-6.6-2.7-1.9-6-1.7-9.2-1.3.9 1.7 1.7 3.4 2.6 5.1 4.2-4.9 8.2-11 9-17.6.8-6.1-3.7-9.9-9.4-10.6-5.9-.8-12.3 1.1-17.7 3.2-6.3 2.5-12 6.3-16.8 11.1-2.7 2.7 1.3 7.1 3.9 4.4zm52.5 20.8c17.4 6.5 30.3 22 33.7 40.2.7 3.7 6.4 2.5 5.7-1.3-3.8-20.2-18.4-37.4-37.6-44.5-3.5-1.3-5.3 4.2-1.8 5.6z"/><path d="M681.9 293.6c5.8 2.2 11.4 4.8 16.8 8 2.3 1.4 4.5 2.8 6.7 4.4 1 .7 2.5 1.5 3.3 2.5 1.1 1.5.6 2.6-.1 4.2-4.8 11-10.7 21.5-16.6 31.9-12 20.9-25.6 40.9-40.7 59.7-2.4 3 2.6 6.1 4.9 3.2 13.1-16.3 25.1-33.5 35.9-51.5 5.4-9 10.4-18.1 15.2-27.5 2.3-4.5 4.5-8.9 6.6-13.5 1.9-4.1 2-7.8-1.5-11.1-3.7-3.5-8.5-6.2-12.9-8.7-5-2.8-10.3-5.2-15.7-7.2-3.6-1.2-5.5 4.3-1.9 5.6zm-45.2 56.6c-6.6 21.6-8 44.4-4 66.5.4 2 2.5 2.6 4.2 2 2.8-1.1 4.1-3.3 4.6-6.1.7-3.7-5.2-4-5.9-.3-.2.7-.7 1.1-1.4 1.2 1.4.7 2.8 1.3 4.2 2-3.8-21.1-2.4-42.9 3.9-63.4 1.1-3.7-4.5-5.5-5.6-1.9z"/><path d="M642.4 423.6l18.6-38.7c1.6-3.4-4-5.2-5.6-1.9l-18.6 38.7c-1.6 3.5 4 5.3 5.6 1.9zm-21.7-131.8c12.1 40.8-2.4 82.5-16.7 120.6-1.3 3.5 4.2 5.4 5.6 1.9 14.7-39.1 29.2-82 16.9-123.8-1.1-3.6-6.9-2.4-5.8 1.3zm-160.6-2.4c-2.5 5.6.5 11.8 5.9 14.2 1.9.9 3.6-1 3.9-2.6.7-4.2-.2-8.4-2.6-12-1.4-2-4.6-2.2-5.4.4-2.4 7.5.4 15.6 6.8 20.1 2.2 1.5 4.9-.7 4.5-3.1-.6-3.8-1.5-7.5-2.8-11.1-.8-2.3-1.6-6.5-4.7-6.7-5.1-.3-4.5 8.8.6 7.3 3.6-1.1 2.4-6.8-1.3-5.7-.1 0-.2.1-.3.1.8.1 1.5.3 2.2.4-.1 0-.1-.1-.2-.1.4.6.8 1.2 1.3 1.8-.1.3-.1.6-.2.9-.6.4-1.2.8-1.8 1.3.1 0 .2-.1.2-.1-.8-.1-1.5-.3-2.2-.4-.4-.3.5 2 .6 2.3.5 1.4.9 2.8 1.3 4.2.7 2.4 1.2 4.8 1.5 7.3 1.5-1 3-2.1 4.5-3.1-4.3-3-6-8.4-4.4-13.3-1.8.1-3.6.3-5.4.4 1.9 2.8 2.5 5.6 2 9 1.3-.9 2.6-1.8 3.9-2.6-2.7-1.2-3.2-4.3-2.1-6.8 1.4-3.7-4.2-5.5-5.8-2.1zm103.3 3.6c-5.8 3-8.3 10-6.6 16.2.6 2.2 3 2.9 4.8 1.5 3.8-2.9 5.7-7.4 5.9-12.1.1-2.6-3-3.9-4.9-2.3-3.9 3.2-5.9 8-5.6 13 .1 1.7 1.6 3.7 3.6 3 4.2-1.5 6.5-5.7 5.2-10-.6-1.9-2.4-2.8-4.2-2-5.3 2.5-7.5 8.1-7 13.6.3 3.8 6.1 2.5 5.7-1.3-.3-3 1.3-5.9 4-7.1-1.4-.7-2.8-1.3-4.2-2 .3.9.5 2.6-.7 3l3.6 3c-.2-3.6.9-6.7 3.7-9-1.6-.8-3.3-1.5-4.9-2.3-.1 3.3-1.4 6-4 8l4.8 1.5c-1-3.6.1-7.9 3.6-9.7 3.3-1.5.6-6.8-2.8-5zM412.8 403.1c-.5-.6-1.1-1.2-1.6-1.8-.5-.6-1.3-.9-2-1-.7 0-1.6.2-2.1.8-1.1 1.1-1.3 2.9-.2 4.1.5.6 1.1 1.2 1.6 1.8.5.6 1.3.9 2 1 .7 0 1.6-.2 2.1-.8 1.2-1.1 1.3-2.9.2-4.1z"/><path d="M405.1 404.3c3.2 11 2.6 22.4-1.8 33 1.8-.1 3.6-.3 5.4-.4-6.9-13.1-13-26.7-18-40.6-1.3-3.5-7-2.3-5.7 1.3 5.2 14.5 11.3 28.5 18.5 42.1 1.2 2.4 4.5 1.8 5.4-.4 4.8-11.5 5.5-24.2 2-36.1-1.2-3.8-6.9-2.6-5.8 1.1zm64.7 42.3c-2.1-2.9.8-6.3 4-5.4 2.6.7 3 4.7.7 6.1-3.1 2-.5 7.3 2.7 5.2 6.5-4.2 6.1-15-2-17.1-3.5-.9-7.5.2-9.8 3-3 3.6-2.5 8.4.1 12 .9 1.3 3.1 1.2 4.1.2 1.3-1 1.1-2.7.2-4zm73.3-.9c.2 4.8-1.2 9.4-4.5 13-2.5 2.8 1.4 7.2 3.9 4.4 4.2-4.8 6.6-10.6 6.4-17-.1-3.8-6-4.2-5.8-.4z"/><path class="st3" d="M457.8 291.5c0 .6-.1 1.1-.1 1.7 0 .8.2 1.6.8 2.1.5.5 1.3 1 2 1 1.6 0 3-1.1 3.1-2.8 0-.6.1-1.1.1-1.7 0-.8-.2-1.6-.8-2.1-.5-.5-1.3-1-2-1-1.6.1-3 1.2-3.1 2.8zm102.6 5.6c-.8 1.3-.7 2.9.3 4 .6.7 1.7 1.1 2.6 1.2 1 0 2-.2 2.7-.9 1.1-1 1.4-2.7.7-4-.4-.7-1-1.2-1.7-1.4-.7-.2-1.6-.2-2.3.2s-1.2 1-1.4 1.7c-.2.8-.2 1.6.2 2.3v.1c-.1-.2-.2-.5-.3-.7v.1c0-.3 0-.5-.1-.8v.1c0-.3.1-.5.1-.8v.1c.1-.2.2-.5.3-.7.2-.2.3-.4.5-.6l-.1.1c.2-.1.4-.3.6-.4 0 0-.1 0-.1.1.2-.1.5-.2.7-.3-.1 0-.2 0-.2.1.3 0 .5 0 .8-.1h-.4c.3 0 .5.1.8.1-.1 0-.2 0-.2-.1.2.1.5.2.7.3 0 0-.1 0-.1-.1.2.2.4.3.6.5l-.1-.1c.1.2.3.4.4.6v-.1c.1.2.2.5.3.7v-.1c0 .3 0 .5.1.8v-.1c0 .3-.1.5-.1.8v-.1c-.1.2-.2.5-.3.7v-.1c.4-.6.6-1.5.4-2.2-.2-.7-.6-1.5-1.3-1.8-1.4-.7-3.2-.4-4.1.9z"/><path d="M413.9 442.7c-7.6 52.1-18.5 103.7-32.7 154.4-1 3.6 4.6 5.5 5.6 1.8 14.2-51.2 25.2-103.4 33-156 .5-3.7-5.4-3.9-5.9-.2z"/><path d="M392.1 585.7c-6.3 6.6-11.8 13.9-16 22-3.2 6.1-6.1 12.7-4.8 19.8 1.1 5.8 6 10 12.1 8.5 2.9-.7 5.2-2.5 7.6-4.2 2.1-1.5 4.6-3.8 7.3-2.6-.7-1-1.3-2-2-2.9-1.7 10.2-3.4 20.3-5.1 30.5.5-.8 1-1.6 1.6-2.5-.1.1-.3.1-.4.2.8-.1 1.5-.1 2.3-.2-2.3-.5 0 6.2.1 6.8.5 1.7.9 3.3 1.4 5 .8 2.9 1.6 5.8 2.5 8.8 1.8 6.2 3.5 12.5 5.3 18.8 3.4 12.1 6.8 24.2 10.2 36.2 7 24.6 13.9 49.2 20.9 73.8 1 3.6 6.8 2.4 5.7-1.3-8.2-29-16.4-57.9-24.6-86.9-4.1-14.4-8.1-28.8-12.2-43.1-1-3.5-2-7.1-3-10.6-.8-2.7-1.2-6.2-3.2-8.4-3.1-3.3-8.9-1.3-7.7 3.6.5 2.1 2.4 3.5 4.6 2.9 3-.9 2.8-5.4 3.2-7.9 1.4-8.5 2.9-16.9 4.3-25.4.2-1.3-.9-2.5-2-2.9-4.9-2.1-9.3 1.1-13.1 3.8-3.7 2.6-8.9 5-10-1.3-1.1-6.1 2.2-12.1 5-17.2 3.8-6.9 8.5-13.2 14-18.9 2.6-2.7-1.3-7.1-4-4.4zm219.3-176.3c7.8 24.9 15.7 49.8 23.5 74.7 7.7 24.5 16 48.9 22.9 73.6 3.7 13.3 6.4 27 5.5 40.9-.2 3.8 5.6 4.1 5.9.3 1.7-25-7.5-49.1-14.8-72.5-7.9-25.1-15.8-50.2-23.7-75.4-4.5-14.3-9-28.6-13.5-43-1.1-3.4-6.9-2.2-5.8 1.4z"/><path d="M640.6 554.5a61.66 61.66 0 0 1 26.6 28.9c2.7 5.9 4.4 12.3 5 18.8.1 1.4.7 3.7-1.1 3.9-1.5.2-3-1.3-3.9-2.2-2.4-2.4-4.4-4.7-7.7-5.9-2.1-.7-4.4 1.3-3.8 3.4 5.3 20.5 10 41.1 11.4 62.2 1.4 21.8-.7 43.6-4 65-1.9 12.5-4.3 24.8-6.6 37.2-.7 3.7 4.9 5.5 5.6 1.8 4.2-21.9 8.4-43.9 10.3-66.1 1-11.2 1.4-22.6.8-33.8-.5-10.6-2-21.2-3.5-31.7-1.8-12.1-5.2-24.1-8.2-35.9-1.3 1.1-2.5 2.3-3.8 3.4 3.8 1.3 5.7 5.7 9.4 7.4 2.9 1.3 6.6 1.5 9-.8 3-2.8 2.1-7.6 1.6-11.2-.5-4.1-1.5-8.2-2.9-12.2-5.4-15.7-16.4-29.2-31-37.2-3.3-1.7-6.5 3.2-3.2 5zM443 784.2c-3.1 13-5 26.3-5.5 39.7-.1 3.8 5.7 4.1 5.9.3.5-12.9 2.2-25.6 5.2-38.2.9-3.6-4.7-5.5-5.6-1.8z"/><path d="M449.3 829.1c-9.1-9-22.6-19.8-35.8-11.6-6.2 3.9-7.7 10.7-7.5 17.6.2 8.8 1.7 17.4 4.3 25.8 1.1 3.6 6.9 2.3 5.7-1.3-2-6.4-3.4-13.1-3.9-19.8-.5-5.7-1.3-13.4 4.1-17.1 10.3-7.1 21.8 3.5 28.8 10.3 2.6 2.6 7-1.3 4.3-3.9z"/><path d="M464.4 820.2c-14.9 6.1-26.2 19.4-30 35-.3 1.4.2 3.4 1.9 3.7 4.7 1 8.7-.4 11.8-4.1 2.4-2.9-2.5-6.1-4.9-3.2-1.2 1.4-3.2 2.1-5 1.8.6 1.2 1.2 2.5 1.9 3.7 3.4-14.3 13.5-26.1 27.1-31.7 3.4-1.4.7-6.6-2.8-5.2zm12.9 13.3c-5.8 7.1-6.7 16.9-2.9 25.1 1.6 3.4 6.8.7 5.2-2.7-3-6.5-1.8-13.7 2.6-19.2 2.4-3-2.5-6.2-4.9-3.2zM445 871.4c31.1 2.9 62.5 1.2 93.2-5.1 3.7-.8 2.4-6.5-1.3-5.7-30.1 6.2-61 7.8-91.6 5-3.8-.4-4.1 5.5-.3 5.8zm62-177.6c3.9 16.2 9.8 31.8 17.6 46.5 2 3.7 4 7.3 6.2 10.9 1.9 3.1 4.4 6.1 5.4 9.6.3 1.1.7 2.7-.2 3.6-1.2 1.1-4.2 0-5.5-.6-3.6-1.5-6.2-4.3-7.8-7.8l-4.8 3.3c20.8 26.7 20.3 63 19.4 95.1-.1 3.8 5.8 4.1 5.9.3.9-33.9 1-71.3-20.9-99.3-2.1-2.7-6.1.4-4.8 3.3 3 6.7 12.4 14.5 20.3 11.2 8.9-3.7 2.8-14.3-.6-19.6-11.3-17.8-19.6-37.4-24.5-58-.9-3.5-6.6-2.2-5.7 1.5zm86.1 150.9c3.1-4.9 11.5-13.9 14.9-4.2 2.6 7.6 2.4 16.6 1.3 24.5-.5 3.8 5.4 4 5.9.3.8-6.2.8-12.4 0-18.7-.6-4.6-1.4-10-4.8-13.5-7.8-8.2-17.9 1.5-22.2 8.3-2.1 3.3 2.9 6.5 4.9 3.3zm36.1-17.1c5.6-2.5 12 1.5 14.9 6.3 3.7 6.3 3.5 14.1 3.4 21.2 0 3.8 5.8 4.1 5.9.3.1-9.2 0-19.5-6-27-5-6.2-13.4-9.3-20.9-6-3.4 1.5-.7 6.8 2.7 5.2z"/><path d="M653.7 838.2c5.7 2.2 8.7 9.6 5.8 15-1.8 3.3 3.1 6.6 4.9 3.2 4.7-8.9.6-20.3-8.9-23.8-3.5-1.4-5.4 4.2-1.8 5.6zm-79.8-186.4c.8 18.3-9.8 34.1-18.3 49.4-4.3 7.7-8.4 15.7-10.8 24.2-1.1 3.9-1.8 8-2 12.1-.2 4-.2 8.9 1.7 12.5 2.6 5.2 8.2 4.9 12.6 2.1 5.8-3.8 11.3-8.2 16.9-12.3-1.6-1-3.2-2.1-4.8-3.1-6.2 19.7-12.5 39.3-18.7 59-.8 2.5 1.8 4.6 4.1 3.5 2.6-1.2 5.1-2.3 7.7-3.5-1.2-.2-2.4-.4-3.5-.6 3.5 4.7 2.8 11 1.6 16.4-1.5 6.7-3.5 13.3-4.8 20.1-2.8 14.4-4.2 29-4 43.7 0 3.8 5.9 4.1 5.9.3-.2-16.2 1.4-32.4 5-48.2 2.7-11.6 8.8-25.5.7-36.2-.8-1.1-2.4-1.2-3.5-.6-2.6 1.2-5.1 2.3-7.7 3.5 1.4 1.2 2.8 2.4 4.1 3.5 6.2-19.7 12.5-39.3 18.7-59 1-3-2.5-4.8-4.8-3.1-4.5 3.3-9 6.5-13.4 9.8-1.5 1.1-5 4.5-6.7 2.5-1.1-1.3-1.1-4.4-1.2-6-.4-7.5 1.4-14.9 4.2-21.8 5.9-14.8 15.6-27.7 21.7-42.4 3.4-8.1 5.5-16.7 5.1-25.4-.1-3.9-5.9-4.2-5.8-.4z"/><path d="M559.7 865c24.2 14.4 55.7 12.9 78.6-3.3 3.1-2.2-.9-6.5-3.9-4.4-20.7 14.6-49.7 15.6-71.5 2.7-3.2-1.8-6.4 3.1-3.2 5zm81.8-44.3c.6-4.2 7.8-46.9 11.8-45.8 3.6 1 5.5-4.5 1.8-5.6-9.4-2.7-11.5 12.4-13 18.3-2.8 10.8-4.9 21.8-6.5 32.8-.5 3.8 5.4 4.1 5.9.3zm29.9-175.8c10.8-8.3 28.8-12.2 41-4.6 5.6 3.5 8.3 11.5 1.7 15.4-5 3-10.9 3.6-15 8.1-1.1 1.2-1.5 3.7.4 4.6 19 9.5 24.9 31.4 23 51.1-1.9 19.9-9.9 39.2-21.7 55.2-6.6 9-14.6 17-23.5 23.7-3 2.3.9 6.6 3.9 4.4 16.9-12.8 30.2-29.9 38.5-49.4 8.6-20.1 13.1-44.7 4.7-65.5-4.1-10.3-11.7-19.4-21.7-24.4.1 1.5.2 3.1.4 4.6 5-5.5 13.8-5 18.5-11.2 4.9-6.6 1.8-15.7-4.2-20.4-6.8-5.3-16.6-6.5-24.9-5.8-9.1.8-17.7 4.2-24.9 9.8-3.2 2.3.8 6.7 3.8 4.4z"/><path d="M674.6 807.1c8.3-12 22.2-22 37.5-20.2 6.8.8 13.2 4.4 17.8 9.4 2.2 2.5 4 5.4 5 8.6.4 1.4 2.3 9 .2 9.7-3.6 1.1-2.3 6.9 1.3 5.7 8.7-2.7 5.3-16.1 2.1-21.9-4.2-7.7-11.7-13.6-20-16.2-19-5.9-38.3 6.4-48.8 21.6-2.2 3.2 2.7 6.4 4.9 3.3z"/><path d="M701.1 815.2c6.4-3.3 14.8-2.4 20.1 2.7 5.3 5.1 6.6 13.8 3.3 20.3-3.2 6.1-9.6 9.3-16 10.7-3.4.7-6.9 1.1-10.4 1.2-1.8.1-3.6.1-5.5 0-.8 0-1.5 0-2.2-.1h-1.3c-1-.3-1.2-.1-.6.7-.1.8-.3 1.5-.4 2.2-.2.1-.5.3-.7.4-.9-.3-1.9-.6-2.8-.9l.3.3c2.8 2.5 7.2-1.4 4.4-3.9-2.6-2.3-7-.7-6.5 3.2.6 4.2 5.6 3.9 8.7 4 8.2.2 16.8-.2 24.5-3.2 7.4-2.9 13.7-8.7 15.6-16.6 2-8.1-.3-17.2-6.6-22.8-7.2-6.5-17.9-7.7-26.5-3.3-3.4 1.6-.7 6.8 2.6 5.1z"/><path d="M710.1 834.2c1.8 4.5 2.6 9.1 2.5 13.9-.1 3.8 5.8 4.1 5.9.3.2-5.9-.9-11.5-3.2-16.9-1.4-3.5-6.6-.8-5.2 2.7zM390.5 645.8c-12.8-11.3-29.8-16.4-46.7-14.9-8.5.7-17 3.1-24.5 7.2-4.9 2.7-18 9.7-13 16.8 2.9 4.1 9.2 4.5 13.6 5.4 6.8 1.4 13.6 2.9 20.4 4.3-.4-1.7-.7-3.3-1-5-8.3 6.5-15.3 14.6-20.2 23.9-2 3.8-4.3 8.7-1.5 12.8 2.2 3.3 6.5 4.1 9.6 1.6 2.6-2.1-.5-6.5-3.3-4.8-6.9 4.1-7.1 12.5-5.9 19.7 1.6 8.9 4.4 17.7 8 25.9 7.3 16.8 18.5 31.7 32.5 43.6 2.9 2.5 6.1-2.5 3.2-4.9-12.1-10.3-21.9-23.3-28.8-37.7-3.4-7.1-6-14.5-7.9-22.2-1.3-5.2-4.4-15.7 1.6-19.3l-3.3-4.8c-1.1.8-.8-3.1-.7-3.6.5-1.5 1.2-2.8 2-4.2 1.5-2.8 3.3-5.6 5.2-8.2 3.8-5.2 8.4-9.7 13.5-13.6 1.6-1.3 1.1-4.5-1-5l-18.6-3.9c-3.1-.7-6.4-1.1-9.4-2-.7-.2-1.7-.4-2.3-.9-1.2-1-.7-1 .5-2.1 6.4-6 14.9-10 23.4-12 17.4-4.1 36.8-.3 50.4 11.7 2.7 2.6 7-1.3 4.2-3.8zm3.5 155.9c-9-.7-15.3-9.2-23.4-12.4-9-3.5-19-.3-26.2 5.7-8.1 6.6-12.4 16.7-16.1 26.2-3 7.6-6.1 17.3 1.2 23.4.7.6 2.2.6 3 .2 1.6-1 3.1-1.9 4.7-2.9 3.2-2 .5-7.2-2.7-5.2-1.6 1-3.1 1.9-4.7 2.9 1 0 2 .1 3 .2-5.5-4.6 1-16.5 3-21.3 3.5-8.3 8.1-16.8 16.1-21.4 7.6-4.4 15.1-3.8 22.3 1 6.2 4.1 11.8 9.1 19.6 9.7 3.6.1 3.9-5.8.2-6.1z"/><path d="M368.9 820.3c-9.4 6.5-13.7 18.9-10.6 29.9 1 3.6 6.8 2.4 5.7-1.3-2.6-9.2 1-18.8 8.8-24.3 3.2-2.1-.8-6.4-3.9-4.3zm-37.2 13.5c4.3 7.7 11.4 13.4 19.9 15.8 3.6 1 5.5-4.6 1.9-5.6-7.1-2-13-6.4-16.5-12.9-1.9-3.3-7.2-.6-5.3 2.7z"/><path d="M356.6 844.6c-2.6 9.4 7.9 14.1 15.1 16.1 11.7 3.2 23.9 4.9 36 5 3.8 0 4.1-5.8.3-5.9-9.6-.1-19.1-1-28.4-3.2-3.9-.9-19.4-3.4-17.5-10.2 1.2-3.6-4.4-5.4-5.5-1.8z"/><path d="M370.3 855.2l7.2 6.6c1 .9 2.3 1.3 3.5.6 4-2 7.6-4.7 10.6-8.1 2.5-2.8-1.4-7.2-3.9-4.4-2.7 3-5.8 5.4-9.4 7.2 1.2.2 2.4.4 3.5.6l-7.2-6.6c-2.7-2.4-7.1 1.5-4.3 4.1zm-46.9-127.1c-4.8 3.9-11.7 2.5-17.3 1.9-6.4-.7-12.6-.6-18.9 1.3-12.6 3.7-23.3 12-33.4 20.1-1.5 1.2-1.1 3.6.4 4.6 5.8 4.2 11.7 8.5 17.5 12.7.3-1.8.6-3.5 1-5.3-11 2.1-21.3 6.4-30.4 12.8-3.5 2.5-8.2 5.1-8.7 9.8-.4 3.8 2.2 6.7 6 5.1 2.2-.9 2-4.9-.4-5.4-6.8-1.5-12.7 1.7-17.5 6.3-5.6 5.3-10.2 11.8-14.9 18-9.4 12.5-17.8 26.2-20.9 41.7-2.9 14.4-1.5 29.9 6.9 42.3 6.9 10.1 17.3 17 28.7 21 13.8 4.8 28.6 5.8 43 4.6 3.8-.3 2.5-6-1.3-5.7-21.3 1.8-46.8-1.8-61.9-18.4-19.5-21.5-9.9-52.5 4.4-73.8 4.5-6.7 9.5-13 14.6-19.3 3.9-4.8 9.9-12.6 17.1-11.1-.1-1.8-.3-3.6-.4-5.4 1.7 1.6 2.6 1.9 2.6.8 0-.2 0-.4.1-.5.3-.3.8-1 1.1-1.3 1.3-1.2 2.8-2.3 4.2-3.3 2.9-2.1 5.9-3.9 9-5.5 6.3-3.3 13.1-5.5 20.1-6.8 2.6-.5 2.9-3.9 1-5.3-5.8-4.2-11.7-8.5-17.5-12.7.1 1.5.2 3.1.4 4.6 10.3-8.3 21.4-17.1 34.7-19.7 11.5-2.2 24.9 4.5 34.9-3.5 2.7-2.7-1.3-7-4.2-4.6z"/><path d="M244.6 830.4c-3.7 12.8.1 27.2 10.4 35.8 5 4.2 11.1 6.8 17.5 7.7 3.4.5 6.8.4 10.1-.2 3.8-.6 7.4-2.4 11.2-2.3-.9-1.3-1.8-2.6-2.6-3.9-3.8 9.6-3.9 21.1-9.6 29.9-4.1 6.3-13.4 11.8-20.2 6.3-3-2.4-6.1 2.6-3.2 4.9 8.1 6.5 19.4 2.2 25.7-4.7 8.6-9.4 8.4-23.3 12.9-34.6.7-1.8-.8-3.8-2.6-3.9-6-.1-11.4 2.9-17.4 2.8-5.8-.1-11.4-1.9-16.2-5.2-9.7-6.8-13.7-19.6-10.4-30.8 1-3.5-4.6-5.4-5.6-1.8z"/><path d="M262.3 855.6c4.7-9.2 17.4-9.9 26.4-11.4l39.6-6.9c3.7-.7 2.5-6.4-1.3-5.7-14.5 2.5-29 5-43.4 7.5-9.6 1.7-21.3 3.7-26.2 13.3-1.7 3.4 3.2 6.6 4.9 3.2zm183.3-367c-12.4 13.4-23.6 29.1-27.9 47.2-2 8.5-2.8 17.9-.6 26.5 2 7.8 7.7 15.4 16.5 15.8 8.4.3 14.9-8 11.7-15.9-1.1-2.8-5.4-1.5-5.5 1.2-1.8 31 16.1 61.9 44.1 75.6 3.4 1.7 6.6-3.3 3.2-4.9-26.2-12.8-43-41.2-41.4-70.4-1.9.4-3.7.8-5.5 1.2 1.3 3.3-1.9 6.9-5.1 7.3-4.4.6-8.4-2.8-10.4-6.5-4.1-7.7-3.4-18.2-1.7-26.5 3.7-17.7 14.5-33.1 26.6-46.2 2.5-2.8-1.4-7.2-4-4.4zm165.9-9.5c9.3 14.8 18.1 30.8 23.7 47.4 2.7 8 4.6 17.1 2.1 25.4-1 3.4-2.9 8-7.1 5.3-3.4-2.1-3.9-6.9-4.4-10.5-1.8.7-3.7 1.3-5.5 2 13.4 30.1-7 60.7-23.9 84.4-2.2 3.1 2.7 6.3 4.9 3.2 18.3-25.7 38.7-58 24.2-90.3-1.4-3.2-6-1.2-5.5 2 .7 4.5 1.7 9.3 5 12.6 2.8 2.8 7.1 4.2 10.9 2.8 4.3-1.7 6.2-6.6 7.2-10.7 1.2-4.9 1.3-10 .7-15-1.3-10.7-6-21-10.5-30.7-4.9-10.5-10.5-20.8-16.7-30.6-1.9-3.2-7.1-.5-5.1 2.7zm-195.6-22.9c5.2-2.9 4.6-11.7-1.5-13.1-2.4-.5-4 1.1-3.8 3.4.7 8.8 3.7 17.2 8.6 24.6 1.4-1.3 2.8-2.5 4.2-3.8-1.5-1.1-3-2.2-4.4-3.4-1.7-1.3-3.6 0-4.4 1.5-10 21.2-17.1 43.5-21.3 66.5-.7 3.7 5.2 4 5.9.3 4.1-22.5 11.2-44.4 21-65-1.5.5-2.9 1-4.4 1.5 1.5 1.1 3 2.2 4.4 3.4 2.3 1.7 5.9-1.4 4.2-3.8-4.7-7-7.4-14.8-8.1-23.2-1.3 1.1-2.5 2.3-3.8 3.4.9.2 1.8 1.7.7 2.3-3.3 2.1-.6 7.3 2.7 5.4z"/><path d="M416.3 464.9c9.4 11.8 24.3 17.7 39.2 16.1 3.8-.4 2.5-6.1-1.3-5.7-12.8 1.4-25.6-4.3-33.6-14.3-2.3-3-6.7 1-4.3 3.9zm-10.4 19.9c-3.5 2.8-2.2 7.2.4 10.1 3.5 3.8 9.5 5.6 14.2 7.1 11 3.5 22.7 4.2 34.1 2.3 3.7-.6 2.5-6.3-1.3-5.7-8 1.3-16.3 1.2-24.2-.4-3.8-.8-7.5-1.9-11-3.3-.7-.3-9.9-4.3-8.2-5.7 2.9-2.4-1.1-6.8-4-4.4zm148-.3c11.8-1.3 23.5-3.7 34.9-7.2 5.5-1.7 11-3.7 16.4-5.9 5.3-2.2 10.4-5.1 16-6.7 3.6-1 2.4-6.8-1.3-5.7-5.3 1.5-10.2 4.2-15.2 6.3-5.6 2.4-11.3 4.5-17.1 6.3-11.4 3.5-23 5.9-34.9 7.2-3.8.4-2.5 6.2 1.2 5.7zm19.3 25.6c19.8-3.7 39.3-8.5 58.6-14.2 3.6-1.1 2.4-6.8-1.3-5.7-19.3 5.8-38.8 10.5-58.6 14.2-3.7.7-2.4 6.4 1.3 5.7zm-36.5-18.8c2.9 8.1 6 16.6 5.7 25.3-.1 1.9-.5 4.5.9 6 2.4 2.6 4.8-.2 5.8-2.4 1.6-3.4-4-5.2-5.6-1.8-.4.7 0 .5 1.3-.6.9.3 1.9.6 2.8.9.8.8.5 1.7.5.1 0-.9.1-1.9.1-2.8.1-2.1.1-4.2-.2-6.3-1.2-7.1-3.7-14.2-6.2-21-1.2-3.6-6.4-.9-5.1 2.6z"/><path d="M545.5 485c6 10.6 8.1 22.6 6.4 34.6-.5 3.7 5.3 4 5.9.3 1.9-13-.6-26.2-7-37.6-1.9-3.3-7.1-.7-5.3 2.7z"/><path d="M557.8 526.7c-5.1-5.5-13.6-6-20-2.3-7.2 4.2-10 12.5-6.8 20.2 3.4 8.2 12.2 13.5 21 12.2 8.7-1.3 16-8.5 18.4-16.8 1.3-4.7 1.3-9.9-3.2-12.8-3.8-2.4-9-2.1-13.3-1.4-3.7.6-2.5 6.4 1.3 5.7 2.7-.4 7.5-1.2 9.5 1.2 2.2 2.6-.9 8.5-2.5 10.8-4.3 6.2-12.6 10-19.6 5.9-5.8-3.4-10-11.8-5-17.5 3.8-4.4 11.5-5.8 15.7-1.3 2.7 2.8 7.1-1.1 4.5-3.9zm-78.2-59c-4.5 2.8-5.6 8.2-3.6 13 2.5 5.9 8.8 7.9 14.7 8.5 7.6.7 15.3.6 22.9.9 5.9.2 12.6 1.2 16.8-4 2.4-2.9-2.6-6.1-4.9-3.2-2.3 2.8-9.1 1.4-12.2 1.3-5.2-.2-10.3-.3-15.5-.5-4.4-.1-9.4.1-13.4-2-2.5-1.4-5.6-6.5-2.1-8.6 3.2-2.2.5-7.4-2.7-5.4z"/><path class="st3" d="M480 377.4c5 4.8 12.4 6.9 19.2 5.4 1.6-6.3-6.9-12.5-12.4-8.8"/><path d="M451.9 512.1c30.6 7.7 62.6 8.4 93.4 1.8 3.7-.8 2.4-6.5-1.3-5.7-29.8 6.4-60.8 5.9-90.3-1.6-3.7-1-5.5 4.6-1.8 5.5z"/></svg>