<?xml version="1.0" encoding="utf-8"?>
<!-- Generator: Adobe Illustrator 23.0.2, SVG Export Plug-In . SVG Version: 6.00 Build 0)  -->
<svg version="1.1" id="Layer_1" xmlns="http://www.w3.org/2000/svg" xmlns:xlink="http://www.w3.org/1999/xlink" x="0px" y="0px"
	 viewBox="0 0 1000 1000" style="enable-background:new 0 0 1000 1000;" xml:space="preserve">
<style type="text/css">
	.st0{opacity:0.7;}
	.st1{fill:#FFA617;}
	.st2{fill:#FF7878;}
	.st3{fill:#FFFFFF;}
	.st4{fill:#03B4E6;}
	.st5{fill:#FFE603;}
	.st6{fill:#423F39;}
	.st7{fill:#1C1203;}
</style>
<g>
	<g class="st0">
		<path class="st1" d="M343.1,328.4c-2.2-4-4.5-8.5-3.8-13c0.7-4.6,4.4-8,7.8-11.2c16.8-15.3,33.6-30.6,50.4-46
			c-2.8-1.3-5.6-2.5-8.4-3.8c4.4-4.5,8.8-9,13.2-13.4c-3.4-3.6-6.7-7.1-10.1-10.7c16.5-4.3,34.6-1.8,49.3,6.7
			c15.5-26,52.4-36.4,79.2-22.4c13.6-8.3,30.9-10.1,45.9-4.9c15,5.2,27.5,17.4,33.1,32.2c3.7-7.2,13.8-8.8,21.2-5.6
			s12.7,9.8,17.7,16.1c11.9,15.1,20.9,21.7,32.8,36.8c4.7,6,21.1,18,21.9,25.5c0.9,8.7-9.8,22.3-14.3,29.8
			c-11,18.4-24.4,34.2-35.4,52.5c-2,3.3-4.2,6.8-7.8,8c-5.8,1.9-12-3.7-13-9.8s1.4-12.1,3.7-17.8c2.3-5.7,4.5-12,2.9-17.9
			c-0.9-3.3-3.8-6.7-7.2-5.9c-1.6,0.4-2.8,1.7-3.8,2.9c-11.4,13.5-16.2,32.2-12.6,49.5c2.4,11.6,3.2,25.6,6.6,37
			c5.3,17.6-17.9,18.6-30.5,23.3c-37.9,14.2-80.4,15.7-119.2,4c-14.7-4.4-29.3-11.6-35.3-26.6c-2-5.2-0.6-21.1-4.6-24.3
			c-4.2-3.4-9,1.1-13.6,1.3c-19.3,0.9-25.3-18.1-33.5-32.9C364.9,368,354,348.2,343.1,328.4z"/>
		<path class="st1" d="M384.9,609.4c-1.6,5.8-3.3,12.3-0.5,17.7c2.8,5.4,12,7.1,14.5,1.6c0.3,9.8,0.6,19.6,0.9,29.4
			c-7.3-12.8-20.9-21.8-35.6-23.3c-14.7-1.5-29.9,4.4-39.7,15.4c9.2,5.8,18.5,11.6,27.8,17.4c-15.6,9.1-23.5,28.5-21.7,46.5
			c1.9,18,12.2,34.3,25.6,46.5c4.2,3.8,8.9,7.5,11.7,12.4c2.8,5,3.3,11.8-0.6,16c-3.4,3.6-8.8,4.1-13.3,6.2
			c-15.2,7-14.6,30.9-2.7,42.7s29.8,14.7,46.4,16.4c92,9.8,230.3,15.7,276.2-11.2c11.5-6.8,26.9-5.6,36.9-14.4
			c10-8.8,14.5-25.4,6.2-35.8c-6.8-8.5-20.7-12-22.2-22.7c-1-6.8,3.8-12.9,7.8-18.5c15.1-21.4,20.7-52.9,3.9-73
			c-4.3-5.1-10.2-11.1-7.6-17.2c2-4.8,8.5-6.8,9.8-11.8c1.7-6.2-6.3-11.2-12.7-10.4s-12,4.7-18.4,6c-9.7,1.9-20.3-3.5-24.5-12.4
			c-4.2-8.9-1.5-20.6,6.1-26.8c2-1.6,4.3-3,5.8-5.1c2.6-3.7,2-8.7,1.2-13.1c-5.9-32.5-17.4-64-33.8-92.6c1.2,2-71.4,20.6-78.5,21.6
			c-27.4,3.9-55.3,4.4-82.8,1.3c-18.6-2.1-58-28.1-60.7,2.5C408.1,548.3,392.5,582.7,384.9,609.4z"/>
		<path class="st1" d="M275.9,758.7c-2.2,7-9.2,11.1-15.6,14.7c-19.9,11.1-39.8,23.5-53.6,41.6s-20.8,43-12.4,64.2
			c7.9,19.7,29.1,33.1,50.2,31.9s40.6-17.1,46.1-37.6c-11.9,3.5-27.7,5.6-33.9-5.1c-5.5-9.5,2.4-22,12.4-26.6s21.5-4,32.4-6
			c36.9-6.6,72.9-51.7,54.7-89.8c-14.9-31.1-68.9-11.7-91.1-0.7C272.1,744.7,278.1,751.5,275.9,758.7z"/>
		<path class="st2" d="M505.5,483.7c6.1,0.2,12.3,0.3,18.2-1.5c5.9-1.8,11.4-6,13.5-12.2c3.8-11.2-5.1-23.7-2.1-35.2
			c-17.5,2-40.2-34.6-53.1-2.8C471.9,456.9,478.3,482.9,505.5,483.7z"/>
		<path class="st3" d="M467.7,442.3c2.4-4.2,9.6-4.4,12.1-0.2c2.6,4.1-0.7,10.5-5.5,10.8s-8.9-5.6-6.9-10"/>
		<path class="st3" d="M541.6,439c3.4,0.5,6.3,3.3,6.9,6.7s-1.3,7-4.3,8.6"/>
		<path class="st4" d="M415.4,471.1c-7.3,5.6-6.3,17.7-0.2,24.6s15.4,9.8,24.3,11.9c32.7,7.7,66.9,8.8,100.1,3.2
			c6.1-5.6,2.3-16.6-4.8-20.6c-7.2-4.1-15.9-3.5-24.1-3.1c-35.5,1.6-66.9-1.8-95.8-22.4c-2.6,9.2,3.8,18.9,1.2,28.2"/>
		<path class="st4" d="M576.5,505c18.8-9.9,42.3-7.2,61.5-16.2c-8.4-5.6-4.2-22.5-13.8-25.7c-2.8-0.9-5.8-0.2-8.6,0.6
			c-15.1,4-40.9,7.4-53.2,17.2C548,492.4,549.4,519.3,576.5,505z"/>
		<path class="st5" d="M550.1,525.1c-5-2.9-11.4,2.1-12.4,7.8c-1.5,8.7,6.8,17.5,15.6,16.6s14.9-11.5,11.5-19.6s-15.2-11.1-22-5.5"
			/>
		<path class="st5" d="M547.7,515.1c-0.4-9.7-3.7-19.2-9.5-27.1c0-2.8,3.7-4.2,6.3-3.1s4,3.8,5,6.3c3.8,9.2,4.9,19.5,3.1,29.2"/>
		<path class="st6" d="M482.1,405.1c-3.9,5.8-3.2,14.4,1.6,19.5c9.5-5.2,21.8-4.6,30.7,1.6c3.9-3.2,2.4-10-1.6-13.2
			c-4-3.1-9.3-3.7-14.3-4.4s-10.4-1.7-13.9-5.4"/>
	</g>
	<path class="st7" d="M469.9,363c-3.6,3.7-4.4,11.4-3,17.3c1.5,5.9,4.3,12.4,7.6,16.2c8.5,9.8,19,15.4,29.9,16.7
		c13.4,1.6,45.2-20,30-43.3C526.4,357.8,478.1,354.5,469.9,363z"/>
	<g>
		<path d="M444.6,222.2c16.1-19.8,46.3-26.4,69.2-15.2c3.4,1.6,6.6-3.3,3.2-4.9c-26-12.8-59-5.6-77.3,16.9
			C437.3,221.9,442.2,225.1,444.6,222.2L444.6,222.2z"/>
	</g>
	<g>
		<path d="M514,208.4c12.7-10.2,29.5-14.8,45.6-12.3c15.4,2.4,29.7,11.7,38.4,24.6c2.1,3.1,7.3,0.4,5.2-2.7
			c-9.8-14.5-25-24.6-42.3-27.6c-18-3.1-36.7,2.2-50.8,13.6C507.2,206.5,511.1,210.8,514,208.4L514,208.4z"/>
	</g>
	<g>
		<path d="M433.5,224.5c-14.1-8.8-31.3-14.1-48-13.1c-6.2,0.4-12.2,4.9-8.5,11.7c1.8,3.3,5.1,5.6,7.9,7.9c3.7,2.9,7.5,5.7,11.5,8.2
			c0.8-1.8,1.7-3.5,2.5-5.2c-14.1-4-29.7,3.9-34.7,17.7c-1.3,3.6,4.3,5.4,5.6,1.9c3.9-10.7,16.3-17.1,27.3-13.9
			c3.1,0.9,5.4-3.4,2.5-5.2c-5.4-3.5-11.1-7.2-15.6-11.8c-0.9-0.9-2.5-2.4-2-3.7c0.4-1.1,1.7-1.3,2.8-1.5c3-0.4,6.3-0.1,9.3,0.1
			c12.9,0.9,25.3,5.1,36.2,12C433.5,231.4,436.8,226.5,433.5,224.5L433.5,224.5z"/>
	</g>
	<g>
		<path d="M385.7,249.7c-28.7,18.5-54,41.7-75.1,68.6c-1.8,2.2,1.4,5.9,3.8,4.2c1.5-1,3-2,4.5-3c3.1-2.1,0.4-7.3-2.7-5.2
			c-1.5,1-3,2-4.5,3c1.3,1.4,2.5,2.8,3.8,4.2c20.4-26.1,45.1-48.6,72.9-66.6C391.6,252.9,388.9,247.6,385.7,249.7L385.7,249.7z"/>
	</g>
	<g>
		<path d="M318,311c-4.3,4.9-8.9,11.7-4.5,18.1c1.7,2.5,4.5,3.7,7.5,3.6c3.3-0.2,6.8-2.8,10.1-2.1c0.4-1.9,0.7-3.8,1.1-5.7
			c-3.3,0.2-4.9,2.5-4.7,5.7c0.3,4.2,3.9,8,6.1,11.4c5.7,8.9,11.5,17.7,17.2,26.5c11.6,17.9,23.2,35.8,34.7,53.6
			c2,3.1,7.3,0.5,5.2-2.7c-9.9-15.4-19.9-30.7-29.8-46.1c-4.9-7.6-9.8-15.2-14.7-22.8c-2.5-3.8-4.9-7.6-7.4-11.4
			c-1.2-1.8-2.3-3.6-3.5-5.4c-0.5-0.8-1.4-1.8-1.7-2.8c-0.1-0.2-0.1-0.5-0.2-0.7c0.1-1.1-0.4-1-1.5,0.3c2.9-0.2,4.6-5,1.1-5.7
			c-2-0.4-3.9-0.4-5.9,0.1c-2.1,0.5-4.3,1.8-6.5,1.8c-2.3-0.1-3.1-2.2-2.9-4.3c0.3-2.8,2.5-5.2,4.3-7.2
			C324.4,312.5,320.5,308.1,318,311L318,311z"/>
	</g>
	<g>
		<path d="M415.5,282.5c-7,6-9.9,14.8-11.7,23.5c-2.2,10.4-4.1,21-5.6,31.6c-3.1,21.5-3.8,43.8,3,64.8c1.2,3.6,6.9,2.3,5.7-1.3
			c-6.4-19.7-6-40.5-3.2-60.8c1.4-10.2,3.2-20.4,5.3-30.5c1.7-8.3,3.8-17.1,10.5-22.9C422.4,284.4,418.4,280.1,415.5,282.5
			L415.5,282.5z"/>
	</g>
	<g>
		<g>
			<path d="M500.5,360.1c-17-4.9-39.2,8.5-35.3,28c4,20.1,29.1,28.5,47,27.9c3.8-0.1,4.1-6,0.3-5.9c-14.8,0.5-34.9-5.1-40.8-20.5
				c-6-15.8,13.2-27.9,27-23.9C502.3,366.7,504.2,361.2,500.5,360.1L500.5,360.1z"/>
		</g>
		<g>
			<path d="M525.1,368.3c7.4,5.1,10.7,15.2,8.1,23.8c-2.7,8.8-11.3,15-20.5,14.2c-3.8-0.3-4.1,5.5-0.3,5.9c11.7,1,23-7,26.4-18.2
				c3.4-11.1-0.9-23.9-10.5-30.5C525.2,361.2,522,366.1,525.1,368.3L525.1,368.3z"/>
		</g>
		<g>
			<path d="M472.6,386.7c8.5,3.1,17.3,4.2,26.2,3.4c3.8-0.3,2.5-6.1-1.3-5.7c-7.9,0.7-15.7-0.5-23.1-3.2
				C470.9,379.8,469.1,385.4,472.6,386.7L472.6,386.7z"/>
		</g>
	</g>
	<g>
		<path d="M463.7,308c3.8,0.2,4.1-5.7,0.3-5.9C460.2,301.9,459.9,307.8,463.7,308L463.7,308z"/>
	</g>
	<g>
		<path d="M464.9,303.4c-4.4-3.1-10.9-11-4-15.2c6.6-4.1,9.6,10.6,9.5,14.7c-0.1,3.1-1,5.8-4.6,5.5c-2.6-0.3-4.8-2-6.2-4.2
			c-1.2-2-1.8-4.4-1.7-6.7c0.1-1.3,0.3-2.6,0.8-3.8c0.2-0.5,0.5-0.9,0.7-1.4c0.2-0.3,0.4-0.6,0.7-0.9c0.6-0.5,0.4-1-0.7-1.5
			c0.1-0.8,0.3-1.5,0.4-2.2c-0.1,0.2-0.2,0.4-0.3,0.6c-1.7,3.3,3.2,6.6,4.9,3.2c2-3.9-1.5-8-5.7-6.3c-3.6,1.5-5.8,6.1-6.4,9.7
			c-1.4,7.6,2.5,16.5,10.3,18.9c23.4,7.1,13.6-41.7-4.7-30.5c-4.3,2.6-6.5,7.7-5.5,12.6c1,5.4,5,9.6,9.4,12.6
			C464.8,310.5,468,305.6,464.9,303.4L464.9,303.4z"/>
	</g>
	<g>
		<path d="M556.3,310c0.2-4.6,1.1-9.5,3.5-13.5c1.4-2.4,7.1-7.5,7.2-1.6c0,4.4-8.7,20.6-13.9,14.4c-2.4-2.9-6.8,1-4.4,3.9
			c10.2,12.1,25.9-10.3,24-20.4c-1.3-6.7-8.4-8.3-13.5-4.5c-6.3,4.8-8.4,13.9-8.7,21.4C550.2,313.5,556.1,313.8,556.3,310L556.3,310
			z"/>
	</g>
	<g>
		<path d="M544.9,253.7c-1.4-3.1-3.3-7-2.5-10.5c0.5-2.3,3.3-4.9,5.7-3.4c3.2,2,6.4-2.9,3.2-4.9c-4.6-2.9-10.3-0.8-13.1,3.5
			c-3.7,5.6-1,12.6,1.5,18C541.3,259.9,546.5,257.2,544.9,253.7L544.9,253.7z"/>
	</g>
	<g>
		<path d="M474,255.1c2.7-7.7-1.2-15.9-8.5-19.2c-1.3-0.6-2.6,0.2-3.4,1.2c-2.5,3-2.2,6.9,0,9.9c2.2,3.1,6.5-0.9,4.4-3.9
			c-0.7-1-0.1-2,0.6-2.8c-1.1,0.4-2.3,0.8-3.4,1.2c4.4,2,6.3,7.4,4.8,11.8C467.2,256.9,472.8,258.7,474,255.1L474,255.1z"/>
	</g>
	<g>
		<path d="M555.7,309.5c-0.6-4.7-0.9-13.8,5.2-15.3c5.4-1.3,5.2,7.3,4.5,10.5c-0.7,3.6-4.7,13.7-10,10.1c-2.3-1.5-1.9-5.3-1.1-7.5
			c1.1-2.9,3.3-5.2,5.4-7.5c2.6-2.7-1.3-7.1-3.9-4.4c-3.5,3.7-7,7.7-7.8,12.9c-0.6,4.1,0.5,8.9,4.2,11.3c9.3,6.1,17.1-5.4,18.8-13.2
			c1.5-7,0-18.5-9.4-18.3c-11.3,0.2-12.8,14.2-11.7,22.6C550.5,314.5,556.2,313.2,555.7,309.5L555.7,309.5z"/>
	</g>
	<g>
		<path d="M560.2,293.7c5,1.4,9.5,3.6,13.6,6.8c3,2.3,6.2-2.6,3.2-4.9c-4.5-3.5-9.5-6-15-7.5C558.4,287.1,556.6,292.7,560.2,293.7
			L560.2,293.7z"/>
	</g>
	<g>
		<path d="M463.6,284.2c-5.9-0.8-11.8,0.5-16.9,3.5c-3.2,1.9-0.6,7.1,2.7,5.2c4.3-2.6,8.9-3.5,13.9-2.8
			C467.1,290.6,467.4,284.7,463.6,284.2L463.6,284.2z"/>
	</g>
	<g>
		<path d="M443,334.8c-12.6,6.4-19.2,22.2-14.6,35.6c1.2,3.5,7,2.3,5.7-1.3c-3.8-11,1-23.8,11.5-29.2
			C449.1,338.3,446.4,333.1,443,334.8L443,334.8z"/>
	</g>
	<g>
		<path d="M437.5,358c-15.4,12.1-22.6,33.1-15.4,51.7c7.2,18.5,25.8,27.6,45,24.8c11-1.7,21.2-6.7,30-13.3c3-2.3-0.9-6.6-3.9-4.4
			c-16.4,12.5-42.5,19.1-58.4,2.1c-15.8-17-10.6-42.9,6.8-56.5C444.4,360.1,440.5,355.7,437.5,358L437.5,358z"/>
	</g>
	<g>
		<path d="M497.8,421.1c9.3,5.1,18.7,10.3,29,13.1c9.2,2.5,18.9,2.8,28.2,0.8c16.4-3.4,37.3-15.4,39.9-33.6c1.7-11.8-4.9-23-11-32.6
			c-2-3.2-7.2-0.5-5.2,2.7c6,9.5,13.8,21.9,9.2,33.6c-3.8,9.5-13.9,16.5-22.9,20.5c-9.4,4.2-20,5.7-30.2,4.2
			c-12.2-1.7-23.2-7.9-33.8-13.8C497.7,414.3,494.5,419.2,497.8,421.1L497.8,421.1z"/>
	</g>
	<g>
		<path d="M473.7,457.7c-0.8,6.5-1.1,14.4,1.1,20.6c1.8,5.2,9.3,2.9,7-2.1c-1.6-3.4-6.8-0.7-5.2,2.7c0.1,0.1,0.1,0.3,0.2,0.4
			c0-1,0.1-2,0.1-3c-0.1,0.2-0.2,0.3-0.3,0.5c0.6-0.4,1.2-0.8,1.8-1.3c-0.2,0-0.4,0.1-0.6,0.1c0.8,0.1,1.5,0.3,2.2,0.4
			c0.5,0.6,0.5,0.3,0-0.9c-0.2-0.8-0.3-1.6-0.4-2.4c-0.3-1.7-0.4-3.5-0.5-5.2c-0.1-3.2,0-6.4,0.4-9.6
			C480,454.2,474.1,453.9,473.7,457.7L473.7,457.7z"/>
	</g>
	<g>
		<path d="M531.8,474.9c-0.1,0-0.2,0-0.3,0c-1.4,0.1-2.4,0.7-2.9,2c-1.4,3.6,3,6.2,5.8,3.7c1.4-1.2,2-3.6,2.6-5.3
			c1-2.5,1.8-5.1,2.4-7.8c2.3-10,2.3-20.4,0-30.4c-0.9-3.7-6.6-2.4-5.7,1.3c1.5,6.4,2,12.9,1.4,19.5c-0.3,3.2-0.8,6.4-1.7,9.5
			c-0.4,1.5-0.8,3-1.4,4.5c-0.3,0.8-1,4-1.7,4.3c1,0,2,0.1,3,0.1c-0.1-0.1-0.2-0.1-0.3-0.2c0.4,0.6,0.8,1.2,1.3,1.8
			c0,0.3,0,0.6,0,0.8c-1,0.7-2,1.3-2.9,2c0.1,0,0.2,0,0.3,0C535.3,480.6,535.6,474.8,531.8,474.9L531.8,474.9z"/>
	</g>
	<g>
		<path d="M504,452c-2-6.9-0.6-14.4,4.2-19.9c2.5-2.8-1.4-7.2-3.9-4.4c-6.2,7-8.7,16.4-6,25.5C499.3,456.9,505,455.7,504,452
			L504,452z"/>
	</g>
	<g>
		<path d="M606.8,242.6c6.7-6.8,15.3-11.3,24.8-12.7c3.3-0.5,9.6-1,9.4,3.8c-0.2,4.9-4,10.5-7.1,14c-1.9,2.2-0.4,5.4,2.6,5.1
			c1.6-0.2,5.4-0.7,4.9,1.8c-0.3,1.5,1.3,3.1,2.8,3.1c1.6,0,3.2-0.1,4.7-0.1c-0.9-1-1.9-2.1-2.8-3.1c0.9,20.4,0.1,40.7-2.4,61
			c-0.5,3.8,5.4,4,5.9,0.3c2.5-20.2,3.3-40.6,2.4-61c-0.1-1.5-1.1-3.1-2.8-3.1c-1.6,0-3.2,0.1-4.7,0.1c0.9,1,1.9,2.1,2.8,3.1
			c0.5-2.6-0.8-5.1-2.9-6.6c-2.7-1.9-6-1.7-9.2-1.3c0.9,1.7,1.7,3.4,2.6,5.1c4.2-4.9,8.2-11,9-17.6c0.8-6.1-3.7-9.9-9.4-10.6
			c-5.9-0.8-12.3,1.1-17.7,3.2c-6.3,2.5-12,6.3-16.8,11.1C600.2,240.9,604.2,245.3,606.8,242.6L606.8,242.6z"/>
	</g>
	<g>
		<path d="M659.3,263.4c17.4,6.5,30.3,22,33.7,40.2c0.7,3.7,6.4,2.5,5.7-1.3c-3.8-20.2-18.4-37.4-37.6-44.5
			C657.6,256.5,655.8,262,659.3,263.4L659.3,263.4z"/>
	</g>
	<g>
		<path d="M681.9,293.6c5.8,2.2,11.4,4.8,16.8,8c2.3,1.4,4.5,2.8,6.7,4.4c1,0.7,2.5,1.5,3.3,2.5c1.1,1.5,0.6,2.6-0.1,4.2
			c-4.8,11-10.7,21.5-16.6,31.9c-12,20.9-25.6,40.9-40.7,59.7c-2.4,3,2.6,6.1,4.9,3.2c13.1-16.3,25.1-33.5,35.9-51.5
			c5.4-9,10.4-18.1,15.2-27.5c2.3-4.5,4.5-8.9,6.6-13.5c1.9-4.1,2-7.8-1.5-11.1c-3.7-3.5-8.5-6.2-12.9-8.7c-5-2.8-10.3-5.2-15.7-7.2
			C680.2,286.8,678.3,292.3,681.9,293.6L681.9,293.6z"/>
	</g>
	<g>
		<path d="M636.7,350.2c-6.6,21.6-8,44.4-4,66.5c0.4,2,2.5,2.6,4.2,2c2.8-1.1,4.1-3.3,4.6-6.1c0.7-3.7-5.2-4-5.9-0.3
			c-0.2,0.7-0.7,1.1-1.4,1.2c1.4,0.7,2.8,1.3,4.2,2c-3.8-21.1-2.4-42.9,3.9-63.4C643.4,348.4,637.8,346.6,636.7,350.2L636.7,350.2z"
			/>
	</g>
	<g>
		<path d="M642.4,423.6c6.2-12.9,12.4-25.8,18.6-38.7c1.6-3.4-4-5.2-5.6-1.9c-6.2,12.9-12.4,25.8-18.6,38.7
			C635.2,425.2,640.8,427,642.4,423.6L642.4,423.6z"/>
	</g>
	<g>
		<path d="M620.7,291.8c12.1,40.8-2.4,82.5-16.7,120.6c-1.3,3.5,4.2,5.4,5.6,1.9c14.7-39.1,29.2-82,16.9-123.8
			C625.4,286.9,619.6,288.1,620.7,291.8L620.7,291.8z"/>
	</g>
	<g>
		<path d="M460.1,289.4c-2.5,5.6,0.5,11.8,5.9,14.2c1.9,0.9,3.6-1,3.9-2.6c0.7-4.2-0.2-8.4-2.6-12c-1.4-2-4.6-2.2-5.4,0.4
			c-2.4,7.5,0.4,15.6,6.8,20.1c2.2,1.5,4.9-0.7,4.5-3.1c-0.6-3.8-1.5-7.5-2.8-11.1c-0.8-2.3-1.6-6.5-4.7-6.7
			c-5.1-0.3-4.5,8.8,0.6,7.3c3.6-1.1,2.4-6.8-1.3-5.7c-0.1,0-0.2,0.1-0.3,0.1c0.8,0.1,1.5,0.3,2.2,0.4c-0.1,0-0.1-0.1-0.2-0.1
			c0.4,0.6,0.8,1.2,1.3,1.8c-0.1,0.3-0.1,0.6-0.2,0.9c-0.6,0.4-1.2,0.8-1.8,1.3c0.1,0,0.2-0.1,0.2-0.1c-0.8-0.1-1.5-0.3-2.2-0.4
			c-0.4-0.3,0.5,2,0.6,2.3c0.5,1.4,0.9,2.8,1.3,4.2c0.7,2.4,1.2,4.8,1.5,7.3c1.5-1,3-2.1,4.5-3.1c-4.3-3-6-8.4-4.4-13.3
			c-1.8,0.1-3.6,0.3-5.4,0.4c1.9,2.8,2.5,5.6,2,9c1.3-0.9,2.6-1.8,3.9-2.6c-2.7-1.2-3.2-4.3-2.1-6.8
			C467.3,287.8,461.7,286,460.1,289.4L460.1,289.4z"/>
	</g>
	<g>
		<path d="M563.4,293c-5.8,3-8.3,10-6.6,16.2c0.6,2.2,3,2.9,4.8,1.5c3.8-2.9,5.7-7.4,5.9-12.1c0.1-2.6-3-3.9-4.9-2.3
			c-3.9,3.2-5.9,8-5.6,13c0.1,1.7,1.6,3.7,3.6,3c4.2-1.5,6.5-5.7,5.2-10c-0.6-1.9-2.4-2.8-4.2-2c-5.3,2.5-7.5,8.1-7,13.6
			c0.3,3.8,6.1,2.5,5.7-1.3c-0.3-3,1.3-5.9,4-7.1c-1.4-0.7-2.8-1.3-4.2-2c0.3,0.9,0.5,2.6-0.7,3c1.2,1,2.4,2,3.6,3
			c-0.2-3.6,0.9-6.7,3.7-9c-1.6-0.8-3.3-1.5-4.9-2.3c-0.1,3.3-1.4,6-4,8c1.6,0.5,3.2,1,4.8,1.5c-1-3.6,0.1-7.9,3.6-9.7
			C569.5,296.5,566.8,291.2,563.4,293L563.4,293z"/>
	</g>
	<g>
		<path d="M412.8,403.1c-0.5-0.6-1.1-1.2-1.6-1.8c-0.5-0.6-1.3-0.9-2-1c-0.7,0-1.6,0.2-2.1,0.8c-1.1,1.1-1.3,2.9-0.2,4.1
			c0.5,0.6,1.1,1.2,1.6,1.8c0.5,0.6,1.3,0.9,2,1c0.7,0,1.6-0.2,2.1-0.8C413.8,406.1,413.9,404.3,412.8,403.1L412.8,403.1z"/>
	</g>
	<g>
		<path d="M405.1,404.3c3.2,11,2.6,22.4-1.8,33c1.8-0.1,3.6-0.3,5.4-0.4c-6.9-13.1-13-26.7-18-40.6c-1.3-3.5-7-2.3-5.7,1.3
			c5.2,14.5,11.3,28.5,18.5,42.1c1.2,2.4,4.5,1.8,5.4-0.4c4.8-11.5,5.5-24.2,2-36.1C409.7,399.4,404,400.6,405.1,404.3L405.1,404.3z
			"/>
	</g>
	<g>
		<path d="M469.8,446.6c-2.1-2.9,0.8-6.3,4-5.4c2.6,0.7,3,4.7,0.7,6.1c-3.1,2-0.5,7.3,2.7,5.2c6.5-4.2,6.1-15-2-17.1
			c-3.5-0.9-7.5,0.2-9.8,3c-3,3.6-2.5,8.4,0.1,12c0.9,1.3,3.1,1.2,4.1,0.2C470.9,449.6,470.7,447.9,469.8,446.6L469.8,446.6z"/>
	</g>
	<g>
		<path d="M543.1,445.7c0.2,4.8-1.2,9.4-4.5,13c-2.5,2.8,1.4,7.2,3.9,4.4c4.2-4.8,6.6-10.6,6.4-17
			C548.8,442.3,542.9,441.9,543.1,445.7L543.1,445.7z"/>
	</g>
	<g>
		<path class="st3" d="M457.8,291.5c0,0.6-0.1,1.1-0.1,1.7c0,0.8,0.2,1.6,0.8,2.1c0.5,0.5,1.3,1,2,1c1.6,0,3-1.1,3.1-2.8
			c0-0.6,0.1-1.1,0.1-1.7c0-0.8-0.2-1.6-0.8-2.1c-0.5-0.5-1.3-1-2-1C459.3,288.8,457.9,289.9,457.8,291.5L457.8,291.5z"/>
	</g>
	<g>
		<path class="st3" d="M560.4,297.1c-0.8,1.3-0.7,2.9,0.3,4c0.6,0.7,1.7,1.1,2.6,1.2c1,0,2-0.2,2.7-0.9c1.1-1,1.4-2.7,0.7-4
			c-0.4-0.7-1-1.2-1.7-1.4c-0.7-0.2-1.6-0.2-2.3,0.2s-1.2,1-1.4,1.7c-0.2,0.8-0.2,1.6,0.2,2.3c0,0,0,0.1,0,0.1
			c-0.1-0.2-0.2-0.5-0.3-0.7c0,0,0,0.1,0,0.1c0-0.3,0-0.5-0.1-0.8c0,0,0,0.1,0,0.1c0-0.3,0.1-0.5,0.1-0.8c0,0,0,0,0,0.1
			c0.1-0.2,0.2-0.5,0.3-0.7c0,0,0,0,0,0c0.2-0.2,0.3-0.4,0.5-0.6c0,0,0,0-0.1,0.1c0.2-0.1,0.4-0.3,0.6-0.4c0,0-0.1,0-0.1,0.1
			c0.2-0.1,0.5-0.2,0.7-0.3c-0.1,0-0.2,0-0.2,0.1c0.3,0,0.5,0,0.8-0.1c-0.1,0-0.2,0-0.4,0c0.3,0,0.5,0.1,0.8,0.1
			c-0.1,0-0.2,0-0.2-0.1c0.2,0.1,0.5,0.2,0.7,0.3c0,0-0.1,0-0.1-0.1c0.2,0.2,0.4,0.3,0.6,0.5c0,0,0,0-0.1-0.1
			c0.1,0.2,0.3,0.4,0.4,0.6c0,0,0,0,0-0.1c0.1,0.2,0.2,0.5,0.3,0.7c0,0,0-0.1,0-0.1c0,0.3,0,0.5,0.1,0.8c0,0,0,0,0-0.1
			c0,0.3-0.1,0.5-0.1,0.8c0,0,0-0.1,0-0.1c-0.1,0.2-0.2,0.5-0.3,0.7c0,0,0-0.1,0-0.1c0.4-0.6,0.6-1.5,0.4-2.2
			c-0.2-0.7-0.6-1.5-1.3-1.8C563.1,295.5,561.3,295.8,560.4,297.1L560.4,297.1z"/>
	</g>
	<g>
		<path d="M413.9,442.7c-7.6,52.1-18.5,103.7-32.7,154.4c-1,3.6,4.6,5.5,5.6,1.8c14.2-51.2,25.2-103.4,33-156
			C420.3,439.2,414.4,439,413.9,442.7L413.9,442.7z"/>
	</g>
	<g>
		<path d="M392.1,585.7c-6.3,6.6-11.8,13.9-16,22c-3.2,6.1-6.1,12.7-4.8,19.8c1.1,5.8,6,10,12.1,8.5c2.9-0.7,5.2-2.5,7.6-4.2
			c2.1-1.5,4.6-3.8,7.3-2.6c-0.7-1-1.3-2-2-2.9c-1.7,10.2-3.4,20.3-5.1,30.5c0.5-0.8,1-1.6,1.6-2.5c-0.1,0.1-0.3,0.1-0.4,0.2
			c0.8-0.1,1.5-0.1,2.3-0.2c-2.3-0.5,0,6.2,0.1,6.8c0.5,1.7,0.9,3.3,1.4,5c0.8,2.9,1.6,5.8,2.5,8.8c1.8,6.2,3.5,12.5,5.3,18.8
			c3.4,12.1,6.8,24.2,10.2,36.2c7,24.6,13.9,49.2,20.9,73.8c1,3.6,6.8,2.4,5.7-1.3c-8.2-29-16.4-57.9-24.6-86.9
			c-4.1-14.4-8.1-28.8-12.2-43.1c-1-3.5-2-7.1-3-10.6c-0.8-2.7-1.2-6.2-3.2-8.4c-3.1-3.3-8.9-1.3-7.7,3.6c0.5,2.1,2.4,3.5,4.6,2.9
			c3-0.9,2.8-5.4,3.2-7.9c1.4-8.5,2.9-16.9,4.3-25.4c0.2-1.3-0.9-2.5-2-2.9c-4.9-2.1-9.3,1.1-13.1,3.8c-3.7,2.6-8.9,5-10-1.3
			c-1.1-6.1,2.2-12.1,5-17.2c3.8-6.9,8.5-13.2,14-18.9C398.7,587.4,394.8,583,392.1,585.7L392.1,585.7z"/>
	</g>
	<g>
		<path d="M611.4,409.4c7.8,24.9,15.7,49.8,23.5,74.7c7.7,24.5,16,48.9,22.9,73.6c3.7,13.3,6.4,27,5.5,40.9
			c-0.2,3.8,5.6,4.1,5.9,0.3c1.7-25-7.5-49.1-14.8-72.5c-7.9-25.1-15.8-50.2-23.7-75.4c-4.5-14.3-9-28.6-13.5-43
			C616.1,404.6,610.3,405.8,611.4,409.4L611.4,409.4z"/>
	</g>
	<g>
		<path d="M640.6,554.5c11.8,6.5,21.1,16.6,26.6,28.9c2.7,5.9,4.4,12.3,5,18.8c0.1,1.4,0.7,3.7-1.1,3.9c-1.5,0.2-3-1.3-3.9-2.2
			c-2.4-2.4-4.4-4.7-7.7-5.9c-2.1-0.7-4.4,1.3-3.8,3.4c5.3,20.5,10,41.1,11.4,62.2c1.4,21.8-0.7,43.6-4,65
			c-1.9,12.5-4.3,24.8-6.6,37.2c-0.7,3.7,4.9,5.5,5.6,1.8c4.2-21.9,8.4-43.9,10.3-66.1c1-11.2,1.4-22.6,0.8-33.8
			c-0.5-10.6-2-21.2-3.5-31.7c-1.8-12.1-5.2-24.1-8.2-35.9c-1.3,1.1-2.5,2.3-3.8,3.4c3.8,1.3,5.7,5.7,9.4,7.4c2.9,1.3,6.6,1.5,9-0.8
			c3-2.8,2.1-7.6,1.6-11.2c-0.5-4.1-1.5-8.2-2.9-12.2c-5.4-15.7-16.4-29.2-31-37.2C640.5,547.8,637.3,552.7,640.6,554.5L640.6,554.5
			z"/>
	</g>
	<g>
		<path d="M443,784.2c-3.1,13-5,26.3-5.5,39.7c-0.1,3.8,5.7,4.1,5.9,0.3c0.5-12.9,2.2-25.6,5.2-38.2
			C449.5,782.4,443.9,780.5,443,784.2L443,784.2z"/>
	</g>
	<g>
		<path d="M449.3,829.1c-9.1-9-22.6-19.8-35.8-11.6c-6.2,3.9-7.7,10.7-7.5,17.6c0.2,8.8,1.7,17.4,4.3,25.8c1.1,3.6,6.9,2.3,5.7-1.3
			c-2-6.4-3.4-13.1-3.9-19.8c-0.5-5.7-1.3-13.4,4.1-17.1c10.3-7.1,21.8,3.5,28.8,10.3C447.6,835.6,452,831.7,449.3,829.1
			L449.3,829.1z"/>
	</g>
	<g>
		<path d="M464.4,820.2c-14.9,6.1-26.2,19.4-30,35c-0.3,1.4,0.2,3.4,1.9,3.7c4.7,1,8.7-0.4,11.8-4.1c2.4-2.9-2.5-6.1-4.9-3.2
			c-1.2,1.4-3.2,2.1-5,1.8c0.6,1.2,1.2,2.5,1.9,3.7c3.4-14.3,13.5-26.1,27.1-31.7C470.6,824,467.9,818.8,464.4,820.2L464.4,820.2z"
			/>
	</g>
	<g>
		<path d="M477.3,833.5c-5.8,7.1-6.7,16.9-2.9,25.1c1.6,3.4,6.8,0.7,5.2-2.7c-3-6.5-1.8-13.7,2.6-19.2
			C484.6,833.7,479.7,830.5,477.3,833.5L477.3,833.5z"/>
	</g>
	<g>
		<path d="M445,871.4c31.1,2.9,62.5,1.2,93.2-5.1c3.7-0.8,2.4-6.5-1.3-5.7c-30.1,6.2-61,7.8-91.6,5
			C441.5,865.2,441.2,871.1,445,871.4L445,871.4z"/>
	</g>
	<g>
		<path d="M507,693.8c3.9,16.2,9.8,31.8,17.6,46.5c2,3.7,4,7.3,6.2,10.9c1.9,3.1,4.4,6.1,5.4,9.6c0.3,1.1,0.7,2.7-0.2,3.6
			c-1.2,1.1-4.2,0-5.5-0.6c-3.6-1.5-6.2-4.3-7.8-7.8c-1.6,1.1-3.2,2.2-4.8,3.3c20.8,26.7,20.3,63,19.4,95.1
			c-0.1,3.8,5.8,4.1,5.9,0.3c0.9-33.9,1-71.3-20.9-99.3c-2.1-2.7-6.1,0.4-4.8,3.3c3,6.7,12.4,14.5,20.3,11.2
			c8.9-3.7,2.8-14.3-0.6-19.6c-11.3-17.8-19.6-37.4-24.5-58C511.8,688.8,506.1,690.1,507,693.8L507,693.8z"/>
	</g>
	<g>
		<path d="M593.1,844.7c3.1-4.9,11.5-13.9,14.9-4.2c2.6,7.6,2.4,16.6,1.3,24.5c-0.5,3.8,5.4,4,5.9,0.3c0.8-6.2,0.8-12.4,0-18.7
			c-0.6-4.6-1.4-10-4.8-13.5c-7.8-8.2-17.9,1.5-22.2,8.3C586.1,844.7,591.1,847.9,593.1,844.7L593.1,844.7z"/>
	</g>
	<g>
		<path d="M629.2,827.6c5.6-2.5,12,1.5,14.9,6.3c3.7,6.3,3.5,14.1,3.4,21.2c0,3.8,5.8,4.1,5.9,0.3c0.1-9.2,0-19.5-6-27
			c-5-6.2-13.4-9.3-20.9-6C623.1,823.9,625.8,829.2,629.2,827.6L629.2,827.6z"/>
	</g>
	<g>
		<path d="M653.7,838.2c5.7,2.2,8.7,9.6,5.8,15c-1.8,3.3,3.1,6.6,4.9,3.2c4.7-8.9,0.6-20.3-8.9-23.8
			C652,831.2,650.1,836.8,653.7,838.2L653.7,838.2z"/>
	</g>
	<g>
		<path d="M573.9,651.8c0.8,18.3-9.8,34.1-18.3,49.4c-4.3,7.7-8.4,15.7-10.8,24.2c-1.1,3.9-1.8,8-2,12.1c-0.2,4-0.2,8.9,1.7,12.5
			c2.6,5.2,8.2,4.9,12.6,2.1c5.8-3.8,11.3-8.2,16.9-12.3c-1.6-1-3.2-2.1-4.8-3.1c-6.2,19.7-12.5,39.3-18.7,59
			c-0.8,2.5,1.8,4.6,4.1,3.5c2.6-1.2,5.1-2.3,7.7-3.5c-1.2-0.2-2.4-0.4-3.5-0.6c3.5,4.7,2.8,11,1.6,16.4c-1.5,6.7-3.5,13.3-4.8,20.1
			c-2.8,14.4-4.2,29-4,43.7c0,3.8,5.9,4.1,5.9,0.3c-0.2-16.2,1.4-32.4,5-48.2c2.7-11.6,8.8-25.5,0.7-36.2c-0.8-1.1-2.4-1.2-3.5-0.6
			c-2.6,1.2-5.1,2.3-7.7,3.5c1.4,1.2,2.8,2.4,4.1,3.5c6.2-19.7,12.5-39.3,18.7-59c1-3-2.5-4.8-4.8-3.1c-4.5,3.3-9,6.5-13.4,9.8
			c-1.5,1.1-5,4.5-6.7,2.5c-1.1-1.3-1.1-4.4-1.2-6c-0.4-7.5,1.4-14.9,4.2-21.8c5.9-14.8,15.6-27.7,21.7-42.4
			c3.4-8.1,5.5-16.7,5.1-25.4C579.6,648.3,573.8,648,573.9,651.8L573.9,651.8z"/>
	</g>
	<g>
		<path d="M559.7,865c24.2,14.4,55.7,12.9,78.6-3.3c3.1-2.2-0.9-6.5-3.9-4.4c-20.7,14.6-49.7,15.6-71.5,2.7
			C559.7,858.2,556.5,863.1,559.7,865L559.7,865z"/>
	</g>
	<g>
		<path d="M641.5,820.7c0.6-4.2,7.8-46.9,11.8-45.8c3.6,1,5.5-4.5,1.8-5.6c-9.4-2.7-11.5,12.4-13,18.3c-2.8,10.8-4.9,21.8-6.5,32.8
			C635.1,824.2,641,824.5,641.5,820.7L641.5,820.7z"/>
	</g>
	<g>
		<path d="M671.4,644.9c10.8-8.3,28.8-12.2,41-4.6c5.6,3.5,8.3,11.5,1.7,15.4c-5,3-10.9,3.6-15,8.1c-1.1,1.2-1.5,3.7,0.4,4.6
			c19,9.5,24.9,31.4,23,51.1c-1.9,19.9-9.9,39.2-21.7,55.2c-6.6,9-14.6,17-23.5,23.7c-3,2.3,0.9,6.6,3.9,4.4
			c16.9-12.8,30.2-29.9,38.5-49.4c8.6-20.1,13.1-44.7,4.7-65.5c-4.1-10.3-11.7-19.4-21.7-24.4c0.1,1.5,0.2,3.1,0.4,4.6
			c5-5.5,13.8-5,18.5-11.2c4.9-6.6,1.8-15.7-4.2-20.4c-6.8-5.3-16.6-6.5-24.9-5.8c-9.1,0.8-17.7,4.2-24.9,9.8
			C664.4,642.8,668.4,647.2,671.4,644.9L671.4,644.9z"/>
	</g>
	<g>
		<path d="M674.6,807.1c8.3-12,22.2-22,37.5-20.2c6.8,0.8,13.2,4.4,17.8,9.4c2.2,2.5,4,5.4,5,8.6c0.4,1.4,2.3,9,0.2,9.7
			c-3.6,1.1-2.3,6.9,1.3,5.7c8.7-2.7,5.3-16.1,2.1-21.9c-4.2-7.7-11.7-13.6-20-16.2c-19-5.9-38.3,6.4-48.8,21.6
			C667.5,807,672.4,810.2,674.6,807.1L674.6,807.1z"/>
	</g>
	<g>
		<path d="M701.1,815.2c6.4-3.3,14.8-2.4,20.1,2.7c5.3,5.1,6.6,13.8,3.3,20.3c-3.2,6.1-9.6,9.3-16,10.7c-3.4,0.7-6.9,1.1-10.4,1.2
			c-1.8,0.1-3.6,0.1-5.5,0c-0.8,0-1.5,0-2.2-0.1c-0.4,0-0.9,0-1.3,0c-1-0.3-1.2-0.1-0.6,0.7c-0.1,0.8-0.3,1.5-0.4,2.2
			c-0.2,0.1-0.5,0.3-0.7,0.4c-0.9-0.3-1.9-0.6-2.8-0.9c0.1,0.1,0.2,0.2,0.3,0.3c2.8,2.5,7.2-1.4,4.4-3.9c-2.6-2.3-7-0.7-6.5,3.2
			c0.6,4.2,5.6,3.9,8.7,4c8.2,0.2,16.8-0.2,24.5-3.2c7.4-2.9,13.7-8.7,15.6-16.6c2-8.1-0.3-17.2-6.6-22.8
			c-7.2-6.5-17.9-7.7-26.5-3.3C695.1,811.7,697.8,816.9,701.1,815.2L701.1,815.2z"/>
	</g>
	<g>
		<path d="M710.1,834.2c1.8,4.5,2.6,9.1,2.5,13.9c-0.1,3.8,5.8,4.1,5.9,0.3c0.2-5.9-0.9-11.5-3.2-16.9
			C713.9,828,708.7,830.7,710.1,834.2L710.1,834.2z"/>
	</g>
	<g>
		<path d="M390.5,645.8c-12.8-11.3-29.8-16.4-46.7-14.9c-8.5,0.7-17,3.1-24.5,7.2c-4.9,2.7-18,9.7-13,16.8c2.9,4.1,9.2,4.5,13.6,5.4
			c6.8,1.4,13.6,2.9,20.4,4.3c-0.4-1.7-0.7-3.3-1-5c-8.3,6.5-15.3,14.6-20.2,23.9c-2,3.8-4.3,8.7-1.5,12.8c2.2,3.3,6.5,4.1,9.6,1.6
			c2.6-2.1-0.5-6.5-3.3-4.8c-6.9,4.1-7.1,12.5-5.9,19.7c1.6,8.9,4.4,17.7,8,25.9c7.3,16.8,18.5,31.7,32.5,43.6
			c2.9,2.5,6.1-2.5,3.2-4.9c-12.1-10.3-21.9-23.3-28.8-37.7c-3.4-7.1-6-14.5-7.9-22.2c-1.3-5.2-4.4-15.7,1.6-19.3
			c-1.1-1.6-2.2-3.2-3.3-4.8c-1.1,0.8-0.8-3.1-0.7-3.6c0.5-1.5,1.2-2.8,2-4.2c1.5-2.8,3.3-5.6,5.2-8.2c3.8-5.2,8.4-9.7,13.5-13.6
			c1.6-1.3,1.1-4.5-1-5c-6.2-1.3-12.4-2.6-18.6-3.9c-3.1-0.7-6.4-1.1-9.4-2c-0.7-0.2-1.7-0.4-2.3-0.9c-1.2-1-0.7-1,0.5-2.1
			c6.4-6,14.9-10,23.4-12c17.4-4.1,36.8-0.3,50.4,11.7C389,652.2,393.3,648.3,390.5,645.8L390.5,645.8z"/>
	</g>
	<g>
		<path d="M394,801.7c-9-0.7-15.3-9.2-23.4-12.4c-9-3.5-19-0.3-26.2,5.7c-8.1,6.6-12.4,16.7-16.1,26.2c-3,7.6-6.1,17.3,1.2,23.4
			c0.7,0.6,2.2,0.6,3,0.2c1.6-1,3.1-1.9,4.7-2.9c3.2-2,0.5-7.2-2.7-5.2c-1.6,1-3.1,1.9-4.7,2.9c1,0,2,0.1,3,0.2
			c-5.5-4.6,1-16.5,3-21.3c3.5-8.3,8.1-16.8,16.1-21.4c7.6-4.4,15.1-3.8,22.3,1c6.2,4.1,11.8,9.1,19.6,9.7
			C397.4,807.9,397.7,802,394,801.7L394,801.7z"/>
	</g>
	<g>
		<path d="M368.9,820.3c-9.4,6.5-13.7,18.9-10.6,29.9c1,3.6,6.8,2.4,5.7-1.3c-2.6-9.2,1-18.8,8.8-24.3
			C376,822.5,372,818.2,368.9,820.3L368.9,820.3z"/>
	</g>
	<g>
		<path d="M331.7,833.8c4.3,7.7,11.4,13.4,19.9,15.8c3.6,1,5.5-4.6,1.9-5.6c-7.1-2-13-6.4-16.5-12.9
			C335.1,827.8,329.8,830.5,331.7,833.8L331.7,833.8z"/>
	</g>
	<g>
		<path d="M356.6,844.6c-2.6,9.4,7.9,14.1,15.1,16.1c11.7,3.2,23.9,4.9,36,5c3.8,0,4.1-5.8,0.3-5.9c-9.6-0.1-19.1-1-28.4-3.2
			c-3.9-0.9-19.4-3.4-17.5-10.2C363.3,842.8,357.7,841,356.6,844.6L356.6,844.6z"/>
	</g>
	<g>
		<path d="M370.3,855.2c2.4,2.2,4.8,4.4,7.2,6.6c1,0.9,2.3,1.3,3.5,0.6c4-2,7.6-4.7,10.6-8.1c2.5-2.8-1.4-7.2-3.9-4.4
			c-2.7,3-5.8,5.4-9.4,7.2c1.2,0.2,2.4,0.4,3.5,0.6c-2.4-2.2-4.8-4.4-7.2-6.6C371.9,848.7,367.5,852.6,370.3,855.2L370.3,855.2z"/>
	</g>
	<g>
		<path d="M323.4,728.1c-4.8,3.9-11.7,2.5-17.3,1.9c-6.4-0.7-12.6-0.6-18.9,1.3c-12.6,3.7-23.3,12-33.4,20.1
			c-1.5,1.2-1.1,3.6,0.4,4.6c5.8,4.2,11.7,8.5,17.5,12.7c0.3-1.8,0.6-3.5,1-5.3c-11,2.1-21.3,6.4-30.4,12.8
			c-3.5,2.5-8.2,5.1-8.7,9.8c-0.4,3.8,2.2,6.7,6,5.1c2.2-0.9,2-4.9-0.4-5.4c-6.8-1.5-12.7,1.7-17.5,6.3c-5.6,5.3-10.2,11.8-14.9,18
			c-9.4,12.5-17.8,26.2-20.9,41.7c-2.9,14.4-1.5,29.9,6.9,42.3c6.9,10.1,17.3,17,28.7,21c13.8,4.8,28.6,5.8,43,4.6
			c3.8-0.3,2.5-6-1.3-5.7c-21.3,1.8-46.8-1.8-61.9-18.4c-19.5-21.5-9.9-52.5,4.4-73.8c4.5-6.7,9.5-13,14.6-19.3
			c3.9-4.8,9.9-12.6,17.1-11.1c-0.1-1.8-0.3-3.6-0.4-5.4c1.7,1.6,2.6,1.9,2.6,0.8c0-0.2,0-0.4,0.1-0.5c0.3-0.3,0.8-1,1.1-1.3
			c1.3-1.2,2.8-2.3,4.2-3.3c2.9-2.1,5.9-3.9,9-5.5c6.3-3.3,13.1-5.5,20.1-6.8c2.6-0.5,2.9-3.9,1-5.3c-5.8-4.2-11.7-8.5-17.5-12.7
			c0.1,1.5,0.2,3.1,0.4,4.6c10.3-8.3,21.4-17.1,34.7-19.7c11.5-2.2,24.9,4.5,34.9-3.5C330.3,730,326.3,725.7,323.4,728.1
			L323.4,728.1z"/>
	</g>
	<g>
		<path d="M244.6,830.4c-3.7,12.8,0.1,27.2,10.4,35.8c5,4.2,11.1,6.8,17.5,7.7c3.4,0.5,6.8,0.4,10.1-0.2c3.8-0.6,7.4-2.4,11.2-2.3
			c-0.9-1.3-1.8-2.6-2.6-3.9c-3.8,9.6-3.9,21.1-9.6,29.9c-4.1,6.3-13.4,11.8-20.2,6.3c-3-2.4-6.1,2.6-3.2,4.9
			c8.1,6.5,19.4,2.2,25.7-4.7c8.6-9.4,8.4-23.3,12.9-34.6c0.7-1.8-0.8-3.8-2.6-3.9c-6-0.1-11.4,2.9-17.4,2.8
			c-5.8-0.1-11.4-1.9-16.2-5.2c-9.7-6.8-13.7-19.6-10.4-30.8C251.2,828.7,245.6,826.8,244.6,830.4L244.6,830.4z"/>
	</g>
	<g>
		<path d="M262.3,855.6c4.7-9.2,17.4-9.9,26.4-11.4c13.2-2.3,26.4-4.6,39.6-6.9c3.7-0.7,2.5-6.4-1.3-5.7c-14.5,2.5-29,5-43.4,7.5
			c-9.6,1.7-21.3,3.7-26.2,13.3C255.7,855.8,260.6,859,262.3,855.6L262.3,855.6z"/>
	</g>
	<g>
		<path d="M445.6,488.6c-12.4,13.4-23.6,29.1-27.9,47.2c-2,8.5-2.8,17.9-0.6,26.5c2,7.8,7.7,15.4,16.5,15.8
			c8.4,0.3,14.9-8,11.7-15.9c-1.1-2.8-5.4-1.5-5.5,1.2c-1.8,31,16.1,61.9,44.1,75.6c3.4,1.7,6.6-3.3,3.2-4.9
			c-26.2-12.8-43-41.2-41.4-70.4c-1.9,0.4-3.7,0.8-5.5,1.2c1.3,3.3-1.9,6.9-5.1,7.3c-4.4,0.6-8.4-2.8-10.4-6.5
			c-4.1-7.7-3.4-18.2-1.7-26.5c3.7-17.7,14.5-33.1,26.6-46.2C452.1,490.2,448.2,485.8,445.6,488.6L445.6,488.6z"/>
	</g>
	<g>
		<path d="M611.5,479.1c9.3,14.8,18.1,30.8,23.7,47.4c2.7,8,4.6,17.1,2.1,25.4c-1,3.4-2.9,8-7.1,5.3c-3.4-2.1-3.9-6.9-4.4-10.5
			c-1.8,0.7-3.7,1.3-5.5,2c13.4,30.1-7,60.7-23.9,84.4c-2.2,3.1,2.7,6.3,4.9,3.2c18.3-25.7,38.7-58,24.2-90.3c-1.4-3.2-6-1.2-5.5,2
			c0.7,4.5,1.7,9.3,5,12.6c2.8,2.8,7.1,4.2,10.9,2.8c4.3-1.7,6.2-6.6,7.2-10.7c1.2-4.9,1.3-10,0.7-15c-1.3-10.7-6-21-10.5-30.7
			c-4.9-10.5-10.5-20.8-16.7-30.6C614.7,473.2,609.5,475.9,611.5,479.1L611.5,479.1z"/>
	</g>
	<g>
		<path d="M415.9,456.2c5.2-2.9,4.6-11.7-1.5-13.1c-2.4-0.5-4,1.1-3.8,3.4c0.7,8.8,3.7,17.2,8.6,24.6c1.4-1.3,2.8-2.5,4.2-3.8
			c-1.5-1.1-3-2.2-4.4-3.4c-1.7-1.3-3.6,0-4.4,1.5c-10,21.2-17.1,43.5-21.3,66.5c-0.7,3.7,5.2,4,5.9,0.3c4.1-22.5,11.2-44.4,21-65
			c-1.5,0.5-2.9,1-4.4,1.5c1.5,1.1,3,2.2,4.4,3.4c2.3,1.7,5.9-1.4,4.2-3.8c-4.7-7-7.4-14.8-8.1-23.2c-1.3,1.1-2.5,2.3-3.8,3.4
			c0.9,0.2,1.8,1.7,0.7,2.3C409.9,452.9,412.6,458.1,415.9,456.2L415.9,456.2z"/>
	</g>
	<g>
		<path d="M416.3,464.9c9.4,11.8,24.3,17.7,39.2,16.1c3.8-0.4,2.5-6.1-1.3-5.7c-12.8,1.4-25.6-4.3-33.6-14.3
			C418.3,458,413.9,462,416.3,464.9L416.3,464.9z"/>
	</g>
	<g>
		<path d="M405.9,484.8c-3.5,2.8-2.2,7.2,0.4,10.1c3.5,3.8,9.5,5.6,14.2,7.1c11,3.5,22.7,4.2,34.1,2.3c3.7-0.6,2.5-6.3-1.3-5.7
			c-8,1.3-16.3,1.2-24.2-0.4c-3.8-0.8-7.5-1.9-11-3.3c-0.7-0.3-9.9-4.3-8.2-5.7C412.8,486.8,408.8,482.4,405.9,484.8L405.9,484.8z"
			/>
	</g>
	<g>
		<path d="M553.9,484.5c11.8-1.3,23.5-3.7,34.9-7.2c5.5-1.7,11-3.7,16.4-5.9c5.3-2.2,10.4-5.1,16-6.7c3.6-1,2.4-6.8-1.3-5.7
			c-5.3,1.5-10.2,4.2-15.2,6.3c-5.6,2.4-11.3,4.5-17.1,6.3c-11.4,3.5-23,5.9-34.9,7.2C548.9,479.2,550.2,485,553.9,484.5
			L553.9,484.5z"/>
	</g>
	<g>
		<path d="M573.2,510.1c19.8-3.7,39.3-8.5,58.6-14.2c3.6-1.1,2.4-6.8-1.3-5.7c-19.3,5.8-38.8,10.5-58.6,14.2
			C568.2,505.1,569.5,510.8,573.2,510.1L573.2,510.1z"/>
	</g>
	<g>
		<path d="M536.7,491.3c2.9,8.1,6,16.6,5.7,25.3c-0.1,1.9-0.5,4.5,0.9,6c2.4,2.6,4.8-0.2,5.8-2.4c1.6-3.4-4-5.2-5.6-1.8
			c-0.4,0.7,0,0.5,1.3-0.6c0.9,0.3,1.9,0.6,2.8,0.9c0.8,0.8,0.5,1.7,0.5,0.1c0-0.9,0.1-1.9,0.1-2.8c0.1-2.1,0.1-4.2-0.2-6.3
			c-1.2-7.1-3.7-14.2-6.2-21C540.6,485.1,535.4,487.8,536.7,491.3L536.7,491.3z"/>
	</g>
	<g>
		<path d="M545.5,485c6,10.6,8.1,22.6,6.4,34.6c-0.5,3.7,5.3,4,5.9,0.3c1.9-13-0.6-26.2-7-37.6C548.9,479,543.7,481.6,545.5,485
			L545.5,485z"/>
	</g>
	<g>
		<path d="M557.8,526.7c-5.1-5.5-13.6-6-20-2.3c-7.2,4.2-10,12.5-6.8,20.2c3.4,8.2,12.2,13.5,21,12.2c8.7-1.3,16-8.5,18.4-16.8
			c1.3-4.7,1.3-9.9-3.2-12.8c-3.8-2.4-9-2.1-13.3-1.4c-3.7,0.6-2.5,6.4,1.3,5.7c2.7-0.4,7.5-1.2,9.5,1.2c2.2,2.6-0.9,8.5-2.5,10.8
			c-4.3,6.2-12.6,10-19.6,5.9c-5.8-3.4-10-11.8-5-17.5c3.8-4.4,11.5-5.8,15.7-1.3C556,533.4,560.4,529.5,557.8,526.7L557.8,526.7z"
			/>
	</g>
	<g>
		<path d="M479.6,467.7c-4.5,2.8-5.6,8.2-3.6,13c2.5,5.9,8.8,7.9,14.7,8.5c7.6,0.7,15.3,0.6,22.9,0.9c5.9,0.2,12.6,1.2,16.8-4
			c2.4-2.9-2.6-6.1-4.9-3.2c-2.3,2.8-9.1,1.4-12.2,1.3c-5.2-0.2-10.3-0.3-15.5-0.5c-4.4-0.1-9.4,0.1-13.4-2
			c-2.5-1.4-5.6-6.5-2.1-8.6C485.5,470.9,482.8,465.7,479.6,467.7L479.6,467.7z"/>
	</g>
	<path class="st3" d="M480,377.4c5,4.8,12.4,6.9,19.2,5.4c1.6-6.3-6.9-12.5-12.4-8.8"/>
	<g>
		<path d="M451.9,512.1c30.6,7.7,62.6,8.4,93.4,1.8c3.7-0.8,2.4-6.5-1.3-5.7c-29.8,6.4-60.8,5.9-90.3-1.6
			C450,505.6,448.2,511.2,451.9,512.1L451.9,512.1z"/>
	</g>
</g>
</svg>
