<?xml version="1.0" encoding="utf-8"?>
<!-- Generator: Adobe Illustrator 23.0.2, SVG Export Plug-In . SVG Version: 6.00 Build 0)  -->
<svg version="1.1" id="Layer_1" xmlns="http://www.w3.org/2000/svg" xmlns:xlink="http://www.w3.org/1999/xlink" x="0px" y="0px"
	 viewBox="0 0 1000 1000" style="enable-background:new 0 0 1000 1000;" xml:space="preserve">
<style type="text/css">
	.st0{opacity:0.7;fill:#F5CD62;}
	.st1{opacity:0.7;fill:#77A81D;}
	.st2{fill:#77A81D;}
	.st3{opacity:0.7;fill:#403D36;}
	.st4{fill:#403D36;}
	.st5{fill:#FFFFFF;}
</style>
<g>
	<path class="st0" d="M319.6,248.7c-36.8,25.2-35.5,82.1-13.3,120.9s55.1,68.8,82.9,103.7c49.3,61.7,71.6,139.2,100.4,212.8
		c23.1,59,53.7,115.3,94.3,163.9c52.5-27.7,83.1-79,79.8-138.3c-6-108-71.9-230-152.7-301.8c-6.9-6.1-14.4-12.2-23.3-14.5
		c-12.3-3.1-25,1.5-37.5,3.7c-37.6,6.6-78.4-11.4-98.8-43.7c0,0-91.4,21.7-34.7-107.3"/>
	<path class="st0" d="M630.6,548.1c-5,10-8.2,20.8-9.4,31.9c-19.1-23.6-34.1-50.5-44.4-79.1c-1.3-3.7-2.6-7.8-1.6-11.6
		c1.2-4.8-3.1-6.5,0.9-9.3c22.6-15.9,52.6-36.4,65.9-60.6c13.3-24.3,17.6-54.6,6.2-79.8c8.5-2.9,18.1-0.7,25.7,4.1
		c7.6,4.7,13.6,11.7,19.1,18.8c19.9,25.7,35.8,54.6,46.6,85.2c1.7,4.8,3.2,10.4,0.7,14.9c-5,8.9-19.8,4.5-27.5,11.2
		c-6.7,5.9-4.5,16.6-2,25.1s4.2,19.4-2.8,24.8c-5.4,4.1-13,2.5-19.7,1.8c-31.7-3.7-64.4,17.3-74.4,47.6"/>
	<path class="st0" d="M150.6,604.5c8.4-16.6,28.4-23,46.6-27.2c11.8-2.7,24.1-5.1,35.9-2.5c11.8,2.7,23,11.7,24.3,23.8
		c9-20.4,33.9-32.4,55.5-26.7c14.6,3.8,29.1,14.7,43.4,9.6c8.4-3,14.1-11,16.5-19.5c2.4-8.5,2-17.6,1.3-26.4
		c-1.3-17.5-5-37.4-19.9-46.7c-12.8-7.9-29-5.2-44-4.6c-43.9,1.7-87.3-20.2-114-54.7c-3.9-5-11.8-25-16.8-27
		c-9.9-3.9-13.2,19.4-15.1,25.5c-7.8,26.5-13,53.7-15.5,81.2C145.8,541.1,146.4,573,150.6,604.5z"/>
	<path class="st1" d="M564.8,291c-1.8-16.8-16.3-28.9-26.2-42.6c-7.3-10.1-12.2-21.9-14.6-34.1c4-9.3,7.3-18.9,9.7-28.8
		c-3.5-1-7.4-0.5-10.7,1.2c0.3-2,0.6-4.1,1-6.1c10.3-18.3,19.4-37.3,27-56.8c-9.8,12.8-26.2,20.4-42.4,19.6
		c-16.2-0.7-31.8-9.8-40.4-23.4c-7.6,5.2-12.5,14.2-12.4,23.4c-8,0-15.9,0-23.9,0c-4.8-15.9-9.7-31.9-14.6-47.8
		c-1.7-5.7-5.3-12.7-11.3-12c-4.6,0.5-7.1,5.5-8.6,9.8c-6.9,19.9-8.9,41.4-5.7,62.2c-1.3-5.8-2.6-11.6-3.9-17.4
		c-6.5,10.2-15.8,18.7-26.6,24.3c-6.2-13.2-18-23.6-31.9-28.3c8.6,23.8-5.5,47.7-30.4,52.7c-10.2,2.1-59.2-7.8-44.5,12.6
		c23.3-5.2,40.5-6.3,57.6,11.8c4.2,4.4,7.3,10.3,9.6,16.9c-1.2,2.3-2.1,4.3-2.7,5.6c-11.2,24-9.4,52.4-11.3,78.2
		c-0.7,9.8-1.3,20.2,3,29c5,10.2,16.1,16.5,27.3,18.1c7.7,1.1,15.5,0.4,23.1-1.3c14.3,8.4,27.8,20.6,40.1,30.5
		c15.4,12.3,33.9,21.6,52.5,15.2c17-5.9,30-30,43.4-42c12.8-11.4,29.1-18.1,43.1-28.1C554.4,323.5,566.6,308,564.8,291z"/>
	<path class="st1" d="M647.9,385.6c1.6-4.3,2.7-8.8,3.3-13.3c0.2-0.9,0.4-1.7,0.6-2.6c1.1-6.2,0.3-12.4-1.4-18.5
		c-0.6-3.1-1.5-6.1-2.5-9c-3.2-9-8.5-17.8-7.6-27.3c0.5-5.4,11.2-31.3-1.1-30.8c-3,0.1-5.3,3.8-7.1,8.4c-7.6,4-15.1,8-22.7,12
		c13.5,24.3,14,55.3,1.2,80c-12.8,24.7-38.3,42.2-65.9,45.3L530,413.4c8.8,13.5,17.6,27,26.4,40.5c5.5,8.4,12.7,17.8,22.8,17.7
		c11.5-0.1,26.7-17.8,32.5-27.8c5.8-10,8.5-14.9,18.8-9.9c3.5,1.7,6.4,5.1,10.3,5.3c6.5,0.4,10-8.1,8.4-14.5s-6-11.7-7.2-18
		c-0.7-3.5-0.4-6.9,0.3-10.2C644.5,393.1,646.4,389.5,647.9,385.6z"/>
	<path class="st2" d="M187.7,428.7c-19,21.8-24,54.7-12.5,81.2c10-21.4,21.6-42.1,34.5-61.9"/>
	<path class="st1" d="M563,811.5c-9.7-7.6-21.9-11.6-31.6-19.1c-21.8-16.8-22.6-59.5-28.4-86c-18.2-83.8-63.2-149.6-121.3-213.8
		c-0.3-0.3-0.6-0.6-0.9-0.9c-6.5-9.4-14.6-23.6-23.1-27.8c-10.8-5.4-19.9,1.3-31.1,3.7c-26.2,5.6-54.7,0.9-77.1-13.9
		c-31.8-21.1-49.5-61.5-43.4-99.2c1-6,2.3-12.6-1.1-17.6c-4-5.8-13-6.1-19.1-2.5c-6.1,3.6-9.9,10-13.5,16c5.3,3.3,10.5,6.6,15.8,9.9
		c-8.4,1.6-13.6,10.7-14.1,19.2s2.5,16.9,4.6,25.2c8.9,35,3.1,71.9-2.7,107.5c4.8-17.4,17.9-32.4,34.6-39.3
		c16.7-6.9,36.5-5.7,52.2,3.2c-5.9,20.1-4.7,42.1,3.3,61.5c4.3-17.5,8.6-35.1,13-52.6c26.7,9.8,55.3,14.2,83.7,12.9
		c0.2,0.6,0.4,1.1,0.6,1.7c7.4,20.3,14.9,40.6,22.3,60.8c-2.8,13.7-9.9,26.6-21.7,34.3c-4.7,3-10.3,5.4-13.1,10.1
		c-3.3,5.5-2,12.4-0.5,18.6c2.5,10.2,5.3,20.4,8.4,30.5c-16.1-18.1-43.8-26.3-68.4-21.9c-31.7,5.7-58.1,27.8-78,53
		c-10.2,12.9-27.9,23.1-26.3,39.4c0.8,7.6-0.9,12,12.3,27.7c4,4.7-2,12.2-2.8,18.3c-2.9,22.2,10.9,44.1,29.3,57.1
		c18.4,13,40.8,18.9,62.7,24.4c1.2-16.9,19.8-30.3,36.3-26.3c0.2,6.7,0.5,13.5,0.7,20.2c5.4-15.1,21.3-25.8,37.4-25.4
		c-2.5,6.5,4.7,13.4,11.7,13.5c7,0.1,13.3-4.2,19-8.3c5.4-3.9,10.8-7.8,16.3-11.8c0.7,2.5,1.4,4.9,2.1,7.3c6.4,5.5,17.3,3,22.4-3.7
		c0.6-0.8,1.2-1.7,1.6-2.6c3.1,4.6,6.2,9.2,9.4,13.7c-3.7,10.1-7.4,20.4-7.2,31.1s5.3,22,15.1,26.7c9.8,4.7,24.1-0.1,26.4-10.5
		c19.3-2.7,37.3-13,49.1-28.1c15.2-1.5,30.4-3.1,45.5-4.7C579.6,832.8,572.7,819.1,563,811.5z M380,506.3l-1-6.6
		c0.6,2.2,1.2,4.4,1.8,6.6C380.5,506.3,380.3,506.3,380,506.3z M384.9,538.4c0.8,2.1,1.5,4.2,2.2,6.3c0,1.9,0,3.8-0.1,5.7
		c0,0.3-0.1,0.7-0.1,1L384.9,538.4z"/>
	<path class="st1" d="M892.9,776.1c-0.7-13.8-9.7-28.3-23.3-30.4c-8.6-1.4-17.4,2.2-26,1.1c-13.6-1.8-23.7-17.1-20-30.2
		s20.2-21,32.8-15.5c-9.5-9.6-19-19.1-28.4-28.7c-2.4-2.5-5.4-5.1-8.8-4.5c-3.7,0.7-5.6,4.7-7.5,8c-7.3,12.7-23.8,19-37.9,15.2
		c-14.2-3.8-25.1-16.7-27.4-31.2c-2.3-14.5,3.9-29.7,14.9-39.4c-1.8,1.6-32.5-3.9-37.8-3.4c-10.1,1.1-23.7,3.2-32.3,9
		c-1.7,1.1-3.1,2.4-4.2,3.8c-4.7-15.8-11.1-31-19.6-45.4c-3.6-6.1-7.7-12.1-13.7-15.8c-5.3-3.3-12.5-4.2-17.8-1.2l0.2-5.5
		c-2.8,3.5-4.4,7.3-5.3,11.3c-0.8,2-1,4.3-0.6,6.4c0,13.3,7.1,28.1,13.4,40.7c24.4,48.8,23,100.9,15.9,155c-8.8-7.7-13-2.4-20.5,6.5
		c-19.2-3.3-39.4,12.5-40.9,31.8s15.9,38.1,35.3,38c15,3.8,31.1,3.5,46-0.9c6.5,7.2,19.2,5.2,26-1.8s9.3-17,11.4-26.5
		c2.4-11.2,4.2-23.8-2.2-33.3s-24.3-10.3-27.2,0.8c7.2-32.3,11.1-66.1,9.5-99.3c0.9,1.9,2,3.7,3.4,5.3c6.7,6.9,17.8,5.6,27.3,4.8
		c30.3-2.4,63.2,7.9,81.1,32.6c17.6,24.2,17.6,57.8,7.5,86s-28.9,52.2-47.4,75.8c29.2,21,75.1,12.6,95-17.3
		c3.3-4.9,5.9-11.3,3.3-16.6c-3-5.9-10.7-7.1-16.5-10c-13.6-6.9-17.4-27.6-7.1-38.9s31.3-9.3,39.4,3.6
		C888.1,803.2,893.7,789.9,892.9,776.1z"/>
	<path class="st0" d="M741,729.8c6.2,1.1,12.8,2.4,17.3,6.9c7.8,7.7,8.1,23.3,18.8,25.7c5.1,1.1,11.4-1.5,15.1,2.2
		c1.9,1.9,2.4,4.8,2.7,7.4c2.9,23.5,5.8,47.1,8.6,70.6c11.6-22.8,16.6-48.9,14.4-74.4c-1.6-17.9-7.2-36.3-20.6-48.3
		c-10.4-9.3-24.4-13.7-38-16.9c-26.7-6.3-57.3-17.4-58.7,19.1C713.3,726.1,727.7,727.4,741,729.8z"/>
	<path class="st3" d="M453.1,358.5c1.4-10.6,10.8-19.6,21.5-20.5c2.9,11.1-0.4,23.6-8.2,31.9c-3.4,3.6-8.8,6.5-13,4
		c-3.4-2-4.3-6.7-3.1-10.5c1.2-3.7,4-6.7,6.7-9.6"/>
	<path class="st3" d="M422.5,379.1c-5.5-1-11.1-2-16.1-4.6c-5-2.6-9.3-7-10.3-12.5c-1-5.5,2.2-11.9,7.6-13.2
		c7.1-1.7,13.5,5.4,15.3,12.5s0.7,14.7,2.7,21.8"/>
	<path class="st3" d="M481,220.8c-5.2-4.3-14.5-0.9-15.7,5.7c8.4,1.5,17,1.2,25.3-0.7c2.1-0.5,4.4-1.3,5.1-3.3
		c1-2.7-1.9-5.5-4.7-5.8c-2.9-0.3-5.6,1-8.4,1.8s-6.1,1-8.2-1"/>
	<path class="st3" d="M353.3,227.9c-6.8-0.9-13.9,3.1-16.6,9.4c9.6,1.6,20-2.9,25.5-10.9"/>
	<path class="st3" d="M756.3,676.8c10.2,8.6,25.8,9.1,37.4,2.5s19-19.3,20.6-32.5C820.9,592.6,710.3,638,756.3,676.8z"/>
	<path class="st3" d="M843.3,708.7c-8.5-0.8-16.7,5.8-18.7,14.1s2,17.4,8.8,22.5s16.1,6.3,24.4,4.1s15.4-7.5,20.8-14.2
		c4.2-5.2,7.4-12,5.6-18.4c-2.2-7.9-11.2-12-19.3-13.1c-14.2-2-29.1,1.7-40.6,10.1"/>
	<path class="st3" d="M843.4,846.7c9,6.7,21.5,5.1,32.6,3.2c4.3-0.8,8.8-1.6,11.9-4.7c15.3-15.1-10.4-46.9-28.8-42.9
		C840.5,806.4,824.6,832.7,843.4,846.7z"/>
	<path class="st3" d="M290.5,856.2c3.6-2.8,4.5-7.8,6.6-11.8c2.1-4,7.4-7.5,11-4.7c1.7,1.3,2.3,3.5,2.8,5.5
		c2.5,12,0.2,24.9-6.2,35.3c-5.9-9.8-11.8-19.7-17.7-29.5"/>
	<path class="st3" d="M329.6,859.9c-0.6-13.4,11.3-26.1,24.7-26.2c1,14.9-1.3,30-6.6,43.9c-7.1-5.9-14.2-11.8-21.2-17.7"/>
	<path class="st4" d="M334.4,845.1c-6-1.5-12.8,3.9-12.5,10.1s7.4,11.1,13.2,9.1"/>
	<path class="st3" d="M365.8,856.5c4.3-8.3,11.3-15.2,19.6-19.4c1.8,9,2.1,18.2,1.1,27.3c-0.3,2.5-0.9,5.4-3.2,6.6
		c-2.1,1.2-4.8,0.2-6.9-0.9c-7.1-3.8-12.7-10.4-15.3-18.1"/>
	<path class="st3" d="M440.3,892.4c-0.8-1.8-3.1-2.8-5-2.2c-1.8,12.5,3.8,25.7,14.1,33c4.6-8.1,9.2-16.2,13.8-24.3
		c-5.8,2-12.4,1.1-17.4-2.4c-5-3.5-8.2-9.4-8.4-15.5"/>
	<path class="st3" d="M500.3,881c-0.3,5.1-0.6,10.4,1.5,15c2.1,4.7,7.3,8.3,12.2,6.8c5.6-1.7,7.4-8.6,8.4-14.4
		c0.9-5.3,1.4-11.7-2.7-15.1c-3.6-3-9.3-2.2-13.1,0.7s-6,7.3-8,11.5"/>
	<path class="st3" d="M555.8,853.5c-3.5,0.8-5.3,5.1-4.7,8.7c0.6,3.6,3,6.5,5.3,9.4s4.7,5.8,5.3,9.3c8.1-6.3,15.3-13.7,21.3-22
		c-8.1-9.9-25-10.7-34-1.6"/>
	<path class="st3" d="M631.1,862.3c1.9,7.5,10.6,12.5,18.1,10.5c7.5-2,12.4-10.7,10.3-18.2c0.3,1.2-45.2-4.3-48.2-1.4
		C599,864.8,625.1,878.7,631.1,862.3z"/>
	<path class="st3" d="M677.3,850.7c-2.8,7.9-3.2,16.7-1.1,24.9c10.6-1.2,20.3-7.9,25.2-17.3c-8.2-2.4-16.5-4.7-24.7-7.1"/>
	<path class="st3" d="M675.8,851.7c-2.7-2.2-7.5-0.1-7.7,3.3c3.6,3.8,7.2,7.6,10.8,11.4c0.8,0.9,1.7,1.8,2.8,2.2
		c3.2,1.2,6.4-2.6,6.2-6s-2.7-6.2-4.9-8.7"/>
	<g>
		<g>
			<path d="M315.2,243.9c0.5-14.7-5.3-28.9-16-39c-3.8-3.6-9.5,2.1-5.7,5.7c9.2,8.8,14,20.6,13.6,33.3
				C307,249.1,315,249.1,315.2,243.9L315.2,243.9z"/>
		</g>
		<g>
			<path d="M221.8,171.7c16.7,3.5,15.8,24.1,14.8,37.3c-0.2,3,3.6,5.1,6.1,3.5c19.9-13,47.8-8.2,62.5,10.3c3.2,4.1,8.9-1.7,5.7-5.7
				c-16.9-21.2-49.6-26.3-72.3-11.5c2,1.2,4.1,2.3,6.1,3.5c1.3-16.9-0.1-40.7-20.8-45.1C218.9,162.8,216.8,170.6,221.8,171.7
				L221.8,171.7z"/>
		</g>
		<g>
			<path d="M213.6,167.8c22,11.3,46.5,20.8,71.8,19c21.3-1.5,41.9-10.7,54.6-28.2c2.4-3.3-2.3-7.7-5.5-5.5c-1.1,0.7-2.2,1.5-3.2,2.2
				c-4.3,2.9-0.2,9.9,4.1,7c1.1-0.7,2.2-1.5,3.2-2.2c-1.8-1.8-3.7-3.7-5.5-5.5c-11.6,15.9-31.5,23.7-50.7,24.3
				c-22.8,0.7-44.7-7.8-64.6-18.1C213.1,158.5,209,165.4,213.6,167.8L213.6,167.8z"/>
		</g>
		<g>
			<path d="M333.5,168.4c-2.4-7.5-4.4-15-5.9-22.8c-0.8-4-1.8-8.4-1.8-12.5c0-3,2.1-4.9,4.4-1.9c1.1,1.4,2.1,2.9,3.1,4.3
				c8.6,12.2,15.8,25.4,21.5,39.3c1.9,4.8,9.8,2.7,7.8-2.1c-4-9.9-8.6-19.5-14.1-28.6c-2.7-4.6-5.6-9-8.7-13.3
				c-2.4-3.4-5.1-8.4-9.4-9.8c-3.6-1.2-7.6,0.5-9.9,3.3c-2.9,3.4-2.9,8.1-2.4,12.3c1.3,11.6,4,23,7.6,34
				C327.3,175.5,335.1,173.4,333.5,168.4L333.5,168.4z"/>
		</g>
		<g>
			<path d="M346.3,159.7c17.3-5.2,32.8-14.6,45.3-27.6c3.6-3.8-2.1-9.5-5.7-5.7c-11.6,12-25.8,20.7-41.8,25.5
				C339.2,153.4,341.3,161.2,346.3,159.7L346.3,159.7z"/>
		</g>
		<g>
			<path d="M391.4,149.9c-0.3-14.4,0.4-28.8,2.5-43c1-7,2.3-13.9,3.8-20.8c0.8-3.4,1.6-6.9,2.5-10.3c0.4-1.5,0.9-3.1,1.3-4.6
				c0.7-3-0.3-1.7,1.4-1c4.7,2.1,8.2,9.5,10.3,13.8c2.8,5.8,4.8,11.9,7,17.9c4.8,13.3,9.1,26.7,13.5,40.1c1.6,4.9,9.4,2.8,7.8-2.1
				c-5.3-16.5-10.6-32.9-16.8-49.2c-2.3-6-4.6-12.1-8.2-17.4c-3-4.6-8.1-11.1-13.8-12.2c-7.7-1.5-9,8.1-10.4,13.5
				c-2.1,8.1-3.9,16.2-5.2,24.4c-2.8,16.8-4,33.8-3.6,50.8C383.4,155.1,391.5,155.1,391.4,149.9L391.4,149.9z"/>
		</g>
		<g>
			<path d="M430.7,137.5c11.1,2.7,22.5,4.1,34,4c5.2,0,5.2-8.1,0-8.1c-10.8,0.1-21.3-1.1-31.8-3.7
				C427.8,128.5,425.6,136.3,430.7,137.5L430.7,137.5z"/>
		</g>
		<g>
			<path d="M464.4,139.4c-0.6-5.1-0.6-10.3,0.6-15.3c0.6-2.6,3.3-13.8,7-13c1.5,0.3,3.9,5.2,4.8,6.4c1.8,2.5,3.5,4.9,5.3,7.4
				c3.7,5.2,7.4,10.4,11.1,15.6c3,4.2,10,0.2,7-4.1c-5.5-7.7-10.9-15.3-16.4-23c-3.3-4.7-7.5-12.5-14.5-10.9
				c-6,1.3-8.9,9.6-10.7,14.7c-2.5,7.1-3.2,14.8-2.3,22.2C456.9,144.5,465,144.5,464.4,139.4L464.4,139.4z"/>
		</g>
		<g>
			<path d="M489.3,145.5c28-9.3,56.5-19.1,79.2-38.8c3-2.7-0.2-8-3.9-6.8c-1.3,0.4-2.7,0.9-4,1.3c-4.9,1.6-2.8,9.4,2.2,7.8
				c1.3-0.4,2.7-0.9,4-1.3c-1.3-2.2-2.6-4.5-3.9-6.8c-21.5,18.7-49,27.9-75.6,36.8C482.2,139.3,484.4,147.1,489.3,145.5L489.3,145.5
				z"/>
		</g>
		<g>
			<path d="M558.6,105.9c2.5,14-3.9,28.3-10.3,40.4c-6.2,11.6-14,22.3-23.1,31.8c1.9,1.9,3.8,3.8,5.7,5.7c1.6-2,4.2-1.6,5.7,0.4
				c1.5,2,1.2,5.1,0.7,7.3c-1.2,4.9-4.4,9.2-6.3,13.8c-3.5,8.5-4.2,18.2,0.7,26.3c2.7,4.4,9.7,0.4,7-4.1
				c-8.5-13.9,6.8-25.1,7.2-38.5c0.2-5.5-2.2-11.1-7.3-13.5c-4.5-2.1-10-1.3-13.2,2.6c-3.2,3.9,2,9.6,5.7,5.7
				c10.4-10.8,19.2-23.1,26-36.5c6.8-13.5,12.3-28.3,9.6-43.6C565.4,98.7,557.6,100.8,558.6,105.9L558.6,105.9z"/>
		</g>
		<g>
			<path d="M311,235.6c-4.7,16.7-8.7,33.6-12,50.7c-3.3,16.9-7.2,34.7-6,52c0.4,6.3,0.9,14.4,6.9,18c3.2,1.9,7.2,2.6,10.7,3.6
				c4.1,1.2,8.3,2.4,12.4,3.6c17.5,5,35.1,10,52.6,15.1c5,1.4,7.1-6.4,2.1-7.8c-15.3-4.4-30.6-8.8-45.9-13.1
				c-7.6-2.2-15.3-4.4-23-6.6c-4.3-1.2-6.4-2.3-7.2-7.1c-0.8-4.4-0.9-9-0.8-13.4c0.3-15.7,3.7-31.5,6.8-46.8
				c3.1-15.5,6.9-30.8,11.1-45.9C320.2,232.7,312.4,230.6,311,235.6L311,235.6z"/>
		</g>
		<g>
			<path d="M414.4,325.8c-17.3,6.7-38.7,16.6-40,38c-1.1,19.1,18.3,33.3,33.1,41.5c17.1,9.5,38,16.3,56.4,6.5
				c8.6-4.6,16.1-11.6,22.7-18.8c6.9-7.6,13.5-16.1,17.8-25.5c9-19.6,4.3-42.3-14.8-53.8c-4.5-2.7-8.5,4.3-4.1,7
				c14.4,8.7,18.8,25.7,12.7,40.9c-6,15-18.6,29.2-31.5,38.8c-6.5,4.8-13.9,8.5-22.2,8.4c-8.4-0.1-17-3.1-24.6-6.4
				c-13.3-5.8-30.3-15.6-36-29.8c-8.4-21.1,17.3-33.1,32.6-39.1C421.4,331.7,419.3,323.9,414.4,325.8L414.4,325.8z"/>
		</g>
		<g>
			<path d="M427,369.2c0.1-8.8-2.7-18.3-11.2-22.5c-6.8-3.3-15.3-1.9-19.3,4.9c-3.5,5.9-2.9,14,0.7,19.7c5,8,14.5,11.5,23,14.4
				c4.9,1.7,7-6.1,2.1-7.8c-8.4-2.9-21.8-7.7-20-19c0.7-4.7,4.8-7,9.2-5.3c6.1,2.5,7.4,9.7,7.3,15.5
				C418.9,374.4,427,374.4,427,369.2L427,369.2z"/>
		</g>
		<g>
			<path d="M452.4,364.7c-0.9-7,3.1-12.2,8.1-16.7c3.9-3.5,12-10.6,14-2c2.7,11.6-6,23.8-16.8,27.3c-4.9,1.6-2.8,9.4,2.1,7.8
				c8.7-2.8,15.9-9,19.8-17.2c3.6-7.6,5.2-18.1,0.3-25.5c-6-9-15.7-3.6-22.2,1.6c-7.6,6-14.7,14.4-13.3,24.8
				C445,369.8,453.1,369.8,452.4,364.7L452.4,364.7z"/>
		</g>
		<g>
			<path d="M528.6,223.4c-2.8-2-5.6-4-8.4-6c-1.4,2.3-2.7,4.6-4.1,7c25.9,15.6,55.7,38.4,54,72.2c-1.7,34.3-37.6,51.6-64.5,64
				c-4.7,2.2-0.6,9.1,4.1,7c30.1-13.9,66.7-33.3,68.5-71c1.8-36.8-29.6-62.2-58-79.2c-4.5-2.7-8.2,4-4.1,7c2.8,2,5.6,4,8.4,6
				C528.8,233.5,532.8,226.5,528.6,223.4L528.6,223.4z"/>
		</g>
		<g>
			<path d="M364,267c-9.1,4.6-9,17.9-5.8,26.3c3.3,8.7,15.9,14.1,21.5,4.2c4.8-8.4,5.9-23.3-1.5-30.6c-6.2-6.1-17.3-6.4-22.1,1.4
				c-2.7,4.5,4.3,8.5,7,4.1c2.3-3.8,8.1-1.7,10.2,1.2c3.4,4.6,1.9,12.1,0.3,17.1c-2.3,7.6-7.7,2-8.7-3.1c-0.9-4.3-1.5-11.3,3.1-13.6
				C372.7,271.6,368.6,264.6,364,267L364,267z"/>
		</g>
		<g>
			<path d="M363.6,266.8c-4.6,1.4-9.1,1.8-13.8,1.3c-5.2-0.5-5.1,7.6,0,8.1c5.4,0.5,10.8-0.1,16-1.6
				C370.7,273.1,368.6,265.3,363.6,266.8L363.6,266.8z"/>
		</g>
		<g>
			<path d="M490.3,253.3c-10.6,3-14.7,13.8-14.3,24c0.2,4.5,0.1,11,3,14.7c2.7,3.5,7.2,3.9,11.2,2.5c8.3-2.8,12.4-12.3,12.7-20.5
				c0.4-9.2-3.9-17.9-11.3-23.3c-4.2-3-8.3,4-4.1,7c7.8,5.6,10,18.3,4,26.1c-0.8,1-4.2,4.5-5.9,3.3c-1.9-1.3-1.5-8.8-1.5-10.8
				c-0.1-6.2,1.7-13.4,8.4-15.2C497.5,259.8,495.4,251.9,490.3,253.3L490.3,253.3z"/>
		</g>
		<g>
			<path d="M489.1,265.2c7,2.5,14.4,2.7,21.5,0.9c5-1.3,2.9-9.1-2.1-7.8c-5.9,1.5-11.5,1.1-17.2-0.9
				C486.3,255.7,484.2,263.5,489.1,265.2L489.1,265.2z"/>
		</g>
		<g>
			<path d="M346.4,235.8c3.6-6,10.8-7.9,17.1-5.2c-0.8-2-1.6-4-2.4-5.9c-3.4,4.5-8.1,7.4-13.6,8.9c-5,1.4-2.9,9.2,2.1,7.8
				c7.6-2.1,13.7-6.4,18.4-12.6c1.8-2.3-0.3-5.1-2.4-5.9c-9.6-4-20.9,0.2-26.2,9C336.7,236.1,343.7,240.2,346.4,235.8L346.4,235.8z"
				/>
		</g>
		<g>
			<path d="M484.3,223.1c-4.4,1-8.7,1.7-13.2,1.8c-1.5,0.1-3.9-0.3-5.4,0c0.4,1.9,0.9,2,1.5,0.3c0.4-0.5,1-1,1.5-1.4
				c5-3.7,12.3-3.1,18.2-2.8c5.2,0.3,5.2-7.8,0-8.1c-9.3-0.5-23.8-0.2-27.9,10.2c-5.7,14.6,21,9.1,27.4,7.6
				C491.5,229.8,489.4,222,484.3,223.1L484.3,223.1z"/>
		</g>
		<g>
			<path d="M302.6,238.7c-7.7,13.5-14.3,27.6-19.7,42.1c-5.4,14.7-10.3,30.2-11.5,45.9c-2.5,30.4,16.4,54,34.3,76.4
				c35,44,74.8,84.4,106.1,131.3c17.3,25.9,31.7,53.7,40.4,83.8c1.4,5,9.2,2.9,7.8-2.2c-15-52-46.5-96.5-80.6-137.8
				c-17.4-21.1-35.6-41.6-53.1-62.6c-9-10.7-17.8-21.6-26.2-32.8c-8.5-11.4-16.6-23.7-19.6-37.8c-3.8-17.8,1.8-36.6,7.3-53.4
				c5.6-17,13-33.3,21.9-48.8C312.2,238.2,305.2,234.1,302.6,238.7L302.6,238.7z"/>
		</g>
		<g>
			<path d="M496.5,377.5c29.1,41.4,58.2,82.8,87.2,124.2c26.4,37.6,53,76,65.7,120.7c7.4,26,10.4,53,9,80c-0.3,5.2,7.8,5.2,8.1,0
				c2.3-47.5-9-94-31.4-135.8c-11.2-20.9-24.6-40.6-38.2-60.1c-14.3-20.5-28.7-40.8-43-61.3c-16.8-24-33.7-47.9-50.5-71.9
				C500.5,369.2,493.5,373.2,496.5,377.5L496.5,377.5z"/>
		</g>
		<g>
			<path d="M537.7,430.3c10.3,11.1,27.2-3.7,35.8-10c12-8.7,23.3-18.3,32.1-30.3c18.2-24.9,19.3-59.1,1.4-84.5
				c-0.2,1.6-0.4,3.3-0.6,4.9c12.8-10.9,27.1-19.7,42.5-26.4c-2-1.2-4-2.3-6.1-3.5c1.8,16.7,1.7,33.6-0.7,50.3
				c-0.7,5.1,7.1,7.3,7.8,2.1c2.5-17.4,2.8-34.9,1-52.4c-0.3-3.2-3.1-4.8-6.1-3.5c-16.1,6.9-30.9,16.2-44.2,27.6
				c-1.3,1.1-1.6,3.5-0.6,4.9c15.3,21.8,15.7,50.3,1.2,72.6c-7,10.8-16.7,19.6-26.8,27.4c-4.8,3.7-9.8,7.2-14.8,10.5
				c-3.8,2.6-12,9.1-16.3,4.5C539.8,420.7,534.1,426.5,537.7,430.3L537.7,430.3z"/>
		</g>
		<g>
			<path d="M576.4,472.8c22.2-5,41.3-19.6,51.9-39.8c-1.8,0.5-3.7,1-5.5,1.5c4.8,2.3,9.5,4.6,14.3,6.9c3.7,1.8,7.8,4.5,12,4.8
				c6.5,0.5,10.6-4.5,11.6-10.4c2.5-14.4-9.4-30-19.8-38.5c-1.3,2.2-2.6,4.5-3.9,6.8c8.7,1.4,14.4-5.8,18.5-12.5
				c4.3-7,6.8-14.9,7.8-23c2-16.3-3-32.9-14-45.2c-3.5-3.9-9.2,1.9-5.7,5.7c8.3,9.3,12.3,21.5,12,33.8c-0.1,5.9-1.3,11.9-3.5,17.4
				c-1.6,4.1-7.4,16.8-13,15.9c-3.5-0.5-7.5,3.9-3.9,6.8c8.1,6.5,15.8,16.1,17.6,26.6c0.3,2,0.5,4.4-0.3,6.3c-1.4,3.3-4,1.9-6.8,0.6
				c-6.3-2.9-12.5-6-18.7-9c-1.9-0.9-4.5-0.6-5.5,1.5c-9.7,18.4-26.8,31.5-47.1,36C569.1,466.1,571.3,473.9,576.4,472.8L576.4,472.8
				z"/>
		</g>
		<g>
			<path d="M646.6,327.8c17.5,0.5,32.8,10.2,45,22.1c12.7,12.2,23.2,26.8,31.6,42.2c8.3,15.4,14.5,31.8,18.3,48.9
				c0.9,4.1,1.7,8.2,2.3,12.3c0.4,2.4,0.7,4.8,0.9,7.2c0.3,3.2,0.2,4.1-3.1,4.2c-2.3,0.1-5.3-1.1-7.5-1.5c-2.5-0.5-5-1-7.5-1.5
				c-5-1-10.1-2-15.1-3.1c-3.5-0.7-6.3,2.7-4.6,5.9c10.8,20.1,15,43.3,11.6,65.9c1.7-0.9,3.3-1.9,5-2.8
				c-36.3-13.8-79.6-0.2-102.2,31.2c-3,4.2,4,8.3,7,4.1c20.5-28.6,60.3-40,93-27.5c1.9,0.7,4.7-0.8,5-2.8c3.8-24.9-0.4-50-12.4-72.2
				c-1.5,2-3,4-4.6,5.9c9.4,1.9,18.9,3.9,28.3,5.8c5.9,1.2,13.3,1.8,15.2-5.5c0.8-3.3,0-7-0.5-10.3c-0.5-4-1.1-7.9-1.9-11.8
				c-1.6-8.2-3.7-16.3-6.3-24.2c-9.9-29.9-27.2-59.1-51.1-80.1c-13.1-11.5-28.8-20.1-46.5-20.6C641.4,319.6,641.4,327.6,646.6,327.8
				L646.6,327.8z"/>
		</g>
		<g>
			<path d="M352.6,452.7c-12.3,9-27.8,10.2-42.6,9.4c-14.1-0.8-28.1-3.9-41.1-9.3c-25.9-10.9-46.8-31.9-54-59.4
				c-3.9-15-3.4-30.6,2.2-45.1c1.9-4.9-5.9-7-7.8-2.1c-10.8,27.9-3.5,59.9,14.6,83c19.3,24.6,50.1,37.7,80.6,40.6
				c17.7,1.7,37.4,0.8,52.2-10C360.8,456.6,356.8,449.6,352.6,452.7L352.6,452.7z"/>
		</g>
		<g>
			<path d="M217.4,349.8c-1-8.6-5.1-17.3-13.2-21.2c-9.5-4.5-19.4,0.1-27.1,6c-4.3,3.2-8.3,6.8-12.2,10.5c-2.7,2.6-7.4,5.9-7.2,10.2
				c0.2,4.7,4.7,6.3,8.4,7.6c6,2,12.1,3.9,18.1,5.8c0-2.6,0-5.2,0-7.8c-12.3,3.3-19.7,14.9-22.3,26.8c-1.4,6.2-1.8,12.2,4,16.2
				c6.1,4.2,13.9,5.8,21.2,5.1c5.1-0.4,5.2-8.5,0-8.1c-5.4,0.4-10.6-0.3-15.3-2.9c-4.4-2.5-2.3-8.2-1-12.2
				c2.5-7.7,7.4-14.9,15.6-17.1c4-1.1,3.7-6.6,0-7.8c-3.6-1.2-7.3-2.3-10.9-3.5c-1.3-0.4-9-2.1-9.2-2.6c0,0,5.2-4.9,6.3-5.9
				c2.6-2.4,5.3-4.8,8.1-7c4.9-3.9,11.8-8.8,18.5-6.8c6.1,1.9,9.5,8.6,10.2,14.6C209.9,354.9,218,355,217.4,349.8L217.4,349.8z"/>
		</g>
		<g>
			<path d="M182.2,417c-14.4,34.5-25.1,73.8-10.1,109.9c1.5,3.5,6.5,4.1,7.8,0c6.1-19.9,17.4-37.6,32.7-51.7
				c3.8-3.5-1.9-9.2-5.7-5.7c-16.3,15-28.2,34.1-34.8,55.3c2.6,0,5.2,0,7.8,0c-14.5-35-3.8-72.4,10.1-105.6
				C192,414.3,184.1,412.2,182.2,417L182.2,417z"/>
		</g>
		<g>
			<path d="M207.1,468.2c18.2,7.6,37.6,11.4,57.4,11.5c-0.4-2.6-0.7-5.3-1.1-7.9c-16,3.9-13.7,22.9-12.1,35.2
				c1.1,8.2,2.4,16.3,4.1,24.4c1.3,6.1,2.6,12.2,9,14.6c2,0.7,4.5-0.8,5-2.8c4-17.8,10-35,18.1-51.4c-1.5,0.6-3,1.2-4.6,1.9
				c26,7.5,53.2,10.5,80.2,8.8c5.2-0.3,5.2-8.4,0-8.1c-26.4,1.6-52.7-1.2-78.1-8.5c-1.6-0.5-3.8,0.3-4.6,1.9
				c-8.4,17-14.8,34.8-18.9,53.3c1.7-0.9,3.3-1.9,5-2.8c-3.4-1.2-3.8-11-4.3-13.8c-1.1-5.5-2-11-2.8-16.5c-1.1-8.1-5.2-25.6,6-28.3
				c4.5-1.1,3.5-7.9-1.1-7.9c-19.1,0-37.6-3.8-55.2-11.2C204.4,458.4,202.3,466.2,207.1,468.2L207.1,468.2z"/>
		</g>
		<g>
			<path d="M160.8,405.7c-16.2,26-24.1,56-27,86.3c-3.2,33.1-1.5,67.5,2,100.5c1.4,13.4,4.7,27.5,15.8,36.2c2.6,2.1,6.9,0.9,6.9-2.9
				c0.1-24.2,9.6-47.5,26.5-64.8c3.6-3.7-2.1-9.4-5.7-5.7c-18.4,18.8-28.8,44.2-28.9,70.5c2.3-1,4.6-1.9,6.9-2.9
				c-12.7-10-13.3-27.5-14.3-42.4c-1.4-20.4-2.7-40.8-2.5-61.2c0.5-38.1,6.8-76.8,27.3-109.6C170.6,405.3,163.6,401.2,160.8,405.7
				L160.8,405.7z"/>
		</g>
		<g>
			<path d="M156.6,610.2c22.1-21.9,55.5-29.9,85.1-20.5c-1-1.3-2-2.6-3-3.9c-1.1,12.1,6.1,22.9,17.2,27.4c1.5,0.6,3.9-0.4,4.6-1.9
				c3-6.6,6.1-13.7,11.4-18.7c7.1-6.8,16.2-5.5,25.2-4.5c19.9,2.1,39.6,5.2,59.2,9c5.1,1,7.3-6.8,2.1-7.8
				c-22.2-4.3-44.6-7.9-67.1-9.8c-9-0.8-17.2,0.5-24.2,6.5c-6.4,5.6-10.3,13.7-13.7,21.3c1.5-0.6,3-1.2,4.6-1.9
				c-7.8-3.2-12-11.4-11.2-19.6c0.2-1.8-1.4-3.4-3-3.9c-32.3-10.2-68.9-1.3-93,22.6C147.2,608.1,152.9,613.8,156.6,610.2
				L156.6,610.2z"/>
		</g>
		<g>
			<path d="M371.2,526.9c10,24.4,5.5,53.4-12.3,73.1c-3.5,3.9,1.9,9.2,5.7,5.7c0.9-0.8,1.9-1.7,2.8-2.5c3.9-3.5-1.9-9.2-5.7-5.7
				c-0.9,0.8-1.9,1.7-2.8,2.5c1.9,1.9,3.8,3.8,5.7,5.7c19.5-21.7,25.5-53.9,14.4-81C377.1,520,369.2,522.1,371.2,526.9L371.2,526.9z
				"/>
		</g>
		<g>
			<path d="M374.2,604.3c-7.2-4.6-17.1-10.4-25.9-10.7c-7.5-0.3-10.6,6.5-10.1,13.1c0.6,9.2,3,18.6,4.8,27.7
				c2,9.4,4.2,18.7,6.7,27.9c10.2,37.2,25,73.2,43.8,106.9c10.8,19.2,22.9,37.7,36.2,55.2c3.1,4.1,10.1,0.1,7-4.1
				C395,765.3,365.6,701.5,351.2,634c-1.9-9-4.6-18.6-5-27.9c-0.1-2.2-0.3-4.2,2.5-4.3c2-0.1,4.6,1.3,6.5,2
				c5.3,1.9,10.2,4.5,14.9,7.5C374.5,614.1,378.5,607.1,374.2,604.3L374.2,604.3z"/>
		</g>
		<g>
			<path d="M451,661.6c-4.1,5.2-1.2,10.7,0.8,16.2c2.4,6.7,4.9,13.3,7.4,20c5,13.1,10.3,26.1,16.4,38.7c12.1,25,27.4,48.7,48.2,67.3
				c3.9,3.5,9.6-2.2,5.7-5.7c-18.9-17-33.1-38-44.4-60.6c-5.7-11.4-10.8-23.1-15.5-35c-2.3-5.8-4.5-11.7-6.7-17.6
				c-1.1-3.1-2.2-6.1-3.4-9.2c-0.4-1.1-3.5-7.6-2.9-8.4C459.9,663.3,454.3,657.5,451,661.6L451,661.6z"/>
		</g>
		<g>
			<path d="M464.1,499.5c18.9-4.6,38.4-11.2,55.4-20.9c6.3-3.7,12-9.3,11.9-17.1c-0.1-8.2-6.8-12.5-14.4-12.8
				c-5.2-0.2-5.2,7.9,0,8.1c9.9,0.3,5.9,10,0.4,13.6c-5,3.4-10.9,5.8-16.5,8.2c-12.6,5.5-25.6,9.8-39,13.1
				C456.9,492.9,459,500.7,464.1,499.5L464.1,499.5z"/>
		</g>
		<g>
			<path d="M483.5,605.2c13.2,9.2,28.4,15.7,44.3,18.1c7.7,1.2,15.2,1,22.2-2.6c6.6-3.4,12.1-9.1,17-14.6
				c10-11.2,17.6-24.5,22.2-38.8c1.9-5.8,5.4-14.6,1.8-20.5c-2.7-4.5-9.4-5.6-12.9-1.6c-3.4,3.9,2.3,9.6,5.7,5.7
				c0.1-0.1,0.4,2.7,0.3,3.5c-0.1,1.4-0.6,2.9-0.9,4.3c-0.7,2.7-1.5,5.3-2.3,7.9c-1.8,5.4-4.2,10.6-6.9,15.6
				c-5.3,9.6-12.1,18.3-20.2,25.7c-4.5,4.1-9.5,7.5-15.7,8c-6.2,0.5-12.5-1-18.4-2.6c-11.5-3.1-22.2-8.3-32-15.1
				C483.4,595.3,479.3,602.3,483.5,605.2L483.5,605.2z"/>
		</g>
		<g>
			<path d="M514.6,728.1c16.2,19.8,42.6,30.4,68,27.1c25-3.2,47.6-20.2,58.1-43.1c2.1-4.5,6.6-12.7,3.7-17.6
				c-3.1-5.1-10.2-3.2-14.1-0.3c-4.2,3-0.1,10,4.1,7c0.5-0.3,3.5-1.9,3-2.1c-0.6-0.2-0.9,1.9-1.3,3.1c-1,3.2-2.4,6.2-3.9,9.1
				c-2.8,5.3-6.3,10.3-10.4,14.7c-8.7,9.4-19.8,16.4-32.2,19.7c-25.3,6.7-52.8-3.2-69.2-23.3C517.1,718.3,511.4,724.1,514.6,728.1
				L514.6,728.1z"/>
		</g>
		<g>
			<path d="M640.2,584c0-4.3,0-8.7,0-13c0-1.4-0.6-4.5,0-5.7c-0.1,0.2,0-1,0.1-1c0.8-0.3,3.4,2.1,4.1,2.7
				c5.3,4.3,10.2,9.2,14.5,14.5c9.4,11.2,16.8,24.2,22.1,37.7c11.8,29.8,14.1,62,12.7,93.8c-0.9,20.2-3.3,40.3-5.7,60.3
				c-0.6,5.2,7.5,5.1,8.1,0c8.3-69.4,15.6-152.8-39.5-206.2c-4.7-4.5-12.6-13.5-20-10.2c-3.6,1.7-4.4,5.5-4.5,9.1
				c-0.2,6,0,12.1,0,18.1C632.2,589.2,640.2,589.2,640.2,584L640.2,584z"/>
		</g>
		<g>
			<path d="M437.6,876.7c-2.1-10.4-2.5-21.7,0.1-32.1c2-8.2,10.2-19.6,19.5-12.3c6.7,5.3,10.4,16,12.8,23.8c3,9.9,3.7,20-0.3,29.6
				c-2,4.8,5.8,6.9,7.8,2.2c5.3-12.6,3.3-26.5-1.4-38.9c-3.6-9.6-8.8-22.4-19.4-26c-11-3.8-21.1,4.6-25.1,14.3
				c-5.2,12.9-4.4,28.3-1.8,41.7C430.9,884,438.6,881.8,437.6,876.7L437.6,876.7z"/>
		</g>
		<g>
			<path d="M485,836.9c2.8-4.7,7.6-12.9,14.1-12c3.8,0.5,6.6,4.4,9.1,7.1c2.7,2.9,5.3,5.8,8,8.8s5.3,5.8,8,8.8
				c1.3,1.4,2.8,2.8,4,4.4c1.7,2.2,1.9,2.1,1,4.3c-1,2.6-4.6,5.8-6.7,7.6c-3.6,3-7.7,4.4-12.2,2.8c-4.9-1.8-7,6-2.1,7.8
				c10.7,4,19.9-3.6,26.1-11.6c2.8-3.6,5.7-7.5,3.4-12.1c-2.6-5.2-8.4-9.7-12.3-14c-4.4-4.8-8.7-9.7-13.2-14.4
				c-3.4-3.6-7.3-7-12.4-7.4c-10-0.9-17.1,8.4-21.6,16C475.3,837.3,482.3,841.3,485,836.9L485,836.9z"/>
		</g>
		<g>
			<path d="M516.3,821.2c-1.3-8.6,7-14.9,14.8-15.4c8-0.6,15.5,3.1,21.8,7.6c10.8,7.7,26.6,19.9,24.9,34.8c2-1.2,4-2.3,6.1-3.5
				c-1.3-1-2.6-2-4-3c-4.2-3.1-8.2,3.9-4.1,7c1.3,1,2.6,2,4,3c2.7,2.1,5.8-0.8,6.1-3.5c1.1-9.9-4-18.6-10.5-25.7
				c-7.2-8-16.4-16-26.1-20.7c-8.9-4.3-19.8-6-28.9-1.4c-8.6,4.4-13.3,13.4-11.9,22.9C509.2,828.5,517,826.3,516.3,821.2
				L516.3,821.2z"/>
		</g>
		<g>
			<path d="M550.6,861.4c5.3-8,16.4-10.5,24.6-5.7c4.5,2.6,8.6-4.4,4.1-7c-12.2-7-28-3.1-35.7,8.6
				C540.8,861.7,547.8,865.7,550.6,861.4L550.6,861.4z"/>
		</g>
		<g>
			<path d="M350.9,647.5c-4.2-13.4-15.4-22.7-28.6-26.9c-15.4-4.9-31.6-1.7-46.1,4.6c-15.6,6.8-30,16.7-43.5,27
				c-12.7,9.8-24.7,20.7-34.7,33.2c-11.1,13.8-19.7,29.4-24.3,46.6c-1.4,5,6.4,7.2,7.8,2.2c7.6-27.7,25.9-50.4,47.5-68.6
				c11.1-9.4,23.2-17.8,35.8-25.3c13.3-7.8,28.3-14.8,44.1-13.9c14.5,0.8,29.6,8.9,34.2,23.3C344.7,654.5,352.5,652.4,350.9,647.5
				L350.9,647.5z"/>
		</g>
		<g>
			<path d="M170.2,729.8c2.1,13.3,10.8,25.4,19.6,35.3c8.8,9.8,19.2,17.9,30.2,25.1c11.3,7.4,23.3,13.8,35.4,19.9
				c10.8,5.5,25.9,13.3,35.8,1.7c3.4-3.9-2.3-9.7-5.7-5.7c-4.9,5.8-12.5,3.6-18.5,0.8c-5.4-2.5-10.7-5.4-16-8.1
				c-10.1-5.3-20.1-10.9-29.6-17.3c-18.1-12.3-39.7-31-43.4-53.8C177.2,722.6,169.4,724.7,170.2,729.8L170.2,729.8z"/>
		</g>
		<g>
			<path d="M293.7,820.7c1.3-6.6,2.5-13.6,6.3-19.3c3.3-5,10.1-9.3,16.1-6.6c5.8,2.7,9.3,10.4,11,16.2c2,6.5,2.2,13.4,0.7,20
				c-1.1,5.1,6.7,7.2,7.8,2.2c1.9-8.8,1.6-18-1.5-26.6c-2.8-7.8-7.8-16.7-16.1-19.7c-7.6-2.7-16.1,0.6-21.6,6.1
				c-6.7,6.8-8.8,16.6-10.6,25.6C284.9,823.6,292.7,825.8,293.7,820.7L293.7,820.7z"/>
		</g>
		<g>
			<path d="M328.9,807.3c2.7-16.7,24.6-22.2,33.6-7c8.5,14.5,4.4,35.7-3.1,49.7c-2.4,4.6,4.5,8.7,7,4.1c5.5-10.3,8.6-21.7,8.5-33.4
				c0-10.5-2.1-22.5-9.9-30.2c-15-14.7-40.6-5.7-43.9,14.7C320.3,810.2,328.1,812.4,328.9,807.3L328.9,807.3z"/>
		</g>
		<g>
			<path d="M371.6,801.5c1.3-7.2,8.8-10.3,15.5-8.7c7.1,1.8,13.1,7.8,16.8,13.9c9.1,15-5.5,25.3-17.2,32c-4.5,2.6-0.5,9.6,4.1,7
				c8.2-4.7,17.2-10.3,21.7-19c4.9-9.5,2.1-19.5-4.1-27.6c-6-7.8-14.8-14.9-25.2-14.8c-8.9,0.1-17.7,6-19.4,15.1
				C362.8,804.5,370.6,806.7,371.6,801.5L371.6,801.5z"/>
		</g>
		<g>
			<path d="M294.5,854.5c-0.1-0.1,15.1-17.2,16.3-18.6c-1.6,0.2-3.3,0.4-4.9,0.6c14,8.1,1.6,34.8-3.6,44.5c-2.5,4.6,4.5,8.7,7,4.1
				c7.7-14.3,19.8-44.5,0.7-55.5c-1.5-0.9-3.7-0.7-4.9,0.6c-5.2,5.9-10.9,11.6-15.8,17.8c-2.8,3.5-4.7,9-0.5,12.3
				C292.8,863.4,298.6,857.7,294.5,854.5L294.5,854.5z"/>
		</g>
		<g>
			<path d="M289,868.5c5.1,5.1,9,11,12,17.6c2.1,4.8,9,0.6,7-4.1c-3.2-7.2-7.7-13.7-13.2-19.3C291.1,859.1,285.4,864.8,289,868.5
				L289,868.5z"/>
		</g>
		<g>
			<path d="M333.5,851.3c4.6-4.9,9.8-9.1,15.7-12.3c2.1-1.2,6.7-4.8,7.1-1.2c0.4,3.4-1.3,7.8-2,11.2c-1.6,7.2-3.6,14.4-6.3,21.3
				c-1,2.6-1,1.6-2.6-0.4c-1-1.2-2.1-2.4-3.2-3.6c-2.8-3.1-5.5-6.3-8.3-9.4c-0.9-1-2.7-1.5-3.9-1c-5.9,2.5-6.1,12.7,1.5,12.7
				c7.6,0,7.4-10.2,1.5-12.7c-4.8-2-6.9,5.8-2.1,7.8c0.5,0,0.9,0,1.4,0c-1.3-0.3-2.6-0.7-3.9-1c4.1,4.6,8,9.9,12.6,14.1
				c3,2.7,7.5,4.8,11.2,2.1c3.8-2.7,4.9-9.2,6.3-13.4c2-6.2,3.6-12.5,4.8-18.8c0.8-4.4,2.4-9.8,0.6-14.2c-1.7-3.9-5.7-5.3-9.6-4.3
				c-9.8,2.4-19.4,10.4-26.2,17.5C324.3,849.3,330,855.1,333.5,851.3L333.5,851.3z"/>
		</g>
		<g>
			<path d="M375.4,849.9c5.7-5.2,11.4-10.4,17.1-15.6c-2.3-1-4.6-1.9-6.9-2.9c0.2,10.7,0.8,21.4,0.6,32.1c-0.1,4.7-3,7.2-7.7,5.4
				c-4.4-1.7-7-6.6-9.3-10.4c-2.6-4.5-9.6-0.4-7,4.1c5.3,9,16.2,20.9,27.4,12.3c5.4-4.1,4.6-11,4.5-17c-0.2-8.8-0.3-17.6-0.5-26.4
				c-0.1-3.6-4.3-5.2-6.9-2.9c-5.7,5.2-11.4,10.4-17.1,15.6C365.8,847.7,371.5,853.4,375.4,849.9L375.4,849.9z"/>
		</g>
		<g>
			<path d="M185.8,754.4c-0.8,2.7-4.5,3.7-6.7,5c-2.1,1.3-4.2,2.8-5.5,4.9c-3.8,6.1-0.4,14.6,1.5,20.8c4.8,15.2,12.6,29.4,22.8,41.6
				c21.3,25.4,53.1,40.3,86.1,41.7c5.2,0.2,5.2-7.9,0-8.1c-30.4-1.3-59.4-15-79.4-38.1c-9.5-11-16.8-23.9-21.3-37.7
				c-1.1-3.5-2.3-7.2-3-10.8c-0.6-3.5-0.2-5.4,2.8-7.3c4.4-2.7,8.9-4.5,10.4-9.9C195,751.6,187.2,749.4,185.8,754.4L185.8,754.4z"/>
		</g>
		<g>
			<path d="M283,824.5c-8.8,20.5,3.3,39.5,15.5,55.5c3.1,4.1,10.1,0.1,7-4.1c-9.9-13-22.9-30.1-15.5-47.4
				C292,823.8,285,819.7,283,824.5L283,824.5z"/>
		</g>
		<g>
			<path d="M442.2,892.4c5.2,0,5.2-8.1,0-8.1C437,884.3,437,892.4,442.2,892.4L442.2,892.4z"/>
		</g>
		<g>
			<path d="M439.1,889.2c5,18.1,30.1,18.1,35.3,0.2c1.5-5-6.3-7.1-7.8-2.2c-3,10.3-16.9,10.1-19.8-0.2
				C445.5,882.1,437.8,884.2,439.1,889.2L439.1,889.2z"/>
		</g>
		<g>
			<path d="M429.8,895.8c2.1,6.7,4.8,13.2,8.3,19.3c2.6,4.6,5.9,11.3,11.9,11.7c5.6,0.3,9.3-4.9,12.2-8.9c4-5.5,6.9-11.6,9.2-18
				c1.7-4.9-6.1-7-7.8-2.2c-1.5,4.4-3.5,8.6-6,12.6c-1.4,2.2-4.7,8.7-7.6,8.2c-2.1-0.4-5.6-8.7-6.6-10.7c-2.4-4.5-4.2-9.3-5.8-14.2
				C436,888.7,428.2,890.8,429.8,895.8L429.8,895.8z"/>
		</g>
		<g>
			<path d="M494.1,891.8c3.3,5.9,7.2,13.1,12.4,17.7c4.5,3.9,9.7,2.2,13.6-1.5c8.8-8.2,11.8-21.4,8.3-32.7c-1.5-5-9.3-2.8-7.8,2.2
				c2.2,7.2,1.3,15-3,21.2c-0.8,1.2-2.3,3.5-3.7,4.1c-3,1.2-4.1-1.8-5.5-3.7c-2.7-3.6-5-7.4-7.2-11.4
				C498.5,883.2,491.5,887.3,494.1,891.8L494.1,891.8z"/>
		</g>
		<g>
			<path d="M545.3,861.8c4.5,8.6,8.9,17.3,13.4,25.9c1,1.8,3.8,2.6,5.5,1.5c11.8-8,20.6-19,25.9-32.3c1.9-4.8-5.9-6.9-7.8-2.2
				c-4.5,11.2-12.2,20.7-22.2,27.5c1.8,0.5,3.7,1,5.5,1.5c-4.5-8.6-8.9-17.3-13.4-25.9C549.9,853.1,542.9,857.2,545.3,861.8
				L545.3,861.8z"/>
		</g>
		<g>
			<path d="M643.3,786.2c-3.5-9.3-13.2-13.2-22.6-11.6c-11.8,2-18.7,13-22,23.6c-3.9,12.4-6,27.4-0.4,39.5
				c5,10.9,15.8,17.7,27.5,18.9c5.2,0.5,5.1-7.6,0-8.1c-8.4-0.8-16.1-6-19.9-13.6c-4.6-9.2-2.9-20.6-0.6-30.2
				c1.9-7.8,5.3-17.3,13-21c5.6-2.7,14.8-2,17.3,4.6C637.3,793.2,645.1,791.1,643.3,786.2L643.3,786.2z"/>
		</g>
		<g>
			<path d="M602,849.6c1.1,10.5,3.4,22.5,14.6,26.6c9.8,3.6,20.2-4.1,18.8-14.6c-0.7-5.1-8.8-5.2-8.1,0c1,7.6-6.7,9.4-11.6,4.7
				c-4.3-4.2-5-11-5.5-16.6C609.6,844.5,601.5,844.4,602,849.6L602,849.6z"/>
		</g>
		<g>
			<path d="M674.6,837.4c5.3-12.7,8.8-29.1,3.9-42.5c-3.9-10.7-15.4-19.6-27-14.9c-11.8,4.8-19.1,20.6-22.5,32
				c-3.3,11.3-4.7,25.5,1.6,36.1c8.5,14.2,25,11,37.9,5.7c4.8-1.9,2.7-9.8-2.2-7.8c-5.9,2.4-12.6,5.3-19.2,4.4
				c-6.4-0.8-10.2-5.7-11.8-11.7c-3.2-11.8,0.5-25.7,6.1-36.1c2.9-5.4,6.8-12.3,12.6-14.9c6-2.7,12.3,1.5,15.3,6.7
				c6.8,11.9,2.2,29.2-2.7,40.9C664.8,840,672.6,842.1,674.6,837.4L674.6,837.4z"/>
		</g>
		<g>
			<path d="M634.6,854.8c-3.5,9.6,2.8,21.1,12.9,23.2c11.1,2.2,21.5-8.4,20.2-19.3c-0.6-5.1-8.7-5.2-8.1,0c0.7,6-4.4,13.1-11.2,11.2
				c-5.5-1.5-7.9-8-6.1-13C644.1,852,636.3,849.9,634.6,854.8L634.6,854.8z"/>
		</g>
		<g>
			<path d="M708.3,853.2c7.5-12.1,12.5-25.6,14.4-39.7c1-6.9,1.3-14,0.7-20.9c-0.5-5.7-1.5-11.7-6.3-15.3
				c-9.5-7.3-22.2-0.7-28.6,7.4c-8,10.1-10.8,23.9-13.2,36.2c-1.8,9.1-8.1,31.4,6.1,34.2c5.1,1,7.2-6.8,2.2-7.8
				c-5.2-1-2.6-11.7-2.1-15c1.1-7.1,2.5-14.2,4.3-21.2c2.6-10.1,6.4-23.7,17.2-27.9c6.7-2.6,11.2,0.7,12.1,7.6
				c0.8,6.6,0.6,13.5-0.2,20c-1.6,13.7-6.4,26.8-13.7,38.5C698.6,853.6,705.6,857.7,708.3,853.2L708.3,853.2z"/>
		</g>
		<g>
			<path d="M677.6,850c3.7,7.5,13.2,11.3,21,8.3c4.8-1.9,2.7-9.7-2.2-7.8c-4.7,1.8-9.6,0-11.8-4.5
				C682.3,841.3,675.3,845.4,677.6,850L677.6,850z"/>
		</g>
		<g>
			<path d="M669.9,861.4c-0.3,7.9,1.2,15.2,4.6,22.3c0.9,2,3.8,2.5,5.5,1.5c8.5-4.9,16.3-10.8,23.3-17.7c3.7-3.7-2-9.4-5.7-5.7
				c-6.5,6.5-13.7,11.9-21.6,16.5c1.8,0.5,3.7,1,5.5,1.5c-2.7-5.8-3.8-11.9-3.5-18.2C678.2,856.2,670.1,856.2,669.9,861.4
				L669.9,861.4z"/>
		</g>
		<g>
			<path d="M483.6,874.8c-8,5.2-2.2,16.9,6.5,16.6c5.5-0.2,9.9-4.2,13.9-7.6c5.8-5,11.5-10,17.3-15c3.9-3.4-1.8-9.1-5.7-5.7
				c-5,4.4-10.1,8.7-15.1,13.1c-2.3,2-4.6,4.4-7.3,5.9c-1.3,0.7-3,1.6-4.5,0.9c-0.9-0.4-0.3-1.7-0.9-1.2
				C492,879,488,872,483.6,874.8L483.6,874.8z"/>
		</g>
		<g>
			<path d="M257.7,671c-5,5-5.5,13.8-0.3,18.8s13.8,4.7,18.8-0.3c3.7-3.7-2-9.4-5.7-5.7c-1.9,1.9-5.4,2.3-7.4,0.3
				c-2-2-1.6-5.5,0.3-7.4C267.1,673,261.4,667.3,257.7,671L257.7,671z"/>
		</g>
		<g>
			<path d="M299.8,680c-1.8,8.3,10.2,13.4,14.8,6.2c1.2-1.8,0.4-4.5-1.5-5.5c-2-1.1-4.4-0.4-5.5,1.5c0.4-0.4,0.4-0.4,0.1-0.1
				c0.5-0.3,0.5-0.4,0.1-0.2c0.1-0.1,0.3-0.1,0.5-0.2c-0.4,0.1-0.4,0.1,0.3,0c-0.1,0-0.3,0-0.4,0c-0.3,0-0.2,0,0.4,0.1
				c-0.1,0-1.2-0.3-0.6-0.1c0.6,0.2-0.4-0.3-0.6-0.3c0.6,0.4,0.1,0.2,0-0.1c0.3,0.5,0.4,0.5,0.2,0.1c0.1,0.2,0.1,0.3,0.2,0.5
				c-0.1-0.4-0.1-0.3,0,0.3c0-0.5,0-0.4,0,0.2c0.5-2.1-0.6-4.4-2.8-5C302.7,676.6,300.2,677.8,299.8,680L299.8,680z"/>
		</g>
		<g>
			<path d="M270.8,727.5c6.4,12.1,24,12.5,31.9,1.9c3.1-4.2-3.9-8.2-7-4.1c-4.5,6-14.7,4.3-17.9-1.9
				C275.4,718.8,268.4,722.9,270.8,727.5L270.8,727.5z"/>
		</g>
		<g>
			<path d="M693.8,627.6c21.7-5,44-6,66.1-3c5.1,0.7,5.1-7.4,0-8.1c-22.8-3-45.8-1.9-68.2,3.3C686.6,621,688.7,628.8,693.8,627.6
				L693.8,627.6z"/>
		</g>
		<g>
			<path d="M747.7,643.2c14.7-12,33.7-18,52.6-16.7c2.3,0.2,4.6,0.4,6.9,0.8c2.7,0.5,3.1,0.6,3.4,3.5c0.5,5,0.5,10.1,0.1,15.1
				c-0.8,10.9-3.8,21.5-8.4,31.3c-2.2,4.7,4.8,8.8,7,4.1c5.4-11.5,8.8-23.6,9.6-36.3c0.4-5.9,0.7-12.8-0.7-18.6
				c-1.4-5.6-6.1-6.6-11.2-7.3c-23.3-3.4-46.8,3.5-65,18.4C738,640.8,743.7,646.5,747.7,643.2L747.7,643.2z"/>
		</g>
		<g>
			<path d="M808.3,660.7c19.8,8.3,37.1,21.2,51,37.5c3.4,4,9.1-1.8,5.7-5.7c-14.9-17.4-33.5-30.7-54.6-39.5
				C805.7,650.9,803.6,658.7,808.3,660.7L808.3,660.7z"/>
		</g>
		<g>
			<path d="M833.5,714c14.3-6.6,30.8-7.5,45.8-2.4c1,0.3,5.4,1.4,5.5,2.3c-0.1-0.6-2.8,3.5-2.8,3.6c-1.7,3.3-3.5,6.4-5.5,9.5
				c-4.3,6.6-9.2,12.7-14.7,18.4c-3.6,3.8,2.1,9.5,5.7,5.7c6.9-7.2,13.1-15.1,18.2-23.6c4-6.7,11.3-16.8,1.5-21.5
				c-18-8.6-39.9-7.3-57.7,0.9C824.7,709.2,828.8,716.1,833.5,714L833.5,714z"/>
		</g>
		<g>
			<path d="M878.5,739.3c16.8,21.1,18.4,51.4,3,73.7c-3,4.3,4,8.3,7,4.1c17.6-25.5,14.7-59.7-4.3-83.5
				C881,729.5,875.3,735.2,878.5,739.3L878.5,739.3z"/>
		</g>
		<g>
			<path d="M864.5,806.6c13.1,1.5,22.4,17.7,26.3,29c3,8.7-8.7,13-15.4,13.8c-7.7,1-15-1.2-21.2-5.9c-4.1-3.2-8.2,3.9-4.1,7
				c8,6.1,18.4,8.4,28.3,6.6c8.7-1.6,20.8-7.5,21.2-17.7c0.2-5-2.5-9.8-4.7-14.1c-2.2-4.4-4.7-8.8-7.8-12.7
				c-5.8-7.6-13-13-22.6-14.1C859.3,798,859.4,806,864.5,806.6L864.5,806.6z"/>
		</g>
		<g>
			<path d="M845.5,806.9c-4.6,9.1-6.7,19-5.8,29.2c0.4,5.2,8.5,5.2,8.1,0c-0.7-8.8,0.8-17.2,4.7-25.1
				C854.8,806.4,847.8,802.3,845.5,806.9L845.5,806.9z"/>
		</g>
		<g>
			<path d="M826,733.2c-0.9,17.5,17.8,28.4,32.8,19.6c4.5-2.7,0.4-9.7-4.1-7c-9.9,5.9-21.2-1.2-20.6-12.6
				C834.3,728,826.3,728,826,733.2L826,733.2z"/>
		</g>
		<g>
			<path d="M755.1,664.6c-0.2,13,8.9,25.6,21.8,28.4c12.8,2.8,26.6-4.4,31.9-16.3c2.1-4.7-4.9-8.8-7-4.1
				c-3.8,8.6-13.1,14.6-22.7,12.6c-9.5-2-16-11.2-15.8-20.6C763.3,659.4,755.2,659.4,755.1,664.6L755.1,664.6z"/>
		</g>
		<g>
			<path d="M700,740.6c9.4-2.6,19-5.1,28.9-4.3c7.9,0.6,15.3,3.8,21.9,8.1c13.1,8.6,23.6,21.8,31.3,35.3
				c15.7,27.3,18.6,63.7-3.1,88.9c-3.4,3.9,2.3,9.7,5.7,5.7c18.1-21,22.1-50.4,14-76.5c-4.2-13.7-11.3-26.2-20.1-37.5
				c-8.3-10.6-18.4-20.8-30.7-26.8c-16.3-8-33.3-5.5-50.2-0.7C692.8,734.2,695,742,700,740.6L700,740.6z"/>
		</g>
		<g>
			<path d="M813.5,821.2c-1.3,18.3-15.4,31.8-28.4,43.2c-6.7,5.8-13.7,11.5-19.5,18.2c-4.7,5.4-7.8,12.9-2.1,18.8
				c5,5.3,13.6,8.5,20.4,10.7c7.6,2.5,15.7,3.9,23.8,4c15.6,0.3,30.4-4,42.8-13.5c13.7-10.4,25.1-24.7,32.4-40.2
				c2.2-4.7-4.8-8.8-7-4.1c-11.6,24.5-33.3,47.6-61.7,49.6c-14.5,1-30.7-2.1-42.8-10.4c-5-3.5-1.5-7.7,1.7-11c2.7-2.8,5.5-5.5,8.4-8
				c6-5.4,12.2-10.5,18-16.1c11.5-11.1,21-24.7,22.2-41.1C822,816,813.9,816,813.5,821.2L813.5,821.2z"/>
		</g>
		<path d="M367.9,269.3c-6.4,1.3-11.3,8-10.5,14.5c0.8,6.5,7.3,11.8,13.8,11.3s12-7,11.5-13.5c-0.8-9.3-11.6-14.5-20.9-14.3"/>
		<path d="M489.5,258.3c-4.6,5.2-9.5,10.8-10.5,17.7s3.8,15.1,10.7,14.9c4.6-0.1,8.4-3.8,10.4-7.9c5.5-11.7-3.2-27.5-16-29.1"/>
		<path class="st5" d="M366.4,272.1c3.2-0.6,6.3,3.1,5.3,6.1c-1,3.1-5.7,4.1-7.9,1.7s-0.8-7,2.4-7.8"/>
		<path class="st5" d="M487.3,263.6c-3.5,3.1-0.5,10.1,4.1,9.7c3.8-2.7,2.8-9.7-1.6-11.3"/>
	</g>
</g>
</svg>
