<svg xmlns="http://www.w3.org/2000/svg" width="1000" height="1000"><style>.st0{fill:#f5cd62}.st0,.st1,.st3{opacity:.7}.st1{fill:#77a81d}.st3{fill:#403d36}</style><path class="st0" d="M319.6 248.7c-36.8 25.2-35.5 82.1-13.3 120.9s55.1 68.8 82.9 103.7c49.3 61.7 71.6 139.2 100.4 212.8 23.1 59 53.7 115.3 94.3 163.9 52.5-27.7 83.1-79 79.8-138.3-6-108-71.9-230-152.7-301.8-6.9-6.1-14.4-12.2-23.3-14.5-12.3-3.1-25 1.5-37.5 3.7-37.6 6.6-78.4-11.4-98.8-43.7 0 0-91.4 21.7-34.7-107.3"/><path class="st0" d="M630.6 548.1c-5 10-8.2 20.8-9.4 31.9-19.1-23.6-34.1-50.5-44.4-79.1-1.3-3.7-2.6-7.8-1.6-11.6 1.2-4.8-3.1-6.5.9-9.3 22.6-15.9 52.6-36.4 65.9-60.6 13.3-24.3 17.6-54.6 6.2-79.8 8.5-2.9 18.1-.7 25.7 4.1 7.6 4.7 13.6 11.7 19.1 18.8 19.9 25.7 35.8 54.6 46.6 85.2 1.7 4.8 3.2 10.4.7 14.9-5 8.9-19.8 4.5-27.5 11.2-6.7 5.9-4.5 16.6-2 25.1s4.2 19.4-2.8 24.8c-5.4 4.1-13 2.5-19.7 1.8-31.7-3.7-64.4 17.3-74.4 47.6m-463.3 31.4c8.4-16.6 28.4-23 46.6-27.2 11.8-2.7 24.1-5.1 35.9-2.5 11.8 2.7 23 11.7 24.3 23.8 9-20.4 33.9-32.4 55.5-26.7 14.6 3.8 29.1 14.7 43.4 9.6 8.4-3 14.1-11 16.5-19.5 2.4-8.5 2-17.6 1.3-26.4-1.3-17.5-5-37.4-19.9-46.7-12.8-7.9-29-5.2-44-4.6-43.9 1.7-87.3-20.2-114-54.7-3.9-5-11.8-25-16.8-27-9.9-3.9-13.2 19.4-15.1 25.5-7.8 26.5-13 53.7-15.5 81.2-3 31.8-2.4 63.7 1.8 95.2z"/><path class="st1" d="M564.8 291c-1.8-16.8-16.3-28.9-26.2-42.6-7.3-10.1-12.2-21.9-14.6-34.1 4-9.3 7.3-18.9 9.7-28.8-3.5-1-7.4-.5-10.7 1.2.3-2 .6-4.1 1-6.1 10.3-18.3 19.4-37.3 27-56.8-9.8 12.8-26.2 20.4-42.4 19.6-16.2-.7-31.8-9.8-40.4-23.4-7.6 5.2-12.5 14.2-12.4 23.4h-23.9c-4.8-15.9-9.7-31.9-14.6-47.8-1.7-5.7-5.3-12.7-11.3-12-4.6.5-7.1 5.5-8.6 9.8-6.9 19.9-8.9 41.4-5.7 62.2l-3.9-17.4c-6.5 10.2-15.8 18.7-26.6 24.3-6.2-13.2-18-23.6-31.9-28.3 8.6 23.8-5.5 47.7-30.4 52.7-10.2 2.1-59.2-7.8-44.5 12.6 23.3-5.2 40.5-6.3 57.6 11.8 4.2 4.4 7.3 10.3 9.6 16.9-1.2 2.3-2.1 4.3-2.7 5.6-11.2 24-9.4 52.4-11.3 78.2-.7 9.8-1.3 20.2 3 29 5 10.2 16.1 16.5 27.3 18.1 7.7 1.1 15.5.4 23.1-1.3 14.3 8.4 27.8 20.6 40.1 30.5 15.4 12.3 33.9 21.6 52.5 15.2 17-5.9 30-30 43.4-42 12.8-11.4 29.1-18.1 43.1-28.1 14.3-9.9 26.5-25.4 24.7-42.4zm83.1 94.6c1.6-4.3 2.7-8.8 3.3-13.3.2-.9.4-1.7.6-2.6 1.1-6.2.3-12.4-1.4-18.5-.6-3.1-1.5-6.1-2.5-9-3.2-9-8.5-17.8-7.6-27.3.5-5.4 11.2-31.3-1.1-30.8-3 .1-5.3 3.8-7.1 8.4-7.6 4-15.1 8-22.7 12 13.5 24.3 14 55.3 1.2 80-12.8 24.7-38.3 42.2-65.9 45.3L530 413.4l26.4 40.5c5.5 8.4 12.7 17.8 22.8 17.7 11.5-.1 26.7-17.8 32.5-27.8 5.8-10 8.5-14.9 18.8-9.9 3.5 1.7 6.4 5.1 10.3 5.3 6.5.4 10-8.1 8.4-14.5s-6-11.7-7.2-18c-.7-3.5-.4-6.9.3-10.2 2.2-3.4 4.1-7 5.6-10.9z"/><path d="M187.7 428.7c-19 21.8-24 54.7-12.5 81.2 10-21.4 21.6-42.1 34.5-61.9" fill="#77a81d"/><path class="st1" d="M563 811.5c-9.7-7.6-21.9-11.6-31.6-19.1-21.8-16.8-22.6-59.5-28.4-86-18.2-83.8-63.2-149.6-121.3-213.8l-.9-.9c-6.5-9.4-14.6-23.6-23.1-27.8-10.8-5.4-19.9 1.3-31.1 3.7-26.2 5.6-54.7.9-77.1-13.9-31.8-21.1-49.5-61.5-43.4-99.2 1-6 2.3-12.6-1.1-17.6-4-5.8-13-6.1-19.1-2.5-6.1 3.6-9.9 10-13.5 16 5.3 3.3 10.5 6.6 15.8 9.9-8.4 1.6-13.6 10.7-14.1 19.2s2.5 16.9 4.6 25.2c8.9 35 3.1 71.9-2.7 107.5 4.8-17.4 17.9-32.4 34.6-39.3 16.7-6.9 36.5-5.7 52.2 3.2-5.9 20.1-4.7 42.1 3.3 61.5 4.3-17.5 8.6-35.1 13-52.6 26.7 9.8 55.3 14.2 83.7 12.9.2.6.4 1.1.6 1.7 7.4 20.3 14.9 40.6 22.3 60.8-2.8 13.7-9.9 26.6-21.7 34.3-4.7 3-10.3 5.4-13.1 10.1-3.3 5.5-2 12.4-.5 18.6 2.5 10.2 5.3 20.4 8.4 30.5-16.1-18.1-43.8-26.3-68.4-21.9-31.7 5.7-58.1 27.8-78 53-10.2 12.9-27.9 23.1-26.3 39.4.8 7.6-.9 12 12.3 27.7 4 4.7-2 12.2-2.8 18.3-2.9 22.2 10.9 44.1 29.3 57.1s40.8 18.9 62.7 24.4c1.2-16.9 19.8-30.3 36.3-26.3.2 6.7.5 13.5.7 20.2 5.4-15.1 21.3-25.8 37.4-25.4-2.5 6.5 4.7 13.4 11.7 13.5 7 .1 13.3-4.2 19-8.3 5.4-3.9 10.8-7.8 16.3-11.8.7 2.5 1.4 4.9 2.1 7.3 6.4 5.5 17.3 3 22.4-3.7.6-.8 1.2-1.7 1.6-2.6 3.1 4.6 6.2 9.2 9.4 13.7-3.7 10.1-7.4 20.4-7.2 31.1s5.3 22 15.1 26.7c9.8 4.7 24.1-.1 26.4-10.5 19.3-2.7 37.3-13 49.1-28.1 15.2-1.5 30.4-3.1 45.5-4.7 6.2-10.2-.7-23.9-10.4-31.5zM380 506.3l-1-6.6 1.8 6.6h-.8zm4.9 32.1c.8 2.1 1.5 4.2 2.2 6.3 0 1.9 0 3.8-.1 5.7 0 .3-.1.7-.1 1l-2-13zm508 237.7c-.7-13.8-9.7-28.3-23.3-30.4-8.6-1.4-17.4 2.2-26 1.1-13.6-1.8-23.7-17.1-20-30.2s20.2-21 32.8-15.5c-9.5-9.6-19-19.1-28.4-28.7-2.4-2.5-5.4-5.1-8.8-4.5-3.7.7-5.6 4.7-7.5 8-7.3 12.7-23.8 19-37.9 15.2-14.2-3.8-25.1-16.7-27.4-31.2-2.3-14.5 3.9-29.7 14.9-39.4-1.8 1.6-32.5-3.9-37.8-3.4-10.1 1.1-23.7 3.2-32.3 9-1.7 1.1-3.1 2.4-4.2 3.8-4.7-15.8-11.1-31-19.6-45.4-3.6-6.1-7.7-12.1-13.7-15.8-5.3-3.3-12.5-4.2-17.8-1.2l.2-5.5c-2.8 3.5-4.4 7.3-5.3 11.3-.8 2-1 4.3-.6 6.4 0 13.3 7.1 28.1 13.4 40.7 24.4 48.8 23 100.9 15.9 155-8.8-7.7-13-2.4-20.5 6.5-19.2-3.3-39.4 12.5-40.9 31.8s15.9 38.1 35.3 38c15 3.8 31.1 3.5 46-.9 6.5 7.2 19.2 5.2 26-1.8s9.3-17 11.4-26.5c2.4-11.2 4.2-23.8-2.2-33.3s-24.3-10.3-27.2.8c7.2-32.3 11.1-66.1 9.5-99.3.9 1.9 2 3.7 3.4 5.3 6.7 6.9 17.8 5.6 27.3 4.8 30.3-2.4 63.2 7.9 81.1 32.6 17.6 24.2 17.6 57.8 7.5 86s-28.9 52.2-47.4 75.8c29.2 21 75.1 12.6 95-17.3 3.3-4.9 5.9-11.3 3.3-16.6-3-5.9-10.7-7.1-16.5-10-13.6-6.9-17.4-27.6-7.1-38.9s31.3-9.3 39.4 3.6c5.2-12.8 10.8-26.1 10-39.9z"/><path class="st0" d="M741 729.8c6.2 1.1 12.8 2.4 17.3 6.9 7.8 7.7 8.1 23.3 18.8 25.7 5.1 1.1 11.4-1.5 15.1 2.2 1.9 1.9 2.4 4.8 2.7 7.4 2.9 23.5 5.8 47.1 8.6 70.6 11.6-22.8 16.6-48.9 14.4-74.4-1.6-17.9-7.2-36.3-20.6-48.3-10.4-9.3-24.4-13.7-38-16.9-26.7-6.3-57.3-17.4-58.7 19.1 12.7 4 27.1 5.3 40.4 7.7z"/><path class="st3" d="M453.1 358.5c1.4-10.6 10.8-19.6 21.5-20.5 2.9 11.1-.4 23.6-8.2 31.9-3.4 3.6-8.8 6.5-13 4-3.4-2-4.3-6.7-3.1-10.5 1.2-3.7 4-6.7 6.7-9.6m-34.5 25.3c-5.5-1-11.1-2-16.1-4.6-5-2.6-9.3-7-10.3-12.5s2.2-11.9 7.6-13.2c7.1-1.7 13.5 5.4 15.3 12.5s.7 14.7 2.7 21.8M481 220.8c-5.2-4.3-14.5-.9-15.7 5.7 8.4 1.5 17 1.2 25.3-.7 2.1-.5 4.4-1.3 5.1-3.3 1-2.7-1.9-5.5-4.7-5.8-2.9-.3-5.6 1-8.4 1.8s-6.1 1-8.2-1m-121.1 10.4c-6.8-.9-13.9 3.1-16.6 9.4 9.6 1.6 20-2.9 25.5-10.9m394.1 450.4c10.2 8.6 25.8 9.1 37.4 2.5s19-19.3 20.6-32.5c6.6-54.2-104-8.8-58 30zm87 31.9c-8.5-.8-16.7 5.8-18.7 14.1s2 17.4 8.8 22.5 16.1 6.3 24.4 4.1 15.4-7.5 20.8-14.2c4.2-5.2 7.4-12 5.6-18.4-2.2-7.9-11.2-12-19.3-13.1-14.2-2-29.1 1.7-40.6 10.1m19.1 132.9c9 6.7 21.5 5.1 32.6 3.2 4.3-.8 8.8-1.6 11.9-4.7 15.3-15.1-10.4-46.9-28.8-42.9-18.6 4.1-34.5 30.4-15.7 44.4zm-552.9 9.5c3.6-2.8 4.5-7.8 6.6-11.8 2.1-4 7.4-7.5 11-4.7 1.7 1.3 2.3 3.5 2.8 5.5 2.5 12 .2 24.9-6.2 35.3-5.9-9.8-11.8-19.7-17.7-29.5m42.6 8.9c-.6-13.4 11.3-26.1 24.7-26.2 1 14.9-1.3 30-6.6 43.9-7.1-5.9-14.2-11.8-21.2-17.7"/><path d="M334.4 845.1c-6-1.5-12.8 3.9-12.5 10.1s7.4 11.1 13.2 9.1" fill="#403d36"/><path class="st3" d="M365.8 856.5c4.3-8.3 11.3-15.2 19.6-19.4 1.8 9 2.1 18.2 1.1 27.3-.3 2.5-.9 5.4-3.2 6.6-2.1 1.2-4.8.2-6.9-.9-7.1-3.8-12.7-10.4-15.3-18.1m79.2 40.4c-.8-1.8-3.1-2.8-5-2.2-1.8 12.5 3.8 25.7 14.1 33l13.8-24.3c-5.8 2-12.4 1.1-17.4-2.4-5-3.5-8.2-9.4-8.4-15.5m62.9 0c-.3 5.1-.6 10.4 1.5 15 2.1 4.7 7.3 8.3 12.2 6.8 5.6-1.7 7.4-8.6 8.4-14.4.9-5.3 1.4-11.7-2.7-15.1-3.6-3-9.3-2.2-13.1.7s-6 7.3-8 11.5m57.2-32c-3.5.8-5.3 5.1-4.7 8.7.6 3.6 3 6.5 5.3 9.4s4.7 5.8 5.3 9.3c8.1-6.3 15.3-13.7 21.3-22-8.1-9.9-25-10.7-34-1.6m82.1 5c1.9 7.5 10.6 12.5 18.1 10.5 7.5-2 12.4-10.7 10.3-18.2.3 1.2-45.2-4.3-48.2-1.4-12.3 11.6 13.8 25.5 19.8 9.1zm46.2-11.6c-2.8 7.9-3.2 16.7-1.1 24.9 10.6-1.2 20.3-7.9 25.2-17.3-8.2-2.4-16.5-4.7-24.7-7.1"/><path class="st3" d="M675.8 851.7c-2.7-2.2-7.5-.1-7.7 3.3l10.8 11.4c.8.9 1.7 1.8 2.8 2.2 3.2 1.2 6.4-2.6 6.2-6s-2.7-6.2-4.9-8.7"/><path d="M315.2 243.9c.5-14.7-5.3-28.9-16-39-3.8-3.6-9.5 2.1-5.7 5.7 9.2 8.8 14 20.6 13.6 33.3-.1 5.2 7.9 5.2 8.1 0z"/><path d="M221.8 171.7c16.7 3.5 15.8 24.1 14.8 37.3-.2 3 3.6 5.1 6.1 3.5 19.9-13 47.8-8.2 62.5 10.3 3.2 4.1 8.9-1.7 5.7-5.7-16.9-21.2-49.6-26.3-72.3-11.5 2 1.2 4.1 2.3 6.1 3.5 1.3-16.9-.1-40.7-20.8-45.1-5-1.2-7.1 6.6-2.1 7.7z"/><path d="M213.6 167.8c22 11.3 46.5 20.8 71.8 19 21.3-1.5 41.9-10.7 54.6-28.2 2.4-3.3-2.3-7.7-5.5-5.5-1.1.7-2.2 1.5-3.2 2.2-4.3 2.9-.2 9.9 4.1 7 1.1-.7 2.2-1.5 3.2-2.2l-5.5-5.5c-11.6 15.9-31.5 23.7-50.7 24.3-22.8.7-44.7-7.8-64.6-18.1-4.7-2.3-8.8 4.6-4.2 7z"/><path d="M333.5 168.4c-2.4-7.5-4.4-15-5.9-22.8-.8-4-1.8-8.4-1.8-12.5 0-3 2.1-4.9 4.4-1.9 1.1 1.4 2.1 2.9 3.1 4.3 8.6 12.2 15.8 25.4 21.5 39.3 1.9 4.8 9.8 2.7 7.8-2.1-4-9.9-8.6-19.5-14.1-28.6-2.7-4.6-5.6-9-8.7-13.3-2.4-3.4-5.1-8.4-9.4-9.8-3.6-1.2-7.6.5-9.9 3.3-2.9 3.4-2.9 8.1-2.4 12.3 1.3 11.6 4 23 7.6 34 1.6 4.9 9.4 2.8 7.8-2.2z"/><path d="M346.3 159.7c17.3-5.2 32.8-14.6 45.3-27.6 3.6-3.8-2.1-9.5-5.7-5.7-11.6 12-25.8 20.7-41.8 25.5-4.9 1.5-2.8 9.3 2.2 7.8z"/><path d="M391.4 149.9c-.3-14.4.4-28.8 2.5-43 1-7 2.3-13.9 3.8-20.8.8-3.4 1.6-6.9 2.5-10.3.4-1.5.9-3.1 1.3-4.6.7-3-.3-1.7 1.4-1 4.7 2.1 8.2 9.5 10.3 13.8 2.8 5.8 4.8 11.9 7 17.9 4.8 13.3 9.1 26.7 13.5 40.1 1.6 4.9 9.4 2.8 7.8-2.1-5.3-16.5-10.6-32.9-16.8-49.2-2.3-6-4.6-12.1-8.2-17.4-3-4.6-8.1-11.1-13.8-12.2-7.7-1.5-9 8.1-10.4 13.5-2.1 8.1-3.9 16.2-5.2 24.4-2.8 16.8-4 33.8-3.6 50.8-.1 5.3 8 5.3 7.9.1z"/><path d="M430.7 137.5c11.1 2.7 22.5 4.1 34 4 5.2 0 5.2-8.1 0-8.1-10.8.1-21.3-1.1-31.8-3.7-5.1-1.2-7.3 6.6-2.2 7.8z"/><path d="M464.4 139.4c-.6-5.1-.6-10.3.6-15.3.6-2.6 3.3-13.8 7-13 1.5.3 3.9 5.2 4.8 6.4 1.8 2.5 3.5 4.9 5.3 7.4l11.1 15.6c3 4.2 10 .2 7-4.1-5.5-7.7-10.9-15.3-16.4-23-3.3-4.7-7.5-12.5-14.5-10.9-6 1.3-8.9 9.6-10.7 14.7-2.5 7.1-3.2 14.8-2.3 22.2.6 5.1 8.7 5.1 8.1 0z"/><path d="M489.3 145.5c28-9.3 56.5-19.1 79.2-38.8 3-2.7-.2-8-3.9-6.8-1.3.4-2.7.9-4 1.3-4.9 1.6-2.8 9.4 2.2 7.8 1.3-.4 2.7-.9 4-1.3-1.3-2.2-2.6-4.5-3.9-6.8-21.5 18.7-49 27.9-75.6 36.8-5.1 1.6-2.9 9.4 2 7.8z"/><path d="M558.6 105.9c2.5 14-3.9 28.3-10.3 40.4-6.2 11.6-14 22.3-23.1 31.8l5.7 5.7c1.6-2 4.2-1.6 5.7.4s1.2 5.1.7 7.3c-1.2 4.9-4.4 9.2-6.3 13.8-3.5 8.5-4.2 18.2.7 26.3 2.7 4.4 9.7.4 7-4.1-8.5-13.9 6.8-25.1 7.2-38.5.2-5.5-2.2-11.1-7.3-13.5-4.5-2.1-10-1.3-13.2 2.6-3.2 3.9 2 9.6 5.7 5.7 10.4-10.8 19.2-23.1 26-36.5 6.8-13.5 12.3-28.3 9.6-43.6-1.3-5-9.1-2.9-8.1 2.2zM311 235.6c-4.7 16.7-8.7 33.6-12 50.7-3.3 16.9-7.2 34.7-6 52 .4 6.3.9 14.4 6.9 18 3.2 1.9 7.2 2.6 10.7 3.6 4.1 1.2 8.3 2.4 12.4 3.6 17.5 5 35.1 10 52.6 15.1 5 1.4 7.1-6.4 2.1-7.8-15.3-4.4-30.6-8.8-45.9-13.1-7.6-2.2-15.3-4.4-23-6.6-4.3-1.2-6.4-2.3-7.2-7.1-.8-4.4-.9-9-.8-13.4.3-15.7 3.7-31.5 6.8-46.8 3.1-15.5 6.9-30.8 11.1-45.9 1.5-5.2-6.3-7.3-7.7-2.3z"/><path d="M414.4 325.8c-17.3 6.7-38.7 16.6-40 38-1.1 19.1 18.3 33.3 33.1 41.5 17.1 9.5 38 16.3 56.4 6.5 8.6-4.6 16.1-11.6 22.7-18.8 6.9-7.6 13.5-16.1 17.8-25.5 9-19.6 4.3-42.3-14.8-53.8-4.5-2.7-8.5 4.3-4.1 7 14.4 8.7 18.8 25.7 12.7 40.9-6 15-18.6 29.2-31.5 38.8-6.5 4.8-13.9 8.5-22.2 8.4-8.4-.1-17-3.1-24.6-6.4-13.3-5.8-30.3-15.6-36-29.8-8.4-21.1 17.3-33.1 32.6-39.1 4.9-1.8 2.8-9.6-2.1-7.7z"/><path d="M427 369.2c.1-8.8-2.7-18.3-11.2-22.5-6.8-3.3-15.3-1.9-19.3 4.9-3.5 5.9-2.9 14 .7 19.7 5 8 14.5 11.5 23 14.4 4.9 1.7 7-6.1 2.1-7.8-8.4-2.9-21.8-7.7-20-19 .7-4.7 4.8-7 9.2-5.3 6.1 2.5 7.4 9.7 7.3 15.5.1 5.3 8.2 5.3 8.2.1zm25.4-4.5c-.9-7 3.1-12.2 8.1-16.7 3.9-3.5 12-10.6 14-2 2.7 11.6-6 23.8-16.8 27.3-4.9 1.6-2.8 9.4 2.1 7.8 8.7-2.8 15.9-9 19.8-17.2 3.6-7.6 5.2-18.1.3-25.5-6-9-15.7-3.6-22.2 1.6-7.6 6-14.7 14.4-13.3 24.8.6 5 8.7 5 8-.1zm76.2-141.3l-8.4-6c-1.4 2.3-2.7 4.6-4.1 7 25.9 15.6 55.7 38.4 54 72.2-1.7 34.3-37.6 51.6-64.5 64-4.7 2.2-.6 9.1 4.1 7 30.1-13.9 66.7-33.3 68.5-71 1.8-36.8-29.6-62.2-58-79.2-4.5-2.7-8.2 4-4.1 7l8.4 6c4.3 3.1 8.3-3.9 4.1-7zM364 267c-9.1 4.6-9 17.9-5.8 26.3 3.3 8.7 15.9 14.1 21.5 4.2 4.8-8.4 5.9-23.3-1.5-30.6-6.2-6.1-17.3-6.4-22.1 1.4-2.7 4.5 4.3 8.5 7 4.1 2.3-3.8 8.1-1.7 10.2 1.2 3.4 4.6 1.9 12.1.3 17.1-2.3 7.6-7.7 2-8.7-3.1-.9-4.3-1.5-11.3 3.1-13.6 4.7-2.4.6-9.4-4-7z"/><path d="M363.6 266.8c-4.6 1.4-9.1 1.8-13.8 1.3-5.2-.5-5.1 7.6 0 8.1 5.4.5 10.8-.1 16-1.6 4.9-1.5 2.8-9.3-2.2-7.8zm126.7-13.5c-10.6 3-14.7 13.8-14.3 24 .2 4.5.1 11 3 14.7 2.7 3.5 7.2 3.9 11.2 2.5 8.3-2.8 12.4-12.3 12.7-20.5.4-9.2-3.9-17.9-11.3-23.3-4.2-3-8.3 4-4.1 7 7.8 5.6 10 18.3 4 26.1-.8 1-4.2 4.5-5.9 3.3-1.9-1.3-1.5-8.8-1.5-10.8-.1-6.2 1.7-13.4 8.4-15.2 5-1.3 2.9-9.2-2.2-7.8z"/><path d="M489.1 265.2c7 2.5 14.4 2.7 21.5.9 5-1.3 2.9-9.1-2.1-7.8-5.9 1.5-11.5 1.1-17.2-.9-5-1.7-7.1 6.1-2.2 7.8zm-142.7-29.4c3.6-6 10.8-7.9 17.1-5.2-.8-2-1.6-4-2.4-5.9-3.4 4.5-8.1 7.4-13.6 8.9-5 1.4-2.9 9.2 2.1 7.8 7.6-2.1 13.7-6.4 18.4-12.6 1.8-2.3-.3-5.1-2.4-5.9-9.6-4-20.9.2-26.2 9-2.7 4.2 4.3 8.3 7 3.9zm137.9-12.7c-4.4 1-8.7 1.7-13.2 1.8-1.5.1-3.9-.3-5.4 0 .4 1.9.9 2 1.5.3.4-.5 1-1 1.5-1.4 5-3.7 12.3-3.1 18.2-2.8 5.2.3 5.2-7.8 0-8.1-9.3-.5-23.8-.2-27.9 10.2-5.7 14.6 21 9.1 27.4 7.6 5.1-.9 3-8.7-2.1-7.6zm-181.7 15.6c-7.7 13.5-14.3 27.6-19.7 42.1-5.4 14.7-10.3 30.2-11.5 45.9-2.5 30.4 16.4 54 34.3 76.4 35 44 74.8 84.4 106.1 131.3 17.3 25.9 31.7 53.7 40.4 83.8 1.4 5 9.2 2.9 7.8-2.2-15-52-46.5-96.5-80.6-137.8-17.4-21.1-35.6-41.6-53.1-62.6-9-10.7-17.8-21.6-26.2-32.8-8.5-11.4-16.6-23.7-19.6-37.8-3.8-17.8 1.8-36.6 7.3-53.4 5.6-17 13-33.3 21.9-48.8 2.5-4.6-4.5-8.7-7.1-4.1zm193.9 138.8c29.1 41.4 58.2 82.8 87.2 124.2 26.4 37.6 53 76 65.7 120.7 7.4 26 10.4 53 9 80-.3 5.2 7.8 5.2 8.1 0 2.3-47.5-9-94-31.4-135.8-11.2-20.9-24.6-40.6-38.2-60.1-14.3-20.5-28.7-40.8-43-61.3-16.8-24-33.7-47.9-50.5-71.9-2.9-4.1-9.9-.1-6.9 4.2z"/><path d="M537.7 430.3c10.3 11.1 27.2-3.7 35.8-10 12-8.7 23.3-18.3 32.1-30.3 18.2-24.9 19.3-59.1 1.4-84.5-.2 1.6-.4 3.3-.6 4.9 12.8-10.9 27.1-19.7 42.5-26.4-2-1.2-4-2.3-6.1-3.5 1.8 16.7 1.7 33.6-.7 50.3-.7 5.1 7.1 7.3 7.8 2.1 2.5-17.4 2.8-34.9 1-52.4-.3-3.2-3.1-4.8-6.1-3.5-16.1 6.9-30.9 16.2-44.2 27.6-1.3 1.1-1.6 3.5-.6 4.9 15.3 21.8 15.7 50.3 1.2 72.6-7 10.8-16.7 19.6-26.8 27.4-4.8 3.7-9.8 7.2-14.8 10.5-3.8 2.6-12 9.1-16.3 4.5-3.5-3.8-9.2 2-5.6 5.8z"/><path d="M576.4 472.8c22.2-5 41.3-19.6 51.9-39.8-1.8.5-3.7 1-5.5 1.5 4.8 2.3 9.5 4.6 14.3 6.9 3.7 1.8 7.8 4.5 12 4.8 6.5.5 10.6-4.5 11.6-10.4 2.5-14.4-9.4-30-19.8-38.5-1.3 2.2-2.6 4.5-3.9 6.8 8.7 1.4 14.4-5.8 18.5-12.5 4.3-7 6.8-14.9 7.8-23 2-16.3-3-32.9-14-45.2-3.5-3.9-9.2 1.9-5.7 5.7 8.3 9.3 12.3 21.5 12 33.8-.1 5.9-1.3 11.9-3.5 17.4-1.6 4.1-7.4 16.8-13 15.9-3.5-.5-7.5 3.9-3.9 6.8 8.1 6.5 15.8 16.1 17.6 26.6.3 2 .5 4.4-.3 6.3-1.4 3.3-4 1.9-6.8.6-6.3-2.9-12.5-6-18.7-9-1.9-.9-4.5-.6-5.5 1.5-9.7 18.4-26.8 31.5-47.1 36-5.3 1.1-3.1 8.9 2 7.8z"/><path d="M646.6 327.8c17.5.5 32.8 10.2 45 22.1 12.7 12.2 23.2 26.8 31.6 42.2 8.3 15.4 14.5 31.8 18.3 48.9.9 4.1 1.7 8.2 2.3 12.3.4 2.4.7 4.8.9 7.2.3 3.2.2 4.1-3.1 4.2-2.3.1-5.3-1.1-7.5-1.5l-7.5-1.5c-5-1-10.1-2-15.1-3.1-3.5-.7-6.3 2.7-4.6 5.9 10.8 20.1 15 43.3 11.6 65.9 1.7-.9 3.3-1.9 5-2.8-36.3-13.8-79.6-.2-102.2 31.2-3 4.2 4 8.3 7 4.1 20.5-28.6 60.3-40 93-27.5 1.9.7 4.7-.8 5-2.8 3.8-24.9-.4-50-12.4-72.2-1.5 2-3 4-4.6 5.9 9.4 1.9 18.9 3.9 28.3 5.8 5.9 1.2 13.3 1.8 15.2-5.5.8-3.3 0-7-.5-10.3-.5-4-1.1-7.9-1.9-11.8-1.6-8.2-3.7-16.3-6.3-24.2-9.9-29.9-27.2-59.1-51.1-80.1-13.1-11.5-28.8-20.1-46.5-20.6-5.1 0-5.1 8 .1 8.2zm-294 124.9c-12.3 9-27.8 10.2-42.6 9.4-14.1-.8-28.1-3.9-41.1-9.3-25.9-10.9-46.8-31.9-54-59.4-3.9-15-3.4-30.6 2.2-45.1 1.9-4.9-5.9-7-7.8-2.1-10.8 27.9-3.5 59.9 14.6 83 19.3 24.6 50.1 37.7 80.6 40.6 17.7 1.7 37.4.8 52.2-10 4.1-3.2.1-10.2-4.1-7.1z"/><path d="M217.4 349.8c-1-8.6-5.1-17.3-13.2-21.2-9.5-4.5-19.4.1-27.1 6-4.3 3.2-8.3 6.8-12.2 10.5-2.7 2.6-7.4 5.9-7.2 10.2.2 4.7 4.7 6.3 8.4 7.6 6 2 12.1 3.9 18.1 5.8v-7.8c-12.3 3.3-19.7 14.9-22.3 26.8-1.4 6.2-1.8 12.2 4 16.2 6.1 4.2 13.9 5.8 21.2 5.1 5.1-.4 5.2-8.5 0-8.1-5.4.4-10.6-.3-15.3-2.9-4.4-2.5-2.3-8.2-1-12.2 2.5-7.7 7.4-14.9 15.6-17.1 4-1.1 3.7-6.6 0-7.8-3.6-1.2-7.3-2.3-10.9-3.5-1.3-.4-9-2.1-9.2-2.6 0 0 5.2-4.9 6.3-5.9 2.6-2.4 5.3-4.8 8.1-7 4.9-3.9 11.8-8.8 18.5-6.8 6.1 1.9 9.5 8.6 10.2 14.6.5 5.2 8.6 5.3 8 .1zM182.2 417c-14.4 34.5-25.1 73.8-10.1 109.9 1.5 3.5 6.5 4.1 7.8 0 6.1-19.9 17.4-37.6 32.7-51.7 3.8-3.5-1.9-9.2-5.7-5.7-16.3 15-28.2 34.1-34.8 55.3h7.8c-14.5-35-3.8-72.4 10.1-105.6 2-4.9-5.9-7-7.8-2.2z"/><path d="M207.1 468.2c18.2 7.6 37.6 11.4 57.4 11.5-.4-2.6-.7-5.3-1.1-7.9-16 3.9-13.7 22.9-12.1 35.2 1.1 8.2 2.4 16.3 4.1 24.4 1.3 6.1 2.6 12.2 9 14.6 2 .7 4.5-.8 5-2.8 4-17.8 10-35 18.1-51.4-1.5.6-3 1.2-4.6 1.9 26 7.5 53.2 10.5 80.2 8.8 5.2-.3 5.2-8.4 0-8.1-26.4 1.6-52.7-1.2-78.1-8.5-1.6-.5-3.8.3-4.6 1.9-8.4 17-14.8 34.8-18.9 53.3 1.7-.9 3.3-1.9 5-2.8-3.4-1.2-3.8-11-4.3-13.8-1.1-5.5-2-11-2.8-16.5-1.1-8.1-5.2-25.6 6-28.3 4.5-1.1 3.5-7.9-1.1-7.9-19.1 0-37.6-3.8-55.2-11.2-4.7-2.2-6.8 5.6-2 7.6zm-46.3-62.5c-16.2 26-24.1 56-27 86.3-3.2 33.1-1.5 67.5 2 100.5 1.4 13.4 4.7 27.5 15.8 36.2 2.6 2.1 6.9.9 6.9-2.9.1-24.2 9.6-47.5 26.5-64.8 3.6-3.7-2.1-9.4-5.7-5.7-18.4 18.8-28.8 44.2-28.9 70.5 2.3-1 4.6-1.9 6.9-2.9-12.7-10-13.3-27.5-14.3-42.4-1.4-20.4-2.7-40.8-2.5-61.2.5-38.1 6.8-76.8 27.3-109.6 2.8-4.4-4.2-8.5-7-4z"/><path d="M156.6 610.2c22.1-21.9 55.5-29.9 85.1-20.5l-3-3.9c-1.1 12.1 6.1 22.9 17.2 27.4 1.5.6 3.9-.4 4.6-1.9 3-6.6 6.1-13.7 11.4-18.7 7.1-6.8 16.2-5.5 25.2-4.5 19.9 2.1 39.6 5.2 59.2 9 5.1 1 7.3-6.8 2.1-7.8-22.2-4.3-44.6-7.9-67.1-9.8-9-.8-17.2.5-24.2 6.5-6.4 5.6-10.3 13.7-13.7 21.3 1.5-.6 3-1.2 4.6-1.9-7.8-3.2-12-11.4-11.2-19.6.2-1.8-1.4-3.4-3-3.9-32.3-10.2-68.9-1.3-93 22.6-3.6 3.6 2.1 9.3 5.8 5.7z"/><path d="M371.2 526.9c10 24.4 5.5 53.4-12.3 73.1-3.5 3.9 1.9 9.2 5.7 5.7.9-.8 1.9-1.7 2.8-2.5 3.9-3.5-1.9-9.2-5.7-5.7-.9.8-1.9 1.7-2.8 2.5l5.7 5.7c19.5-21.7 25.5-53.9 14.4-81-1.9-4.7-9.8-2.6-7.8 2.2z"/><path d="M374.2 604.3c-7.2-4.6-17.1-10.4-25.9-10.7-7.5-.3-10.6 6.5-10.1 13.1.6 9.2 3 18.6 4.8 27.7 2 9.4 4.2 18.7 6.7 27.9 10.2 37.2 25 73.2 43.8 106.9 10.8 19.2 22.9 37.7 36.2 55.2 3.1 4.1 10.1.1 7-4.1-41.7-55-71.1-118.8-85.5-186.3-1.9-9-4.6-18.6-5-27.9-.1-2.2-.3-4.2 2.5-4.3 2-.1 4.6 1.3 6.5 2 5.3 1.9 10.2 4.5 14.9 7.5 4.4 2.8 8.4-4.2 4.1-7zm76.8 57.3c-4.1 5.2-1.2 10.7.8 16.2 2.4 6.7 4.9 13.3 7.4 20 5 13.1 10.3 26.1 16.4 38.7 12.1 25 27.4 48.7 48.2 67.3 3.9 3.5 9.6-2.2 5.7-5.7-18.9-17-33.1-38-44.4-60.6-5.7-11.4-10.8-23.1-15.5-35-2.3-5.8-4.5-11.7-6.7-17.6-1.1-3.1-2.2-6.1-3.4-9.2-.4-1.1-3.5-7.6-2.9-8.4 3.3-4-2.3-9.8-5.6-5.7zm13.1-162.1c18.9-4.6 38.4-11.2 55.4-20.9 6.3-3.7 12-9.3 11.9-17.1-.1-8.2-6.8-12.5-14.4-12.8-5.2-.2-5.2 7.9 0 8.1 9.9.3 5.9 10 .4 13.6-5 3.4-10.9 5.8-16.5 8.2-12.6 5.5-25.6 9.8-39 13.1-5 1.2-2.9 9 2.2 7.8zm19.4 105.7c13.2 9.2 28.4 15.7 44.3 18.1 7.7 1.2 15.2 1 22.2-2.6 6.6-3.4 12.1-9.1 17-14.6 10-11.2 17.6-24.5 22.2-38.8 1.9-5.8 5.4-14.6 1.8-20.5-2.7-4.5-9.4-5.6-12.9-1.6-3.4 3.9 2.3 9.6 5.7 5.7.1-.1.4 2.7.3 3.5-.1 1.4-.6 2.9-.9 4.3-.7 2.7-1.5 5.3-2.3 7.9-1.8 5.4-4.2 10.6-6.9 15.6-5.3 9.6-12.1 18.3-20.2 25.7-4.5 4.1-9.5 7.5-15.7 8-6.2.5-12.5-1-18.4-2.6-11.5-3.1-22.2-8.3-32-15.1-4.3-2.9-8.4 4.1-4.2 7zm31.1 122.9c16.2 19.8 42.6 30.4 68 27.1 25-3.2 47.6-20.2 58.1-43.1 2.1-4.5 6.6-12.7 3.7-17.6-3.1-5.1-10.2-3.2-14.1-.3-4.2 3-.1 10 4.1 7 .5-.3 3.5-1.9 3-2.1-.6-.2-.9 1.9-1.3 3.1-1 3.2-2.4 6.2-3.9 9.1-2.8 5.3-6.3 10.3-10.4 14.7-8.7 9.4-19.8 16.4-32.2 19.7-25.3 6.7-52.8-3.2-69.2-23.3-3.3-4.1-9 1.7-5.8 5.7zM640.2 584v-13c0-1.4-.6-4.5 0-5.7-.1.2 0-1 .1-1 .8-.3 3.4 2.1 4.1 2.7 5.3 4.3 10.2 9.2 14.5 14.5 9.4 11.2 16.8 24.2 22.1 37.7 11.8 29.8 14.1 62 12.7 93.8-.9 20.2-3.3 40.3-5.7 60.3-.6 5.2 7.5 5.1 8.1 0 8.3-69.4 15.6-152.8-39.5-206.2-4.7-4.5-12.6-13.5-20-10.2-3.6 1.7-4.4 5.5-4.5 9.1-.2 6 0 12.1 0 18.1.1 5.1 8.1 5.1 8.1-.1zM437.6 876.7c-2.1-10.4-2.5-21.7.1-32.1 2-8.2 10.2-19.6 19.5-12.3 6.7 5.3 10.4 16 12.8 23.8 3 9.9 3.7 20-.3 29.6-2 4.8 5.8 6.9 7.8 2.2 5.3-12.6 3.3-26.5-1.4-38.9-3.6-9.6-8.8-22.4-19.4-26-11-3.8-21.1 4.6-25.1 14.3-5.2 12.9-4.4 28.3-1.8 41.7 1.1 5 8.8 2.8 7.8-2.3zm47.4-39.8c2.8-4.7 7.6-12.9 14.1-12 3.8.5 6.6 4.4 9.1 7.1 2.7 2.9 5.3 5.8 8 8.8s5.3 5.8 8 8.8c1.3 1.4 2.8 2.8 4 4.4 1.7 2.2 1.9 2.1 1 4.3-1 2.6-4.6 5.8-6.7 7.6-3.6 3-7.7 4.4-12.2 2.8-4.9-1.8-7 6-2.1 7.8 10.7 4 19.9-3.6 26.1-11.6 2.8-3.6 5.7-7.5 3.4-12.1-2.6-5.2-8.4-9.7-12.3-14-4.4-4.8-8.7-9.7-13.2-14.4-3.4-3.6-7.3-7-12.4-7.4-10-.9-17.1 8.4-21.6 16-2.9 4.3 4.1 8.3 6.8 3.9z"/><path d="M516.3 821.2c-1.3-8.6 7-14.9 14.8-15.4 8-.6 15.5 3.1 21.8 7.6 10.8 7.7 26.6 19.9 24.9 34.8 2-1.2 4-2.3 6.1-3.5-1.3-1-2.6-2-4-3-4.2-3.1-8.2 3.9-4.1 7 1.3 1 2.6 2 4 3 2.7 2.1 5.8-.8 6.1-3.5 1.1-9.9-4-18.6-10.5-25.7-7.2-8-16.4-16-26.1-20.7-8.9-4.3-19.8-6-28.9-1.4-8.6 4.4-13.3 13.4-11.9 22.9.7 5.2 8.5 3 7.8-2.1z"/><path d="M550.6 861.4c5.3-8 16.4-10.5 24.6-5.7 4.5 2.6 8.6-4.4 4.1-7-12.2-7-28-3.1-35.7 8.6-2.8 4.4 4.2 8.4 7 4.1zM350.9 647.5c-4.2-13.4-15.4-22.7-28.6-26.9-15.4-4.9-31.6-1.7-46.1 4.6-15.6 6.8-30 16.7-43.5 27C220 662 208 672.9 198 685.4c-11.1 13.8-19.7 29.4-24.3 46.6-1.4 5 6.4 7.2 7.8 2.2 7.6-27.7 25.9-50.4 47.5-68.6 11.1-9.4 23.2-17.8 35.8-25.3 13.3-7.8 28.3-14.8 44.1-13.9 14.5.8 29.6 8.9 34.2 23.3 1.6 4.8 9.4 2.7 7.8-2.2z"/><path d="M170.2 729.8c2.1 13.3 10.8 25.4 19.6 35.3 8.8 9.8 19.2 17.9 30.2 25.1 11.3 7.4 23.3 13.8 35.4 19.9 10.8 5.5 25.9 13.3 35.8 1.7 3.4-3.9-2.3-9.7-5.7-5.7-4.9 5.8-12.5 3.6-18.5.8-5.4-2.5-10.7-5.4-16-8.1-10.1-5.3-20.1-10.9-29.6-17.3-18.1-12.3-39.7-31-43.4-53.8-.8-5.1-8.6-3-7.8 2.1z"/><path d="M293.7 820.7c1.3-6.6 2.5-13.6 6.3-19.3 3.3-5 10.1-9.3 16.1-6.6 5.8 2.7 9.3 10.4 11 16.2 2 6.5 2.2 13.4.7 20-1.1 5.1 6.7 7.2 7.8 2.2 1.9-8.8 1.6-18-1.5-26.6-2.8-7.8-7.8-16.7-16.1-19.7-7.6-2.7-16.1.6-21.6 6.1-6.7 6.8-8.8 16.6-10.6 25.6-.9 5 6.9 7.2 7.9 2.1z"/><path d="M328.9 807.3c2.7-16.7 24.6-22.2 33.6-7 8.5 14.5 4.4 35.7-3.1 49.7-2.4 4.6 4.5 8.7 7 4.1 5.5-10.3 8.6-21.7 8.5-33.4 0-10.5-2.1-22.5-9.9-30.2-15-14.7-40.6-5.7-43.9 14.7-.8 5 7 7.2 7.8 2.1z"/><path d="M371.6 801.5c1.3-7.2 8.8-10.3 15.5-8.7 7.1 1.8 13.1 7.8 16.8 13.9 9.1 15-5.5 25.3-17.2 32-4.5 2.6-.5 9.6 4.1 7 8.2-4.7 17.2-10.3 21.7-19 4.9-9.5 2.1-19.5-4.1-27.6-6-7.8-14.8-14.9-25.2-14.8-8.9.1-17.7 6-19.4 15.1-1 5.1 6.8 7.3 7.8 2.1zm-77.1 53c-.1-.1 15.1-17.2 16.3-18.6-1.6.2-3.3.4-4.9.6 14 8.1 1.6 34.8-3.6 44.5-2.5 4.6 4.5 8.7 7 4.1 7.7-14.3 19.8-44.5.7-55.5-1.5-.9-3.7-.7-4.9.6-5.2 5.9-10.9 11.6-15.8 17.8-2.8 3.5-4.7 9-.5 12.3 4 3.1 9.8-2.6 5.7-5.8z"/><path d="M289 868.5c5.1 5.1 9 11 12 17.6 2.1 4.8 9 .6 7-4.1-3.2-7.2-7.7-13.7-13.2-19.3-3.7-3.6-9.4 2.1-5.8 5.8zm44.5-17.2c4.6-4.9 9.8-9.1 15.7-12.3 2.1-1.2 6.7-4.8 7.1-1.2.4 3.4-1.3 7.8-2 11.2-1.6 7.2-3.6 14.4-6.3 21.3-1 2.6-1 1.6-2.6-.4-1-1.2-2.1-2.4-3.2-3.6-2.8-3.1-5.5-6.3-8.3-9.4-.9-1-2.7-1.5-3.9-1-5.9 2.5-6.1 12.7 1.5 12.7s7.4-10.2 1.5-12.7c-4.8-2-6.9 5.8-2.1 7.8h1.4c-1.3-.3-2.6-.7-3.9-1 4.1 4.6 8 9.9 12.6 14.1 3 2.7 7.5 4.8 11.2 2.1 3.8-2.7 4.9-9.2 6.3-13.4 2-6.2 3.6-12.5 4.8-18.8.8-4.4 2.4-9.8.6-14.2-1.7-3.9-5.7-5.3-9.6-4.3-9.8 2.4-19.4 10.4-26.2 17.5-3.8 3.6 1.9 9.4 5.4 5.6zm41.9-1.4l17.1-15.6c-2.3-1-4.6-1.9-6.9-2.9.2 10.7.8 21.4.6 32.1-.1 4.7-3 7.2-7.7 5.4-4.4-1.7-7-6.6-9.3-10.4-2.6-4.5-9.6-.4-7 4.1 5.3 9 16.2 20.9 27.4 12.3 5.4-4.1 4.6-11 4.5-17-.2-8.8-.3-17.6-.5-26.4-.1-3.6-4.3-5.2-6.9-2.9l-17.1 15.6c-3.8 3.5 1.9 9.2 5.8 5.7z"/><path d="M185.8 754.4c-.8 2.7-4.5 3.7-6.7 5-2.1 1.3-4.2 2.8-5.5 4.9-3.8 6.1-.4 14.6 1.5 20.8 4.8 15.2 12.6 29.4 22.8 41.6 21.3 25.4 53.1 40.3 86.1 41.7 5.2.2 5.2-7.9 0-8.1-30.4-1.3-59.4-15-79.4-38.1-9.5-11-16.8-23.9-21.3-37.7-1.1-3.5-2.3-7.2-3-10.8-.6-3.5-.2-5.4 2.8-7.3 4.4-2.7 8.9-4.5 10.4-9.9 1.5-4.9-6.3-7.1-7.7-2.1z"/><path d="M283 824.5c-8.8 20.5 3.3 39.5 15.5 55.5 3.1 4.1 10.1.1 7-4.1-9.9-13-22.9-30.1-15.5-47.4 2-4.7-5-8.8-7-4zm159.2 67.9c5.2 0 5.2-8.1 0-8.1s-5.2 8.1 0 8.1z"/><path d="M439.1 889.2c5 18.1 30.1 18.1 35.3.2 1.5-5-6.3-7.1-7.8-2.2-3 10.3-16.9 10.1-19.8-.2-1.3-4.9-9-2.8-7.7 2.2z"/><path d="M429.8 895.8c2.1 6.7 4.8 13.2 8.3 19.3 2.6 4.6 5.9 11.3 11.9 11.7 5.6.3 9.3-4.9 12.2-8.9 4-5.5 6.9-11.6 9.2-18 1.7-4.9-6.1-7-7.8-2.2a60.6 60.6 0 0 1-6 12.6c-1.4 2.2-4.7 8.7-7.6 8.2-2.1-.4-5.6-8.7-6.6-10.7-2.4-4.5-4.2-9.3-5.8-14.2-1.6-4.9-9.4-2.8-7.8 2.2zm64.3-4c3.3 5.9 7.2 13.1 12.4 17.7 4.5 3.9 9.7 2.2 13.6-1.5 8.8-8.2 11.8-21.4 8.3-32.7-1.5-5-9.3-2.8-7.8 2.2 2.2 7.2 1.3 15-3 21.2-.8 1.2-2.3 3.5-3.7 4.1-3 1.2-4.1-1.8-5.5-3.7-2.7-3.6-5-7.4-7.2-11.4-2.7-4.5-9.7-.4-7.1 4.1zm51.2-30c4.5 8.6 8.9 17.3 13.4 25.9 1 1.8 3.8 2.6 5.5 1.5 11.8-8 20.6-19 25.9-32.3 1.9-4.8-5.9-6.9-7.8-2.2-4.5 11.2-12.2 20.7-22.2 27.5 1.8.5 3.7 1 5.5 1.5-4.5-8.6-8.9-17.3-13.4-25.9-2.3-4.7-9.3-.6-6.9 4zm98-75.6c-3.5-9.3-13.2-13.2-22.6-11.6-11.8 2-18.7 13-22 23.6-3.9 12.4-6 27.4-.4 39.5 5 10.9 15.8 17.7 27.5 18.9 5.2.5 5.1-7.6 0-8.1-8.4-.8-16.1-6-19.9-13.6-4.6-9.2-2.9-20.6-.6-30.2 1.9-7.8 5.3-17.3 13-21 5.6-2.7 14.8-2 17.3 4.6 1.7 4.9 9.5 2.8 7.7-2.1z"/><path d="M602 849.6c1.1 10.5 3.4 22.5 14.6 26.6 9.8 3.6 20.2-4.1 18.8-14.6-.7-5.1-8.8-5.2-8.1 0 1 7.6-6.7 9.4-11.6 4.7-4.3-4.2-5-11-5.5-16.6-.6-5.2-8.7-5.3-8.2-.1zm72.6-12.2c5.3-12.7 8.8-29.1 3.9-42.5-3.9-10.7-15.4-19.6-27-14.9-11.8 4.8-19.1 20.6-22.5 32-3.3 11.3-4.7 25.5 1.6 36.1 8.5 14.2 25 11 37.9 5.7 4.8-1.9 2.7-9.8-2.2-7.8-5.9 2.4-12.6 5.3-19.2 4.4-6.4-.8-10.2-5.7-11.8-11.7-3.2-11.8.5-25.7 6.1-36.1 2.9-5.4 6.8-12.3 12.6-14.9 6-2.7 12.3 1.5 15.3 6.7 6.8 11.9 2.2 29.2-2.7 40.9-1.8 4.7 6 6.8 8 2.1z"/><path d="M634.6 854.8c-3.5 9.6 2.8 21.1 12.9 23.2 11.1 2.2 21.5-8.4 20.2-19.3-.6-5.1-8.7-5.2-8.1 0 .7 6-4.4 13.1-11.2 11.2-5.5-1.5-7.9-8-6.1-13 1.8-4.9-6-7-7.7-2.1zm73.7-1.6c7.5-12.1 12.5-25.6 14.4-39.7 1-6.9 1.3-14 .7-20.9-.5-5.7-1.5-11.7-6.3-15.3-9.5-7.3-22.2-.7-28.6 7.4-8 10.1-10.8 23.9-13.2 36.2-1.8 9.1-8.1 31.4 6.1 34.2 5.1 1 7.2-6.8 2.2-7.8-5.2-1-2.6-11.7-2.1-15 1.1-7.1 2.5-14.2 4.3-21.2 2.6-10.1 6.4-23.7 17.2-27.9 6.7-2.6 11.2.7 12.1 7.6.8 6.6.6 13.5-.2 20-1.6 13.7-6.4 26.8-13.7 38.5-2.6 4.3 4.4 8.4 7.1 3.9z"/><path d="M677.6 850c3.7 7.5 13.2 11.3 21 8.3 4.8-1.9 2.7-9.7-2.2-7.8-4.7 1.8-9.6 0-11.8-4.5-2.3-4.7-9.3-.6-7 4z"/><path d="M669.9 861.4c-.3 7.9 1.2 15.2 4.6 22.3.9 2 3.8 2.5 5.5 1.5 8.5-4.9 16.3-10.8 23.3-17.7 3.7-3.7-2-9.4-5.7-5.7-6.5 6.5-13.7 11.9-21.6 16.5 1.8.5 3.7 1 5.5 1.5-2.7-5.8-3.8-11.9-3.5-18.2.2-5.4-7.9-5.4-8.1-.2zm-186.3 13.4c-8 5.2-2.2 16.9 6.5 16.6 5.5-.2 9.9-4.2 13.9-7.6 5.8-5 11.5-10 17.3-15 3.9-3.4-1.8-9.1-5.7-5.7-5 4.4-10.1 8.7-15.1 13.1-2.3 2-4.6 4.4-7.3 5.9-1.3.7-3 1.6-4.5.9-.9-.4-.3-1.7-.9-1.2 4.2-2.8.2-9.8-4.2-7zM257.7 671c-5 5-5.5 13.8-.3 18.8s13.8 4.7 18.8-.3c3.7-3.7-2-9.4-5.7-5.7-1.9 1.9-5.4 2.3-7.4.3-2-2-1.6-5.5.3-7.4 3.7-3.7-2-9.4-5.7-5.7zm42.1 9c-1.8 8.3 10.2 13.4 14.8 6.2 1.2-1.8.4-4.5-1.5-5.5-2-1.1-4.4-.4-5.5 1.5l.1-.1c.5-.3.5-.4.1-.2.1-.1.3-.1.5-.2-.4.1-.4.1.3 0h-.4c-.3 0-.2 0 .4.1-.1 0-1.2-.3-.6-.1.6.2-.4-.3-.6-.3.6.4.1.2 0-.1.3.5.4.5.2.1.1.2.1.3.2.5-.1-.4-.1-.3 0 .3v.2c.5-2.1-.6-4.4-2.8-5-2.3-.8-4.8.4-5.2 2.6zm-29 47.5c6.4 12.1 24 12.5 31.9 1.9 3.1-4.2-3.9-8.2-7-4.1-4.5 6-14.7 4.3-17.9-1.9-2.4-4.6-9.4-.5-7 4.1zm423-99.9c21.7-5 44-6 66.1-3 5.1.7 5.1-7.4 0-8.1-22.8-3-45.8-1.9-68.2 3.3-5.1 1.2-3 9 2.1 7.8z"/><path d="M747.7 643.2c14.7-12 33.7-18 52.6-16.7 2.3.2 4.6.4 6.9.8 2.7.5 3.1.6 3.4 3.5.5 5 .5 10.1.1 15.1-.8 10.9-3.8 21.5-8.4 31.3-2.2 4.7 4.8 8.8 7 4.1 5.4-11.5 8.8-23.6 9.6-36.3.4-5.9.7-12.8-.7-18.6-1.4-5.6-6.1-6.6-11.2-7.3-23.3-3.4-46.8 3.5-65 18.4-4 3.3 1.7 9 5.7 5.7z"/><path d="M808.3 660.7c19.8 8.3 37.1 21.2 51 37.5 3.4 4 9.1-1.8 5.7-5.7-14.9-17.4-33.5-30.7-54.6-39.5-4.7-2.1-6.8 5.7-2.1 7.7z"/><path d="M833.5 714c14.3-6.6 30.8-7.5 45.8-2.4 1 .3 5.4 1.4 5.5 2.3-.1-.6-2.8 3.5-2.8 3.6-1.7 3.3-3.5 6.4-5.5 9.5-4.3 6.6-9.2 12.7-14.7 18.4-3.6 3.8 2.1 9.5 5.7 5.7 6.9-7.2 13.1-15.1 18.2-23.6 4-6.7 11.3-16.8 1.5-21.5-18-8.6-39.9-7.3-57.7.9-4.8 2.3-.7 9.2 4 7.1z"/><path d="M878.5 739.3c16.8 21.1 18.4 51.4 3 73.7-3 4.3 4 8.3 7 4.1 17.6-25.5 14.7-59.7-4.3-83.5-3.2-4.1-8.9 1.6-5.7 5.7z"/><path d="M864.5 806.6c13.1 1.5 22.4 17.7 26.3 29 3 8.7-8.7 13-15.4 13.8-7.7 1-15-1.2-21.2-5.9-4.1-3.2-8.2 3.9-4.1 7 8 6.1 18.4 8.4 28.3 6.6 8.7-1.6 20.8-7.5 21.2-17.7.2-5-2.5-9.8-4.7-14.1-2.2-4.4-4.7-8.8-7.8-12.7-5.8-7.6-13-13-22.6-14.1-5.2-.5-5.1 7.5 0 8.1zm-19 .3c-4.6 9.1-6.7 19-5.8 29.2.4 5.2 8.5 5.2 8.1 0-.7-8.8.8-17.2 4.7-25.1 2.3-4.6-4.7-8.7-7-4.1zM826 733.2c-.9 17.5 17.8 28.4 32.8 19.6 4.5-2.7.4-9.7-4.1-7-9.9 5.9-21.2-1.2-20.6-12.6.2-5.2-7.8-5.2-8.1 0zm-70.9-68.6c-.2 13 8.9 25.6 21.8 28.4 12.8 2.8 26.6-4.4 31.9-16.3 2.1-4.7-4.9-8.8-7-4.1-3.8 8.6-13.1 14.6-22.7 12.6-9.5-2-16-11.2-15.8-20.6 0-5.2-8.1-5.2-8.2 0zm-55.1 76c9.4-2.6 19-5.1 28.9-4.3 7.9.6 15.3 3.8 21.9 8.1 13.1 8.6 23.6 21.8 31.3 35.3 15.7 27.3 18.6 63.7-3.1 88.9-3.4 3.9 2.3 9.7 5.7 5.7 18.1-21 22.1-50.4 14-76.5-4.2-13.7-11.3-26.2-20.1-37.5-8.3-10.6-18.4-20.8-30.7-26.8-16.3-8-33.3-5.5-50.2-.7-4.9 1.4-2.7 9.2 2.3 7.8z"/><path d="M813.5 821.2c-1.3 18.3-15.4 31.8-28.4 43.2-6.7 5.8-13.7 11.5-19.5 18.2-4.7 5.4-7.8 12.9-2.1 18.8 5 5.3 13.6 8.5 20.4 10.7 7.6 2.5 15.7 3.9 23.8 4 15.6.3 30.4-4 42.8-13.5 13.7-10.4 25.1-24.7 32.4-40.2 2.2-4.7-4.8-8.8-7-4.1-11.6 24.5-33.3 47.6-61.7 49.6-14.5 1-30.7-2.1-42.8-10.4-5-3.5-1.5-7.7 1.7-11 2.7-2.8 5.5-5.5 8.4-8 6-5.4 12.2-10.5 18-16.1 11.5-11.1 21-24.7 22.2-41.1.3-5.3-7.8-5.3-8.2-.1zM367.9 269.3c-6.4 1.3-11.3 8-10.5 14.5.8 6.5 7.3 11.8 13.8 11.3s12-7 11.5-13.5c-.8-9.3-11.6-14.5-20.9-14.3m127.7-9c-4.6 5.2-9.5 10.8-10.5 17.7s3.8 15.1 10.7 14.9c4.6-.1 8.4-3.8 10.4-7.9 5.5-11.7-3.2-27.5-16-29.1"/><path d="M366.4 272.1c3.2-.6 6.3 3.1 5.3 6.1-1 3.1-5.7 4.1-7.9 1.7s-.8-7 2.4-7.8m121.1-8.5c-3.5 3.1-.5 10.1 4.1 9.7 3.8-2.7 2.8-9.7-1.6-11.3" fill="#fff"/></svg>