<?xml version="1.0" encoding="utf-8"?>
<!-- Generator: Adobe Illustrator 23.0.2, SVG Export Plug-In . SVG Version: 6.00 Build 0)  -->
<svg version="1.1" id="Layer_1" xmlns="http://www.w3.org/2000/svg" xmlns:xlink="http://www.w3.org/1999/xlink" x="0px" y="0px"
	 viewBox="0 0 1000 1000" style="enable-background:new 0 0 1000 1000;" xml:space="preserve">
<style type="text/css">
	.st0{opacity:0.7;fill:#BFC9C9;}
	.st1{opacity:0.7;fill:#FFFF00;}
</style>
<g>
	<path class="st0" d="M412.5,629.1c-10-11.7-5.9-30,2.2-43.1c-22.5-2.5-39.1-28.6-31.7-50.1s36.5-31.9,55.8-20
		c-10.7-12.3-10.9-30.7-7.2-46.5c4.7-20,15.8-39.7,34.3-48.8s44.5-3.3,53.1,15.3c11-20.5,37.7-31,59.7-23.5
		c22,7.5,36.7,32.2,32.9,55.1c18.9,0.4,36.6,15.2,40.2,33.8c3.6,18.6-7.2,39-24.7,46.4c18.8,20,20.9,54.4,2.8,75.2
		c-18,20.7-54.5,22.5-73,2.3c-9.5,19.8-22.1,40-42.4,48.3C481,687.1,462.8,659,462.6,631C446.9,633.1,426.2,645.2,412.5,629.1z"/>
	<path class="st1" d="M374.3,484.3c-6.4,3-13.2,5.3-19,9.5s-10.2,11-9.1,18s9.7,12.5,15.7,8.7c3.1-2,4.6-5.6,6.3-8.9
		c8.5-16.6,26.1-28.2,44.7-29.5c-2.5-30.2,10.9-61.3,34.5-80.3c4-3.3,8.5-6.2,13.6-7.2c14.6-2.6,31.7,11.5,42.9,1.8
		c2.1-1.8,3.5-4.3,5.8-5.8c10.2-6.8,25.7,9.9,35.1,1.9c-20.3-16-27.3-46.7-15.8-69.9c-14.6,7.7-15,28.3-24.1,42.1
		c-8.3,12.6-24,18.9-39,19.5c-14.8,0.5-29.5-3.6-43.4-8c-8,17.1,0.4,37.1-4.5,55.8C412,454.2,395,474.4,374.3,484.3z"/>
	<path class="st1" d="M543.8,714.9c-4.5-17.9,6.7-36.7,22-46.9s34-13.7,52.2-16.9c23-4.1,46-8.2,69-12.3
		c-24-43.4-13.6-102.8,23.6-135.6c-16.4-2.8-30-17.5-31.4-34.1c-13.7,0.5-25.2-12.3-27.1-25.9c-1.9-13.6,3.9-27.1,11.6-38.4
		c2.1-3.1,4.5-6.4,4.5-10.1c-0.1-4.9-4.5-8.9-9.1-10.5c-17.5-6.3-35.7,12.9-35.8,31.5s11.4,35,22.7,49.9
		c11.2,14.8,23.2,30.8,24.1,49.4c0.5,9.8-2.2,19.5-4.9,28.9c-4.4,15.6-8.8,31.2-13.3,46.8c-5.1,18-10.7,36.9-23.7,50.4
		c-13,13.5-36,19.5-50.7,7.9c-3.3-2.6-6.1-5.9-10.1-7.1c-9.8-2.9-17.3,8.1-24,15.8c-11.9,13.8-31.9,18.1-49.2,14.2
		c-21.8-4.9-22.3-21.8-37-30.9c-29.9-18.5-23.8,31.7-40.1,55.2C443.8,679.9,532.3,669.5,543.8,714.9z"/>
	<g>
		<path d="M521.2,419.4c-14.8-23.1-47.9-25.5-69.5-10.8C429,424,415.4,455,418.8,482.2c1.7,13.4,8.1,26.8,21.2,32.3
			c4.5,1.9,8.4-4.7,3.9-6.6c-21.5-9.2-20-38.5-13.7-57c7.8-23,26.7-44.5,52.7-44c12.5,0.3,24.9,5.6,31.7,16.4
			C517.2,427.4,523.9,423.6,521.2,419.4L521.2,419.4z"/>
	</g>
	<g>
		<path d="M414.2,490.8c-28-3.5-45.1,28.8-47.4,52.3c-1.3,13.4,2,28,12.1,37.4c8.8,8.2,21.6,12.3,33.1,7.9c4.6-1.7,2.6-9.2-2-7.4
			c-9.6,3.7-19.9,0-26.9-7.2c-8.2-8.5-10-21.1-8.4-32.4c2.6-19.3,16.5-45.8,39.5-43C419.1,499.1,419,491.4,414.2,490.8L414.2,490.8z
			"/>
	</g>
	<g>
		<path d="M525.7,412.2c20.9-14.5,51.5-13.7,70.8,3.6c18.5,16.5,24.1,45.4,13.3,67.7c-2.2,4.4,4.5,8.3,6.6,3.9
			c9.7-19.9,8.4-43.9-3-62.9c-11.6-19.4-33.1-30.4-55.5-30.1c-12.8,0.1-25.5,3.9-36.1,11.2C517.7,408.4,521.6,415.1,525.7,412.2
			L525.7,412.2z"/>
	</g>
	<g>
		<path d="M619.4,460.9c21.8-1.6,43.7,14.7,46.9,36.7c3.1,21.6-12.6,43.3-33.5,48.3c1,2.3,2,4.7,3,7c4.5-3.2,10.2-1.7,14.1,1.9
			c4.9,4.5,5.7,11.9,5.5,18.1c-0.4,12.2-3.8,25.2-9.5,36c-5.6,10.7-14.2,20-25.6,24.5c-11.2,4.4-23.8,4.3-34-2.3
			c-4.2-2.7-8,4-3.9,6.6c20.1,13.1,47.1,4.9,61.8-12.5C652,616,657,604.7,660,593c2.9-11.5,5.3-25.1,0.3-36.3
			c-4.5-10.4-18.2-17.5-28.4-10.3c-3.5,2.4-1.4,8.1,3,7c19.1-4.5,34.3-20.9,38.3-40c4.2-20-5-39.6-21.5-51.1
			c-9.4-6.5-20.9-9.9-32.3-9C614.5,453.6,614.5,461.3,619.4,460.9L619.4,460.9z"/>
	</g>
	<g>
		<path d="M485.7,608.2c-20.3,3.7-30.2,28.5-22.1,46.3c9.5,21,36.3,28,56.8,20.3c13-4.8,23.5-14,31.7-25c3-4-3.7-7.8-6.6-3.9
			c-14.5,19.5-41.3,32.7-63.8,17.9c-9.1-6-14.7-16.2-12.9-27.2c1.7-10.2,8.7-19.2,19.1-21.1C492.6,614.7,490.6,607.3,485.7,608.2
			L485.7,608.2z"/>
	</g>
	<g>
		<path d="M411.4,622.8c1.7,10.7,12,17.3,22.1,18.2c13,1.3,24.7-6.8,34.7-14c4-2.9,0.1-9.5-3.9-6.6c-8,5.8-17.1,12.7-27.4,13.1
			c-8.1,0.3-16.8-4.2-18.1-12.7C418,615.9,410.6,618,411.4,622.8L411.4,622.8z"/>
	</g>
	<g>
		<path d="M378.5,320.5c17.5,25.8,29.8,56.5,28.4,88.1c-1.2,27.7-14.7,54.3-37.9,70.1c-12.3,8.4-26.6,13-41.5,12.3
			c-5-0.2-4.9,7.5,0,7.7c29,1.3,55.4-15.9,71.1-39.5c17.9-26.9,19.5-60.5,11-91c-5.1-18.4-13.8-35.8-24.5-51.6
			C382.4,312.6,375.7,316.4,378.5,320.5L378.5,320.5z"/>
	</g>
	<g>
		<path d="M304.4,500.6c19.2,4.1,36.1,15.7,46.5,32.4c2.6,4.2,9.3,0.3,6.6-3.9c-11.4-18.3-30-31.5-51.1-36
			C301.6,492.1,299.5,499.5,304.4,500.6L304.4,500.6z"/>
	</g>
	<g>
		<path d="M388.1,328.8c13,24.6,30.5,50.8,59.1,57.8c12.4,3.1,26.1,2.4,37.5-3.7c12.2-6.6,19.6-19,23.1-32c4.8-18.3,2.2-37.3,2.9-56
			c0.2-5-7.5-4.9-7.7,0c-0.9,25.4,6,61.3-18,78.8c-20.8,15.3-49.1,4.3-65.4-12.2c-10.4-10.6-18-23.5-24.9-36.5
			C392.5,320.6,385.8,324.5,388.1,328.8L388.1,328.8z"/>
	</g>
	<g>
		<path d="M531.5,300.6c-5.2,19.2-10.9,40.1-5.3,60c4.3,15.4,15.2,29.4,31.1,33.5c4.8,1.2,6.8-6.2,2-7.4
			c-14.2-3.7-23.2-16.8-26.4-30.5c-4.1-17.8,1.2-36.4,5.9-53.5C540.2,297.8,532.8,295.8,531.5,300.6L531.5,300.6z"/>
	</g>
	<g>
		<path d="M590.5,412.7c11,3.8,22.6-4,31.3-10c9.5-6.6,18-14.6,25.2-23.8c3-3.9-2.4-9.3-5.4-5.4c-6.2,7.9-13.2,15-21.3,20.9
			c-7.1,5.2-18.3,14.1-27.6,10.9C587.9,403.7,585.9,411.1,590.5,412.7L590.5,412.7z"/>
	</g>
	<g>
		<path d="M724.2,358.1c-23.4,11.8-46.5,29.3-60.8,51.6c-6.5,10.1-10.6,21.9-9.2,34c1.3,10.8,6.2,20.8,13.6,28.7
			c8.5,9.1,20,14.9,32.4,15.6c4.9,0.3,4.9-7.4,0-7.7c-25.9-1.5-44.6-29.6-36.5-54c4.7-14.1,15.7-25.8,26.4-35.6
			c11.3-10.4,24.2-19.1,37.9-26C732.5,362.5,728.6,355.9,724.2,358.1L724.2,358.1z"/>
	</g>
	<g>
		<path d="M716.5,503.3c-13.6-2.5-27,5.2-31.6,18.3c-1.6,4.7,5.8,6.7,7.4,2c3.1-8.9,12.8-14.6,22.1-12.9
			C719.2,511.6,721.3,504.2,716.5,503.3L716.5,503.3z"/>
	</g>
	<g>
		<path d="M373,592c21.9,14,37.2,38.2,39.9,64.2c2.7,26.9-7.7,54.1-27.3,72.6c-3.6,3.4,1.8,8.8,5.4,5.4c33.8-31.9,39.6-85,12.8-123
			c-7.2-10.3-16.3-19-26.9-25.8C372.7,582.7,368.9,589.3,373,592L373,592z"/>
	</g>
	<g>
		<path d="M433.2,711.9c8.6-20,35.4-21.4,54.1-22.4c12.3-0.6,27-0.9,37.1,7.4c7.8,6.4,12.7,18,6.7,27.1c-2.7,4.2,3.9,8,6.6,3.9
			c5.3-8,4.5-18,0.2-26.3c-5-9.6-14.1-15.6-24.5-18.2c-11.5-2.8-23.7-2-35.4-1c-9.7,0.8-19.5,2.1-28.6,5.6
			c-9.9,3.8-18.6,10.1-22.9,20C424.6,712.5,431.3,716.4,433.2,711.9L433.2,711.9z"/>
	</g>
	<g>
		<path d="M570.8,695.5c-8.1-10.1,2.2-22.6,10.8-27.9c10.7-6.6,23-11,35-14.5c25-7.3,51.2-9.2,77.1-5.9c4.9,0.6,4.8-7.1,0-7.7
			c-29.9-3.9-60.8-0.7-89.2,9.4c-12.5,4.4-27.1,9.7-36.3,19.8c-8.1,9-10.6,22.4-2.7,32.2C568.5,704.8,573.9,699.3,570.8,695.5
			L570.8,695.5z"/>
	</g>
	<g>
		<path d="M436.2,233.4c2.1,25.9,4.3,51.9,6.4,77.8c0.4,4.9,8.1,4.9,7.7,0c-2.1-26-4.3-51.9-6.4-77.8
			C443.5,228.5,435.8,228.4,436.2,233.4L436.2,233.4z"/>
	</g>
	<g>
		<path d="M261.1,686.7c30.4-15.9,60.9-31.8,91.3-47.7c4.4-2.3,0.5-8.9-3.9-6.6c-30.4,15.9-60.9,31.8-91.3,47.7
			C252.8,682.3,256.7,689,261.1,686.7L261.1,686.7z"/>
	</g>
	<g>
		<path d="M498.1,545.9c-10.5-5.1-13.8-20.7-6.1-29.7c10.9-12.9,31.2-3.7,42.1,4.1c4,2.9,7.9-3.8,3.9-6.6
			c-14.5-10.4-39.6-18.7-52.6-1.4c-9.5,12.5-5.4,33.2,8.9,40.3C498.7,554.7,502.6,548.1,498.1,545.9L498.1,545.9z"/>
	</g>
	<g>
		<path d="M531.7,503.6c2.5-10.9,14.7-18.9,25.8-15.3c11.1,3.6,16.2,17.1,12,27.5c-1.8,4.6,5.6,6.6,7.4,2c5.8-14.3-2.6-32.3-17.4-37
			c-14.9-4.7-31.8,5.8-35.2,20.7C523.2,506.4,530.6,508.4,531.7,503.6L531.7,503.6z"/>
	</g>
	<g>
		<path d="M586.1,518c5.6-3.5,14-1.9,17.2,4.1c3.4,6.4-0.8,14.8-7.4,16.8c-4.7,1.5-2.7,8.9,2,7.4c11-3.4,17.6-16.5,12.5-27.2
			c-4.9-10.2-18.8-13.7-28.2-7.8C578,514,581.9,520.6,586.1,518L586.1,518z"/>
	</g>
	<g>
		<path d="M544.7,578.5c0.6-3,5.9-3.1,8.3-3.4c3.7-0.4,7.9-0.8,11.5,0.5c2.7,1,4.7,2.7,4.9,5.7c0.1,1.9-0.3,4.8-2.7,4.8
			c-4.9,0.1-5,7.8,0,7.7c11.7-0.3,13.3-16.7,5.2-22.8c-5.8-4.4-13.4-4.3-20.3-3.4c-5.8,0.7-13,2.2-14.4,8.9
			C536.3,581.3,543.7,583.4,544.7,578.5L544.7,578.5z"/>
	</g>
</g>
</svg>
