<svg xmlns="http://www.w3.org/2000/svg" width="1000" height="1000"><path d="M412.5 629.1c-10-11.7-5.9-30 2.2-43.1-22.5-2.5-39.1-28.6-31.7-50.1s36.5-31.9 55.8-20c-10.7-12.3-10.9-30.7-7.2-46.5 4.7-20 15.8-39.7 34.3-48.8s44.5-3.3 53.1 15.3c11-20.5 37.7-31 59.7-23.5s36.7 32.2 32.9 55.1c18.9.4 36.6 15.2 40.2 33.8 3.6 18.6-7.2 39-24.7 46.4 18.8 20 20.9 54.4 2.8 75.2-18 20.7-54.5 22.5-73 2.3-9.5 19.8-22.1 40-42.4 48.3-33.5 13.6-51.7-14.5-51.9-42.5-15.7 2.1-36.4 14.2-50.1-1.9z" opacity=".7" fill="#bfc9c9"/><path d="M374.3 484.3c-6.4 3-13.2 5.3-19 9.5s-10.2 11-9.1 18 9.7 12.5 15.7 8.7c3.1-2 4.6-5.6 6.3-8.9 8.5-16.6 26.1-28.2 44.7-29.5-2.5-30.2 10.9-61.3 34.5-80.3 4-3.3 8.5-6.2 13.6-7.2 14.6-2.6 31.7 11.5 42.9 1.8 2.1-1.8 3.5-4.3 5.8-5.8 10.2-6.8 25.7 9.9 35.1 1.9-20.3-16-27.3-46.7-15.8-69.9-14.6 7.7-15 28.3-24.1 42.1-8.3 12.6-24 18.9-39 19.5-14.8.5-29.5-3.6-43.4-8-8 17.1.4 37.1-4.5 55.8-6 22.2-23 42.4-43.7 52.3zm169.5 230.6c-4.5-17.9 6.7-36.7 22-46.9s34-13.7 52.2-16.9l69-12.3c-24-43.4-13.6-102.8 23.6-135.6-16.4-2.8-30-17.5-31.4-34.1-13.7.5-25.2-12.3-27.1-25.9-1.9-13.6 3.9-27.1 11.6-38.4 2.1-3.1 4.5-6.4 4.5-10.1-.1-4.9-4.5-8.9-9.1-10.5-17.5-6.3-35.7 12.9-35.8 31.5s11.4 35 22.7 49.9c11.2 14.8 23.2 30.8 24.1 49.4.5 9.8-2.2 19.5-4.9 28.9-4.4 15.6-8.8 31.2-13.3 46.8-5.1 18-10.7 36.9-23.7 50.4s-36 19.5-50.7 7.9c-3.3-2.6-6.1-5.9-10.1-7.1-9.8-2.9-17.3 8.1-24 15.8-11.9 13.8-31.9 18.1-49.2 14.2-21.8-4.9-22.3-21.8-37-30.9-29.9-18.5-23.8 31.7-40.1 55.2 26.7-16.3 115.2-26.7 126.7 18.7z" opacity=".7" fill="#ff0"/><path d="M521.2 419.4c-14.8-23.1-47.9-25.5-69.5-10.8-22.7 15.4-36.3 46.4-32.9 73.6 1.7 13.4 8.1 26.8 21.2 32.3 4.5 1.9 8.4-4.7 3.9-6.6-21.5-9.2-20-38.5-13.7-57 7.8-23 26.7-44.5 52.7-44 12.5.3 24.9 5.6 31.7 16.4 2.6 4.1 9.3.3 6.6-3.9zm-107 71.4c-28-3.5-45.1 28.8-47.4 52.3-1.3 13.4 2 28 12.1 37.4 8.8 8.2 21.6 12.3 33.1 7.9 4.6-1.7 2.6-9.2-2-7.4-9.6 3.7-19.9 0-26.9-7.2-8.2-8.5-10-21.1-8.4-32.4 2.6-19.3 16.5-45.8 39.5-43 4.9.7 4.8-7 0-7.6zm111.5-78.6c20.9-14.5 51.5-13.7 70.8 3.6 18.5 16.5 24.1 45.4 13.3 67.7-2.2 4.4 4.5 8.3 6.6 3.9 9.7-19.9 8.4-43.9-3-62.9-11.6-19.4-33.1-30.4-55.5-30.1-12.8.1-25.5 3.9-36.1 11.2-4.1 2.8-.2 9.5 3.9 6.6z"/><path d="M619.4 460.9c21.8-1.6 43.7 14.7 46.9 36.7 3.1 21.6-12.6 43.3-33.5 48.3 1 2.3 2 4.7 3 7 4.5-3.2 10.2-1.7 14.1 1.9 4.9 4.5 5.7 11.9 5.5 18.1-.4 12.2-3.8 25.2-9.5 36-5.6 10.7-14.2 20-25.6 24.5-11.2 4.4-23.8 4.3-34-2.3-4.2-2.7-8 4-3.9 6.6 20.1 13.1 47.1 4.9 61.8-12.5C652 616 657 604.7 660 593c2.9-11.5 5.3-25.1.3-36.3-4.5-10.4-18.2-17.5-28.4-10.3-3.5 2.4-1.4 8.1 3 7 19.1-4.5 34.3-20.9 38.3-40 4.2-20-5-39.6-21.5-51.1-9.4-6.5-20.9-9.9-32.3-9-4.9.3-4.9 8 0 7.6zM485.7 608.2c-20.3 3.7-30.2 28.5-22.1 46.3 9.5 21 36.3 28 56.8 20.3 13-4.8 23.5-14 31.7-25 3-4-3.7-7.8-6.6-3.9-14.5 19.5-41.3 32.7-63.8 17.9-9.1-6-14.7-16.2-12.9-27.2 1.7-10.2 8.7-19.2 19.1-21.1 4.7-.8 2.7-8.2-2.2-7.3z"/><path d="M411.4 622.8c1.7 10.7 12 17.3 22.1 18.2 13 1.3 24.7-6.8 34.7-14 4-2.9.1-9.5-3.9-6.6-8 5.8-17.1 12.7-27.4 13.1-8.1.3-16.8-4.2-18.1-12.7-.8-4.9-8.2-2.8-7.4 2zm-32.9-302.3c17.5 25.8 29.8 56.5 28.4 88.1-1.2 27.7-14.7 54.3-37.9 70.1-12.3 8.4-26.6 13-41.5 12.3-5-.2-4.9 7.5 0 7.7 29 1.3 55.4-15.9 71.1-39.5 17.9-26.9 19.5-60.5 11-91-5.1-18.4-13.8-35.8-24.5-51.6-2.7-4-9.4-.2-6.6 3.9zm-74.1 180.1c19.2 4.1 36.1 15.7 46.5 32.4 2.6 4.2 9.3.3 6.6-3.9-11.4-18.3-30-31.5-51.1-36-4.8-1-6.9 6.4-2 7.5z"/><path d="M388.1 328.8c13 24.6 30.5 50.8 59.1 57.8 12.4 3.1 26.1 2.4 37.5-3.7 12.2-6.6 19.6-19 23.1-32 4.8-18.3 2.2-37.3 2.9-56 .2-5-7.5-4.9-7.7 0-.9 25.4 6 61.3-18 78.8-20.8 15.3-49.1 4.3-65.4-12.2-10.4-10.6-18-23.5-24.9-36.5-2.2-4.4-8.9-.5-6.6 3.8zm143.4-28.2c-5.2 19.2-10.9 40.1-5.3 60 4.3 15.4 15.2 29.4 31.1 33.5 4.8 1.2 6.8-6.2 2-7.4-14.2-3.7-23.2-16.8-26.4-30.5-4.1-17.8 1.2-36.4 5.9-53.5 1.4-4.9-6-6.9-7.3-2.1zm59 112.1c11 3.8 22.6-4 31.3-10 9.5-6.6 18-14.6 25.2-23.8 3-3.9-2.4-9.3-5.4-5.4-6.2 7.9-13.2 15-21.3 20.9-7.1 5.2-18.3 14.1-27.6 10.9-4.8-1.6-6.8 5.8-2.2 7.4zm133.7-54.6c-23.4 11.8-46.5 29.3-60.8 51.6-6.5 10.1-10.6 21.9-9.2 34 1.3 10.8 6.2 20.8 13.6 28.7 8.5 9.1 20 14.9 32.4 15.6 4.9.3 4.9-7.4 0-7.7-25.9-1.5-44.6-29.6-36.5-54 4.7-14.1 15.7-25.8 26.4-35.6 11.3-10.4 24.2-19.1 37.9-26 4.5-2.2.6-8.8-3.8-6.6zm-7.7 145.2c-13.6-2.5-27 5.2-31.6 18.3-1.6 4.7 5.8 6.7 7.4 2 3.1-8.9 12.8-14.6 22.1-12.9 4.8.9 6.9-6.5 2.1-7.4zM373 592c21.9 14 37.2 38.2 39.9 64.2 2.7 26.9-7.7 54.1-27.3 72.6-3.6 3.4 1.8 8.8 5.4 5.4 33.8-31.9 39.6-85 12.8-123-7.2-10.3-16.3-19-26.9-25.8-4.2-2.7-8 3.9-3.9 6.6zm60.2 119.9c8.6-20 35.4-21.4 54.1-22.4 12.3-.6 27-.9 37.1 7.4 7.8 6.4 12.7 18 6.7 27.1-2.7 4.2 3.9 8 6.6 3.9 5.3-8 4.5-18 .2-26.3-5-9.6-14.1-15.6-24.5-18.2-11.5-2.8-23.7-2-35.4-1-9.7.8-19.5 2.1-28.6 5.6-9.9 3.8-18.6 10.1-22.9 20-1.9 4.5 4.8 8.4 6.7 3.9zm137.6-16.4c-8.1-10.1 2.2-22.6 10.8-27.9 10.7-6.6 23-11 35-14.5 25-7.3 51.2-9.2 77.1-5.9 4.9.6 4.8-7.1 0-7.7-29.9-3.9-60.8-.7-89.2 9.4-12.5 4.4-27.1 9.7-36.3 19.8-8.1 9-10.6 22.4-2.7 32.2 3 3.9 8.4-1.6 5.3-5.4z"/><path d="M436.2 233.4c2.1 25.9 4.3 51.9 6.4 77.8.4 4.9 8.1 4.9 7.7 0-2.1-26-4.3-51.9-6.4-77.8-.4-4.9-8.1-5-7.7 0zM261.1 686.7c30.4-15.9 60.9-31.8 91.3-47.7 4.4-2.3.5-8.9-3.9-6.6-30.4 15.9-60.9 31.8-91.3 47.7-4.4 2.2-.5 8.9 3.9 6.6zm237-140.8c-10.5-5.1-13.8-20.7-6.1-29.7 10.9-12.9 31.2-3.7 42.1 4.1 4 2.9 7.9-3.8 3.9-6.6-14.5-10.4-39.6-18.7-52.6-1.4-9.5 12.5-5.4 33.2 8.9 40.3 4.4 2.1 8.3-4.5 3.8-6.7z"/><path d="M531.7 503.6c2.5-10.9 14.7-18.9 25.8-15.3 11.1 3.6 16.2 17.1 12 27.5-1.8 4.6 5.6 6.6 7.4 2 5.8-14.3-2.6-32.3-17.4-37-14.9-4.7-31.8 5.8-35.2 20.7-1.1 4.9 6.3 6.9 7.4 2.1zm54.4 14.4c5.6-3.5 14-1.9 17.2 4.1 3.4 6.4-.8 14.8-7.4 16.8-4.7 1.5-2.7 8.9 2 7.4 11-3.4 17.6-16.5 12.5-27.2-4.9-10.2-18.8-13.7-28.2-7.8-4.2 2.7-.3 9.3 3.9 6.7zm-41.4 60.5c.6-3 5.9-3.1 8.3-3.4 3.7-.4 7.9-.8 11.5.5 2.7 1 4.7 2.7 4.9 5.7.1 1.9-.3 4.8-2.7 4.8-4.9.1-5 7.8 0 7.7 11.7-.3 13.3-16.7 5.2-22.8-5.8-4.4-13.4-4.3-20.3-3.4-5.8.7-13 2.2-14.4 8.9-.9 4.8 6.5 6.9 7.5 2z"/></svg>