<?xml version="1.0" encoding="utf-8"?>
<!-- Generator: Adobe Illustrator 23.0.2, SVG Export Plug-In . SVG Version: 6.00 Build 0)  -->
<svg version="1.1" id="Layer_1" xmlns="http://www.w3.org/2000/svg" xmlns:xlink="http://www.w3.org/1999/xlink" x="0px" y="0px"
	 viewBox="0 0 1000 1000" style="enable-background:new 0 0 1000 1000;" xml:space="preserve">
<style type="text/css">
	.st0{opacity:0.7;fill:#FCCE37;}
	.st1{opacity:0.7;fill:#FC7937;}
	.st2{opacity:0.7;fill:#FCE7A4;}
	.st3{opacity:0.7;fill:#FCF7E8;}
	.st4{fill:#FFFFFF;}
</style>
<g>
	<path class="st0" d="M640.8,505c2.9-5.6,6.8-11.5,5.6-17.7c-1-5.6-5.9-9.6-10.6-13c-44.3-31.9-98.6-49.1-153.1-50.1
		c-43.8-0.8-108.4-3.8-137.3,34.6c32.8,20.6,45.9,67.3,28.8,102c-6.6,13.4-17,24.8-22.8,38.6c-5.9,13.8-5.9,32,5.7,41.4
		c7.7,6.2,18.3,7,28.2,7.2c25.7,0.8,51.4,0.3,77.1-1.4c-0.5,2.5-1,5-1.5,7.5h60.2c5.4-0.3,10.9-0.4,16.3-0.3
		c-0.8-2.6-2.3-4.9-4.9-6.5c12-18.8,38.3-22.4,54.8-37.4c9-8.2,14.7-19.5,22.3-29c7.7-9.5,18.9-17.9,31-16.4
		C632,546.1,631.4,523.4,640.8,505z"/>
	<path class="st1" d="M599.3,405.7c-2.9-3.7-5.9-7.3-8.8-11c-1.5-1.8-3.2-3.8-5.6-4.1c-3-0.4-5.6,1.9-8.6,2c-4.6,0.1-7.4-5-7.6-9.4
		c-0.3-4.3,0.6-9-1.6-12.8c-3.4-5.9-12.1-6.6-18.9-5.2c-6.9,1.4-13.9,4.1-20.7,2.5c10.6-7.4,14.5-22.2,8.9-33.6
		c-15.4,4.2-49.9,15.7-71.6,32.7c-16.2,7.5-29.1,21.9-34.7,38.9c-0.6,1.7-1.1,3.6-0.4,5.3c0.9,2.4,3.7,3.5,6.2,4.1
		c10.5,2.9,21.3,4.7,32.2,5.6c31.4,10,89,10.8,109.1,17.3c9.4,3,21.1,6.1,28.2-0.4C614.4,429.4,607,415.2,599.3,405.7z"/>
	<path class="st1" d="M454.2,587.2c26.2-8.2,51-20.6,73.3-36.6c6.8-4.9,14-11.2,14.7-19.6c1-13.2-14.2-21.4-27.3-23.9
		c-21.9-4.1-64.3-4-81.5,13.6C411.8,542.8,444.4,566,454.2,587.2z"/>
	<path class="st1" d="M492.2,696.6c6.7,7.2,17.7,14.8,25.2,8.5c3.2-2.7,4.3-7.1,5.3-11.1c1.5-5.9,3.2-12.1,7.3-16.6s11.2-7,16.5-3.9
		c0.1-10.9-2.5-25.1-13.2-26.7c-5.8-0.8-11.2,2.8-16.6,5c-26.4,11-60.1-7.3-59.1,31.6c0.2,9.5,5,35.4,17.9,34.7
		C480.1,717.9,491.3,695.6,492.2,696.6z"/>
	<path class="st1" d="M564.9,624c-4.4-12.8-8.9-26.5-6-39.7s16.3-25.2,29.3-21.4c7.8,2.3,13.3,9.5,15.7,17.2s2.3,16,2.2,24.1
		c-1.4-0.9-2.8-1.9-4.2-2.8"/>
	<path class="st1" d="M395.3,433c12.9,11.1,7,34,18.2,46.7c9.2,10.4,27.7,8.7,36.6-1.9c8.9-10.6,8.3-27.3,0.6-38.8
		s-21.4-18.1-35.1-19.8c-5.4-0.6-11.4-0.4-15.3,3.3"/>
	<path class="st1" d="M607.9,478.3c-3.9-3-9.3-2.8-13.8-1.9c-10.2,2.1-16.7,12.8-13.1,22.6c0.8,2.2,2.1,4.3,3.8,6
		c6.9,6.7,19.4,6.2,25.7-1.1C616.8,496.6,615.5,484.1,607.9,478.3z"/>
	<path class="st1" d="M742.8,426.6c11.8-6.4,27.2-12.3,37.3-3.5c7,6.1,7.9,17.3,4.8,26.2s-9.5,16.2-15.4,23.5
		c-17.8,22-33,46.2-45.1,71.9c20,14.5,36.7,33.7,48.5,55.8c7.4,13.8,12,33.1,0.5,43.8c-9.3,8.7-23.9,6.3-35.9,2.5
		c-35.4-11.2-68.3-30.2-95.8-55.4c-6-5.5-12.2-12.4-11.5-20.6c0.4-4.7,10-10.7,11.3-15.3c2.8-9.6,7.1-28.8,6.1-38.7
		C641.7,458.6,702.5,448.5,742.8,426.6z"/>
	<path class="st2" d="M265.5,551c11.3,16.4,22.7,32.8,34,49.1c6.2,9,15.2,19.2,26,16.9c3.3-0.7,6.3-2.6,9-4.6
		c40.3-28.4,73.9-103,24.8-141.1C323.1,443.3,238,511.2,265.5,551z"/>
	<path class="st3" d="M325.6,486.8c-10.7,2.2-20.7,10.3-22.8,21c-2.1,10.8,5.5,23.1,16.4,24.1c5.2,0.5,10.5-1.5,14.9-4.3
		c9.8-6.1,16.9-17.3,15.8-28.8s-12.4-21.7-23.7-19.5"/>
	<path d="M333.2,511.7c5.6,3.7,5.2,13.6-0.7,16.8c-5.9,3.2-14.5-1.8-14.5-8.5s8.4-12,14.4-8.9"/>
	<g>
		<path d="M261.3,554.3c-13.8-11.6-2.1-30.4,6.5-41c10.2-12.5,21.6-24.1,34-34.6c24.4-20.6,52.6-36.9,82.7-47.6
			c17.3-6.1,35.2-10.6,53.5-13c2.5-0.3,4.5-1.9,4.6-4.6c0-2.2-2.1-4.9-4.6-4.6c-69.4,9.1-135.6,45.3-178.9,100.7
			c-6.2,7.9-11.8,16.6-12.9,26.8c-1,8.9,1.7,18.4,8.7,24.2C259.3,564.5,265.8,558,261.3,554.3L261.3,554.3z"/>
	</g>
	<g>
		<path d="M406.4,427.6c25.3-44.3,69.5-76.8,119.3-87.8c5.8-1.3,16-4.7,19,2.6c3.1,7.3-2.6,14.9-6.5,20.6c-2.3,3.4,1.5,7.7,5.2,6.7
			c6.6-1.7,13.2-3.4,20-3.4c3,0,6,0.3,9,1.3c1.8,0.6,7.4,2.7,7.2,5.1c-0.1,1.2-2.7,2.9-3.5,3.7c-1.7,1.7-3.5,3.5-4.2,5.9
			c-0.7,2.2-0.4,4.9,1,6.7c1.9,2.5,6.7,2.6,9.6,3.4c6.9,1.9,13.2,4.4,18.7,9c1.9,1.6,3.9,3,6,4.3c2.1,1.4,4.6,2.9,6.1,4.2
			c1,0.8,1.9,1.7,2.8,2.7c0.3,0.4,1.2,2,1.3,2.3c0.5,1.3,0.4,1.8,0.2,2.9c-0.4,1.7-1.3,3.3-2.4,4.7c-4.1,5.5-10.1,9.5-15.8,13.1
			c-4.9,3.2-0.3,11.1,4.6,7.9c9.6-6.2,27.2-17.9,21.9-31.9c-1.7-4.5-5.4-7.8-9.2-10.5c-1.6-1.2-3.3-2.3-5-3.4
			c-0.7-0.5-1.5-1-2.2-1.5c-0.3-0.2-0.7-0.5-1-0.7c-0.7-0.5,0.4,0.4-0.4-0.3c-8.9-7.6-19.2-10.8-30.4-13.5c1.1,1.1,2.1,2.1,3.2,3.2
			c-0.3-0.8-0.6,0.2,0.1-0.5c0.7-0.7,1.4-1.5,2.2-2.2c1.7-1.6,3.4-3.2,4.5-5.3c3.4-6.5-1.5-12.5-7-15.7c-12.1-7-26.9-3.8-39.6-0.4
			c1.7,2.2,3.4,4.5,5.2,6.7c4.4-6.4,8.9-13.5,8.6-21.6c-0.3-6.8-3.8-13.4-10.4-15.9c-7.1-2.8-15.5-0.3-22.6,1.3
			c-7.1,1.6-14.1,3.7-21,6.2c-27.1,9.8-51.9,25.7-72.2,46.1c-11.6,11.7-21.7,25-29.9,39.3C395.6,428.1,403.5,432.7,406.4,427.6
			L406.4,427.6z"/>
	</g>
	<g>
		<path d="M249.7,549.2c30,61.7,91.2,103.8,159.4,110.2c20.3,1.9,40.7,0.5,60.6-3.8c5.7-1.2,3.3-10-2.4-8.8
			c-33.9,7.4-69.5,5.1-102.3-6.2c-30.1-10.4-57.1-28.8-78.3-52.5c-11.7-13.1-21.4-27.8-29.1-43.5C255,539.3,247.2,544,249.7,549.2
			L249.7,549.2z"/>
	</g>
	<g>
		<path d="M439.7,653.6c1.5,18,6.9,35.4,16,51c4.5,7.7,10,15,16.2,21.5c5.2,5.5,13.4,10.7,19.7,3.5c2-2.2,2.9-5.1,3.9-7.8
			c0.9-2.3,1.7-5.2,4.4-5.7c2.4-0.5,5.2,0.7,7.5,1.4c3.3,1,6.6,2.2,10.1,2.5c6.7,0.6,12.3-3.3,13.8-10c0.7-3,0.6-6.2,0.8-9.2
			c0.3-4.4,1.4-4.7,5.8-5.2c8.9-1,15.6-8.2,17.3-16.9c2.1-10.4-3-20.1-9.3-28c-3.6-4.6-10,1.9-6.5,6.5c4.5,5.8,8.8,13.7,6.4,21.2
			c-0.9,2.8-2.6,5.4-5,7c-3.3,2.1-7.4,1.1-10.9,2.6c-6,2.6-6.9,8.8-7.1,14.7c-0.2,4.5-0.2,9.1-5.8,8.2c-5.4-0.9-10.2-3.6-15.7-3.8
			c-5.8-0.2-10.5,2.9-12.9,8.1c-1.1,2.3-1.7,4.8-2.8,7.1c-1.6,3.2-3.4,1.4-5.5-0.7c-5.5-5.5-10.4-11.7-14.5-18.2
			c-9.4-14.9-15.2-31.9-16.7-49.5C448.4,647.8,439.2,647.7,439.7,653.6L439.7,653.6z"/>
	</g>
	<g>
		<path d="M369.6,486.3c8.9-1,12,16.1,13.3,22.4c2,9.4,2.4,19.1,1.5,28.7c-1.8,19-9.3,37.9-21.2,52.9c-6.9,8.7-15.2,16-24.7,21.7
			c-5,3-0.5,10.9,4.6,7.9c38.6-23,58.6-72,48.2-115.5c-2.5-10.3-7.9-28.5-21.7-27C363.8,477.8,363.7,486.9,369.6,486.3L369.6,486.3z
			"/>
	</g>
	<g>
		<path d="M307.3,485.6c-12,4.5-18,17.1-15.6,29.4c2.5,12.7,14.1,24.9,27.1,26.8c13.7,2.1,24.4-8.7,30.1-20
			c5.8-11.4,8.3-26.7-0.3-37.4c-7.7-9.6-22.8-12.9-32.3-4.1c-4.3,4,2.1,10.4,6.5,6.5c6.9-6.4,18.3-0.1,21.1,7.5
			c4.1,11.1-2,25.2-10,33.1c-4.1,4-9.2,6.5-15,5.1c-5.8-1.4-11.1-5.9-14.4-10.7c-5.9-8.6-6.2-23.2,5.3-27.5
			C315.2,492.3,312.8,483.5,307.3,485.6L307.3,485.6z"/>
	</g>
	<g>
		<path d="M325.2,519.1c-1.9,0.3-1.7-4.7-1-5.8c2.4-3.7,8-4.7,11.9-5.7c-1.9-1.1-3.7-2.1-5.6-3.2c1.7,6,1.9,12,0.2,18.1
			c-1.5,5.7,7.3,8.1,8.8,2.4c2-7.6,1.9-15.4-0.2-23c-0.7-2.4-3.2-3.8-5.6-3.2c-7.9,2-18.1,5.7-19.2,15.2c-0.9,7.9,4.9,15.3,13.1,14
			C333.4,527,330.9,518.2,325.2,519.1L325.2,519.1z"/>
	</g>
	<g>
		<path d="M431.9,521c16.2-8.5,33.9-14.3,52.1-16.7c14.5-1.9,31.1-3,44.9,3.2c5.3,2.4,10.4,6.1,12.9,11.5c3.2,7.2,1.1,14.9-2.8,21.3
			c-8.5,14.2-24.3,24.7-38.7,32.3c-8.2,4.4-16.9,7.8-25.9,10.4c-4.4,1.3-8.9,2.4-13.4,3.1c-4.1,0.7-9.2,1.2-12.6-1.8
			c-4.4-3.8-10.9,2.6-6.5,6.5c7.5,6.6,17.3,5.1,26.3,3.2c9.5-2.1,18.7-5.2,27.5-9.1c17.2-7.6,35-18.9,46.8-33.8
			c5.7-7.2,10.4-16.2,9.9-25.6c-0.4-7.8-4-15.1-10-20.2c-13-10.9-31.4-12.1-47.6-11.1c-23.6,1.4-46.6,7.9-67.6,18.9
			C422.1,515.9,426.7,523.8,431.9,521L431.9,521z"/>
	</g>
	<g>
		<path d="M413.4,553.1c12,9,22,20.3,29.7,33.2c3,5,10.9,0.5,7.9-4.6c-8.5-14.3-19.7-26.5-33-36.4
			C413.3,541.7,408.7,549.6,413.4,553.1L413.4,553.1z"/>
	</g>
	<g>
		<path d="M482.5,532.5c-6.5,2.1-13,4.1-19.5,6.2c-3.6,1.1-4.7,6.4-1.1,8.3c5.1,2.7,9.4,6.1,13.1,10.4c0-2.2,0-4.3,0-6.5
			c-2.3,2.2-4.7,4.3-7,6.5c-4.3,4,2.1,10.4,6.5,6.5c2.3-2.2,4.7-4.3,7-6.5c1.9-1.8,1.6-4.7,0-6.5c-4.2-4.8-9.3-8.8-15-11.8
			c-0.4,2.8-0.7,5.5-1.1,8.3c6.5-2.1,13-4.1,19.5-6.2C490.5,539.5,488.1,530.7,482.5,532.5L482.5,532.5z"/>
	</g>
	<g>
		<path d="M454.1,529.4c9.5,0,19,0.1,28.5,0.1c5.9,0,5.9-9.1,0-9.1c-9.5,0-19-0.1-28.5-0.1C448.2,520.2,448.2,529.3,454.1,529.4
			L454.1,529.4z"/>
	</g>
	<g>
		<path d="M443.3,443.7c10.1,1.6,12.2,14.2,2.9,18.7c-5.3,2.6-0.7,10.4,4.6,7.9c7.4-3.6,11.9-12,10.5-20.2
			c-1.3-7.7-7.9-14-15.5-15.2C440,434,437.5,442.8,443.3,443.7L443.3,443.7z"/>
	</g>
	<g>
		<path d="M476.1,436.9c3.7-0.5,6.1,4.4,5.1,7.3c-1.9,5.6,6.9,7.9,8.8,2.4c1.7-4.8,0.1-10-3.1-13.8c-3.4-4-8.2-5.5-13.2-4.8
			c-2.4,0.3-3.8,3.5-3.2,5.6C471.2,436.3,473.6,437.2,476.1,436.9L476.1,436.9z"/>
	</g>
	<g>
		<path d="M581.7,523c5.8,1.2,10.7,6.2,10.6,12.3c-0.1,5.8-5,11.3-10.8,12c-5.8,0.7-5.8,9.8,0,9.1c10.4-1.2,19.1-9.2,19.9-20
			c0.7-10.4-7.2-20.1-17.3-22.2C578.4,513.1,575.9,521.9,581.7,523L581.7,523z"/>
	</g>
	<g>
		<path d="M559.4,574.7c2.8,5.1,0.6,11.4-4.5,14c-5.2,2.7-0.6,10.5,4.6,7.9c9.5-4.9,12.9-17.3,7.7-26.5
			C564.4,565,556.5,569.6,559.4,574.7L559.4,574.7z"/>
	</g>
	<g>
		<path d="M530.3,431.1c41.7,2.9,78.2,26.7,110.8,50.9c4.7,3.5,9.3-4.4,4.6-7.9c-34.1-25.2-72-49.1-115.4-52.1
			C524.4,421.6,524.5,430.7,530.3,431.1L530.3,431.1z"/>
	</g>
	<g>
		<path d="M505.3,654.7c25.4,2.7,49.6-8.2,70.8-21.1c20.2-12.3,41.9-26.6,46.3-51.6c1-5.7-7.8-8.2-8.8-2.4
			c-4.1,23-24.7,35.7-43.3,46.8c-19.7,11.8-41.5,21.7-65,19.2C499.5,645,499.5,654.1,505.3,654.7L505.3,654.7z"/>
	</g>
	<g>
		<path d="M647.7,478.2c22.5-14.3,46.6-26.1,71.8-35c12.5-4.4,25.2-8,38-11c6.5-1.5,13.3-3.3,20-3.8c5.6-0.4,12.5,0.7,13.6,7.2
			c1,5.8,9.7,3.3,8.8-2.4c-1.8-11.1-14-14.8-23.7-13.8c-11.5,1.2-23,4.2-34.1,7.2c-22.2,6-43.8,14.1-64.5,24.2
			c-11.9,5.8-23.4,12.3-34.5,19.4C638.2,473.5,642.7,481.4,647.7,478.2L647.7,478.2z"/>
	</g>
	<g>
		<path d="M787.4,438.2c2.1,2.3-2.4,8.9-3.5,11c-2.2,4.4-4.6,8.8-7,13.1c-4.9,8.8-10.2,17.5-15.7,25.9c-11,16.8-23.3,32.7-36.6,47.6
			c-3.9,4.4,2.5,10.8,6.5,6.5c15-16.9,28.8-35,41-54c6-9.5,11.7-19.2,17-29.1c4.2-7.8,12.3-19.2,4.9-27.5
			C789.9,427.4,783.5,433.8,787.4,438.2L787.4,438.2z"/>
	</g>
	<g>
		<path d="M623.5,578.3c28.2,35.3,64,76.4,113.8,72.9c14.6-1,28.7-5.7,40.9-13.6c4.9-3.2,0.3-11.1-4.6-7.9
			c-20.1,13-44.7,15.9-67.3,8.2c-20.5-7-37.3-21.7-51.9-37.2c-8.6-9.2-16.6-19-24.5-28.8C626.2,567.2,619.8,573.7,623.5,578.3
			L623.5,578.3z"/>
	</g>
	<g>
		<path d="M711.5,542.7c33.6,19,58.8,51,69.3,88.2c1.6,5.6,10.4,3.2,8.8-2.4c-11.1-39.3-37.9-73.5-73.5-93.6
			C711,532,706.3,539.8,711.5,542.7L711.5,542.7z"/>
	</g>
	<g>
		<path d="M690.3,499.5c24.4-12.9,50.5-22,77.5-27.3c5.8-1.1,3.3-9.9-2.4-8.8c-27.8,5.5-54.6,15-79.7,28.3
			C680.5,494.4,685.2,502.2,690.3,499.5L690.3,499.5z"/>
	</g>
	<g>
		<path d="M707.6,522.4c12.7-4.1,26-5,39.1-2.3c5.7,1.2,8.2-7.6,2.4-8.8c-14.7-3-29.7-2.3-43.9,2.3
			C699.6,515.4,702,524.2,707.6,522.4L707.6,522.4z"/>
	</g>
	<g>
		<path d="M718.4,605.9c10.8-1.2,21.6-2.5,32.4-3.7c5.8-0.7,5.8-9.8,0-9.1c-10.8,1.2-21.6,2.5-32.4,3.7
			C712.7,597.5,712.6,606.6,718.4,605.9L718.4,605.9z"/>
	</g>
	<g>
		<path d="M751.3,632.2c4.7-1,9.4-2.1,14-3.1c5.7-1.3,3.3-10.1-2.4-8.8c-4.7,1-9.4,2.1-14,3.1C743.2,624.7,745.6,633.5,751.3,632.2
			L751.3,632.2z"/>
	</g>
	<g>
		<path d="M643.3,491.1c7.2-0.4,11.4,7.5,11,14c-0.6,9.3-8.5,16.9-14.5,23.1c-2.2,2.3-1.5,6.9,2,7.6c8.5,1.7,9.5,12.8,7.1,19.7
			c-3.8,10.8-13.9,18.5-19.4,28.5c-2.8,5.2,5,9.8,7.9,4.6c6.5-11.9,19.2-21,21.3-35.1c1.7-10.7-2.6-24.1-14.5-26.5
			c0.7,2.5,1.3,5.1,2,7.6c8.4-8.6,18.3-19.4,17.1-32.4c-1-10.3-8.8-20.8-20-20.2C637.4,482.3,637.4,491.5,643.3,491.1L643.3,491.1z"
			/>
	</g>
	<g>
		<path d="M476.5,411.8c8.7-11.3,18.9-21.4,30.1-30.1c4.6-3.6-1.9-10-6.5-6.5c-11.9,9.3-22.3,20-31.5,32c-1.5,2-0.3,5.1,1.6,6.2
			C472.6,414.9,475,413.8,476.5,411.8L476.5,411.8z"/>
	</g>
	<g>
		<path d="M517.8,417.7c4-2.7,8.1-5.4,12.1-8.1c4.8-3.2,0.3-11.1-4.6-7.9c-4,2.7-8.1,5.4-12.1,8.1C508.4,413.1,513,421,517.8,417.7
			L517.8,417.7z"/>
	</g>
	<g>
		<path class="st4" d="M327.6,509.5c-0.1,0.8-0.1,1.5-0.2,2.3c-0.1,1.2,1.1,2.3,2.3,2.3c1.3-0.1,2.1-1,2.3-2.3
			c0.1-0.8,0.1-1.5,0.2-2.3c0.1-1.2-1.1-2.3-2.3-2.3C328.5,507.2,327.7,508.2,327.6,509.5L327.6,509.5z"/>
	</g>
	<g>
		<path d="M542.2,451.6c8,0.1,13.1,9,10.3,16.1c-2.1,5.5,6.7,7.8,8.8,2.4c5-12.8-5.7-27.5-19.1-27.6
			C536.3,442.4,536.3,451.5,542.2,451.6L542.2,451.6z"/>
	</g>
	<g>
		<path d="M338.6,450.2c9.4,1,17.6,6.8,22.1,15c2.9,5.1,10.8,0.5,7.9-4.6c-6.3-11.1-17.4-18.1-30-19.5
			C332.8,440.5,332.8,449.6,338.6,450.2L338.6,450.2z"/>
	</g>
</g>
</svg>
