<svg xmlns="http://www.w3.org/2000/svg" width="1000" height="1000"><path d="M640.8 505c2.9-5.6 6.8-11.5 5.6-17.7-1-5.6-5.9-9.6-10.6-13-44.3-31.9-98.6-49.1-153.1-50.1-43.8-.8-108.4-3.8-137.3 34.6 32.8 20.6 45.9 67.3 28.8 102-6.6 13.4-17 24.8-22.8 38.6-5.9 13.8-5.9 32 5.7 41.4 7.7 6.2 18.3 7 28.2 7.2 25.7.8 51.4.3 77.1-1.4l-1.5 7.5h60.2c5.4-.3 10.9-.4 16.3-.3-.8-2.6-2.3-4.9-4.9-6.5 12-18.8 38.3-22.4 54.8-37.4 9-8.2 14.7-19.5 22.3-29 7.7-9.5 18.9-17.9 31-16.4-8.6-18.4-9.2-41.1.2-59.5z" opacity=".7" fill="#fcce37"/><path d="M599.3 405.7c-2.9-3.7-5.9-7.3-8.8-11-1.5-1.8-3.2-3.8-5.6-4.1-3-.4-5.6 1.9-8.6 2-4.6.1-7.4-5-7.6-9.4-.3-4.3.6-9-1.6-12.8-3.4-5.9-12.1-6.6-18.9-5.2-6.9 1.4-13.9 4.1-20.7 2.5 10.6-7.4 14.5-22.2 8.9-33.6-15.4 4.2-49.9 15.7-71.6 32.7-16.2 7.5-29.1 21.9-34.7 38.9-.6 1.7-1.1 3.6-.4 5.3.9 2.4 3.7 3.5 6.2 4.1 10.5 2.9 21.3 4.7 32.2 5.6 31.4 10 89 10.8 109.1 17.3 9.4 3 21.1 6.1 28.2-.4 9-8.2 1.6-22.4-6.1-31.9zM454.2 587.2c26.2-8.2 51-20.6 73.3-36.6 6.8-4.9 14-11.2 14.7-19.6 1-13.2-14.2-21.4-27.3-23.9-21.9-4.1-64.3-4-81.5 13.6-21.6 22.1 11 45.3 20.8 66.5zm38 109.4c6.7 7.2 17.7 14.8 25.2 8.5 3.2-2.7 4.3-7.1 5.3-11.1 1.5-5.9 3.2-12.1 7.3-16.6s11.2-7 16.5-3.9c.1-10.9-2.5-25.1-13.2-26.7-5.8-.8-11.2 2.8-16.6 5-26.4 11-60.1-7.3-59.1 31.6.2 9.5 5 35.4 17.9 34.7 4.6-.2 15.8-22.5 16.7-21.5zm72.7-72.6c-4.4-12.8-8.9-26.5-6-39.7s16.3-25.2 29.3-21.4c7.8 2.3 13.3 9.5 15.7 17.2s2.3 16 2.2 24.1c-1.4-.9-2.8-1.9-4.2-2.8M395.3 433c12.9 11.1 7 34 18.2 46.7 9.2 10.4 27.7 8.7 36.6-1.9 8.9-10.6 8.3-27.3.6-38.8s-21.4-18.1-35.1-19.8c-5.4-.6-11.4-.4-15.3 3.3m207.6 55.8c-3.9-3-9.3-2.8-13.8-1.9-10.2 2.1-16.7 12.8-13.1 22.6.8 2.2 2.1 4.3 3.8 6 6.9 6.7 19.4 6.2 25.7-1.1 6.3-7.3 5-19.8-2.6-25.6zm134.9-51.7c11.8-6.4 27.2-12.3 37.3-3.5 7 6.1 7.9 17.3 4.8 26.2s-9.5 16.2-15.4 23.5c-17.8 22-33 46.2-45.1 71.9 20 14.5 36.7 33.7 48.5 55.8 7.4 13.8 12 33.1.5 43.8-9.3 8.7-23.9 6.3-35.9 2.5-35.4-11.2-68.3-30.2-95.8-55.4-6-5.5-12.2-12.4-11.5-20.6.4-4.7 10-10.7 11.3-15.3 2.8-9.6 7.1-28.8 6.1-38.7-5.9-58.2 54.9-68.3 95.2-90.2z" opacity=".7" fill="#fc7937"/><path d="M265.5 551c11.3 16.4 22.7 32.8 34 49.1 6.2 9 15.2 19.2 26 16.9 3.3-.7 6.3-2.6 9-4.6 40.3-28.4 73.9-103 24.8-141.1-36.2-28-121.3 39.9-93.8 79.7z" opacity=".7" fill="#fce7a4"/><path d="M325.6 486.8c-10.7 2.2-20.7 10.3-22.8 21-2.1 10.8 5.5 23.1 16.4 24.1 5.2.5 10.5-1.5 14.9-4.3 9.8-6.1 16.9-17.3 15.8-28.8s-12.4-21.7-23.7-19.5" opacity=".7" fill="#fcf7e8"/><path d="M333.2 511.7c5.6 3.7 5.2 13.6-.7 16.8-5.9 3.2-14.5-1.8-14.5-8.5s8.4-12 14.4-8.9"/><path d="M261.3 554.3c-13.8-11.6-2.1-30.4 6.5-41 10.2-12.5 21.6-24.1 34-34.6 24.4-20.6 52.6-36.9 82.7-47.6 17.3-6.1 35.2-10.6 53.5-13 2.5-.3 4.5-1.9 4.6-4.6 0-2.2-2.1-4.9-4.6-4.6-69.4 9.1-135.6 45.3-178.9 100.7-6.2 7.9-11.8 16.6-12.9 26.8-1 8.9 1.7 18.4 8.7 24.2 4.4 3.9 10.9-2.6 6.4-6.3z"/><path d="M406.4 427.6c25.3-44.3 69.5-76.8 119.3-87.8 5.8-1.3 16-4.7 19 2.6 3.1 7.3-2.6 14.9-6.5 20.6-2.3 3.4 1.5 7.7 5.2 6.7 6.6-1.7 13.2-3.4 20-3.4 3 0 6 .3 9 1.3 1.8.6 7.4 2.7 7.2 5.1-.1 1.2-2.7 2.9-3.5 3.7-1.7 1.7-3.5 3.5-4.2 5.9-.7 2.2-.4 4.9 1 6.7 1.9 2.5 6.7 2.6 9.6 3.4 6.9 1.9 13.2 4.4 18.7 9 1.9 1.6 3.9 3 6 4.3 2.1 1.4 4.6 2.9 6.1 4.2 1 .8 1.9 1.7 2.8 2.7.3.4 1.2 2 1.3 2.3.5 1.3.4 1.8.2 2.9-.4 1.7-1.3 3.3-2.4 4.7-4.1 5.5-10.1 9.5-15.8 13.1-4.9 3.2-.3 11.1 4.6 7.9 9.6-6.2 27.2-17.9 21.9-31.9-1.7-4.5-5.4-7.8-9.2-10.5-1.6-1.2-3.3-2.3-5-3.4-.7-.5-1.5-1-2.2-1.5-.3-.2-.7-.5-1-.7-.7-.5.4.4-.4-.3-8.9-7.6-19.2-10.8-30.4-13.5l3.2 3.2c-.3-.8-.6.2.1-.5s1.4-1.5 2.2-2.2c1.7-1.6 3.4-3.2 4.5-5.3 3.4-6.5-1.5-12.5-7-15.7-12.1-7-26.9-3.8-39.6-.4 1.7 2.2 3.4 4.5 5.2 6.7 4.4-6.4 8.9-13.5 8.6-21.6-.3-6.8-3.8-13.4-10.4-15.9-7.1-2.8-15.5-.3-22.6 1.3-7.1 1.6-14.1 3.7-21 6.2-27.1 9.8-51.9 25.7-72.2 46.1-11.6 11.7-21.7 25-29.9 39.3-3.2 5.2 4.7 9.8 7.6 4.7zM249.7 549.2c30 61.7 91.2 103.8 159.4 110.2 20.3 1.9 40.7.5 60.6-3.8 5.7-1.2 3.3-10-2.4-8.8-33.9 7.4-69.5 5.1-102.3-6.2-30.1-10.4-57.1-28.8-78.3-52.5-11.7-13.1-21.4-27.8-29.1-43.5-2.6-5.3-10.4-.6-7.9 4.6z"/><path d="M439.7 653.6c1.5 18 6.9 35.4 16 51 4.5 7.7 10 15 16.2 21.5 5.2 5.5 13.4 10.7 19.7 3.5 2-2.2 2.9-5.1 3.9-7.8.9-2.3 1.7-5.2 4.4-5.7 2.4-.5 5.2.7 7.5 1.4 3.3 1 6.6 2.2 10.1 2.5 6.7.6 12.3-3.3 13.8-10 .7-3 .6-6.2.8-9.2.3-4.4 1.4-4.7 5.8-5.2 8.9-1 15.6-8.2 17.3-16.9 2.1-10.4-3-20.1-9.3-28-3.6-4.6-10 1.9-6.5 6.5 4.5 5.8 8.8 13.7 6.4 21.2-.9 2.8-2.6 5.4-5 7-3.3 2.1-7.4 1.1-10.9 2.6-6 2.6-6.9 8.8-7.1 14.7-.2 4.5-.2 9.1-5.8 8.2-5.4-.9-10.2-3.6-15.7-3.8-5.8-.2-10.5 2.9-12.9 8.1-1.1 2.3-1.7 4.8-2.8 7.1-1.6 3.2-3.4 1.4-5.5-.7-5.5-5.5-10.4-11.7-14.5-18.2-9.4-14.9-15.2-31.9-16.7-49.5-.5-6.1-9.7-6.2-9.2-.3zm-70.1-167.3c8.9-1 12 16.1 13.3 22.4 2 9.4 2.4 19.1 1.5 28.7-1.8 19-9.3 37.9-21.2 52.9-6.9 8.7-15.2 16-24.7 21.7-5 3-.5 10.9 4.6 7.9 38.6-23 58.6-72 48.2-115.5-2.5-10.3-7.9-28.5-21.7-27-5.8.4-5.9 9.5 0 8.9zm-62.3-.7c-12 4.5-18 17.1-15.6 29.4 2.5 12.7 14.1 24.9 27.1 26.8 13.7 2.1 24.4-8.7 30.1-20 5.8-11.4 8.3-26.7-.3-37.4-7.7-9.6-22.8-12.9-32.3-4.1-4.3 4 2.1 10.4 6.5 6.5 6.9-6.4 18.3-.1 21.1 7.5 4.1 11.1-2 25.2-10 33.1-4.1 4-9.2 6.5-15 5.1-5.8-1.4-11.1-5.9-14.4-10.7-5.9-8.6-6.2-23.2 5.3-27.5 5.4-2 3-10.8-2.5-8.7z"/><path d="M325.2 519.1c-1.9.3-1.7-4.7-1-5.8 2.4-3.7 8-4.7 11.9-5.7-1.9-1.1-3.7-2.1-5.6-3.2 1.7 6 1.9 12 .2 18.1-1.5 5.7 7.3 8.1 8.8 2.4 2-7.6 1.9-15.4-.2-23-.7-2.4-3.2-3.8-5.6-3.2-7.9 2-18.1 5.7-19.2 15.2-.9 7.9 4.9 15.3 13.1 14 5.8-.9 3.3-9.7-2.4-8.8zm106.7 1.9c16.2-8.5 33.9-14.3 52.1-16.7 14.5-1.9 31.1-3 44.9 3.2 5.3 2.4 10.4 6.1 12.9 11.5 3.2 7.2 1.1 14.9-2.8 21.3-8.5 14.2-24.3 24.7-38.7 32.3-8.2 4.4-16.9 7.8-25.9 10.4-4.4 1.3-8.9 2.4-13.4 3.1-4.1.7-9.2 1.2-12.6-1.8-4.4-3.8-10.9 2.6-6.5 6.5 7.5 6.6 17.3 5.1 26.3 3.2 9.5-2.1 18.7-5.2 27.5-9.1 17.2-7.6 35-18.9 46.8-33.8 5.7-7.2 10.4-16.2 9.9-25.6-.4-7.8-4-15.1-10-20.2-13-10.9-31.4-12.1-47.6-11.1-23.6 1.4-46.6 7.9-67.6 18.9-5.1 2.8-.5 10.7 4.7 7.9z"/><path d="M413.4 553.1c12 9 22 20.3 29.7 33.2 3 5 10.9.5 7.9-4.6-8.5-14.3-19.7-26.5-33-36.4-4.7-3.6-9.3 4.3-4.6 7.8zm69.1-20.6c-6.5 2.1-13 4.1-19.5 6.2-3.6 1.1-4.7 6.4-1.1 8.3 5.1 2.7 9.4 6.1 13.1 10.4v-6.5c-2.3 2.2-4.7 4.3-7 6.5-4.3 4 2.1 10.4 6.5 6.5 2.3-2.2 4.7-4.3 7-6.5 1.9-1.8 1.6-4.7 0-6.5-4.2-4.8-9.3-8.8-15-11.8-.4 2.8-.7 5.5-1.1 8.3 6.5-2.1 13-4.1 19.5-6.2 5.6-1.7 3.2-10.5-2.4-8.7zm-28.4-3.1c9.5 0 19 .1 28.5.1 5.9 0 5.9-9.1 0-9.1-9.5 0-19-.1-28.5-.1-5.9-.1-5.9 9 0 9.1zm-10.8-85.7c10.1 1.6 12.2 14.2 2.9 18.7-5.3 2.6-.7 10.4 4.6 7.9 7.4-3.6 11.9-12 10.5-20.2-1.3-7.7-7.9-14-15.5-15.2-5.8-.9-8.3 7.9-2.5 8.8zm32.8-6.8c3.7-.5 6.1 4.4 5.1 7.3-1.9 5.6 6.9 7.9 8.8 2.4 1.7-4.8.1-10-3.1-13.8-3.4-4-8.2-5.5-13.2-4.8-2.4.3-3.8 3.5-3.2 5.6.7 2.7 3.1 3.6 5.6 3.3zM581.7 523c5.8 1.2 10.7 6.2 10.6 12.3-.1 5.8-5 11.3-10.8 12-5.8.7-5.8 9.8 0 9.1 10.4-1.2 19.1-9.2 19.9-20 .7-10.4-7.2-20.1-17.3-22.2-5.7-1.1-8.2 7.7-2.4 8.8zm-22.3 51.7c2.8 5.1.6 11.4-4.5 14-5.2 2.7-.6 10.5 4.6 7.9 9.5-4.9 12.9-17.3 7.7-26.5-2.8-5.1-10.7-.5-7.8 4.6zm-29.1-143.6c41.7 2.9 78.2 26.7 110.8 50.9 4.7 3.5 9.3-4.4 4.6-7.9-34.1-25.2-72-49.1-115.4-52.1-5.9-.4-5.8 8.7 0 9.1zm-25 223.6c25.4 2.7 49.6-8.2 70.8-21.1 20.2-12.3 41.9-26.6 46.3-51.6 1-5.7-7.8-8.2-8.8-2.4-4.1 23-24.7 35.7-43.3 46.8-19.7 11.8-41.5 21.7-65 19.2-5.8-.6-5.8 8.5 0 9.1z"/><path d="M647.7 478.2c22.5-14.3 46.6-26.1 71.8-35 12.5-4.4 25.2-8 38-11 6.5-1.5 13.3-3.3 20-3.8 5.6-.4 12.5.7 13.6 7.2 1 5.8 9.7 3.3 8.8-2.4-1.8-11.1-14-14.8-23.7-13.8-11.5 1.2-23 4.2-34.1 7.2-22.2 6-43.8 14.1-64.5 24.2-11.9 5.8-23.4 12.3-34.5 19.4-4.9 3.3-.4 11.2 4.6 8z"/><path d="M787.4 438.2c2.1 2.3-2.4 8.9-3.5 11-2.2 4.4-4.6 8.8-7 13.1-4.9 8.8-10.2 17.5-15.7 25.9-11 16.8-23.3 32.7-36.6 47.6-3.9 4.4 2.5 10.8 6.5 6.5 15-16.9 28.8-35 41-54 6-9.5 11.7-19.2 17-29.1 4.2-7.8 12.3-19.2 4.9-27.5-4.1-4.3-10.5 2.1-6.6 6.5zM623.5 578.3c28.2 35.3 64 76.4 113.8 72.9 14.6-1 28.7-5.7 40.9-13.6 4.9-3.2.3-11.1-4.6-7.9-20.1 13-44.7 15.9-67.3 8.2-20.5-7-37.3-21.7-51.9-37.2-8.6-9.2-16.6-19-24.5-28.8-3.7-4.7-10.1 1.8-6.4 6.4z"/><path d="M711.5 542.7c33.6 19 58.8 51 69.3 88.2 1.6 5.6 10.4 3.2 8.8-2.4-11.1-39.3-37.9-73.5-73.5-93.6-5.1-2.9-9.8 4.9-4.6 7.8zm-21.2-43.2c24.4-12.9 50.5-22 77.5-27.3 5.8-1.1 3.3-9.9-2.4-8.8-27.8 5.5-54.6 15-79.7 28.3-5.2 2.7-.5 10.5 4.6 7.8zm17.3 22.9c12.7-4.1 26-5 39.1-2.3 5.7 1.2 8.2-7.6 2.4-8.8-14.7-3-29.7-2.3-43.9 2.3-5.6 1.8-3.2 10.6 2.4 8.8z"/><path d="M718.4 605.9c10.8-1.2 21.6-2.5 32.4-3.7 5.8-.7 5.8-9.8 0-9.1-10.8 1.2-21.6 2.5-32.4 3.7-5.7.7-5.8 9.8 0 9.1zm32.9 26.3c4.7-1 9.4-2.1 14-3.1 5.7-1.3 3.3-10.1-2.4-8.8-4.7 1-9.4 2.1-14 3.1-5.7 1.3-3.3 10.1 2.4 8.8zm-108-141.1c7.2-.4 11.4 7.5 11 14-.6 9.3-8.5 16.9-14.5 23.1-2.2 2.3-1.5 6.9 2 7.6 8.5 1.7 9.5 12.8 7.1 19.7-3.8 10.8-13.9 18.5-19.4 28.5-2.8 5.2 5 9.8 7.9 4.6 6.5-11.9 19.2-21 21.3-35.1 1.7-10.7-2.6-24.1-14.5-26.5.7 2.5 1.3 5.1 2 7.6 8.4-8.6 18.3-19.4 17.1-32.4-1-10.3-8.8-20.8-20-20.2-5.9.3-5.9 9.5 0 9.1zm-166.8-79.3c8.7-11.3 18.9-21.4 30.1-30.1 4.6-3.6-1.9-10-6.5-6.5-11.9 9.3-22.3 20-31.5 32-1.5 2-.3 5.1 1.6 6.2 2.4 1.5 4.8.4 6.3-1.6zm41.3 5.9c4-2.7 8.1-5.4 12.1-8.1 4.8-3.2.3-11.1-4.6-7.9-4 2.7-8.1 5.4-12.1 8.1-4.8 3.3-.2 11.2 4.6 7.9z"/><path d="M327.6 509.5c-.1.8-.1 1.5-.2 2.3-.1 1.2 1.1 2.3 2.3 2.3 1.3-.1 2.1-1 2.3-2.3.1-.8.1-1.5.2-2.3.1-1.2-1.1-2.3-2.3-2.3-1.4 0-2.2 1-2.3 2.3z" fill="#fff"/><path d="M542.2 451.6c8 .1 13.1 9 10.3 16.1-2.1 5.5 6.7 7.8 8.8 2.4 5-12.8-5.7-27.5-19.1-27.6-5.9-.1-5.9 9 0 9.1zm-203.6-1.4c9.4 1 17.6 6.8 22.1 15 2.9 5.1 10.8.5 7.9-4.6-6.3-11.1-17.4-18.1-30-19.5-5.8-.6-5.8 8.5 0 9.1z"/></svg>