<?xml version="1.0" encoding="utf-8"?>
<!-- Generator: Adobe Illustrator 23.0.2, SVG Export Plug-In . SVG Version: 6.00 Build 0)  -->
<svg version="1.1" id="Layer_1" xmlns="http://www.w3.org/2000/svg" xmlns:xlink="http://www.w3.org/1999/xlink" x="0px" y="0px"
	 viewBox="0 0 1000 1000" style="enable-background:new 0 0 1000 1000;" xml:space="preserve">
<style type="text/css">
	.st0{opacity:0.7;fill:#F07017;}
	.st1{opacity:0.7;fill:#05C5FF;}
	.st2{opacity:0.7;fill:#0386AD;}
</style>
<g>
	<path class="st0" d="M379.8,367.5c8.1,0,14.8,6.8,14.9,14.9c0,4.3,0.4,8.6,0.9,12.8c0,0.2,0.1,0.5,0.1,0.9
		c0.7-21.2,0.8-43,1.4-64.3c0.3-4.2,0.5-8.4,0.4-12.6c0.1-1.9,0.1-3.7,0.2-5.6l-0.3,2.9c-0.2-5.3-0.7-10.7-1.6-15.8
		c-4.5-3.5-10.2,1.1-13,8c-2.8,7-3.5,15.5-4,23.8c-0.7,11.7-1.4,23.4-1.9,35.2C377.9,367.6,378.8,367.5,379.8,367.5z"/>
	<path class="st0" d="M392,612.9c0.2-40.4,0.4-77.1,0.9-113.3c-4.8,4.6-11.8,6.1-18,2.5c-0.2-0.1-0.5-0.3-0.7-0.5
		c0.2,86.5,3.6,173,7.1,259.1c0.2,6.3,0.6,13,2.9,17.9c2.3,4.9,7.4,6.8,10,2.1c2.5-32.3,3.2-64.9,1.9-97.3
		C395.1,659.9,391.9,636.6,392,612.9z"/>
	<path class="st0" d="M374.5,468.9c-0.1,0.3,0.2-1.4,0.2-1.9c0.1-1.1,0.2-2.2,0.2-3.3c0.2-4.6,0-9.2-0.4-13.7c0-0.1,0-0.2,0-0.3
		c-0.1,6.7-0.2,13.5-0.2,20.2C374.3,469.6,374.4,469.2,374.5,468.9z"/>
	<path class="st1" d="M485.6,328.6c33.1-0.2,65.9,16.4,85.7,43.4c20.4,27.8,30,67.5,61.5,80.8c24.8,10.5,53-0.4,76.8-13.1
		s48.7-27.6,75.4-25.1c-38.3,16-62.1,54.1-88.7,86.3s-65.7,62.2-105.9,52.3c-32.2-7.9-53.3-38.6-82-55.4
		c-34.3-20-79.6-10.3-111.8,13.1c-2.5-6.3-11-10-19-10.3c-7.3-0.2-13.3-6-13.8-13.5c-3-44.7-14.2-153.1,36.6-115.2
		C422.4,346.4,451.2,328.8,485.6,328.6z"/>
	<path class="st2" d="M374.5,503.5c-2.1-0.5-4.4,0.2-5.8,1.8c1.2-39.4-8.8-104,7.4-139C386.3,378,364.8,501.2,374.5,503.5z"/>
	<g>
		<path d="M405.4,302.1c-2.5-8.6-10.4-14-19.1-14.5c-10.3-0.6-19.3,5.8-26.1,12.9c-4,4.1,2.2,10.7,6.2,6.5
			c4.6-4.7,10.1-9.5,16.9-10.3c5.5-0.6,11.8,2,13.4,7.6C398.3,309.8,407,307.7,405.4,302.1L405.4,302.1z"/>
	</g>
	<g>
		<path d="M363.1,293.9c-3.9,127.9-4.1,255.9-0.6,383.9c1,36.4,2.3,72.9,3.9,109.3c0.2,5.8,9.2,6,9,0.2
			c-5.6-127.8-7.6-255.8-5.8-383.8c0.5-36.5,1.3-72.9,2.5-109.4C372.3,288.4,363.3,288.1,363.1,293.9L363.1,293.9z"/>
	</g>
	<g>
		<path d="M366.4,784.5c8.1,6,18.7,10.5,28.8,7.2c8.6-2.9,14.4-10.2,15.6-19.1c0.8-5.7-8.2-5.9-9-0.2c-0.8,5.7-5.7,10.3-11.3,11.2
			c-7.1,1.2-13.9-2.8-19.4-6.8C366.5,773.4,361.8,781.1,366.4,784.5L366.4,784.5z"/>
	</g>
	<g>
		<path d="M395,315.8c-3.8,118.5-3.4,237.1,1.3,355.5c1.3,33.1,3,66.1,4.9,99.2c0.3,5.7,9.3,6,9,0.2c-7-118.3-9.9-236.9-8.4-355.4
			c0.4-33.1,1.1-66.2,2.2-99.3C404.2,310.2,395.2,310,395,315.8L395,315.8z"/>
	</g>
	<g>
		<path d="M380.1,304.5c-1.8,10.2-2.5,20.4-1.9,30.7c0.3,5.7,9.3,6,9,0.2c-0.5-9.5-0.1-19,1.5-28.3
			C389.7,301.5,381,298.8,380.1,304.5L380.1,304.5z"/>
	</g>
	<g>
		<path d="M388.7,758.9c-0.3-14.7-0.7-29.4-1-44.1c-0.1-5.8-9.1-6-9-0.2c0.3,14.7,0.7,29.4,1,44.1
			C379.9,764.5,388.9,764.7,388.7,758.9L388.7,758.9z"/>
	</g>
	<g>
		<path d="M373.3,367.5c2.6-6.1,11.8-7,16.1-2.5c4,4.2,10.5-2,6.5-6.2c-9.4-9.9-26.1-6-31.3,6.1
			C362.5,370.2,371.1,372.8,373.3,367.5L373.3,367.5z"/>
	</g>
	<g>
		<path d="M364.4,518.7c4.1-3.7,8.8-8.3,14.5-9.2c4.1-0.7,9,1,10,5.3c1.4,5.6,10.1,3.5,8.7-2.2c-1.8-7.4-8.6-11.9-16-12.2
			c-9.3-0.5-17,6-23.5,11.8C353.9,516.1,360.1,522.6,364.4,518.7L364.4,518.7z"/>
	</g>
	<g>
		<path d="M399.5,364.3c28.7-23.5,64.6-41.2,102.6-38.9c16.9,1,33.8,6,48,15.2c13.2,8.5,22.7,20.6,30.5,34.1
			c13.5,23.4,22.6,51.7,44.1,69.4c11.3,9.3,25.6,14.1,40.2,13.2c17.1-1,32.9-8.4,47.9-16c18.2-9.2,35.9-19.1,56.3-22.2
			c21.7-3.3,44.4,0.2,64,10c5.2,2.5,9.9-5.1,4.7-7.7c-17.2-8.5-36.2-12.9-55.4-12.4c-19,0.5-36.7,6-53.8,14.2
			c-28.8,13.9-64,38.2-95.2,16.4c-11.4-7.9-19-20.1-25.6-32.1c-7-12.8-13-26.2-20.5-38.8c-7.9-13.3-17.5-25.2-30.2-34.1
			c-14.2-9.9-31.1-15.5-48.2-17.6c-42.7-5.2-83.6,14.4-115.9,40.8C388.8,361.5,395,368,399.5,364.3L399.5,364.3z"/>
	</g>
	<g>
		<path d="M408.4,519.2c24.2-22.2,60.4-27.1,89.7-12.6c26.9,13.3,47,36.7,73,51.5c12.8,7.3,27,12.2,41.8,12.5
			c16.6,0.3,32.9-4.9,47.3-12.8c32.3-17.7,53.6-48,77.3-75.1c25.1-28.8,59.1-58.2,100.2-52.7c5.7,0.8,5.9-8.2,0.2-9
			c-35-4.7-67.7,15.2-91.6,39c-26.5,26.4-46.5,59.7-77.2,81.7c-14.1,10.1-30.6,18-48,19.7c-15.8,1.5-31-2.8-44.6-10.5
			c-26.4-14.9-46.8-38.8-74.2-52.2c-32.9-16-72.9-10.8-100,14.1C397.9,516.7,404.1,523.2,408.4,519.2L408.4,519.2z"/>
	</g>
</g>
</svg>
