<svg xmlns="http://www.w3.org/2000/svg" width="1000" height="1000"><path d="M379.8 367.5c8.1 0 14.8 6.8 14.9 14.9 0 4.3.4 8.6.9 12.8 0 .2.1.5.1.9.7-21.2.8-43 1.4-64.3.3-4.2.5-8.4.4-12.6.1-1.9.1-3.7.2-5.6l-.3 2.9c-.2-5.3-.7-10.7-1.6-15.8-4.5-3.5-10.2 1.1-13 8-2.8 7-3.5 15.5-4 23.8-.7 11.7-1.4 23.4-1.9 35.2 1-.1 1.9-.2 2.9-.2zM392 612.9c.2-40.4.4-77.1.9-113.3-4.8 4.6-11.8 6.1-18 2.5-.2-.1-.5-.3-.7-.5.2 86.5 3.6 173 7.1 259.1.2 6.3.6 13 2.9 17.9 2.3 4.9 7.4 6.8 10 2.1 2.5-32.3 3.2-64.9 1.9-97.3-1-23.5-4.2-46.8-4.1-70.5zm-17.5-144c-.1.3.2-1.4.2-1.9.1-1.1.2-2.2.2-3.3.2-4.6 0-9.2-.4-13.7v-.3c-.1 6.7-.2 13.5-.2 20.2 0-.3.1-.7.2-1z" opacity=".7" fill="#f07017"/><path d="M485.6 328.6c33.1-.2 65.9 16.4 85.7 43.4 20.4 27.8 30 67.5 61.5 80.8 24.8 10.5 53-.4 76.8-13.1s48.7-27.6 75.4-25.1c-38.3 16-62.1 54.1-88.7 86.3s-65.7 62.2-105.9 52.3c-32.2-7.9-53.3-38.6-82-55.4-34.3-20-79.6-10.3-111.8 13.1-2.5-6.3-11-10-19-10.3-7.3-.2-13.3-6-13.8-13.5-3-44.7-14.2-153.1 36.6-115.2 22-25.5 50.8-43.1 85.2-43.3z" opacity=".7" fill="#05c5ff"/><path d="M374.5 503.5c-2.1-.5-4.4.2-5.8 1.8 1.2-39.4-8.8-104 7.4-139 10.2 11.7-11.3 134.9-1.6 137.2z" opacity=".7" fill="#0386ad"/><path d="M405.4 302.1c-2.5-8.6-10.4-14-19.1-14.5-10.3-.6-19.3 5.8-26.1 12.9-4 4.1 2.2 10.7 6.2 6.5 4.6-4.7 10.1-9.5 16.9-10.3 5.5-.6 11.8 2 13.4 7.6 1.6 5.5 10.3 3.4 8.7-2.2z"/><path d="M363.1 293.9c-3.9 127.9-4.1 255.9-.6 383.9 1 36.4 2.3 72.9 3.9 109.3.2 5.8 9.2 6 9 .2-5.6-127.8-7.6-255.8-5.8-383.8.5-36.5 1.3-72.9 2.5-109.4.2-5.7-8.8-6-9-.2z"/><path d="M366.4 784.5c8.1 6 18.7 10.5 28.8 7.2 8.6-2.9 14.4-10.2 15.6-19.1.8-5.7-8.2-5.9-9-.2-.8 5.7-5.7 10.3-11.3 11.2-7.1 1.2-13.9-2.8-19.4-6.8-4.6-3.4-9.3 4.3-4.7 7.7z"/><path d="M395 315.8c-3.8 118.5-3.4 237.1 1.3 355.5 1.3 33.1 3 66.1 4.9 99.2.3 5.7 9.3 6 9 .2-7-118.3-9.9-236.9-8.4-355.4.4-33.1 1.1-66.2 2.2-99.3.2-5.8-8.8-6-9-.2zm-14.9-11.3c-1.8 10.2-2.5 20.4-1.9 30.7.3 5.7 9.3 6 9 .2-.5-9.5-.1-19 1.5-28.3 1-5.6-7.7-8.3-8.6-2.6zm8.6 454.4c-.3-14.7-.7-29.4-1-44.1-.1-5.8-9.1-6-9-.2.3 14.7.7 29.4 1 44.1.2 5.8 9.2 6 9 .2z"/><path d="M373.3 367.5c2.6-6.1 11.8-7 16.1-2.5 4 4.2 10.5-2 6.5-6.2-9.4-9.9-26.1-6-31.3 6.1-2.1 5.3 6.5 7.9 8.7 2.6zm-8.9 151.2c4.1-3.7 8.8-8.3 14.5-9.2 4.1-.7 9 1 10 5.3 1.4 5.6 10.1 3.5 8.7-2.2-1.8-7.4-8.6-11.9-16-12.2-9.3-.5-17 6-23.5 11.8-4.2 3.9 2 10.4 6.3 6.5z"/><path d="M399.5 364.3c28.7-23.5 64.6-41.2 102.6-38.9 16.9 1 33.8 6 48 15.2 13.2 8.5 22.7 20.6 30.5 34.1 13.5 23.4 22.6 51.7 44.1 69.4 11.3 9.3 25.6 14.1 40.2 13.2 17.1-1 32.9-8.4 47.9-16 18.2-9.2 35.9-19.1 56.3-22.2 21.7-3.3 44.4.2 64 10 5.2 2.5 9.9-5.1 4.7-7.7-17.2-8.5-36.2-12.9-55.4-12.4-19 .5-36.7 6-53.8 14.2-28.8 13.9-64 38.2-95.2 16.4-11.4-7.9-19-20.1-25.6-32.1-7-12.8-13-26.2-20.5-38.8-7.9-13.3-17.5-25.2-30.2-34.1-14.2-9.9-31.1-15.5-48.2-17.6-42.7-5.2-83.6 14.4-115.9 40.8-4.2 3.7 2 10.2 6.5 6.5z"/><path d="M408.4 519.2c24.2-22.2 60.4-27.1 89.7-12.6 26.9 13.3 47 36.7 73 51.5 12.8 7.3 27 12.2 41.8 12.5 16.6.3 32.9-4.9 47.3-12.8 32.3-17.7 53.6-48 77.3-75.1 25.1-28.8 59.1-58.2 100.2-52.7 5.7.8 5.9-8.2.2-9-35-4.7-67.7 15.2-91.6 39-26.5 26.4-46.5 59.7-77.2 81.7-14.1 10.1-30.6 18-48 19.7-15.8 1.5-31-2.8-44.6-10.5-26.4-14.9-46.8-38.8-74.2-52.2-32.9-16-72.9-10.8-100 14.1-4.4 3.9 1.8 10.4 6.1 6.4z"/></svg>