<svg xmlns="http://www.w3.org/2000/svg" width="1000" height="1000"><path d="M473.7 444.1c4.4 13.3 8.9 26.6 13.3 39.9 17.2-35.7 25.2-77.4 22.7-118.4 8.5 1 12.5 12.7 14.6 22.5 9.3 44.2 15.4 89.5 18 135 .4 6.8 2.8 15.9 8.5 15.2 2-.2 3-9.3 4.5-10.8 16.6-16.4 28.3-52.3 30.8-77.7-1.5 14.7 25.3 50.2 26.9 90.7 1.1 28.1-4.8 59.7-16.6 84.2-18.9 39.2-58.2 69.5-97.9 64.7-92.9-11.3-63.7-186.8-24.8-245.3z" opacity=".7" fill="#ff3e29"/><path d="M485.1 672.5c-9.1 1-18-5.4-23.2-14.1-5.2-8.7-7.3-19.4-8.5-29.9-4.2-37.8 2.6-77.2 19.1-110.2 1-2 2.3-4.2 4.3-4.6 1.7-.3 3.3.9 4.7 2 5.1 4 10.2 8 15.3 11.9 8.6-6.2 10.9-19.2 13.8-30.4 2.9-11.2 9.2-23.8 19.4-24.1-1.7 21.7-3.5 43.3-5.2 65-.6 7.9-1.2 16.3 1.7 23.5 2.9 7.2 10.8 12.4 16.9 8.8 3.7-2.1 5.8-6.6 8.3-10.3 5.1-7.4 12.9-12.2 21.1-13.1 12.8 30.9 9.5 69.8-8.3 97.3S515.3 686.4 486 681c-8.8-1.6-17.6-5.1-24-12.3s-9.7-18.5-6.3-28" opacity=".7" fill="#ffc000"/><path d="M487.9 664.1c1.7 5.8-5.6 10.8-10.4 8.2-4.8-2.7-6.8-9.3-7.5-15.4-3.9-32.6 15.4-62.5 35.4-85.9 17.6 13.8 31.4 36 32.5 60.5 1.2 24.6-12.6 50.5-33.4 56-8.1 2.1-17.3.9-23.5-5.6" opacity=".7" fill="#ff0"/><path d="M501.6 324.2c.8 53.8-6.1 107.5-20.6 159.4 2.4.3 4.8.6 7.2 1-1.1-18.8-6-37.2-14.7-53.9-1.2-2.3-5.1-2.4-6.3 0-19.2 40.2-30.9 83.7-34.8 128-2 22-2.5 44.6.3 66.6 2.4 19.5 7.7 39.5 20.1 55.2 12.2 15.4 31.8 26.4 51.7 21 4.5-1.2 2.6-8.3-1.9-7-16.8 4.6-33-5.1-43.4-17.7-12.4-15-17.4-35.3-19.5-54.2-4.5-40.6 0-82.9 10-122.3 5.8-22.7 13.7-44.8 23.8-65.9h-6.3c8.1 15.6 12.7 32.7 13.7 50.2.2 4 6 5.1 7.2 1 14.7-52.4 21.6-106.9 20.9-161.3-.1-4.8-7.4-4.8-7.4-.1z"/><path d="M498.9 323.6c22.4 50 44.9 101.6 46.6 157.2.5 15.7-.7 31.5-4.1 46.8-1 4.6 6 6.5 7 1.9 12.3-56.3-2.8-113.5-24.1-165.6-6.1-14.8-12.6-29.4-19.1-44-1.9-4.3-8.2-.6-6.3 3.7z"/><path d="M549.1 546.3c24.9-28.8 40.3-65.1 47.7-102.2.8-4.2-4.2-6.1-6.7-2.8-4.8 6.5-1.7 15.3 1.4 21.8 4.1 8.4 7.5 17 10 26.1 5.5 19.4 7.6 39.7 7 59.8-1.2 38.7-12.9 78.3-35.5 110-5.7 8-12.3 17-21 21.9-11 6.2-21.7-1.8-30.2-8.5-3.7-2.8-8.8 2.3-5.2 5.2 7.7 6 16.3 12.8 26.6 13 9.4.2 17.2-5.8 23.4-12.3 13.3-13.8 23.5-30.9 31.1-48.4 16.8-38.7 22.3-82.1 15.2-123.7-1.9-11-4.7-21.8-8.7-32.3-1.9-4.9-4.1-9.7-6.3-14.5-2-4.2-4.5-10.2-1.4-14.4-2.2-.9-4.4-1.9-6.7-2.8-7.1 35.8-21.7 71.1-45.8 98.9-3.1 3.6 2 8.8 5.1 5.2z"/><path d="M471.7 653.7c-3.5-15.3 5.4-29.9 15.2-40.9 9.4-10.5 19.9-20.2 25.6-33.4-1.7.4-3.3.9-5 1.3 23.7 13.3 30.3 48.9 18.1 72-2.2 4.1 4.1 7.8 6.3 3.7 14-26.5 6.5-66.6-20.8-81.9-1.5-.9-4.2-.5-5 1.3-6.3 14.7-18.8 24.5-28.6 36.8-9.6 12.2-16.5 27.4-12.9 43.1 1.1 4.5 8.2 2.6 7.1-2zm-16.2-47.9c-5.3-22.7 3.1-45.4 13.7-65.3 2.6-4.8 5.3-9.6 8.1-14.3 2.5-4.2 6-9.3 10.7-4.6 6.8 6.8 6.2 18.1 14 24.4 2 1.6 5.4 1.3 6.1-1.6 3.5-14.3 10.4-27.5 20.8-38-2.1-.9-4.2-1.7-6.2-2.6.2 12.5.3 25 .5 37.5.1 4.7 7.3 4.7 7.3 0-.2-12.5-.3-25-.5-37.5 0-3.1-4-4.8-6.2-2.6-11.3 11.3-18.9 25.7-22.7 41.2 2-.5 4.1-1.1 6.1-1.6-8.8-7.1-7-21.6-17.8-27.3-11.9-6.4-19.2 10.2-23.7 18.2-12.9 23-23.4 49.3-17.2 76 1.1 4.6 8.1 2.7 7-1.9z"/><path d="M539.1 582.2c8.4.7 14-6.8 19.8-11.7 2.5-2.1 5.8-4.5 8.9-2.2 3.7 2.8 4.1 9.5 4.2 13.6.3 13.3-2.1 27.1-5.1 40.1-3.1 13.7-7.6 27.1-13.4 39.9-1.9 4.2 4.4 8 6.3 3.7 10-22 16.2-45.5 18.6-69.6.9-9.3 2.3-20.4-2.4-28.9-3.7-6.7-11.3-8.7-17.9-5-6 3.4-11.5 13.4-19 12.8-4.7-.4-4.7 6.9 0 7.3zm27.8-138.5c.8-11.4 3.5-22.4 7.7-33 1.8-4.3-5.3-6.2-7-1.9-4.5 11.2-7.1 22.9-8 34.9-.3 4.7 7 4.6 7.3 0zM437.5 329.5c1.6 7.6 3.1 15.2 4.7 22.8 1 4.6 8 2.6 7-1.9-1.6-7.6-3.1-15.2-4.7-22.8-1-4.6-8-2.6-7 1.9zm-28.9 142.4c6.1 8.8 8.9 19.1 8.7 29.8-.1 4.7 7.2 4.7 7.3 0 .2-11.9-3-23.6-9.7-33.5-2.7-3.8-9-.2-6.3 3.7z"/></svg>