<?xml version="1.0" encoding="utf-8"?>
<!-- Generator: Adobe Illustrator 23.0.2, SVG Export Plug-In . SVG Version: 6.00 Build 0)  -->
<svg version="1.1" id="Layer_1" xmlns="http://www.w3.org/2000/svg" xmlns:xlink="http://www.w3.org/1999/xlink" x="0px" y="0px"
	 viewBox="0 0 1000 1000" style="enable-background:new 0 0 1000 1000;" xml:space="preserve">
<style type="text/css">
	.st0{opacity:0.7;fill:#FF3E29;}
	.st1{opacity:0.7;fill:#FFC000;}
	.st2{opacity:0.7;fill:#FFFF00;}
</style>
<g>
	<path class="st0" d="M473.7,444.1c4.4,13.3,8.9,26.6,13.3,39.9c17.2-35.7,25.2-77.4,22.7-118.4c8.5,1,12.5,12.7,14.6,22.5
		c9.3,44.2,15.4,89.5,18,135c0.4,6.8,2.8,15.9,8.5,15.2c2-0.2,3-9.3,4.5-10.8c16.6-16.4,28.3-52.3,30.8-77.7
		c-1.5,14.7,25.3,50.2,26.9,90.7c1.1,28.1-4.8,59.7-16.6,84.2c-18.9,39.2-58.2,69.5-97.9,64.7C405.6,678.1,434.8,502.6,473.7,444.1z
		"/>
	<path class="st1" d="M485.1,672.5c-9.1,1-18-5.4-23.2-14.1c-5.2-8.7-7.3-19.4-8.5-29.9c-4.2-37.8,2.6-77.2,19.1-110.2
		c1-2,2.3-4.2,4.3-4.6c1.7-0.3,3.3,0.9,4.7,2c5.1,4,10.2,8,15.3,11.9c8.6-6.2,10.9-19.2,13.8-30.4c2.9-11.2,9.2-23.8,19.4-24.1
		c-1.7,21.7-3.5,43.3-5.2,65c-0.6,7.9-1.2,16.3,1.7,23.5c2.9,7.2,10.8,12.4,16.9,8.8c3.7-2.1,5.8-6.6,8.3-10.3
		c5.1-7.4,12.9-12.2,21.1-13.1c12.8,30.9,9.5,69.8-8.3,97.3s-49.2,42.1-78.5,36.7c-8.8-1.6-17.6-5.1-24-12.3s-9.7-18.5-6.3-28"/>
	<path class="st2" d="M487.9,664.1c1.7,5.8-5.6,10.8-10.4,8.2c-4.8-2.7-6.8-9.3-7.5-15.4c-3.9-32.6,15.4-62.5,35.4-85.9
		c17.6,13.8,31.4,36,32.5,60.5c1.2,24.6-12.6,50.5-33.4,56c-8.1,2.1-17.3,0.9-23.5-5.6"/>
	<g>
		<path d="M501.6,324.2c0.8,53.8-6.1,107.5-20.6,159.4c2.4,0.3,4.8,0.6,7.2,1c-1.1-18.8-6-37.2-14.7-53.9c-1.2-2.3-5.1-2.4-6.3,0
			c-19.2,40.2-30.9,83.7-34.8,128c-2,22-2.5,44.6,0.3,66.6c2.4,19.5,7.7,39.5,20.1,55.2c12.2,15.4,31.8,26.4,51.7,21
			c4.5-1.2,2.6-8.3-1.9-7c-16.8,4.6-33-5.1-43.4-17.7c-12.4-15-17.4-35.3-19.5-54.2c-4.5-40.6,0-82.9,10-122.3
			c5.8-22.7,13.7-44.8,23.8-65.9c-2.1,0-4.2,0-6.3,0c8.1,15.6,12.7,32.7,13.7,50.2c0.2,4,6,5.1,7.2,1
			c14.7-52.4,21.6-106.9,20.9-161.3C508.9,319.5,501.6,319.5,501.6,324.2L501.6,324.2z"/>
	</g>
	<g>
		<path d="M498.9,323.6c22.4,50,44.9,101.6,46.6,157.2c0.5,15.7-0.7,31.5-4.1,46.8c-1,4.6,6,6.5,7,1.9
			c12.3-56.3-2.8-113.5-24.1-165.6c-6.1-14.8-12.6-29.4-19.1-44C503.3,315.6,497,319.3,498.9,323.6L498.9,323.6z"/>
	</g>
	<g>
		<path d="M549.1,546.3c24.9-28.8,40.3-65.1,47.7-102.2c0.8-4.2-4.2-6.1-6.7-2.8c-4.8,6.5-1.7,15.3,1.4,21.8c4.1,8.4,7.5,17,10,26.1
			c5.5,19.4,7.6,39.7,7,59.8c-1.2,38.7-12.9,78.3-35.5,110c-5.7,8-12.3,17-21,21.9c-11,6.2-21.7-1.8-30.2-8.5
			c-3.7-2.8-8.8,2.3-5.2,5.2c7.7,6,16.3,12.8,26.6,13c9.4,0.2,17.2-5.8,23.4-12.3c13.3-13.8,23.5-30.9,31.1-48.4
			c16.8-38.7,22.3-82.1,15.2-123.7c-1.9-11-4.7-21.8-8.7-32.3c-1.9-4.9-4.1-9.7-6.3-14.5c-2-4.2-4.5-10.2-1.4-14.4
			c-2.2-0.9-4.4-1.9-6.7-2.8c-7.1,35.8-21.7,71.1-45.8,98.9C540.9,544.7,546,549.9,549.1,546.3L549.1,546.3z"/>
	</g>
	<g>
		<path d="M471.7,653.7c-3.5-15.3,5.4-29.9,15.2-40.9c9.4-10.5,19.9-20.2,25.6-33.4c-1.7,0.4-3.3,0.9-5,1.3
			c23.7,13.3,30.3,48.9,18.1,72c-2.2,4.1,4.1,7.8,6.3,3.7c14-26.5,6.5-66.6-20.8-81.9c-1.5-0.9-4.2-0.5-5,1.3
			c-6.3,14.7-18.8,24.5-28.6,36.8c-9.6,12.2-16.5,27.4-12.9,43.1C465.7,660.2,472.8,658.3,471.7,653.7L471.7,653.7z"/>
	</g>
	<g>
		<path d="M455.5,605.8c-5.3-22.7,3.1-45.4,13.7-65.3c2.6-4.8,5.3-9.6,8.1-14.3c2.5-4.2,6-9.3,10.7-4.6c6.8,6.8,6.2,18.1,14,24.4
			c2,1.6,5.4,1.3,6.1-1.6c3.5-14.3,10.4-27.5,20.8-38c-2.1-0.9-4.2-1.7-6.2-2.6c0.2,12.5,0.3,25,0.5,37.5c0.1,4.7,7.3,4.7,7.3,0
			c-0.2-12.5-0.3-25-0.5-37.5c0-3.1-4-4.8-6.2-2.6c-11.3,11.3-18.9,25.7-22.7,41.2c2-0.5,4.1-1.1,6.1-1.6c-8.8-7.1-7-21.6-17.8-27.3
			c-11.9-6.4-19.2,10.2-23.7,18.2c-12.9,23-23.4,49.3-17.2,76C449.6,612.3,456.6,610.4,455.5,605.8L455.5,605.8z"/>
	</g>
	<g>
		<path d="M539.1,582.2c8.4,0.7,14-6.8,19.8-11.7c2.5-2.1,5.8-4.5,8.9-2.2c3.7,2.8,4.1,9.5,4.2,13.6c0.3,13.3-2.1,27.1-5.1,40.1
			c-3.1,13.7-7.6,27.1-13.4,39.9c-1.9,4.2,4.4,8,6.3,3.7c10-22,16.2-45.5,18.6-69.6c0.9-9.3,2.3-20.4-2.4-28.9
			c-3.7-6.7-11.3-8.7-17.9-5c-6,3.4-11.5,13.4-19,12.8C534.4,574.5,534.4,581.8,539.1,582.2L539.1,582.2z"/>
	</g>
	<g>
		<path d="M566.9,443.7c0.8-11.4,3.5-22.4,7.7-33c1.8-4.3-5.3-6.2-7-1.9c-4.5,11.2-7.1,22.9-8,34.9
			C559.3,448.4,566.6,448.3,566.9,443.7L566.9,443.7z"/>
	</g>
	<g>
		<path d="M437.5,329.5c1.6,7.6,3.1,15.2,4.7,22.8c1,4.6,8,2.6,7-1.9c-1.6-7.6-3.1-15.2-4.7-22.8C443.5,323,436.5,325,437.5,329.5
			L437.5,329.5z"/>
	</g>
	<g>
		<path d="M408.6,471.9c6.1,8.8,8.9,19.1,8.7,29.8c-0.1,4.7,7.2,4.7,7.3,0c0.2-11.9-3-23.6-9.7-33.5
			C412.2,464.4,405.9,468,408.6,471.9L408.6,471.9z"/>
	</g>
</g>
</svg>
