<svg xmlns="http://www.w3.org/2000/svg" width="1000" height="1000"><style>.st0,.st2{opacity:.7;fill:#ff8400}.st2{fill:#7ebf15}</style><path class="st0" d="M400.1 350.5c-2.6-4 2.2-8.6 6.4-11 19.5-11 39-22.1 58.6-33.1 1.4-.8 2.9-1.6 4.4-1.6 3.6 0 5.7 3.9 7 7.2 6.7 16.4 13.3 32.8 20 49.3 6.2 15.3-30 23.1-41.2 20.6-11.1-2.4-49.3-22-55.2-31.4zm200.8 7.5c-13.5-17.4-29-33.1-46-46.7-1.8-1.4-3.7-2.9-5.8-3.4-11.2-2.9-25 18.5-29.7 30.5l-.7-.7c-3 6.7-5.4 13.8-7.1 21-.6 2.5-1 5.3.5 7.4 1.4 1.8 3.8 2.3 6 2.7 4.6.8 9.1 1.6 13.7 2.4 8.9 6.3 23.2 15.2 29.5 17.2 9.7 3 42.4-4.2 44.4-18.5.5-4.5-2.2-8.5-4.8-11.9zm-138.3 80.8c1.9 2.2 4.4 4.5 4.4 7.4 0 2.4-1.5 4.4-2.9 6.3-8.6 11.1-17.3 22.2-25.9 33.3-3.5 4.5-7.3 9.2-12.5 11.4-12.3 5.1-25.1-5.6-33.5-15.9-9.1-11.3-17.4-23.4-24.6-36-2-3.5-3.9-7.2-4.2-11.2-.8-10.8 10-18.6 20-22.7 15.2-6.3 45-15.7 61.4-9 19.3 7.9 4.8 21.2 17.8 36.4zm14.7 67c-1.1 6.5-2.2 13.3-.2 19.5 4.3 13.6 20.4 17.6 33.7 17.7 24.2.1 50-6.2 66.4-25.5.9-1 1.7-2.2 1.9-3.5.2-1.5-.6-2.8-1.2-4.1-11.2-20.8-21.3-44.5-34.9-63.4-19.3 16.7-26 1.7-45 5.6-19.2 4-17.7 36.3-20.7 53.7zM616 483.5c13-7.6 26.6-15.6 34.8-28.1s9.4-30.9-1.6-41.2c-4.7-4.4-11-6.8-17.2-9-25.3-9-54.7-23.3-66.9 5.8-8.5 20.3 3 24.1 17.5 37.9 2.9 2.8 32.9 34.9 33.4 34.6z"/><path d="M517 376.5c-15.4 2.1-29.9 9.7-40.4 21.1-6 6.5-10.9 14.8-10.5 23.6.4 10.2 8.2 19.2 17.6 23.3s20.1 4 30.3 2.3c14.5-2.5 29-8.9 38-20.5s11.3-29.2 2.7-41.1C544 370.7 523 369.5 505 370.7" opacity=".7" fill="#ffd900"/><path class="st2" d="M479 586.1c3.6 63.8 10 127.5 19 190.8 6.1-5.3 12.1-10.7 18.2-16.1 10.2-24.6 23.3-48 39-69.6-3.3-2.7-6.7-5.3-10-8-12.8 18.5-24.5 37.9-34.9 57.8-22.9-60-16.6-122-16.7-184.5-16.9-4.4-15.3 18.4-14.6 29.6z"/><path class="st2" d="M436.8 628.4c-17.1-20.6-24.9-48.5-21-74.9-2.7 11.8-5.4 23.5-8 35.2-26.8-23.9-64-35.7-99.7-31.6 13.6 25.6 32.8 48.3 55.8 65.9-16.6 9.8-30.4 24.3-39.1 41.5-2.4 4.7-4.5 10.1-2.7 15.1 3.3 9.5 16.7 9.6 26.4 7 31.5-8.4 60.3-27 81-52.2 22.7 28.9 42.3 60.3 58.3 93.4.9-7.3 1.7-14.7 2.5-22.1m92.1-78.9c-8.4 3-16.2 7.8-22.8 13.9-7 6.4-12.8 15.2-12.3 24.7.9 15.5 18.9 25.2 34.2 23.3s28.3-12.1 40.4-21.8c-6.6-3-12.1-8.3-15.4-14.7-1.5-2.9-2.8-6.3-5.8-7.6-5.5-2.5-11.7 4.2-17.6 2.5-4.4-1.2-6.2-6.9-4.9-11.2 1.3-4.4 4.7-7.7 8-10.8"/><path class="st0" d="M603.8 613.8c-10.1.6-17.9 12.4-14.5 21.9 9.1-1.1 20.2-1.2 25.4 6.4 3.8 5.5 5.4 15 12 14.3 3.4-.3 5.7-3.6 7.2-6.7 3.9-8 6-16.8 6.2-25.6 0-1.8 0-3.8-1.1-5.3-1.3-1.9-3.6-2.6-5.8-3.2-13.4-3.6-28.7-6.3-40.4 1.2"/><path d="M463.7 403.4c-34-14.2-74.5-9.1-104.1 12.8-3.3 2.5-.1 8.1 3.3 5.6 28.4-21.1 66.4-25.8 99.1-12.2 3.8 1.7 5.5-4.6 1.7-6.2z"/><path d="M352.5 410.3c2.4 40.1 24.5 77.6 58.6 98.9 3.5 2.2 6.8-3.4 3.3-5.6-32.1-20.1-53.1-55.5-55.4-93.3-.3-4.1-6.8-4.2-6.5 0z"/><path d="M413.6 511.8c22.8-10.2 41.1-28.7 51.1-51.6 1.7-3.8-3.9-7.1-5.6-3.3-9.6 22-26.9 39.4-48.8 49.2-3.8 1.8-.5 7.4 3.3 5.7zM501 350c-5-14.3-10.1-28.6-15.1-43-1.6-4.5-2.8-10.8-6.6-14-4.2-3.5-8.8-1.2-13 1.1-27.1 15.1-54 30.5-81 45.8-3.6 2.1-.4 7.7 3.3 5.6 22.6-12.8 45.2-25.5 67.8-38.3 4.8-2.7 11.8-8.7 17.2-8.4 2.8.1 2.6.7 3.5 3 .5 1.3.9 2.7 1.4 4 1 3 2.1 6 3.2 9 4.3 12.3 8.6 24.6 13 37 1.4 3.8 7.7 2.2 6.3-1.8z"/><path d="M380.1 345.5c17.4 24.4 44.4 40.2 74.2 43.3 4.1.4 4.1-6.1 0-6.5-27.3-2.9-52.7-17.8-68.6-40.1-2.4-3.3-8-.1-5.6 3.3zm131.3 11.9c2.2-11.6 6.4-22.6 12.7-32.6 1.7-2.7 20.2-27.8 24.1-20.6 2 3.7 7.6.4 5.6-3.3-7.2-13.4-24 5.6-28.8 11.5-10.1 12.6-16.9 27.4-19.8 43.2-.8 4.2 5.4 5.9 6.2 1.8z"/><path d="M547.8 302.1c20.4 8.6 38.4 23 51.3 40.9 3 4.2 5.8 8.6 8.3 13.2 2.4 4.4 8.2 12.9 5.1 17.8-2.9 4.6-11.2 7.2-15.8 9.6-6 3.1-12 6.2-18.1 9.4-3.7 1.9-.4 7.5 3.3 5.6 7.2-3.8 14.5-7.5 21.7-11.2 5-2.6 11.4-5 14.5-10 3.3-5.3 1.2-11.1-1.2-16.2-2.7-6-5.8-11.8-9.5-17.2-14.1-21.4-34.4-38-58-48-3.7-1.8-5.4 4.5-1.6 6.1zm-58 156.8c5.5-1 3.8-9.3-1.5-9.2-2.8.1-4.5 2.3-5.9 4.4-2.9 4.7-5.2 9.9-7.4 14.9-4.2 9.5-7.8 19.3-10.4 29.4-2.5 9.3-5.2 19.6-2.9 29.2 3.6 15.1 18.7 23.7 32.9 26.8 15.2 3.3 30.5.2 44.9-4.8 17-5.8 33.8-13.9 48-25 3.3-2.6-1.3-7.1-4.6-4.6-12.4 9.7-27.3 16.9-42.1 22.2-13.9 5-29 9-43.8 6-7.6-1.6-15.3-4.5-21.1-9.7-7.4-6.6-9.4-15.3-8-24.9 1.4-9.7 4.4-19.3 7.7-28.5 1.9-5.3 4-10.5 6.3-15.6 1.1-2.4 2.2-4.7 3.4-7 .3-.6 5.4-10.5 2.8-10-4.1.9-2.4 7.1 1.7 6.4zm53.4-16.3c14.8 25.3 31.4 49.4 49.6 72.3 2.6 3.3 7.2-1.3 4.6-4.6-17.8-22.5-34-46.2-48.6-71-2.1-3.6-7.7-.3-5.6 3.3z"/><path d="M567.6 394.3c34.8-.5 84.2.9 97.9 40.8 1.3 3.9 7.6 2.2 6.3-1.7-6-17.4-20.2-30-36.8-37.1-21.2-9-44.8-8.8-67.3-8.5-4.3.1-4.3 6.6-.1 6.5zm-5.2 50c12.8 14.1 25.7 28.3 38.5 42.4 2.8 3.1 7.4-1.5 4.6-4.6-12.8-14.1-25.7-28.3-38.5-42.4-2.9-3.1-7.4 1.5-4.6 4.6z"/><path d="M601 500.5c17.1 8.4 35-7.8 45.9-19.4 13-13.8 22.5-30.5 27.9-48.6 1.2-4-5.1-5.7-6.3-1.7-4.6 15.4-12.2 29.8-22.8 42-8.7 10-26.6 29.5-41.5 22.2-3.7-1.9-7 3.7-3.2 5.5zm-87.2-132.8c-15.5 2.3-30.1 9.6-41.1 20.8-10.9 11.1-19.4 27.5-12.2 42.8 6.5 13.7 22.1 22 36.5 24.4 15.4 2.6 31.3-.5 44.3-9.2 3.5-2.3.2-7.9-3.3-5.6-11.3 7.5-25 10.7-38.5 8.7-12.5-1.9-26.5-8.5-32.7-20.1-7.4-14 2.6-29.3 12.8-38.7 9.9-9.2 22.5-14.9 35.8-16.8 4.2-.6 2.5-6.9-1.6-6.3zm31.6 11.8c18.1 11.5 18.5 37.6.8 49.6-3.5 2.3-.2 8 3.3 5.6 21.9-14.8 21.6-46.6-.7-60.8-3.7-2.3-7 3.4-3.4 5.6z"/><path d="M521.5 386v2.5c0 1.7 1.5 3.3 3.2 3.2s3.2-1.4 3.2-3.2V386c0-1.7-1.5-3.3-3.2-3.2-1.7 0-3.2 1.4-3.2 3.2zm-29.6 20.9c4.2 0 4.2-6.5 0-6.5s-4.2 6.5 0 6.5zm37.9 5.1c4.2 0 4.2-6.5 0-6.5s-4.2 6.5 0 6.5zm-12.7 20.2c4.2 0 4.2-6.5 0-6.5-4.1 0-4.1 6.5 0 6.5zm-99.6 14.4c5.9-4.1 11.9-8.3 17.8-12.5 3.4-2.4.2-8-3.3-5.6-5.9 4.1-11.9 8.3-17.8 12.5-3.4 2.4-.1 8 3.3 5.6zm22.4-90.9c3.4 2.5 6.7 5.1 10.1 7.6 1.4 1.1 3.6.2 4.4-1.2 1-1.7.2-3.4-1.2-4.4-3.4-2.5-6.7-5.1-10.1-7.6-1.4-1.1-3.6-.2-4.4 1.2-.9 1.6-.2 3.3 1.2 4.4zm116.9-2.1c3.4-2.5 6.7-5.1 10.1-7.6 1.4-1 2.1-2.8 1.2-4.4-.8-1.4-3-2.2-4.4-1.2-3.4 2.5-6.7 5.1-10.1 7.6-1.4 1-2.1 2.8-1.2 4.4.8 1.4 3 2.2 4.4 1.2zm-27.8 136v12.6c0 4.2 6.5 4.2 6.5 0v-12.6c0-4.2-6.5-4.2-6.5 0zm58.9-62.4c4.2 0 4.2-6.5 0-6.5s-4.2 6.5 0 6.5zM474.4 557.7c-1.5 31.6-.8 63.3 2.4 94.7 1.5 15 3.6 29.9 6.1 44.7 1.5 8.9 2.1 25.1 14.1 26.1 4.2.3 4.1-6.2 0-6.5-5.4-.5-6-11.3-6.7-15.1-1.2-6.6-2.3-13.2-3.3-19.8-2.1-14-3.7-28-4.9-42-2.2-27.3-2.6-54.8-1.3-82.1.3-4.2-6.2-4.1-6.4 0z"/><path d="M500.8 551.8c-7.7 31.7-11 64.4-9.6 97 .2 4.2 6.7 4.2 6.5 0-1.3-32.1 1.8-64.1 9.4-95.3 1-4.1-5.3-5.8-6.3-1.7zm-7.7 122.3c2.6 23.3 7 46.4 13.4 69 1.1 4 7.4 2.3 6.3-1.7-6.2-22-10.6-44.5-13.1-67.3-.6-4.1-7.1-4.2-6.6 0zm-17.8 6l18 103.5c.7 4.1 7 2.4 6.3-1.7l-18-103.5c-.7-4.2-7-2.4-6.3 1.7z"/><path d="M431.4 615.7c17.3 21.8 32.2 45.4 44.5 70.3 1.9 3.8 7.5.5 5.6-3.3-12.5-25.5-27.8-49.4-45.5-71.6-2.6-3.3-7.2 1.3-4.6 4.6zm-2.6 32.9c12.8 14.4 23.6 30.2 32.5 47.2 1.9 3.7 7.5.4 5.6-3.3-9.1-17.5-20.4-33.8-33.5-48.6-2.8-3.1-7.4 1.5-4.6 4.7z"/><path d="M435.1 615c-11.9-21.4-16.4-45.8-13.2-70 .4-2.9-3.7-4.1-5.5-2.3-11.6 11.3-16.6 27.3-13.9 43.3 1.8-1 3.6-2.1 5.4-3.2-25.1-25.2-59.9-39.3-95.4-38.7-4.2.1-4.2 6.6 0 6.5 33.9-.5 66.9 12.9 90.8 36.8 2.5 2.5 6-.1 5.4-3.2-2.4-13.6 2.3-27.4 12.2-37-1.9-.8-3.7-1.5-5.5-2.3-3.3 25.3 1.8 51 14.1 73.2 2 3.9 7.6.6 5.6-3.1zm-137.3-58.6c6.3 30 26.1 56.1 53.2 70.3 3.7 1.9 7-3.7 3.3-5.6-25.8-13.5-44.3-38-50.2-66.4-.9-4.2-7.2-2.4-6.3 1.7z"/><path d="M354.5 622.8c-21.9 6.7-37.7 26-40.4 48.6-.5 4.1 6 4.1 6.5 0 2.3-19.7 16.8-36.6 35.6-42.4 4-1.2 2.3-7.4-1.7-6.2zM316 684.9c45.5 16.4 85.9-18.8 116.2-48.1 3-2.9-1.6-7.5-4.6-4.6-28.6 27.7-66.7 62-109.9 46.4-3.9-1.4-5.6 4.9-1.7 6.3zm191.1 73.3c4.7-28.6 18.4-54.9 39.3-75 3-2.9-1.6-7.5-4.6-4.6-21.6 20.9-36 48.3-41 77.9-.6 4.1 5.7 5.8 6.3 1.7zm14.7-4.5c10.4-18.4 20.8-36.7 31.2-55.1 2.1-3.6-3.5-6.9-5.6-3.3-10.4 18.4-20.8 36.7-31.2 55.1-2.1 3.6 3.5 6.9 5.6 3.3z"/><path d="M580.2 617.3c-14.9 5-28.6 15-35.2 29.7-5.7 12.7-4.7 28.1 3.2 39.7 8.8 13 24.4 17.2 39.3 13.6 17.9-4.4 30.9-18.4 42.7-31.7 2.8-3.1-1.8-7.7-4.6-4.6-9.9 11.1-20.4 23.2-34.8 28.5-13.2 4.8-28.6 3.2-37-9.1-6.9-10.1-7.8-23.6-2.5-34.6 6-12.4 17.8-21 30.6-25.2 3.9-1.4 2.3-7.6-1.7-6.3z"/><path d="M591.3 615.2c-5.7 4.9-11.8 10.9-10.9 19 .7 6.4 5.5 11.3 12.1 10.9 3.5-.2 6.6-1.8 9.9-2.8 4.6-1.4 6.1.5 7.1 4.8 1.2 4.7 2.3 10.6 8.5 10.3 4.2-.2 4.2-6.7 0-6.5-1.7.1-3.2-9.3-4.2-11-2.1-3.6-5.7-5.2-9.7-4.7-4.3.5-11.8 5.8-15.6 2.3-6.3-5.8 3.3-14.2 7.3-17.7 3.3-2.7-1.3-7.3-4.5-4.6z"/><path d="M590 620.6c11.8-9.2 28.4-11.3 42.1-5.2 3.8 1.7 7.1-3.9 3.3-5.6-16.7-7.4-35.6-5-50 6.2-3.3 2.5 1.3 7.1 4.6 4.6zm50.8 2.9c1.5 16.5-5 32.3-17.7 42.9-3.2 2.7 1.4 7.3 4.6 4.6 13.8-11.6 21.2-29.5 19.6-47.5-.3-4.2-6.8-4.2-6.5 0z"/></svg>