<?xml version="1.0" encoding="utf-8"?>
<!-- Generator: Adobe Illustrator 23.0.2, SVG Export Plug-In . SVG Version: 6.00 Build 0)  -->
<svg version="1.1" id="Layer_1" xmlns="http://www.w3.org/2000/svg" xmlns:xlink="http://www.w3.org/1999/xlink" x="0px" y="0px"
	 viewBox="0 0 1000 1000" style="enable-background:new 0 0 1000 1000;" xml:space="preserve">
<style type="text/css">
	.st0{opacity:0.7;fill:#FF8400;}
	.st1{opacity:0.7;fill:#FFD900;}
	.st2{opacity:0.7;fill:#7EBF15;}
</style>
<g>
	<path class="st0" d="M400.1,350.5c-2.6-4,2.2-8.6,6.4-11c19.5-11,39-22.1,58.6-33.1c1.4-0.8,2.9-1.6,4.4-1.6c3.6,0,5.7,3.9,7,7.2
		c6.7,16.4,13.3,32.8,20,49.3c6.2,15.3-30,23.1-41.2,20.6C444.2,379.5,406,359.9,400.1,350.5z"/>
	<path class="st0" d="M600.9,358c-13.5-17.4-29-33.1-46-46.7c-1.8-1.4-3.7-2.9-5.8-3.4c-11.2-2.9-25,18.5-29.7,30.5l-0.7-0.7
		c-3,6.7-5.4,13.8-7.1,21c-0.6,2.5-1,5.3,0.5,7.4c1.4,1.8,3.8,2.3,6,2.7c4.6,0.8,9.1,1.6,13.7,2.4c8.9,6.3,23.2,15.2,29.5,17.2
		c9.7,3,42.4-4.2,44.4-18.5C606.2,365.4,603.5,361.4,600.9,358z"/>
	<path class="st0" d="M462.6,438.8c1.9,2.2,4.4,4.5,4.4,7.4c0,2.4-1.5,4.4-2.9,6.3c-8.6,11.1-17.3,22.2-25.9,33.3
		c-3.5,4.5-7.3,9.2-12.5,11.4c-12.3,5.1-25.1-5.6-33.5-15.9c-9.1-11.3-17.4-23.4-24.6-36c-2-3.5-3.9-7.2-4.2-11.2
		c-0.8-10.8,10-18.6,20-22.7c15.2-6.3,45-15.7,61.4-9C464.1,410.3,449.6,423.6,462.6,438.8z"/>
	<path class="st0" d="M477.3,505.8c-1.1,6.5-2.2,13.3-0.2,19.5c4.3,13.6,20.4,17.6,33.7,17.7c24.2,0.1,50-6.2,66.4-25.5
		c0.9-1,1.7-2.2,1.9-3.5c0.2-1.5-0.6-2.8-1.2-4.1c-11.2-20.8-21.3-44.5-34.9-63.4c-19.3,16.7-26,1.7-45,5.6
		C478.8,456.1,480.3,488.4,477.3,505.8z"/>
	<path class="st0" d="M616,483.5c13-7.6,26.6-15.6,34.8-28.1s9.4-30.9-1.6-41.2c-4.7-4.4-11-6.8-17.2-9c-25.3-9-54.7-23.3-66.9,5.8
		c-8.5,20.3,3,24.1,17.5,37.9C585.5,451.7,615.5,483.8,616,483.5z"/>
	<path class="st1" d="M517,376.5c-15.4,2.1-29.9,9.7-40.4,21.1c-6,6.5-10.9,14.8-10.5,23.6c0.4,10.2,8.2,19.2,17.6,23.3
		s20.1,4,30.3,2.3c14.5-2.5,29-8.9,38-20.5c9-11.6,11.3-29.2,2.7-41.1C544,370.7,523,369.5,505,370.7"/>
	<path class="st2" d="M479,586.1c3.6,63.8,10,127.5,19,190.8c6.1-5.3,12.1-10.7,18.2-16.1c10.2-24.6,23.3-48,39-69.6
		c-3.3-2.7-6.7-5.3-10-8c-12.8,18.5-24.5,37.9-34.9,57.8c-22.9-60-16.6-122-16.7-184.5C476.7,552.1,478.3,574.9,479,586.1z"/>
	<path class="st2" d="M436.8,628.4c-17.1-20.6-24.9-48.5-21-74.9c-2.7,11.8-5.4,23.5-8,35.2c-26.8-23.9-64-35.7-99.7-31.6
		c13.6,25.6,32.8,48.3,55.8,65.9c-16.6,9.8-30.4,24.3-39.1,41.5c-2.4,4.7-4.5,10.1-2.7,15.1c3.3,9.5,16.7,9.6,26.4,7
		c31.5-8.4,60.3-27,81-52.2c22.7,28.9,42.3,60.3,58.3,93.4c0.9-7.3,1.7-14.7,2.5-22.1"/>
	<path class="st2" d="M582.4,626.8c-8.4,3-16.2,7.8-22.8,13.9c-7,6.4-12.8,15.2-12.3,24.7c0.9,15.5,18.9,25.2,34.2,23.3
		s28.3-12.1,40.4-21.8c-6.6-3-12.1-8.3-15.4-14.7c-1.5-2.9-2.8-6.3-5.8-7.6c-5.5-2.5-11.7,4.2-17.6,2.5c-4.4-1.2-6.2-6.9-4.9-11.2
		c1.3-4.4,4.7-7.7,8-10.8"/>
	<path class="st0" d="M603.8,613.8c-10.1,0.6-17.9,12.4-14.5,21.9c9.1-1.1,20.2-1.2,25.4,6.4c3.8,5.5,5.4,15,12,14.3
		c3.4-0.3,5.7-3.6,7.2-6.7c3.9-8,6-16.8,6.2-25.6c0-1.8,0-3.8-1.1-5.3c-1.3-1.9-3.6-2.6-5.8-3.2c-13.4-3.6-28.7-6.3-40.4,1.2"/>
	<g>
		<g>
			<path d="M463.7,403.4c-34-14.2-74.5-9.1-104.1,12.8c-3.3,2.5-0.1,8.1,3.3,5.6c28.4-21.1,66.4-25.8,99.1-12.2
				C465.8,411.3,467.5,405,463.7,403.4L463.7,403.4z"/>
		</g>
		<g>
			<path d="M352.5,410.3c2.4,40.1,24.5,77.6,58.6,98.9c3.5,2.2,6.8-3.4,3.3-5.6c-32.1-20.1-53.1-55.5-55.4-93.3
				C358.7,406.2,352.2,406.1,352.5,410.3L352.5,410.3z"/>
		</g>
		<g>
			<path d="M413.6,511.8c22.8-10.2,41.1-28.7,51.1-51.6c1.7-3.8-3.9-7.1-5.6-3.3c-9.6,22-26.9,39.4-48.8,49.2
				C406.5,507.9,409.8,513.5,413.6,511.8L413.6,511.8z"/>
		</g>
		<g>
			<path d="M501,350c-5-14.3-10.1-28.6-15.1-43c-1.6-4.5-2.8-10.8-6.6-14c-4.2-3.5-8.8-1.2-13,1.1c-27.1,15.1-54,30.5-81,45.8
				c-3.6,2.1-0.4,7.7,3.3,5.6c22.6-12.8,45.2-25.5,67.8-38.3c4.8-2.7,11.8-8.7,17.2-8.4c2.8,0.1,2.6,0.7,3.5,3
				c0.5,1.3,0.9,2.7,1.4,4c1,3,2.1,6,3.2,9c4.3,12.3,8.6,24.6,13,37C496.1,355.6,502.4,354,501,350L501,350z"/>
		</g>
		<g>
			<path d="M380.1,345.5c17.4,24.4,44.4,40.2,74.2,43.3c4.1,0.4,4.1-6.1,0-6.5c-27.3-2.9-52.7-17.8-68.6-40.1
				C383.3,338.9,377.7,342.1,380.1,345.5L380.1,345.5z"/>
		</g>
		<g>
			<path d="M511.4,357.4c2.2-11.6,6.4-22.6,12.7-32.6c1.7-2.7,20.2-27.8,24.1-20.6c2,3.7,7.6,0.4,5.6-3.3
				c-7.2-13.4-24,5.6-28.8,11.5c-10.1,12.6-16.9,27.4-19.8,43.2C504.4,359.8,510.6,361.5,511.4,357.4L511.4,357.4z"/>
		</g>
		<g>
			<path d="M547.8,302.1c20.4,8.6,38.4,23,51.3,40.9c3,4.2,5.8,8.6,8.3,13.2c2.4,4.4,8.2,12.9,5.1,17.8c-2.9,4.6-11.2,7.2-15.8,9.6
				c-6,3.1-12,6.2-18.1,9.4c-3.7,1.9-0.4,7.5,3.3,5.6c7.2-3.8,14.5-7.5,21.7-11.2c5-2.6,11.4-5,14.5-10c3.3-5.3,1.2-11.1-1.2-16.2
				c-2.7-6-5.8-11.8-9.5-17.2c-14.1-21.4-34.4-38-58-48C545.7,294.2,544,300.5,547.8,302.1L547.8,302.1z"/>
		</g>
		<g>
			<path d="M489.8,458.9c5.5-1,3.8-9.3-1.5-9.2c-2.8,0.1-4.5,2.3-5.9,4.4c-2.9,4.7-5.2,9.9-7.4,14.9c-4.2,9.5-7.8,19.3-10.4,29.4
				c-2.5,9.3-5.2,19.6-2.9,29.2c3.6,15.1,18.7,23.7,32.9,26.8c15.2,3.3,30.5,0.2,44.9-4.8c17-5.8,33.8-13.9,48-25
				c3.3-2.6-1.3-7.1-4.6-4.6c-12.4,9.7-27.3,16.9-42.1,22.2c-13.9,5-29,9-43.8,6c-7.6-1.6-15.3-4.5-21.1-9.7
				c-7.4-6.6-9.4-15.3-8-24.9c1.4-9.7,4.4-19.3,7.7-28.5c1.9-5.3,4-10.5,6.3-15.6c1.1-2.4,2.2-4.7,3.4-7c0.3-0.6,5.4-10.5,2.8-10
				C484,453.4,485.7,459.6,489.8,458.9L489.8,458.9z"/>
		</g>
		<g>
			<path d="M543.2,442.6c14.8,25.3,31.4,49.4,49.6,72.3c2.6,3.3,7.2-1.3,4.6-4.6c-17.8-22.5-34-46.2-48.6-71
				C546.7,435.7,541.1,439,543.2,442.6L543.2,442.6z"/>
		</g>
		<g>
			<path d="M567.6,394.3c34.8-0.5,84.2,0.9,97.9,40.8c1.3,3.9,7.6,2.2,6.3-1.7c-6-17.4-20.2-30-36.8-37.1c-21.2-9-44.8-8.8-67.3-8.5
				C563.4,387.9,563.4,394.4,567.6,394.3L567.6,394.3z"/>
		</g>
		<g>
			<path d="M562.4,444.3c12.8,14.1,25.7,28.3,38.5,42.4c2.8,3.1,7.4-1.5,4.6-4.6c-12.8-14.1-25.7-28.3-38.5-42.4
				C564.1,436.6,559.6,441.2,562.4,444.3L562.4,444.3z"/>
		</g>
		<g>
			<path d="M601,500.5c17.1,8.4,35-7.8,45.9-19.4c13-13.8,22.5-30.5,27.9-48.6c1.2-4-5.1-5.7-6.3-1.7c-4.6,15.4-12.2,29.8-22.8,42
				c-8.7,10-26.6,29.5-41.5,22.2C600.5,493.1,597.2,498.7,601,500.5L601,500.5z"/>
		</g>
		<g>
			<path d="M513.8,367.7c-15.5,2.3-30.1,9.6-41.1,20.8c-10.9,11.1-19.4,27.5-12.2,42.8c6.5,13.7,22.1,22,36.5,24.4
				c15.4,2.6,31.3-0.5,44.3-9.2c3.5-2.3,0.2-7.9-3.3-5.6c-11.3,7.5-25,10.7-38.5,8.7c-12.5-1.9-26.5-8.5-32.7-20.1
				c-7.4-14,2.6-29.3,12.8-38.7c9.9-9.2,22.5-14.9,35.8-16.8C519.6,373.4,517.9,367.1,513.8,367.7L513.8,367.7z"/>
		</g>
		<g>
			<path d="M545.4,379.5c18.1,11.5,18.5,37.6,0.8,49.6c-3.5,2.3-0.2,8,3.3,5.6c21.9-14.8,21.6-46.6-0.7-60.8
				C545.1,371.6,541.8,377.3,545.4,379.5L545.4,379.5z"/>
		</g>
		<g>
			<path d="M521.5,386c0,0.8,0,1.7,0,2.5c0,1.7,1.5,3.3,3.2,3.2s3.2-1.4,3.2-3.2c0-0.8,0-1.7,0-2.5c0-1.7-1.5-3.3-3.2-3.2
				C523,382.8,521.5,384.2,521.5,386L521.5,386z"/>
		</g>
		<g>
			<path d="M491.9,406.9c4.2,0,4.2-6.5,0-6.5C487.7,400.4,487.7,406.9,491.9,406.9L491.9,406.9z"/>
		</g>
		<g>
			<path d="M529.8,412c4.2,0,4.2-6.5,0-6.5C525.6,405.5,525.6,412,529.8,412L529.8,412z"/>
		</g>
		<g>
			<path d="M517.1,432.2c4.2,0,4.2-6.5,0-6.5C513,425.7,513,432.2,517.1,432.2L517.1,432.2z"/>
		</g>
		<g>
			<path d="M417.5,446.6c5.9-4.1,11.9-8.3,17.8-12.5c3.4-2.4,0.2-8-3.3-5.6c-5.9,4.1-11.9,8.3-17.8,12.5
				C410.8,443.4,414.1,449,417.5,446.6L417.5,446.6z"/>
		</g>
		<g>
			<path d="M439.9,355.7c3.4,2.5,6.7,5.1,10.1,7.6c1.4,1.1,3.6,0.2,4.4-1.2c1-1.7,0.2-3.4-1.2-4.4c-3.4-2.5-6.7-5.1-10.1-7.6
				c-1.4-1.1-3.6-0.2-4.4,1.2C437.8,352.9,438.5,354.6,439.9,355.7L439.9,355.7z"/>
		</g>
		<g>
			<path d="M556.8,353.6c3.4-2.5,6.7-5.1,10.1-7.6c1.4-1,2.1-2.8,1.2-4.4c-0.8-1.4-3-2.2-4.4-1.2c-3.4,2.5-6.7,5.1-10.1,7.6
				c-1.4,1-2.1,2.8-1.2,4.4C553.2,353.8,555.4,354.6,556.8,353.6L556.8,353.6z"/>
		</g>
		<g>
			<path d="M529,489.6c0,4.2,0,8.4,0,12.6c0,4.2,6.5,4.2,6.5,0c0-4.2,0-8.4,0-12.6C535.5,485.4,529,485.4,529,489.6L529,489.6z"/>
		</g>
		<g>
			<path d="M587.9,427.2c4.2,0,4.2-6.5,0-6.5C583.7,420.7,583.7,427.2,587.9,427.2L587.9,427.2z"/>
		</g>
		<g>
			<path d="M474.4,557.7c-1.5,31.6-0.8,63.3,2.4,94.7c1.5,15,3.6,29.9,6.1,44.7c1.5,8.9,2.1,25.1,14.1,26.1c4.2,0.3,4.1-6.2,0-6.5
				c-5.4-0.5-6-11.3-6.7-15.1c-1.2-6.6-2.3-13.2-3.3-19.8c-2.1-14-3.7-28-4.9-42c-2.2-27.3-2.6-54.8-1.3-82.1
				C481.1,553.5,474.6,553.6,474.4,557.7L474.4,557.7z"/>
		</g>
		<g>
			<path d="M500.8,551.8c-7.7,31.7-11,64.4-9.6,97c0.2,4.2,6.7,4.2,6.5,0c-1.3-32.1,1.8-64.1,9.4-95.3
				C508.1,549.4,501.8,547.7,500.8,551.8L500.8,551.8z"/>
		</g>
		<g>
			<path d="M493.1,674.1c2.6,23.3,7,46.4,13.4,69c1.1,4,7.4,2.3,6.3-1.7c-6.2-22-10.6-44.5-13.1-67.3
				C499.1,670,492.6,669.9,493.1,674.1L493.1,674.1z"/>
		</g>
		<g>
			<path d="M475.3,680.1c6,34.5,12,69,18,103.5c0.7,4.1,7,2.4,6.3-1.7c-6-34.5-12-69-18-103.5C480.9,674.2,474.6,676,475.3,680.1
				L475.3,680.1z"/>
		</g>
		<g>
			<path d="M431.4,615.7c17.3,21.8,32.2,45.4,44.5,70.3c1.9,3.8,7.5,0.5,5.6-3.3c-12.5-25.5-27.8-49.4-45.5-71.6
				C433.4,607.8,428.8,612.4,431.4,615.7L431.4,615.7z"/>
		</g>
		<g>
			<path d="M428.8,648.6c12.8,14.4,23.6,30.2,32.5,47.2c1.9,3.7,7.5,0.4,5.6-3.3c-9.1-17.5-20.4-33.8-33.5-48.6
				C430.6,640.8,426,645.4,428.8,648.6L428.8,648.6z"/>
		</g>
		<g>
			<path d="M435.1,615c-11.9-21.4-16.4-45.8-13.2-70c0.4-2.9-3.7-4.1-5.5-2.3c-11.6,11.3-16.6,27.3-13.9,43.3c1.8-1,3.6-2.1,5.4-3.2
				c-25.1-25.2-59.9-39.3-95.4-38.7c-4.2,0.1-4.2,6.6,0,6.5c33.9-0.5,66.9,12.9,90.8,36.8c2.5,2.5,6-0.1,5.4-3.2
				c-2.4-13.6,2.3-27.4,12.2-37c-1.9-0.8-3.7-1.5-5.5-2.3c-3.3,25.3,1.8,51,14.1,73.2C431.5,622,437.1,618.7,435.1,615L435.1,615z"
				/>
		</g>
		<g>
			<path d="M297.8,556.4c6.3,30,26.1,56.1,53.2,70.3c3.7,1.9,7-3.7,3.3-5.6c-25.8-13.5-44.3-38-50.2-66.4
				C303.2,550.5,296.9,552.3,297.8,556.4L297.8,556.4z"/>
		</g>
		<g>
			<path d="M354.5,622.8c-21.9,6.7-37.7,26-40.4,48.6c-0.5,4.1,6,4.1,6.5,0c2.3-19.7,16.8-36.6,35.6-42.4
				C360.2,627.8,358.5,621.6,354.5,622.8L354.5,622.8z"/>
		</g>
		<g>
			<path d="M316,684.9c45.5,16.4,85.9-18.8,116.2-48.1c3-2.9-1.6-7.5-4.6-4.6c-28.6,27.7-66.7,62-109.9,46.4
				C313.8,677.2,312.1,683.5,316,684.9L316,684.9z"/>
		</g>
		<g>
			<path d="M507.1,758.2c4.7-28.6,18.4-54.9,39.3-75c3-2.9-1.6-7.5-4.6-4.6c-21.6,20.9-36,48.3-41,77.9
				C500.2,760.6,506.5,762.3,507.1,758.2L507.1,758.2z"/>
		</g>
		<g>
			<path d="M521.8,753.7c10.4-18.4,20.8-36.7,31.2-55.1c2.1-3.6-3.5-6.9-5.6-3.3c-10.4,18.4-20.8,36.7-31.2,55.1
				C514.1,754,519.7,757.3,521.8,753.7L521.8,753.7z"/>
		</g>
		<g>
			<path d="M580.2,617.3c-14.9,5-28.6,15-35.2,29.7c-5.7,12.7-4.7,28.1,3.2,39.7c8.8,13,24.4,17.2,39.3,13.6
				c17.9-4.4,30.9-18.4,42.7-31.7c2.8-3.1-1.8-7.7-4.6-4.6c-9.9,11.1-20.4,23.2-34.8,28.5c-13.2,4.8-28.6,3.2-37-9.1
				c-6.9-10.1-7.8-23.6-2.5-34.6c6-12.4,17.8-21,30.6-25.2C585.8,622.2,584.2,616,580.2,617.3L580.2,617.3z"/>
		</g>
		<g>
			<path d="M591.3,615.2c-5.7,4.9-11.8,10.9-10.9,19c0.7,6.4,5.5,11.3,12.1,10.9c3.5-0.2,6.6-1.8,9.9-2.8c4.6-1.4,6.1,0.5,7.1,4.8
				c1.2,4.7,2.3,10.6,8.5,10.3c4.2-0.2,4.2-6.7,0-6.5c-1.7,0.1-3.2-9.3-4.2-11c-2.1-3.6-5.7-5.2-9.7-4.7c-4.3,0.5-11.8,5.8-15.6,2.3
				c-6.3-5.8,3.3-14.2,7.3-17.7C599.1,617.1,594.5,612.5,591.3,615.2L591.3,615.2z"/>
		</g>
		<g>
			<path d="M590,620.6c11.8-9.2,28.4-11.3,42.1-5.2c3.8,1.7,7.1-3.9,3.3-5.6c-16.7-7.4-35.6-5-50,6.2
				C582.1,618.5,586.7,623.1,590,620.6L590,620.6z"/>
		</g>
		<g>
			<path d="M640.8,623.5c1.5,16.5-5,32.3-17.7,42.9c-3.2,2.7,1.4,7.3,4.6,4.6c13.8-11.6,21.2-29.5,19.6-47.5
				C647,619.3,640.5,619.3,640.8,623.5L640.8,623.5z"/>
		</g>
	</g>
</g>
</svg>
