<?xml version="1.0" encoding="utf-8"?>
<!-- Generator: Adobe Illustrator 23.0.2, SVG Export Plug-In . SVG Version: 6.00 Build 0)  -->
<svg version="1.1" id="Layer_1" xmlns="http://www.w3.org/2000/svg" xmlns:xlink="http://www.w3.org/1999/xlink" x="0px" y="0px"
	 viewBox="0 0 1000 1000" style="enable-background:new 0 0 1000 1000;" xml:space="preserve">
<style type="text/css">
	.st0{opacity:0.7;fill:#B5B4BF;}
	.st1{opacity:0.7;}
	.st2{fill:#6F6F75;}
	.st3{opacity:0.7;fill:#6F6F75;}
	.st4{opacity:0.7;fill:#E6E4F2;}
</style>
<g>
	<path class="st0" d="M666,455.4c6.8-6.8,19.7-10.1,19-19.7c-0.2-3.5-2.5-6.5-4.7-9.3c-6.2-7.9-12.4-15.7-18.6-23.6
		c-10.2,10.2-26.9,12.8-39.6,6.1c-12.7-6.7-20.3-22.1-17.9-36.5c1.6-9.8,7.3-19.5,4.5-29c-3.8-13.3-21.8-16.6-34.5-11.5
		c-12.7,5.1-22.6,15.6-34.8,21.7c-12.2,6.1-21.1,3.7-28-8.3c-5.7-9.9-11.7-23.5-22.2-27.8c-3.4-1.4-7.3-1-11-0.4
		c-9.8,1.4-19.6,2.8-29.4,4.1c6.8,15.8-4.3,34.9-19.7,42.1c-22.4,10.5-72.2-7.5-73.2,34.1c-0.5,18.7,20.4,36.6,11.6,53
		c-4.2,7.9-13.5,10.9-21.1,15.4c-21,12.4-31.1,41-22.7,64.2c19.5-12,47.6,0.7,56,22.2c8.5,21.5,0,47.3-16.3,63.6
		c11.2,12.6,22.4,25.2,33.7,37.8c11.6-13.8,31-20.2,48.3-16.2s32,18.5,36.5,36c0.8,2.9,1.4,6.1,3.5,8.2c2,1.9,4.8,2.5,7.5,2.9
		c11.2,1.6,22.7,0.9,33.6-2c-1.6-19,9.5-38.4,26.4-46.4c17-8,38.7-4.1,51.9,9.4c2.1,2.2,4.2,4.6,7,5.6c10.4,3.7,17.2-14,28.2-14.7
		c-6-13.7-10.4-28.6-9.1-43.6s9.5-29.9,22.9-36.1c7.4-3.4,35.5,5,41.5-0.7c12.1-11.3,15.8-49.2-24-54.9
		C655.1,498.9,654.3,467.1,666,455.4z M507.9,520.2c-2,6-4.7,12-9.5,16.1s-11.9,5.8-17.3,2.6c-6-3.5-7.8-11.4-7.9-18.5
		c-0.1-12.8,4-25.6,11.3-36l1.3,0.3c7.5-5.3,18.7-0.1,22.6,8.2C512.3,501.4,510.8,511.4,507.9,520.2z"/>
	<g class="st1">
		<path class="st2" d="M398.2,340.3c0.6,0.6,1.3,1.2,1.9,1.8c0.2-0.1,0.4-0.2,0.6-0.3L398.2,340.3z"/>
		<path class="st2" d="M410.6,356.8c-2.7-5.4-6.3-10.3-10.5-14.7c-4.4,2.6-8.8,5.1-13.2,7.7c-3,1.7-3.6,5.8-1.1,8.2
			c5.4,5.4,13.8,7.8,21.3,6.2C410.4,363.6,412.1,359.9,410.6,356.8z"/>
	</g>
	<path class="st3" d="M514,314.9c-3,7.8-3.5,17.1,1,24.1c4.6,7,15.5,9.8,21.6,4.1c-6.7-4.5-11.2-12.2-11.9-20.2
		c-0.3-3-0.1-6.2-1.4-8.9s-4.9-4.7-7.4-3"/>
	<path class="st3" d="M624.5,346.2c-8.7,12.3-13,27.6-11.7,42.6c10.3-9.1,16.6-22.6,17-36.4"/>
	<path class="st3" d="M687.2,446.4c-12,4.6-19.3,18.9-16.2,31.4c7-12,18.7-21,32.1-24.6c-2.3-4.9-5.4-9.4-9.1-13.2"/>
	<path class="st2" d="M668.1,562.3c-6.7-3.5-16,0-18.9,6.9c9.5-0.6,19.2,1,28.1,4.6c2.9-3.3,4.3-7.9,3.7-12.3"/>
	<path class="st3" d="M572.4,633.7c14.4,2.3,25.2,17.8,22.5,32.1c-4,0-8,0-12,0c-0.2-11.3-5.3-22.5-13.8-30"/>
	<path class="st3" d="M366.7,564.2c0.2,8.3,0.2,17-3.7,24.3c-3.9,7.3-13.2,12.4-20.7,8.8c9.6-12.1,19.2-24.3,28.7-36.4"/>
	<path class="st3" d="M315,454.9c0.1,2.7,0.2,5.5,0.3,8.2c9.7,2.7,20.7-0.1,27.9-7.2c-10.3,0.2-20.6-4.4-27.4-12.2"/>
	<path class="st3" d="M500.1,469c6.2,10,12.4,20.4,15.1,31.9c2.7,11.5,1.6,24.5-5.6,33.9c-3.1,4-7.2,7.3-9,12.1
		c20,1.2,39.5-15.1,41.7-35c2.3-19.9-13-40.2-32.8-43.5"/>
	<path class="st3" d="M658.6,564.7c-8.8,0.2-16.6,8.5-16.3,17.3c15.6-1.4,31.3-2.2,47-2.3"/>
	<path class="st4" d="M461.6,399c-7.4,0.9-14.8,1.4-22.2,1.5c-2.7,0-5,1.9-5.7,4.4l-0.9,3.3c-0.1,0.5-0.3,0.9-0.5,1.4
		c-15.3,28.2-32.3,55.5-50.7,81.8c-2.7,3.9,0,9.3,4.8,9.4c5.9,0.1,11.8,0.6,17.6,1.4c3.4,0.5,6.4-2.1,6.7-5.5
		c0.2-2.6,1.2-5.4,2.2-7.9c12.8-29.5,31.1-56.6,53.5-79.6C470.4,405.1,467.1,398.3,461.6,399z"/>
	<g>
		<path d="M341.8,401.8c6.9-20.4,22.2-36.4,41.8-44.9c6.8-3,0.9-13-5.9-10c-22.4,9.8-39.3,28.8-47.1,51.9
			C328.1,405.8,339.4,408.9,341.8,401.8L341.8,401.8z"/>
	</g>
	<g>
		<path d="M375.3,354.1c7.5,19.6,29.8,24.7,47.8,16.8c17.2-7.5,35.1-26.6,25.1-46.3c-3.4-6.7-13.4-0.8-10,5.9
			c6.4,12.6-9.2,24.9-19,29.5c-11.1,5.2-27.6,4.2-32.7-9C383.8,344.1,372.6,347.1,375.3,354.1L375.3,354.1z"/>
	</g>
	<g>
		<path d="M378.6,358.5c8.6-6.3,17.8-11.6,27.6-15.8c-2.8-1.2-5.7-2.3-8.5-3.5c2,10.2,8.3,18.7,17.3,23.7c6.5,3.6,12.4-6.4,5.9-10
			c-6.6-3.7-10.5-9.4-12-16.8c-0.8-4.1-5.4-4.8-8.5-3.5c-9.8,4.2-19,9.4-27.6,15.8C366.8,352.9,372.6,362.9,378.6,358.5L378.6,358.5
			z"/>
	</g>
	<g>
		<path d="M448.5,329c14.2-6.7,29.7-11.2,45.4-12.3c3.8-0.3,5.9-1.1,7,2.7c0.8,2.9,0.6,6.4,1.3,9.4c1.3,6.1,3.9,12,7.9,16.8
			c7.6,8.9,20.6,12.6,31.8,9c12-3.9,19.5-14.8,20.6-27.1c0.7-7.4-10.9-7.4-11.6,0c-1.2,12.8-14.9,20.8-26.5,14.9
			c-5.8-2.9-9-8.6-10.6-14.6c-1.3-5.1-0.5-11.2-2.9-16c-5.1-10.2-19.9-6.5-28.7-5.2c-13.7,2.2-26.9,6.5-39.5,12.5
			C435.9,322.2,441.8,332.2,448.5,329L448.5,329z"/>
	</g>
	<g>
		<path d="M503.7,317c3.5-0.6,15-4.1,17-1.3c1,1.5,0.6,6.2,0.9,8.2c0.5,3.1,1.2,6.1,2.2,9.1c2.7,7.7,9.3,23.5,19.8,17.4
			c6.5-3.7,0.6-13.8-5.9-10c-0.4,0.2-0.8,0.5-1.2,0.7c1.5-0.2,3-0.4,4.5-0.6c-4.3-0.9-7-13.2-7.7-16.6c-1-4.8-0.2-10.5-2.8-14.9
			c-5.8-10.1-21.1-4.5-29.9-3.1C493.3,307,496.4,318.2,503.7,317L503.7,317z"/>
	</g>
	<g>
		<path d="M563.5,330.2c9,2,17.9,4.2,26.7,6.7c4,1.1,8,2.3,12,3.5c1.6,0.5,10.8,2.3,11.3,3.8c0.4,1.1-3.4,6.7-3.9,8
			c-1.4,3.6-2.4,7.2-3,11c-1.1,6.9-1.3,13.9-0.3,20.8c1.9,12.3,8.9,22.7,20.8,27c11,4,22.8,1.9,32-5.3c5.9-4.6-2.4-12.8-8.2-8.2
			c-8,6.3-21.3,4.9-28-2.8c-8.4-9.6-7-27.5-2.6-38.6c2-4.9,6.2-9.3,4.8-15c-1.3-5.5-6.7-7.7-11.5-9.4c-15.4-5.2-31.2-9.4-47.1-12.9
			C559.3,317.4,556.2,328.5,563.5,330.2L563.5,330.2z"/>
	</g>
	<g>
		<path d="M612.3,346c6.4,2.2,12.2,5.4,17.7,9.3c-0.9-2.2-1.8-4.4-2.7-6.5c-4.1,11-10,22.7-11.9,34.3c-1.4,8.5,1.3,17.3,9.2,21.5
			c6.6,3.5,12.5-6.5,5.9-10c-7.3-3.9-2.7-14-0.5-19.8c2.8-7.6,5.7-15.3,8.5-22.9c1-2.6-0.7-5.1-2.7-6.5c-6.3-4.6-13.1-8-20.5-10.5
			C608.3,332.4,605.3,343.6,612.3,346L612.3,346z"/>
	</g>
	<g>
		<path d="M651.3,399.6c17.1,9.8,30.7,24.9,38.3,43.1c0.9-2.2,1.8-4.4,2.7-6.5c-7.2,5.4-15,10.4-21.7,16.5
			c-5.8,5.3-7.1,11.8-7.7,19.4c-1.1,13.5,1.4,33.5,19.7,30.6c7.4-1.1,4.2-12.3-3.1-11.2c-8,1.2-5.4-22.3-4-26.1
			c1.6-4.4,6.5-7.1,10.1-9.8c4.2-3.1,8.3-6.3,12.5-9.4c1.9-1.4,3.7-4,2.7-6.5c-8.8-21.1-23.7-38.6-43.6-50
			C650.7,385.8,644.8,395.9,651.3,399.6L651.3,399.6z"/>
	</g>
	<g>
		<path d="M688.5,444.2c1.9,2.4,3.4,5.8,5.5,8c0.2,1.8,1.1,2.4,2.5,1.7c-0.6,0.4-1.2,0.7-1.8,1.1c-3.5,3-8,5-11.7,7.8
			c-5.6,4.4-9.6,8.6-10.3,15.9c-1.3,13.3,7.4,25.1,20.3,28c7.3,1.6,10.4-9.5,3.1-11.2c-6-1.3-10.3-4.9-11.6-11
			c-1.1-5.3,0.3-8,4.3-11.4c5.2-4.4,16.5-7.9,18.6-15c2.1-7.4-6.5-16.9-10.7-22.1C692,430.2,683.9,438.5,688.5,444.2L688.5,444.2z"
			/>
	</g>
	<g>
		<path d="M329.6,408.1c10,8.9,25.1,22.1,19,37.2c-2.3,5.8-7.4,10.1-12.4,13.5c-5.2,3.5-13.6,9.5-20.1,6.4c-6.7-3.1-12.6,6.9-5.9,10
			c16.5,7.7,39.6-7.7,47.5-22.3c11.3-20.8-5.2-39.9-20-53C332.2,395,324,403.2,329.6,408.1L329.6,408.1z"/>
	</g>
	<g>
		<path d="M312.9,470.8c2.2-7.4,4.9-14.5,8.2-21.5c-2.6,0.7-5.3,1.4-7.9,2.1c13.4,8.8,30.2,9.4,44.4,2.2c6.7-3.4,0.8-13.4-5.9-10
			c-10.6,5.4-22.8,4.3-32.7-2.2c-2.5-1.6-6.6-0.6-7.9,2.1c-3.8,7.8-6.9,15.9-9.4,24.2C299.6,474.9,310.8,478,312.9,470.8
			L312.9,470.8z"/>
	</g>
	<g>
		<path d="M304.8,470.8c1.4,24.8,3.9,49.4,7.5,73.9c0.7,4.6,6.8,5.2,9.7,2.6c14.6-13.5,37.2-5,43.2,12.7
			c6.4,18.7-5.1,36.7-21.9,44.7c-6.7,3.2-0.9,13.2,5.9,10c23.3-11.1,36.4-38.2,25.3-62.6c-10.7-23.4-41.5-30.6-60.7-13
			c3.2,0.8,6.5,1.7,9.7,2.6c-3.4-23.5-5.8-47.1-7.1-70.8C316,463.3,304.4,463.3,304.8,470.8L304.8,470.8z"/>
	</g>
	<g>
		<path d="M334.2,589.3c1.7,7.2,3.9,14.1,6.7,20.9c3.2-1.9,6.5-3.8,9.7-5.6c-0.4-0.4-0.7-0.8-1.1-1.2c-5.1-5.4-13.3,2.8-8.2,8.2
			c0.4,0.4,0.7,0.8,1.1,1.2c3.7,4,12-0.1,9.7-5.6c-2.8-6.8-5.1-13.8-6.7-20.9C343.7,579,332.5,582.1,334.2,589.3L334.2,589.3z"/>
	</g>
	<g>
		<path d="M339.5,591.7c9.7-3,20-6.4,26.6-14.5c6.2-7.5,7.8-17,3.8-25.9c-3-6.8-13-0.9-10,5.9c6.1,13.6-14.5,20.6-23.5,23.4
			C329.3,582.7,332.4,593.9,339.5,591.7L339.5,591.7z"/>
	</g>
	<g>
		<path d="M337.7,607.3c9.3,29.3,33.6,52.2,63.5,59.4c2.9,0.7,6.5-0.9,7.1-4c1.2-6.5,8.6-8.4,14.3-9.8c8-1.9,17.7-4.1,25.6-0.8
			c12.9,5.2,14.6,22.6,15.7,34.6c0.6,7.4,12.2,7.5,11.6,0c-1.6-18.3-5.9-41.1-26.5-46.6c-10.4-2.8-22.6-0.5-32.8,2.5
			c-8.6,2.6-17.3,7.5-19.1,17c2.4-1.3,4.8-2.7,7.1-4c-25.9-6.3-47.2-25.8-55.4-51.3C346.6,597.2,335.4,600.2,337.7,607.3
			L337.7,607.3z"/>
	</g>
	<g>
		<path d="M443.4,646.8c5.6,12.7,7.4,26.4,5.9,40.1c-0.3,2.7,2,4.7,4.3,5.6c7.3,2.8,14.7,4.2,22.5,4.5c7.5,0.2,7.5-11.3,0-11.6
			c-6.8-0.2-13.1-1.6-19.4-4.1c1.4,1.9,2.8,3.7,4.3,5.6c1.8-15.9-1-31.4-7.4-46C450.4,634.2,440.4,640.1,443.4,646.8L443.4,646.8z"
			/>
	</g>
	<g>
		<path d="M452.8,686.1c24.1,23.4,59.2,10.8,87.1,3c7.2-2,4.1-13.2-3.1-11.2c-23.1,6.5-55.5,19.7-75.8,0
			C455.7,672.7,447.5,680.9,452.8,686.1L452.8,686.1z"/>
	</g>
	<g>
		<path d="M539.5,679.2c-0.9-1.1,0.3-7.1,0.6-8.7c0.8-3.8,2.1-7.3,4-10.7c3.6-6.4,9.1-11.5,15.7-14.6c5.5-2.6,15-5.5,20.8-2.4
			c2.9,1.5,5.5,4.8,7.8,7c1.6,1.5,3.1,3.1,4.6,4.7c0.6,0.6,3.2,4.5,3.6,2.7c0.9-1.2,1.8-2.3,2.7-3.5c-0.3,0.1-0.6,0.2-0.8,0.4
			c-6.8,2.9-1,12.9,5.9,10c12.6-5.3-6.7-21.7-10.9-25.5c-4.4-4-8.5-7.6-14.6-8.2c-6-0.6-12.3,0.2-17.9,2
			c-11.6,3.7-21.5,11.7-27.3,22.5c-4.8,9-9.4,23.7-2.3,32.5C536,693.2,544.1,684.9,539.5,679.2L539.5,679.2z"/>
	</g>
	<g>
		<path d="M558.3,641.3c8.4,9,14.1,19.7,17.2,31.6c0.6,2.4,3.1,4.3,5.6,4.3c16.5-0.4,32.4-5.8,45.6-15.7c13-9.8,25-24.5,25.9-41.3
			c0.4-7.5-11.2-7.4-11.6,0c-0.7,13.6-12.5,26.2-23.2,33.5c-10.9,7.4-23.5,11.6-36.6,11.9c1.9,1.4,3.7,2.8,5.6,4.3
			c-3.5-13.8-10.4-26.2-20.2-36.7C561.4,627.6,553.2,635.8,558.3,641.3L558.3,641.3z"/>
	</g>
	<g>
		<path d="M650.7,613.7c-14.8-8.8-10.7-36.5,3.7-44c5.3-2.8,12.9-0.8,18.3,0.6c6.3,1.7,13.2,4.1,18.4,8.3c5.8,4.6,14-3.6,8.2-8.2
			c-13.5-10.8-39.8-20.2-54.7-7.8c-17.6,14.6-21.3,48.3,0.3,61.1C651.3,627.5,657.1,617.5,650.7,613.7L650.7,613.7z"/>
	</g>
	<g>
		<path d="M646.6,592.4c13.9-8.4,30.7-10.3,46.2-5.8c7.2,2.1,10.2-9.1,3.1-11.2c-18.4-5.3-38.7-3-55.2,7
			C634.4,586.2,640.2,596.2,646.6,592.4L646.6,592.4z"/>
	</g>
	<g>
		<path d="M700.2,584.4c14.9-27.3,22-59.3,8-88.5c-3.2-6.7-13.2-0.9-10,5.9c12,25.2,4.7,53.5-8,76.8
			C686.6,585.1,696.7,590.9,700.2,584.4L700.2,584.4z"/>
	</g>
	<g>
		<path d="M399.5,363.8c3.5-2.5,6.9-5,10.4-7.4c2.5-1.8,3.8-5.1,2.1-7.9c-1.5-2.5-5.4-3.9-7.9-2.1c-3.5,2.5-6.9,5-10.4,7.4
			c-2.5,1.8-3.8,5.1-2.1,7.9C393.1,364.2,397,365.6,399.5,363.8L399.5,363.8z"/>
	</g>
	<g>
		<path d="M519.2,335.4c1.4,0.6,2.2,1,3.7,1c0.8,0,1.7-0.1,2.5-0.3c2.1-0.5,3.7-2,4.8-3.7c1.6-2.6,0.6-6.5-2.1-7.9
			c-2.9-1.5-6.2-0.6-7.9,2.1c-0.1,0.1-0.1,0.2-0.2,0.3c0.3-0.4,0.6-0.8,0.9-1.2c-0.1,0.1-0.2,0.2-0.4,0.4c0.4-0.3,0.8-0.6,1.2-0.9
			c-0.2,0.1-0.4,0.2-0.6,0.3c0.5-0.2,0.9-0.4,1.4-0.6c-0.2,0.1-0.4,0.1-0.7,0.2c0.5-0.1,1-0.1,1.5-0.2c-0.2,0-0.4,0-0.7,0
			c0.5,0.1,1,0.1,1.5,0.2c-0.2,0-0.3-0.1-0.5-0.1c0.5,0.2,0.9,0.4,1.4,0.6c0,0-0.1,0-0.2-0.1c-0.7-0.4-1.4-0.6-2.2-0.7
			c-0.8-0.2-1.5-0.1-2.3,0.1c-1.3,0.4-2.8,1.4-3.5,2.7c-0.7,1.4-1.1,3-0.6,4.5C516.9,333.3,517.8,334.8,519.2,335.4L519.2,335.4z"/>
	</g>
	<g>
		<path d="M614.2,363.9c1,0.7,2.1,1.4,3.1,2.1c1.2,0.8,3.1,1,4.5,0.6c1.3-0.4,2.8-1.4,3.5-2.7c0.7-1.4,1.1-3,0.6-4.5
			c-0.5-1.5-1.4-2.6-2.7-3.5c-1-0.7-2.1-1.4-3.1-2.1c-1.2-0.8-3.1-1-4.5-0.6c-1.3,0.4-2.8,1.4-3.5,2.7c-0.7,1.4-1.1,3-0.6,4.5
			C612,361.9,612.9,363,614.2,363.9L614.2,363.9z"/>
	</g>
	<g>
		<path d="M678,462.1c1,1.7,2.1,3.5,3.2,5.2c1.6,2.6,5.3,3.8,7.9,2.1c2.6-1.7,3.8-5.2,2.1-7.9c-1-1.7-2.1-3.5-3.2-5.2
			c-1.6-2.6-5.3-3.8-7.9-2.1C677.4,455.8,676.3,459.3,678,462.1L678,462.1z"/>
	</g>
	<g>
		<path d="M589.2,646.5c-0.1,0.1-0.2,0.3-0.3,0.4c0.3-0.4,0.6-0.8,0.9-1.2c-0.4,0.5-0.9,1-1.4,1.4c0.4-0.3,0.8-0.6,1.2-0.9
			c-0.6,0.5-1.2,0.8-2,1.2c0.5-0.2,0.9-0.4,1.4-0.6c-0.2,0.1-0.3,0.1-0.5,0.2c-1.4,0.5-2.7,1.3-3.5,2.7c-0.7,1.2-1,3.1-0.6,4.5
			c0.9,2.8,4.1,5.2,7.1,4c3.2-1.2,5.7-3,7.6-5.8c0.8-1.2,1-3.1,0.6-4.5c-0.4-1.3-1.4-2.8-2.7-3.5c-1.3-0.7-3-1.1-4.5-0.6
			C591.1,644.3,590.1,645.2,589.2,646.5L589.2,646.5z"/>
	</g>
	<g>
		<path d="M457.7,668.8c0,0,0,0.1,0,0.1c0.2-0.5,0.4-0.9,0.6-1.4c0,0.1-0.1,0.1-0.1,0.2c0.3-0.4,0.6-0.8,0.9-1.2
			c0,0.1-0.1,0.1-0.2,0.2c0.4-0.3,0.8-0.6,1.2-0.9c-0.1,0-0.1,0.1-0.2,0.1c0.5-0.2,0.9-0.4,1.4-0.6c-0.1,0-0.1,0-0.2,0.1
			c0.5-0.1,1-0.1,1.5-0.2c-0.1,0-0.2,0-0.4,0c0.5,0.1,1,0.1,1.5,0.2c-0.1,0-0.2,0-0.2-0.1c0.5,0.2,0.9,0.4,1.4,0.6
			c-0.1,0-0.1-0.1-0.2-0.1c0.4,0.3,0.8,0.6,1.2,0.9c-0.1,0-0.1-0.1-0.2-0.2c0.3,0.4,0.6,0.8,0.9,1.2c0-0.1-0.1-0.1-0.1-0.2
			c0.2,0.5,0.4,0.9,0.6,1.4c0,0,0-0.1,0-0.1c-0.4-1.4-1.4-2.8-2.7-3.5c-1.2-0.7-3.1-1-4.5-0.6c-3,1-4.8,4-4,7.1
			c0.7,2.9,3.6,4.9,6.5,4.9c2.9,0,5.8-2,6.5-4.9c0.4-1.5,0.2-3.1-0.6-4.5c-0.7-1.2-2.1-2.3-3.5-2.7c-1.5-0.3-3.1-0.3-4.5,0.6
			C459.1,666.1,458.1,667.3,457.7,668.8L457.7,668.8z"/>
	</g>
	<g>
		<path d="M351.7,587.6c1.7,1.4,3.5,2.8,5.2,4.2c1.2,1,2.5,1.7,4.1,1.7c1.4,0,3.1-0.6,4.1-1.7c1.9-2.1,2.5-6.2,0-8.2
			c-1.7-1.4-3.5-2.8-5.2-4.2c-1.2-1-2.5-1.7-4.1-1.7c-1.4,0-3.1,0.6-4.1,1.7C349.8,581.5,349.2,585.6,351.7,587.6L351.7,587.6z"/>
	</g>
	<g>
		<path d="M320.7,456c0,0.4,0,0.7,0,1c0,1.5,0.6,3,1.7,4.1c1,1,2.7,1.8,4.1,1.7c1.5-0.1,3.1-0.6,4.1-1.7c1-1.1,1.7-2.5,1.7-4.1
			c0-0.4,0-0.7,0-1c0-1.5-0.6-3-1.7-4.1c-1-1-2.7-1.8-4.1-1.7c-1.5,0.1-3.1,0.6-4.1,1.7C321.4,453,320.7,454.4,320.7,456L320.7,456z
			"/>
	</g>
	<g>
		<path d="M552,587.4c17.6-24,36.1-47.4,55.5-70c4.8-5.6-3.3-13.9-8.2-8.2c-20,23.4-39.1,47.6-57.3,72.4
			C537.5,587.5,547.6,593.3,552,587.4L552,587.4z"/>
	</g>
	<g>
		<path d="M588.9,477.8c6.4-5.7,11.7-12.4,15.7-19.9c3.5-6.6-6.5-12.4-10-5.9c-3.6,6.7-8.2,12.5-13.9,17.5
			C575.1,474.6,583.3,482.8,588.9,477.8L588.9,477.8z"/>
	</g>
	<g>
		<path d="M367.8,505.7c21-29.9,41.9-59.9,62.9-89.8c4.3-6.1-5.8-11.9-10-5.9c-21,29.9-41.9,59.9-62.9,89.8
			C353.5,506,363.5,511.8,367.8,505.7L367.8,505.7z"/>
	</g>
	<g>
		<g>
			<path d="M486.8,478.4c-8.9-5.1-17.7,1.6-22,9.5c-4.9,9.2-6.4,20-4.5,30.2c3.6,19.7,21,34.8,40.8,36.3c19.5,1.6,38.4-10,45.5-28.2
				c8-20.4-0.2-41.5-15.8-55.8c-19.3-17.7-46.9-8.7-62,9.7c-4.7,5.7,3.5,14,8.2,8.2c12.2-14.9,33.4-23,48.3-6.9
				c12.7,13.8,18.3,33.5,5.4,49.3c-11.2,13.6-32.3,16-46.3,5.4c-7.2-5.5-12-13.6-13.2-22.5c-0.6-4.6-0.2-9.4,1.1-13.9
				c0.6-2.2,4.6-13.8,8.6-11.5C487.4,492.1,493.3,482.1,486.8,478.4L486.8,478.4z"/>
		</g>
		<g>
			<path d="M485.1,544.8c22.9-5.1,38.1-29.6,30.2-52.2c-3.6-10.4-11.6-20.5-22.1-24.5c-9.5-3.7-19.4,9.7-8.1,13.4
				c7.1,2.3,10.2-8.9,3.1-11.2c-0.3-0.1-0.5-0.2-0.8-0.2c1.4,1.4,2.7,2.7,4,4c0-0.2-0.1-0.4-0.1-0.5c-0.2,1.5-0.4,3-0.6,4.5
				c-2,0.4-2.3,0.9-0.9,1.3c0.5,0.3,1.1,0.6,1.6,0.9c1.4,0.9,2.8,1.8,4,2.9c2.4,2.1,4.5,4.6,6.1,7.3c3.2,5.4,4.9,11.9,4.1,18.2
				c-1.6,12.5-11.7,22.3-23.7,24.9C474.7,535.2,477.8,546.4,485.1,544.8L485.1,544.8z"/>
		</g>
		<g>
			<path d="M513.9,496c7.7,0.7,15.1-2.2,20.8-7.3c5.5-5-2.7-13.2-8.2-8.2c-3.5,3.2-7.9,4.3-12.6,3.9
				C506.4,483.8,506.5,495.4,513.9,496L513.9,496z"/>
		</g>
		<g>
			<path d="M523.9,521.3c4.6-1.1,9.2-2.1,13.9-3.2c7.3-1.7,4.2-12.9-3.1-11.2c-4.6,1.1-9.2,2.1-13.9,3.2
				C513.5,511.8,516.6,523,523.9,521.3L523.9,521.3z"/>
		</g>
		<g>
			<path d="M522.4,542.6c1.9-0.9,3.7-1.9,5.6-2.8c2.7-1.4,3.7-5.4,2.1-7.9c-1.8-2.8-5-3.5-7.9-2.1c-1.9,0.9-3.7,1.9-5.6,2.8
				c-2.7,1.4-3.7,5.4-2.1,7.9C516.2,543.3,519.5,544.1,522.4,542.6L522.4,542.6z"/>
		</g>
	</g>
</g>
</svg>
