<svg version="1.1" id="Layer_1" xmlns="http://www.w3.org/2000/svg" x="0" y="0" viewBox="0 0 1000 1000" xml:space="preserve"><style>.st2,.st3{fill:#6f6f75}.st3{opacity:.7}</style><path d="M666 455.4c6.8-6.8 19.7-10.1 19-19.7-.2-3.5-2.5-6.5-4.7-9.3-6.2-7.9-12.4-15.7-18.6-23.6-10.2 10.2-26.9 12.8-39.6 6.1-12.7-6.7-20.3-22.1-17.9-36.5 1.6-9.8 7.3-19.5 4.5-29-3.8-13.3-21.8-16.6-34.5-11.5-12.7 5.1-22.6 15.6-34.8 21.7-12.2 6.1-21.1 3.7-28-8.3-5.7-9.9-11.7-23.5-22.2-27.8-3.4-1.4-7.3-1-11-.4-9.8 1.4-19.6 2.8-29.4 4.1 6.8 15.8-4.3 34.9-19.7 42.1-22.4 10.5-72.2-7.5-73.2 34.1-.5 18.7 20.4 36.6 11.6 53-4.2 7.9-13.5 10.9-21.1 15.4-21 12.4-31.1 41-22.7 64.2 19.5-12 47.6.7 56 22.2 8.5 21.5 0 47.3-16.3 63.6 11.2 12.6 22.4 25.2 33.7 37.8 11.6-13.8 31-20.2 48.3-16.2s32 18.5 36.5 36c.8 2.9 1.4 6.1 3.5 8.2 2 1.9 4.8 2.5 7.5 2.9 11.2 1.6 22.7.9 33.6-2-1.6-19 9.5-38.4 26.4-46.4 17-8 38.7-4.1 51.9 9.4 2.1 2.2 4.2 4.6 7 5.6 10.4 3.7 17.2-14 28.2-14.7-6-13.7-10.4-28.6-9.1-43.6s9.5-29.9 22.9-36.1c7.4-3.4 35.5 5 41.5-.7 12.1-11.3 15.8-49.2-24-54.9-16.2-2.2-17-34-5.3-45.7zm-158.1 64.8c-2 6-4.7 12-9.5 16.1s-11.9 5.8-17.3 2.6c-6-3.5-7.8-11.4-7.9-18.5-.1-12.8 4-25.6 11.3-36l1.3.3c7.5-5.3 18.7-.1 22.6 8.2 3.9 8.5 2.4 18.5-.5 27.3z" opacity=".7" fill="#b5b4bf"/><path class="st2" d="M398.2 340.3c.6.6 1.3 1.2 1.9 1.8l.6-.3-2.5-1.5zm12.4 16.5c-2.7-5.4-6.3-10.3-10.5-14.7-4.4 2.6-8.8 5.1-13.2 7.7-3 1.7-3.6 5.8-1.1 8.2 5.4 5.4 13.8 7.8 21.3 6.2 3.3-.6 5-4.3 3.5-7.4z" opacity=".7"/><path class="st3" d="M514 314.9c-3 7.8-3.5 17.1 1 24.1 4.6 7 15.5 9.8 21.6 4.1-6.7-4.5-11.2-12.2-11.9-20.2-.3-3-.1-6.2-1.4-8.9s-4.9-4.7-7.4-3m108.6 35.2c-8.7 12.3-13 27.6-11.7 42.6 10.3-9.1 16.6-22.6 17-36.4m57.4 94c-12 4.6-19.3 18.9-16.2 31.4 7-12 18.7-21 32.1-24.6-2.3-4.9-5.4-9.4-9.1-13.2"/><path class="st2" d="M668.1 562.3c-6.7-3.5-16 0-18.9 6.9 9.5-.6 19.2 1 28.1 4.6 2.9-3.3 4.3-7.9 3.7-12.3"/><path class="st3" d="M572.4 633.7c14.4 2.3 25.2 17.8 22.5 32.1h-12c-.2-11.3-5.3-22.5-13.8-30m-202.4-71.6c.2 8.3.2 17-3.7 24.3-3.9 7.3-13.2 12.4-20.7 8.8 9.6-12.1 19.2-24.3 28.7-36.4m-56-106c.1 2.7.2 5.5.3 8.2 9.7 2.7 20.7-.1 27.9-7.2-10.3.2-20.6-4.4-27.4-12.2M500.1 469c6.2 10 12.4 20.4 15.1 31.9 2.7 11.5 1.6 24.5-5.6 33.9-3.1 4-7.2 7.3-9 12.1 20 1.2 39.5-15.1 41.7-35 2.3-19.9-13-40.2-32.8-43.5m149.1 96.3c-8.8.2-16.6 8.5-16.3 17.3 15.6-1.4 31.3-2.2 47-2.3"/><path d="M461.6 399c-7.4.9-14.8 1.4-22.2 1.5-2.7 0-5 1.9-5.7 4.4l-.9 3.3c-.1.5-.3.9-.5 1.4-15.3 28.2-32.3 55.5-50.7 81.8-2.7 3.9 0 9.3 4.8 9.4 5.9.1 11.8.6 17.6 1.4 3.4.5 6.4-2.1 6.7-5.5.2-2.6 1.2-5.4 2.2-7.9 12.8-29.5 31.1-56.6 53.5-79.6 4-4.1.7-10.9-4.8-10.2z" opacity=".7" fill="#e6e4f2"/><path d="M341.8 401.8c6.9-20.4 22.2-36.4 41.8-44.9 6.8-3 .9-13-5.9-10-22.4 9.8-39.3 28.8-47.1 51.9-2.5 7 8.8 10.1 11.2 3z"/><path d="M375.3 354.1c7.5 19.6 29.8 24.7 47.8 16.8 17.2-7.5 35.1-26.6 25.1-46.3-3.4-6.7-13.4-.8-10 5.9 6.4 12.6-9.2 24.9-19 29.5-11.1 5.2-27.6 4.2-32.7-9-2.7-6.9-13.9-3.9-11.2 3.1z"/><path d="M378.6 358.5c8.6-6.3 17.8-11.6 27.6-15.8-2.8-1.2-5.7-2.3-8.5-3.5 2 10.2 8.3 18.7 17.3 23.7 6.5 3.6 12.4-6.4 5.9-10-6.6-3.7-10.5-9.4-12-16.8-.8-4.1-5.4-4.8-8.5-3.5-9.8 4.2-19 9.4-27.6 15.8-6 4.5-.2 14.5 5.8 10.1zm69.9-29.5c14.2-6.7 29.7-11.2 45.4-12.3 3.8-.3 5.9-1.1 7 2.7.8 2.9.6 6.4 1.3 9.4 1.3 6.1 3.9 12 7.9 16.8 7.6 8.9 20.6 12.6 31.8 9 12-3.9 19.5-14.8 20.6-27.1.7-7.4-10.9-7.4-11.6 0-1.2 12.8-14.9 20.8-26.5 14.9-5.8-2.9-9-8.6-10.6-14.6-1.3-5.1-.5-11.2-2.9-16-5.1-10.2-19.9-6.5-28.7-5.2-13.7 2.2-26.9 6.5-39.5 12.5-6.8 3.1-.9 13.1 5.8 9.9z"/><path d="M503.7 317c3.5-.6 15-4.1 17-1.3 1 1.5.6 6.2.9 8.2.5 3.1 1.2 6.1 2.2 9.1 2.7 7.7 9.3 23.5 19.8 17.4 6.5-3.7.6-13.8-5.9-10-.4.2-.8.5-1.2.7l4.5-.6c-4.3-.9-7-13.2-7.7-16.6-1-4.8-.2-10.5-2.8-14.9-5.8-10.1-21.1-4.5-29.9-3.1-7.3 1.1-4.2 12.3 3.1 11.1zm59.8 13.2c9 2 17.9 4.2 26.7 6.7 4 1.1 8 2.3 12 3.5 1.6.5 10.8 2.3 11.3 3.8.4 1.1-3.4 6.7-3.9 8-1.4 3.6-2.4 7.2-3 11-1.1 6.9-1.3 13.9-.3 20.8 1.9 12.3 8.9 22.7 20.8 27 11 4 22.8 1.9 32-5.3 5.9-4.6-2.4-12.8-8.2-8.2-8 6.3-21.3 4.9-28-2.8-8.4-9.6-7-27.5-2.6-38.6 2-4.9 6.2-9.3 4.8-15-1.3-5.5-6.7-7.7-11.5-9.4-15.4-5.2-31.2-9.4-47.1-12.9-7.2-1.4-10.3 9.7-3 11.4z"/><path d="M612.3 346c6.4 2.2 12.2 5.4 17.7 9.3-.9-2.2-1.8-4.4-2.7-6.5-4.1 11-10 22.7-11.9 34.3-1.4 8.5 1.3 17.3 9.2 21.5 6.6 3.5 12.5-6.5 5.9-10-7.3-3.9-2.7-14-.5-19.8 2.8-7.6 5.7-15.3 8.5-22.9 1-2.6-.7-5.1-2.7-6.5-6.3-4.6-13.1-8-20.5-10.5-7-2.5-10 8.7-3 11.1zm39 53.6c17.1 9.8 30.7 24.9 38.3 43.1.9-2.2 1.8-4.4 2.7-6.5-7.2 5.4-15 10.4-21.7 16.5-5.8 5.3-7.1 11.8-7.7 19.4-1.1 13.5 1.4 33.5 19.7 30.6 7.4-1.1 4.2-12.3-3.1-11.2-8 1.2-5.4-22.3-4-26.1 1.6-4.4 6.5-7.1 10.1-9.8 4.2-3.1 8.3-6.3 12.5-9.4 1.9-1.4 3.7-4 2.7-6.5-8.8-21.1-23.7-38.6-43.6-50-6.5-3.9-12.4 6.2-5.9 9.9z"/><path d="M688.5 444.2c1.9 2.4 3.4 5.8 5.5 8 .2 1.8 1.1 2.4 2.5 1.7-.6.4-1.2.7-1.8 1.1-3.5 3-8 5-11.7 7.8-5.6 4.4-9.6 8.6-10.3 15.9-1.3 13.3 7.4 25.1 20.3 28 7.3 1.6 10.4-9.5 3.1-11.2-6-1.3-10.3-4.9-11.6-11-1.1-5.3.3-8 4.3-11.4 5.2-4.4 16.5-7.9 18.6-15 2.1-7.4-6.5-16.9-10.7-22.1-4.7-5.8-12.8 2.5-8.2 8.2zm-358.9-36.1c10 8.9 25.1 22.1 19 37.2-2.3 5.8-7.4 10.1-12.4 13.5-5.2 3.5-13.6 9.5-20.1 6.4-6.7-3.1-12.6 6.9-5.9 10 16.5 7.7 39.6-7.7 47.5-22.3 11.3-20.8-5.2-39.9-20-53-5.5-4.9-13.7 3.3-8.1 8.2z"/><path d="M312.9 470.8c2.2-7.4 4.9-14.5 8.2-21.5-2.6.7-5.3 1.4-7.9 2.1 13.4 8.8 30.2 9.4 44.4 2.2 6.7-3.4.8-13.4-5.9-10-10.6 5.4-22.8 4.3-32.7-2.2-2.5-1.6-6.6-.6-7.9 2.1-3.8 7.8-6.9 15.9-9.4 24.2-2.1 7.2 9.1 10.3 11.2 3.1z"/><path d="M304.8 470.8c1.4 24.8 3.9 49.4 7.5 73.9.7 4.6 6.8 5.2 9.7 2.6 14.6-13.5 37.2-5 43.2 12.7 6.4 18.7-5.1 36.7-21.9 44.7-6.7 3.2-.9 13.2 5.9 10 23.3-11.1 36.4-38.2 25.3-62.6-10.7-23.4-41.5-30.6-60.7-13 3.2.8 6.5 1.7 9.7 2.6-3.4-23.5-5.8-47.1-7.1-70.8-.4-7.6-12-7.6-11.6-.1z"/><path d="M334.2 589.3c1.7 7.2 3.9 14.1 6.7 20.9 3.2-1.9 6.5-3.8 9.7-5.6-.4-.4-.7-.8-1.1-1.2-5.1-5.4-13.3 2.8-8.2 8.2.4.4.7.8 1.1 1.2 3.7 4 12-.1 9.7-5.6-2.8-6.8-5.1-13.8-6.7-20.9-1.7-7.3-12.9-4.2-11.2 3z"/><path d="M339.5 591.7c9.7-3 20-6.4 26.6-14.5 6.2-7.5 7.8-17 3.8-25.9-3-6.8-13-.9-10 5.9 6.1 13.6-14.5 20.6-23.5 23.4-7.1 2.1-4 13.3 3.1 11.1zm-1.8 15.6c9.3 29.3 33.6 52.2 63.5 59.4 2.9.7 6.5-.9 7.1-4 1.2-6.5 8.6-8.4 14.3-9.8 8-1.9 17.7-4.1 25.6-.8 12.9 5.2 14.6 22.6 15.7 34.6.6 7.4 12.2 7.5 11.6 0-1.6-18.3-5.9-41.1-26.5-46.6-10.4-2.8-22.6-.5-32.8 2.5-8.6 2.6-17.3 7.5-19.1 17 2.4-1.3 4.8-2.7 7.1-4-25.9-6.3-47.2-25.8-55.4-51.3-2.2-7.1-13.4-4.1-11.1 3z"/><path d="M443.4 646.8c5.6 12.7 7.4 26.4 5.9 40.1-.3 2.7 2 4.7 4.3 5.6 7.3 2.8 14.7 4.2 22.5 4.5 7.5.2 7.5-11.3 0-11.6-6.8-.2-13.1-1.6-19.4-4.1 1.4 1.9 2.8 3.7 4.3 5.6 1.8-15.9-1-31.4-7.4-46-3.2-6.7-13.2-.8-10.2 5.9z"/><path d="M452.8 686.1c24.1 23.4 59.2 10.8 87.1 3 7.2-2 4.1-13.2-3.1-11.2-23.1 6.5-55.5 19.7-75.8 0-5.3-5.2-13.5 3-8.2 8.2z"/><path d="M539.5 679.2c-.9-1.1.3-7.1.6-8.7.8-3.8 2.1-7.3 4-10.7 3.6-6.4 9.1-11.5 15.7-14.6 5.5-2.6 15-5.5 20.8-2.4 2.9 1.5 5.5 4.8 7.8 7 1.6 1.5 3.1 3.1 4.6 4.7.6.6 3.2 4.5 3.6 2.7.9-1.2 1.8-2.3 2.7-3.5-.3.1-.6.2-.8.4-6.8 2.9-1 12.9 5.9 10 12.6-5.3-6.7-21.7-10.9-25.5-4.4-4-8.5-7.6-14.6-8.2-6-.6-12.3.2-17.9 2-11.6 3.7-21.5 11.7-27.3 22.5-4.8 9-9.4 23.7-2.3 32.5 4.6 5.8 12.7-2.5 8.1-8.2z"/><path d="M558.3 641.3c8.4 9 14.1 19.7 17.2 31.6.6 2.4 3.1 4.3 5.6 4.3 16.5-.4 32.4-5.8 45.6-15.7 13-9.8 25-24.5 25.9-41.3.4-7.5-11.2-7.4-11.6 0-.7 13.6-12.5 26.2-23.2 33.5-10.9 7.4-23.5 11.6-36.6 11.9 1.9 1.4 3.7 2.8 5.6 4.3-3.5-13.8-10.4-26.2-20.2-36.7-5.2-5.6-13.4 2.6-8.3 8.1z"/><path d="M650.7 613.7c-14.8-8.8-10.7-36.5 3.7-44 5.3-2.8 12.9-.8 18.3.6 6.3 1.7 13.2 4.1 18.4 8.3 5.8 4.6 14-3.6 8.2-8.2-13.5-10.8-39.8-20.2-54.7-7.8-17.6 14.6-21.3 48.3.3 61.1 6.4 3.8 12.2-6.2 5.8-10z"/><path d="M646.6 592.4c13.9-8.4 30.7-10.3 46.2-5.8 7.2 2.1 10.2-9.1 3.1-11.2-18.4-5.3-38.7-3-55.2 7-6.3 3.8-.5 13.8 5.9 10z"/><path d="M700.2 584.4c14.9-27.3 22-59.3 8-88.5-3.2-6.7-13.2-.9-10 5.9 12 25.2 4.7 53.5-8 76.8-3.6 6.5 6.5 12.3 10 5.8zM399.5 363.8c3.5-2.5 6.9-5 10.4-7.4 2.5-1.8 3.8-5.1 2.1-7.9-1.5-2.5-5.4-3.9-7.9-2.1-3.5 2.5-6.9 5-10.4 7.4-2.5 1.8-3.8 5.1-2.1 7.9 1.5 2.5 5.4 3.9 7.9 2.1zm119.7-28.4c1.4.6 2.2 1 3.7 1 .8 0 1.7-.1 2.5-.3 2.1-.5 3.7-2 4.8-3.7 1.6-2.6.6-6.5-2.1-7.9-2.9-1.5-6.2-.6-7.9 2.1-.1.1-.1.2-.2.3l.9-1.2-.4.4 1.2-.9-.6.3c.5-.2.9-.4 1.4-.6-.2.1-.4.1-.7.2.5-.1 1-.1 1.5-.2h-.7c.5.1 1 .1 1.5.2-.2 0-.3-.1-.5-.1.5.2.9.4 1.4.6 0 0-.1 0-.2-.1-.7-.4-1.4-.6-2.2-.7-.8-.2-1.5-.1-2.3.1-1.3.4-2.8 1.4-3.5 2.7-.7 1.4-1.1 3-.6 4.5.7 1.2 1.6 2.7 3 3.3zm95 28.5c1 .7 2.1 1.4 3.1 2.1 1.2.8 3.1 1 4.5.6 1.3-.4 2.8-1.4 3.5-2.7.7-1.4 1.1-3 .6-4.5-.5-1.5-1.4-2.6-2.7-3.5-1-.7-2.1-1.4-3.1-2.1-1.2-.8-3.1-1-4.5-.6-1.3.4-2.8 1.4-3.5 2.7-.7 1.4-1.1 3-.6 4.5.5 1.5 1.4 2.6 2.7 3.5zm63.8 98.2c1 1.7 2.1 3.5 3.2 5.2 1.6 2.6 5.3 3.8 7.9 2.1 2.6-1.7 3.8-5.2 2.1-7.9-1-1.7-2.1-3.5-3.2-5.2-1.6-2.6-5.3-3.8-7.9-2.1-2.7 1.6-3.8 5.1-2.1 7.9zm-88.8 184.4c-.1.1-.2.3-.3.4l.9-1.2c-.4.5-.9 1-1.4 1.4l1.2-.9c-.6.5-1.2.8-2 1.2.5-.2.9-.4 1.4-.6-.2.1-.3.1-.5.2-1.4.5-2.7 1.3-3.5 2.7-.7 1.2-1 3.1-.6 4.5.9 2.8 4.1 5.2 7.1 4 3.2-1.2 5.7-3 7.6-5.8.8-1.2 1-3.1.6-4.5-.4-1.3-1.4-2.8-2.7-3.5-1.3-.7-3-1.1-4.5-.6-1.4.5-2.4 1.4-3.3 2.7zm-131.5 22.3v.1c.2-.5.4-.9.6-1.4 0 .1-.1.1-.1.2l.9-1.2c0 .1-.1.1-.2.2l1.2-.9c-.1 0-.1.1-.2.1.5-.2.9-.4 1.4-.6-.1 0-.1 0-.2.1.5-.1 1-.1 1.5-.2h-.4c.5.1 1 .1 1.5.2-.1 0-.2 0-.2-.1.5.2.9.4 1.4.6-.1 0-.1-.1-.2-.1l1.2.9c-.1 0-.1-.1-.2-.2l.9 1.2c0-.1-.1-.1-.1-.2.2.5.4.9.6 1.4v-.1c-.4-1.4-1.4-2.8-2.7-3.5-1.2-.7-3.1-1-4.5-.6-3 1-4.8 4-4 7.1.7 2.9 3.6 4.9 6.5 4.9s5.8-2 6.5-4.9c.4-1.5.2-3.1-.6-4.5-.7-1.2-2.1-2.3-3.5-2.7-1.5-.3-3.1-.3-4.5.6-1.2.9-2.2 2.1-2.6 3.6zm-106-81.2c1.7 1.4 3.5 2.8 5.2 4.2 1.2 1 2.5 1.7 4.1 1.7 1.4 0 3.1-.6 4.1-1.7 1.9-2.1 2.5-6.2 0-8.2-1.7-1.4-3.5-2.8-5.2-4.2-1.2-1-2.5-1.7-4.1-1.7-1.4 0-3.1.6-4.1 1.7-1.9 2.1-2.5 6.2 0 8.2zm-31-131.6v1c0 1.5.6 3 1.7 4.1 1 1 2.7 1.8 4.1 1.7 1.5-.1 3.1-.6 4.1-1.7 1-1.1 1.7-2.5 1.7-4.1v-1c0-1.5-.6-3-1.7-4.1-1-1-2.7-1.8-4.1-1.7-1.5.1-3.1.6-4.1 1.7-1 1.1-1.7 2.5-1.7 4.1zM552 587.4c17.6-24 36.1-47.4 55.5-70 4.8-5.6-3.3-13.9-8.2-8.2-20 23.4-39.1 47.6-57.3 72.4-4.5 5.9 5.6 11.7 10 5.8zm36.9-109.6c6.4-5.7 11.7-12.4 15.7-19.9 3.5-6.6-6.5-12.4-10-5.9-3.6 6.7-8.2 12.5-13.9 17.5-5.6 5.1 2.6 13.3 8.2 8.3zm-221.1 27.9c21-29.9 41.9-59.9 62.9-89.8 4.3-6.1-5.8-11.9-10-5.9-21 29.9-41.9 59.9-62.9 89.8-4.3 6.2 5.7 12 10 5.9zm119-27.3c-8.9-5.1-17.7 1.6-22 9.5-4.9 9.2-6.4 20-4.5 30.2 3.6 19.7 21 34.8 40.8 36.3 19.5 1.6 38.4-10 45.5-28.2 8-20.4-.2-41.5-15.8-55.8-19.3-17.7-46.9-8.7-62 9.7-4.7 5.7 3.5 14 8.2 8.2 12.2-14.9 33.4-23 48.3-6.9 12.7 13.8 18.3 33.5 5.4 49.3-11.2 13.6-32.3 16-46.3 5.4-7.2-5.5-12-13.6-13.2-22.5-.6-4.6-.2-9.4 1.1-13.9.6-2.2 4.6-13.8 8.6-11.5 6.5 3.9 12.4-6.1 5.9-9.8z"/><path d="M485.1 544.8c22.9-5.1 38.1-29.6 30.2-52.2-3.6-10.4-11.6-20.5-22.1-24.5-9.5-3.7-19.4 9.7-8.1 13.4 7.1 2.3 10.2-8.9 3.1-11.2-.3-.1-.5-.2-.8-.2l4 4c0-.2-.1-.4-.1-.5l-.6 4.5c-2 .4-2.3.9-.9 1.3.5.3 1.1.6 1.6.9 1.4.9 2.8 1.8 4 2.9 2.4 2.1 4.5 4.6 6.1 7.3 3.2 5.4 4.9 11.9 4.1 18.2-1.6 12.5-11.7 22.3-23.7 24.9-7.2 1.6-4.1 12.8 3.2 11.2z"/><path d="M513.9 496c7.7.7 15.1-2.2 20.8-7.3 5.5-5-2.7-13.2-8.2-8.2-3.5 3.2-7.9 4.3-12.6 3.9-7.5-.6-7.4 11 0 11.6zm10 25.3c4.6-1.1 9.2-2.1 13.9-3.2 7.3-1.7 4.2-12.9-3.1-11.2-4.6 1.1-9.2 2.1-13.9 3.2-7.3 1.7-4.2 12.9 3.1 11.2zm-1.5 21.3c1.9-.9 3.7-1.9 5.6-2.8 2.7-1.4 3.7-5.4 2.1-7.9-1.8-2.8-5-3.5-7.9-2.1-1.9.9-3.7 1.9-5.6 2.8-2.7 1.4-3.7 5.4-2.1 7.9 1.7 2.8 5 3.6 7.9 2.1z"/></svg>