<svg xmlns="http://www.w3.org/2000/svg" width="1000" height="1000"><path d="M765 445.2c-1.9-13.5-7-28.2-19.3-34.3-15.6-7.7-33.8 2.3-47.9 12.4-19.8 14.1-39.1 29.2-57.6 45-14.5-7.9-21.8-27.6-21.7-45.1.2-20.6 6.9-41 4.6-61.5-4.1-36.6-35.3-63.8-49.2-97.9-9.3-22.8-10.6-48.8-3.5-72.4-11.1 42-60.3 58.3-95.4 83.8-36.9 26.9-61.4 69.9-65.8 115.4-1.8 18.6-.4 37.7-6.1 55.4-5.7 17.8-21.4 34.4-40 33-16.2-1.2-29-15.2-45.1-17.8-19.3-3.1-37.8 11.7-45.6 29.6-7.8 17.9-7.3 38.2-6.7 57.7.5 17.9 6.4 48 30.7 43.8 22.6-3.9 23.3-36.6 37.1-50 46.4-44.9 71 31.7 52.1 68.9-9 17.7-21.6 33.4-30.5 51.1-16.3 32.4-19.4 71.2-8.3 105.8 1.9-19.1 27.4-28.4 44.9-20.4s27.3 26.8 32.9 45.2c5.6 18.4 8.3 37.9 17.6 54.8 3.3 6 8.9 12.3 15.8 11.4 10.1-1.4 11.2-15.3 11.8-25.5 1.8-32.7 28.3-62.3 60.5-67.6 32.2-5.3 66.9 14.1 79.1 44.5 16.5-1.9 22.9-22.4 24.2-39 1.3-16.6 3.7-36.8 19-43.3 20.7-8.8 50 15.2 64.6-1.9-16.1-51.3-32.2-102.4-48.3-153.4-4-12.7-7.9-26.9-2-38.8 2.6-5.2 6.9-9.2 12-12 3.7 1.4 7.5 2.6 11.5 2.5 9-.3 16.5-7.8 19.8-16.1 3.3-8.4 3.4-17.6 3.8-26.6.4-9 4.4-20.8 13.3-19.8 7.3.8 10.4 10.1 17.1 13.3 6.8 3.2 15.3-1.3 18.7-8 3.4-6.8 3-14.7 1.9-22.2z" opacity=".7" fill="#daedf5"/><path d="M437.6 428.7c-1.2 3.9 6.1 7.9 13.4 7.3 7.3-.6 11.9-5.7 8.4-9.2-3.4-3.5-13.7-4.3-18.8-1.4M552 434c6.5-4 14.2-6 21.9-5.8 2.2 0 4.6.4 5.9 2.2 1.4 1.9.7 4.8-1 6.5s-3.9 2.6-6.2 3.4c-4 1.5-8.2 2.9-12.3 2.3-4.2-.6-8.2-4.3-7.8-8.5" opacity=".7" fill="#ffa799"/><path d="M416.7 796.6c-2.3 20.3 6.8 41.8 19.1 57.5 5.7 7.3 12.7 14 21.3 17.9 3.8 1.7 7.6 2.3 11.6 1.1 5.2-1.6 7-5.1 9.5-9.4.2-.3-1.5 1.7.2-.4.6-.7 1.3-1.2 1.8-2 1.4-2.1 2-5 2.8-7.3 2.6-7.1 5.1-14.3 7.7-21.5 4.9-13.4 10-26.7 16.5-39.3 5.3-10.3 11.8-21.5 20.1-29.8 6.4-6.3 16.8-13.8 26.3-10.2 5.9 2.2 9.1 8.1 12.2 13.2 3.4 5.7 6.5 11.5 9.8 17.3 6.3 11.3 13.5 21.2 22.1 30.8 6.6 7.5 15.7 14.7 25.6 8.3 10.1-6.5 12.9-19.9 15.3-30.8 2.9-13.5 4.3-27.3 7.5-40.7 1.4-6 2.9-13 6.1-18.4 1.6-2.7 4.3-5.8 7.5-6.6 4-1 8.4 2.6 11.7 4.5 17.3 10.1 42.1 25.5 61.4 10.6 10.1-7.8 11.8-22.8 8-34.5-2.6-7.8-6.7-15.5-10.1-23-3.3-7.2-6.6-14.3-10-21.5-14-29.6-28.8-58.8-42-88.8-2.3-5.4-10.2-.7-7.9 4.6 10.9 24.8 22.8 49 34.6 73.4 5.9 12.3 11.8 24.6 17.4 37 5.4 11.9 13.9 25.5 9.4 39-3.5 10.7-17.1 11.9-26.4 9.8-12-2.7-22.7-10.4-33.2-16.4-4.3-2.5-8.5-4.7-13.7-3.8-5.1.9-9.5 4.3-12.6 8.3-7.1 9.2-9.2 23-11.2 34.2-2.3 12.6-3.8 25.4-7.2 37.8-1.5 5.6-3.2 12-7.5 16.1-5.5 5.3-10.6.6-14.7-3.8-8.3-9-15.2-18.3-21.3-29-5.7-10.1-10.6-22.6-19.1-30.7-14.5-13.8-34.4-4-46 8.5-6.8 7.3-12.7 16.5-17.4 25.3-6.2 11.4-11.3 23.4-16 35.6-2.6 6.8-5 13.6-7.5 20.4-1.3 3.6-2.6 7.2-3.9 10.7-.5 1.5-.9 3.6-1.8 4.9-.1.2-1 1-1.5 1.5-1.5 1.7-1.4 4.1-2.8 5.7-1.6 1.8-4.1 2.1-6.2 1.5-4.4-1.1-8.8-4.9-12-7.8-15.7-14.4-27-38.4-24.5-59.9.8-5.7-8.3-5.7-9 .1z"/><path d="M373.6 462.4c-18.5 3.3-32.5-15.1-49.9-18.3-15.5-2.8-31.4 9.5-37 23.3-15.1 37.7-18.8 79.2-13.9 119.4 1.6 13.3 3.3 39.3 21.4 40.6 1.4.1 3.4-.9 3.9-2.3 14.1-33.2 34.7-64.4 63.8-86.3 9.3-7 16.4 20 18.8 25.4 3.9 9 3.8 18.3 1.4 27.7-1.2 4.6-2.9 9-4.9 13.3-1.9 4.1-5.3 6.9-7.3 10.8-4.1 8.3-9.4 15.8-14 23.8-4.7 8.1-8.8 16.5-12.5 25.2-7 16.6-12.1 34-14.9 51.9-2.7 17.4-4.7 36.6-2.2 54.1 1.7 11.9 14 25.4 27.3 20.3 3.6-1.4 6.3-6.6 8.2-9.7 2.6-4.2 4.8-8.6 7.4-12.9 4.7-7.9 11.1-15.7 17.6-22.2 2.9-2.8 9.1-9.3 12.8-4.7 1.7 2.1 2 6.8 2.4 9.2.6 3.1 1 6.3 1.4 9.4 1.4 11.2 2.3 22.4 5.7 33.2 1.8 5.6 10.6 3.2 8.8-2.4-3.4-10.7-4.2-21.8-5.7-32.9-1-8-1.2-19.8-8.5-25-14.1-10.2-29.8 13.6-37.1 22.8-5.6 7.2-9.2 15.6-14.3 23.1-2.8 4.1-6 4.7-10.2 1.8-3.1-2-5.2-5.5-6.3-9-2.6-8.2-1.3-19-1-27.6.4-10.1 1.4-20.1 3.2-30 3.5-19.5 9.6-38.4 18.2-56.2 4.5-9.3 9.7-18.2 15.4-26.8 2.5-3.8 4.1-7.9 6.5-11.7 1.1-1.8 2.8-2.9 4-4.6 1.6-2.1 2.6-4.8 3.7-7.2 3.7-8.3 6.5-17 7.1-26.1.5-9-2.1-16.4-5.3-24.6-4.3-10.8-7.8-26.1-21.2-28.7-8.4-1.6-16.9 8.3-22.6 13.5-7.7 7-14.8 14.7-21.2 22.9-13.3 16.9-23.9 35.7-32.3 55.5 1.3-.8 2.6-1.5 3.9-2.3-5-.4-7.8-8.1-9.1-12.1-2.6-8.4-3.1-18-4-26.7-1.7-17.4-1.7-34.9.1-52.2 1.9-17.9 6.1-35.6 12.4-52.4 2.8-7.7 6.6-13.9 13.8-18.1 8-4.7 15.3-4.4 23.6-.6 15.1 7 27.2 18.3 45 15.1 5.8-1 3.4-9.8-2.4-8.7zm265.3 1.1c26.4-11 41.8-39 69.3-48 11.6-3.8 26-3.6 35.8 4.5 10.8 9 14 26.5 17.5 39.5 1.9 7 3.5 14.2 4 21.5.2 2.8 1.4 9.5-.2 12-1.1 1.7.7 1.7-2.6.8-2.1-.6-4.2-2.7-5.7-4.1-8.2-7.4-15.2-16.7-27.4-16.4-4.5.1-8.8 1.9-11.7 5.4-4.1 5-3.5 11.3-3 17.2.7 7.4.6 14.9-.6 22.3-.6 3.7-1.5 7.4-2.5 11-.5 1.5-.6 3.4-2 3.9-1.2.4-3.8-1.8-4.7-2.5-10-7-20.4-17.2-32.6-7.8-12.9 9.9-9.4 26.9-5 40.2 1.8 5.5 10.6 3.2 8.8-2.4-2.5-7.6-5.9-16.6-2.7-24.5 2.9-7.3 9.5-9.9 16.3-5.8 6.9 4.2 20.5 19.8 28 8.2 3.7-5.7 4.8-14.4 5.7-21 1.1-7.8 1-15.5.3-23.4-.6-6.7.4-13 8.7-11.5 6.7 1.2 11 6.6 15.6 11.2 6.9 6.8 22 16.8 26 1.7 3.6-13.9-1.6-31.2-5.5-44.4-3.8-13-7.3-28.1-18.1-37.4-9.1-7.8-21.5-10.5-33.2-9.2-15.3 1.6-28.5 9.7-40.3 19.2-13.1 10.6-24.7 24.5-40.5 31.1-5.4 2.1-3.1 10.9 2.3 8.7zM478 399.6c-.1-.8-.5-4.2-.4-4.2.1-.1 1.5 2.6 1.6 3.5.6 4-1.4 8.2-3.7 11.4l7.2-.9c-3.6-4.5-4.3-10.2-2.6-15.5-2.8.4-5.6.7-8.3 1.1 2.1 2.9 3.3 5.7 3.4 9.3 1.1-1.5 2.2-2.9 3.4-4.4-.2.1-.5.1-.7.2 1.2.1 2.3.3 3.5.5.2.2.4.4.5.6.1 1.2.3 2.3.5 3.5.1-.2.1-.5.2-.7 1.4-5.7-7.4-8.1-8.8-2.4-1.1 4.4 2.6 8.6 7.2 7.1 1.9-.6 3.4-2.4 3.4-4.4-.2-5.1-1.6-9.8-4.7-13.9-2.3-3.1-7-2.9-8.3 1.1-2.8 8.6-.7 17.5 4.9 24.4 2 2.5 5.6 1.2 7.2-.9 5.4-7.3 8.1-20.7-.6-26.8-3.7-2.6-8.6-2.3-11.6 1.2-3.1 3.5-2.7 8.5-1.9 12.8.9 5.6 9.7 3.2 8.6-2.6zm84.3.7c1.3-2.6 2.6-5.1 3.9-7.7h-7.9c4.1 5.3 4.2 11.8.2 17.2 2.1-.5 4.2-1.1 6.2-1.6-2.7-1.7-3.6-5.9-1.5-8.5h-6.5c1.9 1.6 2.2 3.7.3 5.4l7.2.9c-1.5-2.7-1.9-5.7-.5-8.6 2.4-5.3-5.5-9.9-7.9-4.6-2.7 6-2.7 12 .5 17.9 1.5 2.6 5.1 2.9 7.2.9 5.2-4.9 5.2-13.7-.3-18.3-1.7-1.5-4.8-2-6.5 0-5.9 7.2-4.5 17.7 3.4 22.8 2.2 1.4 4.8.3 6.2-1.6 5.7-7.7 5.6-18.8-.2-26.4-1.9-2.5-6.2-3.4-7.9 0-1.3 2.6-2.6 5.1-3.9 7.7-2.4 5.2 5.4 9.8 8 4.5zm-55.5 53.8c-.9-4.2-.6-8.5.9-12.5.6-1.7 1.5-3.4 2.6-4.9.8-1.1 1.6-2 2.6-2.9.1.2.2.4.4.6 2.6.8 3.9 6.7 4.1 9 .3 3.1-.3 6.2-1.9 8.9-2.1 3.6-5.9 6.7-8.2 1.8-1.8-3.8-2.6-9.7-1.7-13.7 1.1-5 5.5-8.2 9.9-4.5 4 3.4 3.6 9.6 2.7 14.2-1.2 5.7 7.6 8.2 8.8 2.4 1.7-8.6 1.3-18.2-6.2-24.1-6.4-5-15-4.4-20.2 1.8-8.4 9.9-4 42.2 14.1 34.8 13.7-5.6 15.5-26 6.2-36.1-6.6-7.2-13.4-4-18.2 3.2-4.9 7.2-6.2 16-4.4 24.5.9 5.7 9.7 3.3 8.5-2.5zm41.9-118c1.9 1 3.9 2 5.8 3.1 2.1 1.1 5.1.6 6.2-1.6 1.1-2.1.6-5-1.6-6.2-1.9-1-3.9-2-5.8-3.1-2.1-1.1-5.1-.6-6.2 1.6-1.2 2.1-.7 5.1 1.6 6.2zm-72.9 8.7c-.1.3.2-.4.2-.4l.6-1.2c.4-.7.8-1.4 1.3-2 .6-.8 2-2.1 3-2.9 1.9-1.5 1.6-4.8 0-6.5-1.9-1.9-4.5-1.5-6.5 0-3.5 2.8-5.9 6.5-7.5 10.5-.9 2.3 1 5 3.2 5.6 2.7.8 4.8-.8 5.7-3.1z"/><path d="M503.3 252.9c6-.5 12.1-1.5 18-2.6 5.4-1 11.9-1.6 16.8-4.3 14.5-7.9 25-19.7 28-36.4 2.8-15.6-1.1-31.1-12.3-42.5-11-11.4-27.3-17.5-43.1-16.2l4.6 4.6c-1-7.2 6.2-10 12.2-7.2 6.2 2.9 11.9 8.1 17.2 12.4 4.7 3.8 9.3 7.8 14 11.7 5 4.2 10.7 8 15.2 12.7 9.6 9.8 10.5 21.4 6.6 34-3.3 10.6-8.2 20.7-9.5 31.9-3 25.2 15.9 41 32.4 56.7 4.4 4.2 8.7 8.5 12.3 13.4 1.9 2.5 3.3 5.4 5.2 7.9 2.2 3 4.3 5.1 5.8 8.7 5.2 12.7 7 26.9 5.2 40.5-1.9 14.3-7.5 28-9.6 42.3-2 13.4-.8 26.5 5.9 38.5 2.9 5.1 10.8.5 7.9-4.6-14.8-26.4 4.1-55.1 5.4-82.4.7-14.2-2.1-28.4-8-41.4-1.5-3.2-3.7-5.1-5.7-7.9-1.9-2.5-3.5-5.3-5.4-7.8-4.2-5.4-9-10.4-14-15-9.3-8.6-19.5-16.7-25.1-28.3-6.5-13.4-2.4-26.7 2.4-39.8 4.2-11.3 8.5-23.1 5.2-35.2-3.6-13-13.6-20.4-23.5-28.6-6.2-5.2-12.3-10.5-18.7-15.6-5.7-4.5-11.9-10-18.7-12.9-11.2-4.7-25.6 3-23.9 16.1.3 2.3 1.9 4.8 4.6 4.6 28.2-2.3 52.9 21.7 45.9 50.2-3.1 12.6-11.8 23.2-23.9 28.1-8.8 3.6-20 4.6-29.4 5.4-5.8.4-5.8 9.5 0 9zm-99 209.9c-19.1-75.1 10.6-161.5 77.3-203.4 5-3.1.4-11-4.6-7.9-52.9 33.2-85 94.3-87.6 156.1-.8 19.4 1.3 38.8 6.1 57.6 1.5 5.7 10.3 3.3 8.8-2.4zm104.3-27.6c-9 4.7-8.1 20.5 1.4 24.2 9.3-5.4 9.9-20.9 1.1-27"/></svg>