<svg version="1.1" id="Layer_1" xmlns="http://www.w3.org/2000/svg" x="0" y="0" viewBox="0 0 1000 1000" xml:space="preserve"><style>.st1{fill:#fbdfc5}.st2{fill:#f29149}</style><g opacity=".7"><path class="st1" d="M559.9 748.3c-4.5-6.7-4.3-16.3.6-22.8s14-9.4 21.7-7"/><path class="st2" d="M505.3 207c-7.9 8.6-7.1 23.7 1.6 31.4 8.7 7.7 23.8 6.6 31.4-2.3m-80.4-79c-3.4 18.6-8.4 37-15 54.8-4.4 11.7-11.1 24.6-23.3 27.2-9.6 2-19.6-3.5-25.2-11.5-5.6-8-7.5-18-8.2-27.8-2.4-33.6 8.8-67.9 30.5-93.7"/><path class="st2" d="M334.3 278.5c.5-8 8.2-13.8 16.1-15.5s15.9-.5 23.9-.9c24.2-.9 47.3-17 56.5-39.4 4.5-10.9 5.8-23.6 1-34.3-3.6-8-10.4-14.3-18.1-18.6-20.8-11.4-48.9-7.1-65.3 10s-19.5 45.4-7.3 65.7m40.1 85.3c12.1 6.2 23.2 18.6 20.2 31.9-2.5 11-14.7 17.9-26 17.3-11.3-.6-21.5-7.2-29.4-15.3-8.3-8.5-33.5-45.6-20.3-57 7.2-6.3 45.9 18.2 55.5 23.1z"/><path class="st1" d="M391.7 261.4c-8.4 2.2-17.2 2.6-25.2 5.7s-15.6 9.9-16 18.5c-.4 9.6 8.1 17.2 16.7 21.4 8.6 4.2 18.4 6.6 25.5 13 21.4 19.1 8.6 61.9 33.2 76.8 22.5 13.6 60-8.6 74.5 13.4 5.6 8.5 4 19.9 8.5 29 4.5 9.1 21.9 11.1 22 1-10.7-14.8 3.9-35.4 20.3-43.3 16.4-7.9 36.3-10.9 48-24.9 10.9-13 20.1-24 24.7-44.1 3-12.9 24-10.5 36.5-15 12.5-4.4 25.4-15.2 23.2-28.3-3-17.9-27.6-19.3-45.8-20.6-42.3-3-81.6-32.2-96.6-71.8 5.8 17.9 11 39.7-1.5 53.8-11.5 12.9-31.2 9.7-44.1.8-15.2-10.6-7.9-54.3-21.2-62.9-18.2-11.6-29.3 30.9-37.3 42.3-10.9 16.4-26 30.2-45.4 35.2z"/><path class="st2" d="M660.5 223.4c-1.3-11.8-3.7-23.4-7-34.8-7.3-27.7-18.7-56.8-43.3-68.2-3.2-1.6-6.5-2.8-9.9-3.4-34.1-8-69.7 19.8-104 26.8-7.6-1.1-15-3.3-22-6.4l7.8 7.9c-6.8 0-13.6-1.1-20.2-3.9-8.1-3.4-16.1-12.7-11.4-20.1 2-3.2 5.8-4.8 9.3-6.2 25.5-10.1 71.8-14.9 50.5-48.1-7.3-11.4-18.7-21.1-30.1-28.1-4.6-2.8-36.1-11.8-36.8-13.6 6.7 17.1 13.5 34.3 20.2 51.4-46.5-9.2-95.5 15.6-123.4 54-27.9 38.4-36.9 87.9-34.3 135.2s15.9 93.4 29.2 138.9l25.5.6c1.6 10.4 3.2 21.1 8.5 30.3 5.3 9.1 15.1 16.5 25.6 15.6 15.1-1.2 24.4-18.4 23.6-33.6-.8-15.1-8.6-28.9-14.3-42.9-5.2-12.8-8.5-27.8-3.5-40.3-4.2 3.1-10.1 5.6-15 5.1-12.6-1.3-24.1-5.8-32.6-15.5-6.9-7.9-12.1-17.5-13.7-28-1.9-12-1.3-24.6 5.3-35.3 7.9-12.8 20.3-18.6 34.9-20 9.9-.9 18 5.8 22 14.2 28.5-33.5 47.1-66.7 75.6-100.1 1.7 20.7 3.8 42.4 15.4 59.5 3.6 5.3 8.5 10 13.9 13.6 2.7 8.1 7.6 16 15.8 16.4 6.1.3 10.8-3.9 13.4-9.5 3.7-.6 7.3-2 10.6-4.1-12.8-15.9-15.4-39.3-6.6-57.8 14.1 31.3 38.4 57.9 68.3 74.7.1 0 .1.1.2.1.6.5 1.3 1 1.9 1.4 12.3 9.1 30 16.7 42 7.2 9.5-7 10-21 8.6-33z"/><path d="M434.7 323.3c6.6.7 8.8 11.6 2.9 14.8-5.9 3.2-13.8-4.5-10.8-10.5m147.5-3.2c8.9-.4 17.9-.8 26.8-1.2-3.2 7.8-12.5 12.5-20.6 10.5" fill="#fca386"/><path class="st2" d="M492.4 314.2c-1.1-1.3 1.2-3.3 2.6-2.3 1.4 1 1 3.3-.4 4.3-1.3 1-3.2 1.1-4.9.8l1.5-3.6m12.9-13c-.1-2.4 3.3-3.8 5.1-2.2s1.4 4.7-.6 6.1-4.8.9-6.5-.7c.5-1 1-2.1 1.5-3.1m22.4 9.2c-.3 2.1 1.9 4.2 4 3.7s3.2-3.3 2-5.1c-1.2-1.8-4.3-1.7-5.5.1"/><path d="M460 489c7.2-5.3 16.3-8 25.3-7.6 5.2 38.9 10.4 77.8 15.5 116.7 20.9-1.2 41.7-2.4 62.6-3.6-1.5-38.2-3-76.4-4.6-114.6 1.6-3.9 7.9-2.6 10.5.7 2.6 3.3 3.7 7.9 7 10.6 7.1 5.8 18.4-2.4 18.9-11.6s-5.5-17.1-11.3-24.2c-7.7-9.6-18.8-20.2-30.5-16.2-5.3 1.8-9 6.4-13.7 9.5-25 17-44-13.1-67.8-8.3-31.9 6.6-8.8 46.3-11.9 48.6z" fill="#ffbf19"/><path d="M466.4 707.9c20.5 9.1 45.9 11.4 61-5.2 1.3-1.4 3.1-10.7 4.8-11.6 4.5-2.5 10.6.5 13.1 5.1s2.5 10 2.4 15.2c15.8-1.4 31.5-3.8 47-7.2 5.8-1.2 12-2.9 15.6-7.7 5.3-7 2.3-17-.9-25.2-6.9-17.7-13.8-35.3-20.8-53-2.5-6.4-5.3-13.2-10.9-17.1-17.2-12.1-75.6-4.7-89.5 12.3-7.8 9.5-25 92.8-21.8 94.4z" fill="#46bfd1"/><path class="st1" d="M392.5 506.9c-4.9 5.7-9.7 12.3-9.6 19.8.2 12.1 12.4 19.9 22.6 26.5 18.7 11.9 35.4 26.9 49.2 44.3 4 5 7.9 11.9 4.8 17.5-2 3.6-6.2 5.3-8.8 8.5s-1.6 9.7 2.5 9.3c3.5 1.7 7 3.3 10.5 5 13.8-14 10.7-37.9.2-54.5s-26.6-28.8-39.1-43.8c-4-4.8-7.9-11.3-5.3-17.1 2.1-4.7 7.6-6.7 12-9.3 11.5-6.9 25.5-33.4 7.6-39.9-15.1-5.7-39 24.7-46.6 33.7zm218.2 135.9c3.2-1.5 3.3-6 3-9.5-3.3-28.2-2.5-61.8-11.4-88.5-23.4 15.2 1.7 101 8.4 98z"/><path class="st1" d="M584.9 501.9c2.2 17.3 4.5 34.7 6.7 52 .8 6.5 3.3 14.7 9.9 15.2 4.7.3 8.6-4 9.5-8.6.9-4.6-.5-9.3-1.9-13.7-6-19.8-1.8-48-7.8-67.8M498.2 829.8c.6 6.4 2.5 14.3 8.8 15.5 7.6 1.4 11.9-8.2 13.3-15.8 5.8-33.7 10.8-75.5 1.7-108.8-54.6-6.7-26.9 77.2-23.8 109.1zm61.1-21.5c.1 9.5.6 20.1 7.1 27.1s21.2 5.9 22.9-3.5c-3.7-21.5-6-43.2-7-65-.7-14.5 3.2-34.9-2.3-47.7-28.8 14-21 64.2-20.7 89.1z"/><path d="M498.3 848.9c.8 4.7 1.6 9.3 2.5 14 4.6 3.1 10.2 4.6 15.7 4.3v-17.9l-16.1-.3m66.8 2.1c1.3 6.3 2.5 12.5 3.8 18.8 6.6 5.1 17.2 3.6 22.2-3s3.5-17.2-3.2-22.1c-6.6 4-14.5 5.6-22.2 4.7" fill="#d1c9fb"/><path d="M448.2 896.8c-5.5 8.2-2.3 20.2 5.4 26.5 7.6 6.3 18.3 7.7 28.1 6.5 11.4-1.5 22.7-6.4 30.1-15.2 7.4-8.8 10.3-21.7 5.7-32.3-2.1-4.8-6.4-9.3-11.6-8.7-3.9.4-6.9 3.6-9.8 6.2-13 12-31.8 17.3-49.1 13.9m127.7-5.3c-5.4 5.3-7.5 13.6-5.3 20.8s8.6 13 16 14.4c8.6 1.7 17.2-2.2 25.9-2.8 11-.8 25.3 1.8 30.3-8 3.8-7.6-2.5-17.1-10.5-19.8-8-2.7-16.8-.7-25.1 1.4-2.3-5.4-4.7-10.9-7-16.3-8.2.8-16.4 1.5-24.5 2.2" fill="#ebe4e3"/><path d="M511.7 133.9c9.4.5 20.7.1 25.8-7.8 5.3-8.3.2-19.3-6.3-26.6s-15-13.8-17.5-23.2c3.2 12.1-51.9 28.3-55.9 42.3-6.4 21.8 37.7 14.4 53.9 15.3z" fill="#e675d1"/></g><path d="M322.8 249.7c-12.8 46.2-12.2 95.8 1.5 141.7 3.9 13 8.8 25.6 14.7 37.8 2 4.2 8.4.5 6.3-3.7-25.8-53.8-31.3-116.4-15.4-173.8 1.2-4.6-5.9-6.6-7.1-2z"/><path d="M342.4 415c4.8-.7 9.7-1.5 14.5-2.2 4.6-.7 2.7-7.8-2-7.1-4.8.7-9.7 1.5-14.5 2.2-4.6.7-2.6 7.8 2 7.1zm6.6-50.5c.7 7.5 1.5 14.9 2.2 22.4.5 4.6 7.8 4.7 7.3 0-.7-7.5-1.5-14.9-2.2-22.4-.5-4.7-7.8-4.7-7.3 0zm10.1-6.7c4.4 34.1 12.1 67.7 23 100.3 1.2 3.7 7.4 3.4 7.2-1-.5-10.4 13.7-8.6 20.1-7.4 4.6.9 6.6-6.2 2-7.1-6.8-1.3-14.2-2.6-20.6.7-5.2 2.6-9 7.8-8.7 13.8 2.4-.3 4.8-.6 7.2-1-10.7-32-18.4-64.9-22.7-98.4-.8-4.5-8.1-4.6-7.5.1zm48 19l7.8 60.3c.6 4.6 7.9 4.7 7.3 0l-7.8-60.3c-.6-4.6-7.9-4.7-7.3 0zm69.6-281c-12-1.7-22 5-29 14.3-7.2 9.7-12.6 21-17.2 32.2-9.6 23.3-14.4 48.4-14.3 73.6 0 4.7 7.3 4.7 7.3 0-.1-22.2 3.8-44.2 11.5-65 3.8-10.4 8.7-20.5 14.4-30.1 5.3-8.8 13.7-19.6 25.4-18 4.6.7 6.6-6.3 1.9-7z"/><path d="M509.1 73.7c5.2-6 13.1 7.9 14.8 11.8 3.7 8.9-5.8 11.7-12.4 14a289.6 289.6 0 0 1-50.4 12.3c-4.6.7-2.7 7.8 2 7.1 12.3-1.8 24.4-4.4 36.3-7.8 5.7-1.6 11.4-3.4 17-5.4 4.1-1.5 8.4-3.1 11.5-6.2 7.8-7.6 3-17.7-2.3-25.1-4.8-6.6-14.6-13.8-21.7-5.7-3.1 3.3 2.1 8.5 5.2 5z"/><path d="M440.6 117.5c-.4 3.7-.7 7.3-1.1 11-.2 1.8 1.8 3.9 3.7 3.7 21.5-2.6 43.1-4.3 64.8-5.2 4.7-.2 4.7-7.5 0-7.3-21.6.9-43.3 2.7-64.8 5.2l3.7 3.7c.4-3.7.7-7.3 1.1-11 .4-4.8-7-4.7-7.4-.1z"/><path d="M529.4 97.5c5.3 4.8 11.8 10.3 12.6 17.9.9 8.5-5.5 11.4-12.8 12.3-17 2.2-34.4 2.2-51.5.6-4.7-.4-4.7 6.9 0 7.3 10.9 1 21.8 1.3 32.8.9 5.5-.2 10.9-.6 16.4-1.2 4.2-.5 8.6-.9 12.5-2.6 7.3-3.2 10.7-10.6 9.8-18.3-1.1-9.3-8-16.1-14.6-22.1-3.5-3.1-8.7 2.1-5.2 5.2z"/><path d="M542.3 121.1c23.5-15.2 54.3-12.3 77.1 2.8 23.4 15.6 37.6 41.7 43.7 68.7 4 17.6 4.7 35.6 3.9 53.6-.2 4.7 7.1 4.7 7.3 0 1.5-32.6-2.6-66.5-19.7-94.9-15-25-39.5-44-69.1-47.2-16.3-1.7-33.1 1.7-47 10.7-3.8 2.6-.2 8.9 3.8 6.3zm-61.9 37.7c.9 14.4 2.7 28.7 5.4 42.9 2.5 12.9 5 27.1 10.5 39.2 2.1 4.5 5.2 8.6 9.9 10.6 6 2.6 12.4.4 18.3-1.4 14.4-4.2 28.9-8.4 43.3-12.6 4.5-1.3 2.6-8.4-2-7.1-12.6 3.7-25.3 7.4-37.9 11.1-5.3 1.6-13.5 5.7-19 3.3-4.1-1.8-6.2-7-7.5-10.9-8.1-24-12.1-49.8-13.6-75-.4-4.8-7.7-4.8-7.4-.1z"/><path d="M532.1 181c2.2 21.7 9 42.6 20.2 61.4 2.4 4.1 8.7.4 6.3-3.7-10.5-17.6-17.1-37.3-19.2-57.7-.4-4.7-7.8-4.7-7.3 0zm8.6-12.2c18.1 42.4 42.6 93.6 93.7 101.4 4.6.7 6.6-6.4 2-7.1-49.1-7.6-71.9-57.4-89.3-98.1-2-4.2-8.3-.5-6.4 3.8zm-75.7-9.6c-12 45.5-42.3 85.2-83 109-4.1 2.4-.4 8.7 3.7 6.3 42.3-24.6 73.8-66 86.3-113.3 1.3-4.6-5.8-6.6-7-2zm-6.8-89.1c-37.7-22-82.5 7.1-108.7 34.2-27.6 28.6-46.1 65.9-52.7 105-3.8 22.2-3.7 44.8.4 66.9.9 4.6 7.9 2.7 7.1-2-6.8-36.8-1.5-75.4 13.6-109.5 15-33.8 40.2-65.9 73.1-83.7 19.3-10.4 43.5-16.3 63.5-4.6 4.1 2.4 7.8-4 3.7-6.3z"/><path d="M493.4 74.2c.7-15-5.8-30.2-17.6-39.7-11.8-9.5-27.6-12.7-42.2-9.1-3.2.8-3.4 5-.9 6.7 14.4 9.3 24.4 24.9 26.5 42 .6 4.6 7.9 4.7 7.3 0-2.5-19.8-13.3-37.5-30.1-48.3-.3 2.2-.6 4.5-.9 6.7 12.4-3.1 26.2-.3 36.1 8 9.9 8.3 15.1 20.9 14.5 33.7-.3 4.7 7 4.7 7.3 0zm-91.8 255c-10.7 17-5.2 39.5 7.8 53.5 14.9 16 37.5 22.1 58.5 25.3 24.8 3.8 50.1 3.3 74.8-1.3 22.4-4.2 45.8-11.5 64.1-25.5 19-14.5 32-38.1 26.6-62.4-1-4.6-8.1-2.6-7.1 2 4.4 19.9-6 39.6-20.9 52.2-15.7 13.3-36.2 20.2-55.9 24.8-22 5.1-44.8 6.6-67.2 4.7-19.9-1.8-41.4-5.5-58.3-16.9-16.5-11.1-27.8-34.2-16.1-52.7 2.6-4-3.8-7.7-6.3-3.7zm252.7-37.8c-.8-1.4 1.6-.8 2.1-.4 1.2.9 1.4 3 1.3 4.3-.2 2.7-1.6 5.4-3.2 7.5-2.9 4.1-7.3 6.6-12.1 7.7-4.6 1-2.7 8.1 2 7.1 10.8-2.4 23.2-13.8 20.4-26-1.2-5-6.1-9.5-11.5-8.2-5.3 1.2-7.7 7.3-5.2 11.9 2.2 3.9 8.5.2 6.2-3.9z"/><path d="M638.8 287.5c5.5-6.9 12.5-14.1 21.6-15.5 8.2-1.2 17 2.8 18.3 11.6 1.3 8.7-3.8 17.5-9.1 23.9-5.9 7-13.3 12.4-21.7 16-4.3 1.9-.6 8.2 3.7 6.3 10.4-4.5 19.4-11.8 26.1-20.9 6.2-8.5 11-20.3 7.1-30.8-3.6-9.7-13.8-14.5-23.7-13.6-11.5 1-20.6 9-27.5 17.7-2.8 3.8 2.3 9 5.2 5.3zm-249.9-7.2c.9-11.9-9.8-22.3-21.5-22.2-12.6.1-23 10.8-25 22.8-2.2 13.7 4.6 26.9 14.9 35.6 11.3 9.5 25.5 14 39.5 18.2 4.5 1.4 6.5-5.7 2-7.1-19.4-5.8-45.5-14.2-49.1-37.5-1.5-9.9 3.2-20.6 13.1-23.9 9.3-3.1 19.6 4.1 18.8 14.1-.4 4.7 6.9 4.7 7.3 0z"/><path d="M380.5 280.4c-9.3-4.4-19.5 4.1-17.6 14.1 2.3 12.5 15.9 15.8 26.7 14.7 4.6-.5 4.7-7.8 0-7.3-6.1.6-13.8.6-17.8-5-1.6-2.2-2.5-5.3-1-7.8 1.2-2 3.9-3.5 6.1-2.4 4.1 2 7.8-4.3 3.6-6.3zm64.3-30.1c4-4.6 9.4-6.7 15.4-5.9 4.7.6 4.6-6.7 0-7.3-7.8-1-15.6 2.1-20.6 8.1-3 3.5 2.2 8.7 5.2 5.1zm18.9 117.2c31 18.7 72.9 14.4 99.6-9.9 3.5-3.2-1.7-8.4-5.2-5.2-24.3 22.2-62.6 25.7-90.7 8.8-4-2.5-7.7 3.9-3.7 6.3z"/><path d="M547.3 354c6.4 2.9 12.9 3.7 19.8 2.6 4.6-.7 2.7-7.8-2-7.1-4.8.7-9.8.1-14.2-1.9-4.1-1.8-7.9 4.5-3.6 6.4zm-45.2-9.1c.2-4.8 6.1-8.7 10.5-6.6 4.2 2 8-4.3 3.7-6.3-9.5-4.5-21.2 2.3-21.5 12.9-.2 4.7 7.1 4.7 7.3 0zm-62.3-64.1c-8.7 3.4-7.3 12.6-3.9 19.5 3.3 6.8 10.3 12.5 17.5 6.6 6.2-5.1 6.4-16.5 3.9-23.6-2.6-7.5-11-11.4-17.6-6.3-3.7 2.9 1.5 8 5.2 5.2 3.5-2.7 5.9 4.4 6.1 6.5.4 3.4.7 8.5-1.3 11.4-4.9 7.3-12.6-10.5-8-12.2 4.3-1.7 2.5-8.8-1.9-7.1zm138.1-1.8c-8.2-2.8-12 11.5-11.4 17.3.9 9.5 11.2 11.7 18.3 7 6.7-4.4 10.6-14.1 6.5-21.5-4.1-7.2-13.6-9.1-20-4.1-3.7 2.9 1.5 8 5.2 5.2 2.7-2.1 7.1-.1 8.5 2.6 1.8 3.4 0 7.7-2.4 10.3-2.2 2.2-7.9 4.9-8.7.1-.3-1.6.3-3.5.8-5.1.2-.6 2.1-4.5 1.5-4.6 4.2 1.4 6.1-5.6 1.7-7.2z"/><path d="M584.8 292.8c3.2-.9 6.5-1.8 9.8-2.7 4.5-1.2 2.6-8.3-2-7.1-3.2.9-6.5 1.8-9.8 2.7-4.5 1.3-2.5 8.4 2 7.1zm-149.1-6.9l-6.9 1.5c-1.9.4-3.1 2.7-2.6 4.5.5 2 2.6 3 4.5 2.6l6.9-1.5c1.9-.4 3.1-2.7 2.6-4.5-.6-2-2.6-3-4.5-2.6z"/><path d="M438.4 284.1c-2.9 7.4-1.2 15.3 3.9 21.3 1.2 1.4 4 1.5 5.2 0 5.6-7.2 5.4-17.2-1.1-23.8-1.7-1.7-4.5-1.3-5.8.7-4.2 6.9-2.1 15.2 4.1 19.9 2.1 1.6 4.6-.3 5.4-2.2 3.1-7.4.9-16.1-5.1-21.4-3-2.5-6.6 0-6.1 3.6.7 5.1 2.8 9.5 6 13.5 1.6 2 5.7 1 6.1-1.6.7-4.7.6-9.4-.9-14s-5.8-4.9-10-3.5c-1.7.6-2.5 1.8-2.7 3.5-.7 5.6 1.5 11.1 5.8 14.8 2.1 1.8 5.3 1.2 6.1-1.6 1.9-6.4-.7-12.8-6.2-16.5-1.6-1.1-4.1-.4-5 1.3-3.8 7.3-2.7 15.9 3 22 3.2 3.4 8.4-1.8 5.2-5.2-3.4-3.6-4.1-8.7-1.9-13.1-1.7.4-3.3.9-5 1.3 2.8 1.9 3.7 5.1 2.8 8.2 2-.5 4.1-1.1 6.1-1.6-3-2.6-4.1-5.7-3.6-9.6-.9 1.2-1.8 2.4-2.7 3.5 1-.5 2-.6 3.1-.4l-2.6-2.6c1.3 3.7 1.9 7.5 1.3 11.4 2-.5 4.1-1.1 6.1-1.6-2.4-3-3.6-6.5-4.1-10.3-2 1.2-4.1 2.4-6.1 3.6 4.3 3.7 5.4 9 3.3 14.2 1.8-.7 3.6-1.5 5.4-2.2-3.1-2.4-3.4-6.8-1.5-9.9-1.9.2-3.8.5-5.8.7 3.5 3.5 4.2 9.4 1.1 13.5h5.2c-3.5-4.1-3.9-9.3-2-14.1 1.8-4.2-5.3-6.1-7-1.8zm135.6 2.3c-3.9 4.1-4.6 9.5-2.3 14.6.6 1.4 2.7 2.1 4.1 1.7 7.8-2.5 11.2-10.9 8-18.3-.9-2-4.4-2.5-5.8-.7-3.3 4.2-8.6 16.6 1.3 16.1 3-.1 5.9-2.4 6.7-5.3 1-3.8-1-7.3-3.3-10.1-1.2-1.5-3.9-1.3-5.2 0-3.3 3.3-4 8.5-1.1 12.4 1.5 2 3.8 2.4 5.8.7 4.4-3.7 5.3-10.5 2-15.2-1-1.4-2.5-2-4.1-1.7-4.9 1.1-3.7 7.7.5 8.9 2.1.6 4.3-.5 5.3-2.5 1.2-2.4.4-4.8-.6-7.1-1.9 1.5-3.8 3-5.8 4.4 1.3 1.5 2.7 3.1 4 4.6 2.7 3.1 8.2-1 5.8-4.4-.8-1.1-1.6-2.3-2.4-3.4-2-2.8-6.9-2.1-6.8 1.9 0 1.7.1 3.4.1 5.1.1 4.7 7.5 4.7 7.3 0 0-1.7-.1-3.4-.1-5.1-2.3.6-4.5 1.2-6.8 1.9.8 1.1 1.6 2.3 2.4 3.4 1.9-1.5 3.8-3 5.8-4.4-1.3-1.5-2.7-3.1-4-4.6-2.9-3.4-7.3.9-5.8 4.4.3-.2.7-.5 1-.7.9-.1 1.9-.2 2.8-.4.5.9.9 1.8 1.4 2.7-.8.9-1.7 1.7-2.6 2.6.2 0 .3-.1.5-.1-1.4-.6-2.8-1.1-4.1-1.7 1.5 2.2 1.2 4.6-.9 6.4 1.9.2 3.8.5 5.8.7-.9-1.2-1.2-2.4 0-3.5h-5.2c.6.7.8 1.8 1.3 2.4.3.4.3.5 0 .6h.7c.4.9.7 1.7 1.1 2.6.2-2.3 1.1-4.5 2.5-6.3-1.9-.2-3.8-.5-5.8-.7 1.3 2.9-.8 6.6-3.7 7.5 1.4.6 2.8 1.1 4.1 1.7-.9-2-.3-4.2 1.1-5.7 3.4-3.7-1.8-8.9-5-5.4zm-79.2 123.2c3 8.8 4.4 17.7 4.4 27 0 4.7 7.3 4.7 7.3 0 0-9.9-1.5-19.6-4.6-28.9-1.6-4.5-8.6-2.6-7.1 1.9zm40.8-6c-1.9 10.5-2.7 21-2.1 31.6.3 4.7 7.6 4.7 7.3 0-.5-10 0-19.9 1.8-29.7.9-4.6-6.2-6.5-7-1.9z"/><path d="M498.3 429.8c-3.2 4.2-12 1.9-16.5 2.1-6.3.4-12 2.9-17.2 6.3-5.8 3.8-10.9 8.5-16.2 13-6.3 5.3-12.7 10.7-19 16-12.5 10.5-24.9 21-37.4 31.5-9.4 7.9-21 16.6-21.1 30.1 0 4.7 7.3 4.7 7.3 0 .1-6.5 4.1-11.5 8.6-15.9 5.2-5.1 11-9.5 16.5-14.2 12-10.2 24.1-20.3 36.1-30.5 5.9-5 11.8-10 17.8-15 5.2-4.4 10.4-9.1 16.6-11.9 10-4.5 23.3 1.9 30.8-7.9 2.9-3.6-3.4-7.3-6.3-3.6zM424 523.2c-4.2-.2-7.2-3.5-7.8-7.5-.3-2-2.8-3-4.5-2.6-2.1.6-2.9 2.5-2.6 4.5 1.1 7.3 7.7 12.5 14.8 12.9 4.8.2 4.8-7.1.1-7.3z"/><path d="M426.6 529.9c18.5-14.8 37.1-29.5 55.6-44.3 3.7-2.9-1.5-8.1-5.2-5.2-18.5 14.8-37.1 29.5-55.6 44.3-3.6 3 1.6 8.1 5.2 5.2z"/><path d="M481.1 487.6c.1-.2.2-.4.3-.7-2.2-.3-4.5-.6-6.7-.9 5.7 39.8 10.3 79.8 13.8 119.9.4 4.7 7.7 4.7 7.3 0-3.6-40.7-8.3-81.3-14.1-121.8-.5-3.4-5.1-3.2-6.7-.9-2.6 3.8-1.2 8.2 2.3 10.7 4 2.7 7.7-3.6 3.8-6.3zm84.1 5.6c-1.7 31.7.2 63.4 5.3 94.8.8 4.6 7.8 2.7 7.1-2-5.1-30.7-6.7-61.8-5.1-92.8.3-4.7-7.1-4.7-7.3 0zm-85.5-57.8c8.7 12 22.4 19.9 37.3 20.5 14.9.6 29.6-6.3 38.9-17.9 2.9-3.6-2.2-8.9-5.2-5.2-7.9 9.8-19.8 15.9-32.5 15.8-12.6-.1-24.9-6.7-32.2-16.9-2.7-3.8-9.1-.2-6.3 3.7zm135.6 225.8v-.2c0 .3-.1.7-.1 1v-.2c-.1.3-.2.6-.4.9 0 0 0-.1.1-.1-.2.2-.4.5-.6.7l.1-.1c-.2.2-.5.4-.7.6 0 0 .1-.1.2-.1-.3.1-.6.2-.9.4.1 0 .2-.1.3-.1-.3 0-.7.1-1 .1h.4c-.3 0-.7-.1-1-.1.1 0 .2 0 .3.1-.3-.1-.6-.2-.9-.4 0 0 .1 0 .2.1-.2-.2-.5-.4-.7-.6l.1.1c-.2-.2-.4-.5-.6-.7l.1.1c-.1-.3-.2-.6-.4-.9v.1c0-.3-.1-.7-.1-1v.2c0-.3.1-.7.1-1v.1c-.2 1-.1 2 .4 2.8.4.8 1.3 1.5 2.2 1.7.9.2 2 .2 2.8-.4.8-.5 1.5-1.3 1.7-2.2.3-1.5 0-3.1-1.1-4.1-.9-.8-2-1.3-3.2-1.3-.9 0-1.8.2-2.6.7-1.2.7-2.2 2.3-2 3.7 0 .5.1 1 .3 1.4.2.5.4.8.8 1.2.6.6 1.7 1.1 2.6 1.1 1 0 1.9-.3 2.6-1.1.5-.6 1.1-1.6 1-2.5z"/><path d="M603.3 645.3c2.5 11.6 3.3 23.4 2.5 35.2-.3 4.7 7 4.7 7.3 0 .9-12.5-.1-24.9-2.7-37.1-1-4.7-8.1-2.7-7.1 1.9zM478.2 603c-2.8 7.8-4.1 16-3.9 24.3.1 4.7 7.4 4.7 7.3 0-.2-7.7 1-15.1 3.6-22.4 1.6-4.5-5.5-6.4-7-1.9z"/><path d="M478.3 603.7c-.2.1-.4.1-.7.2.9.1 1.9.2 2.8.4.1 0 .2.1.4.1.1.9.2 1.9.4 2.8-1.2.7-1.4 1-.6.9h2c1.6 0 3.2.1 4.8.1 2.6 0 5.3.1 8 .2 6.1.1 12.2.2 18.3.4 12 .2 23.9.5 35.8.7 4.7.1 4.7-7.2 0-7.3-17-.3-34-.7-51-1l-12.7-.3c-2.8-.1-6.6-.7-9.2.8-4.9 2.9-1.9 10.6 3.7 9 4.5-1.2 2.5-8.3-2-7zm-1.2 23.8c24.6 2.7 49.4.7 73.3-5.7 4.5-1.2 2.6-8.3-2-7.1-23.3 6.2-47.4 8-71.4 5.4-4.6-.4-4.6 6.9.1 7.4z"/><path d="M483.5 615.5c-11.1-6.5-11.4 20-12 24.7-2.6 19.7-5.2 39.3-7.8 59-.6 4.7 6.7 4.6 7.3 0 2-15.5 4.1-31 6.1-46.5 1-7.6 2-15.1 3-22.7.2-1.4.3-2.8.5-4.2.1-1 .3-2 .6-2.9.1-.4.2-.7.3-1.1.7-1.1.1-1.1-1.9 0 4.2 2.4 7.9-3.9 3.9-6.3zm-23.3 101.2c24.4 9.1 51.2 5.8 76.4 2.4 4.6-.6 4.7-7.9 0-7.3-24.5 3.2-50.7 6.7-74.5-2.2-4.3-1.6-6.3 5.5-1.9 7.1z"/><path d="M528.7 682.6c1 11.1.7 22.2-1.3 33.1-.8 4.6 6.2 6.6 7.1 2 2.1-11.6 2.7-23.3 1.6-35.1-.6-4.7-7.9-4.7-7.4 0zM366.8 522.5c24 32.7 53.3 61.2 86.6 84.3 3.9 2.7 7.5-3.7 3.7-6.3-32.3-22.3-60.8-50-84-81.7-2.7-3.8-9.1-.1-6.3 3.7z"/><path d="M459.1 603.4c-6.7 1.1-14-2.2-19.9 2.7-5.5 4.5-4.2 11.7-1.5 17.5 5.7 12.2 15.4 24.8 30 25.2 4.7.1 4.7-7.2 0-7.3-10.6-.2-17.2-9.5-21.8-18-2-3.7-6.1-10.8 0-12.6 4.7-1.4 10.2.5 15.1-.3 4.7-.9 2.8-7.9-1.9-7.2z"/><path d="M448.1 610.4c5.6 2.7 10.9 6.1 15.6 10.2 3.5 3.1 8.7-2.1 5.2-5.2-5.2-4.5-10.9-8.4-17.1-11.3-4.3-2.1-8 4.2-3.7 6.3zm-32.4-82.2c20.7 24.4 40.4 49.7 59 75.7 2.7 3.8 9.1.1 6.3-3.7-19-26.5-39.1-52.2-60.1-77.1-3.1-3.7-8.3 1.5-5.2 5.1zm25.2-66.8c4.7 0 4.7-7.3 0-7.3-4.8 0-4.8 7.3 0 7.3z"/><path d="M436.5 454.7c5.7 15.5 14.5 29.5 26.1 41.3 3.3 3.4 8.5-1.8 5.2-5.2-10.7-10.8-19-23.7-24.2-38.1-1.6-4.3-8.7-2.4-7.1 2zM582 613.1c8.4 17.2 15.2 35 20.2 53.4 1.3 4.5 8.3 2.6 7.1-2-5.3-19-12.3-37.5-21-55.2-2-4.1-8.4-.4-6.3 3.8z"/><path d="M559.2 632.3c10.2 6.8 21.3 12.1 33.1 15.8 4.5 1.4 6.4-5.7 2-7.1-11.2-3.5-21.6-8.5-31.3-15-4.1-2.7-7.7 3.7-3.8 6.3z"/><path d="M446.6 286.9c0 .1-.4.2-.4.1l.2.1c.1.2.2.1.1.4-.2.7-1.4 1.1-1.9 1.4.3 0 .6-.1.9-.1-.9-.3-.6-2.3.3-2.3-.4-.6-.7-1.2-1-1.8-.9 1.3-1.8 2.6-2.7 4 .6-.1 1.1-.3 1.7-.4-.4-.2 0 0 0 .1l.1-.2s.2-.3.2-.2c.1-.3.1.1-.2-.1 1.2 1 2.9-.7 1.7-1.7-2.8-2.3-6 2.8-3 4.3.6.3 1.3.1 1.7-.4.9-1.3 1.8-2.6 2.7-4 .5-.7-.2-1.9-1-1.8-1.8.1-3 1.5-3.2 3.3-.2 1.5.7 3.9 2.6 3.9 1 0 2.3-1 2.9-1.7.7-.8 1.1-1.9.8-2.9-.6-1.9-3.3-2.8-4.5-1-1 1.1 1.2 2.3 2 1zm133.8-2.8c.8 1.2.8 3-.5 4h1.2c-1.1-.7-1.5-1.9-1.5-3.1-.2.4-.4.7-.6 1 .8-.5 1.7-.4 2.3.3-.1-.3-.2-.6-.4-.9-.1 1.6-1.8 2.9-3.4 2.5.2.2.5.4.7.6-.4-.6-.6-1.3-.4-2 .1-.5.5-1.3 1.2-1.2.3.1.5.5.5.8 0 .2.1.4 0 .6-.1.3-.1.1-.1.1-1.6.1-1.6 2.6 0 2.4 2.6-.2 3.1-3.2 1.8-5.1-1.8-2.5-5.1-.9-5.8 1.6-.4 1.3-.2 2.8.5 3.9.9 1.3 3 .9 4.2.3 1.4-.6 2.5-1.8 2.9-3.2.2-.7.4-1.6-.1-2.2-.5-.6-1.3-1-2-1.2-1.6-.4-3.9.1-3.8 2.1 0 2 1.1 3.6 2.7 4.7.3.2.9.2 1.2 0 2.3-1.7 3-4.9 1.3-7.3-.7-1.2-2.8 0-1.9 1.3z" fill="#fff"/><path d="M529.5 684.7c4.6 12 8.7 24 12.5 36.3 1.4 4.5 8.4 2.6 7.1-2-3.7-12.2-7.9-24.3-12.5-36.3-1.7-4.4-8.8-2.5-7.1 2z"/><path d="M546.1 724.8c22.8-2.7 44.8-9 65.5-18.8 4.2-2 .5-8.3-3.7-6.3a196.6 196.6 0 0 1-61.8 17.8c-4.6.6-4.6 7.9 0 7.3zm59.6-56.7l7.5 27.3c.8 2.8 1.1 7.3 3.8 9 2.6 1.7 5.2.2 6.3-2.5.5-1.2-.1-2.7-.9-3.6l-.2-.2c-3.2-3.5-8.4 1.7-5.2 5.2l.2.2-.9-3.6c0 .1-.1.3-.2.4l2.6-2.6c-.1 0-.3.1-.4.2l3.6.9c.2.8.2.7 0-.2-.2-.8-.4-1.5-.6-2.3l-1.2-4.5c-.8-2.8-1.5-5.5-2.3-8.3l-4.8-17.4c-1.5-4.5-8.5-2.6-7.3 2zM492.4 801.7c.3 8.1 8.7 14.4 16.6 11.9 4.5-1.4 2.6-8.5-2-7.1-3.2 1-7.2-1.3-7.3-4.9-.2-4.6-7.5-4.6-7.3.1zm2.2 66.8c7.6 4.9 16.2 6.5 25.1 5.2 4.6-.7 2.7-7.7-2-7.1-6.9 1-13.6-.7-19.4-4.4-4-2.6-7.6 3.8-3.7 6.3zm110.3-701.3c3.1 9.3 6.2 18.5 9.3 27.8 1.5 4.4 8.6 2.5 7.1-1.9-3.1-9.3-6.2-18.5-9.3-27.8-1.6-4.5-8.6-2.6-7.1 1.9z"/><path d="M608.3 676.3c-9.6 4.3-19.1 8.6-28.7 12.9-4.3 1.9-.6 8.2 3.7 6.3 9.6-4.3 19.1-8.6 28.7-12.9 4.3-1.9.6-8.2-3.7-6.3zm-40.6 124.2c1.5 4.5 4.9 9.8 10.5 8.1 2.5-.7 3.8-2.7 4.6-5.1.9-2.7 1.6-5.5 2.5-8.2 1.3-4.5-5.7-6.5-7.1-2-.4 1.4-.8 2.8-1.3 4.2-.2.7-1.5 3.4-1.2 4 .2.3-.1-.1.2 0 .4.2.1-.2.1-.1 0-.2-.8-1.2-.9-1.3-.2-.5-.4-1-.5-1.6-1.3-4.4-8.4-2.5-6.9 2zm-4.4-317.2c3.2 6.6 4.7 13.7 4.8 21 0 2.6 2.3 3.9 4.6 3.5 14.9-2.4 28.7-9.5 39.3-20.2 3.3-3.3-1.8-8.5-5.2-5.2-9.8 9.9-22.3 16.2-36.1 18.4 1.5 1.2 3.1 2.4 4.6 3.5-.1-8.7-2.1-16.9-5.8-24.7-1.9-4.2-8.2-.5-6.2 3.7z"/><path d="M551.8 433c6.8-2.4 12.7 1.9 17.4 6.5 4.5 4.4 8.8 9 13.1 13.7 9.1 10 17.6 20.5 25.6 31.4 2.8 3.8 9.1.1 6.3-3.7-9.2-12.6-19.1-24.8-29.8-36.2-8.6-9.2-20.2-23.9-34.6-18.8-4.4 1.6-2.5 8.7 2 7.1zm20.2 71.9c6.1 24 9.9 48.4 11.2 73.1.2 2.9 4 5.1 6.2 2.6 1.1-1.2 1.9-1.8 3.5-2.2 4.6-1.2 2.6-8.2-2-7.1-2.7.7-4.9 2-6.8 4.1 2.1.9 4.2 1.7 6.2 2.6-1.4-25.3-5.2-50.5-11.5-75-.9-4.6-8-2.6-6.8 1.9z"/><path d="M586.2 576.2c-.3 17.8 1.1 35.6 4.3 53.1.8 4.6 7.9 2.7 7.1-2-3.1-16.9-4.4-34-4.1-51.2.1-4.7-7.2-4.7-7.3.1z"/><path d="M564.4 600c4.7.2 9.5.1 14.2-.3-1-.6-2.1-1.2-3.2-1.8 5.2 11.5 10.5 22.9 15.7 34.4 2 4.3 8.3.6 6.3-3.7-5.2-11.5-10.5-22.9-15.7-34.4-.5-1.1-2-1.9-3.2-1.8-4.7.4-9.4.5-14.2.3-4.6-.2-4.6 7.1.1 7.3zm64.9-276.7c0 2.2 1 4.4 2.7 5.9 2 1.7 4.3 2.2 6.9 1.8 1.9-.3 3.1-2.8 2.6-4.5-.7-2-2.5-2.9-4.5-2.6 1.2-.2 0 0-.1-.1 0 0 .8.3.2 0-.8-.4.7.2-.1 0-.5-.2.2.3 0 0-.1-.1-.4-.3-.5-.5l.3.3c-.1-.1-.1-.2-.2-.3-.1-.4.2.7 0 0s0 .8 0-.1c0-1.9-1.7-3.8-3.7-3.7-1.9.2-3.6 1.7-3.6 3.8zM466 711c.2-5.3.8-10.6 1.7-15.8-1.5.8-3 1.7-4.5 2.6 10.1 2.8 20.5 4.5 31 5.1 4.7.3 4.7-7 0-7.3-9.8-.6-19.5-2.3-29-4.9-1.8-.5-4.1.6-4.5 2.6-1.1 5.9-1.7 11.8-2 17.8-.2 4.6 7.1 4.6 7.3-.1zm28.8 161.8c-2.8 2.5-6 4.4-9.6 5.7-2.4.9-3.2 3.1-2.2 5.4 2.2 5.2 4.5 10.3 6.7 15.5 1.9 4.3 8.2.6 6.3-3.7-2.2-5.2-4.5-10.3-6.7-15.5-.7 1.8-1.5 3.6-2.2 5.4 4.8-1.7 9-4.2 12.8-7.6 3.6-3.1-1.6-8.3-5.1-5.2z"/><path d="M483 881.7c-6.9 1.9-14.3.1-21.3 1.1-7.2 1.1-14 3.7-20.8 6.4-4.3 1.7-2.5 8.8 2 7.1 6.8-2.7 13.7-5.5 21-6.4 7.1-.9 14.1.8 21.1-1.1 4.4-1.3 2.5-8.4-2-7.1z"/><path d="M440.1 891.1c-5.1 13.8-5.4 28.9-.9 42.8 1.5 4.5 8.5 2.5 7.1-2-4.2-12.9-3.9-26.3.9-39 1.7-4.3-5.4-6.2-7.1-1.8zm26.9-.3c.9 2 1.7 3.9 2.5 5.9.2.4 1.7 3.7 1.2 1.6.4-.8.3-1-.4-.7-.6.1-1.2.3-1.8.4-4 .9-8.1 1.8-12.1 2.8-4.6 1-2.6 8.1 2 7.1 3.2-.7 6.5-1.5 9.7-2.2 2.6-.6 5.9-.8 8-2.6 4.6-3.9-.9-11.9-2.7-16-1.9-4.3-8.2-.5-6.4 3.7z"/><path d="M454.7 889.6c-1.2 5.8-1 11.5.9 17.1 1.5 4.4 8.6 2.5 7.1-2-1.5-4.3-1.9-8.7-.9-13.2 1-4.6-6.1-6.5-7.1-1.9zm37.9-6c1.3 2.4 2.7 4.8 4 7.2 2.3 4.1 8.6.4 6.3-3.7-1.3-2.4-2.7-4.8-4-7.2-2.3-4.1-8.6-.4-6.3 3.7zm58.5-150.4c5.3 46 9.3 92 11.8 138.2.3 4.7 7.6 4.7 7.3 0-2.6-46.2-6.5-92.3-11.8-138.2-.5-4.6-7.9-4.7-7.3 0zm35.6-19.5c-.7 59.5 3.3 118.9 11.7 177.8.7 4.7 7.7 2.7 7.1-2-8.3-58.2-12.1-117-11.4-175.9 0-4.6-7.3-4.6-7.4.1zm-23.3 169.5c0 8 .1 16 .2 24.1 0 3.7 0 7.5.1 11.2 0 2.9-.3 6 1.1 8.7 2.7 5.1 8.8 4.7 13.7 4.5 7.7-.3 15.4-.5 23.2-.8 4.7-.2 4.7-7.5 0-7.3-6.2.2-12.3.4-18.5.6-2.7.1-5.5.3-8.2.3-3.2 0-3.8-.3-3.8-3.6-.1-12.6-.2-25.1-.2-37.7-.3-4.8-7.6-4.8-7.6 0z"/><path d="M588.3 912.3c.9-7 7.4-13.2 12.9-17.1 5.5-3.9 12-6.8 18.9-7 12.3-.5 25 8.6 25 21.7 0 4.7 7.3 4.7 7.3 0 0-16.9-16.1-29.7-32.4-29-16.6.7-36.9 14-39.1 31.4-.5 4.7 6.8 4.7 7.4 0z"/><path d="M610.8 934.8c8.8-4.3 19.5 0 28.8-2.2 7.5-1.7 14.2-7.9 13.9-16-.2-4.7-7.5-4.7-7.3 0 .3 9.1-11.3 9.7-17.8 9.3-7.4-.4-14.5-.9-21.3 2.5-4.2 2.1-.5 8.4 3.7 6.4zm.2-15.9c5.5-1 10.9-1.9 16.3-2.8 4.6-.8 2.7-7.9-2-7.1-5.5 1-10.9 1.9-16.3 2.8-4.6.9-2.6 7.9 2 7.1zm-170.7 10.3c23.7 12.2 53.6 10 75-6.2 3.7-2.8.1-9.2-3.7-6.3-19.3 14.5-46 17.2-67.6 6.2-4.2-2.1-7.9 4.2-3.7 6.3z"/><path d="M516.1 875.1c1.5 14.2 1.6 28.4.2 42.6-.5 4.7 6.9 4.7 7.3 0 1.4-14.2 1.3-28.4-.2-42.6-.5-4.6-7.8-4.7-7.3 0z"/><path d="M515.8 913.5c-1.4.7-2.8 1.4-4.3 2.1-1.7.9-2.3 3.4-1.3 5 1.1 1.8 3.2 2.2 5 1.3 1.4-.7 2.8-1.4 4.3-2.1 1.7-.9 2.3-3.4 1.3-5-1.2-1.8-3.2-2.3-5-1.3zm-14.4-2.2c2.5-1.1 5-2.1 7.5-3.2 1.8-.8 2.2-3.5 1.3-5-1.1-1.9-3.2-2.1-5-1.3-2.5 1.1-5 2.1-7.5 3.2-1.8.8-2.2 3.5-1.3 5 1.1 1.8 3.1 2 5 1.3zm-6.3-11.4c4.6-1.7 8.4-4.7 10.9-9 2.4-4.1-3.9-7.8-6.3-3.7-1.5 2.5-3.7 4.6-6.5 5.6-1.9.7-3.1 2.5-2.6 4.5.5 1.8 2.7 3.3 4.5 2.6zm-.8-52.2c10 3.2 20.6 3.3 30.7.2 4.5-1.4 2.6-8.5-2-7.1-8.9 2.8-17.9 2.7-26.8-.2-4.4-1.4-6.4 5.7-1.9 7.1zm70.2 0c9.9 2.2 19.9 2 29.7-.5 4.6-1.2 2.6-8.2-2-7.1-8.5 2.2-17.2 2.4-25.8.5-4.5-1-6.5 6-1.9 7.1zm-1.9 30.4c13.6 5.6 28.9 3 40.4-5.9 3.7-2.9-1.5-8-5.2-5.2-9.5 7.4-22.3 8.5-33.3 4-4.3-1.8-6.2 5.3-1.9 7.1z"/><path d="M502.6 867.4c-.3-49.4-4.6-98.8-12.9-147.5-.8-4.6-7.8-2.7-7.1 2 8.2 48.1 12.4 96.8 12.6 145.5.1 4.7 7.5 4.7 7.4 0zm21.6-151.2c1.8 58.2-.6 116.4-4.9 174.4-.3 4.7 7 4.7 7.3 0 4.3-58 6.6-116.2 4.9-174.4-.1-4.7-7.4-4.7-7.3 0zM601 492.8c9.7 26.6 14.5 54.7 14.2 83 0 4.7 7.3 4.7 7.3 0 .3-28.9-4.5-57.8-14.4-85-1.6-4.3-8.7-2.4-7.1 2z"/><path d="M609.3 558.4c8.2 35.4 10.1 71.9 5.8 107.9-.6 4.7 6.8 4.6 7.3 0 4.4-36.7 2.3-73.9-6.1-109.8-1-4.6-8-2.7-7 1.9z"/><path d="M615.8 668.2v8.2c0 4.7 7.3 4.7 7.3 0v-8.2c0-4.7-7.3-4.7-7.3 0z"/></svg>