<?xml version="1.0" encoding="utf-8"?>
<!-- Generator: Adobe Illustrator 23.0.2, SVG Export Plug-In . SVG Version: 6.00 Build 0)  -->
<svg version="1.1" id="Layer_1" xmlns="http://www.w3.org/2000/svg" xmlns:xlink="http://www.w3.org/1999/xlink" x="0px" y="0px"
	 viewBox="0 0 1000 1000" style="enable-background:new 0 0 1000 1000;" xml:space="preserve">
<style type="text/css">
	.st0{opacity:0.7;}
	.st1{fill:#FBDFC5;}
	.st2{fill:#F29149;}
	.st3{fill:#FCA386;}
	.st4{fill:#FFBF19;}
	.st5{fill:#46BFD1;}
	.st6{fill:#D1C9FB;}
	.st7{fill:#EBE4E3;}
	.st8{fill:#E675D1;}
	.st9{fill:#FFFFFF;}
</style>
<g>
	<g class="st0">
		<path class="st1" d="M559.9,748.3c-4.5-6.7-4.3-16.3,0.6-22.8s14-9.4,21.7-7"/>
		<g>
			<path class="st2" d="M505.3,207c-7.9,8.6-7.1,23.7,1.6,31.4c8.7,7.7,23.8,6.6,31.4-2.3"/>
			<path class="st2" d="M457.9,157.1c-3.4,18.6-8.4,37-15,54.8c-4.4,11.7-11.1,24.6-23.3,27.2c-9.6,2-19.6-3.5-25.2-11.5
				c-5.6-8-7.5-18-8.2-27.8c-2.4-33.6,8.8-67.9,30.5-93.7"/>
			<g>
				<path class="st2" d="M334.3,278.5c0.5-8,8.2-13.8,16.1-15.5s15.9-0.5,23.9-0.9c24.2-0.9,47.3-17,56.5-39.4
					c4.5-10.9,5.8-23.6,1-34.3c-3.6-8-10.4-14.3-18.1-18.6c-20.8-11.4-48.9-7.1-65.3,10s-19.5,45.4-7.3,65.7"/>
				<path class="st2" d="M381.2,330.8c12.1,6.2,23.2,18.6,20.2,31.9c-2.5,11-14.7,17.9-26,17.3c-11.3-0.6-21.5-7.2-29.4-15.3
					c-8.3-8.5-33.5-45.6-20.3-57C332.9,301.4,371.6,325.9,381.2,330.8z"/>
				<g>
					<path class="st1" d="M391.7,261.4c-8.4,2.2-17.2,2.6-25.2,5.7s-15.6,9.9-16,18.5c-0.4,9.6,8.1,17.2,16.7,21.4
						c8.6,4.2,18.4,6.6,25.5,13c21.4,19.1,8.6,61.9,33.2,76.8c22.5,13.6,60-8.6,74.5,13.4c5.6,8.5,4,19.9,8.5,29
						c4.5,9.1,21.9,11.1,22,1c-10.7-14.8,3.9-35.4,20.3-43.3c16.4-7.9,36.3-10.9,48-24.9c10.9-13,20.1-24,24.7-44.1
						c3-12.9,24-10.5,36.5-15c12.5-4.4,25.4-15.2,23.2-28.3c-3-17.9-27.6-19.3-45.8-20.6c-42.3-3-81.6-32.2-96.6-71.8
						c5.8,17.9,11,39.7-1.5,53.8c-11.5,12.9-31.2,9.7-44.1,0.8c-15.2-10.6-7.9-54.3-21.2-62.9c-18.2-11.6-29.3,30.9-37.3,42.3
						C426.2,242.6,411.1,256.4,391.7,261.4z"/>
					<path class="st2" d="M660.5,223.4c-1.3-11.8-3.7-23.4-7-34.8c-7.3-27.7-18.7-56.8-43.3-68.2c-3.2-1.6-6.5-2.8-9.9-3.4
						c-34.1-8-69.7,19.8-104,26.8c-7.6-1.1-15-3.3-22-6.4l7.8,7.9c-6.8,0-13.6-1.1-20.2-3.9c-8.1-3.4-16.1-12.7-11.4-20.1
						c2-3.2,5.8-4.8,9.3-6.2c25.5-10.1,71.8-14.9,50.5-48.1c-7.3-11.4-18.7-21.1-30.1-28.1c-4.6-2.8-36.1-11.8-36.8-13.6
						c6.7,17.1,13.5,34.3,20.2,51.4c-46.5-9.2-95.5,15.6-123.4,54c-27.9,38.4-36.9,87.9-34.3,135.2s15.9,93.4,29.2,138.9
						c8.5,0.2,17,0.4,25.5,0.6c1.6,10.4,3.2,21.1,8.5,30.3c5.3,9.1,15.1,16.5,25.6,15.6c15.1-1.2,24.4-18.4,23.6-33.6
						c-0.8-15.1-8.6-28.9-14.3-42.9c-5.2-12.8-8.5-27.8-3.5-40.3c-4.2,3.1-10.1,5.6-15,5.1c-12.6-1.3-24.1-5.8-32.6-15.5
						c-6.9-7.9-12.1-17.5-13.7-28c-1.9-12-1.3-24.6,5.3-35.3c7.9-12.8,20.3-18.6,34.9-20c9.9-0.9,18,5.8,22,14.2
						c28.5-33.5,47.1-66.7,75.6-100.1c1.7,20.7,3.8,42.4,15.4,59.5c3.6,5.3,8.5,10,13.9,13.6c2.7,8.1,7.6,16,15.8,16.4
						c6.1,0.3,10.8-3.9,13.4-9.5c3.7-0.6,7.3-2,10.6-4.1c-12.8-15.9-15.4-39.3-6.6-57.8c14.1,31.3,38.4,57.9,68.3,74.7
						c0.1,0,0.1,0.1,0.2,0.1c0.6,0.5,1.3,1,1.9,1.4c12.3,9.1,30,16.7,42,7.2C661.4,249.4,661.9,235.4,660.5,223.4z"/>
					<path class="st3" d="M434.7,323.3c6.6,0.7,8.8,11.6,2.9,14.8c-5.9,3.2-13.8-4.5-10.8-10.5"/>
					<path class="st3" d="M574.3,324.4c8.9-0.4,17.9-0.8,26.8-1.2c-3.2,7.8-12.5,12.5-20.6,10.5"/>
					<path class="st2" d="M492.4,314.2c-1.1-1.3,1.2-3.3,2.6-2.3c1.4,1,1,3.3-0.4,4.3c-1.3,1-3.2,1.1-4.9,0.8c0.5-1.2,1-2.4,1.5-3.6
						"/>
					<path class="st2" d="M504.1,300.4c-0.1-2.4,3.3-3.8,5.1-2.2s1.4,4.7-0.6,6.1s-4.8,0.9-6.5-0.7c0.5-1,1-2.1,1.5-3.1"/>
					<path class="st2" d="M526,309.7c-0.3,2.1,1.9,4.2,4,3.7c2.1-0.5,3.2-3.3,2-5.1c-1.2-1.8-4.3-1.7-5.5,0.1"/>
					<path class="st4" d="M460,489c7.2-5.3,16.3-8,25.3-7.6c5.2,38.9,10.4,77.8,15.5,116.7c20.9-1.2,41.7-2.4,62.6-3.6
						c-1.5-38.2-3-76.4-4.6-114.6c1.6-3.9,7.9-2.6,10.5,0.7c2.6,3.3,3.7,7.9,7,10.6c7.1,5.8,18.4-2.4,18.9-11.6s-5.5-17.1-11.3-24.2
						c-7.7-9.6-18.8-20.2-30.5-16.2c-5.3,1.8-9,6.4-13.7,9.5c-25,17-44-13.1-67.8-8.3C440,447,463.1,486.7,460,489z"/>
					<path class="st5" d="M466.4,707.9c20.5,9.1,45.9,11.4,61-5.2c1.3-1.4,3.1-10.7,4.8-11.6c4.5-2.5,10.6,0.5,13.1,5.1
						s2.5,10,2.4,15.2c15.8-1.4,31.5-3.8,47-7.2c5.8-1.2,12-2.9,15.6-7.7c5.3-7,2.3-17-0.9-25.2c-6.9-17.7-13.8-35.3-20.8-53
						c-2.5-6.4-5.3-13.2-10.9-17.1c-17.2-12.1-75.6-4.7-89.5,12.3C480.4,623,463.2,706.3,466.4,707.9z"/>
					<path class="st1" d="M392.5,506.9c-4.9,5.7-9.7,12.3-9.6,19.8c0.2,12.1,12.4,19.9,22.6,26.5c18.7,11.9,35.4,26.9,49.2,44.3
						c4,5,7.9,11.9,4.8,17.5c-2,3.6-6.2,5.3-8.8,8.5s-1.6,9.7,2.5,9.3c3.5,1.7,7,3.3,10.5,5c13.8-14,10.7-37.9,0.2-54.5
						s-26.6-28.8-39.1-43.8c-4-4.8-7.9-11.3-5.3-17.1c2.1-4.7,7.6-6.7,12-9.3c11.5-6.9,25.5-33.4,7.6-39.9
						C424,467.5,400.1,497.9,392.5,506.9z"/>
					<path class="st1" d="M610.7,642.8c3.2-1.5,3.3-6,3-9.5c-3.3-28.2-2.5-61.8-11.4-88.5C578.9,560,604,645.8,610.7,642.8z"/>
					<path class="st1" d="M584.9,501.9c2.2,17.3,4.5,34.7,6.7,52c0.8,6.5,3.3,14.7,9.9,15.2c4.7,0.3,8.6-4,9.5-8.6
						c0.9-4.6-0.5-9.3-1.9-13.7c-6-19.8-1.8-48-7.8-67.8"/>
					<path class="st1" d="M498.2,829.8c0.6,6.4,2.5,14.3,8.8,15.5c7.6,1.4,11.9-8.2,13.3-15.8c5.8-33.7,10.8-75.5,1.7-108.8
						C467.4,714,495.1,797.9,498.2,829.8z"/>
					<path class="st1" d="M559.3,808.3c0.1,9.5,0.6,20.1,7.1,27.1c6.5,7,21.2,5.9,22.9-3.5c-3.7-21.5-6-43.2-7-65
						c-0.7-14.5,3.2-34.9-2.3-47.7C551.2,733.2,559,783.4,559.3,808.3z"/>
					<path class="st6" d="M498.3,848.9c0.8,4.7,1.6,9.3,2.5,14c4.6,3.1,10.2,4.6,15.7,4.3c0-6,0-12,0-17.9
						c-5.4-0.1-10.7-0.2-16.1-0.3"/>
					<path class="st6" d="M567.2,851.1c1.3,6.3,2.5,12.5,3.8,18.8c6.6,5.1,17.2,3.6,22.2-3s3.5-17.2-3.2-22.1
						c-6.6,4-14.5,5.6-22.2,4.7"/>
					<path class="st7" d="M448.2,896.8c-5.5,8.2-2.3,20.2,5.4,26.5c7.6,6.3,18.3,7.7,28.1,6.5c11.4-1.5,22.7-6.4,30.1-15.2
						c7.4-8.8,10.3-21.7,5.7-32.3c-2.1-4.8-6.4-9.3-11.6-8.7c-3.9,0.4-6.9,3.6-9.8,6.2c-13,12-31.8,17.3-49.1,13.9"/>
					<path class="st7" d="M574.7,888.4c-5.4,5.3-7.5,13.6-5.3,20.8s8.6,13,16,14.4c8.6,1.7,17.2-2.2,25.9-2.8
						c11-0.8,25.3,1.8,30.3-8c3.8-7.6-2.5-17.1-10.5-19.8c-8-2.7-16.8-0.7-25.1,1.4c-2.3-5.4-4.7-10.9-7-16.3
						c-8.2,0.8-16.4,1.5-24.5,2.2"/>
					<path class="st8" d="M511.7,133.9c9.4,0.5,20.7,0.1,25.8-7.8c5.3-8.3,0.2-19.3-6.3-26.6s-15-13.8-17.5-23.2
						c3.2,12.1-51.9,28.3-55.9,42.3C451.4,140.4,495.5,133,511.7,133.9z"/>
				</g>
			</g>
		</g>
	</g>
	<g>
		<path d="M322.8,249.7c-12.8,46.2-12.2,95.8,1.5,141.7c3.9,13,8.8,25.6,14.7,37.8c2,4.2,8.4,0.5,6.3-3.7
			c-25.8-53.8-31.3-116.4-15.4-173.8C331.1,247.1,324,245.1,322.8,249.7L322.8,249.7z"/>
	</g>
	<g>
		<path d="M342.4,415c4.8-0.7,9.7-1.5,14.5-2.2c4.6-0.7,2.7-7.8-2-7.1c-4.8,0.7-9.7,1.5-14.5,2.2C335.8,408.6,337.8,415.7,342.4,415
			L342.4,415z"/>
	</g>
	<g>
		<path d="M349,364.5c0.7,7.5,1.5,14.9,2.2,22.4c0.5,4.6,7.8,4.7,7.3,0c-0.7-7.5-1.5-14.9-2.2-22.4
			C355.8,359.8,348.5,359.8,349,364.5L349,364.5z"/>
	</g>
	<g>
		<path d="M359.1,357.8c4.4,34.1,12.1,67.7,23,100.3c1.2,3.7,7.4,3.4,7.2-1c-0.5-10.4,13.7-8.6,20.1-7.4c4.6,0.9,6.6-6.2,2-7.1
			c-6.8-1.3-14.2-2.6-20.6,0.7c-5.2,2.6-9,7.8-8.7,13.8c2.4-0.3,4.8-0.6,7.2-1c-10.7-32-18.4-64.9-22.7-98.4
			C365.8,353.2,358.5,353.1,359.1,357.8L359.1,357.8z"/>
	</g>
	<g>
		<path d="M407.1,376.8c2.6,20.1,5.2,40.2,7.8,60.3c0.6,4.6,7.9,4.7,7.3,0c-2.6-20.1-5.2-40.2-7.8-60.3
			C413.8,372.2,406.5,372.1,407.1,376.8L407.1,376.8z"/>
	</g>
	<g>
		<path d="M476.7,95.8c-12-1.7-22,5-29,14.3c-7.2,9.7-12.6,21-17.2,32.2c-9.6,23.3-14.4,48.4-14.3,73.6c0,4.7,7.3,4.7,7.3,0
			c-0.1-22.2,3.8-44.2,11.5-65c3.8-10.4,8.7-20.5,14.4-30.1c5.3-8.8,13.7-19.6,25.4-18C479.4,103.5,481.4,96.5,476.7,95.8
			L476.7,95.8z"/>
	</g>
	<g>
		<path d="M509.1,73.7c5.2-6,13.1,7.9,14.8,11.8c3.7,8.9-5.8,11.7-12.4,14c-16.4,5.6-33.2,9.7-50.4,12.3c-4.6,0.7-2.7,7.8,2,7.1
			c12.3-1.8,24.4-4.4,36.3-7.8c5.7-1.6,11.4-3.4,17-5.4c4.1-1.5,8.4-3.1,11.5-6.2c7.8-7.6,3-17.7-2.3-25.1
			c-4.8-6.6-14.6-13.8-21.7-5.7C500.8,72,506,77.2,509.1,73.7L509.1,73.7z"/>
	</g>
	<g>
		<path d="M440.6,117.5c-0.4,3.7-0.7,7.3-1.1,11c-0.2,1.8,1.8,3.9,3.7,3.7c21.5-2.6,43.1-4.3,64.8-5.2c4.7-0.2,4.7-7.5,0-7.3
			c-21.6,0.9-43.3,2.7-64.8,5.2c1.2,1.2,2.4,2.4,3.7,3.7c0.4-3.7,0.7-7.3,1.1-11C448.4,112.8,441,112.9,440.6,117.5L440.6,117.5z"/>
	</g>
	<g>
		<path d="M529.4,97.5c5.3,4.8,11.8,10.3,12.6,17.9c0.9,8.5-5.5,11.4-12.8,12.3c-17,2.2-34.4,2.2-51.5,0.6c-4.7-0.4-4.7,6.9,0,7.3
			c10.9,1,21.8,1.3,32.8,0.9c5.5-0.2,10.9-0.6,16.4-1.2c4.2-0.5,8.6-0.9,12.5-2.6c7.3-3.2,10.7-10.6,9.8-18.3
			c-1.1-9.3-8-16.1-14.6-22.1C531.1,89.2,525.9,94.4,529.4,97.5L529.4,97.5z"/>
	</g>
	<g>
		<path d="M542.3,121.1c23.5-15.2,54.3-12.3,77.1,2.8c23.4,15.6,37.6,41.7,43.7,68.7c4,17.6,4.7,35.6,3.9,53.6
			c-0.2,4.7,7.1,4.7,7.3,0c1.5-32.6-2.6-66.5-19.7-94.9c-15-25-39.5-44-69.1-47.2c-16.3-1.7-33.1,1.7-47,10.7
			C534.7,117.4,538.3,123.7,542.3,121.1L542.3,121.1z"/>
	</g>
	<g>
		<path d="M480.4,158.8c0.9,14.4,2.7,28.7,5.4,42.9c2.5,12.9,5,27.1,10.5,39.2c2.1,4.5,5.2,8.6,9.9,10.6c6,2.6,12.4,0.4,18.3-1.4
			c14.4-4.2,28.9-8.4,43.3-12.6c4.5-1.3,2.6-8.4-2-7.1c-12.6,3.7-25.3,7.4-37.9,11.1c-5.3,1.6-13.5,5.7-19,3.3
			c-4.1-1.8-6.2-7-7.5-10.9c-8.1-24-12.1-49.8-13.6-75C487.4,154.1,480.1,154.1,480.4,158.8L480.4,158.8z"/>
	</g>
	<g>
		<path d="M532.1,181c2.2,21.7,9,42.6,20.2,61.4c2.4,4.1,8.7,0.4,6.3-3.7c-10.5-17.6-17.1-37.3-19.2-57.7
			C539,176.3,531.6,176.3,532.1,181L532.1,181z"/>
	</g>
	<g>
		<path d="M540.7,168.8c18.1,42.4,42.6,93.6,93.7,101.4c4.6,0.7,6.6-6.4,2-7.1c-49.1-7.6-71.9-57.4-89.3-98.1
			C545.1,160.8,538.8,164.5,540.7,168.8L540.7,168.8z"/>
	</g>
	<g>
		<path d="M465,159.2c-12,45.5-42.3,85.2-83,109c-4.1,2.4-0.4,8.7,3.7,6.3c42.3-24.6,73.8-66,86.3-113.3
			C473.3,156.6,466.2,154.6,465,159.2L465,159.2z"/>
	</g>
	<g>
		<path d="M458.2,70.1c-37.7-22-82.5,7.1-108.7,34.2c-27.6,28.6-46.1,65.9-52.7,105c-3.8,22.2-3.7,44.8,0.4,66.9
			c0.9,4.6,7.9,2.7,7.1-2c-6.8-36.8-1.5-75.4,13.6-109.5c15-33.8,40.2-65.9,73.1-83.7c19.3-10.4,43.5-16.3,63.5-4.6
			C458.6,78.8,462.3,72.4,458.2,70.1L458.2,70.1z"/>
	</g>
	<g>
		<path d="M493.4,74.2c0.7-15-5.8-30.2-17.6-39.7c-11.8-9.5-27.6-12.7-42.2-9.1c-3.2,0.8-3.4,5-0.9,6.7c14.4,9.3,24.4,24.9,26.5,42
			c0.6,4.6,7.9,4.7,7.3,0c-2.5-19.8-13.3-37.5-30.1-48.3c-0.3,2.2-0.6,4.5-0.9,6.7c12.4-3.1,26.2-0.3,36.1,8
			c9.9,8.3,15.1,20.9,14.5,33.7C485.8,78.9,493.1,78.9,493.4,74.2L493.4,74.2z"/>
	</g>
	<g>
		<path d="M401.6,329.2c-10.7,17-5.2,39.5,7.8,53.5c14.9,16,37.5,22.1,58.5,25.3c24.8,3.8,50.1,3.3,74.8-1.3
			c22.4-4.2,45.8-11.5,64.1-25.5c19-14.5,32-38.1,26.6-62.4c-1-4.6-8.1-2.6-7.1,2c4.4,19.9-6,39.6-20.9,52.2
			c-15.7,13.3-36.2,20.2-55.9,24.8c-22,5.1-44.8,6.6-67.2,4.7c-19.9-1.8-41.4-5.5-58.3-16.9c-16.5-11.1-27.8-34.2-16.1-52.7
			C410.5,328.9,404.1,325.2,401.6,329.2L401.6,329.2z"/>
	</g>
	<g>
		<path d="M654.3,291.4c-0.8-1.4,1.6-0.8,2.1-0.4c1.2,0.9,1.4,3,1.3,4.3c-0.2,2.7-1.6,5.4-3.2,7.5c-2.9,4.1-7.3,6.6-12.1,7.7
			c-4.6,1-2.7,8.1,2,7.1c10.8-2.4,23.2-13.8,20.4-26c-1.2-5-6.1-9.5-11.5-8.2c-5.3,1.2-7.7,7.3-5.2,11.9
			C650.3,299.2,656.6,295.5,654.3,291.4L654.3,291.4z"/>
	</g>
	<g>
		<path d="M638.8,287.5c5.5-6.9,12.5-14.1,21.6-15.5c8.2-1.2,17,2.8,18.3,11.6c1.3,8.7-3.8,17.5-9.1,23.9c-5.9,7-13.3,12.4-21.7,16
			c-4.3,1.9-0.6,8.2,3.7,6.3c10.4-4.5,19.4-11.8,26.1-20.9c6.2-8.5,11-20.3,7.1-30.8c-3.6-9.7-13.8-14.5-23.7-13.6
			c-11.5,1-20.6,9-27.5,17.7C630.8,286,635.9,291.2,638.8,287.5L638.8,287.5z"/>
	</g>
	<g>
		<path d="M388.9,280.3c0.9-11.9-9.8-22.3-21.5-22.2c-12.6,0.1-23,10.8-25,22.8c-2.2,13.7,4.6,26.9,14.9,35.6
			c11.3,9.5,25.5,14,39.5,18.2c4.5,1.4,6.5-5.7,2-7.1c-19.4-5.8-45.5-14.2-49.1-37.5c-1.5-9.9,3.2-20.6,13.1-23.9
			c9.3-3.1,19.6,4.1,18.8,14.1C381.2,285,388.5,285,388.9,280.3L388.9,280.3z"/>
	</g>
	<g>
		<path d="M380.5,280.4c-9.3-4.4-19.5,4.1-17.6,14.1c2.3,12.5,15.9,15.8,26.7,14.7c4.6-0.5,4.7-7.8,0-7.3c-6.1,0.6-13.8,0.6-17.8-5
			c-1.6-2.2-2.5-5.3-1-7.8c1.2-2,3.9-3.5,6.1-2.4C381,288.7,384.7,282.4,380.5,280.4L380.5,280.4z"/>
	</g>
	<g>
		<path d="M444.8,250.3c4-4.6,9.4-6.7,15.4-5.9c4.7,0.6,4.6-6.7,0-7.3c-7.8-1-15.6,2.1-20.6,8.1
			C436.6,248.7,441.8,253.9,444.8,250.3L444.8,250.3z"/>
	</g>
	<g>
		<path d="M463.7,367.5c31,18.7,72.9,14.4,99.6-9.9c3.5-3.2-1.7-8.4-5.2-5.2c-24.3,22.2-62.6,25.7-90.7,8.8
			C463.4,358.7,459.7,365.1,463.7,367.5L463.7,367.5z"/>
	</g>
	<g>
		<path d="M547.3,354c6.4,2.9,12.9,3.7,19.8,2.6c4.6-0.7,2.7-7.8-2-7.1c-4.8,0.7-9.8,0.1-14.2-1.9C546.8,345.8,543,352.1,547.3,354
			L547.3,354z"/>
	</g>
	<g>
		<path d="M502.1,344.9c0.2-4.8,6.1-8.7,10.5-6.6c4.2,2,8-4.3,3.7-6.3c-9.5-4.5-21.2,2.3-21.5,12.9
			C494.6,349.6,501.9,349.6,502.1,344.9L502.1,344.9z"/>
	</g>
	<g>
		<path d="M439.8,280.8c-8.7,3.4-7.3,12.6-3.9,19.5c3.3,6.8,10.3,12.5,17.5,6.6c6.2-5.1,6.4-16.5,3.9-23.6
			c-2.6-7.5-11-11.4-17.6-6.3c-3.7,2.9,1.5,8,5.2,5.2c3.5-2.7,5.9,4.4,6.1,6.5c0.4,3.4,0.7,8.5-1.3,11.4c-4.9,7.3-12.6-10.5-8-12.2
			C446,286.2,444.2,279.1,439.8,280.8L439.8,280.8z"/>
	</g>
	<g>
		<path d="M577.9,279c-8.2-2.8-12,11.5-11.4,17.3c0.9,9.5,11.2,11.7,18.3,7c6.7-4.4,10.6-14.1,6.5-21.5c-4.1-7.2-13.6-9.1-20-4.1
			c-3.7,2.9,1.5,8,5.2,5.2c2.7-2.1,7.1-0.1,8.5,2.6c1.8,3.4,0,7.7-2.4,10.3c-2.2,2.2-7.9,4.9-8.7,0.1c-0.3-1.6,0.3-3.5,0.8-5.1
			c0.2-0.6,2.1-4.5,1.5-4.6C580.4,287.6,582.3,280.6,577.9,279L577.9,279z"/>
	</g>
	<g>
		<path d="M584.8,292.8c3.2-0.9,6.5-1.8,9.8-2.7c4.5-1.2,2.6-8.3-2-7.1c-3.2,0.9-6.5,1.8-9.8,2.7C578.3,287,580.3,294.1,584.8,292.8
			L584.8,292.8z"/>
	</g>
	<g>
		<path d="M435.7,285.9c-2.3,0.5-4.6,1-6.9,1.5c-1.9,0.4-3.1,2.7-2.6,4.5c0.5,2,2.6,3,4.5,2.6c2.3-0.5,4.6-1,6.9-1.5
			c1.9-0.4,3.1-2.7,2.6-4.5C439.6,286.5,437.6,285.5,435.7,285.9L435.7,285.9z"/>
	</g>
	<g>
		<path d="M438.4,284.1c-2.9,7.4-1.2,15.3,3.9,21.3c1.2,1.4,4,1.5,5.2,0c5.6-7.2,5.4-17.2-1.1-23.8c-1.7-1.7-4.5-1.3-5.8,0.7
			c-4.2,6.9-2.1,15.2,4.1,19.9c2.1,1.6,4.6-0.3,5.4-2.2c3.1-7.4,0.9-16.1-5.1-21.4c-3-2.5-6.6,0-6.1,3.6c0.7,5.1,2.8,9.5,6,13.5
			c1.6,2,5.7,1,6.1-1.6c0.7-4.7,0.6-9.4-0.9-14c-1.5-4.6-5.8-4.9-10-3.5c-1.7,0.6-2.5,1.8-2.7,3.5c-0.7,5.6,1.5,11.1,5.8,14.8
			c2.1,1.8,5.3,1.2,6.1-1.6c1.9-6.4-0.7-12.8-6.2-16.5c-1.6-1.1-4.1-0.4-5,1.3c-3.8,7.3-2.7,15.9,3,22c3.2,3.4,8.4-1.8,5.2-5.2
			c-3.4-3.6-4.1-8.7-1.9-13.1c-1.7,0.4-3.3,0.9-5,1.3c2.8,1.9,3.7,5.1,2.8,8.2c2-0.5,4.1-1.1,6.1-1.6c-3-2.6-4.1-5.7-3.6-9.6
			c-0.9,1.2-1.8,2.4-2.7,3.5c1-0.5,2-0.6,3.1-0.4c-0.9-0.9-1.7-1.7-2.6-2.6c1.3,3.7,1.9,7.5,1.3,11.4c2-0.5,4.1-1.1,6.1-1.6
			c-2.4-3-3.6-6.5-4.1-10.3c-2,1.2-4.1,2.4-6.1,3.6c4.3,3.7,5.4,9,3.3,14.2c1.8-0.7,3.6-1.5,5.4-2.2c-3.1-2.4-3.4-6.8-1.5-9.9
			c-1.9,0.2-3.8,0.5-5.8,0.7c3.5,3.5,4.2,9.4,1.1,13.5c1.7,0,3.5,0,5.2,0c-3.5-4.1-3.9-9.3-2-14.1
			C447.2,281.7,440.1,279.8,438.4,284.1L438.4,284.1z"/>
	</g>
	<g>
		<path d="M574,286.4c-3.9,4.1-4.6,9.5-2.3,14.6c0.6,1.4,2.7,2.1,4.1,1.7c7.8-2.5,11.2-10.9,8-18.3c-0.9-2-4.4-2.5-5.8-0.7
			c-3.3,4.2-8.6,16.6,1.3,16.1c3-0.1,5.9-2.4,6.7-5.3c1-3.8-1-7.3-3.3-10.1c-1.2-1.5-3.9-1.3-5.2,0c-3.3,3.3-4,8.5-1.1,12.4
			c1.5,2,3.8,2.4,5.8,0.7c4.4-3.7,5.3-10.5,2-15.2c-1-1.4-2.5-2-4.1-1.7c-4.9,1.1-3.7,7.7,0.5,8.9c2.1,0.6,4.3-0.5,5.3-2.5
			c1.2-2.4,0.4-4.8-0.6-7.1c-1.9,1.5-3.8,3-5.8,4.4c1.3,1.5,2.7,3.1,4,4.6c2.7,3.1,8.2-1,5.8-4.4c-0.8-1.1-1.6-2.3-2.4-3.4
			c-2-2.8-6.9-2.1-6.8,1.9c0,1.7,0.1,3.4,0.1,5.1c0.1,4.7,7.5,4.7,7.3,0c0-1.7-0.1-3.4-0.1-5.1c-2.3,0.6-4.5,1.2-6.8,1.9
			c0.8,1.1,1.6,2.3,2.4,3.4c1.9-1.5,3.8-3,5.8-4.4c-1.3-1.5-2.7-3.1-4-4.6c-2.9-3.4-7.3,0.9-5.8,4.4c0.3-0.2,0.7-0.5,1-0.7
			c0.9-0.1,1.9-0.2,2.8-0.4c0.5,0.9,0.9,1.8,1.4,2.7c-0.8,0.9-1.7,1.7-2.6,2.6c0.2,0,0.3-0.1,0.5-0.1c-1.4-0.6-2.8-1.1-4.1-1.7
			c1.5,2.2,1.2,4.6-0.9,6.4c1.9,0.2,3.8,0.5,5.8,0.7c-0.9-1.2-1.2-2.4,0-3.5c-1.7,0-3.5,0-5.2,0c0.6,0.7,0.8,1.8,1.3,2.4
			c0.3,0.4,0.3,0.5,0,0.6c-0.3,0-0.1,0,0.7,0c0.4,0.9,0.7,1.7,1.1,2.6c0.2-2.3,1.1-4.5,2.5-6.3c-1.9-0.2-3.8-0.5-5.8-0.7
			c1.3,2.9-0.8,6.6-3.7,7.5c1.4,0.6,2.8,1.1,4.1,1.7c-0.9-2-0.3-4.2,1.1-5.7C582.4,288.1,577.2,282.9,574,286.4L574,286.4z"/>
	</g>
	<g>
		<path d="M494.8,409.6c3,8.8,4.4,17.7,4.4,27c0,4.7,7.3,4.7,7.3,0c0-9.9-1.5-19.6-4.6-28.9C500.3,403.2,493.3,405.1,494.8,409.6
			L494.8,409.6z"/>
	</g>
	<g>
		<path d="M535.6,403.6c-1.9,10.5-2.7,21-2.1,31.6c0.3,4.7,7.6,4.7,7.3,0c-0.5-10,0-19.9,1.8-29.7
			C543.5,400.9,536.4,399,535.6,403.6L535.6,403.6z"/>
	</g>
	<g>
		<path d="M498.3,429.8c-3.2,4.2-12,1.9-16.5,2.1c-6.3,0.4-12,2.9-17.2,6.3c-5.8,3.8-10.9,8.5-16.2,13c-6.3,5.3-12.7,10.7-19,16
			c-12.5,10.5-24.9,21-37.4,31.5c-9.4,7.9-21,16.6-21.1,30.1c0,4.7,7.3,4.7,7.3,0c0.1-6.5,4.1-11.5,8.6-15.9
			c5.2-5.1,11-9.5,16.5-14.2c12-10.2,24.1-20.3,36.1-30.5c5.9-5,11.8-10,17.8-15c5.2-4.4,10.4-9.1,16.6-11.9
			c10-4.5,23.3,1.9,30.8-7.9C507.5,429.8,501.2,426.1,498.3,429.8L498.3,429.8z"/>
	</g>
	<g>
		<path d="M424,523.2c-4.2-0.2-7.2-3.5-7.8-7.5c-0.3-2-2.8-3-4.5-2.6c-2.1,0.6-2.9,2.5-2.6,4.5c1.1,7.3,7.7,12.5,14.8,12.9
			C428.7,530.7,428.7,523.4,424,523.2L424,523.2z"/>
	</g>
	<g>
		<path d="M426.6,529.9c18.5-14.8,37.1-29.5,55.6-44.3c3.7-2.9-1.5-8.1-5.2-5.2c-18.5,14.8-37.1,29.5-55.6,44.3
			C417.8,527.7,423,532.8,426.6,529.9L426.6,529.9z"/>
	</g>
	<g>
		<path d="M481.1,487.6c0.1-0.2,0.2-0.4,0.3-0.7c-2.2-0.3-4.5-0.6-6.7-0.9c5.7,39.8,10.3,79.8,13.8,119.9c0.4,4.7,7.7,4.7,7.3,0
			c-3.6-40.7-8.3-81.3-14.1-121.8c-0.5-3.4-5.1-3.2-6.7-0.9c-2.6,3.8-1.2,8.2,2.3,10.7C481.3,496.6,485,490.3,481.1,487.6
			L481.1,487.6z"/>
	</g>
	<g>
		<path d="M565.2,493.2c-1.7,31.7,0.2,63.4,5.3,94.8c0.8,4.6,7.8,2.7,7.1-2c-5.1-30.7-6.7-61.8-5.1-92.8
			C572.8,488.5,565.4,488.5,565.2,493.2L565.2,493.2z"/>
	</g>
	<g>
		<path d="M479.7,435.4c8.7,12,22.4,19.9,37.3,20.5c14.9,0.6,29.6-6.3,38.9-17.9c2.9-3.6-2.2-8.9-5.2-5.2
			c-7.9,9.8-19.8,15.9-32.5,15.8c-12.6-0.1-24.9-6.7-32.2-16.9C483.3,427.9,476.9,431.5,479.7,435.4L479.7,435.4z"/>
	</g>
	<g>
		<path d="M615.3,661.2c0-0.1,0-0.1,0-0.2c0,0.3-0.1,0.7-0.1,1c0-0.1,0-0.1,0-0.2c-0.1,0.3-0.2,0.6-0.4,0.9c0,0,0-0.1,0.1-0.1
			c-0.2,0.2-0.4,0.5-0.6,0.7c0,0,0.1-0.1,0.1-0.1c-0.2,0.2-0.5,0.4-0.7,0.6c0,0,0.1-0.1,0.2-0.1c-0.3,0.1-0.6,0.2-0.9,0.4
			c0.1,0,0.2-0.1,0.3-0.1c-0.3,0-0.7,0.1-1,0.1c0.1,0,0.3,0,0.4,0c-0.3,0-0.7-0.1-1-0.1c0.1,0,0.2,0,0.3,0.1
			c-0.3-0.1-0.6-0.2-0.9-0.4c0,0,0.1,0,0.2,0.1c-0.2-0.2-0.5-0.4-0.7-0.6c0,0,0.1,0.1,0.1,0.1c-0.2-0.2-0.4-0.5-0.6-0.7
			c0,0,0.1,0.1,0.1,0.1c-0.1-0.3-0.2-0.6-0.4-0.9c0,0,0,0.1,0,0.1c0-0.3-0.1-0.7-0.1-1c0,0.1,0,0.1,0,0.2c0-0.3,0.1-0.7,0.1-1
			c0,0,0,0,0,0.1c-0.2,1-0.1,2,0.4,2.8c0.4,0.8,1.3,1.5,2.2,1.7c0.9,0.2,2,0.2,2.8-0.4c0.8-0.5,1.5-1.3,1.7-2.2
			c0.3-1.5,0-3.1-1.1-4.1c-0.9-0.8-2-1.3-3.2-1.3c-0.9,0-1.8,0.2-2.6,0.7c-1.2,0.7-2.2,2.3-2,3.7c0,0.5,0.1,1,0.3,1.4
			c0.2,0.5,0.4,0.8,0.8,1.2c0.6,0.6,1.7,1.1,2.6,1.1c1,0,1.9-0.3,2.6-1.1C614.8,663.1,615.4,662.1,615.3,661.2L615.3,661.2z"/>
	</g>
	<g>
		<path d="M603.3,645.3c2.5,11.6,3.3,23.4,2.5,35.2c-0.3,4.7,7,4.7,7.3,0c0.9-12.5-0.1-24.9-2.7-37.1
			C609.4,638.7,602.3,640.7,603.3,645.3L603.3,645.3z"/>
	</g>
	<g>
		<path d="M478.2,603c-2.8,7.8-4.1,16-3.9,24.3c0.1,4.7,7.4,4.7,7.3,0c-0.2-7.7,1-15.1,3.6-22.4C486.8,600.4,479.7,598.5,478.2,603
			L478.2,603z"/>
	</g>
	<g>
		<path d="M478.3,603.7c-0.2,0.1-0.4,0.1-0.7,0.2c0.9,0.1,1.9,0.2,2.8,0.4c0.1,0,0.2,0.1,0.4,0.1c0.1,0.9,0.2,1.9,0.4,2.8
			c-1.2,0.7-1.4,1-0.6,0.9c0.7,0,1.3,0,2,0c1.6,0,3.2,0.1,4.8,0.1c2.6,0,5.3,0.1,8,0.2c6.1,0.1,12.2,0.2,18.3,0.4
			c12,0.2,23.9,0.5,35.8,0.7c4.7,0.1,4.7-7.2,0-7.3c-17-0.3-34-0.7-51-1c-4.2-0.1-8.5-0.2-12.7-0.3c-2.8-0.1-6.6-0.7-9.2,0.8
			c-4.9,2.9-1.9,10.6,3.7,9C484.8,609.5,482.8,602.4,478.3,603.7L478.3,603.7z"/>
	</g>
	<g>
		<path d="M477.1,627.5c24.6,2.7,49.4,0.7,73.3-5.7c4.5-1.2,2.6-8.3-2-7.1c-23.3,6.2-47.4,8-71.4,5.4
			C472.4,619.7,472.4,627,477.1,627.5L477.1,627.5z"/>
	</g>
	<g>
		<path d="M483.5,615.5c-11.1-6.5-11.4,20-12,24.7c-2.6,19.7-5.2,39.3-7.8,59c-0.6,4.7,6.7,4.6,7.3,0c2-15.5,4.1-31,6.1-46.5
			c1-7.6,2-15.1,3-22.7c0.2-1.4,0.3-2.8,0.5-4.2c0.1-1,0.3-2,0.6-2.9c0.1-0.4,0.2-0.7,0.3-1.1c0.7-1.1,0.1-1.1-1.9,0
			C483.8,624.2,487.5,617.9,483.5,615.5L483.5,615.5z"/>
	</g>
	<g>
		<path d="M460.2,716.7c24.4,9.1,51.2,5.8,76.4,2.4c4.6-0.6,4.7-7.9,0-7.3c-24.5,3.2-50.7,6.7-74.5-2.2
			C457.8,708,455.8,715.1,460.2,716.7L460.2,716.7z"/>
	</g>
	<g>
		<path d="M528.7,682.6c1,11.1,0.7,22.2-1.3,33.1c-0.8,4.6,6.2,6.6,7.1,2c2.1-11.6,2.7-23.3,1.6-35.1
			C535.5,677.9,528.2,677.9,528.7,682.6L528.7,682.6z"/>
	</g>
	<g>
		<path d="M366.8,522.5c24,32.7,53.3,61.2,86.6,84.3c3.9,2.7,7.5-3.7,3.7-6.3c-32.3-22.3-60.8-50-84-81.7
			C370.4,515,364,518.7,366.8,522.5L366.8,522.5z"/>
	</g>
	<g>
		<path d="M459.1,603.4c-6.7,1.1-14-2.2-19.9,2.7c-5.5,4.5-4.2,11.7-1.5,17.5c5.7,12.2,15.4,24.8,30,25.2c4.7,0.1,4.7-7.2,0-7.3
			c-10.6-0.2-17.2-9.5-21.8-18c-2-3.7-6.1-10.8,0-12.6c4.7-1.4,10.2,0.5,15.1-0.3C465.7,609.7,463.8,602.7,459.1,603.4L459.1,603.4z
			"/>
	</g>
	<g>
		<path d="M448.1,610.4c5.6,2.7,10.9,6.1,15.6,10.2c3.5,3.1,8.7-2.1,5.2-5.2c-5.2-4.5-10.9-8.4-17.1-11.3
			C447.5,602,443.8,608.3,448.1,610.4L448.1,610.4z"/>
	</g>
	<g>
		<path d="M415.7,528.2c20.7,24.4,40.4,49.7,59,75.7c2.7,3.8,9.1,0.1,6.3-3.7c-19-26.5-39.1-52.2-60.1-77.1
			C417.8,519.4,412.6,524.6,415.7,528.2L415.7,528.2z"/>
	</g>
	<g>
		<path d="M440.9,461.4c4.7,0,4.7-7.3,0-7.3C436.1,454.1,436.1,461.4,440.9,461.4L440.9,461.4z"/>
	</g>
	<g>
		<path d="M436.5,454.7c5.7,15.5,14.5,29.5,26.1,41.3c3.3,3.4,8.5-1.8,5.2-5.2c-10.7-10.8-19-23.7-24.2-38.1
			C442,448.4,434.9,450.3,436.5,454.7L436.5,454.7z"/>
	</g>
	<g>
		<path d="M582,613.1c8.4,17.2,15.2,35,20.2,53.4c1.3,4.5,8.3,2.6,7.1-2c-5.3-19-12.3-37.5-21-55.2
			C586.3,605.2,579.9,608.9,582,613.1L582,613.1z"/>
	</g>
	<g>
		<path d="M559.2,632.3c10.2,6.8,21.3,12.1,33.1,15.8c4.5,1.4,6.4-5.7,2-7.1c-11.2-3.5-21.6-8.5-31.3-15
			C558.9,623.3,555.3,629.7,559.2,632.3L559.2,632.3z"/>
	</g>
	<g>
		<path class="st9" d="M446.6,286.9c0,0.1-0.4,0.2-0.4,0.1c0,0,0.2,0.1,0.2,0.1c0.1,0.2,0.2,0.1,0.1,0.4c-0.2,0.7-1.4,1.1-1.9,1.4
			c0.3,0,0.6-0.1,0.9-0.1c-0.9-0.3-0.6-2.3,0.3-2.3c-0.4-0.6-0.7-1.2-1-1.8c-0.9,1.3-1.8,2.6-2.7,4c0.6-0.1,1.1-0.3,1.7-0.4
			c-0.4-0.2,0,0,0,0.1c0,0,0.1-0.2,0.1-0.2c0,0,0.2-0.3,0.2-0.2c0.1-0.3,0.1,0.1-0.2-0.1c1.2,1,2.9-0.7,1.7-1.7
			c-2.8-2.3-6,2.8-3,4.3c0.6,0.3,1.3,0.1,1.7-0.4c0.9-1.3,1.8-2.6,2.7-4c0.5-0.7-0.2-1.9-1-1.8c-1.8,0.1-3,1.5-3.2,3.3
			c-0.2,1.5,0.7,3.9,2.6,3.9c1,0,2.3-1,2.9-1.7c0.7-0.8,1.1-1.9,0.8-2.9c-0.6-1.9-3.3-2.8-4.5-1C443.6,287,445.8,288.2,446.6,286.9
			L446.6,286.9z"/>
	</g>
	<g>
		<path class="st9" d="M580.4,284.1c0.8,1.2,0.8,3-0.5,4c0.4,0,0.8,0,1.2,0c-1.1-0.7-1.5-1.9-1.5-3.1c-0.2,0.4-0.4,0.7-0.6,1
			c0.8-0.5,1.7-0.4,2.3,0.3c-0.1-0.3-0.2-0.6-0.4-0.9c-0.1,1.6-1.8,2.9-3.4,2.5c0.2,0.2,0.5,0.4,0.7,0.6c-0.4-0.6-0.6-1.3-0.4-2
			c0.1-0.5,0.5-1.3,1.2-1.2c0.3,0.1,0.5,0.5,0.5,0.8c0,0.2,0.1,0.4,0,0.6c-0.1,0.3-0.1,0.1-0.1,0.1c-1.6,0.1-1.6,2.6,0,2.4
			c2.6-0.2,3.1-3.2,1.8-5.1c-1.8-2.5-5.1-0.9-5.8,1.6c-0.4,1.3-0.2,2.8,0.5,3.9c0.9,1.3,3,0.9,4.2,0.3c1.4-0.6,2.5-1.8,2.9-3.2
			c0.2-0.7,0.4-1.6-0.1-2.2c-0.5-0.6-1.3-1-2-1.2c-1.6-0.4-3.9,0.1-3.8,2.1c0,2,1.1,3.6,2.7,4.7c0.3,0.2,0.9,0.2,1.2,0
			c2.3-1.7,3-4.9,1.3-7.3C581.6,281.6,579.5,282.8,580.4,284.1L580.4,284.1z"/>
	</g>
	<g>
		<path d="M529.5,684.7c4.6,12,8.7,24,12.5,36.3c1.4,4.5,8.4,2.6,7.1-2c-3.7-12.2-7.9-24.3-12.5-36.3
			C534.9,678.3,527.8,680.2,529.5,684.7L529.5,684.7z"/>
	</g>
	<g>
		<path d="M546.1,724.8c22.8-2.7,44.8-9,65.5-18.8c4.2-2,0.5-8.3-3.7-6.3c-19.5,9.3-40.4,15.3-61.8,17.8
			C541.5,718.1,541.5,725.4,546.1,724.8L546.1,724.8z"/>
	</g>
	<g>
		<path d="M605.7,668.1c2.5,9.1,5,18.2,7.5,27.3c0.8,2.8,1.1,7.3,3.8,9c2.6,1.7,5.2,0.2,6.3-2.5c0.5-1.2-0.1-2.7-0.9-3.6
			c-0.1-0.1-0.2-0.2-0.2-0.2c-3.2-3.5-8.4,1.7-5.2,5.2c0.1,0.1,0.2,0.2,0.2,0.2c-0.3-1.2-0.6-2.4-0.9-3.6c0,0.1-0.1,0.3-0.2,0.4
			c0.8-0.8,1.7-1.7,2.6-2.6c-0.1,0-0.3,0.1-0.4,0.2c1.2,0.3,2.4,0.6,3.6,0.9c0.2,0.8,0.2,0.7,0-0.2c-0.2-0.8-0.4-1.5-0.6-2.3
			c-0.4-1.5-0.8-3-1.2-4.5c-0.8-2.8-1.5-5.5-2.3-8.3c-1.6-5.8-3.2-11.6-4.8-17.4C611.5,661.6,604.5,663.5,605.7,668.1L605.7,668.1z"
			/>
	</g>
	<g>
		<path d="M492.4,801.7c0.3,8.1,8.7,14.4,16.6,11.9c4.5-1.4,2.6-8.5-2-7.1c-3.2,1-7.2-1.3-7.3-4.9C499.5,797,492.2,797,492.4,801.7
			L492.4,801.7z"/>
	</g>
	<g>
		<path d="M494.6,868.5c7.6,4.9,16.2,6.5,25.1,5.2c4.6-0.7,2.7-7.7-2-7.1c-6.9,1-13.6-0.7-19.4-4.4
			C494.3,859.6,490.7,866,494.6,868.5L494.6,868.5z"/>
	</g>
	<g>
		<path d="M604.9,167.2c3.1,9.3,6.2,18.5,9.3,27.8c1.5,4.4,8.6,2.5,7.1-1.9c-3.1-9.3-6.2-18.5-9.3-27.8
			C610.4,160.8,603.4,162.7,604.9,167.2L604.9,167.2z"/>
	</g>
	<g>
		<path d="M608.3,676.3c-9.6,4.3-19.1,8.6-28.7,12.9c-4.3,1.9-0.6,8.2,3.7,6.3c9.6-4.3,19.1-8.6,28.7-12.9
			C616.3,680.7,612.6,674.4,608.3,676.3L608.3,676.3z"/>
	</g>
	<g>
		<path d="M567.7,800.5c1.5,4.5,4.9,9.8,10.5,8.1c2.5-0.7,3.8-2.7,4.6-5.1c0.9-2.7,1.6-5.5,2.5-8.2c1.3-4.5-5.7-6.5-7.1-2
			c-0.4,1.4-0.8,2.8-1.3,4.2c-0.2,0.7-1.5,3.4-1.2,4c0.2,0.3-0.1-0.1,0.2,0c0.4,0.2,0.1-0.2,0.1-0.1c0-0.2-0.8-1.2-0.9-1.3
			c-0.2-0.5-0.4-1-0.5-1.6C573.3,794.1,566.2,796,567.7,800.5L567.7,800.5z"/>
	</g>
	<g>
		<path d="M563.3,483.3c3.2,6.6,4.7,13.7,4.8,21c0,2.6,2.3,3.9,4.6,3.5c14.9-2.4,28.7-9.5,39.3-20.2c3.3-3.3-1.8-8.5-5.2-5.2
			c-9.8,9.9-22.3,16.2-36.1,18.4c1.5,1.2,3.1,2.4,4.6,3.5c-0.1-8.7-2.1-16.9-5.8-24.7C567.6,475.4,561.3,479.1,563.3,483.3
			L563.3,483.3z"/>
	</g>
	<g>
		<path d="M551.8,433c6.8-2.4,12.7,1.9,17.4,6.5c4.5,4.4,8.8,9,13.1,13.7c9.1,10,17.6,20.5,25.6,31.4c2.8,3.8,9.1,0.1,6.3-3.7
			c-9.2-12.6-19.1-24.8-29.8-36.2c-8.6-9.2-20.2-23.9-34.6-18.8C545.4,427.5,547.3,434.6,551.8,433L551.8,433z"/>
	</g>
	<g>
		<path d="M572,504.9c6.1,24,9.9,48.4,11.2,73.1c0.2,2.9,4,5.1,6.2,2.6c1.1-1.2,1.9-1.8,3.5-2.2c4.6-1.2,2.6-8.2-2-7.1
			c-2.7,0.7-4.9,2-6.8,4.1c2.1,0.9,4.2,1.7,6.2,2.6c-1.4-25.3-5.2-50.5-11.5-75C577.9,498.4,570.8,500.4,572,504.9L572,504.9z"/>
	</g>
	<g>
		<path d="M586.2,576.2c-0.3,17.8,1.1,35.6,4.3,53.1c0.8,4.6,7.9,2.7,7.1-2c-3.1-16.9-4.4-34-4.1-51.2
			C593.6,571.4,586.3,571.4,586.2,576.2L586.2,576.2z"/>
	</g>
	<g>
		<path d="M564.4,600c4.7,0.2,9.5,0.1,14.2-0.3c-1-0.6-2.1-1.2-3.2-1.8c5.2,11.5,10.5,22.9,15.7,34.4c2,4.3,8.3,0.6,6.3-3.7
			c-5.2-11.5-10.5-22.9-15.7-34.4c-0.5-1.1-2-1.9-3.2-1.8c-4.7,0.4-9.4,0.5-14.2,0.3C559.7,592.5,559.7,599.8,564.4,600L564.4,600z"
			/>
	</g>
	<g>
		<path d="M629.3,323.3c0,2.2,1,4.4,2.7,5.9c2,1.7,4.3,2.2,6.9,1.8c1.9-0.3,3.1-2.8,2.6-4.5c-0.7-2-2.5-2.9-4.5-2.6
			c1.2-0.2,0,0-0.1-0.1c0,0,0.8,0.3,0.2,0c-0.8-0.4,0.7,0.2-0.1,0c-0.5-0.2,0.2,0.3,0,0c-0.1-0.1-0.4-0.3-0.5-0.5
			c0.1,0.1,0.2,0.2,0.3,0.3c-0.1-0.1-0.1-0.2-0.2-0.3c-0.1-0.4,0.2,0.7,0,0c-0.2-0.7,0,0.8,0-0.1c0-1.9-1.7-3.8-3.7-3.7
			C631,319.7,629.3,321.2,629.3,323.3L629.3,323.3z"/>
	</g>
	<g>
		<path d="M466,711c0.2-5.3,0.8-10.6,1.7-15.8c-1.5,0.8-3,1.7-4.5,2.6c10.1,2.8,20.5,4.5,31,5.1c4.7,0.3,4.7-7,0-7.3
			c-9.8-0.6-19.5-2.3-29-4.9c-1.8-0.5-4.1,0.6-4.5,2.6c-1.1,5.9-1.7,11.8-2,17.8C458.5,715.7,465.8,715.7,466,711L466,711z"/>
	</g>
	<g>
		<path d="M494.8,872.8c-2.8,2.5-6,4.4-9.6,5.7c-2.4,0.9-3.2,3.1-2.2,5.4c2.2,5.2,4.5,10.3,6.7,15.5c1.9,4.3,8.2,0.6,6.3-3.7
			c-2.2-5.2-4.5-10.3-6.7-15.5c-0.7,1.8-1.5,3.6-2.2,5.4c4.8-1.7,9-4.2,12.8-7.6C503.5,874.9,498.3,869.7,494.8,872.8L494.8,872.8z"
			/>
	</g>
	<g>
		<path d="M483,881.7c-6.9,1.9-14.3,0.1-21.3,1.1c-7.2,1.1-14,3.7-20.8,6.4c-4.3,1.7-2.5,8.8,2,7.1c6.8-2.7,13.7-5.5,21-6.4
			c7.1-0.9,14.1,0.8,21.1-1.1C489.4,887.5,487.5,880.4,483,881.7L483,881.7z"/>
	</g>
	<g>
		<path d="M440.1,891.1c-5.1,13.8-5.4,28.9-0.9,42.8c1.5,4.5,8.5,2.5,7.1-2c-4.2-12.9-3.9-26.3,0.9-39
			C448.9,888.6,441.8,886.7,440.1,891.1L440.1,891.1z"/>
	</g>
	<g>
		<path d="M467,890.8c0.9,2,1.7,3.9,2.5,5.9c0.2,0.4,1.7,3.7,1.2,1.6c0.4-0.8,0.3-1-0.4-0.7c-0.6,0.1-1.2,0.3-1.8,0.4
			c-4,0.9-8.1,1.8-12.1,2.8c-4.6,1-2.6,8.1,2,7.1c3.2-0.7,6.5-1.5,9.7-2.2c2.6-0.6,5.9-0.8,8-2.6c4.6-3.9-0.9-11.9-2.7-16
			C471.5,882.8,465.2,886.6,467,890.8L467,890.8z"/>
	</g>
	<g>
		<path d="M454.7,889.6c-1.2,5.8-1,11.5,0.9,17.1c1.5,4.4,8.6,2.5,7.1-2c-1.5-4.3-1.9-8.7-0.9-13.2
			C462.8,886.9,455.7,885,454.7,889.6L454.7,889.6z"/>
	</g>
	<g>
		<path d="M492.6,883.6c1.3,2.4,2.7,4.8,4,7.2c2.3,4.1,8.6,0.4,6.3-3.7c-1.3-2.4-2.7-4.8-4-7.2C496.6,875.8,490.3,879.5,492.6,883.6
			L492.6,883.6z"/>
	</g>
	<g>
		<path d="M551.1,733.2c5.3,46,9.3,92,11.8,138.2c0.3,4.7,7.6,4.7,7.3,0c-2.6-46.2-6.5-92.3-11.8-138.2
			C557.9,728.6,550.5,728.5,551.1,733.2L551.1,733.2z"/>
	</g>
	<g>
		<path d="M586.7,713.7c-0.7,59.5,3.3,118.9,11.7,177.8c0.7,4.7,7.7,2.7,7.1-2c-8.3-58.2-12.1-117-11.4-175.9
			C594.1,709,586.8,709,586.7,713.7L586.7,713.7z"/>
	</g>
	<g>
		<path d="M563.4,883.2c0,8,0.1,16,0.2,24.1c0,3.7,0,7.5,0.1,11.2c0,2.9-0.3,6,1.1,8.7c2.7,5.1,8.8,4.7,13.7,4.5
			c7.7-0.3,15.4-0.5,23.2-0.8c4.7-0.2,4.7-7.5,0-7.3c-6.2,0.2-12.3,0.4-18.5,0.6c-2.7,0.1-5.5,0.3-8.2,0.3c-3.2,0-3.8-0.3-3.8-3.6
			c-0.1-12.6-0.2-25.1-0.2-37.7C570.7,878.4,563.4,878.4,563.4,883.2L563.4,883.2z"/>
	</g>
	<g>
		<path d="M588.3,912.3c0.9-7,7.4-13.2,12.9-17.1c5.5-3.9,12-6.8,18.9-7c12.3-0.5,25,8.6,25,21.7c0,4.7,7.3,4.7,7.3,0
			c0-16.9-16.1-29.7-32.4-29c-16.6,0.7-36.9,14-39.1,31.4C580.4,917,587.7,917,588.3,912.3L588.3,912.3z"/>
	</g>
	<g>
		<path d="M610.8,934.8c8.8-4.3,19.5,0,28.8-2.2c7.5-1.7,14.2-7.9,13.9-16c-0.2-4.7-7.5-4.7-7.3,0c0.3,9.1-11.3,9.7-17.8,9.3
			c-7.4-0.4-14.5-0.9-21.3,2.5C602.9,930.5,606.6,936.8,610.8,934.8L610.8,934.8z"/>
	</g>
	<g>
		<path d="M611,918.9c5.5-1,10.9-1.9,16.3-2.8c4.6-0.8,2.7-7.9-2-7.1c-5.5,1-10.9,1.9-16.3,2.8C604.4,912.7,606.4,919.7,611,918.9
			L611,918.9z"/>
	</g>
	<g>
		<path d="M440.3,929.2c23.7,12.2,53.6,10,75-6.2c3.7-2.8,0.1-9.2-3.7-6.3c-19.3,14.5-46,17.2-67.6,6.2
			C439.8,920.8,436.1,927.1,440.3,929.2L440.3,929.2z"/>
	</g>
	<g>
		<path d="M516.1,875.1c1.5,14.2,1.6,28.4,0.2,42.6c-0.5,4.7,6.9,4.7,7.3,0c1.4-14.2,1.3-28.4-0.2-42.6
			C522.9,870.5,515.6,870.4,516.1,875.1L516.1,875.1z"/>
	</g>
	<g>
		<path d="M515.8,913.5c-1.4,0.7-2.8,1.4-4.3,2.1c-1.7,0.9-2.3,3.4-1.3,5c1.1,1.8,3.2,2.2,5,1.3c1.4-0.7,2.8-1.4,4.3-2.1
			c1.7-0.9,2.3-3.4,1.3-5C519.6,913,517.6,912.5,515.8,913.5L515.8,913.5z"/>
	</g>
	<g>
		<path d="M501.4,911.3c2.5-1.1,5-2.1,7.5-3.2c1.8-0.8,2.2-3.5,1.3-5c-1.1-1.9-3.2-2.1-5-1.3c-2.5,1.1-5,2.1-7.5,3.2
			c-1.8,0.8-2.2,3.5-1.3,5C497.5,911.8,499.5,912,501.4,911.3L501.4,911.3z"/>
	</g>
	<g>
		<path d="M495.1,899.9c4.6-1.7,8.4-4.7,10.9-9c2.4-4.1-3.9-7.8-6.3-3.7c-1.5,2.5-3.7,4.6-6.5,5.6c-1.9,0.7-3.1,2.5-2.6,4.5
			C491.1,899.1,493.3,900.6,495.1,899.9L495.1,899.9z"/>
	</g>
	<g>
		<path d="M494.3,847.7c10,3.2,20.6,3.3,30.7,0.2c4.5-1.4,2.6-8.5-2-7.1c-8.9,2.8-17.9,2.7-26.8-0.2
			C491.8,839.2,489.8,846.3,494.3,847.7L494.3,847.7z"/>
	</g>
	<g>
		<path d="M564.5,847.7c9.9,2.2,19.9,2,29.7-0.5c4.6-1.2,2.6-8.2-2-7.1c-8.5,2.2-17.2,2.4-25.8,0.5
			C561.9,839.6,559.9,846.6,564.5,847.7L564.5,847.7z"/>
	</g>
	<g>
		<path d="M562.6,878.1c13.6,5.6,28.9,3,40.4-5.9c3.7-2.9-1.5-8-5.2-5.2c-9.5,7.4-22.3,8.5-33.3,4
			C560.2,869.2,558.3,876.3,562.6,878.1L562.6,878.1z"/>
	</g>
	<g>
		<path d="M502.6,867.4c-0.3-49.4-4.6-98.8-12.9-147.5c-0.8-4.6-7.8-2.7-7.1,2c8.2,48.1,12.4,96.8,12.6,145.5
			C495.3,872.1,502.7,872.1,502.6,867.4L502.6,867.4z"/>
	</g>
	<g>
		<path d="M524.2,716.2c1.8,58.2-0.6,116.4-4.9,174.4c-0.3,4.7,7,4.7,7.3,0c4.3-58,6.6-116.2,4.9-174.4
			C531.4,711.5,524.1,711.5,524.2,716.2L524.2,716.2z"/>
	</g>
	<g>
		<path d="M601,492.8c9.7,26.6,14.5,54.7,14.2,83c0,4.7,7.3,4.7,7.3,0c0.3-28.9-4.5-57.8-14.4-85C606.5,486.5,599.4,488.4,601,492.8
			L601,492.8z"/>
	</g>
	<g>
		<path d="M609.3,558.4c8.2,35.4,10.1,71.9,5.8,107.9c-0.6,4.7,6.8,4.6,7.3,0c4.4-36.7,2.3-73.9-6.1-109.8
			C615.3,551.9,608.3,553.8,609.3,558.4L609.3,558.4z"/>
	</g>
	<g>
		<path d="M615.8,668.2c0,2.7,0,5.5,0,8.2c0,4.7,7.3,4.7,7.3,0c0-2.7,0-5.5,0-8.2C623.1,663.5,615.8,663.5,615.8,668.2L615.8,668.2z
			"/>
	</g>
</g>
</svg>
