<?xml version="1.0" encoding="utf-8"?>
<!-- Generator: Adobe Illustrator 23.0.2, SVG Export Plug-In . SVG Version: 6.00 Build 0)  -->
<svg version="1.1" id="Layer_1" xmlns="http://www.w3.org/2000/svg" xmlns:xlink="http://www.w3.org/1999/xlink" x="0px" y="0px"
	 viewBox="0 0 1000 1000" style="enable-background:new 0 0 1000 1000;" xml:space="preserve">
<style type="text/css">
	.st0{opacity:0.7;fill:#55D60F;}
</style>
<g>
	<path class="st0" d="M714.3,640.4c0.3-9.3,0.5-18.7,0.8-28c-17.4,9.8-36.2,16.5-55.6,20.1c2.3-15.9,4.6-31.8,6.9-47.7
		c-21.4,5.5-42.1,13.9-61.5,25.2c2.2-18.7,21.3-46.2,23.5-64.9c-13.6,15.2-44,39.2-57.5,54.4c1.4-37.7,11.2-70.7,12.6-108.5
		c-26,20.9-59,39.2-81.6,64.2c-2.4-37.8,4.3-63.5,11.9-100.6c-51.2,31.6-80.2,82.8-101.6,142c-6.7-15.3-18.4-28-32.6-35.2
		c-5.7,13.8-11.4,27.6-17.1,41.3c-8-20.3-16-40.6-23.9-60.8c-10.9,12.8-14.8,32.2-9.8,48.6c1.8,6-2.6,14.2-4.4,20.3
		c-4.2,14.4-17.6,4.9-26.2-7s-20.2-27.7-32.9-21.4c12.3,14.2,25.3,30.4,25.1,49.9c0,0.5,0,1-0.1,1.6c-0.6,0.2-1.2,0.5-1.7,0.8
		c0.5,1.1,0.9,2.3,1.1,3.4c-0.8,3.5-2.2,6.8-4.1,9.8c0.3,0.1,0.7,0.2,1,0.2c0.5,0.1,1,0.3,1.5,0.5c-1.8,3.9-4.9,7.3-8.5,9.6
		c-7.9,4.8-17.6,5.4-26.8,5.1c-1.5,5.2,3.5,10.4,8.8,11.4s10.7-0.6,16-1.6c10.4-1.9,21.1-1.1,31.5-2.6c3.8-0.5,7.7-1.5,11.3-2.8
		c17.1,0.8,34.8,3.4,47.2,3.5c28.6,0.2,57.6-1.1,86.1,0.7c8,0.1,15.9,0.1,23.9,0.2c19,0.2,38.1,0.3,57.1,0.4
		c88.6,0.7,177.1,1.4,265.7,2C786.9,640.7,745.2,624.2,714.3,640.4z"/>
	<g>
		<path d="M290.2,651.9c-4.6-32.5-17.6-63.5-37.6-89.5c-1.6,1.6-3.1,3.1-4.7,4.7c26.1,11.5,48.9,29.7,65.7,52.7
			c1.8,2.5,6.7,2,6.4-1.7c-2.4-31.7,3.9-63.7,18.4-92.1c-2,0-4,0-5.9,0c11.4,26,20.7,52.9,28.1,80.4c0.8,2.9,4.8,3.3,6.3,0.8
			c4.4-7.3,5.9-15.8,7.4-24c1.2-6.6,2.1-15.7,7.4-20.4c6-5.3,13.7-1.8,17.2,4.3c4.4,7.7,5.2,17.4,4.7,26c-0.2,3.8,5.9,4.7,6.8,0.9
			c10.9-50.9,40.2-97.1,81-129.3c11.5-9.1,23.9-16.9,37-23.5c-1.7-1.3-3.4-2.6-5-3.9c-9.5,38.6-15.7,77.9-18.5,117.5
			c-0.3,3.7,4.6,4.2,6.4,1.7c20.9-28.9,48.3-52.7,79.7-69.4c-1.7-1-3.5-2-5.2-3c-4,36.5-10.2,72.8-18.3,108.6
			c-0.8,3.8,4.2,6,6.3,2.7c15.1-24.4,37.4-43.6,63.6-55.3c-1.7-1.3-3.4-2.6-5-3.9c-6.9,23.8-13.8,47.5-20.7,71.3
			c-0.8,2.9,2.5,5.4,5,3.9c21.4-12.8,44.3-22.5,68.4-28.9c-1.4-1.4-2.8-2.8-4.2-4.2c-4.4,17.5-8.8,35.1-13.2,52.6
			c-0.6,2.5,1.7,5,4.2,4.2c20.9-6.3,40.9-15.1,59.6-26.3c-1.7-1-3.5-2-5.2-3c-0.8,11.3-1.6,22.6-2.5,33.9c-0.2,2.4,2.3,3.7,4.3,3.3
			c25.8-5.1,53.4,2.9,72.6,20.9c3.2,3,8.1-1.8,4.9-4.9c-21.1-19.8-51-28.3-79.3-22.7c1.5,1.1,2.9,2.2,4.3,3.3
			c0.8-11.3,1.6-22.6,2.5-33.9c0.2-2.6-3-4.2-5.2-3c-18.2,10.9-37.6,19.5-58,25.6c1.4,1.4,2.8,2.8,4.2,4.2
			c4.4-17.5,8.8-35.1,13.2-52.6c0.6-2.5-1.7-4.9-4.2-4.2c-24.6,6.5-48.2,16.5-70.1,29.6c1.7,1.3,3.4,2.6,5,3.9
			c6.9-23.8,13.8-47.5,20.7-71.3c0.9-3.1-2.5-5-5-3.9c-27.2,12.1-50.3,32.4-66,57.7c2.1,0.9,4.2,1.8,6.3,2.7
			c8.2-36.4,14.4-73.3,18.5-110.5c0.3-2.8-3.1-4.1-5.2-3c-32.5,17.3-60.6,42-82.2,71.9c2.1,0.6,4.3,1.2,6.4,1.7
			c2.8-39,8.9-77.7,18.3-115.7c0.8-3-2.4-5.2-5-3.9c-47.6,24-86.1,65.2-107.4,114.1c-6,13.8-10.7,28.1-13.8,42.9
			c2.2,0.3,4.5,0.6,6.8,0.9c0.8-13.1-1.8-35-17.1-39.2c-6.5-1.8-13.8,0.5-18.1,5.7c-4.4,5.3-5.8,12.5-7.1,19.1
			c-1.6,8.5-2.7,17.5-7.2,25c2.1,0.3,4.2,0.5,6.3,0.8c-7.5-28-17.2-55.4-28.8-82c-1-2.3-4.9-2.2-5.9,0c-15,29.4-21.8,62.6-19.3,95.5
			c2.1-0.6,4.3-1.2,6.4-1.7c-17.5-24-41-43.1-68.2-55.1c-2.7-1.2-7.1,1.6-4.7,4.7c19.7,25.6,32.4,55.9,36.9,87.9
			C284.2,658.1,290.8,656.2,290.2,651.9L290.2,651.9z"/>
	</g>
	<g>
		<path d="M281.5,650.3c-9.8-3.3-19.5-6.6-29.2-9.8c-3.5-1.2-6.4,2.4-5.6,5.6c1.6,7.2,2,14.6,0.9,21.9c0.7-0.9,1.4-1.8,2.1-2.7
			c-2.2,1-4.9,0.1-6.1-1.9c-3.2-4.9-11.2-0.3-7.9,4.6c3.8,5.8,13,9.6,19.2,4.8c3.2-2.5,2.6-10,2.6-13.6c0-5.2-0.7-10.4-1.9-15.5
			c-1.9,1.9-3.8,3.8-5.6,5.6c9.8,3.3,19.5,6.6,29.2,9.8C284.7,661,287.1,652.1,281.5,650.3L281.5,650.3z"/>
	</g>
	<g>
		<path d="M257.9,680.4c23.8-3.1,47.9-4,71.9-2.5c5.9,0.4,5.9-8.8,0-9.2c-24-1.5-48-0.7-71.9,2.5c-2.5,0.3-4.6,1.9-4.6,4.6
			C253.3,678.1,255.5,680.8,257.9,680.4L257.9,680.4z"/>
	</g>
	<g>
		<path d="M381.1,664.5c-2.8-2.9-4.2-7-3.5-11c1-5.8-7.8-8.2-8.8-2.4c-1.3,7.4,0.7,14.5,5.9,19.9
			C378.7,675.2,385.2,668.8,381.1,664.5L381.1,664.5z"/>
	</g>
	<g>
		<path d="M439.1,664.3c4.3-6.8,8.6-13.5,13-20.3c3.2-5-4.8-9.6-7.9-4.6c-4.3,6.8-8.6,13.5-13,20.3C428,664.7,436,669.3,439.1,664.3
			L439.1,664.3z"/>
	</g>
	<g>
		<path d="M427.1,672.9c5-7.8,14.2-12.6,23.5-12c9.4,0.6,17.5,6.8,21.6,15.1c2.6,5.3,10.5,0.7,7.9-4.6c-5.5-11.2-17-18.9-29.5-19.6
			c-12.6-0.7-24.6,6.1-31.4,16.5C416,673.2,423.9,677.8,427.1,672.9L427.1,672.9z"/>
	</g>
	<g>
		<path d="M516.5,669.1c2.6-5.1,8.1-8.5,13.9-7.4c6.2,1.1,10.2,7.2,10.1,13.2c-0.1,5.9,9.1,5.9,9.2,0c0.2-10-6.8-19.9-16.8-22
			c-9.6-2-19.9,2.8-24.3,11.6C506,669.7,513.9,674.3,516.5,669.1L516.5,669.1z"/>
	</g>
	<g>
		<path d="M545,681.8c18-1,36-1.9,54-2.8c5.9-0.3,5.9-9.5,0-9.2c-18,1-36,1.9-54,2.8C539.1,672.9,539.1,682.1,545,681.8L545,681.8z"
			/>
	</g>
	<g>
		<path d="M643.3,671.9c0.5,1.1-0.2,0.2,0.7,0c0.5-0.2,1-0.7,1.6-0.7c1.7-0.2,3.4,1.2,4.7,2.1c3.4,2.5,6.3,5.4,10.2,7.1
			c7.7,3.4,16.2,3,23.8-0.6c5.3-2.5,0.7-10.5-4.6-7.9c-4.7,2.2-10.3,2.4-15.1,0.4c-4.9-2.1-8.2-6.7-13.1-8.9
			c-8.7-3.9-20.5,3.2-16,13.2C637.8,681.9,645.7,677.2,643.3,671.9L643.3,671.9z"/>
	</g>
	<g>
		<path d="M713.4,689.5c13.5-1.9,27.2-1.8,40.7-0.3c5.8,0.7,5.8-8.5,0-9.2c-14.4-1.7-28.8-1.4-43.2,0.6c-2.5,0.3-3.8,3.5-3.2,5.6
			C708.5,688.9,711,689.8,713.4,689.5L713.4,689.5z"/>
	</g>
	<g>
		<path d="M493.6,612.7c1.3-4.9,2.6-9.8,3.9-14.7c1.5-5.7-7.3-8.2-8.8-2.4c-1.3,4.9-2.6,9.8-3.9,14.7
			C483.3,616,492.1,618.5,493.6,612.7L493.6,612.7z"/>
	</g>
</g>
</svg>
