<svg xmlns="http://www.w3.org/2000/svg" width="1000" height="1000"><path d="M714.3 640.4c.3-9.3.5-18.7.8-28-17.4 9.8-36.2 16.5-55.6 20.1l6.9-47.7c-21.4 5.5-42.1 13.9-61.5 25.2 2.2-18.7 21.3-46.2 23.5-64.9-13.6 15.2-44 39.2-57.5 54.4 1.4-37.7 11.2-70.7 12.6-108.5-26 20.9-59 39.2-81.6 64.2-2.4-37.8 4.3-63.5 11.9-100.6-51.2 31.6-80.2 82.8-101.6 142-6.7-15.3-18.4-28-32.6-35.2-5.7 13.8-11.4 27.6-17.1 41.3-8-20.3-16-40.6-23.9-60.8-10.9 12.8-14.8 32.2-9.8 48.6 1.8 6-2.6 14.2-4.4 20.3-4.2 14.4-17.6 4.9-26.2-7s-20.2-27.7-32.9-21.4c12.3 14.2 25.3 30.4 25.1 49.9 0 .5 0 1-.1 1.6-.6.2-1.2.5-1.7.8.5 1.1.9 2.3 1.1 3.4-.8 3.5-2.2 6.8-4.1 9.8.3.1.7.2 1 .2.5.1 1 .3 1.5.5-1.8 3.9-4.9 7.3-8.5 9.6-7.9 4.8-17.6 5.4-26.8 5.1-1.5 5.2 3.5 10.4 8.8 11.4s10.7-.6 16-1.6c10.4-1.9 21.1-1.1 31.5-2.6 3.8-.5 7.7-1.5 11.3-2.8 17.1.8 34.8 3.4 47.2 3.5 28.6.2 57.6-1.1 86.1.7 8 .1 15.9.1 23.9.2 19 .2 38.1.3 57.1.4 88.6.7 177.1 1.4 265.7 2-13.5-33.8-55.2-50.3-86.1-34.1z" opacity=".7" fill="#55d60f"/><path d="M290.2 651.9c-4.6-32.5-17.6-63.5-37.6-89.5l-4.7 4.7c26.1 11.5 48.9 29.7 65.7 52.7 1.8 2.5 6.7 2 6.4-1.7-2.4-31.7 3.9-63.7 18.4-92.1h-5.9c11.4 26 20.7 52.9 28.1 80.4.8 2.9 4.8 3.3 6.3.8 4.4-7.3 5.9-15.8 7.4-24 1.2-6.6 2.1-15.7 7.4-20.4 6-5.3 13.7-1.8 17.2 4.3 4.4 7.7 5.2 17.4 4.7 26-.2 3.8 5.9 4.7 6.8.9 10.9-50.9 40.2-97.1 81-129.3 11.5-9.1 23.9-16.9 37-23.5-1.7-1.3-3.4-2.6-5-3.9-9.5 38.6-15.7 77.9-18.5 117.5-.3 3.7 4.6 4.2 6.4 1.7 20.9-28.9 48.3-52.7 79.7-69.4-1.7-1-3.5-2-5.2-3-4 36.5-10.2 72.8-18.3 108.6-.8 3.8 4.2 6 6.3 2.7 15.1-24.4 37.4-43.6 63.6-55.3-1.7-1.3-3.4-2.6-5-3.9-6.9 23.8-13.8 47.5-20.7 71.3-.8 2.9 2.5 5.4 5 3.9 21.4-12.8 44.3-22.5 68.4-28.9l-4.2-4.2c-4.4 17.5-8.8 35.1-13.2 52.6-.6 2.5 1.7 5 4.2 4.2 20.9-6.3 40.9-15.1 59.6-26.3-1.7-1-3.5-2-5.2-3-.8 11.3-1.6 22.6-2.5 33.9-.2 2.4 2.3 3.7 4.3 3.3 25.8-5.1 53.4 2.9 72.6 20.9 3.2 3 8.1-1.8 4.9-4.9-21.1-19.8-51-28.3-79.3-22.7 1.5 1.1 2.9 2.2 4.3 3.3.8-11.3 1.6-22.6 2.5-33.9.2-2.6-3-4.2-5.2-3-18.2 10.9-37.6 19.5-58 25.6l4.2 4.2c4.4-17.5 8.8-35.1 13.2-52.6.6-2.5-1.7-4.9-4.2-4.2-24.6 6.5-48.2 16.5-70.1 29.6 1.7 1.3 3.4 2.6 5 3.9 6.9-23.8 13.8-47.5 20.7-71.3.9-3.1-2.5-5-5-3.9-27.2 12.1-50.3 32.4-66 57.7l6.3 2.7c8.2-36.4 14.4-73.3 18.5-110.5.3-2.8-3.1-4.1-5.2-3-32.5 17.3-60.6 42-82.2 71.9 2.1.6 4.3 1.2 6.4 1.7 2.8-39 8.9-77.7 18.3-115.7.8-3-2.4-5.2-5-3.9-47.6 24-86.1 65.2-107.4 114.1-6 13.8-10.7 28.1-13.8 42.9 2.2.3 4.5.6 6.8.9.8-13.1-1.8-35-17.1-39.2-6.5-1.8-13.8.5-18.1 5.7-4.4 5.3-5.8 12.5-7.1 19.1-1.6 8.5-2.7 17.5-7.2 25 2.1.3 4.2.5 6.3.8-7.5-28-17.2-55.4-28.8-82-1-2.3-4.9-2.2-5.9 0-15 29.4-21.8 62.6-19.3 95.5 2.1-.6 4.3-1.2 6.4-1.7-17.5-24-41-43.1-68.2-55.1-2.7-1.2-7.1 1.6-4.7 4.7 19.7 25.6 32.4 55.9 36.9 87.9.6 4.6 7.2 2.7 6.6-1.6z"/><path d="M281.5 650.3c-9.8-3.3-19.5-6.6-29.2-9.8-3.5-1.2-6.4 2.4-5.6 5.6 1.6 7.2 2 14.6.9 21.9l2.1-2.7c-2.2 1-4.9.1-6.1-1.9-3.2-4.9-11.2-.3-7.9 4.6 3.8 5.8 13 9.6 19.2 4.8 3.2-2.5 2.6-10 2.6-13.6 0-5.2-.7-10.4-1.9-15.5l-5.6 5.6c9.8 3.3 19.5 6.6 29.2 9.8 5.5 1.9 7.9-7 2.3-8.8z"/><path d="M257.9 680.4c23.8-3.1 47.9-4 71.9-2.5 5.9.4 5.9-8.8 0-9.2-24-1.5-48-.7-71.9 2.5-2.5.3-4.6 1.9-4.6 4.6 0 2.3 2.2 5 4.6 4.6zm123.2-15.9c-2.8-2.9-4.2-7-3.5-11 1-5.8-7.8-8.2-8.8-2.4-1.3 7.4.7 14.5 5.9 19.9 4 4.2 10.5-2.2 6.4-6.5zm58-.2c4.3-6.8 8.6-13.5 13-20.3 3.2-5-4.8-9.6-7.9-4.6-4.3 6.8-8.6 13.5-13 20.3-3.2 5 4.8 9.6 7.9 4.6z"/><path d="M427.1 672.9c5-7.8 14.2-12.6 23.5-12 9.4.6 17.5 6.8 21.6 15.1 2.6 5.3 10.5.7 7.9-4.6-5.5-11.2-17-18.9-29.5-19.6-12.6-.7-24.6 6.1-31.4 16.5-3.2 4.9 4.7 9.5 7.9 4.6zm89.4-3.8c2.6-5.1 8.1-8.5 13.9-7.4 6.2 1.1 10.2 7.2 10.1 13.2-.1 5.9 9.1 5.9 9.2 0 .2-10-6.8-19.9-16.8-22-9.6-2-19.9 2.8-24.3 11.6-2.6 5.2 5.3 9.8 7.9 4.6z"/><path d="M545 681.8c18-1 36-1.9 54-2.8 5.9-.3 5.9-9.5 0-9.2-18 1-36 1.9-54 2.8-5.9.3-5.9 9.5 0 9.2zm98.3-9.9c.5 1.1-.2.2.7 0 .5-.2 1-.7 1.6-.7 1.7-.2 3.4 1.2 4.7 2.1 3.4 2.5 6.3 5.4 10.2 7.1 7.7 3.4 16.2 3 23.8-.6 5.3-2.5.7-10.5-4.6-7.9-4.7 2.2-10.3 2.4-15.1.4-4.9-2.1-8.2-6.7-13.1-8.9-8.7-3.9-20.5 3.2-16 13.2 2.3 5.3 10.2.6 7.8-4.7zm70.1 17.6c13.5-1.9 27.2-1.8 40.7-.3 5.8.7 5.8-8.5 0-9.2-14.4-1.7-28.8-1.4-43.2.6-2.5.3-3.8 3.5-3.2 5.6.8 2.7 3.3 3.6 5.7 3.3zm-219.8-76.8l3.9-14.7c1.5-5.7-7.3-8.2-8.8-2.4l-3.9 14.7c-1.5 5.7 7.3 8.2 8.8 2.4z"/></svg>