<svg xmlns="http://www.w3.org/2000/svg" width="1000" height="1000"><path d="M457.8 403.7c-16.7-5.3-35.3-6.4-51.8-.6-37 13.1-51.6 58-40.6 93.5s40.8 63 71.2 86.7c22.8 17.8 46.7 34.4 71.5 49.8 5.6 3.5 14 14.2 20.8 13.3 3.7-.5 7.1-6.2 10.3-8 30.8-17.1 57.7-40.6 80.3-66.5s38.4-57.8 40.2-91.2c1.2-22.2-4.9-46.2-23.1-60.5-18.3-14.4-45.8-15.7-68-7.2-14.7 5.7-49.8 33.7-49.8 33.7s-20.9-18.9-27.2-24.4c-9.7-8.4-21.4-14.7-33.8-18.6z" opacity=".7" fill="red"/><path d="M586 449.8c6.3-3.7 13.8-9.2 12.4-16.4-.8-4.3-5-7.4-9.3-8.3s-8.8.1-13 1.4c-14.6 4.4-28.5 12.8-36.3 25.9-7.7 13-9.2 36.6 5.7 44.9 13-19.9 17.4-34.1 40.5-47.5zm-172.8 28.1c5.3-8.8 14.1-14.8 21.5-21.9 5.9-5.6 11.2-14 8-21.5-3.6-8.4-15.3-9.4-23.9-6.6-13.2 4.3-24.3 14.9-29.1 28s-3.4 28.3 3.8 40.2c18.2 30.3 14.4-9.4 19.7-18.2z" opacity=".7" fill="#ff8585"/><path d="M522.4 447.6c-8.9-29.1-36.4-47.7-65.8-51.5-16.5-2.1-33.7 0-49.5 5.2-14.5 4.8-28 12.8-37 25.4-9.5 13.3-12.8 30.4-13 46.5-.2 17.1 3.5 34 10.6 49.5 12.6 27.5 35.2 48.9 58.6 67.3 14.8 11.6 30.1 22.4 45.3 33.5 17.4 12.6 34.8 25.3 52.2 37.9 4.5 3.3 8.8-4.2 4.4-7.5-27.6-20.1-55.5-39.9-82.9-60.3-22.5-16.6-45-34.8-60.6-58.3-16.8-25.3-24.2-57.9-15.2-87.5 4.4-14.3 13.6-25.4 26.7-32.5 13.1-7.1 28.4-10.7 43.2-11.3 16.7-.7 33.6 2.7 47.9 11.8 12.5 7.9 22.4 19.9 26.7 34.1 1.7 5.3 10 3.1 8.4-2.3z"/><path d="M524.5 457.7c7.6-24.5 29.7-43.8 55.3-47.2 26.6-3.6 54 9.4 67.6 32.6 13 22.1 13.5 49.8 6.4 73.9-8.1 27.5-26.6 50.7-46.7 70.5-11.9 11.8-24.7 22.8-37.6 33.5-14 11.6-28.7 22.6-44.5 31.7-4.8 2.8-.5 10.2 4.4 7.5 15.1-8.7 29.2-19.1 42.7-30.1 12.5-10.2 24.8-20.7 36.4-31.8 22.2-21.1 42.8-45.8 52.5-75.3 8.6-26.1 8.5-56.3-4.4-80.9-13.5-25.6-41.4-41.4-70.3-40.5-32.1 1-60.6 23.6-70.1 54.1-1.6 5 6.7 7.3 8.3 2z"/></svg>