<?xml version="1.0" encoding="utf-8"?>
<!-- Generator: Adobe Illustrator 23.0.2, SVG Export Plug-In . SVG Version: 6.00 Build 0)  -->
<svg version="1.1" id="Layer_1" xmlns="http://www.w3.org/2000/svg" xmlns:xlink="http://www.w3.org/1999/xlink" x="0px" y="0px"
	 viewBox="0 0 1000 1000" style="enable-background:new 0 0 1000 1000;" xml:space="preserve">
<style type="text/css">
	.st0{opacity:0.7;fill:#FF0000;}
	.st1{opacity:0.7;fill:#FF8585;}
</style>
<g>
	<path class="st0" d="M457.8,403.7c-16.7-5.3-35.3-6.4-51.8-0.6c-37,13.1-51.6,58-40.6,93.5c11,35.5,40.8,63,71.2,86.7
		c22.8,17.8,46.7,34.4,71.5,49.8c5.6,3.5,14,14.2,20.8,13.3c3.7-0.5,7.1-6.2,10.3-8c30.8-17.1,57.7-40.6,80.3-66.5
		s38.4-57.8,40.2-91.2c1.2-22.2-4.9-46.2-23.1-60.5c-18.3-14.4-45.8-15.7-68-7.2c-14.7,5.7-49.8,33.7-49.8,33.7
		s-20.9-18.9-27.2-24.4C481.9,413.9,470.2,407.6,457.8,403.7z"/>
	<path class="st1" d="M586,449.8c6.3-3.7,13.8-9.2,12.4-16.4c-0.8-4.3-5-7.4-9.3-8.3s-8.8,0.1-13,1.4c-14.6,4.4-28.5,12.8-36.3,25.9
		c-7.7,13-9.2,36.6,5.7,44.9C558.5,477.4,562.9,463.2,586,449.8z"/>
	<path class="st1" d="M413.2,477.9c5.3-8.8,14.1-14.8,21.5-21.9c5.9-5.6,11.2-14,8-21.5c-3.6-8.4-15.3-9.4-23.9-6.6
		c-13.2,4.3-24.3,14.9-29.1,28s-3.4,28.3,3.8,40.2C411.7,526.4,407.9,486.7,413.2,477.9z"/>
	<g>
		<path d="M522.4,447.6c-8.9-29.1-36.4-47.7-65.8-51.5c-16.5-2.1-33.7,0-49.5,5.2c-14.5,4.8-28,12.8-37,25.4
			c-9.5,13.3-12.8,30.4-13,46.5c-0.2,17.1,3.5,34,10.6,49.5c12.6,27.5,35.2,48.9,58.6,67.3c14.8,11.6,30.1,22.4,45.3,33.5
			c17.4,12.6,34.8,25.3,52.2,37.9c4.5,3.3,8.8-4.2,4.4-7.5c-27.6-20.1-55.5-39.9-82.9-60.3c-22.5-16.6-45-34.8-60.6-58.3
			c-16.8-25.3-24.2-57.9-15.2-87.5c4.4-14.3,13.6-25.4,26.7-32.5c13.1-7.1,28.4-10.7,43.2-11.3c16.7-0.7,33.6,2.7,47.9,11.8
			c12.5,7.9,22.4,19.9,26.7,34.1C515.7,455.2,524,453,522.4,447.6L522.4,447.6z"/>
	</g>
	<g>
		<path d="M524.5,457.7c7.6-24.5,29.7-43.8,55.3-47.2c26.6-3.6,54,9.4,67.6,32.6c13,22.1,13.5,49.8,6.4,73.9
			c-8.1,27.5-26.6,50.7-46.7,70.5c-11.9,11.8-24.7,22.8-37.6,33.5c-14,11.6-28.7,22.6-44.5,31.7c-4.8,2.8-0.5,10.2,4.4,7.5
			c15.1-8.7,29.2-19.1,42.7-30.1c12.5-10.2,24.8-20.7,36.4-31.8c22.2-21.1,42.8-45.8,52.5-75.3c8.6-26.1,8.5-56.3-4.4-80.9
			c-13.5-25.6-41.4-41.4-70.3-40.5c-32.1,1-60.6,23.6-70.1,54.1C514.6,460.7,522.9,463,524.5,457.7L524.5,457.7z"/>
	</g>
</g>
</svg>
