<?xml version="1.0" encoding="utf-8"?>
<!-- Generator: Adobe Illustrator 23.0.2, SVG Export Plug-In . SVG Version: 6.00 Build 0)  -->
<svg version="1.1" id="Layer_1" xmlns="http://www.w3.org/2000/svg" xmlns:xlink="http://www.w3.org/1999/xlink" x="0px" y="0px"
	 viewBox="0 0 1000 1000" style="enable-background:new 0 0 1000 1000;" xml:space="preserve">
<style type="text/css">
	.st0{opacity:0.7;fill:#FF1E74;}
	.st1{opacity:0.7;fill:#F6F5DA;}
	.st2{opacity:0.7;fill:#B30044;}
	.st3{opacity:0.7;fill:#575043;}
	.st4{opacity:0.7;fill:#EB9F15;}
</style>
<g>
	<path class="st0" d="M295.6,389.9c10.6,68.3,49.6,128.3,87.7,186c21.6,32.8,43.3,65.5,64.9,98.3c4.5,6.9,9.5,14.1,17.1,17.2
		s26.1,17,27.2,8.8c-48.8-97.5-75.2-210.1-96.6-315.9c-8.1-40.1-13.5-94.6,2.8-132.2c9.6-22,18.9-37.1,36.6-53.4
		c3.4-3.1-13.5-1.3-15-5.6c-8.4-23.9-91.3,55.4-97.9,65.1C296.8,295.8,288.7,345.2,295.6,389.9z"/>
	<path class="st0" d="M342.5,632.2c0.6,0.6,1.2,1.3,1.9,1.9c10,10.1,20.5,19.8,31.3,29c4,3.4,8.1,6.8,12.2,10
		c-33.2-37.6-59.9-80.7-86.3-123.4c-24.6-39.9-46.4-79.6-57.1-125.5c-23.6,21.7,32.3,111.4,45.7,133.3
		C305.9,583.6,323.8,608.2,342.5,632.2z"/>
	<path class="st0" d="M760.5,455.3c2.3-6,4.6-12.4,3.9-18.9c-0.7-6.5-5.2-13-11.7-13.7c-1.9-0.2-66.8,134.4-74.7,147.1
		c-29.2,47.2-64.3,89.1-98,132.6C661,639.9,723.8,550.2,760.5,455.3z"/>
	<path class="st1" d="M421.7,434.4c-9.5-40.3-17.8-81.6-17.5-123.8c0.3-42.1,10.1-85.6,32.6-115.5s59-43,87.7-24.8
		c30.9,19.6,45.3,67.8,48.6,112.9c7.9,109.4-31.6,211.3-45.4,317c-2.3,17.4,0.5,110.4-20.6,106.7c-16-2.8-29.3-76.2-34.2-92.2
		C454.5,555.1,436.2,496,421.7,434.4z"/>
	<path class="st1" d="M251.9,369.3c-8.8,78.4,40.2,150.4,86.8,214.1c24,32.9,48.1,65.7,72.1,98.6c5.7,7.8,11.7,15.8,20.2,20.4
		c8.5,4.5,20.4,4.4,26.6-3c-26.5-19.7-43.5-49.2-59.8-78c-24.1-42.6-48.3-85.3-72-128.1C308.4,462,291,430,284.4,394.9
		c-11.5-61.2,16-109.1,51.1-155.5C289.8,240.9,255.9,332.5,251.9,369.3z"/>
	<path class="st1" d="M720,392.7c-11.4,84.4-56.9,160-104.3,230.7c-16.2,24.1-33.1,48.9-37.9,77.5
		c67.8-76.4,124.7-162.5,168.4-254.9c8.2-17.3,16-35.1,19-54c2.4-15,0.8-79.1-22.4-79.8C717.6,311.4,721.9,378.9,720,392.7z"/>
	<path class="st0" d="M699.7,288.8c-18.7-52.7-62-62.4-89.9-81.8c-11.8-8.2-17.8-9.2-20.4-3.6c-1.3-0.4-2.7-0.8-4-1.1
		c-1.9,7-0.2,14.8,2.7,22.8c1.3,20.1,5.7,51.8,6.7,93.4c0.7,27.6-10.8,83.5-15.9,110.6c-19.4,102.6-20.7,180.8-54.4,279.5
		c3,3.5,8.4-0.5,11.1-4.2c65-89,131.3-180.5,160.8-286.8C708,375.7,714.3,330,699.7,288.8z"/>
	<path class="st2" d="M469.2,748.9c2,2.5,4.1,5,7,6.2c7.8,3.1,15.9-4.7,24.3-4.1c4.4,0.4,8.7,3.2,13.1,2.2c3.4-0.7,5.9-3.4,8.2-6
		c11.4-13,22.8-25.9,34.2-38.9c-19.5,22.2-92.8,3.5-117,2.2C448.1,723.9,459,736.2,469.2,748.9z"/>
	<path class="st3" d="M448,818.7c0.3,5,0.6,9.9,0.9,14.8c0.7,11.7,2.7,25.5,13.2,30.6c5.2,2.5,11.3,2.2,17.1,1.8
		c11.5-0.8,23.1-1.6,34.6-2.4c7.7-0.5,15.7-1.2,22.1-5.3c16.4-10.7,12.6-35.4,6.8-54.1c-8.4,2-16.5,5.5-23.8,10.2
		c-2,1.3-4,2.8-4.9,4.9c-1.4,3.2,0.1,6.9,0.6,10.4c2,13.4-13.8,25.9-26.4,20.9s-15.5-24.9-4.8-33.3c-14.1-7.2-31.2-8.2-46.1-2.8"/>
	<path class="st4" d="M441.8,809.3c-16.5,7-20,33-6,44.2c2.1-17.5,4.3-35,6.4-52.4"/>
	<path class="st4" d="M489.7,812.7c-9.6,9.9-3.6,29.6,9.9,32.5c4.3-13,5.6-27,3.8-40.5"/>
	<path class="st4" d="M558.9,816.2c-7.1,3.5-8.9,14.4-3.3,20s16.6,3.6,20-3.5s-2.1-16.8-9.9-17.7"/>
	<g>
		<path d="M297.5,423.9c-0.2-3.4-1.9-6.1-2.8-9.3c-1-3.4-1.7-7-2.3-10.5c-1.4-7.1-2.3-14.3-2.7-21.5c-0.9-13.7-0.3-27.5,2-41.1
			c4.5-27.5,15-53.7,30.3-77c2.5-3.8-3.6-7.3-6.1-3.5c-24.2,36.9-36.7,81.4-32.9,125.6c0.5,6.3,1.4,12.6,2.6,18.8
			c0.6,3.1,1.2,6.2,2,9.2c0.7,3,2.8,6.4,3.1,9.4C290.8,428.4,297.8,428.4,297.5,423.9L297.5,423.9z"/>
	</g>
	<g>
		<path d="M450.3,187.2c-24.8,17.5-38.7,46.8-46.5,75.3c-9.6,35.2-10.2,72.2-6,108.3c4.4,38,13.8,75.2,23.6,112.1
			c9.4,35.3,19.4,70.5,30,105.4c11.5,38,23.8,75.9,37.4,113.2c1.5,4.2,8.4,2.4,6.8-1.9c-24-65.9-44.2-133.2-62.6-200.9
			c-19.1-70.2-40.5-145.2-26.1-218.3c6.3-31.9,19.4-67.7,47-87.2C457.6,190.7,454,184.6,450.3,187.2L450.3,187.2z"/>
	</g>
	<g>
		<path d="M292.5,268.3c-42.6,36.5-52.7,97.4-42.3,150.2c5.6,28.5,16.5,55.6,29.3,81.5c13.3,26.8,28.5,52.7,45.1,77.6
			c18.5,27.6,38.9,54,60.9,78.9c3,3.4,8-1.6,5-5c-38-43-71.1-90.5-97.8-141.2c-26.4-50.1-48-107.3-36-164.7
			c5.8-27.7,19.2-53.7,40.8-72.3C300.9,270.3,295.9,265.4,292.5,268.3L292.5,268.3z"/>
	</g>
	<g>
		<path d="M327.6,481.1c18.4,33.6,36.8,67.3,55.2,100.9c16.3,29.8,31.7,60.5,51.2,88.4c10.5,15.1,22.4,29.2,36.3,41.4
			c3.4,3,8.4-2,5-5c-24.6-21.5-42.4-49.1-58.4-77.3c-18-31.8-35.2-64-52.7-96c-10.2-18.6-20.4-37.3-30.6-55.9
			C331.5,473.5,325.4,477.1,327.6,481.1L327.6,481.1z"/>
	</g>
	<g>
		<path d="M571.1,655.7c32.5-34.6,62.5-71.5,89.7-110.4c2.6-3.7-3.5-7.2-6.1-3.5c-26.9,38.4-56.5,74.8-88.6,109
			C563,654,568,659,571.1,655.7L571.1,655.7z"/>
	</g>
	<g>
		<path d="M313.7,242.8c12.4-13.1,27.7-23.3,43.6-31.7c19-10,39.6-17.2,60.8-20.9c12.4-2.1,25-2.8,37.5-1.8c4.5,0.4,4.5-6.7,0-7
			c-43.4-3.4-88.8,12.4-124.1,37.1c-8.1,5.7-15.9,12-22.7,19.3C305.6,241.1,310.6,246.1,313.7,242.8L313.7,242.8z"/>
	</g>
	<g>
		<path d="M698.4,278.2c18.3,53.3,17.5,112.4-1.6,165.4c-5.4,15-12.3,29.3-20.5,43c-2.3,3.9,3.7,7.4,6.1,3.5
			c29.9-49.5,41.8-109,34-166.3c-2.2-16.2-5.9-32.1-11.2-47.5C703.7,272.1,696.9,273.9,698.4,278.2L698.4,278.2z"/>
	</g>
	<g>
		<path d="M540.7,188.6c14.6,4.5,22.2,21.7,26.8,34.9c5.7,16.3,8.4,33.5,9.8,50.7c2.7,32.7,1.2,65.7-1.7,98.3
			c-6.7,74.4-21.2,147.9-35.5,221c-7.4,37.5-15,75-21.3,112.7c-0.8,4.4,6,6.3,6.8,1.9c12.1-72.1,28.2-143.5,40.6-215.6
			c6.5-37.5,12.2-75.1,15.8-113c3.3-33.6,5.1-67.6,2.6-101.4c-1.4-19.5-4.2-39.1-10.8-57.6c-5.5-15.4-14.4-33.5-31.3-38.7
			C538.2,180.5,536.3,187.3,540.7,188.6L540.7,188.6z"/>
	</g>
	<g>
		<path d="M469.7,769.1c7-2.1,14.2-3.5,21.6-4.1c3.3-0.2,6.7-0.3,10-0.2c3.7,0.1,7.8,1.2,11.4,0.9c2.8-0.2,4.8-3.5,6.6-5.3
			c2.8-2.9,5.5-5.7,8.2-8.6c5-5.2,9.9-10.5,14.8-15.7c20.1-21.6,39.6-43.8,58.6-66.3c10.8-12.9,21.5-26,32-39.2c2.8-3.5-2.2-8.5-5-5
			c-37,46.6-76.3,91.4-117.7,134.1c0.8-0.3,1.7-0.7,2.5-1c-15.1-2-30.3-0.7-44.9,3.6C463.5,763.6,465.3,770.4,469.7,769.1
			L469.7,769.1z"/>
	</g>
	<g>
		<path d="M364,628c33.5,50.2,70.9,97.7,111.6,142.3c3.1,3.4,8-1.6,5-5c-40.3-44.1-77.3-91.1-110.5-140.8
			C367.5,620.7,361.5,624.2,364,628L364,628z"/>
	</g>
	<g>
		<path d="M419.8,702.9c47.2,15,98,17,146.2,5.7c4.4-1,2.5-7.8-1.9-6.8c-47,11-96.5,9-142.4-5.7
			C417.3,694.7,415.5,701.5,419.8,702.9L419.8,702.9z"/>
	</g>
	<g>
		<path d="M474.2,754.1c-4.1,16.1-8.2,32.2-12.4,48.2c-1.1,4.4,5.7,6.3,6.8,1.9c4.1-16.1,8.2-32.2,12.4-48.2
			C482.2,751.5,475.4,749.7,474.2,754.1L474.2,754.1z"/>
	</g>
	<g>
		<path d="M503,751.9c1.7,14.6,5.1,28.8,10.5,42.5c1.6,4.2,8.5,2.3,6.8-1.9c-5.1-13-8.6-26.7-10.3-40.6
			C509.5,747.5,502.5,747.4,503,751.9L503,751.9z"/>
	</g>
	<g>
		<path d="M452.5,813.2c29.2,0.9,58.4-0.8,87.3-4.9c4.5-0.6,2.6-7.4-1.9-6.8c-28.3,4-56.9,5.5-85.4,4.7
			C448,806,448,813.1,452.5,813.2L452.5,813.2z"/>
	</g>
	<g>
		<path d="M440.6,806.5c-0.4,10.2,0.5,20.3,2.5,30.3c1.7,8.7,3.9,18.9,9.1,26.3c5.3,7.5,13.2,7.8,21.7,7.8c11.1,0,22.1-0.1,33.2-0.2
			c4.5,0,4.5-7.1,0-7c-9.3,0-18.6,0.1-27.9,0.1c-8,0-17.5,1.9-22.1-6.2c-4-6.9-5.8-15.7-7.3-23.5c-1.8-9.1-2.4-18.4-2.1-27.7
			C447.8,802,440.8,802,440.6,806.5L440.6,806.5z"/>
	</g>
	<g>
		<path d="M538.2,807.2c4.3,10.6,9,21.9,8,33.5c-0.8,9-5.8,18.6-14.8,21.7c-4.3,1.5-2.4,8.3,1.9,6.8c10.6-3.6,17.5-13.4,19.4-24.2
			c2.5-13.7-2.7-27.1-7.7-39.6C543.3,801.2,536.5,803,538.2,807.2L538.2,807.2z"/>
	</g>
	<g>
		<path d="M484.4,805.2c2.4,4.4,0.5,9.7-0.8,14.1c-1.3,4.6-2.9,9.5-2,14.4c0.8,4.7,4.2,8.7,8.9,10.1c6,1.8,12.4-0.6,17.9-2.9
			c1.1-0.5,1.7-1.9,1.7-3c0.1-7.3,0.3-14.5,0.5-21.8c0.1-4.5-7-4.5-7,0c-0.1,7.3-0.3,14.5-0.5,21.8c0.6-1,1.2-2,1.7-3
			c-4.1,1.7-11.5,4.8-15.1,0.4c-2.2-2.7-1.2-6.8-0.4-9.9c2-7.8,5.4-16,1.2-23.7C488.3,797.7,482.2,801.2,484.4,805.2L484.4,805.2z"
			/>
	</g>
	<g>
		<path d="M552.4,811.8c5.9-1.8,12.9,0.4,15.9,6.1c3,5.7,0.8,12.6-4,16.5c-3.5,2.9,1.5,7.8,5,5c7.2-5.9,9.6-16.8,5.1-25.1
			c-4.5-8.3-15-12.1-23.8-9.3C546.2,806.3,548.1,813.1,552.4,811.8L552.4,811.8z"/>
	</g>
	<g>
		<path d="M431.4,801.5c-2.2,12.3-15.7,18.8-17.6,31.3c-1.4,8.9,2.5,21,13.3,20.5c4.5-0.2,4.5-7.2,0-7c-8.2,0.4-7.4-12.5-4.6-17.3
			c5-8.8,13.9-15.1,15.8-25.6C439,799,432.2,797.1,431.4,801.5L431.4,801.5z"/>
	</g>
	<g>
		<path d="M576.5,196.9c25.1,2.9,49.8,12,71.2,25.3c22.1,13.7,41.6,32.8,52.2,56.9c6.3,14.4,8.8,30.1,7.9,45.7c-0.3,4.5,6.8,4.5,7,0
			c1.7-28.9-8.6-56.3-27.3-78.1c-18.1-21.2-42.6-36.6-68.5-46.4c-13.7-5.2-27.9-8.8-42.5-10.4C572.1,189.4,572.1,196.4,576.5,196.9
			L576.5,196.9z"/>
	</g>
	<g>
		<path d="M723.5,293.6c21.7,13.6,33.3,37,33.9,62.3c0.6,25.6-6.9,51.5-15.4,75.3c-17.5,48.8-44.5,94-72.9,137.1
			c-15.5,23.5-31.6,46.5-47.7,69.6c-2.6,3.7,3.5,7.2,6.1,3.5c30.5-43.6,61.2-87.2,86.9-133.9c12.8-23.2,24.4-47.2,33.5-72.1
			c8.9-24.4,16.5-50.7,16.6-76.8c0.1-28.8-12.7-55.6-37.4-71.2C723.2,285.1,719.7,291.2,723.5,293.6L723.5,293.6z"/>
	</g>
	<g>
		<path d="M765.3,416.2c6,7.4,3.4,19.9,1.5,28.2c-2.5,10.8-6.4,21.3-10.9,31.5c-9.9,22.6-20.9,44.9-33.2,66.3
			c-22.1,38.2-49.8,72.1-82.1,102.2c-21.8,20.4-45,39.2-68.4,57.5c-3.6,2.8,1.5,7.7,5,5c39.9-31.2,79.3-63.8,111.6-103.1
			c30.5-37.2,53.6-79.7,73-123.6c5.1-11.6,9.7-23.5,12.4-35.9c2.3-10.8,3.7-23.8-3.8-33C767.4,407.7,762.5,412.7,765.3,416.2
			L765.3,416.2z"/>
	</g>
	<g>
		<path d="M244.4,402.3c-18.4,41.2,1.5,86.4,22.5,122.5c22.5,38.6,48.9,74.9,78.6,108.2c16.9,18.9,34.9,36.8,53.8,53.7
			c3.4,3,8.4-2,5-5c-32.2-28.7-61.7-60.5-87.8-95c-13.1-17.3-25.3-35.3-36.6-53.9c-11.1-18.2-21.8-37-28.7-57.3
			c-7.7-22.5-10.7-47.5-0.8-69.8C252.3,401.7,246.3,398.1,244.4,402.3L244.4,402.3z"/>
	</g>
	<g>
		<path d="M457.1,194.3c3.6-6.8,10.3-10.4,17.4-12.8c8.5-2.8,17.5-4.3,26.4-4.8c17.4-1.1,35.5,3.2,47,17.2c2.9,3.5,7.8-1.5,5-5
			c-12.9-15.7-33.9-20.6-53.4-19.2c-16.6,1.2-39.6,4.6-48.3,21C448.9,194.7,455,198.3,457.1,194.3L457.1,194.3z"/>
	</g>
</g>
</svg>
