<svg xmlns="http://www.w3.org/2000/svg" width="1000" height="1000"><style>.st0{opacity:.7;fill:#ff1e74}</style><path class="st0" d="M295.6 389.9c10.6 68.3 49.6 128.3 87.7 186 21.6 32.8 43.3 65.5 64.9 98.3 4.5 6.9 9.5 14.1 17.1 17.2s26.1 17 27.2 8.8c-48.8-97.5-75.2-210.1-96.6-315.9-8.1-40.1-13.5-94.6 2.8-132.2 9.6-22 18.9-37.1 36.6-53.4 3.4-3.1-13.5-1.3-15-5.6-8.4-23.9-91.3 55.4-97.9 65.1-25.6 37.6-33.7 87-26.8 131.7zm46.9 242.3c.6.6 1.2 1.3 1.9 1.9 10 10.1 20.5 19.8 31.3 29 4 3.4 8.1 6.8 12.2 10-33.2-37.6-59.9-80.7-86.3-123.4-24.6-39.9-46.4-79.6-57.1-125.5-23.6 21.7 32.3 111.4 45.7 133.3 15.7 26.1 33.6 50.7 52.3 74.7zm418-176.9c2.3-6 4.6-12.4 3.9-18.9-.7-6.5-5.2-13-11.7-13.7-1.9-.2-66.8 134.4-74.7 147.1-29.2 47.2-64.3 89.1-98 132.6 81-62.5 143.8-152.2 180.5-247.1z"/><path d="M421.7 434.4c-9.5-40.3-17.8-81.6-17.5-123.8.3-42.1 10.1-85.6 32.6-115.5s59-43 87.7-24.8c30.9 19.6 45.3 67.8 48.6 112.9 7.9 109.4-31.6 211.3-45.4 317-2.3 17.4.5 110.4-20.6 106.7-16-2.8-29.3-76.2-34.2-92.2-18.4-59.6-36.7-118.7-51.2-180.3zm-169.8-65.1c-8.8 78.4 40.2 150.4 86.8 214.1 24 32.9 48.1 65.7 72.1 98.6 5.7 7.8 11.7 15.8 20.2 20.4 8.5 4.5 20.4 4.4 26.6-3-26.5-19.7-43.5-49.2-59.8-78-24.1-42.6-48.3-85.3-72-128.1-17.4-31.3-34.8-63.3-41.4-98.4-11.5-61.2 16-109.1 51.1-155.5-45.7 1.5-79.6 93.1-83.6 129.9zM720 392.7c-11.4 84.4-56.9 160-104.3 230.7-16.2 24.1-33.1 48.9-37.9 77.5 67.8-76.4 124.7-162.5 168.4-254.9 8.2-17.3 16-35.1 19-54 2.4-15 .8-79.1-22.4-79.8-25.2-.8-20.9 66.7-22.8 80.5z" fill="#f6f5da" opacity=".7"/><path class="st0" d="M699.7 288.8c-18.7-52.7-62-62.4-89.9-81.8-11.8-8.2-17.8-9.2-20.4-3.6-1.3-.4-2.7-.8-4-1.1-1.9 7-.2 14.8 2.7 22.8 1.3 20.1 5.7 51.8 6.7 93.4.7 27.6-10.8 83.5-15.9 110.6-19.4 102.6-20.7 180.8-54.4 279.5 3 3.5 8.4-.5 11.1-4.2 65-89 131.3-180.5 160.8-286.8 11.6-41.9 17.9-87.6 3.3-128.8z"/><path d="M469.2 748.9c2 2.5 4.1 5 7 6.2 7.8 3.1 15.9-4.7 24.3-4.1 4.4.4 8.7 3.2 13.1 2.2 3.4-.7 5.9-3.4 8.2-6 11.4-13 22.8-25.9 34.2-38.9-19.5 22.2-92.8 3.5-117 2.2 9.1 13.4 20 25.7 30.2 38.4z" opacity=".7" fill="#b30044"/><path d="M448 818.7c.3 5 .6 9.9.9 14.8.7 11.7 2.7 25.5 13.2 30.6 5.2 2.5 11.3 2.2 17.1 1.8 11.5-.8 23.1-1.6 34.6-2.4 7.7-.5 15.7-1.2 22.1-5.3 16.4-10.7 12.6-35.4 6.8-54.1-8.4 2-16.5 5.5-23.8 10.2-2 1.3-4 2.8-4.9 4.9-1.4 3.2.1 6.9.6 10.4 2 13.4-13.8 25.9-26.4 20.9s-15.5-24.9-4.8-33.3c-14.1-7.2-31.2-8.2-46.1-2.8" opacity=".7" fill="#575043"/><path d="M441.8 809.3c-16.5 7-20 33-6 44.2 2.1-17.5 4.3-35 6.4-52.4m47.5 11.6c-9.6 9.9-3.6 29.6 9.9 32.5 4.3-13 5.6-27 3.8-40.5m55.5 11.5c-7.1 3.5-8.9 14.4-3.3 20s16.6 3.6 20-3.5-2.1-16.8-9.9-17.7" fill="#eb9f15" opacity=".7"/><path d="M297.5 423.9c-.2-3.4-1.9-6.1-2.8-9.3-1-3.4-1.7-7-2.3-10.5-1.4-7.1-2.3-14.3-2.7-21.5-.9-13.7-.3-27.5 2-41.1 4.5-27.5 15-53.7 30.3-77 2.5-3.8-3.6-7.3-6.1-3.5-24.2 36.9-36.7 81.4-32.9 125.6.5 6.3 1.4 12.6 2.6 18.8.6 3.1 1.2 6.2 2 9.2.7 3 2.8 6.4 3.1 9.4.1 4.4 7.1 4.4 6.8-.1zm152.8-236.7c-24.8 17.5-38.7 46.8-46.5 75.3-9.6 35.2-10.2 72.2-6 108.3 4.4 38 13.8 75.2 23.6 112.1 9.4 35.3 19.4 70.5 30 105.4 11.5 38 23.8 75.9 37.4 113.2 1.5 4.2 8.4 2.4 6.8-1.9-24-65.9-44.2-133.2-62.6-200.9-19.1-70.2-40.5-145.2-26.1-218.3 6.3-31.9 19.4-67.7 47-87.2 3.7-2.5.1-8.6-3.6-6z"/><path d="M292.5 268.3c-42.6 36.5-52.7 97.4-42.3 150.2 5.6 28.5 16.5 55.6 29.3 81.5 13.3 26.8 28.5 52.7 45.1 77.6 18.5 27.6 38.9 54 60.9 78.9 3 3.4 8-1.6 5-5-38-43-71.1-90.5-97.8-141.2-26.4-50.1-48-107.3-36-164.7 5.8-27.7 19.2-53.7 40.8-72.3 3.4-3-1.6-7.9-5-5z"/><path d="M327.6 481.1c18.4 33.6 36.8 67.3 55.2 100.9 16.3 29.8 31.7 60.5 51.2 88.4 10.5 15.1 22.4 29.2 36.3 41.4 3.4 3 8.4-2 5-5-24.6-21.5-42.4-49.1-58.4-77.3-18-31.8-35.2-64-52.7-96-10.2-18.6-20.4-37.3-30.6-55.9-2.1-4.1-8.2-.5-6 3.5zm243.5 174.6c32.5-34.6 62.5-71.5 89.7-110.4 2.6-3.7-3.5-7.2-6.1-3.5-26.9 38.4-56.5 74.8-88.6 109-3.1 3.2 1.9 8.2 5 4.9zM313.7 242.8c12.4-13.1 27.7-23.3 43.6-31.7 19-10 39.6-17.2 60.8-20.9 12.4-2.1 25-2.8 37.5-1.8 4.5.4 4.5-6.7 0-7-43.4-3.4-88.8 12.4-124.1 37.1-8.1 5.7-15.9 12-22.7 19.3-3.2 3.3 1.8 8.3 4.9 5zm384.7 35.4c18.3 53.3 17.5 112.4-1.6 165.4-5.4 15-12.3 29.3-20.5 43-2.3 3.9 3.7 7.4 6.1 3.5 29.9-49.5 41.8-109 34-166.3-2.2-16.2-5.9-32.1-11.2-47.5-1.5-4.2-8.3-2.4-6.8 1.9zm-157.7-89.6c14.6 4.5 22.2 21.7 26.8 34.9 5.7 16.3 8.4 33.5 9.8 50.7 2.7 32.7 1.2 65.7-1.7 98.3-6.7 74.4-21.2 147.9-35.5 221-7.4 37.5-15 75-21.3 112.7-.8 4.4 6 6.3 6.8 1.9 12.1-72.1 28.2-143.5 40.6-215.6 6.5-37.5 12.2-75.1 15.8-113 3.3-33.6 5.1-67.6 2.6-101.4-1.4-19.5-4.2-39.1-10.8-57.6-5.5-15.4-14.4-33.5-31.3-38.7-4.3-1.3-6.2 5.5-1.8 6.8zm-71 580.5c7-2.1 14.2-3.5 21.6-4.1 3.3-.2 6.7-.3 10-.2 3.7.1 7.8 1.2 11.4.9 2.8-.2 4.8-3.5 6.6-5.3 2.8-2.9 5.5-5.7 8.2-8.6 5-5.2 9.9-10.5 14.8-15.7 20.1-21.6 39.6-43.8 58.6-66.3 10.8-12.9 21.5-26 32-39.2 2.8-3.5-2.2-8.5-5-5-37 46.6-76.3 91.4-117.7 134.1.8-.3 1.7-.7 2.5-1-15.1-2-30.3-.7-44.9 3.6-4.3 1.3-2.5 8.1 1.9 6.8z"/><path d="M364 628c33.5 50.2 70.9 97.7 111.6 142.3 3.1 3.4 8-1.6 5-5-40.3-44.1-77.3-91.1-110.5-140.8-2.6-3.8-8.6-.3-6.1 3.5z"/><path d="M419.8 702.9c47.2 15 98 17 146.2 5.7 4.4-1 2.5-7.8-1.9-6.8-47 11-96.5 9-142.4-5.7-4.4-1.4-6.2 5.4-1.9 6.8zm54.4 51.2c-4.1 16.1-8.2 32.2-12.4 48.2-1.1 4.4 5.7 6.3 6.8 1.9 4.1-16.1 8.2-32.2 12.4-48.2 1.2-4.5-5.6-6.3-6.8-1.9zm28.8-2.2c1.7 14.6 5.1 28.8 10.5 42.5 1.6 4.2 8.5 2.3 6.8-1.9-5.1-13-8.6-26.7-10.3-40.6-.5-4.4-7.5-4.5-7 0z"/><path d="M452.5 813.2c29.2.9 58.4-.8 87.3-4.9 4.5-.6 2.6-7.4-1.9-6.8-28.3 4-56.9 5.5-85.4 4.7-4.5-.2-4.5 6.9 0 7z"/><path d="M440.6 806.5c-.4 10.2.5 20.3 2.5 30.3 1.7 8.7 3.9 18.9 9.1 26.3 5.3 7.5 13.2 7.8 21.7 7.8 11.1 0 22.1-.1 33.2-.2 4.5 0 4.5-7.1 0-7-9.3 0-18.6.1-27.9.1-8 0-17.5 1.9-22.1-6.2-4-6.9-5.8-15.7-7.3-23.5-1.8-9.1-2.4-18.4-2.1-27.7.1-4.4-6.9-4.4-7.1.1zm97.6.7c4.3 10.6 9 21.9 8 33.5-.8 9-5.8 18.6-14.8 21.7-4.3 1.5-2.4 8.3 1.9 6.8 10.6-3.6 17.5-13.4 19.4-24.2 2.5-13.7-2.7-27.1-7.7-39.6-1.7-4.2-8.5-2.4-6.8 1.8z"/><path d="M484.4 805.2c2.4 4.4.5 9.7-.8 14.1-1.3 4.6-2.9 9.5-2 14.4.8 4.7 4.2 8.7 8.9 10.1 6 1.8 12.4-.6 17.9-2.9 1.1-.5 1.7-1.9 1.7-3 .1-7.3.3-14.5.5-21.8.1-4.5-7-4.5-7 0-.1 7.3-.3 14.5-.5 21.8.6-1 1.2-2 1.7-3-4.1 1.7-11.5 4.8-15.1.4-2.2-2.7-1.2-6.8-.4-9.9 2-7.8 5.4-16 1.2-23.7-2.2-4-8.3-.5-6.1 3.5zm68 6.6c5.9-1.8 12.9.4 15.9 6.1 3 5.7.8 12.6-4 16.5-3.5 2.9 1.5 7.8 5 5 7.2-5.9 9.6-16.8 5.1-25.1s-15-12.1-23.8-9.3c-4.4 1.3-2.5 8.1 1.8 6.8zm-121-10.3c-2.2 12.3-15.7 18.8-17.6 31.3-1.4 8.9 2.5 21 13.3 20.5 4.5-.2 4.5-7.2 0-7-8.2.4-7.4-12.5-4.6-17.3 5-8.8 13.9-15.1 15.8-25.6.7-4.4-6.1-6.3-6.9-1.9zm145.1-604.6c25.1 2.9 49.8 12 71.2 25.3 22.1 13.7 41.6 32.8 52.2 56.9 6.3 14.4 8.8 30.1 7.9 45.7-.3 4.5 6.8 4.5 7 0 1.7-28.9-8.6-56.3-27.3-78.1-18.1-21.2-42.6-36.6-68.5-46.4-13.7-5.2-27.9-8.8-42.5-10.4-4.4-.5-4.4 6.5 0 7z"/><path d="M723.5 293.6c21.7 13.6 33.3 37 33.9 62.3.6 25.6-6.9 51.5-15.4 75.3-17.5 48.8-44.5 94-72.9 137.1-15.5 23.5-31.6 46.5-47.7 69.6-2.6 3.7 3.5 7.2 6.1 3.5 30.5-43.6 61.2-87.2 86.9-133.9 12.8-23.2 24.4-47.2 33.5-72.1 8.9-24.4 16.5-50.7 16.6-76.8.1-28.8-12.7-55.6-37.4-71.2-3.9-2.3-7.4 3.8-3.6 6.2z"/><path d="M765.3 416.2c6 7.4 3.4 19.9 1.5 28.2-2.5 10.8-6.4 21.3-10.9 31.5-9.9 22.6-20.9 44.9-33.2 66.3-22.1 38.2-49.8 72.1-82.1 102.2-21.8 20.4-45 39.2-68.4 57.5-3.6 2.8 1.5 7.7 5 5 39.9-31.2 79.3-63.8 111.6-103.1 30.5-37.2 53.6-79.7 73-123.6 5.1-11.6 9.7-23.5 12.4-35.9 2.3-10.8 3.7-23.8-3.8-33-3-3.6-7.9 1.4-5.1 4.9zm-520.9-13.9c-18.4 41.2 1.5 86.4 22.5 122.5 22.5 38.6 48.9 74.9 78.6 108.2 16.9 18.9 34.9 36.8 53.8 53.7 3.4 3 8.4-2 5-5-32.2-28.7-61.7-60.5-87.8-95-13.1-17.3-25.3-35.3-36.6-53.9-11.1-18.2-21.8-37-28.7-57.3-7.7-22.5-10.7-47.5-.8-69.8 1.9-4-4.1-7.6-6-3.4zm212.7-208c3.6-6.8 10.3-10.4 17.4-12.8 8.5-2.8 17.5-4.3 26.4-4.8 17.4-1.1 35.5 3.2 47 17.2 2.9 3.5 7.8-1.5 5-5-12.9-15.7-33.9-20.6-53.4-19.2-16.6 1.2-39.6 4.6-48.3 21-2.3 4 3.8 7.6 5.9 3.6z"/></svg>