<svg xmlns="http://www.w3.org/2000/svg" width="1000" height="1000"><style>.st3{opacity:.7;fill:#4a2c16}</style><path d="M788.6 466.7c-4.2-12.8-13.9-22.7-23.2-32.1-73.8-73.7-147.5-147.5-221.3-221.2-5.4-5.4-11.1-10.9-18.3-12.9-13.9-3.8-27.4 6.9-38.1 16.9L341.3 352.7c-33.8 31.2-97.5 69.8-107.5 118.8-8.6 42.5 16.5 104.4 24.5 145.5 12.5 63.4 19.5 119.4 32.4 182.6 4.4 22.4 12.4 62.8 33.1 70.8 15.4.6 52.9-2.7 69.2-5.1 16.3-2.4 33.9-9.5 48.4-1.5-3.6-92.5-2.6-185.2 2.8-277.6 59.7-7.2 119.8-10 179.8-8.2.9 99-10.6 198.1-34 294.1 49.6-7.3 99.5-11.9 149.5-13.7L789 506.2c1.9-13.1 3.7-26.9-.4-39.5zm-237.3-98.8c-.7 2-1.6 3.9-2.8 5.8-14.2 23.7-46 21-65.3 6.1-10.4-8-17.5-19.5-17.7-32.9-.2-16 9.9-28.6 22.7-36.8 10.2-6.5 22.7-4.6 31.8 2 8-.3 14.5 3.8 20.4 8.5 5.3 4.2 9.5 9.9 12.5 15.9 5.7 10.6 4.9 22.4-1.6 31.4z" opacity=".7" fill="#fd7c00"/><path d="M557 338.3c-1.6-18.2-19.6-31.6-37.7-34.2-10.8-1.5-21.7-.1-32.4 2.6-.7.8-1.3 1.6-2.1 2.3l3.9-.8c-12.3 4.7-18.2 21.3-17.7 35.8.7 19.5 8.1 44.6 26.7 50.6 16.8 5.4 36.2-3.9 47.3-17.6 8.3-10.1 13.2-25.6 12-38.7z" opacity=".7" fill="#85f5ff"/><path d="M440 584.9c56.2-10.1 113.5-13.6 170.5-10.3 7.2 96.7.4 194.4-20 289.1-59.2-.2-131.8 31.5-145.6-41.7-3.9-20.5-14.9-235.3-4.9-237.1z" opacity=".7" fill="#a15f2f"/><path class="st3" d="M521.8 185.7c-2.2-18-4.4-36.1-6.6-54.1-48.8 39-393 282.6-345.3 347.3 20.2 27.5 127.2-102.7 152.8-126.5 21.1-19.8 201.2-149.1 199.1-166.7z"/><path class="st3" d="M820.6 466.7c12.2-16.9 8.4-41.2-3-58.6s-29-29.6-45.8-42c-57.7-42.5-110.2-92-156.2-147-14.4-17.3-61.6-90.9-85.5-70.8-29.1 24.5 53.8 85 68.3 99.4 20 19.7 226.4 213.2 222.2 219z"/><path d="M738.2 324c1-35.5 2-70.9 3.1-106.4.1-2.3.2-4.8 1.8-6.5 1.9-1.9 4.9-1.9 7.5-1.7 13.5.8 26.9 1.7 40.4 2.5-6.5 49.2-15.4 98.1-26.6 146.5-9.4-11-21.7-19.4-35.3-24.2-6.1-42.8-7.9-86.2-5.4-129.4" opacity=".7" fill="#857a74"/><path d="M221.2 483.1c11.6 100.1 28 199.7 49.1 298.3 6 28.1 12.4 56.1 19.2 84 1.2 5.1 9.1 3.2 7.9-1.9-23.8-98-42.9-197-57.2-296.8-4.1-28.4-7.8-56.9-11.1-85.4-.6-5.3-8.5-3.4-7.9 1.8zm-70.3-31.4c12.9 12.9 23.4 27.9 31.1 44.4 1.3 2.8 5.5 2.6 7 .2 16.8-26.7 38.5-49.7 61.4-71.1 20.3-19 41.3-37.2 62.2-55.4 43.1-37.5 86.6-74.6 129.8-111.9 22.3-19.2 44.5-38.4 66.5-57.9 3.9-3.5-1.7-9.4-5.6-5.9-41.4 36.7-83.5 72.6-125.5 108.7-42.3 36.4-85 72.4-126.1 110.1-26 23.8-50.8 49.3-69.7 79.2 2.3.1 4.7.1 7 .2-8-17.2-18.9-32.8-32.3-46.1-3.6-3.7-9.5 1.8-5.8 5.5z"/><path d="M146.6 454.9c43.8-43 88.7-84.9 134.7-125.5 46.2-40.8 93.5-80.4 141.9-118.7 27.1-21.5 54.6-42.6 82.4-63.3 4.2-3.1-1.4-9-5.6-5.9-49.2 36.7-97.5 74.6-144.7 113.8-47.4 39.4-93.8 80.1-139.1 121.9-25.4 23.5-50.5 47.4-75.2 71.7-3.6 3.7 1.9 9.6 5.6 6zm381.8-314.2c46.2 43.5 92.5 87 138.7 130.4 45.9 43.2 92.2 86 137.7 129.6 10.3 9.9 21.4 21.2 24.9 35.5 2.8 11.6.6 26-10 33 1.8.5 3.7 1.1 5.5 1.6-10.2-21.4-28.5-37.2-45.3-53.3-19-18.2-38.1-36.4-57.1-54.6L607.3 252.5c-21.6-20.7-43.2-41.3-64.9-62-3.8-3.6-9.7 2-5.9 5.6C612.8 269 688.9 341.8 765 414.5c19 18.2 41.7 36 53.2 60.3.9 1.9 3.8 2.8 5.5 1.6 9.4-6.3 14.4-16.5 15.2-27.6.9-12.4-3.6-24.2-10.7-34.2-8.1-11.4-18.8-20.7-28.9-30.3l-36.6-34.5c-48.6-45.7-97.2-91.5-145.9-137.2-27.5-25.8-55-51.7-82.4-77.5-3.9-3.5-9.8 2-6 5.6zm-11.6-9.4c2.6 18.3 2.9 36.9 1.2 55.3-.5 5.2 7.6 5.4 8.1.2 1.8-19.2 1.3-38.4-1.4-57.5-.8-5.1-8.7-3.1-7.9 2zm-8.2 155.2c-21.7 8.1-40.6 26.1-46.8 48.8-6.1 22.4 2.9 45.3 22.6 57.5 18.9 11.7 43.3 11 60-4.3 16.2-14.7 22.9-39.6 13-59.6-10.8-21.8-38.5-33.8-61.6-25.7-4.9 1.7-3 9.6 1.9 7.9 17.4-6.1 37.4.7 48.5 15.2 11.7 15.2 9.2 36.5-2.4 51-12.2 15.3-32.3 19.5-49.9 11.4s-28.4-26.1-25.6-45.5c3.2-22.2 21.6-41.2 42.2-48.9 4.9-1.7 3-9.6-1.9-7.8zM802 476.4c-12.9 98.8-27 197.5-42.5 295.9-4.4 27.9-8.8 55.9-13.4 83.8-.8 5.1 6.9 7.5 7.8 2.4 16.2-99 31.2-198.2 44.9-297.6 3.9-28.1 7.6-56.2 11.3-84.3.7-5.1-7.4-5.3-8.1-.2z"/><path d="M399.2 870.5l285.6-6c13.2-.3 26.3-.5 39.5-.8 6.6-.1 13.2-.3 19.8-.4 3.6-.1 7.2-.2 10.8-.2.8 0 2-.1 2.9 0 1.3.2 2.9 1.5 3.4.8-3.2 4.1 3.7 8.3 6.9 4.3 2.4-3 1.6-6.8-1.1-9.3-3.2-3.1-7.6-3.9-11.9-3.8-12.6.1-25.2.5-37.7.8-25.8.5-51.5 1.1-77.2 1.6-51.2 1.1-102.4 2.1-153.6 3.2l-87.1 1.8c-5.3 0-5.6 8.1-.3 8zm325.3-667.4c0 35.6-.1 71.3-.2 106.9 0 5.2 8.1 5.5 8.1.2 0-35.6.1-71.3.2-106.9 0-5.2-8.1-5.5-8.1-.2z"/><path d="M719.8 213.8c15.4-.8 30.9-.5 46.3 1 6.2.6 14.9.2 15.8 8.1.6 5.7-1.5 11.5-2.7 17-5.7 24.9-9.6 50.3-12 75.7-1.3 13.7-2.1 27.5-1.9 41.4.1 5.2 8.2 5.5 8.1.2-.4-27.5 2.7-55.2 7.2-82.4 2.2-13.2 4.9-26.2 7.9-39.2 2.8-11.7 2.1-25-12.1-27.6-18.2-3.4-37.9-3.1-56.3-2.2-5.3.1-5.6 8.2-.3 8zM432.5 576.9c-1.5 76.7-.5 153.4 3.1 230 1 21.8 2.2 43.5 3.7 65.2.3 5.3 7.4 5.4 8.1.2.1-1 .3-1.9.4-2.8.7-5.2-7.4-5.3-8.1-.2-.1 1-.3 1.9-.4 2.8 2.7.1 5.4.2 8.1.2-5-76.5-7.5-153.2-7.5-229.9 0-21.8.2-43.6.7-65.3.1-5.2-8-5.4-8.1-.2z"/><path d="M430 579.8c32.4-6.2 65.1-9.8 98.1-10.8 16.2-.5 32.4-.4 48.5.5 10.9.6 24.6 2.2 30.9 12.4 2.7 4.4 9.9.6 7.1-3.9-6.8-11.1-19.3-14.7-31.6-16.1-16.3-1.8-33.1-1.4-49.5-1.1-35.4.7-70.7 4.5-105.5 11.2-5 1-3.1 8.8 2 7.8z"/><path d="M612.3 573.8c3.3 73.7 1.5 147.6-5.6 221-2 20.9-4.5 41.8-7.3 62.7 2.7.1 5.4.2 8.1.2.5-4.3 1-8.5 1.5-12.8.6-5.2-7.5-5.4-8.1-.2-.5 4.3-1 8.5-1.5 12.8-.6 5.2 7.4 5.3 8.1.2 10-73.1 14.8-146.8 14.5-220.6-.1-21-.7-42.1-1.6-63.1-.2-5.1-8.3-5.4-8.1-.2zM491 841.5c26.9 1.8 53.8 1.8 80.7-.1 5.2-.4 5.4-8.5.2-8.1-26.9 1.9-53.8 1.9-80.7.1-5.1-.3-5.3 7.8-.2 8.1zm-170.9-460c-.2 81.1 1.3 162.1 4.4 243.1.9 23 1.9 46 3 69 .3 5.2 8.4 5.5 8.1.2-4-81-6.4-162-7.2-243-.2-23-.3-46.1-.2-69.1 0-5.2-8.1-5.5-8.1-.2zm22.2 367.4c4.2 25.9 8.3 51.7 12.5 77.6.8 5.2 8.7 3.2 7.9-1.9-4.2-25.9-8.3-51.7-12.5-77.6-.9-5.2-8.8-3.2-7.9 1.9zm88.9-455.5c-3.9 53.4-4.1 107-.7 160.4.3 5.2 8.4 5.4 8.1.2-3.4-53.4-3.2-107 .7-160.4.4-5.2-7.7-5.4-8.1-.2zm238.7 42.7l-1.5 225.7c0 5.2 8.1 5.5 8.1.2l1.5-225.7c.1-5.2-8-5.4-8.1-.2zm-.4 275.3c3.8 63.8 4.8 127.9 3 191.8-.5 18.2-1.2 36.3-2.2 54.4-.3 5.2 7.8 5.4 8.1.2 3.3-63.9 3.9-127.9 1.7-191.9-.6-18.1-1.5-36.2-2.5-54.3-.3-5.2-8.4-5.4-8.1-.2zM765 430.2c-2.7 62.4-8.2 124.6-16.5 186.5-.7 5.2 7.4 5.4 8.1.2 8.3-61.9 13.8-124.1 16.5-186.5.2-5.2-7.9-5.4-8.1-.2zM523.6 611.5c-2.5 3.5-2.6 8.1-.8 12 1.7 3.6 5.8 7.3 10 6.2 7.9-2 6.5-15.7-1.9-15.5-5.2.1-5.5 8.2-.2 8.1.5 0 .3.1.1 0-.5-.1-.8-.3-.9-.7-.1-.2-.1-.2 0 0 .1-.1.1.7.1.4v.4c-.5.2 1.7-1.1 1.7-.7 0 0-1.2-1-1.3-1.1-.3-.4-.5-.9-.6-1.4-.4-1.3-.1-2.3.7-3.4 3-4.3-3.9-8.5-6.9-4.3z"/></svg>