<?xml version="1.0" encoding="utf-8"?>
<!-- Generator: Adobe Illustrator 23.0.2, SVG Export Plug-In . SVG Version: 6.00 Build 0)  -->
<svg version="1.1" id="Layer_1" xmlns="http://www.w3.org/2000/svg" xmlns:xlink="http://www.w3.org/1999/xlink" x="0px" y="0px"
	 viewBox="0 0 1000 1000" style="enable-background:new 0 0 1000 1000;" xml:space="preserve">
<style type="text/css">
	.st0{opacity:0.7;fill:#FD7C00;}
	.st1{opacity:0.7;fill:#85F5FF;}
	.st2{opacity:0.7;fill:#A15F2F;}
	.st3{opacity:0.7;fill:#4A2C16;}
	.st4{opacity:0.7;fill:#857A74;}
</style>
<g>
	<path class="st0" d="M788.6,466.7c-4.2-12.8-13.9-22.7-23.2-32.1c-73.8-73.7-147.5-147.5-221.3-221.2c-5.4-5.4-11.1-10.9-18.3-12.9
		c-13.9-3.8-27.4,6.9-38.1,16.9c-48.8,45.1-97.6,90.2-146.4,135.3c-33.8,31.2-97.5,69.8-107.5,118.8
		c-8.6,42.5,16.5,104.4,24.5,145.5c12.5,63.4,19.5,119.4,32.4,182.6c4.4,22.4,12.4,62.8,33.1,70.8c15.4,0.6,52.9-2.7,69.2-5.1
		c16.3-2.4,33.9-9.5,48.4-1.5c-3.6-92.5-2.6-185.2,2.8-277.6C503.9,579,564,576.2,624,578c0.9,99-10.6,198.1-34,294.1
		c49.6-7.3,99.5-11.9,149.5-13.7C756,741,772.5,623.6,789,506.2C790.9,493.1,792.7,479.3,788.6,466.7z M551.3,367.9
		c-0.7,2-1.6,3.9-2.8,5.8c-14.2,23.7-46,21-65.3,6.1c-10.4-8-17.5-19.5-17.7-32.9c-0.2-16,9.9-28.6,22.7-36.8
		c10.2-6.5,22.7-4.6,31.8,2c8-0.3,14.5,3.8,20.4,8.5c5.3,4.2,9.5,9.9,12.5,15.9C558.6,347.1,557.8,358.9,551.3,367.9z"/>
	<path class="st1" d="M557,338.3c-1.6-18.2-19.6-31.6-37.7-34.2c-10.8-1.5-21.7-0.1-32.4,2.6c-0.7,0.8-1.3,1.6-2.1,2.3l3.9-0.8
		c-12.3,4.7-18.2,21.3-17.7,35.8c0.7,19.5,8.1,44.6,26.7,50.6c16.8,5.4,36.2-3.9,47.3-17.6C553.3,366.9,558.2,351.4,557,338.3z"/>
	<path class="st2" d="M440,584.9c56.2-10.1,113.5-13.6,170.5-10.3c7.2,96.7,0.4,194.4-20,289.1c-59.2-0.2-131.8,31.5-145.6-41.7
		C441,801.5,430,586.7,440,584.9z"/>
	<path class="st3" d="M521.8,185.7c-2.2-18-4.4-36.1-6.6-54.1c-48.8,39-393,282.6-345.3,347.3c20.2,27.5,127.2-102.7,152.8-126.5
		C343.8,332.6,523.9,203.3,521.8,185.7z"/>
	<path class="st3" d="M820.6,466.7c12.2-16.9,8.4-41.2-3-58.6c-11.4-17.4-29-29.6-45.8-42c-57.7-42.5-110.2-92-156.2-147
		c-14.4-17.3-61.6-90.9-85.5-70.8c-29.1,24.5,53.8,85,68.3,99.4C618.4,267.4,824.8,460.9,820.6,466.7z"/>
	<path class="st4" d="M738.2,324c1-35.5,2-70.9,3.1-106.4c0.1-2.3,0.2-4.8,1.8-6.5c1.9-1.9,4.9-1.9,7.5-1.7
		c13.5,0.8,26.9,1.7,40.4,2.5c-6.5,49.2-15.4,98.1-26.6,146.5c-9.4-11-21.7-19.4-35.3-24.2c-6.1-42.8-7.9-86.2-5.4-129.4"/>
	<g>
		<path d="M221.2,483.1c11.6,100.1,28,199.7,49.1,298.3c6,28.1,12.4,56.1,19.2,84c1.2,5.1,9.1,3.2,7.9-1.9
			c-23.8-98-42.9-197-57.2-296.8c-4.1-28.4-7.8-56.9-11.1-85.4C228.5,476,220.6,477.9,221.2,483.1L221.2,483.1z"/>
	</g>
	<g>
		<path d="M150.9,451.7c12.9,12.9,23.4,27.9,31.1,44.4c1.3,2.8,5.5,2.6,7,0.2c16.8-26.7,38.5-49.7,61.4-71.1
			c20.3-19,41.3-37.2,62.2-55.4c43.1-37.5,86.6-74.6,129.8-111.9c22.3-19.2,44.5-38.4,66.5-57.9c3.9-3.5-1.7-9.4-5.6-5.9
			c-41.4,36.7-83.5,72.6-125.5,108.7c-42.3,36.4-85,72.4-126.1,110.1c-26,23.8-50.8,49.3-69.7,79.2c2.3,0.1,4.7,0.1,7,0.2
			c-8-17.2-18.9-32.8-32.3-46.1C153.1,442.5,147.2,448,150.9,451.7L150.9,451.7z"/>
	</g>
	<g>
		<path d="M146.6,454.9c43.8-43,88.7-84.9,134.7-125.5c46.2-40.8,93.5-80.4,141.9-118.7c27.1-21.5,54.6-42.6,82.4-63.3
			c4.2-3.1-1.4-9-5.6-5.9c-49.2,36.7-97.5,74.6-144.7,113.8c-47.4,39.4-93.8,80.1-139.1,121.9c-25.4,23.5-50.5,47.4-75.2,71.7
			C137.4,452.6,142.9,458.5,146.6,454.9L146.6,454.9z"/>
	</g>
	<g>
		<path d="M528.4,140.7c46.2,43.5,92.5,87,138.7,130.4c45.9,43.2,92.2,86,137.7,129.6c10.3,9.9,21.4,21.2,24.9,35.5
			c2.8,11.6,0.6,26-10,33c1.8,0.5,3.7,1.1,5.5,1.6c-10.2-21.4-28.5-37.2-45.3-53.3c-19-18.2-38.1-36.4-57.1-54.6
			c-38.5-36.8-77-73.6-115.5-110.4c-21.6-20.7-43.2-41.3-64.9-62c-3.8-3.6-9.7,2-5.9,5.6C612.8,269,688.9,341.8,765,414.5
			c19,18.2,41.7,36,53.2,60.3c0.9,1.9,3.8,2.8,5.5,1.6c9.4-6.3,14.4-16.5,15.2-27.6c0.9-12.4-3.6-24.2-10.7-34.2
			c-8.1-11.4-18.8-20.7-28.9-30.3c-12.2-11.5-24.4-23-36.6-34.5c-48.6-45.7-97.2-91.5-145.9-137.2c-27.5-25.8-55-51.7-82.4-77.5
			C530.5,131.6,524.6,137.1,528.4,140.7L528.4,140.7z"/>
	</g>
	<g>
		<path d="M516.8,131.3c2.6,18.3,2.9,36.9,1.2,55.3c-0.5,5.2,7.6,5.4,8.1,0.2c1.8-19.2,1.3-38.4-1.4-57.5
			C523.9,124.2,516,126.2,516.8,131.3L516.8,131.3z"/>
	</g>
	<g>
		<path d="M508.6,286.5c-21.7,8.1-40.6,26.1-46.8,48.8c-6.1,22.4,2.9,45.3,22.6,57.5c18.9,11.7,43.3,11,60-4.3
			c16.2-14.7,22.9-39.6,13-59.6c-10.8-21.8-38.5-33.8-61.6-25.7c-4.9,1.7-3,9.6,1.9,7.9c17.4-6.1,37.4,0.7,48.5,15.2
			c11.7,15.2,9.2,36.5-2.4,51c-12.2,15.3-32.3,19.5-49.9,11.4c-17.6-8.1-28.4-26.1-25.6-45.5c3.2-22.2,21.6-41.2,42.2-48.9
			C515.4,292.6,513.5,284.7,508.6,286.5L508.6,286.5z"/>
	</g>
	<g>
		<path d="M802,476.4c-12.9,98.8-27,197.5-42.5,295.9c-4.4,27.9-8.8,55.9-13.4,83.8c-0.8,5.1,6.9,7.5,7.8,2.4
			c16.2-99,31.2-198.2,44.9-297.6c3.9-28.1,7.6-56.2,11.3-84.3C810.8,471.5,802.7,471.3,802,476.4L802,476.4z"/>
	</g>
	<g>
		<path d="M399.2,870.5c95.2-2,190.4-4,285.6-6c13.2-0.3,26.3-0.5,39.5-0.8c6.6-0.1,13.2-0.3,19.8-0.4c3.6-0.1,7.2-0.2,10.8-0.2
			c0.8,0,2-0.1,2.9,0c1.3,0.2,2.9,1.5,3.4,0.8c-3.2,4.1,3.7,8.3,6.9,4.3c2.4-3,1.6-6.8-1.1-9.3c-3.2-3.1-7.6-3.9-11.9-3.8
			c-12.6,0.1-25.2,0.5-37.7,0.8c-25.8,0.5-51.5,1.1-77.2,1.6c-51.2,1.1-102.4,2.1-153.6,3.2c-29,0.6-58.1,1.2-87.1,1.8
			C394.2,862.5,393.9,870.6,399.2,870.5L399.2,870.5z"/>
	</g>
	<g>
		<path d="M724.5,203.1c0,35.6-0.1,71.3-0.2,106.9c0,5.2,8.1,5.5,8.1,0.2c0-35.6,0.1-71.3,0.2-106.9
			C732.6,198.1,724.5,197.8,724.5,203.1L724.5,203.1z"/>
	</g>
	<g>
		<path d="M719.8,213.8c15.4-0.8,30.9-0.5,46.3,1c6.2,0.6,14.9,0.2,15.8,8.1c0.6,5.7-1.5,11.5-2.7,17c-5.7,24.9-9.6,50.3-12,75.7
			c-1.3,13.7-2.1,27.5-1.9,41.4c0.1,5.2,8.2,5.5,8.1,0.2c-0.4-27.5,2.7-55.2,7.2-82.4c2.2-13.2,4.9-26.2,7.9-39.2
			c2.8-11.7,2.1-25-12.1-27.6c-18.2-3.4-37.9-3.1-56.3-2.2C714.8,205.9,714.5,214,719.8,213.8L719.8,213.8z"/>
	</g>
	<g>
		<path d="M432.5,576.9c-1.5,76.7-0.5,153.4,3.1,230c1,21.8,2.2,43.5,3.7,65.2c0.3,5.3,7.4,5.4,8.1,0.2c0.1-1,0.3-1.9,0.4-2.8
			c0.7-5.2-7.4-5.3-8.1-0.2c-0.1,1-0.3,1.9-0.4,2.8c2.7,0.1,5.4,0.2,8.1,0.2c-5-76.5-7.5-153.2-7.5-229.9c0-21.8,0.2-43.6,0.7-65.3
			C440.7,571.9,432.6,571.7,432.5,576.9L432.5,576.9z"/>
	</g>
	<g>
		<path d="M430,579.8c32.4-6.2,65.1-9.8,98.1-10.8c16.2-0.5,32.4-0.4,48.5,0.5c10.9,0.6,24.6,2.2,30.9,12.4c2.7,4.4,9.9,0.6,7.1-3.9
			c-6.8-11.1-19.3-14.7-31.6-16.1c-16.3-1.8-33.1-1.4-49.5-1.1c-35.4,0.7-70.7,4.5-105.5,11.2C423,573,424.9,580.8,430,579.8
			L430,579.8z"/>
	</g>
	<g>
		<path d="M612.3,573.8c3.3,73.7,1.5,147.6-5.6,221c-2,20.9-4.5,41.8-7.3,62.7c2.7,0.1,5.4,0.2,8.1,0.2c0.5-4.3,1-8.5,1.5-12.8
			c0.6-5.2-7.5-5.4-8.1-0.2c-0.5,4.3-1,8.5-1.5,12.8c-0.6,5.2,7.4,5.3,8.1,0.2c10-73.1,14.8-146.8,14.5-220.6
			c-0.1-21-0.7-42.1-1.6-63.1C620.2,568.9,612.1,568.6,612.3,573.8L612.3,573.8z"/>
	</g>
	<g>
		<path d="M491,841.5c26.9,1.8,53.8,1.8,80.7-0.1c5.2-0.4,5.4-8.5,0.2-8.1c-26.9,1.9-53.8,1.9-80.7,0.1
			C486.1,833.1,485.9,841.2,491,841.5L491,841.5z"/>
	</g>
	<g>
		<path d="M320.1,381.5c-0.2,81.1,1.3,162.1,4.4,243.1c0.9,23,1.9,46,3,69c0.3,5.2,8.4,5.5,8.1,0.2c-4-81-6.4-162-7.2-243
			c-0.2-23-0.3-46.1-0.2-69.1C328.2,376.5,320.1,376.2,320.1,381.5L320.1,381.5z"/>
	</g>
	<g>
		<path d="M342.3,748.9c4.2,25.9,8.3,51.7,12.5,77.6c0.8,5.2,8.7,3.2,7.9-1.9c-4.2-25.9-8.3-51.7-12.5-77.6
			C349.3,741.8,341.4,743.8,342.3,748.9L342.3,748.9z"/>
	</g>
	<g>
		<path d="M431.2,293.4c-3.9,53.4-4.1,107-0.7,160.4c0.3,5.2,8.4,5.4,8.1,0.2c-3.4-53.4-3.2-107,0.7-160.4
			C439.7,288.4,431.6,288.2,431.2,293.4L431.2,293.4z"/>
	</g>
	<g>
		<path d="M669.9,336.1c-0.5,75.2-1,150.4-1.5,225.7c0,5.2,8.1,5.5,8.1,0.2c0.5-75.2,1-150.4,1.5-225.7
			C678.1,331.1,670,330.9,669.9,336.1L669.9,336.1z"/>
	</g>
	<g>
		<path d="M669.5,611.4c3.8,63.8,4.8,127.9,3,191.8c-0.5,18.2-1.2,36.3-2.2,54.4c-0.3,5.2,7.8,5.4,8.1,0.2
			c3.3-63.9,3.9-127.9,1.7-191.9c-0.6-18.1-1.5-36.2-2.5-54.3C677.3,606.4,669.2,606.2,669.5,611.4L669.5,611.4z"/>
	</g>
	<g>
		<path d="M765,430.2c-2.7,62.4-8.2,124.6-16.5,186.5c-0.7,5.2,7.4,5.4,8.1,0.2c8.3-61.9,13.8-124.1,16.5-186.5
			C773.3,425.2,765.2,425,765,430.2L765,430.2z"/>
	</g>
	<g>
		<path d="M523.6,611.5c-2.5,3.5-2.6,8.1-0.8,12c1.7,3.6,5.8,7.3,10,6.2c7.9-2,6.5-15.7-1.9-15.5c-5.2,0.1-5.5,8.2-0.2,8.1
			c0.5,0,0.3,0.1,0.1,0c-0.5-0.1-0.8-0.3-0.9-0.7c-0.1-0.2-0.1-0.2,0,0c0.1-0.1,0.1,0.7,0.1,0.4c0,0.4,0,0.4,0,0.4
			c-0.5,0.2,1.7-1.1,1.7-0.7c0,0-1.2-1-1.3-1.1c-0.3-0.4-0.5-0.9-0.6-1.4c-0.4-1.3-0.1-2.3,0.7-3.4
			C533.5,611.5,526.6,607.3,523.6,611.5L523.6,611.5z"/>
	</g>
</g>
</svg>
