<svg xmlns="http://www.w3.org/2000/svg" viewBox="0 0 1000 1000"><path d="M411.9 500.7c37.7 4.8 91.3 6.2 129.2 3.8 21.9-1.4 36.5-5.9 54.5-20-11-23.4-32.9-45.5-50.7-62.8-1.9-1.9-3.9-3.7-6.3-4.6-17.9-6.9-54 2.3-69.5 15.1-9.9 8.1-19.3 18.3-28 28-3.6 4.1-27.1 40.8-29.2 40.5z" opacity=".7" fill="#63d3ff"/><path d="M421 508.8c-6.7-2.6-14.8.1-19.2 6.6 11.5 22.8 28.7 40.8 45.7 58.3 19.4 20.1 38.8 40.2 58.1 60.3 6.3 6.5 14.5 13.6 22.4 10.2 4.1-1.8 7-6 9.7-10.2 30.2-46.5 57.2-95.7 80.9-147-73.2 21.3-149 30.1-224.4 26" opacity=".7" fill="#00b8ff"/><path d="M452.5 436.1c12.6 8.9 25.2 17.8 37.9 26.7 3 2.1 6.1 4.3 9.5 5.4 4.8 1.5 9.9.9 14.9.2 18.6-2.5 37.2-5.5 55.8-9 1.9-.4 4.2-1.2 4.4-3.3.1-1.3-.7-2.5-1.4-3.5-6-8-12.7-15.2-19.9-21.7-5.8-5.2-12.1-9.9-19.1-12.9-21.5-9.4-45.5-1.9-68.5-.5" opacity=".7" fill="#dbfaff"/><path d="M390.5 519.6c29.7 31.2 59.3 62.5 89 93.7 8.5 8.9 17 17.8 25.4 26.8 3.3 3.5 8.5-1.8 5.2-5.2-29.7-31.2-59.3-62.5-89-93.7-8.5-8.9-17-17.8-25.4-26.8-3.2-3.5-8.5 1.8-5.2 5.2zm-.8-7.7c24-34 53.5-64.2 87.3-88.4 3.9-2.8.1-9.2-3.8-6.4-34.9 25-65.2 56-90 91.1-2.7 3.8 3.8 7.6 6.5 3.7z"/><path d="M387.6 515.1c24-5.6 48.9-6.5 73.2-2.5 4.7.8 6.7-6.4 2-7.2-25.7-4.2-51.8-3.4-77.1 2.5-4.8 1.2-2.8 8.3 1.9 7.2zm80.5-14.2c13.6-27.7 27.2-55.4 40.9-83.1 2.1-4.3-4.3-8-6.4-3.8-13.6 27.7-27.2 55.4-40.9 83.1-2.1 4.3 4.3 8.1 6.4 3.8zm54.6-79.3l43.2 72c2.5 4.1 8.9.4 6.4-3.8l-43.2-72c-2.4-4.1-8.9-.3-6.4 3.8zm17.2-7.4c24.5 23.3 48.9 46.6 73.3 69.9 3.5 3.3 8.7-2 5.2-5.2-24.5-23.3-48.9-46.6-73.3-69.9-3.4-3.4-8.6 1.9-5.2 5.2z"/><path d="M470.8 513.9c27.1 0 54.3 0 81.4-.1 4.8 0 4.8-7.4 0-7.4-27.1 0-54.3 0-81.4.1-4.8 0-4.8 7.4 0 7.4zm104.2-2c16.9-9 33.7-18.1 50.6-27.1 4.2-2.3.5-8.7-3.8-6.4-16.9 9-33.7 18.1-50.6 27.1-4.2 2.3-.4 8.7 3.8 6.4zm-64.6 136.5c6.6-4.5 14.6-4.2 21 .4 1.7 1.2 4.1.2 5.1-1.3 24.4-37.7 48.7-75.3 73.1-113 6.9-10.7 13.9-21.4 20.8-32.1 2.6-4-3.8-7.8-6.4-3.8-24.4 37.7-48.7 75.3-73.1 113-6.9 10.7-13.9 21.4-20.8 32.1 1.7-.4 3.4-.9 5.1-1.3-8.4-6.1-19.9-6.2-28.5-.4-4 2.7-.3 9.1 3.7 6.4z"/><path d="M564.7 508.1c-14 29.9-26.8 60.3-38.3 91.3-1.7 4.5 5.5 6.4 7.2 2 11.3-30.3 23.8-60.2 37.6-89.5 1.9-4.4-4.5-8.1-6.5-3.8zm-101.3 8.8c9 17.6 18 35.3 27 52.9 2.2 4.3 8.6.5 6.4-3.8-9-17.6-18-35.3-27-52.9-2.1-4.2-8.5-.5-6.4 3.8zm7.7-96.3c24-4.5 48.4-6.2 72.8-5 4.8.2 4.8-7.2 0-7.4-25.1-1.3-50.2.6-74.8 5.2-4.6 1-2.6 8.1 2 7.2z"/></svg>