<?xml version="1.0" encoding="utf-8"?>
<!-- Generator: Adobe Illustrator 23.0.2, SVG Export Plug-In . SVG Version: 6.00 Build 0)  -->
<svg version="1.1" id="Layer_1" xmlns="http://www.w3.org/2000/svg" xmlns:xlink="http://www.w3.org/1999/xlink" x="0px" y="0px"
	 viewBox="0 0 1000 1000" style="enable-background:new 0 0 1000 1000;" xml:space="preserve">
<style type="text/css">
	.st0{opacity:0.7;fill:#63D3FF;}
	.st1{opacity:0.7;fill:#00B8FF;}
	.st2{opacity:0.7;fill:#DBFAFF;}
</style>
<g>
	<path class="st0" d="M411.9,500.7c37.7,4.8,91.3,6.2,129.2,3.8c21.9-1.4,36.5-5.9,54.5-20c-11-23.4-32.9-45.5-50.7-62.8
		c-1.9-1.9-3.9-3.7-6.3-4.6c-17.9-6.9-54,2.3-69.5,15.1c-9.9,8.1-19.3,18.3-28,28C437.5,464.3,414,501,411.9,500.7z"/>
	<path class="st1" d="M421,508.8c-6.7-2.6-14.8,0.1-19.2,6.6c11.5,22.8,28.7,40.8,45.7,58.3c19.4,20.1,38.8,40.2,58.1,60.3
		c6.3,6.5,14.5,13.6,22.4,10.2c4.1-1.8,7-6,9.7-10.2c30.2-46.5,57.2-95.7,80.9-147c-73.2,21.3-149,30.1-224.4,26"/>
	<path class="st2" d="M452.5,436.1c12.6,8.9,25.2,17.8,37.9,26.7c3,2.1,6.1,4.3,9.5,5.4c4.8,1.5,9.9,0.9,14.9,0.2
		c18.6-2.5,37.2-5.5,55.8-9c1.9-0.4,4.2-1.2,4.4-3.3c0.1-1.3-0.7-2.5-1.4-3.5c-6-8-12.7-15.2-19.9-21.7c-5.8-5.2-12.1-9.9-19.1-12.9
		c-21.5-9.4-45.5-1.9-68.5-0.5"/>
	<g>
		<g>
			<path d="M390.5,519.6c29.7,31.2,59.3,62.5,89,93.7c8.5,8.9,17,17.8,25.4,26.8c3.3,3.5,8.5-1.8,5.2-5.2
				c-29.7-31.2-59.3-62.5-89-93.7c-8.5-8.9-17-17.8-25.4-26.8C392.5,510.9,387.2,516.2,390.5,519.6L390.5,519.6z"/>
		</g>
		<g>
			<path d="M389.7,511.9c24-34,53.5-64.2,87.3-88.4c3.9-2.8,0.1-9.2-3.8-6.4c-34.9,25-65.2,56-90,91.1
				C380.5,512,387,515.8,389.7,511.9L389.7,511.9z"/>
		</g>
		<g>
			<path d="M387.6,515.1c24-5.6,48.9-6.5,73.2-2.5c4.7,0.8,6.7-6.4,2-7.2c-25.7-4.2-51.8-3.4-77.1,2.5
				C380.9,509.1,382.9,516.2,387.6,515.1L387.6,515.1z"/>
		</g>
		<g>
			<path d="M468.1,500.9c13.6-27.7,27.2-55.4,40.9-83.1c2.1-4.3-4.3-8-6.4-3.8c-13.6,27.7-27.2,55.4-40.9,83.1
				C459.6,501.4,466,505.2,468.1,500.9L468.1,500.9z"/>
		</g>
		<g>
			<path d="M522.7,421.6c14.4,24,28.8,48,43.2,72c2.5,4.1,8.9,0.4,6.4-3.8c-14.4-24-28.8-48-43.2-72
				C526.7,413.7,520.2,417.5,522.7,421.6L522.7,421.6z"/>
		</g>
		<g>
			<path d="M539.9,414.2c24.5,23.3,48.9,46.6,73.3,69.9c3.5,3.3,8.7-2,5.2-5.2c-24.5-23.3-48.9-46.6-73.3-69.9
				C541.7,405.6,536.5,410.9,539.9,414.2L539.9,414.2z"/>
		</g>
		<g>
			<path d="M470.8,513.9c27.1,0,54.3,0,81.4-0.1c4.8,0,4.8-7.4,0-7.4c-27.1,0-54.3,0-81.4,0.1C466,506.5,466,513.9,470.8,513.9
				L470.8,513.9z"/>
		</g>
		<g>
			<path d="M575,511.9c16.9-9,33.7-18.1,50.6-27.1c4.2-2.3,0.5-8.7-3.8-6.4c-16.9,9-33.7,18.1-50.6,27.1
				C567,507.8,570.8,514.2,575,511.9L575,511.9z"/>
		</g>
		<g>
			<path d="M510.4,648.4c6.6-4.5,14.6-4.2,21,0.4c1.7,1.2,4.1,0.2,5.1-1.3c24.4-37.7,48.7-75.3,73.1-113
				c6.9-10.7,13.9-21.4,20.8-32.1c2.6-4-3.8-7.8-6.4-3.8c-24.4,37.7-48.7,75.3-73.1,113c-6.9,10.7-13.9,21.4-20.8,32.1
				c1.7-0.4,3.4-0.9,5.1-1.3c-8.4-6.1-19.9-6.2-28.5-0.4C502.7,644.7,506.4,651.1,510.4,648.4L510.4,648.4z"/>
		</g>
		<g>
			<path d="M564.7,508.1c-14,29.9-26.8,60.3-38.3,91.3c-1.7,4.5,5.5,6.4,7.2,2c11.3-30.3,23.8-60.2,37.6-89.5
				C573.1,507.5,566.7,503.8,564.7,508.1L564.7,508.1z"/>
		</g>
		<g>
			<path d="M463.4,516.9c9,17.6,18,35.3,27,52.9c2.2,4.3,8.6,0.5,6.4-3.8c-9-17.6-18-35.3-27-52.9
				C467.7,508.9,461.3,512.6,463.4,516.9L463.4,516.9z"/>
		</g>
		<g>
			<path d="M471.1,420.6c24-4.5,48.4-6.2,72.8-5c4.8,0.2,4.8-7.2,0-7.4c-25.1-1.3-50.2,0.6-74.8,5.2
				C464.5,414.4,466.5,421.5,471.1,420.6L471.1,420.6z"/>
		</g>
	</g>
</g>
</svg>
