<?xml version="1.0" encoding="utf-8"?>
<!-- Generator: Adobe Illustrator 23.0.2, SVG Export Plug-In . SVG Version: 6.00 Build 0)  -->
<svg version="1.1" id="Layer_1" xmlns="http://www.w3.org/2000/svg" xmlns:xlink="http://www.w3.org/1999/xlink" x="0px" y="0px"
	 viewBox="0 0 1000 1000" style="enable-background:new 0 0 1000 1000;" xml:space="preserve">
<style type="text/css">
	.st0{opacity:0.7;fill:#FFC400;}
	.st1{opacity:0.7;}
	.st2{fill:#FFEABF;}
</style>
<g>
	<path class="st0" d="M561.6,684.1c-1.1-8.8-3.6-19.4-12.1-21.9c-2.7-0.8-5.6-0.6-8.4-0.3c-10.3,1-20.6,2.7-30.8,5
		c6.4-50.6,16.7-146,5.9-167c21-1.9,41.7-8.7,57.4-22.5c7.1-6.3,13-14.2,17-23c3.2,1.2,6.5,1.2,9.7-0.4c9.8-21.8-0.7-48.6-18.9-64.1
		c-18.2-15.5-42.4-21.8-66-25.8c-9.6-1.6-55.5-6.7-73.6,2.8c-4.8-0.8-10.3,1.4-14.8,4c-12.9,7.6-24,18.1-32.4,30.5
		c-8.1,12-13.7,26.8-10.8,41c2.9,13.8,13.5,25,25.8,31.8c12.4,6.8,26.4,9.8,40.2,12.5c8.8,1.7,18,3.1,26.5,0.8
		c1.8,3.5,4.7,6.6,8.1,8.6c3.9,2.3,8.3,3.4,12.8,3.9c-28.5,24.5-24,141.4-24.7,156.5c-0.8,17-1.5,34.6,4.2,50.6
		c1.8,5.1,4.8,10.4,9.9,12c5.5,1.7,11.7-1.7,14.8-6.6c1.4-2.1,2.4-4.5,3-7c13.3,0.3,26.7-0.2,40-1.3c5.7-0.5,12.2-1.6,15.4-6.4
		C562.7,693.9,562.2,688.7,561.6,684.1z M494.8,464.2c-8.4,0.9-16.9,0.1-24.7-2.9c-16.6-6.4-39.5-10-44.3-16.8
		c-5.5-7.8-3.6-26.3,0.1-35.1c3.4-7.8,11.6-12.2,17.6-18.2c0.7-0.7,1.4-1.5,2-2.3c21.6,8.3,67.9,4.6,76.7,4.8
		c17.4,0.4,37.8,2.4,46.8,17.3c5,8.3,5,18.6,8,27.8c-4.7,8.3-12.7,15.3-21.5,19.2c-15.6,6.8-33.2,6.5-50.2,5.9
		C501.9,463.7,498.3,463.8,494.8,464.2z"/>
	<g>
		<path d="M476.1,357.5c-37.6-2.5-81.2,12.4-97.2,49.3c-6.7,15.6-8.2,33.8-3,50.1c6,18.7,20.3,31,38.4,37.7
			c11.6,4.3,24.1,6.4,36.2,8.6c13.7,2.5,27.4,4,41.2,1.3c5.7-1.1,3.3-9.8-2.4-8.7c-11.1,2.1-22.5,1-33.6-0.9
			c-9.9-1.7-19.9-3.5-29.5-6.1c-17-4.6-32.7-13.2-40-30.1c-6.1-14.1-5.6-30.5-0.5-44.8c5.7-16,18.3-28.4,33.1-36.4
			c17.5-9.4,37.7-12.5,57.3-11.1C481.9,366.9,481.9,357.9,476.1,357.5L476.1,357.5z"/>
	</g>
	<g>
		<path d="M463,393.5c-12,2.8-24.9,6.1-33.2,15.9c-7.1,8.4-9.4,19.9-3.6,29.7c6.2,10.5,18,15.2,29.4,17.1c14,2.3,28.4,2.9,42.5,3
			c14,0.1,28.4,0.1,42.3-1.8c10-1.4,20.5-4.6,26.9-13c6.5-8.5,6.4-19.7,1.8-29.1c-5-10.4-14.8-16.9-25.4-20.5
			c-14-4.7-29.9-5.4-44.5-5.7c-17-0.4-33.9,1-50.6,3.8c-5.7,1-3.3,9.6,2.4,8.7c23.7-4,48-4.7,71.9-1.9c9.9,1.1,20.3,3.1,28.8,8.8
			c7.4,5,13.2,14.2,11.7,23.4c-3.2,20-35.4,17.8-49.8,18.2c-11.6,0.3-23.1,0.2-34.7-0.5c-11.2-0.7-24-0.9-34.3-5.8
			c-10.5-4.9-16.6-16.1-9.5-26.5c6.8-9.9,19.5-12.5,30.3-15C471,400.9,468.6,392.2,463,393.5L463,393.5z"/>
	</g>
	<g>
		<path d="M472.3,364.7c20.3,0.1,40.6,1,60.8,3c9.8,1,20.5,1.3,30,4.1c8.8,2.6,14.9,10.3,20.8,16.8c11.1,12.1,22.2,26.6,20.1,44.1
			c-2.1,17.1-14.7,31.9-26.5,43.5c-13.7,13.5-34.2,25.4-53.6,16.7c-5.2-2.3-9.8,5.4-4.5,7.8c18.6,8.2,38.8,2.6,54.3-9.3
			c15-11.4,29.2-27.5,36-45.2c7.3-18.8,1.9-37.1-10-52.6c-5.8-7.6-12.3-14.9-19.2-21.4c-8.2-7.6-17.2-9.8-28-11.2
			c-26.6-3.4-53.4-5.1-80.3-5.2C466.5,355.7,466.5,364.7,472.3,364.7L472.3,364.7z"/>
	</g>
	<g>
		<path d="M468.7,498.3c-1.4,38.1-2.9,76.1-4.3,114.2c-0.7,19.2-1.5,38.4-2.2,57.6c-0.3,8.8-1,17.7-0.9,26.5
			c0.1,6.3,0.8,12.8,3.6,18.5c8.2,16.4,27.6,13.1,41.8,8c5.4-1.9,3.1-10.6-2.4-8.7c-11.9,4.2-28.9,8.4-33-7.9
			c-1.6-6.3-1-13.1-0.8-19.5c0.3-8.6,0.6-17.2,1-25.8c1.3-34.8,2.6-69.5,3.9-104.3c0.7-19.5,1.5-39.1,2.2-58.6
			C478,492.5,469,492.5,468.7,498.3L468.7,498.3z"/>
	</g>
	<g>
		<path d="M514.4,504.6c-0.8,71.3-4.8,142.5-11.9,213.4c3,0,6,0,9,0c0-2.1,0.1-4.2,0.1-6.3c0.1-5.8-8.9-5.8-9,0
			c0,2.1-0.1,4.2-0.1,6.3c-0.1,5.9,8.4,5.7,9,0c7.2-70.9,11.1-142.1,11.9-213.4C523.4,498.8,514.4,498.8,514.4,504.6L514.4,504.6z"
			/>
	</g>
	<g>
		<path d="M518.2,661c6.9-1.9,13.9-3.2,21-3.7c5-0.4,11.3-1,15.8,2c5.2,3.4,5.2,12.6,6.2,18.1c1.1,6,2.6,12.2,3,18.3
			c0.3,4.4,0.3,10-2.8,13.5c-4.1,4.7-11.5,3.1-16.9,2.4c-14.1-1.8-28.1-0.6-41.7,3.6c-5.5,1.7-3.2,10.4,2.4,8.7
			c8.9-2.8,18-4.3,27.4-4.2c8,0.1,16.4,2.6,24.4,1.3c13.9-2.2,17.2-16,15.9-28.1c-0.9-8-2.7-15.9-4.1-23.8
			c-1.2-6.7-2.7-13.3-8.7-17.3c-5.3-3.5-12-4-18.2-3.7c-8.8,0.4-17.6,1.9-26.1,4.2C510.2,653.8,512.6,662.5,518.2,661L518.2,661z"/>
	</g>
	<g class="st1">
		<path class="st2" d="M485.1,564.1c-2.6,31.7-3.5,63.4-2.7,95.2c0.1,5.8,9.1,5.8,9,0c-0.8-31.8,0.1-63.5,2.7-95.2
			C494.6,558.4,485.6,558.4,485.1,564.1L485.1,564.1z"/>
	</g>
	<g class="st1">
		<path class="st2" d="M411.8,398.8c-13.9,8.4-20.5,26.5-14.3,41.7c2.1,5.3,10.9,3,8.7-2.4c-4.7-11.5-0.6-25.1,10.2-31.5
			C421.3,403.6,416.8,395.8,411.8,398.8L411.8,398.8z"/>
	</g>
</g>
</svg>
