<svg version="1.1" id="Layer_1" xmlns="http://www.w3.org/2000/svg" x="0" y="0" viewBox="0 0 1000 1000" xml:space="preserve"><style>.st1{opacity:.7}.st2{fill:#ffeabf}</style><path d="M561.6 684.1c-1.1-8.8-3.6-19.4-12.1-21.9-2.7-.8-5.6-.6-8.4-.3-10.3 1-20.6 2.7-30.8 5 6.4-50.6 16.7-146 5.9-167 21-1.9 41.7-8.7 57.4-22.5 7.1-6.3 13-14.2 17-23 3.2 1.2 6.5 1.2 9.7-.4 9.8-21.8-.7-48.6-18.9-64.1-18.2-15.5-42.4-21.8-66-25.8-9.6-1.6-55.5-6.7-73.6 2.8-4.8-.8-10.3 1.4-14.8 4-12.9 7.6-24 18.1-32.4 30.5-8.1 12-13.7 26.8-10.8 41 2.9 13.8 13.5 25 25.8 31.8 12.4 6.8 26.4 9.8 40.2 12.5 8.8 1.7 18 3.1 26.5.8 1.8 3.5 4.7 6.6 8.1 8.6 3.9 2.3 8.3 3.4 12.8 3.9-28.5 24.5-24 141.4-24.7 156.5-.8 17-1.5 34.6 4.2 50.6 1.8 5.1 4.8 10.4 9.9 12 5.5 1.7 11.7-1.7 14.8-6.6 1.4-2.1 2.4-4.5 3-7 13.3.3 26.7-.2 40-1.3 5.7-.5 12.2-1.6 15.4-6.4 2.9-3.9 2.4-9.1 1.8-13.7zm-66.8-219.9c-8.4.9-16.9.1-24.7-2.9-16.6-6.4-39.5-10-44.3-16.8-5.5-7.8-3.6-26.3.1-35.1 3.4-7.8 11.6-12.2 17.6-18.2.7-.7 1.4-1.5 2-2.3 21.6 8.3 67.9 4.6 76.7 4.8 17.4.4 37.8 2.4 46.8 17.3 5 8.3 5 18.6 8 27.8-4.7 8.3-12.7 15.3-21.5 19.2-15.6 6.8-33.2 6.5-50.2 5.9-3.4-.2-7-.1-10.5.3z" opacity=".7" fill="#ffc400"/><path d="M476.1 357.5c-37.6-2.5-81.2 12.4-97.2 49.3-6.7 15.6-8.2 33.8-3 50.1 6 18.7 20.3 31 38.4 37.7 11.6 4.3 24.1 6.4 36.2 8.6 13.7 2.5 27.4 4 41.2 1.3 5.7-1.1 3.3-9.8-2.4-8.7-11.1 2.1-22.5 1-33.6-.9-9.9-1.7-19.9-3.5-29.5-6.1-17-4.6-32.7-13.2-40-30.1-6.1-14.1-5.6-30.5-.5-44.8 5.7-16 18.3-28.4 33.1-36.4 17.5-9.4 37.7-12.5 57.3-11.1 5.8.5 5.8-8.5 0-8.9z"/><path d="M463 393.5c-12 2.8-24.9 6.1-33.2 15.9-7.1 8.4-9.4 19.9-3.6 29.7 6.2 10.5 18 15.2 29.4 17.1 14 2.3 28.4 2.9 42.5 3 14 .1 28.4.1 42.3-1.8 10-1.4 20.5-4.6 26.9-13 6.5-8.5 6.4-19.7 1.8-29.1-5-10.4-14.8-16.9-25.4-20.5-14-4.7-29.9-5.4-44.5-5.7-17-.4-33.9 1-50.6 3.8-5.7 1-3.3 9.6 2.4 8.7 23.7-4 48-4.7 71.9-1.9 9.9 1.1 20.3 3.1 28.8 8.8 7.4 5 13.2 14.2 11.7 23.4-3.2 20-35.4 17.8-49.8 18.2-11.6.3-23.1.2-34.7-.5-11.2-.7-24-.9-34.3-5.8-10.5-4.9-16.6-16.1-9.5-26.5 6.8-9.9 19.5-12.5 30.3-15 5.6-1.4 3.2-10.1-2.4-8.8z"/><path d="M472.3 364.7c20.3.1 40.6 1 60.8 3 9.8 1 20.5 1.3 30 4.1 8.8 2.6 14.9 10.3 20.8 16.8 11.1 12.1 22.2 26.6 20.1 44.1-2.1 17.1-14.7 31.9-26.5 43.5-13.7 13.5-34.2 25.4-53.6 16.7-5.2-2.3-9.8 5.4-4.5 7.8 18.6 8.2 38.8 2.6 54.3-9.3 15-11.4 29.2-27.5 36-45.2 7.3-18.8 1.9-37.1-10-52.6-5.8-7.6-12.3-14.9-19.2-21.4-8.2-7.6-17.2-9.8-28-11.2-26.6-3.4-53.4-5.1-80.3-5.2-5.7-.1-5.7 8.9.1 8.9zm-3.6 133.6c-1.4 38.1-2.9 76.1-4.3 114.2-.7 19.2-1.5 38.4-2.2 57.6-.3 8.8-1 17.7-.9 26.5.1 6.3.8 12.8 3.6 18.5 8.2 16.4 27.6 13.1 41.8 8 5.4-1.9 3.1-10.6-2.4-8.7-11.9 4.2-28.9 8.4-33-7.9-1.6-6.3-1-13.1-.8-19.5.3-8.6.6-17.2 1-25.8 1.3-34.8 2.6-69.5 3.9-104.3.7-19.5 1.5-39.1 2.2-58.6.4-5.8-8.6-5.8-8.9 0z"/><path d="M514.4 504.6c-.8 71.3-4.8 142.5-11.9 213.4h9c0-2.1.1-4.2.1-6.3.1-5.8-8.9-5.8-9 0 0 2.1-.1 4.2-.1 6.3-.1 5.9 8.4 5.7 9 0 7.2-70.9 11.1-142.1 11.9-213.4 0-5.8-9-5.8-9 0z"/><path d="M518.2 661c6.9-1.9 13.9-3.2 21-3.7 5-.4 11.3-1 15.8 2 5.2 3.4 5.2 12.6 6.2 18.1 1.1 6 2.6 12.2 3 18.3.3 4.4.3 10-2.8 13.5-4.1 4.7-11.5 3.1-16.9 2.4-14.1-1.8-28.1-.6-41.7 3.6-5.5 1.7-3.2 10.4 2.4 8.7 8.9-2.8 18-4.3 27.4-4.2 8 .1 16.4 2.6 24.4 1.3 13.9-2.2 17.2-16 15.9-28.1-.9-8-2.7-15.9-4.1-23.8-1.2-6.7-2.7-13.3-8.7-17.3-5.3-3.5-12-4-18.2-3.7-8.8.4-17.6 1.9-26.1 4.2-5.6 1.5-3.2 10.2 2.4 8.7z"/><g class="st1"><path class="st2" d="M485.1 564.1c-2.6 31.7-3.5 63.4-2.7 95.2.1 5.8 9.1 5.8 9 0-.8-31.8.1-63.5 2.7-95.2.5-5.7-8.5-5.7-9 0z"/></g><g class="st1"><path class="st2" d="M411.8 398.8c-13.9 8.4-20.5 26.5-14.3 41.7 2.1 5.3 10.9 3 8.7-2.4-4.7-11.5-.6-25.1 10.2-31.5 4.9-3 .4-10.8-4.6-7.8z"/></g></svg>