<?xml version="1.0" encoding="utf-8"?>
<!-- Generator: Adobe Illustrator 23.0.2, SVG Export Plug-In . SVG Version: 6.00 Build 0)  -->
<svg version="1.1" id="Layer_1" xmlns="http://www.w3.org/2000/svg" xmlns:xlink="http://www.w3.org/1999/xlink" x="0px" y="0px"
	 viewBox="0 0 1000 1000" style="enable-background:new 0 0 1000 1000;" xml:space="preserve">
<style type="text/css">
	.st0{opacity:0.7;fill:#FFC161;}
	.st1{fill:#181A1A;}
	.st2{fill:#FFFFFF;}
	.st3{opacity:0.7;fill:#AFED6D;}
	.st4{fill:#FFC161;}
	.st5{opacity:0.7;fill:#FFFCF7;}
	.st6{opacity:0.7;fill:#FFACA1;}
	.st7{opacity:0.7;fill:#FFD4CF;}
	.st8{opacity:0.7;fill:#CC8314;}
</style>
<g>
	<path class="st0" d="M465.5,477.3c2.9-11.7,7.8-23,14.3-33.1c2.2-3.4,4.9-6.9,8.9-7.5c7.9-1.3,12.1,8.8,13.5,16.6
		c4.6,25.2,10.3,50.1,17.1,74.8c1.7,6.3,4,13.2,9.6,16.5c4.6,2.7,10.8,2.5,14.8,6.1c4.6,4.3,3.8,11.6,4.9,17.8
		c2.5,14.5,17.2,24.6,31.9,25.5s28.8-5.8,40.5-14.6c18.3-13.8,32.8-38.7,22.1-58.9c-2.7-5.1-7-9.8-7.6-15.5
		c-0.5-4.4,1.2-8.7,0.8-13.1c-1.4-13.7-19.7-16.5-31.2-24c-13.2-8.7-18.1-26.5-15.9-42.2s10.2-29.9,18-43.7
		c3.5-6.1,7.1-12.4,12.8-16.6s14-5.5,19.7-1.3c2.4-7.7,4.8-15.9,3-23.8s-9.7-15-17.5-13c-3.4,0.9-6.2,3.2-8.8,5.5
		c-23.1,20.1-44.5,42.1-64,65.8c-2.7,3.3-6.3,6.9-10.4,6c-5.4-1.2-6.5-8.9-11.3-11.5c-9.2-4.9-19.1,12.5-28.6,8.1
		c-2.5-1.2-4.1-3.6-6-5.6c-6.5-6.8-17.2-8.1-26.1-5.4c-9,2.7-16.6,8.6-23.5,14.9"/>
	<path class="st0" d="M471.3,500.4c2.3,13.6,5.9,29.1-2.4,40.2c-6.3,8.5-18.5,12.7-21.6,22.8c-3.5,11,5.8,22.2,5,33.6
		c-0.3,5-2.6,9.8-5.4,14c-10.7,16-30,25.8-49.3,25s-37.6-12.4-46.9-29.3c-4.3-7.8-6.7-16.8-12.7-23.5c-3.2-3.6-7.4-6.5-9.2-11
		c-2.9-7.2,1.7-15,3.6-22.5s-2-18.4-9.6-16.9c-2.8-5.9,0.4-13,4.5-18.2c4-5.2,9.1-10,10.5-16.5s-3.5-14.6-10-13.2
		c18.4-22.7,37.9-49.4,33.2-78.2c-3.7-22.8-21.7-40.5-29-62.4c17.1-2.5,32.7,9.5,45.1,21.5c11.9,11.4,24.5,24.3,41.7,26.7
		c14.1,2,27.9-5.5,38.6,7.1C476.2,421.7,466.7,473.5,471.3,500.4z"/>
	<path class="st1" d="M433.8,478.2c-6.4,2.9-10.3,9.9-11,16.9c-0.6,7-1.9,15,1,21.4c1.2,2.6,6,4.2,8.5,5.5c3.8,2,8.6,0.1,12-2.6
		c9.5-7.6,14.1-26.2,7.5-36.5c-6.6-10.3-24.5-8.4-31.8,1.4"/>
	<path class="st1" d="M541.7,476.8c-4.6,8.2-8.5,17.7-7.5,27.3c1,9.6,8.5,18.9,17.2,17.9c2.8-0.3,5.4-1.6,7.7-3.5
		c9.5-7.6,10.7-28.9,2.9-38.6c-7.8-9.7-22.9-5.6-30.8,4"/>
	<g>
		<path class="st2" d="M432.8,490.1c-0.3,0.5,0.4-0.4,0.6-0.5c-0.5,0.3,0.8-0.2,0,0c-0.3,0.1,0.9,0,0.1-0.1c-0.3,0,0.8,0.2,0.1,0
			c-0.2-0.1-0.1,0,0.3,0.2c-0.1-0.1-0.2-0.1-0.4-0.2c-0.5-0.4,0.5,0.5,0.1,0c0.1,0.1,0.2,0.2,0.3,0.4c-0.2-0.3-0.1-0.2,0.1,0.3
			c-0.2-0.5,0,0.6,0,0.8c0.2-0.7-0.4,0.7,0,0.1c-0.5,0.9,0.2-0.1-0.5,0.6c0.1-0.1,0.9-0.5-0.1,0c0.8-0.4-0.1,0.1-0.1,0
			c0,0,0.6-0.1,0.6,0c-0.6-0.1-0.7-0.1-0.3,0c0.1,0,0.1,0,0.2,0.1c-0.5-0.2-0.6-0.3-0.3-0.1c-0.4-0.3-0.5-0.4-0.3-0.2
			c0.2,0.2,0.1,0.1-0.2-0.3c0.2,0.3,0.1,0.2-0.1-0.3c0.5,1.7,2.4,3,4.2,2.4c1.7-0.5,3-2.4,2.4-4.2c-0.9-2.7-3.4-4.3-6.2-4.2
			c-2.7,0.1-5.4,1.8-5.9,4.6c-1.2,6.4,8.2,9.8,11.5,4.2c0.9-1.5,0.4-3.8-1.2-4.7C435.9,488,433.8,488.4,432.8,490.1L432.8,490.1z"/>
	</g>
	<g>
		<path class="st2" d="M540.5,483.9c-2.8,5.4-3.6,11.3-2.2,17.2c0.6,2.6,5.1,3.6,6.3,0.8c2.1-4.9,2.7-9.7,2-15
			c-0.6-4.4-7.2-2.5-6.6,1.8c0.5,3.3,0,6.7-1.3,9.7c2.1,0.3,4.2,0.5,6.3,0.8c-1-4.1-0.5-8.2,1.5-11.9
			C548.4,483.5,542.5,480,540.5,483.9L540.5,483.9z"/>
	</g>
	<path class="st3" d="M423.9,543.8c13.6,5.9,30.8-0.7,38.6-13.3c7.8-12.6,6.6-29.7-1.4-42.1c-0.9,9.4-4.1,18.6-9.5,26.4
		c-3.5,5.1-8,9.7-13.8,11.9s-12.8,1.7-17.3-2.5c-7.5-7-4.5-28.1-3.4-36.9C394.3,492.9,408.5,537.2,423.9,543.8z"/>
	<path class="st3" d="M542.7,537.1c8.2,4.2,17.9,6.4,25.6,1c6.2-4.4,9.9-12.1,13.4-19.6c1.8-3.9,3.7-8,4.1-12.4
		c1-11.6-8.2-21.2-17.8-24.8c-2.4,12.8-1.1,28.1-9.6,36.7c-11.2,11.3-26.8-10-33.4-22.2C526.8,507.5,526,528.7,542.7,537.1z"/>
	<path class="st0" d="M395.7,725.5c0.8,10.3,10.9,17.4,14.6,27.1c0.7,1.9,1.2,3.9,2.3,5.5c2.3,3.2,6.6,4.2,10.5,4.9
		c5.9,1.1,11.8,2.1,17.7,3.2c16.4,3,34.5,7,44.3,20.5c8.5,11.7,8.3,27.4,6.4,41.8c-1.1,8.8-3.3,18.3-10.5,23.6
		c-5,3.7-11.5,4.5-17.6,5.1c-9.5,1-18.9,2.1-28.4,3.1c-14.4,1.6-30.2,2.8-42-5.5c-0.2-5.4,2.2-10.9,6.4-14.4
		c-5.4,4.1-10,9.2-13.5,15c-6,5.3-17.1,2.9-19.9-4.6s4.6-16.8,12.4-15.4c-17.6-21.7-24-51.9-16.9-78.9c-5.8-1-6.9-9.6-3.4-14.2
		c3.5-4.7,9.5-6.6,14.7-9.2c5.3-2.6,10.6-6.9,10.7-12.7c0-3.2-1.5-6.1-2.9-9c-6.4-13.4-11.3-32.3-7.1-46.8
		c10.4,1.8,12.6,16.1,17.2,24.3c3.6,6.5,7.7,7.4,8.8,15.2C400.7,711,395.2,718.2,395.7,725.5z"/>
	<path class="st4" d="M421.8,645.4c-1.5,1.5-3,2.9-4.5,4.4"/>
	<path class="st0" d="M546.8,758.2c-6.6,3.4-15.1,4.3-19.3,10.5c-2.3,3.3-2.8,7.6-5.3,10.7c-6.7,8.4-21.9,3.1-29.5,10.7
		c-7.4,7.3-2,19.9-4.5,30c-2.2,8.8-10.7,16.7-7.9,25.3c2.6,7.8,12.5,9.6,20.7,10.2c13,0.9,25.9,1.8,38.9,2.7
		c20.2,1.4,40.6,2.8,60.5-0.8c11.9-2.1,23.9-6,35.7-3.7c10.6,2.1,21.8,9,31.2,3.7c6.8-3.8,9.6-12.9,16.8-16
		c5.3-2.3,11.4-0.6,17.1,0.3c21.8,3.2,43.2-7.2,61.9-19c9.4-6,19.3-13.5,21.5-24.4c2.2-11-9.3-23.9-19.2-18.8
		c0.3-3.8-0.6-7.6-2.6-10.8c-5.7,4-10.5,9.2-14.2,15.1c3.2-6.3-2.9-15.1-9.9-14.3c1.9,16.6-10.9,32-26.2,38.7s-32.6,6.5-49.3,6.3
		c10.3-15.2-2.6-34.7-10.3-51.4c-6.1-13.2-8.8-28-7.8-42.6c-10.6-7.2-23.5-7.6-35.4-4.2c-2.7-4.7-14.9-4.7-20.5-4.1
		c-9.8,1-10.8,0.6-17.4,10.3C563.7,734.7,560.8,750.8,546.8,758.2z"/>
	<path class="st5" d="M474.9,532.3c-7,15.7-29.2,23-30.8,40.2c-0.5,5.2,1.2,10.4,1.2,15.6c-0.1,14.5-12.9,25.6-25.6,32.7
		c-12.7,7.1-27.1,13-35,25.2c-9.9,15.4-6.2,35.6-2.1,53.5c4.3,18.7,9.7,39.1,25.4,50.2c12.8,9,29.5,9.6,43.8,15.8
		c24.6,10.6,41,37,67,43.2c5.4-15.9,14.8-30.4,27.1-41.8c15-14,34.9-24.4,42.6-43.3c2.6-6.3,3.8-13.6,8.7-18.4
		c3.3-3.2,7.8-4.9,11.6-7.4c14.5-9.5,16.8-33.1,4.3-45.2c-3.2-3.1-7.2-5.6-9.6-9.4c-9-14.1,9.6-30.5,10.5-47.2
		c-13.3-10.1-35.3,7.1-48.3-3.5c-10.2-8.4-5.6-27.8-16.8-34.7c-4.1-2.5-9.1-2.5-13.6-4.1c-10.5-3.8-16.2-15.6-17-26.8
		c-0.8-11.2,1.9-22.2,2.7-33.4c1.3-18.7-12.5-64.2-39.3-45C456.3,466.7,485.3,508.8,474.9,532.3z"/>
	<path class="st5" d="M411.9,858.3c16.2,4.2,33.2,8.4,49.6,5.1c7.6-1.5,15.1-4.9,19.9-11c-4.4-6.3-12.8-8.3-20.4-9.9
		c-12.9-2.6-38.2-12.2-51.2-8.2C395.6,838.7,397.4,854.6,411.9,858.3z"/>
	<path class="st5" d="M619.7,828.8c14.5,19-2.7,20.6-20.8,23.4c-16.6,2.6-27.9,6-23.3-13.1c2-8.5,13.4-36.2,20.8-40.7
		C616.7,785.7,612.9,819.9,619.7,828.8z"/>
	<path class="st5" d="M741,776.5c-10.5,10.5-8.2,30.8,4.5,38.6s31.8,1,36.7-13c1.2-3.3,1.6-7,0.8-10.4c-2.5-11-15.3-15.8-26.4-17.5
		c-6-0.9-13.7-3.2-13.8-9.2"/>
	<path class="st6" d="M490.1,562.7c-2.6-0.7-5.2-1.5-7.9-1c-2.6,0.5-5.2,2.5-5.3,5.2c-0.1,2.8,2.5,5.1,5.2,5.6s5.5-0.3,8.2-1.2
		c2.9-0.9,5.9-2.1,7.7-4.6s1.1-6.7-1.7-7.6"/>
	<path class="st6" d="M479.8,575.4c-2.8,2.2-5.7,4.5-7,7.8s-0.6,7.7,2.5,9.3c1.4,0.7,3.1,0.8,4.7,0.8c5.7,0.1,11.3,0.2,17,0.3
		c1.8,0,3.7,0,5.4-0.6c5.2-2.1,5.9-9.9,2.5-14.5c-3.3-4.6-9-6.6-14.4-8.5"/>
	<path class="st7" d="M323.9,440.7c0.8,4.2-1.4,8.4-2.3,12.5c-0.9,4.2,0.6,9.8,4.9,10.4c3.9-8,8.1-16.2,15.2-21.6
		c2.4-1.8,5.2-3.3,7.2-5.6c8.3-9.4-9-63.2-18.2-63.4c-8.9-0.1-7.8,16.7-8.3,21.1c-1.8,14.2-6.1,25-10.9,39
		C316.6,432.6,322.8,434.9,323.9,440.7z"/>
	<path class="st7" d="M637.8,374.5c-7.8,5.8-15.1,12.1-21.9,19.1c-5.9,6-11.7,12.9-13,21.3c-1.4,8.4,3.4,18.2,11.8,19.6
		c2,0.3,4.2,0.2,5.8,1.5c1.3,1,1.8,2.7,2.3,4.3c1.5,5.1,3,10.3,4.5,15.4c1,3.6,3.1,8,6.8,7.9c1.3,0,2.5-0.6,3.6-1.3
		c12.2-7.7,14.3-24.3,14.8-38.7c0.7-21.5,0.5-43.2-4.7-64.1c-1.4-5.8-5.5-12.8-11.2-11.2"/>
	<path class="st8" d="M464.5,391c-2.8,12.5-0.2,26.1,6.9,36.7c1.8-6.5,3.6-12.9,5.4-19.4c1.3-4.6,2.6-9.4,1.4-14.1
		s-5.8-8.7-10.4-7.6c-0.4,1.4-0.8,2.8-1.2,4.1"/>
	<path class="st8" d="M507.3,389.5c-0.8,9.9-1.4,20.6,4,28.9c1.5,2.2,4,4.4,6.6,3.7c1.9-0.6,3-2.6,3.8-4.5
		c3.8-9.4,4.3-20.1,1.5-29.9"/>
	<path class="st8" d="M347.9,527.8c2.1,3.7,7.1,4.3,11.3,3.6c4.2-0.7,8.4-2.3,12.5-1.3c6,1.4,9.5,7.7,11.5,13.6
		c-5.6,6.3-16.2,3.3-23.8,7c-4.4,2.2-7.4,6.5-11,9.8s-8.9,6.1-13.4,4c-0.2-0.1-10.2-36.5-9.7-37.7
		C331.5,512.3,343.6,520.2,347.9,527.8z"/>
	<path class="st8" d="M630,528c1.4-4-0.3-8.9-3.8-11.2c-5,10.9-16.3,18.7-28.3,19.3c-0.7,4.4-0.9,10,3,12.1
		c5.9,3.2,12.6-5.6,19.1-3.9c6,1.5,7.3,10.6,13.2,12.4c6.5-10.2,9.1-22.8,7-34.8"/>
	<path class="st8" d="M411.4,795c4.2,2.6,8.3,5.3,12.5,7.9c1.4,0.9,2.8,1.8,4.4,1.9c1.7,0.1,3.3-0.6,4.9-1
		c8.1-2.2,17.6,3.2,19.7,11.4c-13.5,1.6-27,3.2-40.4,4.7"/>
	<path class="st8" d="M401.9,780.5c4.6-3.9,12.1-3.5,16.3,0.8c-3.1,3.7-7.2,6.5-11.7,8.2"/>
	<path class="st8" d="M606.1,762.1c-6.7,0.6-13.2,3.5-18,8.1c-3,2.8-4.7,8.8-0.9,10.2c2.6,1,5.1-1.3,7.3-3c5.3-4,12.8-4.9,19-2.3"/>
	<path class="st8" d="M607.5,787.2c-7.5,1.2-14.3,5.8-18.3,12.2c8.7-2.7,17.3-5.9,25.6-9.6"/>
	<path class="st8" d="M654.4,756.9c-9,2.9-15.8,11.3-16.8,20.7c-0.1,1.2-0.1,2.5,0.5,3.4c1.7,2.5,5.6,0.7,7.8-1.3s5.2-4.6,7.8-3
		c2.6,1.7,1.6,6,3.5,8.4c1.7,2.1,5.1,2.1,7.3,0.7s3.7-3.9,5-6.2"/>
	<path class="st8" d="M646.2,727.1c-6.9,0.3-13.2,5.7-14.6,12.5c-0.2,1-0.3,2.1,0.1,3c1,2.3,4.1,2.5,6.6,2c6.8-1.4,12.9-5.4,16.9-11
		"/>
	<path class="st8" d="M705.2,809.6c1.2,4.7,3.5,9,6.9,12.4c1.2,1.2,2.6,2.4,4.2,2.7c4.7,0.9,8-5,7.6-9.8c-0.4-4.8-2.7-9.5-1.8-14.2"
		/>
	<path class="st8" d="M351.5,762.5c10-0.1,19.9,2.9,28.2,8.4c1.8,1.2,3.6,2.8,3.5,5c-0.1,2-1.9,3.4-3.5,4.6
		c-6.3,4.5-12.7,9.1-19,13.7"/>
	<g>
		<path d="M316.9,494.5c0.1,0.1,0.1,0.3,0.2,0.4c-0.1-0.9-0.2-1.8-0.3-2.6c0.1-0.2,0.2-0.4,0.3-0.7c0.8-0.3,1.6-0.7,2.4-1
			c1.3,1.1,1.6,1.1,1-0.1c-0.1-0.3-0.2-0.6-0.4-1c-0.4-1.1-0.8-2.3-1.2-3.4c-0.6-2-1.2-4-1.7-6c-1-4.2-1.8-8.5-2.1-12.9
			c-0.8-8.7-0.3-17.4,1.5-25.9c0.9-4.3-5.7-6.2-6.6-1.8c-2.5,12.4-2.7,25-0.4,37.4c1.1,5.8,2.4,12.4,5.1,17.6
			c1.2,2.2,3.5,3.8,6.1,2.7s3.2-3.8,2-6.1C320.8,487.2,314.8,490.6,316.9,494.5L316.9,494.5z"/>
	</g>
	<g>
		<path d="M315.7,439.9c-2.4-0.2-4.8-0.8-7-2c-1.9-1-4.7-2.6-5.8-4.5c-0.6-1.1-0.2-0.9,1-1.6c1.1-0.6,2.2-1.2,3.4-1.7
			c2.7-1,5.4-1.4,8.2-1.3c4.2,0.1,4.3-5.3,0.9-6.7c-4.4-1.8-7.4-7.1-6.6-11.8c0.9-5.1,5.3-8.6,10.2-9.3c4.4-0.6,2.5-7.2-1.8-6.6
			c-7.9,1.1-14.4,7.8-15.2,15.7c-0.9,8.2,4.3,15.5,11.7,18.6c0.3-2.2,0.6-4.5,0.9-6.7c-4.7-0.1-9.3,0.9-13.5,3
			c-3.4,1.7-7.6,4.5-6.6,9c0.8,3.8,4.8,6.9,7.8,8.9c3.7,2.4,7.9,3.6,12.3,4C320.1,447.1,320.1,440.3,315.7,439.9L315.7,439.9z"/>
	</g>
	<g>
		<path d="M316.4,403.6c0.5-12.4,1-24.8,1.6-37.1c0.2-6,0.5-12,0.8-18c0.1-3.2,0.3-6.4,0.4-9.6c0.1-1.5,0.1-3,0.2-4.5
			c0-0.8,0.1-1.5,0.1-2.2c0-0.4,0-0.8,0-1.1c0.2-1.2-0.6-1.3-2.4-0.2c-0.8-0.8-1.6-1.6-2.4-2.4c0,0.1,0.1,0.2,0.1,0.4
			c1.5,4.1,8.1,2.3,6.6-1.8c-1-2.6-3.5-3.8-6-2.3c-2.9,1.8-2.7,5-2.8,8c-0.3,7.9-0.7,15.8-1,23.6c-0.7,15.8-1.3,31.5-2,47.3
			C309.3,408,316.2,408,316.4,403.6L316.4,403.6z"/>
	</g>
	<g>
		<path d="M313.9,333.2c6.4,2.2,9.8,9.2,13,14.7c4.1,6.9,8,13.9,11.7,21c7.5,14.2,14.3,28.8,20.4,43.7c1.6,4,8.3,2.3,6.6-1.8
			c-6.6-16.1-14-31.9-22.1-47.2c-4-7.5-8.2-15-12.6-22.3c-3.8-6.2-8.1-12.2-15.2-14.6C311.6,325.2,309.8,331.8,313.9,333.2
			L313.9,333.2z"/>
	</g>
	<g>
		<path d="M315.2,337c30.9,8.8,60.1,23.7,85.2,43.6c7.2,5.7,14.1,11.9,20.6,18.4c3.1,3.1,8-1.7,4.9-4.8
			c-23.5-23.4-51.6-42-82.3-54.6c-8.7-3.6-17.5-6.6-26.5-9.2C312.8,329.2,311,335.8,315.2,337L315.2,337z"/>
	</g>
	<g>
		<path d="M405.8,407c18.1-10.2,39-20.3,60.1-13.6c4.2,1.3,6-5.3,1.8-6.6c-22.9-7.3-45.7,3.2-65.4,14.3
			C398.5,403.2,401.9,409.2,405.8,407L405.8,407z"/>
	</g>
	<g>
		<path d="M463.2,397c2.3-5.6,5.9-10.7,10.4-14.7c0.4-0.4,1-0.7,1.4-1.2c0.8-0.3,0.9-0.5,0.2-0.7c-0.5-0.3-0.6-0.3-0.2,0.2
			c0.1,1.2,1.5,2.9,1.9,4c1.2,3.2,1.9,6.6,2,10.1c0.1,3.5,4.5,4.5,6.4,1.7c2.5-3.6,5.5-7.1,9.1-9.6c1.3-0.9,2.4-2,2.8-0.1
			c0.3,1.4-0.2,3-0.5,4.4c-0.8,2.9,2.4,5.4,5,3.9c4.4-2.5,9.1-5.4,14.3-5.5c3.6-0.1,8,1.4,9.3,5c1.5,4.1,8.2,2.3,6.6-1.8
			c-2.2-5.9-7.5-9.3-13.7-10c-7.2-0.8-14,2.9-20.1,6.3c1.7,1.3,3.4,2.6,5,3.9c1.5-5.2,1.2-13.8-6.1-14.1c-3.9-0.2-7.1,2.5-9.9,5
			c-3,2.7-5.6,5.8-7.9,9.1c2.1,0.6,4.2,1.2,6.4,1.7c-0.2-5.7-3.1-24.6-12.5-20.6c-3.9,1.6-7.3,5.8-9.8,9c-2.9,3.7-5.2,7.7-6.9,12.1
			C454.9,399.3,461.5,401.1,463.2,397L463.2,397z"/>
	</g>
	<g>
		<path d="M525.6,396.7c6-0.1,11.8,1.1,17.2,3.8c3.9,2,7.4-3.9,3.5-5.9c-6.5-3.2-13.4-4.9-20.7-4.7
			C521.2,389.9,521.2,396.8,525.6,396.7L525.6,396.7z"/>
	</g>
	<g>
		<path d="M549.4,403.3c9.8-17.2,22.2-32.7,36.8-46c7.2-6.6,14.8-12.6,22.9-18c9.2-6.1,19.1-11.3,28.8-16.6c3.9-2.1,0.4-8-3.5-5.9
			c-14.9,8.1-29.5,16.2-42.8,26.8c-12.4,9.8-23.4,21.2-33.1,33.7c-5.5,7.2-10.6,14.7-15.1,22.6C541.3,403.6,547.2,407.1,549.4,403.3
			L549.4,403.3z"/>
	</g>
	<g>
		<path d="M632.5,322.3c4.1-0.6,7.1,9.6,8.2,12.2c2.4,5.7,4.5,11.5,6.5,17.3c4,11.8,7,24,8.9,36.3c3.5,23.3,2.1,47.3-5.5,69.7
			c-4.1,12.2-10.1,23.6-17.9,33.8c-2.7,3.5,3.3,6.9,5.9,3.5c32.4-42.6,31.1-100.1,14-148.6c-2.5-7.2-5.3-14.5-8.6-21.4
			c-2.5-5.5-6.8-10.4-13.3-9.4C626.4,316.4,628.2,323,632.5,322.3L632.5,322.3z"/>
	</g>
	<g>
		<path d="M625.2,359.9c-18.6,25.4-32.7,54-41.5,84.3c-1.2,4.2,5.4,6.1,6.6,1.8c8.7-29.7,22.5-57.7,40.8-82.7
			C633.7,359.9,627.8,356.4,625.2,359.9L625.2,359.9z"/>
	</g>
	<g>
		<path d="M589.8,451.9c4.9-2.2,10.3-3.1,15.7-2.9c1.3,0.1,2.7,0.2,4,0.4c0.5,0.1,1.1,0.2,1.6,0.3c-0.2-2-0.6-2.4-1.3-1.2
			c-1,0.4-2.4,2.4-3.2,3.1c-1.1,1-2.1,2.1-3.2,3.1c-2.2,2.2-0.5,5.7,2.4,5.9c12.3,0.6,21.2,11.2,28.5,20c2.8,3.4,7.7-1.5,4.8-4.8
			c-8.7-10.4-18.9-21.3-33.3-22c0.8,2,1.6,3.9,2.4,5.9c1.8-1.8,3.7-3.6,5.6-5.4c1.3-1.3,2.6-2.6,3.1-4.3c1.2-4-2.1-6.4-5.6-7
			c-8.5-1.5-17.1-0.3-25,3.1C582.3,447.7,585.8,453.6,589.8,451.9L589.8,451.9z"/>
	</g>
	<g>
		<path d="M363.8,427.7c-7.9,2-15,6.3-20.4,12.3c-2.1,2.3-0.5,5.6,2.4,5.9c2.8,0.3,5.6,0.5,8.4,0.8c-1-1.7-2-3.4-3-5.2
			c-8,12.3-16.7,24.1-26.1,35.3c-2.8,3.4,2,8.2,4.8,4.9c9.8-11.7,18.9-23.9,27.2-36.7c1.5-2.4-0.5-4.9-3-5.2
			c-2.8-0.3-5.6-0.5-8.4-0.8c0.8,2,1.6,3.9,2.4,5.9c4.7-5.2,10.6-8.8,17.4-10.6C369.9,433.2,368.1,426.6,363.8,427.7L363.8,427.7z"
			/>
	</g>
	<g>
		<path d="M391.4,507.3c4.6-13,16.5-21.7,29.5-25.4c7.3-2.1,14.9-2.7,22.4-2.5c6.5,0.2,15.2,1.4,16.7,9.1c0.8,4.3,7.4,2.5,6.6-1.8
			c-1.7-8.8-10.3-12.9-18.4-13.8c-8.9-1-18.4-0.3-27.1,1.9c-16.1,4-30.6,14.6-36.2,30.6C383.3,509.6,389.9,511.4,391.4,507.3
			L391.4,507.3z"/>
	</g>
	<g>
		<path d="M421.8,477.3c-12.5,4.4-20.9,15.9-22.4,28.9c-1.6,13.4,3.6,29,14.1,37.8c11,9.3,27.3,8.6,39.6,2.1
			c12-6.3,19.9-18.5,21.5-31.9c1.7-15.1-5.7-29.8-18-38.4c-3.6-2.5-7.1,3.4-3.5,5.9c8.8,6.1,14.5,16.3,14.9,27
			c0.3,11.1-4.9,22.3-14,28.8c-9,6.4-22.7,9.5-32.8,3.6c-9.5-5.6-14.7-18-15.1-28.6c-0.5-12,5.7-24.5,17.6-28.6
			C427.7,482.4,426,475.8,421.8,477.3L421.8,477.3z"/>
	</g>
	<g>
		<path d="M426.4,478.6c-7.6,5.2-10,14.1-10.4,22.9c-0.4,8.3,0.8,18.4,7.7,24.1c7.4,6.1,18.1,4.4,25.1-1.5
			c7.5-6.4,11.3-17.4,12.1-26.9c1-11.2-5.2-21.5-16.1-24.9c-4.2-1.3-6,5.3-1.8,6.6c9.9,3.1,12.4,13.1,10.4,22.3
			c-1.9,8.8-6.4,19.2-16.1,21.3c-9.7,2-13.8-7.1-14.3-15.2c-0.5-7.5,0-17.9,6.9-22.6C433.5,482.1,430.1,476.1,426.4,478.6
			L426.4,478.6z"/>
	</g>
	<g>
		<path d="M537.7,475.5c-13.5,13.1-12.8,36.6,2.1,48.3c3.4,2.7,7.5,4.9,11.9,5.4c5.1,0.6,8.3-2.5,11.2-6.2
			c6.1-7.8,10.6-17.3,10.6-27.3c0-9.5-4.2-19.8-13-24.5c-3.9-2.1-7.4,3.8-3.5,5.9c7.4,4,10.2,13.2,9.5,21.1
			c-0.5,5.1-2.3,10-4.8,14.3c-1.2,2.2-2.7,4.3-4.2,6.3c-1.3,1.6-2.6,3.7-4.9,3.5c-8.3-0.5-15.1-9.6-17-17
			c-2.3-8.8,0.4-18.8,6.9-25.1C545.7,477.2,540.9,472.4,537.7,475.5L537.7,475.5z"/>
	</g>
	<g>
		<path d="M533.2,526.2c-5.4,0.4-7-8.5-7.7-12.4c-1-6.2-0.5-12.6,1.4-18.6c3.3-10.3,12.3-19.8,23.6-20.4c6.4-0.3,12.5,2.2,17.8,5.5
			c5.4,3.3,10.9,7.5,13.5,13.4c4.9,10.8,2,24.6-4.9,33.8c-8.3,11-22.8,14.9-35.5,9.5c-1.7-0.7-3.8,0.8-4.2,2.4
			c-0.6,2,0.7,3.5,2.4,4.2c13.9,5.9,30.5,1.9,40.5-9.3c9.7-10.9,14-27.6,8.7-41.5c-2.9-7.7-8.8-13-15.5-17.4
			c-6.3-4.2-13.5-7.4-21.1-7.5c-14.5-0.3-26.6,10.6-31.4,23.6c-3,8.2-3.4,17.3-1.6,25.9c1.4,6.8,5.6,16.2,13.9,15.6
			C537.6,532.7,537.6,525.8,533.2,526.2L533.2,526.2z"/>
	</g>
	<g>
		<path d="M537,532.3c-5.3,3.3-9.1,8.2-11.1,14.2c-1.4,4.2,5.2,6,6.6,1.8c1.4-4.2,4.2-7.7,8-10.1C544.2,535.9,540.8,530,537,532.3
			L537,532.3z"/>
	</g>
	<g>
		<path d="M466.8,535.1c3.2,1.9,5.8,4.7,7.2,8.2c0.7,1.7,2.3,2.9,4.2,2.4c1.6-0.5,3.1-2.5,2.4-4.2c-2-5.2-5.5-9.5-10.3-12.3
			C466.4,527,463,532.9,466.8,535.1L466.8,535.1z"/>
	</g>
	<g>
		<path d="M474.9,567c5.5,0.5,10.5-1.5,15.6-3.1c3.7-1.1,8.7-2.3,12,0.5c3.4,2.8,8.2-2,4.9-4.8c-4.2-3.5-9.2-4.1-14.5-3.3
			c-6.1,1-11.6,4.5-18,3.8C470.5,559.8,470.6,566.6,474.9,567L474.9,567z"/>
	</g>
	<g>
		<path d="M473.5,565.2c3.3,5.5,7.7,11.4,14.9,11.4c3.4,0,6-1.8,8.4-4c2.8-2.7,5.5-5.5,8.2-8.2c3.1-3.1-1.7-8-4.8-4.8
			c-2,2-4,4-6,6.1c-1.4,1.4-2.9,3.5-4.9,4.1c-4.6,1.2-7.9-4.7-9.7-7.9C477.1,558,471.2,561.5,473.5,565.2L473.5,565.2z"/>
	</g>
	<g>
		<path d="M472.4,592.3c3.2-2.1,6.5-4.3,9.7-6.4c2.6-1.7,6-5,9.4-4.6c3.4,0.4,7.1,2.7,10.2,4c3.9,1.6,7.7,3.2,11.6,4.8
			c4.1,1.7,5.9-4.9,1.8-6.6c-4.2-1.8-8.4-3.5-12.6-5.2c-3.8-1.6-7.9-3.9-12.1-3.9c-4,0-7.2,2.6-10.3,4.7c-3.7,2.4-7.4,4.9-11.1,7.3
			C465.3,588.8,468.7,594.8,472.4,592.3L472.4,592.3z"/>
	</g>
	<g>
		<path d="M473.4,607.6c10.7,6.8,25.2,5.3,34.3-3.4c3.2-3-1.6-7.9-4.8-4.8c-7,6.6-18,7.5-26,2.3
			C473.1,599.3,469.7,605.2,473.4,607.6L473.4,607.6z"/>
	</g>
	<g>
		<path d="M436.2,566.9c-36.9,6.4-73.1,16.6-107.8,30.7c-9.9,4-19.6,8.3-29.3,12.9c-4,1.9-0.5,7.8,3.5,5.9
			C336,600.5,371,588.2,407,579.8c10.3-2.4,20.6-4.5,31-6.3C442.4,572.8,440.5,566.1,436.2,566.9L436.2,566.9z"/>
	</g>
	<g>
		<path d="M449.5,573.2c-32.2,10.5-62.8,26.2-89.9,46.5c-7.6,5.7-15,11.8-22.1,18.1c-3.3,3,1.6,7.8,4.8,4.8
			c24.4-22,52.4-39.8,82.5-52.9c8.7-3.8,17.5-7,26.5-10C455.5,578.5,453.7,571.9,449.5,573.2L449.5,573.2z"/>
	</g>
	<g>
		<path d="M550.9,580.2c32.5-0.5,64.5,9.9,90.7,29.3c3.5,2.6,7-3.3,3.5-5.9c-27-20-60.5-30.8-94.1-30.2
			C546.5,573.5,546.5,580.3,550.9,580.2L550.9,580.2z"/>
	</g>
	<g>
		<path d="M563.2,562c41.4-10,86-5.5,124.5,12.6c4,1.9,7.5-4,3.5-5.9c-31.3-14.7-66.3-21.1-100.7-18.1c-9.8,0.9-19.5,2.5-29.1,4.8
			C557.1,556.4,558.9,563,563.2,562L563.2,562z"/>
	</g>
	<g>
		<path d="M380.1,623.4c-24.3,54.2,4.5,110.3,20.4,162.3c4.7,15.3,10,32.3,6.3,48.3c-1,4.3,5.6,6.1,6.6,1.8
			c3.2-14,0.3-28.1-3.3-41.7c-3.8-14-8.6-27.8-13.4-41.5c-9.2-26.4-18.6-53.3-19-81.6c-0.3-15.2,2.2-30.4,8.4-44.3
			C387.8,622.8,381.9,619.3,380.1,623.4L380.1,623.4z"/>
	</g>
	<g>
		<path d="M417,830.7c-8.8-3.8-19.5-1-25.2,6.9c-3,4.1-4.2,9.3-4,14.4c0.2,4.7,1.1,10.7,5.8,13c4,1.9,7.5-4,3.5-5.9
			c-2.5-1.2-2.5-6-2.4-8.4c0-3.4,1-6.9,3.1-9.6c3.5-4.4,10.6-6.7,15.8-4.4C417.6,838.4,421.1,832.5,417,830.7L417,830.7z"/>
	</g>
	<g>
		<path d="M418.6,838.1c-9.1,6.3-10.9,19.5-2.2,27.1c3.3,2.9,8.2-1.9,4.9-4.8c-5.1-4.5-4.9-12.4,0.8-16.3
			C425.7,841.5,422.2,835.6,418.6,838.1L418.6,838.1z"/>
	</g>
	<g>
		<path d="M446.3,841.7c-5.7,8.4,0.3,18.9,9.2,21.6c4.2,1.3,6-5.3,1.8-6.6c-4.9-1.5-8.2-6.9-5.1-11.5
			C454.7,841.5,448.8,838,446.3,841.7L446.3,841.7z"/>
	</g>
	<g>
		<path d="M423.2,865.7c10.2,2.6,21.2,3.9,31.8,2.7c7.8-0.8,16.6-3.2,20.7-10.5c2.2-3.8-3.7-7.3-5.9-3.5c-3.2,5.8-11.3,7-17.3,7.4
			c-9.3,0.6-18.5-0.4-27.5-2.7C420.8,858,419,864.6,423.2,865.7L423.2,865.7z"/>
	</g>
	<g>
		<path d="M488.6,779c6.1,8.8,10.7,18.4,13.5,28.8c1.1,4.2,7.8,2.5,6.6-1.8c-2.9-10.9-7.8-21.1-14.2-30.4
			C492,772,486,775.4,488.6,779L488.6,779z"/>
	</g>
	<g>
		<path d="M487.6,809.8c6.6,6.5,7.5,16.3,2.1,23.8c-2.6,3.6,3.3,7,5.9,3.5c7.2-9.9,5.5-23.6-3.1-32.1
			C489.4,801.9,484.5,806.8,487.6,809.8L487.6,809.8z"/>
	</g>
	<g>
		<path d="M486.1,827.2c2.9,12-3,24.1-12.8,31c-3.6,2.5-0.2,8.5,3.5,5.9c12.4-8.7,19.7-23.6,16-38.8
			C491.7,821.1,485.1,822.9,486.1,827.2L486.1,827.2z"/>
	</g>
	<g>
		<path d="M512.5,780.4c0.2,9.9,1,19.8,2.3,29.6c0.5,3.5,0.1,8.8,3.6,10.8c3.2,1.9,7.1-0.1,6.3-4c-0.9-4.3-7.5-2.5-6.6,1.8
			c0,0.1,0,0.2,0.1,0.3c0.3-1.1,0.6-2.2,0.9-3.3c0,0-0.1,0.1-0.2,0.2c0.8-0.3,1.6-0.7,2.4-1c0.7,0,0.8,1.1,1.2,1.1
			c-0.1,0-0.3-2-0.3-2.2c-0.2-1.7-0.5-3.4-0.7-5c-0.4-3.2-0.8-6.3-1-9.5c-0.6-6.2-0.9-12.5-1.1-18.8
			C519.2,776,512.4,776,512.5,780.4L512.5,780.4z"/>
	</g>
	<g>
		<path d="M531,778.3c0,11.8,0,23.5-0.1,35.3c0,4.4,6.8,4.4,6.8,0c0-11.8,0-23.5,0.1-35.3C537.8,773.9,531,773.9,531,778.3
			L531,778.3z"/>
	</g>
	<g>
		<path d="M536.9,788.1c-0.6,5.5-1.9,10.9-3.7,16.2c-1.4,4.2,5.2,6,6.6,1.8c2-5.9,3.3-11.8,3.9-18
			C544.2,783.7,537.4,783.7,536.9,788.1L536.9,788.1z"/>
	</g>
	<g>
		<path d="M600.5,620.9c9.6,12.2,15.8,27.3,16.9,42.9c0.5,7.7-0.1,15.4-2,22.9c-2.1,8.4-5.8,16.2-8.8,24.3
			c-3.5,9.7-5.4,19.8-5.7,30.1c-0.1,4.4,6.7,4.4,6.8,0c0.3-9.5,2.1-18.8,5.3-27.8c3.1-8.6,7-16.8,9.2-25.7
			c3.7-15.6,2.6-32.3-3.1-47.4c-3.3-8.8-8-16.8-13.8-24.2C602.6,612.6,597.8,617.5,600.5,620.9L600.5,620.9z"/>
	</g>
	<g>
		<path d="M613.1,672.6c-2.5,21.1-4,42.2-4.4,63.4c-0.4,19.7-0.9,40,2.3,59.5c1.7,10.3,5,20.3,10.5,29.2c2.3,3.7,8.3,0.3,5.9-3.5
			c-9.8-15.7-11.2-34.1-11.8-52.1c-0.6-20.6-0.2-41.3,1.1-61.8c0.8-11.6,1.8-23.2,3.2-34.8C620.5,668.2,613.6,668.3,613.1,672.6
			L613.1,672.6z"/>
	</g>
	<g>
		<path d="M614,827.8c5.1-0.8,11.4,1.3,14.1,5.9c2.8,4.6,0.4,10.2-3.8,13c-3.7,2.4-0.2,8.4,3.5,5.9c7.1-4.7,10.7-13.8,6.6-21.7
			c-4.1-7.9-13.9-10.9-22.2-9.7C607.9,821.9,609.7,828.5,614,827.8L614,827.8z"/>
	</g>
	<g>
		<path d="M608.8,839.1c2.6,1.4,6.9,3.4,7.7,6.6c0.7,2.5-2,4.6-4.3,3.8c-4.2-1.4-6,5.2-1.8,6.6c5.8,1.9,12.2-2.3,13.1-8.3
			c1-7-5.8-11.8-11.2-14.6C608.4,831.1,604.9,837,608.8,839.1L608.8,839.1z"/>
	</g>
	<g>
		<path d="M581.4,836.5c-4.3,7.2-1.8,16.3,5.1,20.9c6.6,4.4,16.4,4.1,22.8-0.6c3.5-2.6,0.1-8.5-3.5-5.9c-4.1,3-10,3.7-14.6,1.4
			c-4.6-2.3-6.7-7.8-4-12.3C589.6,836.2,583.7,832.8,581.4,836.5L581.4,836.5z"/>
	</g>
	<g>
		<path d="M385.9,726.2c-10.7,1.7-20.9,6.2-29.2,13.3c-3.2,2.7-8.5,7-8.3,11.6c0,2.4,1.8,4.4,4,5.1c1.2,0.4,4.7,0.2,5.3,0.8
			c-0.2-1.4-0.4-2.8-0.5-4.2c-2.3,3.4-4.5,6.8-6.8,10.1c-1.9,2.9-4.7,5.9-5.6,9.3c-0.7,2.6-0.1,5.5,2.4,6.9c1.3,0.8,2.8,0.9,4.3,0.7
			c1.1-0.2,2.6-1.1,3.6-0.7c-0.8-1.1-1.7-2.2-2.5-3.3c-2.6,20.9,6.5,41.6,21.8,55.7c3.2,3,8.1-1.8,4.9-4.8
			c-14.1-13-22.1-31.6-19.8-50.8c0.2-1.6-1.2-2.8-2.5-3.3c-1.6-0.6-4.4-0.6-5.9,0.4c-1.1,0.1-1,0.6,0.2,1.5c0.1-0.4,0.2-0.7,0.4-1
			c0.8-0.7,1.3-2,1.9-2.8c3.2-4.8,6.4-9.5,9.6-14.3c0.8-1.2,0.5-3.1-0.5-4.2c-1.2-1.2-2.5-1.8-4.2-2c-0.9-0.2-2-0.4-2.9-0.3
			c-0.3,0-0.7-0.1-1-0.2c0.2,0.5,0.5,0.9,0.7,1.3c0.3,0,3.3-3.9,3.8-4.4c1.5-1.5,3.2-2.9,5-4.2c7.1-5.1,15.2-8.2,23.8-9.6
			C392.1,732.2,390.2,725.5,385.9,726.2L385.9,726.2z"/>
	</g>
	<g>
		<path d="M384,828.8c-6.9,0.7-14.5,1.4-20.5,5.2c-5.1,3.3-9.3,9-7.9,15.4c1.3,6,7.1,9.6,12.5,11.3c7.5,2.4,15.6,1.3,23.4,2.1
			c4.4,0.5,4.4-6.4,0-6.8c-5.9-0.6-11.9,0-17.8-1c-3.9-0.6-9.3-2.2-11.1-6.1c-1.9-4,2.3-7.9,5.5-9.6c4.8-2.6,10.6-3.1,15.9-3.7
			C388.4,835.2,388.4,828.3,384,828.8L384,828.8z"/>
	</g>
	<g>
		<path d="M622.7,715.4c7.2-3.5,17.2-5,24.3-0.5c6.2,4,7.1,13.1-0.2,16.4c-2.4,1.1-2.1,4.8,0,5.9c8.9,4.9,14.8,14.9,11.9,25.1
			c-0.5,1.7,0.6,3.9,2.4,4.2c5.2,1,7.1,6.6,8.5,11.1c1.6,4.9,1.6,9.7,1,14.8c-1.2,9.8-5.1,19.2-11.3,26.9c-2.7,3.4,2.1,8.3,4.8,4.8
			c7.8-9.8,12.4-21.2,13.5-33.6c0.6-6.5-0.3-12.4-2.8-18.4c-2.4-5.7-5.3-11-11.9-12.2c0.8,1.4,1.6,2.8,2.4,4.2
			c3.8-13.1-3.5-26.5-15-32.8c0,2,0,3.9,0,5.9c10.5-4.7,11.1-19,2.9-26.2c-9.3-8.1-23.5-6.5-33.9-1.5
			C615.3,711.4,618.8,717.3,622.7,715.4L622.7,715.4z"/>
	</g>
	<g>
		<path d="M649.5,828.3c6.3-4.9,16.4-6.2,23.4-2c6,3.7,7.7,12.1,2.1,16.9c-3.4,2.9,1.5,7.7,4.8,4.8c8.6-7.3,6.4-20.5-2.2-26.8
			c-9.7-7-23.9-4.8-32.9,2.2C641.2,826.1,646,830.9,649.5,828.3L649.5,828.3z"/>
	</g>
	<g>
		<path d="M656.2,839.2c1.5,2.2,4.4,6.2,3.3,9.1c-1.3,3.3-8,2.7-10.7,2.8c-10.2,0.6-20.3,1.2-30.5,1.8c-4.4,0.3-4.4,7.1,0,6.8
			c6.5-0.4,12.9-0.8,19.4-1.2c6.3-0.4,12.8-0.3,19-1.3c4.8-0.8,9-3.7,9.6-8.8c0.6-4.6-1.7-9.1-4.2-12.8
			C659.7,832.1,653.8,835.5,656.2,839.2L656.2,839.2z"/>
	</g>
	<g>
		<path d="M545.6,803.1c4.4,0,4.4-6.8,0-6.8C541.2,796.3,541.2,803.1,545.6,803.1L545.6,803.1z"/>
	</g>
	<g>
		<path d="M542,800.8c-2.1,9.5-1.4,19.1,0.9,28.5c1.8,7.6,4.7,15,9.5,21.2c9.4,12.2,26.5,18.2,41,11.7c4-1.8,0.5-7.7-3.5-5.9
			c-11.9,5.4-26.3-1.2-33.2-11.4c-3.8-5.6-5.9-11.9-7.4-18.4c-1.8-7.8-2.4-15.9-0.7-23.8C549.6,798.4,543,796.5,542,800.8L542,800.8
			z"/>
	</g>
	<g>
		<path d="M384.5,654.2c-5.4,9.4-9.7,19.4-12.6,29.8c-2.5,8.9-5.6,19.6,0.9,27.5c1.2,1.5,3.5,1.1,4.9,0c9.6-8.1,18.2-17.4,25.4-27.8
			c-2-1.2-3.9-2.3-5.9-3.5c-11.6,21.3-4.8,47.8,13.9,62.7c3.4,2.7,8.3-2.1,4.9-4.8c-16.2-12.9-23-35.6-12.8-54.3
			c2.1-3.9-3.4-7.1-5.9-3.5c-6.9,9.9-15.1,18.7-24.3,26.4c1.6,0,3.2,0,4.9,0c-2.4-2.9-2.1-7.1-1.5-10.6c0.7-4.5,1.9-8.9,3.2-13.2
			c2.7-8.8,6.4-17.2,11-25.2C392.6,653.8,386.7,650.4,384.5,654.2L384.5,654.2z"/>
	</g>
	<g>
		<path d="M605.9,639c4.6,10.5,7,21.8,6.8,33.3c-0.2,9.2-1.9,18.7-9.4,24.7c1.6,0,3.2,0,4.8,0c-4.3-4.6-7.9-9.6-11-15.2
			c-1.7-3-6.3-1.6-6.4,1.7c-0.6,19.6-12.6,36.8-28.9,47c-3.7,2.3-0.3,8.3,3.5,5.9c18.3-11.5,31.6-30.9,32.3-52.9
			c-2.1,0.6-4.3,1.1-6.4,1.7c3.3,6,7.4,11.5,12,16.5c1.3,1.5,3.5,1.1,4.8,0c8.6-6.9,11.1-18,11.4-28.5c0.4-13-2.5-25.9-7.7-37.8
			C610.1,631.5,604.2,635,605.9,639L605.9,639z"/>
	</g>
	<g>
		<path d="M667.1,810.2c18.4,5.2,40.3,7.5,57-3.8c6.4-4.3,12-10.6,13.7-18.3c1-4.7-0.3-9.2,0.2-13.9c0.5-4.6,4.4-7.2,8.7-8
			c4.3-0.8,2.5-7.4-1.8-6.6c-4.2,0.8-8.1,3-10.8,6.4c-2.8,3.6-3.2,7.8-2.9,12.3c0.3,4,0.5,7.7-1.1,11.4c-1.5,3.5-4,6.4-6.9,8.8
			c-14.8,12.8-37,10-54.3,5.1C664.7,802.4,662.8,809,667.1,810.2L667.1,810.2z"/>
	</g>
	<g>
		<path d="M750.3,785.2c-0.2-6.5,5.2-11.3,10.3-14.6c1.4-0.9,2.8-1.8,4.3-2.6c0.3-0.1,0.5-0.3,0.8-0.4c1.4-0.3,1-1-1-2.1
			c-0.3,0.1-0.7,1.9-0.9,2.3c-1.6,3.9-3.2,7.8-4.7,11.7c-1,2.4,1.9,5,4.2,4.2c4.8-1.7,12.1-4.4,16.8-1.1c4.7,3.2,1.9,10.3,0.2,14.4
			c-1.6,4.1,5,5.9,6.6,1.8c2.7-6.9,4.5-15.8-2-21.2c-6.6-5.5-16.1-3.1-23.5-0.6c1.4,1.4,2.8,2.8,4.2,4.2c1.2-2.9,2.3-5.7,3.5-8.6
			c1-2.4,2.7-5.2,2.2-7.9c-1-6.3-8-3.8-11.5-1.7c-8.1,4.7-16.6,12-16.4,22.2C743.6,789.5,750.4,789.6,750.3,785.2L750.3,785.2z"/>
	</g>
	<g>
		<path d="M685.2,841.6c11.7,5.1,24.7,6.4,37.2,3.9c6-1.2,11.9-3.4,17.2-6.5c2.5-1.4,5.2-3.2,5.7-6.3c0.5-3.1-1.4-5.8-4.3-6.6
			c-0.3,2.2-0.6,4.5-0.9,6.7c20.6,0,42.4-11.6,49.7-31.7c1.5-4.2-5.1-6-6.6-1.8c-6.2,17.1-25.7,26.6-43,26.6c-3.9,0-4.7,5.7-0.9,6.7
			c-0.1-1.5-0.5-1.8-1.2-0.8c-0.5,0.3-1,0.6-1.5,0.9c-1,0.6-2,1.2-3,1.7c-1.8,0.9-3.7,1.7-5.6,2.4c-4.2,1.5-8.6,2.4-13,2.8
			c-8.9,0.8-18-0.4-26.2-4C684.6,834,681.1,839.9,685.2,841.6L685.2,841.6z"/>
	</g>
	<g>
		<path d="M429.2,340.2c1.7,27.9,3.4,55.8,5,83.7c0.3,4.4,7.1,4.4,6.9,0c-1.7-27.9-3.4-55.8-5-83.7
			C435.8,335.9,429,335.8,429.2,340.2L429.2,340.2z"/>
	</g>
	<g>
		<path d="M437.6,339.1c2.4,25.7,4.8,51.4,7.2,77.1c0.4,4.4,7.3,4.4,6.9,0c-2.4-25.7-4.8-51.4-7.2-77.1
			C444,334.8,437.2,334.7,437.6,339.1L437.6,339.1z"/>
	</g>
	<g>
		<path d="M521.2,332.6c0.8,26.8,1.7,53.6,2.5,80.4c0.1,4.4,7,4.4,6.8,0c-0.8-26.8-1.7-53.6-2.5-80.4
			C527.9,328.2,521.1,328.2,521.2,332.6L521.2,332.6z"/>
	</g>
	<g>
		<path d="M540.1,338.2c-2.9,21.8-6.5,43.4-11,65c-0.9,4.3,5.7,6.2,6.6,1.8c4.5-22.1,8.3-44.4,11.2-66.8
			C547.5,333.9,540.7,333.9,540.1,338.2L540.1,338.2z"/>
	</g>
	<g>
		<path d="M435.3,441.1c-2.8-0.1-2.2-4.7-1.3-6.2c1.4-2.3,4.1-3.8,6.8-3.9c6.3-0.2,8.7,7.5,5.6,12.1c-2.5,3.6,3.4,7.1,5.9,3.5
			c7-10.2-2.2-24.8-14.5-22.1c-5.4,1.2-10.2,5.4-11.2,11c-1.1,5.8,2.5,12.1,8.7,12.4C439.7,448.1,439.7,441.3,435.3,441.1
			L435.3,441.1z"/>
	</g>
	<g>
		<path d="M525.5,446.4c-2.8-0.9,0.8-5,1.8-5.8c1.9-1.7,4.9-4,7.3-1.9c5.1,4.4-0.3,11.9-3,15.9c-2.5,3.6,3.4,7.1,5.9,3.5
			c3.3-4.9,6.7-10.4,5.8-16.6c-0.8-5.1-4.5-10-9.8-10.5c-5.6-0.6-12.2,4.4-14.6,9.2c-2.4,4.9-0.6,11.1,4.8,12.7
			C527.8,454.3,529.7,447.7,525.5,446.4L525.5,446.4z"/>
	</g>
	<g>
		<path d="M450.8,565c-5.8,7.5-5.7,19,1.8,25.5c7.3,6.3,19,5.5,25.5-1.5c3-3.2-1.8-8.1-4.8-4.8c-4,4.3-11.1,5.3-15.8,1.5
			c-4.5-3.6-5.4-11.3-1.8-15.8C458.3,566.4,453.5,561.5,450.8,565L450.8,565z"/>
	</g>
	<g>
		<path d="M509.9,587.9c9.6,1.6,20.8-1.3,25.6-10.5c2.1-4.1,2.8-8.8,1.8-13.3c-1-4.6-4.6-10-9.9-9.8c-4.4,0.2-4.4,7,0,6.8
			c2.5-0.1,3.5,5.2,3.5,6.9c0,2.8-0.8,5.6-2.6,7.9c-3.8,4.9-10.8,6.4-16.6,5.4C507.4,580.6,505.5,587.2,509.9,587.9L509.9,587.9z"/>
	</g>
	<g>
		<path d="M471.5,591.4c14.4-4.8,29.8-4.2,43.8,1.5c4.1,1.7,5.9-5,1.8-6.6c-15-6.1-32.1-6.6-47.5-1.5
			C465.5,586.2,467.3,592.8,471.5,591.4L471.5,591.4z"/>
	</g>
	<g>
		<path d="M615.2,412.6c21.3,6.2,41,17.2,57.5,32.1c3.3,3,8.1-1.9,4.8-4.8c-17.3-15.7-38-27.3-60.5-33.9
			C612.8,404.7,611,411.3,615.2,412.6L615.2,412.6z"/>
	</g>
	<g>
		<path d="M630.6,396.7c16.6-0.7,33.1,3.2,47.6,11.4c3.8,2.2,7.3-3.8,3.5-5.9c-15.5-8.7-33.2-13-51-12.3
			C626.2,390,626.1,396.8,630.6,396.7L630.6,396.7z"/>
	</g>
	<g>
		<path d="M344.9,418.3c-20.5-5.7-42.7-2.8-61.1,7.9c-3.8,2.2-0.4,8.1,3.5,5.9c16.8-9.8,37-12.4,55.8-7.2
			C347.3,426.1,349.1,419.5,344.9,418.3L344.9,418.3z"/>
	</g>
	<g>
		<path d="M326.8,436.5c-18.5,2-35.1,12.3-45.1,28c-2.4,3.7,3.5,7.2,5.9,3.5c8.5-13.5,23.2-22.9,39.2-24.6
			C331.1,442.8,331.2,436,326.8,436.5L326.8,436.5z"/>
	</g>
	<g>
		<path d="M488,860.4c4.4-1.5,8.7-2.9,13-4.4c0.1,0,4.7-1.1,4.7-1.2c-0.4-0.7-0.8-1.3-1.2-2c-0.3,0.6-0.4,1.2-0.4,1.8
			c-0.1,0.7-0.1,1.4,0.1,2c0.8,2.9,3.7,4.7,6.5,5.2c3.7,0.8,7-0.9,10.3-2.2c4.3-1.7,8.4-0.9,12.8,0.1c4.2,1,8.4,1.7,12.6,2.1
			c9.1,0.8,18.3,0,27.4-0.8c4.4-0.4,4.4-7.2,0-6.8c-9.1,0.8-18.3,1.5-27.4,0.8c-8.3-0.7-17.2-5-25.5-2.6c-1.7,0.5-3.3,1.3-5,2
			c-0.8,0.3-1.6,0.6-2.5,0.7c-0.7,0.1-1.5-0.3-2.1-0.2c-0.2-0.1-0.4-0.2-0.6-0.3c0.1,0.8,0.2,0.8,0.4,0c0.4-0.6,0.3-2.1,0.2-2.7
			c-0.3-1.3-1.2-2.5-2.4-3.2c-2.9-1.6-6.3-0.5-9.2,0.5c-4.5,1.5-9,3-13.6,4.5C482.1,855.2,483.9,861.8,488,860.4L488,860.4z"/>
	</g>
	<g>
		<path d="M333.8,496c-10.8,12-20.5,24.8-29,38.5c-1.4,2.3,0.4,5.1,3,5.2c8,0.3,16,0.7,24,1c-0.8-2-1.6-3.9-2.4-5.8
			c-3.4,3.5-6.8,7.1-10.2,10.6c-2.8,2.8-7.4,6.2-8.4,10.2c-0.9,3.7,1.2,7.2,4.4,8.9c3.8,2,8.1,0.8,11.9-0.7c2.8-1.1,3.4-4.5,0.8-6.3
			c-3.8-2.6-7.2,1.1-7.6,4.8c-0.5,4.6,3,9,5.2,12.8c5.7,9.3,12.5,17.8,19.7,26c13.5,15.5,27.6,33,47.1,41.1
			c10.6,4.4,22.5,5.8,33.5,2c4.1-1.4,2.4-8.1-1.8-6.6c-16.7,5.8-34-2-46.7-12.8c-6.7-5.7-12.6-12.2-18.5-18.7
			c-6-6.6-12-13.3-17.5-20.3c-3-3.9-5.9-7.8-8.5-12c-1.4-2.1-2.6-4.3-3.9-6.5c-0.5-1-1.5-2.2-1.8-3.3c0-0.1,0-0.6-0.1-0.7
			c0-0.2,0-0.3,0-0.5c0.4-1-0.5-0.8-2.7,0.6c0.3-2.1,0.5-4.2,0.8-6.3c-1.7,0.7-5.5,2.7-7.2,1c-1-1-0.3-1.3,0.5-2.3
			c1-1.1,2.1-2.2,3.1-3.3c4.2-4.4,8.4-8.7,12.6-13.1c2.1-2.2,0.5-5.7-2.4-5.8c-8-0.3-16-0.7-24-1c1,1.7,2,3.4,3,5.2
			c8.2-13.2,17.6-25.5,28-37.1C341.6,497.5,336.7,492.7,333.8,496L333.8,496z"/>
	</g>
	<g>
		<path d="M630.2,495.2c-1.9-3-5.2-3.8-8.4-2.3c-3.5,1.7-1,7.3,2.6,6.3c8.9-2.5,18-2.7,26.9-0.4c-0.8-1.4-1.6-2.8-2.4-4.2
			c-3.3,10-8.9,18.9-16.4,26.2c-2.2,2.2-0.5,5.7,2.4,5.8c3.7,0.2,8.1,2,9.4,5.8c1.1,3.2-0.8,6.8-4.2,7.4c1.3,1.7,2.6,3.4,3.9,5
			c-0.5,0.8-1.4,0.3-1.8,1.2c-0.2,0.5-0.1,1.3-0.1,1.8c-0.1,0.8-0.2,1.7-0.3,2.5c-0.3,2-0.7,4-1.2,5.9c-1,3.8-2.3,7.4-3.9,10.9
			c-3.3,7.1-7.8,13.6-13.2,19.2c-11.7,12.3-27.2,20.2-43.5,24.2c-9.8,2.4-19.9,3.5-30,3.6c-4.4,0-4.4,6.9,0,6.8
			c21.3-0.2,43-4.7,61.2-16c16.5-10.2,29.8-25.9,35.4-44.5c1.5-4.8,3.2-10.9,2.5-15.9c-0.7-5.4-7.4-8.4-10.8-3.3
			c-1.8,2.8,1.2,5.5,3.9,5c6.8-1.1,10.8-8.8,9.2-15.2c-1.8-7.2-9.2-11.1-16.1-11.4c0.8,2,1.6,3.9,2.4,5.8
			c8.3-8.2,14.5-18.2,18.2-29.2c0.6-1.7-0.7-3.8-2.4-4.2c-10.1-2.6-20.6-2.5-30.6,0.4c0.9,2.1,1.8,4.2,2.6,6.3
			c-0.3-0.1-0.6-0.1-1-0.2C626.7,502.4,632.6,499,630.2,495.2L630.2,495.2z"/>
	</g>
</g>
</svg>
