<svg version="1.1" id="Layer_1" xmlns="http://www.w3.org/2000/svg" x="0" y="0" viewBox="0 0 1000 1000" xml:space="preserve"><style>.st0,.st6{opacity:.7;fill:#ffc161}.st6{fill:#ffaca1}</style><path class="st0" d="M465.5 477.3c2.9-11.7 7.8-23 14.3-33.1 2.2-3.4 4.9-6.9 8.9-7.5 7.9-1.3 12.1 8.8 13.5 16.6 4.6 25.2 10.3 50.1 17.1 74.8 1.7 6.3 4 13.2 9.6 16.5 4.6 2.7 10.8 2.5 14.8 6.1 4.6 4.3 3.8 11.6 4.9 17.8 2.5 14.5 17.2 24.6 31.9 25.5s28.8-5.8 40.5-14.6c18.3-13.8 32.8-38.7 22.1-58.9-2.7-5.1-7-9.8-7.6-15.5-.5-4.4 1.2-8.7.8-13.1-1.4-13.7-19.7-16.5-31.2-24-13.2-8.7-18.1-26.5-15.9-42.2s10.2-29.9 18-43.7c3.5-6.1 7.1-12.4 12.8-16.6s14-5.5 19.7-1.3c2.4-7.7 4.8-15.9 3-23.8s-9.7-15-17.5-13c-3.4.9-6.2 3.2-8.8 5.5-23.1 20.1-44.5 42.1-64 65.8-2.7 3.3-6.3 6.9-10.4 6-5.4-1.2-6.5-8.9-11.3-11.5-9.2-4.9-19.1 12.5-28.6 8.1-2.5-1.2-4.1-3.6-6-5.6-6.5-6.8-17.2-8.1-26.1-5.4-9 2.7-16.6 8.6-23.5 14.9"/><path class="st0" d="M471.3 500.4c2.3 13.6 5.9 29.1-2.4 40.2-6.3 8.5-18.5 12.7-21.6 22.8-3.5 11 5.8 22.2 5 33.6-.3 5-2.6 9.8-5.4 14-10.7 16-30 25.8-49.3 25s-37.6-12.4-46.9-29.3c-4.3-7.8-6.7-16.8-12.7-23.5-3.2-3.6-7.4-6.5-9.2-11-2.9-7.2 1.7-15 3.6-22.5s-2-18.4-9.6-16.9c-2.8-5.9.4-13 4.5-18.2 4-5.2 9.1-10 10.5-16.5s-3.5-14.6-10-13.2c18.4-22.7 37.9-49.4 33.2-78.2-3.7-22.8-21.7-40.5-29-62.4 17.1-2.5 32.7 9.5 45.1 21.5 11.9 11.4 24.5 24.3 41.7 26.7 14.1 2 27.9-5.5 38.6 7.1 18.8 22.1 9.3 73.9 13.9 100.8z"/><path d="M433.8 478.2c-6.4 2.9-10.3 9.9-11 16.9-.6 7-1.9 15 1 21.4 1.2 2.6 6 4.2 8.5 5.5 3.8 2 8.6.1 12-2.6 9.5-7.6 14.1-26.2 7.5-36.5s-24.5-8.4-31.8 1.4m121.7-7.5c-4.6 8.2-8.5 17.7-7.5 27.3 1 9.6 8.5 18.9 17.2 17.9 2.8-.3 5.4-1.6 7.7-3.5 9.5-7.6 10.7-28.9 2.9-38.6-7.8-9.7-22.9-5.6-30.8 4" fill="#181a1a"/><path d="M432.8 490.1c-.3.5.4-.4.6-.5-.5.3.8-.2 0 0-.3.1.9 0 .1-.1-.3 0 .8.2.1 0-.2-.1-.1 0 .3.2-.1-.1-.2-.1-.4-.2-.5-.4.5.5.1 0 .1.1.2.2.3.4-.2-.3-.1-.2.1.3-.2-.5 0 .6 0 .8.2-.7-.4.7 0 .1-.5.9.2-.1-.5.6.1-.1.9-.5-.1 0 .8-.4-.1.1-.1 0 0 0 .6-.1.6 0-.6-.1-.7-.1-.3 0 .1 0 .1 0 .2.1-.5-.2-.6-.3-.3-.1-.4-.3-.5-.4-.3-.2s.1.1-.2-.3c.2.3.1.2-.1-.3.5 1.7 2.4 3 4.2 2.4 1.7-.5 3-2.4 2.4-4.2-.9-2.7-3.4-4.3-6.2-4.2-2.7.1-5.4 1.8-5.9 4.6-1.2 6.4 8.2 9.8 11.5 4.2.9-1.5.4-3.8-1.2-4.7-1.8-1-3.9-.6-4.9 1.1zm107.7-6.2c-2.8 5.4-3.6 11.3-2.2 17.2.6 2.6 5.1 3.6 6.3.8 2.1-4.9 2.7-9.7 2-15-.6-4.4-7.2-2.5-6.6 1.8.5 3.3 0 6.7-1.3 9.7 2.1.3 4.2.5 6.3.8-1-4.1-.5-8.2 1.5-11.9 1.9-3.8-4-7.3-6-3.4z" fill="#fff"/><path d="M423.9 543.8c13.6 5.9 30.8-.7 38.6-13.3 7.8-12.6 6.6-29.7-1.4-42.1-.9 9.4-4.1 18.6-9.5 26.4-3.5 5.1-8 9.7-13.8 11.9s-12.8 1.7-17.3-2.5c-7.5-7-4.5-28.1-3.4-36.9-22.8 5.6-8.6 49.9 6.8 56.5zm118.8-6.7c8.2 4.2 17.9 6.4 25.6 1 6.2-4.4 9.9-12.1 13.4-19.6 1.8-3.9 3.7-8 4.1-12.4 1-11.6-8.2-21.2-17.8-24.8-2.4 12.8-1.1 28.1-9.6 36.7-11.2 11.3-26.8-10-33.4-22.2 1.8 11.7 1 32.9 17.7 41.3z" opacity=".7" fill="#afed6d"/><path class="st0" d="M395.7 725.5c.8 10.3 10.9 17.4 14.6 27.1.7 1.9 1.2 3.9 2.3 5.5 2.3 3.2 6.6 4.2 10.5 4.9 5.9 1.1 11.8 2.1 17.7 3.2 16.4 3 34.5 7 44.3 20.5 8.5 11.7 8.3 27.4 6.4 41.8-1.1 8.8-3.3 18.3-10.5 23.6-5 3.7-11.5 4.5-17.6 5.1-9.5 1-18.9 2.1-28.4 3.1-14.4 1.6-30.2 2.8-42-5.5-.2-5.4 2.2-10.9 6.4-14.4-5.4 4.1-10 9.2-13.5 15-6 5.3-17.1 2.9-19.9-4.6s4.6-16.8 12.4-15.4c-17.6-21.7-24-51.9-16.9-78.9-5.8-1-6.9-9.6-3.4-14.2 3.5-4.7 9.5-6.6 14.7-9.2 5.3-2.6 10.6-6.9 10.7-12.7 0-3.2-1.5-6.1-2.9-9-6.4-13.4-11.3-32.3-7.1-46.8 10.4 1.8 12.6 16.1 17.2 24.3 3.6 6.5 7.7 7.4 8.8 15.2 1.2 6.9-4.3 14.1-3.8 21.4z"/><path d="M421.8 645.4c-1.5 1.5-3 2.9-4.5 4.4" fill="#ffc161"/><path class="st0" d="M546.8 758.2c-6.6 3.4-15.1 4.3-19.3 10.5-2.3 3.3-2.8 7.6-5.3 10.7-6.7 8.4-21.9 3.1-29.5 10.7-7.4 7.3-2 19.9-4.5 30-2.2 8.8-10.7 16.7-7.9 25.3 2.6 7.8 12.5 9.6 20.7 10.2 13 .9 25.9 1.8 38.9 2.7 20.2 1.4 40.6 2.8 60.5-.8 11.9-2.1 23.9-6 35.7-3.7 10.6 2.1 21.8 9 31.2 3.7 6.8-3.8 9.6-12.9 16.8-16 5.3-2.3 11.4-.6 17.1.3 21.8 3.2 43.2-7.2 61.9-19 9.4-6 19.3-13.5 21.5-24.4 2.2-11-9.3-23.9-19.2-18.8.3-3.8-.6-7.6-2.6-10.8-5.7 4-10.5 9.2-14.2 15.1 3.2-6.3-2.9-15.1-9.9-14.3 1.9 16.6-10.9 32-26.2 38.7s-32.6 6.5-49.3 6.3c10.3-15.2-2.6-34.7-10.3-51.4-6.1-13.2-8.8-28-7.8-42.6-10.6-7.2-23.5-7.6-35.4-4.2-2.7-4.7-14.9-4.7-20.5-4.1-9.8 1-10.8.6-17.4 10.3-8.1 12.1-11 28.2-25 35.6z"/><path d="M474.9 532.3c-7 15.7-29.2 23-30.8 40.2-.5 5.2 1.2 10.4 1.2 15.6-.1 14.5-12.9 25.6-25.6 32.7-12.7 7.1-27.1 13-35 25.2-9.9 15.4-6.2 35.6-2.1 53.5 4.3 18.7 9.7 39.1 25.4 50.2 12.8 9 29.5 9.6 43.8 15.8 24.6 10.6 41 37 67 43.2 5.4-15.9 14.8-30.4 27.1-41.8 15-14 34.9-24.4 42.6-43.3 2.6-6.3 3.8-13.6 8.7-18.4 3.3-3.2 7.8-4.9 11.6-7.4 14.5-9.5 16.8-33.1 4.3-45.2-3.2-3.1-7.2-5.6-9.6-9.4-9-14.1 9.6-30.5 10.5-47.2-13.3-10.1-35.3 7.1-48.3-3.5-10.2-8.4-5.6-27.8-16.8-34.7-4.1-2.5-9.1-2.5-13.6-4.1-10.5-3.8-16.2-15.6-17-26.8-.8-11.2 1.9-22.2 2.7-33.4 1.3-18.7-12.5-64.2-39.3-45-25.4 18.2 3.6 60.3-6.8 83.8zm-63 326c16.2 4.2 33.2 8.4 49.6 5.1 7.6-1.5 15.1-4.9 19.9-11-4.4-6.3-12.8-8.3-20.4-9.9-12.9-2.6-38.2-12.2-51.2-8.2-14.2 4.4-12.4 20.3 2.1 24zm207.8-29.5c14.5 19-2.7 20.6-20.8 23.4-16.6 2.6-27.9 6-23.3-13.1 2-8.5 13.4-36.2 20.8-40.7 20.3-12.7 16.5 21.5 23.3 30.4zM741 776.5c-10.5 10.5-8.2 30.8 4.5 38.6s31.8 1 36.7-13c1.2-3.3 1.6-7 .8-10.4-2.5-11-15.3-15.8-26.4-17.5-6-.9-13.7-3.2-13.8-9.2" fill="#fffcf7" opacity=".7"/><path class="st6" d="M490.1 562.7c-2.6-.7-5.2-1.5-7.9-1-2.6.5-5.2 2.5-5.3 5.2-.1 2.8 2.5 5.1 5.2 5.6s5.5-.3 8.2-1.2c2.9-.9 5.9-2.1 7.7-4.6s1.1-6.7-1.7-7.6"/><path class="st6" d="M479.8 575.4c-2.8 2.2-5.7 4.5-7 7.8s-.6 7.7 2.5 9.3c1.4.7 3.1.8 4.7.8l17 .3c1.8 0 3.7 0 5.4-.6 5.2-2.1 5.9-9.9 2.5-14.5-3.3-4.6-9-6.6-14.4-8.5"/><path d="M323.9 440.7c.8 4.2-1.4 8.4-2.3 12.5-.9 4.2.6 9.8 4.9 10.4 3.9-8 8.1-16.2 15.2-21.6 2.4-1.8 5.2-3.3 7.2-5.6 8.3-9.4-9-63.2-18.2-63.4-8.9-.1-7.8 16.7-8.3 21.1-1.8 14.2-6.1 25-10.9 39 5.1-.5 11.3 1.8 12.4 7.6zm313.9-66.2c-7.8 5.8-15.1 12.1-21.9 19.1-5.9 6-11.7 12.9-13 21.3-1.4 8.4 3.4 18.2 11.8 19.6 2 .3 4.2.2 5.8 1.5 1.3 1 1.8 2.7 2.3 4.3 1.5 5.1 3 10.3 4.5 15.4 1 3.6 3.1 8 6.8 7.9 1.3 0 2.5-.6 3.6-1.3 12.2-7.7 14.3-24.3 14.8-38.7.7-21.5.5-43.2-4.7-64.1-1.4-5.8-5.5-12.8-11.2-11.2" fill="#ffd4cf" opacity=".7"/><path d="M464.5 391c-2.8 12.5-.2 26.1 6.9 36.7 1.8-6.5 3.6-12.9 5.4-19.4 1.3-4.6 2.6-9.4 1.4-14.1s-5.8-8.7-10.4-7.6c-.4 1.4-.8 2.8-1.2 4.1m40.7-1.2c-.8 9.9-1.4 20.6 4 28.9 1.5 2.2 4 4.4 6.6 3.7 1.9-.6 3-2.6 3.8-4.5 3.8-9.4 4.3-20.1 1.5-29.9M347.9 527.8c2.1 3.7 7.1 4.3 11.3 3.6 4.2-.7 8.4-2.3 12.5-1.3 6 1.4 9.5 7.7 11.5 13.6-5.6 6.3-16.2 3.3-23.8 7-4.4 2.2-7.4 6.5-11 9.8s-8.9 6.1-13.4 4c-.2-.1-10.2-36.5-9.7-37.7 6.2-14.5 18.3-6.6 22.6 1zm282.1.2c1.4-4-.3-8.9-3.8-11.2-5 10.9-16.3 18.7-28.3 19.3-.7 4.4-.9 10 3 12.1 5.9 3.2 12.6-5.6 19.1-3.9 6 1.5 7.3 10.6 13.2 12.4 6.5-10.2 9.1-22.8 7-34.8M411.4 795c4.2 2.6 8.3 5.3 12.5 7.9 1.4.9 2.8 1.8 4.4 1.9 1.7.1 3.3-.6 4.9-1 8.1-2.2 17.6 3.2 19.7 11.4-13.5 1.6-27 3.2-40.4 4.7m-10.6-39.4c4.6-3.9 12.1-3.5 16.3.8-3.1 3.7-7.2 6.5-11.7 8.2m199.6-27.4c-6.7.6-13.2 3.5-18 8.1-3 2.8-4.7 8.8-.9 10.2 2.6 1 5.1-1.3 7.3-3 5.3-4 12.8-4.9 19-2.3m-6 12.1c-7.5 1.2-14.3 5.8-18.3 12.2 8.7-2.7 17.3-5.9 25.6-9.6m39.6-32.9c-9 2.9-15.8 11.3-16.8 20.7-.1 1.2-.1 2.5.5 3.4 1.7 2.5 5.6.7 7.8-1.3s5.2-4.6 7.8-3c2.6 1.7 1.6 6 3.5 8.4 1.7 2.1 5.1 2.1 7.3.7s3.7-3.9 5-6.2m-23.3-52.5c-6.9.3-13.2 5.7-14.6 12.5-.2 1-.3 2.1.1 3 1 2.3 4.1 2.5 6.6 2 6.8-1.4 12.9-5.4 16.9-11m50 76c1.2 4.7 3.5 9 6.9 12.4 1.2 1.2 2.6 2.4 4.2 2.7 4.7.9 8-5 7.6-9.8-.4-4.8-2.7-9.5-1.8-14.2m-370.6-38.2c10-.1 19.9 2.9 28.2 8.4 1.8 1.2 3.6 2.8 3.5 5-.1 2-1.9 3.4-3.5 4.6-6.3 4.5-12.7 9.1-19 13.7" fill="#cc8314" opacity=".7"/><path d="M316.9 494.5c.1.1.1.3.2.4-.1-.9-.2-1.8-.3-2.6.1-.2.2-.4.3-.7.8-.3 1.6-.7 2.4-1 1.3 1.1 1.6 1.1 1-.1-.1-.3-.2-.6-.4-1-.4-1.1-.8-2.3-1.2-3.4-.6-2-1.2-4-1.7-6-1-4.2-1.8-8.5-2.1-12.9-.8-8.7-.3-17.4 1.5-25.9.9-4.3-5.7-6.2-6.6-1.8-2.5 12.4-2.7 25-.4 37.4 1.1 5.8 2.4 12.4 5.1 17.6 1.2 2.2 3.5 3.8 6.1 2.7s3.2-3.8 2-6.1c-2-3.9-8-.5-5.9 3.4z"/><path d="M315.7 439.9c-2.4-.2-4.8-.8-7-2-1.9-1-4.7-2.6-5.8-4.5-.6-1.1-.2-.9 1-1.6 1.1-.6 2.2-1.2 3.4-1.7 2.7-1 5.4-1.4 8.2-1.3 4.2.1 4.3-5.3.9-6.7-4.4-1.8-7.4-7.1-6.6-11.8.9-5.1 5.3-8.6 10.2-9.3 4.4-.6 2.5-7.2-1.8-6.6-7.9 1.1-14.4 7.8-15.2 15.7-.9 8.2 4.3 15.5 11.7 18.6.3-2.2.6-4.5.9-6.7-4.7-.1-9.3.9-13.5 3-3.4 1.7-7.6 4.5-6.6 9 .8 3.8 4.8 6.9 7.8 8.9 3.7 2.4 7.9 3.6 12.3 4 4.5.2 4.5-6.6.1-7z"/><path d="M316.4 403.6c.5-12.4 1-24.8 1.6-37.1.2-6 .5-12 .8-18 .1-3.2.3-6.4.4-9.6.1-1.5.1-3 .2-4.5 0-.8.1-1.5.1-2.2v-1.1c.2-1.2-.6-1.3-2.4-.2l-2.4-2.4c0 .1.1.2.1.4 1.5 4.1 8.1 2.3 6.6-1.8-1-2.6-3.5-3.8-6-2.3-2.9 1.8-2.7 5-2.8 8-.3 7.9-.7 15.8-1 23.6-.7 15.8-1.3 31.5-2 47.3-.3 4.3 6.6 4.3 6.8-.1z"/><path d="M313.9 333.2c6.4 2.2 9.8 9.2 13 14.7 4.1 6.9 8 13.9 11.7 21 7.5 14.2 14.3 28.8 20.4 43.7 1.6 4 8.3 2.3 6.6-1.8-6.6-16.1-14-31.9-22.1-47.2-4-7.5-8.2-15-12.6-22.3-3.8-6.2-8.1-12.2-15.2-14.6-4.1-1.5-5.9 5.1-1.8 6.5z"/><path d="M315.2 337c30.9 8.8 60.1 23.7 85.2 43.6 7.2 5.7 14.1 11.9 20.6 18.4 3.1 3.1 8-1.7 4.9-4.8-23.5-23.4-51.6-42-82.3-54.6-8.7-3.6-17.5-6.6-26.5-9.2-4.3-1.2-6.1 5.4-1.9 6.6z"/><path d="M405.8 407c18.1-10.2 39-20.3 60.1-13.6 4.2 1.3 6-5.3 1.8-6.6-22.9-7.3-45.7 3.2-65.4 14.3-3.8 2.1-.4 8.1 3.5 5.9z"/><path d="M463.2 397c2.3-5.6 5.9-10.7 10.4-14.7.4-.4 1-.7 1.4-1.2.8-.3.9-.5.2-.7-.5-.3-.6-.3-.2.2.1 1.2 1.5 2.9 1.9 4 1.2 3.2 1.9 6.6 2 10.1.1 3.5 4.5 4.5 6.4 1.7 2.5-3.6 5.5-7.1 9.1-9.6 1.3-.9 2.4-2 2.8-.1.3 1.4-.2 3-.5 4.4-.8 2.9 2.4 5.4 5 3.9 4.4-2.5 9.1-5.4 14.3-5.5 3.6-.1 8 1.4 9.3 5 1.5 4.1 8.2 2.3 6.6-1.8-2.2-5.9-7.5-9.3-13.7-10-7.2-.8-14 2.9-20.1 6.3 1.7 1.3 3.4 2.6 5 3.9 1.5-5.2 1.2-13.8-6.1-14.1-3.9-.2-7.1 2.5-9.9 5-3 2.7-5.6 5.8-7.9 9.1 2.1.6 4.2 1.2 6.4 1.7-.2-5.7-3.1-24.6-12.5-20.6-3.9 1.6-7.3 5.8-9.8 9-2.9 3.7-5.2 7.7-6.9 12.1-1.5 4.2 5.1 6 6.8 1.9z"/><path d="M525.6 396.7c6-.1 11.8 1.1 17.2 3.8 3.9 2 7.4-3.9 3.5-5.9-6.5-3.2-13.4-4.9-20.7-4.7-4.4 0-4.4 6.9 0 6.8z"/><path d="M549.4 403.3a188.2 188.2 0 0 1 36.8-46c7.2-6.6 14.8-12.6 22.9-18 9.2-6.1 19.1-11.3 28.8-16.6 3.9-2.1.4-8-3.5-5.9-14.9 8.1-29.5 16.2-42.8 26.8-12.4 9.8-23.4 21.2-33.1 33.7-5.5 7.2-10.6 14.7-15.1 22.6-2.1 3.7 3.8 7.2 6 3.4z"/><path d="M632.5 322.3c4.1-.6 7.1 9.6 8.2 12.2 2.4 5.7 4.5 11.5 6.5 17.3 4 11.8 7 24 8.9 36.3 3.5 23.3 2.1 47.3-5.5 69.7-4.1 12.2-10.1 23.6-17.9 33.8-2.7 3.5 3.3 6.9 5.9 3.5 32.4-42.6 31.1-100.1 14-148.6-2.5-7.2-5.3-14.5-8.6-21.4-2.5-5.5-6.8-10.4-13.3-9.4-4.3.7-2.5 7.3 1.8 6.6z"/><path d="M625.2 359.9c-18.6 25.4-32.7 54-41.5 84.3-1.2 4.2 5.4 6.1 6.6 1.8 8.7-29.7 22.5-57.7 40.8-82.7 2.6-3.4-3.3-6.9-5.9-3.4z"/><path d="M589.8 451.9c4.9-2.2 10.3-3.1 15.7-2.9 1.3.1 2.7.2 4 .4.5.1 1.1.2 1.6.3-.2-2-.6-2.4-1.3-1.2-1 .4-2.4 2.4-3.2 3.1-1.1 1-2.1 2.1-3.2 3.1-2.2 2.2-.5 5.7 2.4 5.9 12.3.6 21.2 11.2 28.5 20 2.8 3.4 7.7-1.5 4.8-4.8-8.7-10.4-18.9-21.3-33.3-22 .8 2 1.6 3.9 2.4 5.9 1.8-1.8 3.7-3.6 5.6-5.4 1.3-1.3 2.6-2.6 3.1-4.3 1.2-4-2.1-6.4-5.6-7-8.5-1.5-17.1-.3-25 3.1-4 1.6-.5 7.5 3.5 5.8zm-226-24.2c-7.9 2-15 6.3-20.4 12.3-2.1 2.3-.5 5.6 2.4 5.9 2.8.3 5.6.5 8.4.8-1-1.7-2-3.4-3-5.2-8 12.3-16.7 24.1-26.1 35.3-2.8 3.4 2 8.2 4.8 4.9 9.8-11.7 18.9-23.9 27.2-36.7 1.5-2.4-.5-4.9-3-5.2-2.8-.3-5.6-.5-8.4-.8.8 2 1.6 3.9 2.4 5.9 4.7-5.2 10.6-8.8 17.4-10.6 4.4-1.1 2.6-7.7-1.7-6.6zm27.6 79.6c4.6-13 16.5-21.7 29.5-25.4 7.3-2.1 14.9-2.7 22.4-2.5 6.5.2 15.2 1.4 16.7 9.1.8 4.3 7.4 2.5 6.6-1.8-1.7-8.8-10.3-12.9-18.4-13.8-8.9-1-18.4-.3-27.1 1.9-16.1 4-30.6 14.6-36.2 30.6-1.6 4.2 5 6 6.5 1.9z"/><path d="M421.8 477.3c-12.5 4.4-20.9 15.9-22.4 28.9-1.6 13.4 3.6 29 14.1 37.8 11 9.3 27.3 8.6 39.6 2.1 12-6.3 19.9-18.5 21.5-31.9 1.7-15.1-5.7-29.8-18-38.4-3.6-2.5-7.1 3.4-3.5 5.9 8.8 6.1 14.5 16.3 14.9 27 .3 11.1-4.9 22.3-14 28.8-9 6.4-22.7 9.5-32.8 3.6-9.5-5.6-14.7-18-15.1-28.6-.5-12 5.7-24.5 17.6-28.6 4-1.5 2.3-8.1-1.9-6.6z"/><path d="M426.4 478.6c-7.6 5.2-10 14.1-10.4 22.9-.4 8.3.8 18.4 7.7 24.1 7.4 6.1 18.1 4.4 25.1-1.5 7.5-6.4 11.3-17.4 12.1-26.9 1-11.2-5.2-21.5-16.1-24.9-4.2-1.3-6 5.3-1.8 6.6 9.9 3.1 12.4 13.1 10.4 22.3-1.9 8.8-6.4 19.2-16.1 21.3-9.7 2-13.8-7.1-14.3-15.2-.5-7.5 0-17.9 6.9-22.6 3.6-2.6.2-8.6-3.5-6.1zm111.3-3.1c-13.5 13.1-12.8 36.6 2.1 48.3 3.4 2.7 7.5 4.9 11.9 5.4 5.1.6 8.3-2.5 11.2-6.2 6.1-7.8 10.6-17.3 10.6-27.3 0-9.5-4.2-19.8-13-24.5-3.9-2.1-7.4 3.8-3.5 5.9 7.4 4 10.2 13.2 9.5 21.1-.5 5.1-2.3 10-4.8 14.3-1.2 2.2-2.7 4.3-4.2 6.3-1.3 1.6-2.6 3.7-4.9 3.5-8.3-.5-15.1-9.6-17-17-2.3-8.8.4-18.8 6.9-25.1 3.2-3-1.6-7.8-4.8-4.7z"/><path d="M533.2 526.2c-5.4.4-7-8.5-7.7-12.4-1-6.2-.5-12.6 1.4-18.6 3.3-10.3 12.3-19.8 23.6-20.4 6.4-.3 12.5 2.2 17.8 5.5 5.4 3.3 10.9 7.5 13.5 13.4 4.9 10.8 2 24.6-4.9 33.8-8.3 11-22.8 14.9-35.5 9.5-1.7-.7-3.8.8-4.2 2.4-.6 2 .7 3.5 2.4 4.2 13.9 5.9 30.5 1.9 40.5-9.3 9.7-10.9 14-27.6 8.7-41.5-2.9-7.7-8.8-13-15.5-17.4-6.3-4.2-13.5-7.4-21.1-7.5-14.5-.3-26.6 10.6-31.4 23.6-3 8.2-3.4 17.3-1.6 25.9 1.4 6.8 5.6 16.2 13.9 15.6 4.5-.3 4.5-7.2.1-6.8z"/><path d="M537 532.3c-5.3 3.3-9.1 8.2-11.1 14.2-1.4 4.2 5.2 6 6.6 1.8 1.4-4.2 4.2-7.7 8-10.1 3.7-2.3.3-8.2-3.5-5.9zm-70.2 2.8c3.2 1.9 5.8 4.7 7.2 8.2.7 1.7 2.3 2.9 4.2 2.4 1.6-.5 3.1-2.5 2.4-4.2-2-5.2-5.5-9.5-10.3-12.3-3.9-2.2-7.3 3.7-3.5 5.9zm8.1 31.9c5.5.5 10.5-1.5 15.6-3.1 3.7-1.1 8.7-2.3 12 .5 3.4 2.8 8.2-2 4.9-4.8-4.2-3.5-9.2-4.1-14.5-3.3-6.1 1-11.6 4.5-18 3.8-4.4-.3-4.3 6.5 0 6.9z"/><path d="M473.5 565.2c3.3 5.5 7.7 11.4 14.9 11.4 3.4 0 6-1.8 8.4-4 2.8-2.7 5.5-5.5 8.2-8.2 3.1-3.1-1.7-8-4.8-4.8-2 2-4 4-6 6.1-1.4 1.4-2.9 3.5-4.9 4.1-4.6 1.2-7.9-4.7-9.7-7.9-2.5-3.9-8.4-.4-6.1 3.3z"/><path d="M472.4 592.3c3.2-2.1 6.5-4.3 9.7-6.4 2.6-1.7 6-5 9.4-4.6 3.4.4 7.1 2.7 10.2 4 3.9 1.6 7.7 3.2 11.6 4.8 4.1 1.7 5.9-4.9 1.8-6.6-4.2-1.8-8.4-3.5-12.6-5.2-3.8-1.6-7.9-3.9-12.1-3.9-4 0-7.2 2.6-10.3 4.7-3.7 2.4-7.4 4.9-11.1 7.3-3.7 2.4-.3 8.4 3.4 5.9zm1 15.3c10.7 6.8 25.2 5.3 34.3-3.4 3.2-3-1.6-7.9-4.8-4.8-7 6.6-18 7.5-26 2.3-3.8-2.4-7.2 3.5-3.5 5.9zm-37.2-40.7c-36.9 6.4-73.1 16.6-107.8 30.7-9.9 4-19.6 8.3-29.3 12.9-4 1.9-.5 7.8 3.5 5.9C336 600.5 371 588.2 407 579.8c10.3-2.4 20.6-4.5 31-6.3 4.4-.7 2.5-7.4-1.8-6.6zm13.3 6.3c-32.2 10.5-62.8 26.2-89.9 46.5-7.6 5.7-15 11.8-22.1 18.1-3.3 3 1.6 7.8 4.8 4.8 24.4-22 52.4-39.8 82.5-52.9 8.7-3.8 17.5-7 26.5-10 4.2-1.2 2.4-7.8-1.8-6.5zm101.4 7c32.5-.5 64.5 9.9 90.7 29.3 3.5 2.6 7-3.3 3.5-5.9-27-20-60.5-30.8-94.1-30.2-4.5.1-4.5 6.9-.1 6.8zm12.3-18.2c41.4-10 86-5.5 124.5 12.6 4 1.9 7.5-4 3.5-5.9-31.3-14.7-66.3-21.1-100.7-18.1-9.8.9-19.5 2.5-29.1 4.8-4.3 1-2.5 7.6 1.8 6.6zm-183.1 61.4c-24.3 54.2 4.5 110.3 20.4 162.3 4.7 15.3 10 32.3 6.3 48.3-1 4.3 5.6 6.1 6.6 1.8 3.2-14 .3-28.1-3.3-41.7-3.8-14-8.6-27.8-13.4-41.5-9.2-26.4-18.6-53.3-19-81.6-.3-15.2 2.2-30.4 8.4-44.3 1.7-3.9-4.2-7.4-6-3.3z"/><path d="M417 830.7c-8.8-3.8-19.5-1-25.2 6.9-3 4.1-4.2 9.3-4 14.4.2 4.7 1.1 10.7 5.8 13 4 1.9 7.5-4 3.5-5.9-2.5-1.2-2.5-6-2.4-8.4 0-3.4 1-6.9 3.1-9.6 3.5-4.4 10.6-6.7 15.8-4.4 4 1.7 7.5-4.2 3.4-6z"/><path d="M418.6 838.1c-9.1 6.3-10.9 19.5-2.2 27.1 3.3 2.9 8.2-1.9 4.9-4.8-5.1-4.5-4.9-12.4.8-16.3 3.6-2.6.1-8.5-3.5-6zm27.7 3.6c-5.7 8.4.3 18.9 9.2 21.6 4.2 1.3 6-5.3 1.8-6.6-4.9-1.5-8.2-6.9-5.1-11.5 2.5-3.7-3.4-7.2-5.9-3.5z"/><path d="M423.2 865.7c10.2 2.6 21.2 3.9 31.8 2.7 7.8-.8 16.6-3.2 20.7-10.5 2.2-3.8-3.7-7.3-5.9-3.5-3.2 5.8-11.3 7-17.3 7.4-9.3.6-18.5-.4-27.5-2.7-4.2-1.1-6 5.5-1.8 6.6zm65.4-86.7c6.1 8.8 10.7 18.4 13.5 28.8 1.1 4.2 7.8 2.5 6.6-1.8-2.9-10.9-7.8-21.1-14.2-30.4-2.5-3.6-8.5-.2-5.9 3.4zm-1 30.8c6.6 6.5 7.5 16.3 2.1 23.8-2.6 3.6 3.3 7 5.9 3.5 7.2-9.9 5.5-23.6-3.1-32.1-3.1-3.1-8 1.8-4.9 4.8z"/><path d="M486.1 827.2c2.9 12-3 24.1-12.8 31-3.6 2.5-.2 8.5 3.5 5.9 12.4-8.7 19.7-23.6 16-38.8-1.1-4.2-7.7-2.4-6.7 1.9zm26.4-46.8c.2 9.9 1 19.8 2.3 29.6.5 3.5.1 8.8 3.6 10.8 3.2 1.9 7.1-.1 6.3-4-.9-4.3-7.5-2.5-6.6 1.8 0 .1 0 .2.1.3l.9-3.3-.2.2c.8-.3 1.6-.7 2.4-1 .7 0 .8 1.1 1.2 1.1-.1 0-.3-2-.3-2.2-.2-1.7-.5-3.4-.7-5-.4-3.2-.8-6.3-1-9.5-.6-6.2-.9-12.5-1.1-18.8-.2-4.4-7-4.4-6.9 0zm18.5-2.1c0 11.8 0 23.5-.1 35.3 0 4.4 6.8 4.4 6.8 0 0-11.8 0-23.5.1-35.3 0-4.4-6.8-4.4-6.8 0z"/><path d="M536.9 788.1c-.6 5.5-1.9 10.9-3.7 16.2-1.4 4.2 5.2 6 6.6 1.8 2-5.9 3.3-11.8 3.9-18 .5-4.4-6.3-4.4-6.8 0zm63.6-167.2c9.6 12.2 15.8 27.3 16.9 42.9.5 7.7-.1 15.4-2 22.9-2.1 8.4-5.8 16.2-8.8 24.3-3.5 9.7-5.4 19.8-5.7 30.1-.1 4.4 6.7 4.4 6.8 0 .3-9.5 2.1-18.8 5.3-27.8 3.1-8.6 7-16.8 9.2-25.7 3.7-15.6 2.6-32.3-3.1-47.4-3.3-8.8-8-16.8-13.8-24.2-2.7-3.4-7.5 1.5-4.8 4.9z"/><path d="M613.1 672.6c-2.5 21.1-4 42.2-4.4 63.4-.4 19.7-.9 40 2.3 59.5 1.7 10.3 5 20.3 10.5 29.2 2.3 3.7 8.3.3 5.9-3.5-9.8-15.7-11.2-34.1-11.8-52.1-.6-20.6-.2-41.3 1.1-61.8.8-11.6 1.8-23.2 3.2-34.8.6-4.3-6.3-4.2-6.8.1z"/><path d="M614 827.8c5.1-.8 11.4 1.3 14.1 5.9 2.8 4.6.4 10.2-3.8 13-3.7 2.4-.2 8.4 3.5 5.9 7.1-4.7 10.7-13.8 6.6-21.7-4.1-7.9-13.9-10.9-22.2-9.7-4.3.7-2.5 7.3 1.8 6.6z"/><path d="M608.8 839.1c2.6 1.4 6.9 3.4 7.7 6.6.7 2.5-2 4.6-4.3 3.8-4.2-1.4-6 5.2-1.8 6.6 5.8 1.9 12.2-2.3 13.1-8.3 1-7-5.8-11.8-11.2-14.6-3.9-2.1-7.4 3.8-3.5 5.9z"/><path d="M581.4 836.5c-4.3 7.2-1.8 16.3 5.1 20.9 6.6 4.4 16.4 4.1 22.8-.6 3.5-2.6.1-8.5-3.5-5.9-4.1 3-10 3.7-14.6 1.4-4.6-2.3-6.7-7.8-4-12.3 2.4-3.8-3.5-7.2-5.8-3.5zM385.9 726.2c-10.7 1.7-20.9 6.2-29.2 13.3-3.2 2.7-8.5 7-8.3 11.6 0 2.4 1.8 4.4 4 5.1 1.2.4 4.7.2 5.3.8-.2-1.4-.4-2.8-.5-4.2-2.3 3.4-4.5 6.8-6.8 10.1-1.9 2.9-4.7 5.9-5.6 9.3-.7 2.6-.1 5.5 2.4 6.9 1.3.8 2.8.9 4.3.7 1.1-.2 2.6-1.1 3.6-.7-.8-1.1-1.7-2.2-2.5-3.3-2.6 20.9 6.5 41.6 21.8 55.7 3.2 3 8.1-1.8 4.9-4.8-14.1-13-22.1-31.6-19.8-50.8.2-1.6-1.2-2.8-2.5-3.3-1.6-.6-4.4-.6-5.9.4-1.1.1-1 .6.2 1.5.1-.4.2-.7.4-1 .8-.7 1.3-2 1.9-2.8 3.2-4.8 6.4-9.5 9.6-14.3.8-1.2.5-3.1-.5-4.2-1.2-1.2-2.5-1.8-4.2-2-.9-.2-2-.4-2.9-.3-.3 0-.7-.1-1-.2.2.5.5.9.7 1.3.3 0 3.3-3.9 3.8-4.4 1.5-1.5 3.2-2.9 5-4.2 7.1-5.1 15.2-8.2 23.8-9.6 4.2-.6 2.3-7.3-2-6.6z"/><path d="M384 828.8c-6.9.7-14.5 1.4-20.5 5.2-5.1 3.3-9.3 9-7.9 15.4 1.3 6 7.1 9.6 12.5 11.3 7.5 2.4 15.6 1.3 23.4 2.1 4.4.5 4.4-6.4 0-6.8-5.9-.6-11.9 0-17.8-1-3.9-.6-9.3-2.2-11.1-6.1-1.9-4 2.3-7.9 5.5-9.6 4.8-2.6 10.6-3.1 15.9-3.7 4.4-.4 4.4-7.3 0-6.8zm238.7-113.4c7.2-3.5 17.2-5 24.3-.5 6.2 4 7.1 13.1-.2 16.4-2.4 1.1-2.1 4.8 0 5.9 8.9 4.9 14.8 14.9 11.9 25.1-.5 1.7.6 3.9 2.4 4.2 5.2 1 7.1 6.6 8.5 11.1 1.6 4.9 1.6 9.7 1 14.8-1.2 9.8-5.1 19.2-11.3 26.9-2.7 3.4 2.1 8.3 4.8 4.8 7.8-9.8 12.4-21.2 13.5-33.6.6-6.5-.3-12.4-2.8-18.4-2.4-5.7-5.3-11-11.9-12.2l2.4 4.2c3.8-13.1-3.5-26.5-15-32.8v5.9c10.5-4.7 11.1-19 2.9-26.2-9.3-8.1-23.5-6.5-33.9-1.5-4 1.9-.5 7.8 3.4 5.9z"/><path d="M649.5 828.3c6.3-4.9 16.4-6.2 23.4-2 6 3.7 7.7 12.1 2.1 16.9-3.4 2.9 1.5 7.7 4.8 4.8 8.6-7.3 6.4-20.5-2.2-26.8-9.7-7-23.9-4.8-32.9 2.2-3.5 2.7 1.3 7.5 4.8 4.9z"/><path d="M656.2 839.2c1.5 2.2 4.4 6.2 3.3 9.1-1.3 3.3-8 2.7-10.7 2.8-10.2.6-20.3 1.2-30.5 1.8-4.4.3-4.4 7.1 0 6.8 6.5-.4 12.9-.8 19.4-1.2 6.3-.4 12.8-.3 19-1.3 4.8-.8 9-3.7 9.6-8.8.6-4.6-1.7-9.1-4.2-12.8-2.4-3.5-8.3-.1-5.9 3.6zm-110.6-36.1c4.4 0 4.4-6.8 0-6.8s-4.4 6.8 0 6.8z"/><path d="M542 800.8c-2.1 9.5-1.4 19.1.9 28.5 1.8 7.6 4.7 15 9.5 21.2 9.4 12.2 26.5 18.2 41 11.7 4-1.8.5-7.7-3.5-5.9-11.9 5.4-26.3-1.2-33.2-11.4-3.8-5.6-5.9-11.9-7.4-18.4-1.8-7.8-2.4-15.9-.7-23.8 1-4.3-5.6-6.2-6.6-1.9zM384.5 654.2c-5.4 9.4-9.7 19.4-12.6 29.8-2.5 8.9-5.6 19.6.9 27.5 1.2 1.5 3.5 1.1 4.9 0 9.6-8.1 18.2-17.4 25.4-27.8-2-1.2-3.9-2.3-5.9-3.5-11.6 21.3-4.8 47.8 13.9 62.7 3.4 2.7 8.3-2.1 4.9-4.8-16.2-12.9-23-35.6-12.8-54.3 2.1-3.9-3.4-7.1-5.9-3.5-6.9 9.9-15.1 18.7-24.3 26.4h4.9c-2.4-2.9-2.1-7.1-1.5-10.6.7-4.5 1.9-8.9 3.2-13.2 2.7-8.8 6.4-17.2 11-25.2 2-3.9-3.9-7.3-6.1-3.5zM605.9 639c4.6 10.5 7 21.8 6.8 33.3-.2 9.2-1.9 18.7-9.4 24.7h4.8c-4.3-4.6-7.9-9.6-11-15.2-1.7-3-6.3-1.6-6.4 1.7-.6 19.6-12.6 36.8-28.9 47-3.7 2.3-.3 8.3 3.5 5.9 18.3-11.5 31.6-30.9 32.3-52.9-2.1.6-4.3 1.1-6.4 1.7 3.3 6 7.4 11.5 12 16.5 1.3 1.5 3.5 1.1 4.8 0 8.6-6.9 11.1-18 11.4-28.5.4-13-2.5-25.9-7.7-37.8-1.6-3.9-7.5-.4-5.8 3.6zm61.2 171.2c18.4 5.2 40.3 7.5 57-3.8 6.4-4.3 12-10.6 13.7-18.3 1-4.7-.3-9.2.2-13.9.5-4.6 4.4-7.2 8.7-8 4.3-.8 2.5-7.4-1.8-6.6-4.2.8-8.1 3-10.8 6.4-2.8 3.6-3.2 7.8-2.9 12.3.3 4 .5 7.7-1.1 11.4-1.5 3.5-4 6.4-6.9 8.8-14.8 12.8-37 10-54.3 5.1-4.2-1.2-6.1 5.4-1.8 6.6zm83.2-25c-.2-6.5 5.2-11.3 10.3-14.6 1.4-.9 2.8-1.8 4.3-2.6.3-.1.5-.3.8-.4 1.4-.3 1-1-1-2.1-.3.1-.7 1.9-.9 2.3-1.6 3.9-3.2 7.8-4.7 11.7-1 2.4 1.9 5 4.2 4.2 4.8-1.7 12.1-4.4 16.8-1.1 4.7 3.2 1.9 10.3.2 14.4-1.6 4.1 5 5.9 6.6 1.8 2.7-6.9 4.5-15.8-2-21.2-6.6-5.5-16.1-3.1-23.5-.6l4.2 4.2c1.2-2.9 2.3-5.7 3.5-8.6 1-2.4 2.7-5.2 2.2-7.9-1-6.3-8-3.8-11.5-1.7-8.1 4.7-16.6 12-16.4 22.2.2 4.3 7 4.4 6.9 0z"/><path d="M685.2 841.6c11.7 5.1 24.7 6.4 37.2 3.9 6-1.2 11.9-3.4 17.2-6.5 2.5-1.4 5.2-3.2 5.7-6.3.5-3.1-1.4-5.8-4.3-6.6-.3 2.2-.6 4.5-.9 6.7 20.6 0 42.4-11.6 49.7-31.7 1.5-4.2-5.1-6-6.6-1.8-6.2 17.1-25.7 26.6-43 26.6-3.9 0-4.7 5.7-.9 6.7-.1-1.5-.5-1.8-1.2-.8l-1.5.9c-1 .6-2 1.2-3 1.7-1.8.9-3.7 1.7-5.6 2.4-4.2 1.5-8.6 2.4-13 2.8-8.9.8-18-.4-26.2-4-4.2-1.6-7.7 4.3-3.6 6zm-256-501.4c1.7 27.9 3.4 55.8 5 83.7.3 4.4 7.1 4.4 6.9 0-1.7-27.9-3.4-55.8-5-83.7-.3-4.3-7.1-4.4-6.9 0zm8.4-1.1l7.2 77.1c.4 4.4 7.3 4.4 6.9 0l-7.2-77.1c-.5-4.3-7.3-4.4-6.9 0zm83.6-6.5c.8 26.8 1.7 53.6 2.5 80.4.1 4.4 7 4.4 6.8 0-.8-26.8-1.7-53.6-2.5-80.4-.1-4.4-6.9-4.4-6.8 0z"/><path d="M540.1 338.2c-2.9 21.8-6.5 43.4-11 65-.9 4.3 5.7 6.2 6.6 1.8 4.5-22.1 8.3-44.4 11.2-66.8.6-4.3-6.2-4.3-6.8 0zM435.3 441.1c-2.8-.1-2.2-4.7-1.3-6.2 1.4-2.3 4.1-3.8 6.8-3.9 6.3-.2 8.7 7.5 5.6 12.1-2.5 3.6 3.4 7.1 5.9 3.5 7-10.2-2.2-24.8-14.5-22.1-5.4 1.2-10.2 5.4-11.2 11-1.1 5.8 2.5 12.1 8.7 12.4 4.4.2 4.4-6.6 0-6.8zm90.2 5.3c-2.8-.9.8-5 1.8-5.8 1.9-1.7 4.9-4 7.3-1.9 5.1 4.4-.3 11.9-3 15.9-2.5 3.6 3.4 7.1 5.9 3.5 3.3-4.9 6.7-10.4 5.8-16.6-.8-5.1-4.5-10-9.8-10.5-5.6-.6-12.2 4.4-14.6 9.2-2.4 4.9-.6 11.1 4.8 12.7 4.1 1.4 6-5.2 1.8-6.5zM450.8 565c-5.8 7.5-5.7 19 1.8 25.5 7.3 6.3 19 5.5 25.5-1.5 3-3.2-1.8-8.1-4.8-4.8-4 4.3-11.1 5.3-15.8 1.5-4.5-3.6-5.4-11.3-1.8-15.8 2.6-3.5-2.2-8.4-4.9-4.9zm59.1 22.9c9.6 1.6 20.8-1.3 25.6-10.5 2.1-4.1 2.8-8.8 1.8-13.3-1-4.6-4.6-10-9.9-9.8-4.4.2-4.4 7 0 6.8 2.5-.1 3.5 5.2 3.5 6.9 0 2.8-.8 5.6-2.6 7.9-3.8 4.9-10.8 6.4-16.6 5.4-4.3-.7-6.2 5.9-1.8 6.6z"/><path d="M471.5 591.4c14.4-4.8 29.8-4.2 43.8 1.5 4.1 1.7 5.9-5 1.8-6.6-15-6.1-32.1-6.6-47.5-1.5-4.1 1.4-2.3 8 1.9 6.6zm143.7-178.8c21.3 6.2 41 17.2 57.5 32.1 3.3 3 8.1-1.9 4.8-4.8-17.3-15.7-38-27.3-60.5-33.9-4.2-1.3-6 5.3-1.8 6.6zm15.4-15.9c16.6-.7 33.1 3.2 47.6 11.4 3.8 2.2 7.3-3.8 3.5-5.9-15.5-8.7-33.2-13-51-12.3-4.5.1-4.6 6.9-.1 6.8zm-285.7 21.6c-20.5-5.7-42.7-2.8-61.1 7.9-3.8 2.2-.4 8.1 3.5 5.9 16.8-9.8 37-12.4 55.8-7.2 4.2 1.2 6-5.4 1.8-6.6zm-18.1 18.2c-18.5 2-35.1 12.3-45.1 28-2.4 3.7 3.5 7.2 5.9 3.5 8.5-13.5 23.2-22.9 39.2-24.6 4.3-.6 4.4-7.4 0-6.9zM488 860.4c4.4-1.5 8.7-2.9 13-4.4.1 0 4.7-1.1 4.7-1.2-.4-.7-.8-1.3-1.2-2-.3.6-.4 1.2-.4 1.8-.1.7-.1 1.4.1 2 .8 2.9 3.7 4.7 6.5 5.2 3.7.8 7-.9 10.3-2.2 4.3-1.7 8.4-.9 12.8.1 4.2 1 8.4 1.7 12.6 2.1 9.1.8 18.3 0 27.4-.8 4.4-.4 4.4-7.2 0-6.8-9.1.8-18.3 1.5-27.4.8-8.3-.7-17.2-5-25.5-2.6-1.7.5-3.3 1.3-5 2-.8.3-1.6.6-2.5.7-.7.1-1.5-.3-2.1-.2l-.6-.3c.1.8.2.8.4 0 .4-.6.3-2.1.2-2.7-.3-1.3-1.2-2.5-2.4-3.2-2.9-1.6-6.3-.5-9.2.5-4.5 1.5-9 3-13.6 4.5-4 1.5-2.2 8.1 1.9 6.7zM333.8 496c-10.8 12-20.5 24.8-29 38.5-1.4 2.3.4 5.1 3 5.2 8 .3 16 .7 24 1-.8-2-1.6-3.9-2.4-5.8-3.4 3.5-6.8 7.1-10.2 10.6-2.8 2.8-7.4 6.2-8.4 10.2-.9 3.7 1.2 7.2 4.4 8.9 3.8 2 8.1.8 11.9-.7 2.8-1.1 3.4-4.5.8-6.3-3.8-2.6-7.2 1.1-7.6 4.8-.5 4.6 3 9 5.2 12.8 5.7 9.3 12.5 17.8 19.7 26 13.5 15.5 27.6 33 47.1 41.1 10.6 4.4 22.5 5.8 33.5 2 4.1-1.4 2.4-8.1-1.8-6.6-16.7 5.8-34-2-46.7-12.8-6.7-5.7-12.6-12.2-18.5-18.7-6-6.6-12-13.3-17.5-20.3-3-3.9-5.9-7.8-8.5-12-1.4-2.1-2.6-4.3-3.9-6.5-.5-1-1.5-2.2-1.8-3.3 0-.1 0-.6-.1-.7v-.5c.4-1-.5-.8-2.7.6.3-2.1.5-4.2.8-6.3-1.7.7-5.5 2.7-7.2 1-1-1-.3-1.3.5-2.3 1-1.1 2.1-2.2 3.1-3.3 4.2-4.4 8.4-8.7 12.6-13.1 2.1-2.2.5-5.7-2.4-5.8-8-.3-16-.7-24-1 1 1.7 2 3.4 3 5.2 8.2-13.2 17.6-25.5 28-37.1 2.9-3.3-2-8.1-4.9-4.8zm296.4-.8c-1.9-3-5.2-3.8-8.4-2.3-3.5 1.7-1 7.3 2.6 6.3 8.9-2.5 18-2.7 26.9-.4l-2.4-4.2c-3.3 10-8.9 18.9-16.4 26.2-2.2 2.2-.5 5.7 2.4 5.8 3.7.2 8.1 2 9.4 5.8 1.1 3.2-.8 6.8-4.2 7.4 1.3 1.7 2.6 3.4 3.9 5-.5.8-1.4.3-1.8 1.2-.2.5-.1 1.3-.1 1.8-.1.8-.2 1.7-.3 2.5-.3 2-.7 4-1.2 5.9-1 3.8-2.3 7.4-3.9 10.9-3.3 7.1-7.8 13.6-13.2 19.2-11.7 12.3-27.2 20.2-43.5 24.2-9.8 2.4-19.9 3.5-30 3.6-4.4 0-4.4 6.9 0 6.8 21.3-.2 43-4.7 61.2-16 16.5-10.2 29.8-25.9 35.4-44.5 1.5-4.8 3.2-10.9 2.5-15.9-.7-5.4-7.4-8.4-10.8-3.3-1.8 2.8 1.2 5.5 3.9 5 6.8-1.1 10.8-8.8 9.2-15.2-1.8-7.2-9.2-11.1-16.1-11.4.8 2 1.6 3.9 2.4 5.8 8.3-8.2 14.5-18.2 18.2-29.2.6-1.7-.7-3.8-2.4-4.2-10.1-2.6-20.6-2.5-30.6.4.9 2.1 1.8 4.2 2.6 6.3-.3-.1-.6-.1-1-.2 2.2 3.9 8.1.5 5.7-3.3z"/></svg>