<?xml version="1.0" encoding="utf-8"?>
<!-- Generator: Adobe Illustrator 23.0.2, SVG Export Plug-In . SVG Version: 6.00 Build 0)  -->
<svg version="1.1" id="Layer_1" xmlns="http://www.w3.org/2000/svg" xmlns:xlink="http://www.w3.org/1999/xlink" x="0px" y="0px"
	 viewBox="0 0 1000 1000" style="enable-background:new 0 0 1000 1000;" xml:space="preserve">
<style type="text/css">
	.st0{opacity:0.7;fill:#FFE600;}
	.st1{opacity:0.7;fill:#9BDCE0;}
</style>
<g>
	<path class="st0" d="M431.1,481.9c4.8-14.2,25.1-18,37.9-10.2c12.8,7.8,19.2,23,22.6,37.6c3.4,14.6,4.7,30,10.9,43.6
		c8.2-5.6,18.3-8.3,28.2-7.7c14.1,56.6,23.6,114.3,28.5,172.4c0.1-73.8-1.6-147.6-5-221.4c-8.9,8.2-19.7,14.4-31.4,17.7
		c-4-24.4-8-48.8-11.9-73.2c-0.5-2.9-1.1-6.1-3.3-8.1c-2.6-2.3-6.4-2.2-9.8-2c-13.4,0.9-26.7,1.8-40,2.6
		c-8.8,0.6,3.9-138.5-34.8-90.5C404.1,366.4,425.9,454.6,431.1,481.9z"/>
	<g>
		<path d="M403.5,339.5c5.3,49.8,10.7,99.6,16,149.4c0.3,2.4,2.3,4.7,5,3.8c18-6,36-12,54-18.1c4.8-1.6,2.8-9.3-2.1-7.6
			c-18,6-36,12-54,18.1c1.7,1.3,3.3,2.5,5,3.8c-5.3-49.8-10.7-99.6-16-149.4C410.9,334.5,403,334.4,403.5,339.5L403.5,339.5z"/>
	</g>
	<g>
		<path d="M473,469.2c3.8,36,10.1,71.6,19,106.7c0.9,3.6,5.3,3.5,7.2,1c8.3-11.2,20.3-18.7,33.9-21.6c5-1.1,2.9-8.7-2.1-7.6
			c-15.7,3.4-29.1,12.4-38.6,25.3c2.4,0.3,4.8,0.6,7.2,1c-8.7-34.4-15-69.3-18.7-104.6C480.4,464.2,472.4,464.1,473,469.2L473,469.2
			z"/>
	</g>
	<g>
		<path d="M525.6,549.7c6.7,66.8,16.2,133.4,28.5,199.4c0.9,5,8.6,2.9,7.6-2.1c-12.1-65.3-21.6-131.2-28.2-197.3
			C533,544.6,525.1,544.6,525.6,549.7L525.6,549.7z"/>
	</g>
	<g>
		<path d="M452.5,339.5c-0.9,33.8,0.6,67.6,4.3,101.3c0.3,2.8,3.2,5.2,6,3.4c17.1-11.1,36.8-16.6,57.2-16c-1.3-1.3-2.6-2.6-4-4
			c0.4,30.6,2.4,61.1,5.8,91.5c0.4,3.4,4.1,5.3,6.8,2.8c4-3.6,8.2-6.8,12.9-9.4c1.9-1,3.8-2,5.7-2.9c1.6-0.7,3.3-1.3,5-1.9
			c2.3-0.3,3.8-1.6,4.6-4c-4.9,1.4-2.8,9,2.1,7.6c8.8-2.5,3.7-13.5-4.4-12.5C543,497,531.3,505.4,523,513c2.2,0.9,4.5,1.9,6.8,2.8
			c-3.4-30.4-5.4-60.9-5.8-91.5c0-2.2-1.8-3.9-4-4c-21.7-0.7-43,5.2-61.2,17.1c2,1.1,4,2.3,6,3.4c-3.7-33.6-5.2-67.5-4.3-101.3
			C460.5,334.4,452.6,334.4,452.5,339.5L452.5,339.5z"/>
	</g>
	<g>
		<path d="M556.2,502.3c5.7,81.8,5,164,3.2,245.9c-0.1,5.1,7.8,5.1,7.9,0c1.8-81.9,2.5-164.1-3.2-245.9
			C563.7,497.2,555.8,497.2,556.2,502.3L556.2,502.3z"/>
	</g>
	<path class="st1" d="M469.1,341.8c4.1,24.7,6.3,49.8,6.5,74.9c10.5-8.5,23.6-13.9,37.1-15.2c-9.3,2.5-19.3-3.1-24.9-11
		c-5.6-7.9-7.8-17.6-9.9-27c-1.6-7.2-3.2-14.4-4.7-21.7"/>
	<path class="st1" d="M474.5,601.5c5.7-9.9,16.8-15.3,26.9-13c2.5,17.4,4.9,34.8,7.4,52.2c2.1-23.7,4.2-47.3,6.3-71
		c-10.4,3.8-20.9,7.5-31.3,11.3c-3-18.3-21.8-121.4-28.3-91.5C449.6,516.7,491.2,572.2,474.5,601.5z"/>
	<path class="st1" d="M545.3,488.4c0.8-7,10.1-10.5,16.6-7.7c6.5,2.9,10.1,9.9,11.7,16.8c1.6,6.9,1.6,14.1,3.3,21
		c0.8-21.8-1.5-43.6-6.8-64.7c-7.2,2.6-14.3,5.2-21.5,7.8c-3-15.1-4.2-39.1-13-49.8C530.1,438.5,545.3,462.7,545.3,488.4z"/>
</g>
</svg>
