<svg xmlns="http://www.w3.org/2000/svg" width="1000" height="1000"><path d="M431.1 481.9c4.8-14.2 25.1-18 37.9-10.2 12.8 7.8 19.2 23 22.6 37.6 3.4 14.6 4.7 30 10.9 43.6 8.2-5.6 18.3-8.3 28.2-7.7 14.1 56.6 23.6 114.3 28.5 172.4.1-73.8-1.6-147.6-5-221.4-8.9 8.2-19.7 14.4-31.4 17.7-4-24.4-8-48.8-11.9-73.2-.5-2.9-1.1-6.1-3.3-8.1-2.6-2.3-6.4-2.2-9.8-2-13.4.9-26.7 1.8-40 2.6-8.8.6 3.9-138.5-34.8-90.5-18.9 23.7 2.9 111.9 8.1 139.2z" opacity=".7" fill="#ffe600"/><path d="M403.5 339.5c5.3 49.8 10.7 99.6 16 149.4.3 2.4 2.3 4.7 5 3.8 18-6 36-12 54-18.1 4.8-1.6 2.8-9.3-2.1-7.6-18 6-36 12-54 18.1 1.7 1.3 3.3 2.5 5 3.8-5.3-49.8-10.7-99.6-16-149.4-.5-5-8.4-5.1-7.9 0z"/><path d="M473 469.2c3.8 36 10.1 71.6 19 106.7.9 3.6 5.3 3.5 7.2 1 8.3-11.2 20.3-18.7 33.9-21.6 5-1.1 2.9-8.7-2.1-7.6-15.7 3.4-29.1 12.4-38.6 25.3 2.4.3 4.8.6 7.2 1-8.7-34.4-15-69.3-18.7-104.6-.5-5.2-8.5-5.3-7.9-.2z"/><path d="M525.6 549.7c6.7 66.8 16.2 133.4 28.5 199.4.9 5 8.6 2.9 7.6-2.1-12.1-65.3-21.6-131.2-28.2-197.3-.5-5.1-8.4-5.1-7.9 0zm-73.1-210.2c-.9 33.8.6 67.6 4.3 101.3.3 2.8 3.2 5.2 6 3.4 17.1-11.1 36.8-16.6 57.2-16l-4-4c.4 30.6 2.4 61.1 5.8 91.5.4 3.4 4.1 5.3 6.8 2.8 4-3.6 8.2-6.8 12.9-9.4 1.9-1 3.8-2 5.7-2.9 1.6-.7 3.3-1.3 5-1.9 2.3-.3 3.8-1.6 4.6-4-4.9 1.4-2.8 9 2.1 7.6 8.8-2.5 3.7-13.5-4.4-12.5-11.5 1.6-23.2 10-31.5 17.6 2.2.9 4.5 1.9 6.8 2.8-3.4-30.4-5.4-60.9-5.8-91.5 0-2.2-1.8-3.9-4-4-21.7-.7-43 5.2-61.2 17.1 2 1.1 4 2.3 6 3.4-3.7-33.6-5.2-67.5-4.3-101.3 0-5.1-7.9-5.1-8 0z"/><path d="M556.2 502.3c5.7 81.8 5 164 3.2 245.9-.1 5.1 7.8 5.1 7.9 0 1.8-81.9 2.5-164.1-3.2-245.9-.4-5.1-8.3-5.1-7.9 0z"/><path d="M469.1 341.8c4.1 24.7 6.3 49.8 6.5 74.9 10.5-8.5 23.6-13.9 37.1-15.2-9.3 2.5-19.3-3.1-24.9-11-5.6-7.9-7.8-17.6-9.9-27-1.6-7.2-3.2-14.4-4.7-21.7m1.3 259.7c5.7-9.9 16.8-15.3 26.9-13 2.5 17.4 4.9 34.8 7.4 52.2 2.1-23.7 4.2-47.3 6.3-71-10.4 3.8-20.9 7.5-31.3 11.3-3-18.3-21.8-121.4-28.3-91.5-5.9 27.2 35.7 82.7 19 112zm70.8-113.1c.8-7 10.1-10.5 16.6-7.7 6.5 2.9 10.1 9.9 11.7 16.8 1.6 6.9 1.6 14.1 3.3 21 .8-21.8-1.5-43.6-6.8-64.7-7.2 2.6-14.3 5.2-21.5 7.8-3-15.1-4.2-39.1-13-49.8-5.5 26.7 9.7 50.9 9.7 76.6z" opacity=".7" fill="#9bdce0"/></svg>