<svg xmlns="http://www.w3.org/2000/svg" width="1000" height="1000"><path d="M481.9 646.4c-8.5-1.1-17.5 3.8-21.3 11.5 6.1 3.3 10.5 9.4 11.9 16.1-4.8 1.3-8.9 5.3-10.1 10.2 1 4.6 4.5 8.6 8.9 10.3-.7 3.2-1.4 6.3-2 9.5 20.9 2.5 42.1 2 62.8-1.5 1-5.7-.1-11.7-3.2-16.6 4.5-1.7 9.1-3.3 13.6-5-2.5-9.2-3.8-19.4.9-27.7-26.6-5.1-53.8-7.4-80.8-6.7" opacity=".7" fill="#9fafb3"/><path d="M408.6 526.5c-25.7-38-23.5-93.8 4.1-130.3 27.7-36.5 78.1-51.2 119.9-36s72.6 58.6 75.7 105.2c.8 12-.1 24.3-4.4 35.5-6.3 16.6-19.3 29.2-29.4 43.6-11.4 16.3-19.2 35.4-22.7 55.3-1.9 10.7-2.5 21.7-6.3 31.8-9.6 25.2-27.9 20.3-47.6 13.3-11.1-3.9-18.9 4-27.7-5-12.8-13-17.7-46-24.6-62.3-8.4-19.9-25.1-33.6-37-51.1zm-39-146.9c-7.3-8.5-15.8-16.3-23.7-23.7-6.3-5.8-16-11.6-22.6-6.2-4.2 3.4-4.5 10.1-2 14.9 2.5 4.8 7 8.2 11.5 11.2 7.9 5.2 18.3 11.5 28.8 15.5 7 2.8 12.9-5.9 8-11.7zM401.4 267c20.2.6 35.6 18.2 46 35.6 2.3 3.9 4.2 9.5.7 12.4-1.9 1.6-4.7 1.5-7.2 1-20.1-3.3-36.8-21.3-38.6-41.5M508 301.8c-8.3-14.5-8.3-33.3 0-47.8 16 12.8 16.9 40.1 1.9 54-.9.8-2 1.7-3.2 1.8-1.9.1-3.4-1.6-4.5-3.1-5.3-7.5-9.3-16.3-9.4-25.5-.2-9.2 4-18.8 11.9-23.6M639.5 296c-11.1-.9-22.7 3-31 10.5-2 1.8-1.7 5 .6 6.3 5.9 3.6 13.2 4.8 19.9 3.1 6-1.5 11.3-5.4 14.8-10.5 2.7-3.8.3-9.1-4.3-9.4zm16.3 115.9c3.5-11.2 9.5-21.6 17.5-30.2 2.1-2.3 5-4.6 8-3.8 3 .9 4.2 4.4 4.6 7.5 1.5 15.1-9.4 30.5-24.1 34" opacity=".7" fill="#ffe30f"/><path d="M490.5 605.5c2.2-22.4 1.4-44.9-.5-67.3-1-11-2.2-21.9-3.4-32.9-1-9.2-1.7-18.7-5.7-27.1-3.5-7.3-10.3-13.5-18.5-14.7-8.2-1.2-15.8 3.4-19.7 10.5-8.6 15.9 2.7 34.1 15 44.5 12.4 10.5 28.7 16.5 45.1 16 16.4-.5 32.1-7.9 43.4-19.7 5.5-5.7 9.9-12.3 13-19.6 2.9-6.9 6.2-16.2 2.2-23.3-3.5-6.1-11-9.2-17.7-8.3-8.2 1.1-14.7 7.6-18 14.8-4.7 10-4.2 21.7-4.5 32.5-.3 12.4-.6 24.9-.7 37.4 0 12.2.2 24.4 1 36.6.7 10.6.5 22.9 6.7 32 2.3 3.5 8.1.3 5.7-3.2-4.9-7.3-5-16.6-5.6-25.1-.6-9.1-1-18.2-1.1-27.3-.3-18.7.2-37.4.7-56 .2-8.5.1-17.7 4.3-25.4 3.1-5.7 9-11 16-9.7 16.8 3.1 4.2 26.2-1.6 34.1-17.3 23.7-49.6 30.2-75 15.8-12.1-6.8-26.2-20.5-25.2-35.6.5-6.9 5.4-14.3 12.8-14.7 7.6-.4 13.8 6.2 16.5 12.7 3.7 8.8 4 19 5 28.4 1.2 10.5 2.3 21 3.1 31.5 1.7 21 2.2 42 .2 63-.5 4.2 6.1 4.3 6.5.1zm-95.2-334.2c7.7 22.5 21.1 49.9 48.8 50 4.2 0 4.4-6.5.1-6.6-24.4-.1-35.8-25.4-42.5-45.1-1.4-3.9-7.8-2.3-6.4 1.7zm107.8-9.9c-1.3 12.3-.7 24.5 1.7 36.6.8 4.1 7.2 2.5 6.4-1.6-2.3-11.5-2.7-23.2-1.5-34.9.4-4.2-6.2-4.3-6.6-.1zm106.4 57.4c10.6-5.5 21.1-11 31.7-16.5 3.8-2 .5-7.7-3.2-5.7-10.6 5.5-21.1 11-31.7 16.5-3.8 1.9-.5 7.6 3.2 5.7zm-237.6 58.6l-47.1-31.2c-3.5-2.3-6.9 3.3-3.4 5.6l47.1 31.2c3.5 2.3 6.9-3.3 3.4-5.6zM666 415.5c4.4-8.5 8.9-16.9 13.3-25.4 2-3.7-3.7-7.2-5.6-3.4-4.4 8.5-8.9 16.9-13.3 25.4-2 3.8 3.6 7.2 5.6 3.4z"/><path d="M457.9 632.5c3.5-29.8-14.1-56.3-31.7-78.5-17.6-22.3-37.5-45.1-40.3-74.7-2.5-26.8 8-53 23.2-74.5 7.9-11.2 17.3-21.4 27.7-30.4 4.2-3.6 7-5.8 12.1-8.5 26.1-13.9 58.6-17.5 86.9-8.7 21.8 6.8 40.2 20.8 54.8 38.1 9 10.6 17.2 22.4 21.6 35.7 4.2 12.9 5.4 26.7 4 40.2-1.4 13.7-5.4 27.2-11.9 39.3-6.6 12.4-15.5 23.3-23.7 34.6-8.3 11.4-16 23.4-20.2 37.1-4.6 15-5 30.9-6.6 46.5-.3 3.2-.2 7.2-1.7 10.2-.5 1-1.3 2-2.1 2.8-.5.5-1 .8-1.5 1.1-.8.5-.1-.2.2.5-1.5-3.9-7.9-2.3-6.4 1.6 2 5.2 6.9 5.6 11 2.4 5.5-4.2 6.1-10.2 6.8-16.6 1.9-16.9 2-34.3 7.8-50.5 10.1-28.3 34.9-48.3 46.5-75.9 11-26.1 12.3-57 1-83.1-5.7-13.1-14.9-25.1-24.5-35.5-8.4-9.2-18.1-17.4-28.8-23.8-31.5-18.9-70.4-20.4-104.3-7.2-5.2 2-10.2 4.3-15 7.1-6.9 4.1-12.9 9.7-18.6 15.3-20.2 19.8-37 45-43 73-2.9 13.5-3.2 27.4-.2 40.9 3.3 14.7 10.6 28.1 19.2 40.3 17.6 25 41.7 47.3 49.4 77.9 1.9 7.6 2.4 15.4 1.5 23.2-.3 4.1 6.3 4.2 6.8.1z"/><path d="M471.1 644.4c-8.5-.3-18.8 1.9-21.2 11.4-1.3 5 .4 10.3 3.6 14.3 3.6 4.5 9.1 6.3 14.4 7.9.3-2.1.7-4.3 1-6.4-8.6.9-14.7 9.7-12.9 18.2 1.6 7.5 9.6 13.1 16.9 9.3-1.3-1.7-2.6-3.5-3.9-5.2-6.6 6-3.4 17.5 3.8 21.5 4.7 2.6 10.3 2.3 15.5 2.1 6.6-.3 13.2-.7 19.8-1 9.3-.5 23.1 1.2 29.7-7.1 4.4-5.7 4.1-16.7-3.6-19.3-.3 2.1-.7 4.3-1 6.4 7.8-.5 16.1-3.8 18.5-11.9 1.8-6.2.1-14.4-6.6-16.8 0 2.1-.1 4.2-.1 6.3 5.8-1.9 8.3-7.6 8.4-13.3.1-6.8-2.9-13.1-8.8-16.7-6.9-4.2-15.4-3.9-23.2-4-10.2-.2-20.3.1-30.3 2.2-4.1.9-2.5 7.2 1.6 6.4 7.4-1.6 14.9-2.1 22.4-2.1 6.6 0 13.6-.4 20.1.9 5.3 1.1 10 3.9 11.3 9.4.7 3.2.9 9.5-3.1 10.8-3.1 1-3.2 5.2-.1 6.3 3.3 1.2 3 6.9 1.9 9.4-2 4.6-7.2 6.1-11.8 6.4-3.6.2-4.6 5.2-1 6.4 1.9.6 1.9 3.8 1.7 5.4-.4 3.1-2.5 5.2-5.4 6.3-3.1 1.2-6.6 1.2-9.8 1.3-4.5.2-8.9.5-13.4.7-7.9.4-16.2 1.6-24.2 1-3.6-.3-7-1.6-8.4-5.1-1-2.4-1.2-5.5.8-7.3 2.8-2.6-.6-6.9-3.9-5.2-3.5 1.8-6.8-2.1-7.3-5.2-.7-4 2.1-9.5 6.4-10 3.5-.4 4.8-5.3 1-6.4-6.4-1.9-16.4-6.3-13.3-15 2-5.6 9.6-6 14.6-5.8 4 .2 4.2-6.3-.1-6.5z"/><path d="M495.7 677.1c9.4-1.9 19.1-2.2 28.7-.7 4.1.6 6-5.7 1.8-6.3-10.8-1.7-21.5-1.5-32.1.7-4.2.8-2.6 7.2 1.6 6.3zm-36.6 25.8c13.2 2.5 26.3 1.1 38.6-4.2 3.9-1.7.6-7.4-3.2-5.7-10.5 4.5-22.3 5.8-33.5 3.6-4.2-.8-6.1 5.5-1.9 6.3zm24.2 24.6c10.8 11.4 31.6 8.9 39.2-4.9 2.1-3.7-3.5-7.1-5.6-3.4-5.6 10.1-20.9 12.1-28.9 3.7-2.9-3-7.6 1.6-4.7 4.6z"/><path d="M483.1 711.6c-.6 7.9 4.1 15.9 11.3 19.3 7.2 3.4 16.4 1.9 22.1-3.6 2.9-2.8 5-6.9 3.9-10.7-1.6-5.8-8.8-7.8-14.9-7.7-9.1.1-18.3 2.5-26.3 6.9" fill="#1f1f1d"/></svg>