<?xml version="1.0" encoding="utf-8"?>
<!-- Generator: Adobe Illustrator 23.0.2, SVG Export Plug-In . SVG Version: 6.00 Build 0)  -->
<svg version="1.1" id="Layer_1" xmlns="http://www.w3.org/2000/svg" xmlns:xlink="http://www.w3.org/1999/xlink" x="0px" y="0px"
	 viewBox="0 0 1000 1000" style="enable-background:new 0 0 1000 1000;" xml:space="preserve">
<style type="text/css">
	.st0{opacity:0.7;fill:#9FAFB3;}
	.st1{opacity:0.7;fill:#FFE30F;}
	.st2{fill:#1F1F1D;}
</style>
<g>
	<path class="st0" d="M481.9,646.4c-8.5-1.1-17.5,3.8-21.3,11.5c6.1,3.3,10.5,9.4,11.9,16.1c-4.8,1.3-8.9,5.3-10.1,10.2
		c1,4.6,4.5,8.6,8.9,10.3c-0.7,3.2-1.4,6.3-2,9.5c20.9,2.5,42.1,2,62.8-1.5c1-5.7-0.1-11.7-3.2-16.6c4.5-1.7,9.1-3.3,13.6-5
		c-2.5-9.2-3.8-19.4,0.9-27.7c-26.6-5.1-53.8-7.4-80.8-6.7"/>
	<path class="st1" d="M408.6,526.5c-25.7-38-23.5-93.8,4.1-130.3c27.7-36.5,78.1-51.2,119.9-36s72.6,58.6,75.7,105.2
		c0.8,12-0.1,24.3-4.4,35.5c-6.3,16.6-19.3,29.2-29.4,43.6c-11.4,16.3-19.2,35.4-22.7,55.3c-1.9,10.7-2.5,21.7-6.3,31.8
		c-9.6,25.2-27.9,20.3-47.6,13.3c-11.1-3.9-18.9,4-27.7-5c-12.8-13-17.7-46-24.6-62.3C437.2,557.7,420.5,544,408.6,526.5z"/>
	<path class="st1" d="M369.6,379.6c-7.3-8.5-15.8-16.3-23.7-23.7c-6.3-5.8-16-11.6-22.6-6.2c-4.2,3.4-4.5,10.1-2,14.9
		c2.5,4.8,7,8.2,11.5,11.2c7.9,5.2,18.3,11.5,28.8,15.5C368.6,394.1,374.5,385.4,369.6,379.6z"/>
	<path class="st1" d="M401.4,267c20.2,0.6,35.6,18.2,46,35.6c2.3,3.9,4.2,9.5,0.7,12.4c-1.9,1.6-4.7,1.5-7.2,1
		c-20.1-3.3-36.8-21.3-38.6-41.5"/>
	<path class="st1" d="M508,301.8c-8.3-14.5-8.3-33.3,0-47.8c16,12.8,16.9,40.1,1.9,54c-0.9,0.8-2,1.7-3.2,1.8
		c-1.9,0.1-3.4-1.6-4.5-3.1c-5.3-7.5-9.3-16.3-9.4-25.5c-0.2-9.2,4-18.8,11.9-23.6"/>
	<path class="st1" d="M639.5,296c-11.1-0.9-22.7,3-31,10.5c-2,1.8-1.7,5,0.6,6.3c5.9,3.6,13.2,4.8,19.9,3.1
		c6-1.5,11.3-5.4,14.8-10.5C646.5,301.6,644.1,296.3,639.5,296z"/>
	<path class="st1" d="M655.8,411.9c3.5-11.2,9.5-21.6,17.5-30.2c2.1-2.3,5-4.6,8-3.8c3,0.9,4.2,4.4,4.6,7.5
		c1.5,15.1-9.4,30.5-24.1,34"/>
	<g>
		<path d="M490.5,605.5c2.2-22.4,1.4-44.9-0.5-67.3c-1-11-2.2-21.9-3.4-32.9c-1-9.2-1.7-18.7-5.7-27.1c-3.5-7.3-10.3-13.5-18.5-14.7
			c-8.2-1.2-15.8,3.4-19.7,10.5c-8.6,15.9,2.7,34.1,15,44.5c12.4,10.5,28.7,16.5,45.1,16c16.4-0.5,32.1-7.9,43.4-19.7
			c5.5-5.7,9.9-12.3,13-19.6c2.9-6.9,6.2-16.2,2.2-23.3c-3.5-6.1-11-9.2-17.7-8.3c-8.2,1.1-14.7,7.6-18,14.8
			c-4.7,10-4.2,21.7-4.5,32.5c-0.3,12.4-0.6,24.9-0.7,37.4c0,12.2,0.2,24.4,1,36.6c0.7,10.6,0.5,22.9,6.7,32
			c2.3,3.5,8.1,0.3,5.7-3.2c-4.9-7.3-5-16.6-5.6-25.1c-0.6-9.1-1-18.2-1.1-27.3c-0.3-18.7,0.2-37.4,0.7-56
			c0.2-8.5,0.1-17.7,4.3-25.4c3.1-5.7,9-11,16-9.7c16.8,3.1,4.2,26.2-1.6,34.1c-17.3,23.7-49.6,30.2-75,15.8
			c-12.1-6.8-26.2-20.5-25.2-35.6c0.5-6.9,5.4-14.3,12.8-14.7c7.6-0.4,13.8,6.2,16.5,12.7c3.7,8.8,4,19,5,28.4
			c1.2,10.5,2.3,21,3.1,31.5c1.7,21,2.2,42,0.2,63C483.5,609.6,490.1,609.7,490.5,605.5L490.5,605.5z"/>
	</g>
	<g>
		<path d="M395.3,271.3c7.7,22.5,21.1,49.9,48.8,50c4.2,0,4.4-6.5,0.1-6.6c-24.4-0.1-35.8-25.4-42.5-45.1
			C400.3,265.7,393.9,267.3,395.3,271.3L395.3,271.3z"/>
	</g>
	<g>
		<path d="M503.1,261.4c-1.3,12.3-0.7,24.5,1.7,36.6c0.8,4.1,7.2,2.5,6.4-1.6c-2.3-11.5-2.7-23.2-1.5-34.9
			C510.1,257.3,503.5,257.2,503.1,261.4L503.1,261.4z"/>
	</g>
	<g>
		<path d="M609.5,318.8c10.6-5.5,21.1-11,31.7-16.5c3.8-2,0.5-7.7-3.2-5.7c-10.6,5.5-21.1,11-31.7,16.5
			C602.5,315,605.8,320.7,609.5,318.8L609.5,318.8z"/>
	</g>
	<g>
		<path d="M371.9,377.4c-15.7-10.4-31.4-20.8-47.1-31.2c-3.5-2.3-6.9,3.3-3.4,5.6c15.7,10.4,31.4,20.8,47.1,31.2
			C372,385.3,375.4,379.7,371.9,377.4L371.9,377.4z"/>
	</g>
	<g>
		<path d="M666,415.5c4.4-8.5,8.9-16.9,13.3-25.4c2-3.7-3.7-7.2-5.6-3.4c-4.4,8.5-8.9,16.9-13.3,25.4
			C658.4,415.9,664,419.3,666,415.5L666,415.5z"/>
	</g>
	<g>
		<path d="M457.9,632.5c3.5-29.8-14.1-56.3-31.7-78.5c-17.6-22.3-37.5-45.1-40.3-74.7c-2.5-26.8,8-53,23.2-74.5
			c7.9-11.2,17.3-21.4,27.7-30.4c4.2-3.6,7-5.8,12.1-8.5c26.1-13.9,58.6-17.5,86.9-8.7c21.8,6.8,40.2,20.8,54.8,38.1
			c9,10.6,17.2,22.4,21.6,35.7c4.2,12.9,5.4,26.7,4,40.2c-1.4,13.7-5.4,27.2-11.9,39.3c-6.6,12.4-15.5,23.3-23.7,34.6
			c-8.3,11.4-16,23.4-20.2,37.1c-4.6,15-5,30.9-6.6,46.5c-0.3,3.2-0.2,7.2-1.7,10.2c-0.5,1-1.3,2-2.1,2.8c-0.5,0.5-1,0.8-1.5,1.1
			c-0.8,0.5-0.1-0.2,0.2,0.5c-1.5-3.9-7.9-2.3-6.4,1.6c2,5.2,6.9,5.6,11,2.4c5.5-4.2,6.1-10.2,6.8-16.6c1.9-16.9,2-34.3,7.8-50.5
			c10.1-28.3,34.9-48.3,46.5-75.9c11-26.1,12.3-57,1-83.1c-5.7-13.1-14.9-25.1-24.5-35.5c-8.4-9.2-18.1-17.4-28.8-23.8
			c-31.5-18.9-70.4-20.4-104.3-7.2c-5.2,2-10.2,4.3-15,7.1c-6.9,4.1-12.9,9.7-18.6,15.3c-20.2,19.8-37,45-43,73
			c-2.9,13.5-3.2,27.4-0.2,40.9c3.3,14.7,10.6,28.1,19.2,40.3c17.6,25,41.7,47.3,49.4,77.9c1.9,7.6,2.4,15.4,1.5,23.2
			C450.8,636.5,457.4,636.6,457.9,632.5L457.9,632.5z"/>
	</g>
	<g>
		<path d="M471.1,644.4c-8.5-0.3-18.8,1.9-21.2,11.4c-1.3,5,0.4,10.3,3.6,14.3c3.6,4.5,9.1,6.3,14.4,7.9c0.3-2.1,0.7-4.3,1-6.4
			c-8.6,0.9-14.7,9.7-12.9,18.2c1.6,7.5,9.6,13.1,16.9,9.3c-1.3-1.7-2.6-3.5-3.9-5.2c-6.6,6-3.4,17.5,3.8,21.5
			c4.7,2.6,10.3,2.3,15.5,2.1c6.6-0.3,13.2-0.7,19.8-1c9.3-0.5,23.1,1.2,29.7-7.1c4.4-5.7,4.1-16.7-3.6-19.3c-0.3,2.1-0.7,4.3-1,6.4
			c7.8-0.5,16.1-3.8,18.5-11.9c1.8-6.2,0.1-14.4-6.6-16.8c0,2.1-0.1,4.2-0.1,6.3c5.8-1.9,8.3-7.6,8.4-13.3
			c0.1-6.8-2.9-13.1-8.8-16.7c-6.9-4.2-15.4-3.9-23.2-4c-10.2-0.2-20.3,0.1-30.3,2.2c-4.1,0.9-2.5,7.2,1.6,6.4
			c7.4-1.6,14.9-2.1,22.4-2.1c6.6,0,13.6-0.4,20.1,0.9c5.3,1.1,10,3.9,11.3,9.4c0.7,3.2,0.9,9.5-3.1,10.8c-3.1,1-3.2,5.2-0.1,6.3
			c3.3,1.2,3,6.9,1.9,9.4c-2,4.6-7.2,6.1-11.8,6.4c-3.6,0.2-4.6,5.2-1,6.4c1.9,0.6,1.9,3.8,1.7,5.4c-0.4,3.1-2.5,5.2-5.4,6.3
			c-3.1,1.2-6.6,1.2-9.8,1.3c-4.5,0.2-8.9,0.5-13.4,0.7c-7.9,0.4-16.2,1.6-24.2,1c-3.6-0.3-7-1.6-8.4-5.1c-1-2.4-1.2-5.5,0.8-7.3
			c2.8-2.6-0.6-6.9-3.9-5.2c-3.5,1.8-6.8-2.1-7.3-5.2c-0.7-4,2.1-9.5,6.4-10c3.5-0.4,4.8-5.3,1-6.4c-6.4-1.9-16.4-6.3-13.3-15
			c2-5.6,9.6-6,14.6-5.8C475.2,651.1,475.4,644.6,471.1,644.4L471.1,644.4z"/>
	</g>
	<g>
		<path d="M495.7,677.1c9.4-1.9,19.1-2.2,28.7-0.7c4.1,0.6,6-5.7,1.8-6.3c-10.8-1.7-21.5-1.5-32.1,0.7
			C489.9,671.6,491.5,678,495.7,677.1L495.7,677.1z"/>
	</g>
	<g>
		<path d="M459.1,702.9c13.2,2.5,26.3,1.1,38.6-4.2c3.9-1.7,0.6-7.4-3.2-5.7c-10.5,4.5-22.3,5.8-33.5,3.6
			C456.8,695.8,454.9,702.1,459.1,702.9L459.1,702.9z"/>
	</g>
	<g>
		<path d="M483.3,727.5c10.8,11.4,31.6,8.9,39.2-4.9c2.1-3.7-3.5-7.1-5.6-3.4c-5.6,10.1-20.9,12.1-28.9,3.7
			C485.1,719.9,480.4,724.5,483.3,727.5L483.3,727.5z"/>
	</g>
	<path class="st2" d="M483.1,711.6c-0.6,7.9,4.1,15.9,11.3,19.3c7.2,3.4,16.4,1.9,22.1-3.6c2.9-2.8,5-6.9,3.9-10.7
		c-1.6-5.8-8.8-7.8-14.9-7.7c-9.1,0.1-18.3,2.5-26.3,6.9"/>
</g>
</svg>
