<?xml version="1.0" encoding="utf-8"?>
<!-- Generator: Adobe Illustrator 23.0.2, SVG Export Plug-In . SVG Version: 6.00 Build 0)  -->
<svg version="1.1" id="Layer_1" xmlns="http://www.w3.org/2000/svg" xmlns:xlink="http://www.w3.org/1999/xlink" x="0px" y="0px"
	 viewBox="0 0 1000 1000" style="enable-background:new 0 0 1000 1000;" xml:space="preserve">
<style type="text/css">
	.st0{opacity:0.7;}
	.st1{fill:#D646F0;}
	.st2{fill:#FFF4D6;}
	.st3{fill:#F2ABFF;}
	.st4{fill:#860E9C;}
	.st5{fill:#38B6FF;}
	.st6{fill:#FF2BA7;}
	.st7{fill:#FFFFFF;}
</style>
<g>
	<g class="st0">
		<path class="st1" d="M835.1,537.5c1.4-0.9,2.8-1.7,4.2-2.6c-2.9-4-6.9-6.8-11.4-8.6c-2.7-3-5.7-5.8-8.7-8.4
			c-29.8-26.5-59.5-52.9-89.3-79.3c-6-5.3-12.8-10.9-20.5-11.2c-0.8-3.8-1.7-7.7-2.5-11.5c-3.2-14.6-6.8-29.9-15.5-41.7v0
			c-0.1-10.3-4.4-69-20.1-61.2c-10.5,5.2-7.1,27.2-1.9,44.4c-10.5-4.2-22.3-5.4-33.5-4.2c-18.4,1.9-35.8,9.4-52.8,16.8
			c-7.4-16-8.7-34.9-3.6-51.8c-6.3,5.1-14.8-6.5-10.7-13.5c4.2-7,13.4-8.4,21.5-8.8c8-0.4,17.2-0.9,22.4-7.1
			c-8.7-10.5-17.6-21.1-27.7-30.2c1.5-10.7-1.4-23-11.2-26.2c-3.1,3.8-6.1,7.5-9.2,11.3c-1.8-1-3.6-2-5.5-2.8
			c-9.9-4.6-21.6-7.9-26.9-17.5c-2.7-4.8-3.2-10.6-6.2-15.3c-2.9-4.7-10-7.5-13.6-3.4c2.8-12.8,5.5-25.5,8.2-38.3
			c-54.6,35.8-73,103.6-133.7,132.4c-50.8,24.2-47.4,96-56.8,145.4c-0.7,3.9-1.5,7.8-2.1,11.6c-18.8,10-39.3,25.2-56.7,37.4
			c-20,14-37.3,32.4-60,41.1c6.9,8.5,15.3,15.7,24.6,21.2c-8.9,6.1-18.3,12.8-22.1,23.1c-3.8,10.2,1.6,24.5,12.3,25.3
			c2.8,0.2,5.7-0.5,8.3,0.6c5.4,2.2-1.7,13-2.1,18.8c-2.3,28.8,9.5,55,20.3,81.8c6.4,15.9,17.2,32.4,33.9,35.1
			c13.7,2.2,26.8-5.8,38.5-13.4c10.9,47,23.9,93.4,38.7,139.3c-6.7,11.8-17.7,21-30.4,25.5c30.5,2.5,61,5,91.5,7.4
			c17,1.4,35,2.6,50.3-4.9s26.4-27.2,18.6-42.6c5.2,3.8,13.1,0.4,16.2-5.3c3.1-5.7,2.5-12.7,1.2-19.1c-3-14-9.3-26.3-17.3-37.6
			c29.5,2.8,59.2-0.8,88.1-8.3c-1.2,14.8-2.5,29.6-3.7,44.4c10.6-1.4,16.2,13.2,14.1,23.9c-2.1,10.7-14.5,32.8-11.6,43.3
			c4.8,17.6,34.7,8.2,52.5,6.8c25.9-2.1,51.7-4.2,77.6-6.3c6.1-0.5,13-1.4,16.6-6.4c3.6-4.8,2.6-11.6,1.9-17.6
			c-1-8.3-1.2-16.5-0.8-24.8c0.7-1,1.4-1.9,2-2.9c12.1-18.9,14.5-42.4,14.3-64.9c0-6-0.2-12.1-0.4-18.1c3.5-12.8,8-25.2,14.9-35.9
			c10.2-3.1,20.1-6.9,28.3-13.8c7.5-6.2,17.4-16.7,18.2-26.3c0.7-1-3-0.9-2.4-2c13.1-21.5-0.3-54.3,17.1-72.3
			c5.1-14.9,5.9-31.3,2.2-46.7c9.5,0.6,15.9-11.3,13.7-20.7C835.8,539.5,835.5,538.5,835.1,537.5z M570.1,243.3l0.4,3.7
			c-1.4-1-2.9-1.8-4.4-2.7C567.4,244,568.8,243.7,570.1,243.3z"/>
		<path class="st2" d="M461.7,401.2c6.2-16-2.5-35.3-17.1-44.4c-14.6-9.1-33.5-9.1-49.8-3.7c-14,4.7-26.8,13.4-35.1,25.5
			c-12.1,17.6-13.3,42.1-3,60.8s31.5,30.9,52.9,30.2c21.4-0.7,41.8-14.1,50.9-33.5c12-25.5,4.1-55.5-4.5-82.4"/>
		<path class="st2" d="M592.6,396.3c12.4-20,39.2-30.1,61.5-22.7c22.4,7.4,37.9,32,34.3,55.3c-3.6,23.3-26.3,42.2-49.9,41
			c-22.5-1.2-42-19.5-47.9-41.2c-5.9-21.7,0.5-45.6,13.7-63.9"/>
		<path class="st2" d="M457.9,528.9c-1.4,15.7,0.5,31.6,5.3,46.5c6.5-6.8,11.6-15,14.9-23.8c1.3-3.6,2.4-7.5,1.4-11.2
			c-1.2-4.6-5.6-7.9-10.2-9.2c-4.6-1.3-9.5-1.1-14.3-0.8"/>
		<path class="st2" d="M557.3,506.6c-0.2-10-0.3-19.9-0.4-29.9c11.3,5.4,21.2,13.7,28.5,24c-7.4,3.7-14.7,7.3-22.1,11"/>
		<path class="st3" d="M429.5,654.3c-8.8,3.4-18.5-6.6-17.4-16s9.9-16.3,19-18.9s18.8-1.8,28.2-1.8c25.8-0.1,51.3-6.3,75.2-16
			c11.2-4.5,25-9.6,34.4-2c5.1,4.1,7.2,10.7,9.9,16.7c14.1,32.3,49.2,55,53.5,90c3.8,31.5-20.5,60.9-49.6,73.4
			c-35.5,15.3-110.4,23.2-145.8,2.7C392.1,756.3,406.5,689.2,429.5,654.3z"/>
		<path class="st4" d="M451.3,347.8c-6.7-9.7-13.5-19.4-20.2-29.1c9.9-4,18.4-11.4,23.8-20.6c-22.7-3.9-45.8,2.9-67.9,9.7
			c-12.9,4-26.3,8.1-36.5,17c-6,5.1-17.8,19.8-11.3,27.9c5.4,6.7,22,0.7,28.3-0.4C379.1,350.2,444,337.2,451.3,347.8z"/>
		<path class="st4" d="M637.1,351.5c7.7-0.5,15.6-1.4,22.5-4.9c6.9-3.5,12.6-10.2,13-17.9c0.4-8.7-6.2-16.4-14-20.2
			c-13.9-6.7-51-11.5-65.7-7.1c-15,4.5-14.2,17.8-19.8,31.3c10.7,3,15.9,14.1,11.7,24.3C602,352.8,619.4,352.6,637.1,351.5z"/>
		<path class="st5" d="M385.3,88.8c-6.5,28.8-2.4,60.1,12.5,85.5c8.8,15.1,21.3,28.3,26.7,44.9c17.2,53.2-67.9,109.6-83,48.4
			C326.5,207,344.8,135.4,385.3,88.8z"/>
		<path class="st5" d="M612.1,280c-15.5-8.9-16.8-30.4-16.1-48.3c1.7-42.9,3.3-85.8,5-128.8c0.2-4.1,0.9-8.9,4.6-10.5
			c4.7-2,9.2,3.2,11.7,7.6c28.6,49.4,57.8,101.2,61.3,158.1c0.7,11.4-0.5,24.7-9.8,31.4c-9.5,6.9-22.7,3.6-33.6-0.5
			c-16.7-6.3-32.9-14.1-48.3-23.1"/>
		<path class="st6" d="M338.9,174.5c16.5-10.4,33.7-20,51.2-28.6c6.2,8.5,9.8,18.9,10,29.5c-25,11.1-48.4,25.8-69.1,43.6"/>
		<path class="st6" d="M410.2,207.4c-18.6,12.3-34.8,28.2-47.4,46.7c-2.5,3.6-4.9,7.9-3.6,12.1c1.3,4.4,6.3,6.7,10.9,6.4
			c4.5-0.3,8.6-2.7,12.5-5.1c20.7-13.2,38.7-30.8,52.5-51.1"/>
		<path class="st6" d="M666.6,180.7c1.7,21.6,3.5,43.1,5.2,64.7c-15.8-6.6-35.2,4.4-50.7-2.8c-12.7-5.9-32.8-45.1-18.6-54.8
			C607,184.6,668,198,666.6,180.7z"/>
		<path class="st6" d="M596.3,131.3c10.1,1.9,20.1,3.7,30.2,5.6c1.3-6.9,2.5-14.1,0.6-20.8s-7.9-12.9-14.9-12.5
			c-7.2,0.4-12.5,7.6-13.3,14.8c-0.8,7.2,1.7,14.3,4.2,21"/>
		<path class="st4" d="M254.1,731.2c-7.5,13.7-5.4,32,5,43.7c11.9-1.8,17.6-17.3,13-28.5s-15.9-18-27.1-22.2"/>
		<path class="st4" d="M289.8,753.4c-3.4,4.1-0.9,11.2,4.2,12.8c5.1,1.5,10.9-2.4,11.9-7.6s-2.3-10.7-7.1-12.9
			c-4.9-2.2-10.8-1.2-15.1,1.9"/>
		<path class="st4" d="M323.8,898.7c2.2-8.8,10.9-15.5,20-15.4s17.6,7,19.6,15.9c-15.9,4.6-33.2,4.3-48.9-0.9"/>
		<path class="st4" d="M362.6,900.2c10.1-6.5,20.6-13.2,32.5-14.6c11.9-1.4,25.6,4,29.5,15.4c-20.8,0.7-41.5,1.3-62.3,2"/>
		<path class="st4" d="M433.5,896.9c7.3-2.4,13.2-7.7,19.5-12.2c6.2-4.5,13.6-8.5,21.2-7.6c7.6,0.8,14.8,8.5,12.4,15.9
			c-2.5,7.6-12.3,9.4-20.3,9.3c-12-0.2-24.1-1.7-35.8-4.6"/>
		<path class="st4" d="M598.4,903.3c7-15.4,22.7-26.5,39.6-27.7c5.2-0.4,10.8,0.2,15.1,3.2s6.7,9.1,4.3,13.8
			c-2.2,4.2-7.2,6-11.9,6.7c-12,1.9-24.6-0.7-34.9-7.2"/>
		<path class="st4" d="M696.3,894c-5.7-6.1-2.5-17.8,5.6-20.1c8-2.2,16.9,6.2,15.1,14.4s-13.4,12-19.8,6.6"/>
		<path class="st4" d="M721.5,885.7c0.6-7.1,10.6-11.3,16.1-6.8s3.3,15.1-3.5,17.1"/>
		<path class="st4" d="M767.5,730.8c-1,6.6-1.9,13.8,1.2,19.7c3.2,5.9,12.2,8.9,16.6,3.8c3.3-3.8,2.3-9.4,1.1-14.3
			c-1.4-5.6-2.9-11.5-7-15.6c-4.1-4.1-11.7-5.2-15.4-0.8"/>
		<path class="st4" d="M808.9,696.8c-3.6,3-6.5,7.5-6.2,12.2c0.3,4.7,5.1,9.1,9.6,7.8c4.2-1.2,6-6.6,5-10.8
			c-1.1-4.3-4.2-7.6-7.3-10.8"/>
		<path class="st4" d="M494,678.3c0.4-9.2,11.1-16.1,19.8-13.2s13.1,14.3,9.2,22.6c-3.9,8.3-14.9,12.2-23.4,8.8
			c-8.5-3.4-13.7-13.2-12.4-22.3"/>
	</g>
	<path d="M464,418.1c4.9-12.6-4.6-28.4-17.9-30.5s-27.1,9.3-28,22.8s10.5,26.4,24,27.8c9.4,1,19.2-3.4,24.9-11
		c5.6-7.6,6.9-18.2,3.3-27"/>
	<path d="M586.3,430.5c-7.6-8.4-2.9-23.5,7.4-28.1s23.2,0.5,29.9,9.5c6.7,9.1,8.1,21.2,6.4,32.4c-1.1,7.2-4.1,15.1-10.8,18.1
		c-5.5,2.5-12.1,1-17-2.6s-8-8.9-10.4-14.4c-6.2-14.2-8-30.3-5-45.5"/>
	<path class="st7" d="M439.1,398.5c6.2-5.6,18-1.9,19.8,6.3c1.8,8.2-7.4,16.6-15.4,14S432.8,404.2,439.1,398.5"/>
	<path class="st7" d="M598.4,425.3c-1.8-4.7,0.9-10.7,5.7-12.3c3.9,2.4,6.4,7.3,5.3,11.7c-1.2,4.4-6.5,7.5-10.7,5.7
		c-4.2-1.9-5.1-8.8-1.1-11.1"/>
	<g>
		<path d="M355.2,286.8c-0.7,2.8-4.3,2.2-6.1,0.9c-2.7-2-3.8-5.7-4.8-8.8c-2.6-8.2-4.4-16.7-5.5-25.2c-2.2-16.2-2.5-32.8-1.8-49.2
			c1.3-31.1,7.7-62.8,25.2-89.1c8.9-13.4,20.5-24.8,34.4-32.9c-2-1.2-4-2.3-6-3.4c-7,53.3,10.8,108.5,47.3,148
			c3.5,3.8,9.1-1.9,5.7-5.7c-35.1-38.1-51.6-91.1-44.9-142.4c0.4-3.1-3.7-4.8-6-3.4c-30,17.5-48.8,48.8-57.1,81.9
			c-4.8,19-6.5,38.7-6.7,58.2c-0.2,19.8,1,39.8,6,59c2,7.6,4.4,17.7,12.4,21.1c6.2,2.6,14-0.2,15.7-6.9
			C364.2,283.9,356.5,281.8,355.2,286.8L355.2,286.8z"/>
	</g>
	<g>
		<path d="M439.1,252.6c3.4-10.7,8.6-20.8,15.5-29.7c3.3-4.3,7.1-8.3,11.1-11.9c1.4-1.3,14.5-12.6,15.2-5.8c0.4,4.1,6.9,5.9,7.9,1.1
			c3.7-19.6,18.9-35.3,38.3-39.7c-1.7-1.3-3.4-2.6-5.1-3.9c-2.1,16.2-7.4,31.7-15.4,45.8c-1.5,2.8,1.1,7.3,4.5,5.9
			c8.7-3.6,17.8-4.8,27.2-3.2c-0.3-2.4-0.6-4.9-1-7.3c-7.6,4.3-7.8,13.5-4.6,20.8c4,9.1,15.1,13.6,17.5,23.4c1.2,5,9,2.9,7.7-2.1
			c-1.9-7.7-7.7-12.6-13.1-18c-3.6-3.6-10.2-13.4-3.5-17.2c2.8-1.6,2.5-6.7-1-7.3c-10.7-1.9-21.3-0.9-31.4,3.2c1.5,2,3,3.9,4.5,5.9
			c8.8-15.5,14.2-32.2,16.5-49.9c0.4-2.7-2.8-4.4-5.1-3.9c-22,4.9-39.7,23.1-43.9,45.3c2.6,0.4,5.2,0.7,7.9,1.1
			c-0.7-6.9-6.9-11.1-13.7-9.6c-7.2,1.6-13.6,8.1-18.6,13.1c-11.7,11.7-20.2,26.1-25.2,41.8C429.9,255.4,437.6,257.5,439.1,252.6
			L439.1,252.6z"/>
	</g>
	<g>
		<path d="M556.6,236.7c5.6,0,11.2,0,16.7,0c5.2,0,5.2-8,0-8c-5.6,0-11.2,0-16.7,0C551.4,228.7,551.4,236.7,556.6,236.7L556.6,236.7
			z"/>
	</g>
	<g>
		<path d="M595.6,244.3c2.1-27.3,4.9-54.7,5.9-82.1c0.5-13.1,0.2-26.3-1.6-39.4c-1.3-9.2-5.6-20.8-2.1-29.9
			c5.3-13.8,19.7,0.7,24.1,7.3c6.8,10.4,12.8,21.6,18.4,32.7c11.6,22.7,21.2,46.4,28.9,70.7c4.2,13.2,7.7,26.6,10.7,40.1
			c3.2,14.9,6,30.2,3.2,45.4c-1,5,6.8,7.2,7.7,2.1c2.7-14.2,1.1-28.4-1.7-42.5c-2.7-13.6-6.1-27.1-10-40.3
			c-8-26.8-18.4-52.9-31-77.9c-6.3-12.5-12.8-25.6-21-36.9c-5.9-8.1-15.4-17-26.3-13.6c-9.9,3.1-12.4,13.7-11.9,22.9
			c0.3,4.9,1.2,9.7,2.1,14.5c1.5,7.8,2.2,15.7,2.6,23.7c0.7,16.7-0.5,33.4-1.8,50c-1.4,17.7-2.7,35.5-4.1,53.2
			C587.2,249.4,595.2,249.4,595.6,244.3L595.6,244.3z"/>
	</g>
	<g>
		<path d="M354.4,324.4c28.5-9.3,56.9-18.8,85.4-28c5.3-1.7,15-5.2,18.7,1.3c2.5,4.4-2.1,6.3-5.5,7.3c-7.5,2.1-15.9,2.5-20.4,9.8
			c-1.2,2-0.2,4.2,1.4,5.5c10.4,7.9,15.6,21.6,13.3,34.4c1.3-1,2.6-2,3.9-2.9c-21.3-1.4-42.6-1.5-63.9-0.2
			c-16.5,1-33.4,2.9-46.5,13.8c2.2,0.6,4.5,1.2,6.7,1.8c-2.6-11.8-2.1-23.7,1.2-35.3c1.4-5-6.3-7.1-7.7-2.1
			c-3.7,13-4.1,26.4-1.2,39.5c0.7,3.2,4.5,3.5,6.7,1.8c12.8-10.6,31-11,46.8-11.8c19.3-1,38.7-0.8,58,0.5c1.6,0.1,3.6-1.3,3.9-2.9
			c3-16.7-3.5-33.2-17-43.5c0.5,1.8,1,3.6,1.4,5.5c2.5-4,8.4-4.4,12.5-5.4c4-0.9,8.5-2,11.5-5c9.2-8.8-0.4-21.5-10.9-22.4
			c-7.7-0.7-15.4,2.8-22.6,5.1c-8.9,2.9-17.7,5.8-26.5,8.7c-17.1,5.6-34.1,11.2-51.2,16.8C347.4,318.3,349.5,326,354.4,324.4
			L354.4,324.4z"/>
	</g>
	<g>
		<path d="M674.4,352.2c-0.4-7.5-1.2-15-2.2-22.5c-1-6.7-1.7-14.2-4.4-20.4c-5.3-12.2-20.7-12.2-32.1-13.6
			c-15.5-1.9-31.1-2.9-46.7-3c-11.6-0.1-26.6-1.8-35.5,7.2c-2.3,2.3-1,5.6,1.8,6.7c11,4.5,22,8.9,33,13.4c-0.3-2.4-0.6-4.9-1-7.3
			c-5.3,3.9-9.8,8.5-13.4,14.1c-2.5,3.8-7.8,11.9-4.8,16.2c2.5,3.7,7.4,3.8,11.4,3.8c0.9,0,2.2-0.3,3,0c1.6,0.6,1.2-0.9,0.2,1.3
			c-1.8,3.9-4.3,7.5-6.4,11.2c-1.8,3.2,1.2,6.6,4.5,5.9c31.8-6.7,64-10.5,96.5-11.3c5.1-0.1,5.2-8.1,0-8
			c-33.2,0.8-66.2,4.7-98.6,11.6c1.5,2,3,3.9,4.5,5.9c3.1-5.4,12.1-15.9,6.2-22c-1.8-1.9-4.4-2.4-6.9-2.5c-1.7-0.1-6.9,0.9-8-0.5
			c0.1,1,0.3,2,0.4,3.1c2.8-8.7,8-16.3,15.4-21.7c2.9-2.2,2.3-6-1-7.3c-11-4.5-22-8.9-33-13.4c0.6,2.2,1.2,4.5,1.8,6.7
			c3.9-4,9.4-4.6,14.7-4.8c6-0.2,12-0.2,18.1-0.1c12.7,0.2,25.4,1,38,2.3c6.2,0.6,12.4,1.3,18.6,2.4c5.5,1,10.6,2.6,12.5,8.4
			c4,12,4.8,25.8,5.5,38.4C666.7,357.3,674.7,357.4,674.4,352.2L674.4,352.2z"/>
	</g>
	<g>
		<path d="M598.4,251.1c-1.8-5.5-9-6.3-11.9-1.2c-2.9,5.1-0.4,12.9,1.9,17.8c6.4,13.7,20,21.2,33.5,26.4
			c14.8,5.7,31.5,12.4,47.7,10.2c12.9-1.8,25.2-10,28.7-23c1.3-5-6.4-7.1-7.7-2.1c-2.4,9.2-10.7,14.8-19.6,16.8
			c-11.3,2.6-23.2-1.2-33.9-4.9c-10-3.4-20.5-6.8-29.2-12.9c-4-2.8-7.7-6.4-10.3-10.5c-1.4-2.2-2.6-4.6-3.3-7.2
			c-0.3-1-0.5-1.9-0.7-2.9c-0.2-0.9-0.2-1.8-0.2-2.7c0.3-1.4-0.6-1.9-2.7-1.7C592.2,258.1,600,256,598.4,251.1L598.4,251.1z"/>
	</g>
	<g>
		<path d="M351.9,284.5c14.4,14.1,36.9,18.8,55.6,10.6c18.6-8.1,30.5-27.9,29.9-48c-0.2-5.1-8.2-5.2-8,0c0.5,17-9.2,33.7-25,40.7
			c-15.6,6.9-34.8,2.9-46.9-9C353.8,275.2,348.2,280.9,351.9,284.5L351.9,284.5z"/>
	</g>
	<g>
		<path d="M328.3,382.1c-4.8,35.1-10.6,76.1-41.8,98.2c-2.5,1.8-2.6,5.2,0,6.9c10.2,6.7,21.5,10.7,33.6,12.2c-1.1-2-2.3-4-3.5-6
			c-3.9,6.3-7.9,12.6-11.8,19c-2.8,4.6-4.5,9.8-0.1,14c2.5,2.4,4.3,2.9,4,6.9c-0.2,3.4-1,6.9-1.5,10.3c-1.1,7.5-2.3,14.9-3.4,22.4
			c-0.8,5,6.9,7.2,7.7,2.1c1-6.8,2.1-13.7,3.1-20.5c0.9-5.8,3.1-12.8,2-18.6c-0.4-2.3-1.5-4.3-3.2-6c-0.8-0.7-2.6-1.4-3-2.2
			c-0.7-1.5,0.6-3.1,1.3-4.3c3.9-6.4,7.8-12.7,11.8-19c1.8-2.9-0.6-5.7-3.5-6c-10.6-1.4-20.6-5.2-29.5-11.1c0,2.3,0,4.6,0,6.9
			c33.2-23.7,40.4-65.3,45.5-103C336.7,379.2,329,377,328.3,382.1L328.3,382.1z"/>
	</g>
	<g>
		<path d="M671.3,308.4c5.2,8.6,8.5,18.5,11.6,28c4,12,7.5,24.1,11,36.2c2.8,9.9,5.5,19.8,8.7,29.5c1.8,5.5,3.8,11,9.5,13.6
			c3.4,1.5,7.1,1.9,10.4,3.6c3.8,2,6.9,4.9,9.3,8.5c0.5-1.8,1-3.6,1.4-5.5c-7.5,5.4-15.6,9.8-24.3,13.1c-2.2,0.8-4,3.6-2.4,5.9
			c5.7,8,11.8,15.7,18.3,23c0.6-2.2,1.2-4.5,1.8-6.7c-7.8,3.1-8.9,11.1-7.6,18.6c2.1,12.1,6.7,24.1,10.1,35.9
			c1.4,4.9,9.1,2.8,7.7-2.1c-2.5-8.9-5.1-17.8-7.6-26.7c-1-3.5-5.8-15.9-0.4-18c2.8-1.1,3.9-4.3,1.8-6.7c-6.1-6.8-11.7-14-17-21.4
			c-0.8,2-1.6,3.9-2.4,5.9c9.3-3.5,18.1-8,26.2-13.9c1.7-1.2,2.7-3.5,1.4-5.5c-3.9-5.9-9.2-10.5-15.8-13c-3.7-1.4-8-1.4-10.4-4.9
			c-1.4-2-2-5-2.8-7.4c-3.2-10.1-6-20.3-8.9-30.5c-3.5-12.1-7-24.2-11.1-36.1c-3.2-9.3-6.5-19-11.6-27.5
			C675.5,300,668.6,304,671.3,308.4L671.3,308.4z"/>
	</g>
	<g>
		<path d="M301,653c-2.6,21.7-5.2,43.4-7.8,65.1c-0.8,6.4-3.5,17,4.9,19.6c3.9,1.2,8.7-0.2,12.5-1.3c4.7-1.3,9.1-3.3,13.4-5.7
			c-2-1.5-3.9-3-5.9-4.5c-4.4,23.2,3.3,47,8.2,69.5c5.4,24.4,10.8,48.7,16.2,73.1c2.6-0.7,5.1-1.4,7.7-2.1c-0.8-2.3-1.6-4.6-2.4-6.8
			c-1.7-4.8-9.4-2.8-7.7,2.1c0.8,2.3,1.6,4.6,2.4,6.8c1.7,4.8,8.8,2.9,7.7-2.1c-5.1-23.1-10.2-46.2-15.3-69.2
			c-2.5-11.1-5-22.2-7.3-33.3c-2.4-11.8-4.1-23.9-1.8-35.9c0.6-3.4-2.7-6.3-5.9-4.5c-3.7,2-7.4,3.7-11.5,4.9c-3.1,0.9-8.6,3.1-8.2-2
			c0.6-8.1,1.9-16.2,2.9-24.3c2-16.4,3.9-32.9,5.9-49.3C309.6,647.9,301.6,648,301,653L301,653z"/>
	</g>
	<g>
		<path d="M361.9,859.7c-19.4,16-41.3,28.8-64.6,38.1c-4,1.6-3.8,7.9,1.1,7.9c42.6,0,85.3-0.1,127.9-0.1c10.7,0,21.3,0,32,0
			c9.3,0,19.6,1.3,28.7-0.5c8-1.6,11.1-7.7,11.5-15.3c0.6-10.1,0.5-20.4,0.8-30.5c-2.6,0.3-5.2,0.7-7.9,1.1c0.9,6.3,7.1,9.7,13,9.5
			c7.4-0.2,12.8-5.6,14.5-12.6c4.9-19.6-12.7-39.2-4.2-58.6c2-4.7-4.9-8.8-6.9-4c-6.2,14.3-1.7,28.7,1.9,43.1
			c1.5,6.3,3.7,14.2,0.5,20.3c-2.1,3.9-10.2,6.2-11.1,0.2c-0.7-4.6-7.8-3.3-7.9,1.1c-0.2,9.7-0.4,19.3-0.7,29
			c-0.2,4.4-0.6,8.2-5.7,9.1c-4,0.7-8.5,0.2-12.6,0.2c-19.3,0-38.6,0-58,0c-38.6,0-77.3,0.1-115.9,0.1c0.4,2.6,0.7,5.2,1.1,7.9
			c24.7-9.8,47.6-23.2,68.2-40.2C371.6,862.1,365.9,856.5,361.9,859.7L361.9,859.7z"/>
	</g>
	<g>
		<path d="M361.8,904.9c8.5-9.8,17-19.5,25.5-29.3c3.4-3.9-2.3-9.5-5.7-5.7c-8.5,9.8-17,19.5-25.5,29.3
			C352.8,903.2,358.4,908.8,361.8,904.9L361.8,904.9z"/>
	</g>
	<g>
		<path d="M428.6,898.3c7.8-2.6,14.1-7.3,19-13.9c3.1-4.1-3.9-8.1-6.9-4c-3.6,4.8-8.6,8.3-14.2,10.2
			C421.7,892.2,423.8,899.9,428.6,898.3L428.6,898.3z"/>
	</g>
	<g>
		<path d="M563,770.3c-2.1,17-4.2,34.1-6.3,51.2c-0.7,5.4-3.1,13,2.2,16.8c3,2.2,6.8,1.6,10.1,0.6c1.7-0.5,3.4-1.2,5.1-1.8
			c0.9-0.3,1.7-0.6,2.6-0.8c1.2-0.2,1,0.3,0.5-0.4c0.8,1.2-2.2,7.7-2.6,9.2c-1.1,4.3-2.1,8.6-3,13c-3.1,15.9-4.4,32.2-3.9,48.4
			c0.1,2.1,1.8,4.1,4,4c37.6-2.3,75-6,112.3-11c3.2-0.4,3.5-4.7,1.8-6.7c-5.5-6.2-9.8-13.3-12.9-21c-1.9-4.7-9.6-2.7-7.7,2.1
			c3.6,9.1,8.5,17.2,15,24.5c0.6-2.2,1.2-4.5,1.8-6.7c-36.6,5-73.3,8.5-110.2,10.8c1.3,1.3,2.7,2.7,4,4c-0.5-16.8,0.8-33.5,4.4-50
			c0.8-3.7,1.7-7.4,2.7-11.1c0.9-3.3,2.6-7,2.2-10.5c-0.4-3.8-3.2-6.5-7.1-6.7c-3.6-0.2-6.9,1.5-10.3,2.6c-0.7,0.2-3.5,1.4-4.2,0.9
			c-0.7-0.5,1-9.1,1.2-10.3c2.1-17,4.2-34.1,6.3-51.2C571.6,765.2,563.6,765.2,563,770.3L563,770.3z"/>
	</g>
	<g>
		<path d="M673.7,902.6c21,2.7,42.2,0.6,62.2-6.1c2.7-0.9,4.1-4.6,1.8-6.7c-9.9-8.9-17.8-19.5-23.6-31.5c-2.2-4.6-9.2-0.6-6.9,4
			c6.1,12.5,14.5,23.7,24.9,33.1c0.6-2.2,1.2-4.5,1.8-6.7c-19.5,6.5-39.8,8.4-60.1,5.8C668.6,894,668.6,902,673.7,902.6L673.7,902.6
			z"/>
	</g>
	<g>
		<path d="M728.5,898.3c7-0.5,13.5-2.3,19.8-5.6c2.3-1.2,2.5-4.5,0.8-6.3c-9.3-9.5-16.2-20.7-20.5-33.3c-1.6-4.8-9.4-2.8-7.7,2.1
			c4.7,13.9,12.2,26.3,22.5,36.8c0.3-2.1,0.5-4.2,0.8-6.3c-4.9,2.6-10.1,4.1-15.7,4.5C723.4,890.6,723.4,898.6,728.5,898.3
			L728.5,898.3z"/>
	</g>
	<g>
		<path d="M730.2,865.6c21.3-44.8,31.2-94.5,28.4-144c-2.3,0.9-4.5,1.9-6.8,2.8c6.3,5.6,15,6.7,22.3,2.3c1.4-0.8,2.5-2.9,1.8-4.5
			c-13.5-34.8-27.6-69.4-42.1-103.8c-1.8,1.8-3.7,3.7-5.5,5.5c9,5,18,9.9,27,14.8c2.5,1.3,6.3-0.3,6-3.5
			c-5.4-62-19.2-123.1-41.3-181.3c-1.8-4.8-9.5-2.7-7.7,2.1c21.8,57.5,35.7,117.9,41,179.2c2-1.2,4-2.3,6-3.5c-9-5-18-9.9-27-14.8
			c-3.8-2.1-7,2-5.5,5.5c14.3,33.8,28.1,67.8,41.3,101.9c0.6-1.5,1.2-3,1.8-4.5c-4.1,2.4-9,2.2-12.6-1c-2.4-2.2-7-0.8-6.8,2.8
			c2.7,48.1-6.7,96.4-27.3,140C721.1,866.2,728,870.3,730.2,865.6L730.2,865.6z"/>
	</g>
	<g>
		<path d="M702.3,435c5.2,0,5.2-8,0-8C697.1,427,697.1,435,702.3,435L702.3,435z"/>
	</g>
	<g>
		<path d="M297.6,460.7c-29.4,10.9-54.5,30.8-71.6,57c1.1-0.7,2.3-1.3,3.4-2c-19.5-2.4-38.9,7.3-49.3,23.8c-1.1,1.7-0.5,4.5,1.4,5.5
			c12.9,6.2,26.4,10.1,40.6,11.7c-1.1-2-2.3-4-3.4-6c-7.6,14.6-24.7,26.4-21.9,44.8c1.9,12.6,17.7,21.5,28.1,12.2
			c-2.2-1.3-4.5-2.6-6.7-3.9c-12,30.9-0.2,63.9,13.9,91.9c12.4,24.7,29.4,57.6,61.4,57.5c6.3,0,15.3-1.5,19.8-6.6
			c4.7-5.3-1.7-11.6-7.1-7.3c-1,0.8-1.4,2.7-1,3.9c0.1,0.2,0.1,0.4,0.2,0.6c1.6,4.9,9.3,2.8,7.7-2.1c-0.1-0.2-0.1-0.4-0.2-0.6
			c-0.3,1.3-0.7,2.6-1,3.9c0.2-0.2,0.4-0.3,0.5-0.5c-0.9,0.4-1.9,0.8-2.8,1.2c0.3,0,0.5-0.1,0.8-0.1c-0.9-0.4-1.9-0.8-2.8-1.2
			c0.2,0.2,0.4,0.3,0.6,0.5c-0.4-0.9-0.8-1.9-1.2-2.8c0.5-1,0.1-1-1.1,0.1c-1,0.6-2,1-3.1,1.4c-1.4,0.5-2.8,0.9-4.3,1.1
			c-3.7,0.7-7.6,0.5-11.3-0.2c-7-1.4-13.4-4.6-18.8-9.2c-11.7-9.9-19-24.1-26-37.4c-14.7-27.8-28.4-60.9-16.4-92.1
			c1.6-4-4-6.3-6.7-3.9c-3.5,3.1-8.9,1.2-11.8-1.9c-4.1-4.2-3.4-10.8-1.5-15.9c4.1-11.2,14.1-19,19.6-29.5c1.5-2.9-0.4-5.7-3.4-6
			c-12.7-1.5-25-5.1-36.5-10.6c0.5,1.8,1,3.7,1.4,5.5c9-14.3,25.7-21.8,42.4-19.8c1.4,0.2,2.7-0.9,3.4-2
			c16-24.4,39.5-43.2,66.8-53.3C304.5,466.6,302.4,458.9,297.6,460.7L297.6,460.7z"/>
	</g>
	<g>
		<path d="M243.9,713.7c-2.2,9.3-3.1,19-2.3,28.5c0.8,8.9,2.5,19,7.1,26.8c3.6,6.1,10.4,10.1,16.8,5.3c6.6-5,10.5-14.7,13-22.3
			c1.6-4.9-6.1-7-7.7-2.1c-1.9,5.9-4.7,12.4-9,17c-5.2,5.6-8.9-8.5-9.7-11.8c-3.5-12.9-3.5-26.4-0.4-39.4
			C252.8,710.8,245.1,708.7,243.9,713.7L243.9,713.7z"/>
	</g>
	<g>
		<path d="M275.2,748.1c5.1,12,14.4,26.7,29.9,21.6c5.8-1.9,9.4-7,9.7-13c0.3-7.1-4.6-14.2-2.5-21.2c1.5-5-6.3-7.1-7.7-2.1
			c-1.4,4.8-0.6,9.5,0.6,14.2c1.1,4.3,3.5,10.6-1,13.8c-4,2.8-9.8,0.8-13.1-2.2c-4.3-4-6.6-9.8-8.9-15.2
			C280.1,739.3,273.2,743.4,275.2,748.1L275.2,748.1z"/>
	</g>
	<g>
		<path d="M720.2,432.3c15.3,9.5,30.7,19,44.8,30.2c13.7,11,24.5,23.8,35.5,37.2c4.8,5.8,9.9,11.4,16.2,15.6
			c7,4.8,14.6,6.2,22.6,8.4c8.1,2.2,18.5,10.5,8,17.3c-8.4,5.4-17.3,10.1-26,15.1c-2.2,1.3-2.7,4.5-0.8,6.3
			c4.7,4.4,9.2,9.5,11.8,15.5c1.1,2.5,2,5.5,1.5,8.3c-0.6,3.6-3.2,5.3-5.7,7.5c-4.4,3.9-5.3,8.6-4.2,14.2c0.5,2.5,1.8,5.2,1.6,7.8
			c-0.3,3.6-4.5,4.4-6.9,6.4c-4.5,3.8-5,9.6-4.7,15.1c0.4,7.3,0.8,14.6,0.4,21.9c-0.8,14.5-4.3,29.9-13.8,41.2
			c-9.5,11.5-24.6,19.1-39.6,15.5c-5-1.2-7.1,6.5-2.1,7.7c14,3.4,28.2-0.9,39.3-9.8c12.1-9.6,19.2-23.6,22.2-38.6
			c1.6-8.1,2.2-16.4,2.2-24.6c0-4-0.2-7.9-0.5-11.8c-0.3-4.4-1-8.9,3.2-11.5c5.5-3.5,9-6.9,8.1-13.8c-0.4-3.2-2-6.4-1.9-9.7
			c0.1-3.8,4.3-5.5,6.5-8.1c10.9-12.6-2.2-30-11.7-38.9c-0.3,2.1-0.5,4.2-0.8,6.3c7.7-4.5,15.4-8.9,23-13.4
			c5.3-3.1,10.9-6.5,11.5-13.3c1.6-15.9-16.4-19.5-27.7-22.7c-14.1-4-23-15.9-31.7-26.9c-9.6-12.1-20.3-22.8-32.5-32.2
			c-13.9-10.8-28.8-20.1-43.7-29.4C719.9,422.6,715.9,429.5,720.2,432.3L720.2,432.3z"/>
	</g>
	<g>
		<path d="M804.6,688.1c6.7,10.9,12,22.4,15.9,34.6c1.3-1.7,2.6-3.4,3.9-5.1c-9.3,0.3-18.1-3.7-23.5-11.3c-3-4.2-9.9-0.2-6.9,4
			c7.1,9.9,18.2,15.7,30.4,15.3c2.5-0.1,4.7-2.5,3.9-5.1c-4-12.8-9.6-25.1-16.7-36.5C808.8,679.7,801.9,683.7,804.6,688.1
			L804.6,688.1z"/>
	</g>
	<g>
		<path d="M781.1,719c4.1,15.1,4.2,30.6,0.3,45.7c2-0.8,3.9-1.6,5.9-2.4c-11.3-7.3-19.2-19.3-21-32.8c-0.7-5-8.7-5.1-8,0
			c2.2,16.4,11,30.7,25,39.7c2.2,1.4,5.2,0,5.9-2.4c4.3-16.5,4.2-33.5-0.3-50C787.5,711.9,779.8,714,781.1,719L781.1,719z"/>
	</g>
	<g>
		<path d="M429,519.2c53.3,34.3,116.9,6,167.4-18.9c4.6-2.3,0.6-9.2-4-6.9C544.5,517,483.7,544.9,433,512.3
			C428.7,509.5,424.6,516.4,429,519.2L429,519.2z"/>
	</g>
	<g>
		<path d="M556.2,519.3c-1.9-16.2-1.1-32.5,2.6-48.4c-2,0.8-3.9,1.6-5.9,2.4c13.2,10,25,21.9,34.9,35.2c3,4.1,10,0.1,6.9-4
			c-10.8-14.5-23.3-27.2-37.7-38.1c-2-1.5-5.3,0.1-5.9,2.4c-3.8,16.6-4.8,33.6-2.8,50.6C548.8,524.3,556.8,524.4,556.2,519.3
			L556.2,519.3z"/>
	</g>
	<g>
		<path d="M444.7,521.8c1.1,11,3,22,5.8,32.7c1.4,5.3,3,10.6,4.8,15.8c1.3,3.7,2.5,8.5,6,10.8c7.9,5.2,14.1-6.8,17.3-12.1
			c5.6-9.1,9.6-19.1,12.3-29.5c1.3-5-6.4-7.1-7.7-2.1c-1.9,7.5-4.6,14.7-8.1,21.5c-1.9,3.6-3.9,7-6.2,10.3c-0.4,0.6-2.6,4.3-3.2,4.4
			c-1.2,0.2-1.7-2.8-2.1-3.8c-5.6-15.5-9.3-31.7-11-48.1C452.2,516.7,444.2,516.6,444.7,521.8L444.7,521.8z"/>
	</g>
	<g>
		<path d="M634.7,362.3c-22.4-1.4-43.6,13.5-51.8,34c-8.3,20.7-1.1,44.6,14.2,60c16.6,16.6,41.7,21,63.6,13.6
			c21.8-7.3,43-26.8,38.2-51.7c-2.7-14.1-11.6-29.1-20.9-39.9c-9.1-10.7-22.3-17.6-36.5-15.1c-5.1,0.9-2.9,8.6,2.1,7.7
			c11.4-2,21.7,4.8,28.7,13.1c7.1,8.4,13.3,19.3,16.9,29.7c4,11.4,2.6,22.2-5.2,31.5c-6.3,7.5-14.8,13.2-24.1,16.6
			c-17.8,6.5-38.7,4.7-53.5-7.7c-13.9-11.5-22.3-30.8-18-48.8c4.9-20.7,25-36.2,46.2-34.9C639.9,370.6,639.8,362.6,634.7,362.3
			L634.7,362.3z"/>
	</g>
	<g>
		<path d="M393.1,359.5c-24.5-9.9-45.3,19-49.9,39.6c-5,22.7,2.3,47.6,23.5,59.3c21.6,11.9,52.3,14.2,75,4.3
			c26.1-11.3,35.1-39.2,33.8-65.9c-0.8-14.8-5.1-30.7-16.7-40.7c-10.4-8.9-24.7-12.3-37.5-6.6c-4.7,2.1-0.6,9,4,6.9
			c9.7-4.4,21.3-0.7,28.8,6.2c8.7,8,12.2,20.2,13.1,31.6c1.8,22.3-3.6,47.5-24.7,59c-18.3,10-41.8,8.7-61.2,2.6
			c-10.7-3.4-20.3-9.3-26-19.1c-4.6-7.9-6.2-17.2-5.8-26.3c0.5-10.4,3.9-20.8,9.9-29.3c6.8-9.8,19.2-18.9,31.4-14
			C395.8,369.2,397.9,361.5,393.1,359.5L393.1,359.5z"/>
	</g>
	<g>
		<path d="M464.4,405.5c3.5-11.1-4.1-21.8-14.4-25.9c-11.1-4.5-22.8,0.7-30,9.7c-13.9,17.4-13.1,52.2,14,55
			c10.9,1.1,22.5-3.9,27.3-14.1c2.2-4.6-4.7-8.7-6.9-4c-3.6,7.7-12.2,11.3-20.4,10.1c-11.8-1.7-16-13-14.9-23.9
			c1-10.6,7.2-22.7,18.1-25.9c9.8-2.9,22.9,6,19.5,16.9C455.1,408.3,462.8,410.4,464.4,405.5L464.4,405.5z"/>
	</g>
	<g>
		<path d="M595.4,448.4c-6.6-10-11.8-23.2-7.2-35.1c3.8-9.7,15.8-17.7,26-12.5c9.9,5.1,15.5,17.6,16.9,28c1.6,11.3-1.1,22.6-7.6,32
			c-3,4.2,4,8.2,6.9,4c8.2-11.8,10.8-26.5,8-40.5c-2.6-13-11.3-28.7-25.1-32.5c-12.7-3.5-26.2,5-31.6,16.5
			c-6.9,14.5-1.5,31.4,6.8,44.1C591.3,456.7,598.2,452.7,595.4,448.4L595.4,448.4z"/>
	</g>
	<g>
		<path d="M454.7,625.2c-15.9-8.7-35.9-8.5-51.5,0.8c-5.8,3.4-16.1,10.8-9.6,18.2c3.3,3.7,8.9,6,13.1,8.6c5.4,3.3,10.8,6.5,16.1,9.8
			c-0.3-2.1-0.5-4.2-0.8-6.3c-11.1,12.9-21.6,27.7-24.4,44.9c-2.4,14.9,1,30.7,11.9,41.7c3.6,3.7,9.3-2,5.7-5.7
			c-9.5-9.5-12.1-23.9-9.3-36.8c3.2-14.7,12.2-27.3,21.8-38.5c1.7-2,1.5-4.9-0.8-6.3c-7.5-4.6-15.1-9.1-22.6-13.7
			c-0.8-0.5-4.6-2.3-4.6-2.9c0-0.7,1.7-2,2.4-2.6c2.6-2.3,5.8-4.2,9-5.6c12.5-5.8,27.5-5.4,39.6,1.2
			C455.2,634.6,459.2,627.7,454.7,625.2L454.7,625.2z"/>
	</g>
	<g>
		<path d="M518.1,618.5c12.9-7.5,26.8-13,41.5-16.1c3-0.7,8.2-2.2,10.9,0.2c2.2,2,1.7,5.3,0.9,7.8c-2.1,6.2-7.1,10.9-9,17.3
			c-0.6,2.2,1.2,5.4,3.9,5.1c14-1.8,27.8,3.4,37.3,13.8c4.8,5.3,7.2,11.3,9.4,18c2.5,7.3,6.5,10.6,13,14.4
			c11.8,6.8,14.7,21.9,9.9,34c-5.7,14.5-20.9,22.8-34.9,27.2c-4.9,1.5-2.8,9.2,2.1,7.7c23.6-7.3,47.4-26.3,42.3-53.8
			c-1-5.4-3.2-10.5-6.6-14.8c-1.7-2.1-3.6-3.9-5.8-5.4c-2.9-2-6.5-3.2-9-5.6c-4.5-4.3-5.1-12.6-8.1-18.1c-2.8-5.1-6.7-9.8-11.2-13.6
			c-10.7-8.9-24.6-13.7-38.5-11.8c1.3,1.7,2.6,3.4,3.9,5.1c2.3-8,9.3-13.5,9.9-22.2c0.5-7.5-4.2-13.4-11.8-14.1
			c-8.8-0.8-19,2.9-27.1,5.7c-9.4,3.2-18.4,7.4-27,12.4C509.6,614.2,513.6,621.2,518.1,618.5L518.1,618.5z"/>
	</g>
	<g>
		<path d="M494.5,676.1c4.1,0,8.1-0.9,12.1-1.8c3.3-0.8,9.5-2.8,11.7,1c2.3,3.8-1.7,8.5-5,10c-4.9,2.2-10.6,1.4-15.8,1
			c-5.1-0.5-5.1,7.5,0,8c7.3,0.7,15.5,1.1,21.8-3.2c4.9-3.3,8.2-9.5,7.3-15.5c-2.6-16.7-22.2-7.4-32.3-7.5
			C489.3,668,489.3,676,494.5,676.1L494.5,676.1z"/>
	</g>
	<g>
		<path d="M463.2,792.8c58.5,4.5,117.6-8.5,168.8-37c4.5-2.5,0.5-9.4-4-6.9c-50.1,27.8-107.7,40.3-164.8,35.8
			C458.1,784.4,458.1,792.5,463.2,792.8L463.2,792.8z"/>
	</g>
</g>
</svg>
