<svg xmlns="http://www.w3.org/2000/svg" width="1000" height="1000"><style>.st4{fill:#860e9c}</style><g opacity=".7"><path d="M835.1 537.5c1.4-.9 2.8-1.7 4.2-2.6-2.9-4-6.9-6.8-11.4-8.6-2.7-3-5.7-5.8-8.7-8.4-29.8-26.5-59.5-52.9-89.3-79.3-6-5.3-12.8-10.9-20.5-11.2-.8-3.8-1.7-7.7-2.5-11.5-3.2-14.6-6.8-29.9-15.5-41.7-.1-10.3-4.4-69-20.1-61.2-10.5 5.2-7.1 27.2-1.9 44.4-10.5-4.2-22.3-5.4-33.5-4.2-18.4 1.9-35.8 9.4-52.8 16.8-7.4-16-8.7-34.9-3.6-51.8-6.3 5.1-14.8-6.5-10.7-13.5 4.2-7 13.4-8.4 21.5-8.8 8-.4 17.2-.9 22.4-7.1-8.7-10.5-17.6-21.1-27.7-30.2 1.5-10.7-1.4-23-11.2-26.2-3.1 3.8-6.1 7.5-9.2 11.3-1.8-1-3.6-2-5.5-2.8-9.9-4.6-21.6-7.9-26.9-17.5-2.7-4.8-3.2-10.6-6.2-15.3-2.9-4.7-10-7.5-13.6-3.4 2.8-12.8 5.5-25.5 8.2-38.3-54.6 35.8-73 103.6-133.7 132.4-50.8 24.2-47.4 96-56.8 145.4-.7 3.9-1.5 7.8-2.1 11.6-18.8 10-39.3 25.2-56.7 37.4-20 14-37.3 32.4-60 41.1 6.9 8.5 15.3 15.7 24.6 21.2-8.9 6.1-18.3 12.8-22.1 23.1-3.8 10.2 1.6 24.5 12.3 25.3 2.8.2 5.7-.5 8.3.6 5.4 2.2-1.7 13-2.1 18.8-2.3 28.8 9.5 55 20.3 81.8 6.4 15.9 17.2 32.4 33.9 35.1 13.7 2.2 26.8-5.8 38.5-13.4 10.9 47 23.9 93.4 38.7 139.3-6.7 11.8-17.7 21-30.4 25.5 30.5 2.5 61 5 91.5 7.4 17 1.4 35 2.6 50.3-4.9s26.4-27.2 18.6-42.6c5.2 3.8 13.1.4 16.2-5.3 3.1-5.7 2.5-12.7 1.2-19.1-3-14-9.3-26.3-17.3-37.6 29.5 2.8 59.2-.8 88.1-8.3-1.2 14.8-2.5 29.6-3.7 44.4 10.6-1.4 16.2 13.2 14.1 23.9-2.1 10.7-14.5 32.8-11.6 43.3 4.8 17.6 34.7 8.2 52.5 6.8 25.9-2.1 51.7-4.2 77.6-6.3 6.1-.5 13-1.4 16.6-6.4 3.6-4.8 2.6-11.6 1.9-17.6-1-8.3-1.2-16.5-.8-24.8.7-1 1.4-1.9 2-2.9 12.1-18.9 14.5-42.4 14.3-64.9 0-6-.2-12.1-.4-18.1 3.5-12.8 8-25.2 14.9-35.9 10.2-3.1 20.1-6.9 28.3-13.8 7.5-6.2 17.4-16.7 18.2-26.3.7-1-3-.9-2.4-2 13.1-21.5-.3-54.3 17.1-72.3 5.1-14.9 5.9-31.3 2.2-46.7 9.5.6 15.9-11.3 13.7-20.7-.6-1.4-.9-2.4-1.3-3.4zm-265-294.2l.4 3.7c-1.4-1-2.9-1.8-4.4-2.7 1.3-.3 2.7-.6 4-1z" fill="#d646f0"/><path d="M461.7 401.2c6.2-16-2.5-35.3-17.1-44.4-14.6-9.1-33.5-9.1-49.8-3.7-14 4.7-26.8 13.4-35.1 25.5-12.1 17.6-13.3 42.1-3 60.8s31.5 30.9 52.9 30.2c21.4-.7 41.8-14.1 50.9-33.5 12-25.5 4.1-55.5-4.5-82.4m136.6 42.6c12.4-20 39.2-30.1 61.5-22.7 22.4 7.4 37.9 32 34.3 55.3-3.6 23.3-26.3 42.2-49.9 41-22.5-1.2-42-19.5-47.9-41.2-5.9-21.7.5-45.6 13.7-63.9M457.9 528.9c-1.4 15.7.5 31.6 5.3 46.5 6.5-6.8 11.6-15 14.9-23.8 1.3-3.6 2.4-7.5 1.4-11.2-1.2-4.6-5.6-7.9-10.2-9.2-4.6-1.3-9.5-1.1-14.3-.8m102.3-23.8c-.2-10-.3-19.9-.4-29.9 11.3 5.4 21.2 13.7 28.5 24-7.4 3.7-14.7 7.3-22.1 11" fill="#fff4d6"/><path d="M429.5 654.3c-8.8 3.4-18.5-6.6-17.4-16s9.9-16.3 19-18.9 18.8-1.8 28.2-1.8c25.8-.1 51.3-6.3 75.2-16 11.2-4.5 25-9.6 34.4-2 5.1 4.1 7.2 10.7 9.9 16.7 14.1 32.3 49.2 55 53.5 90 3.8 31.5-20.5 60.9-49.6 73.4-35.5 15.3-110.4 23.2-145.8 2.7-44.8-26.1-30.4-93.2-7.4-128.1z" fill="#f2abff"/><path class="st4" d="M451.3 347.8c-6.7-9.7-13.5-19.4-20.2-29.1 9.9-4 18.4-11.4 23.8-20.6-22.7-3.9-45.8 2.9-67.9 9.7-12.9 4-26.3 8.1-36.5 17-6 5.1-17.8 19.8-11.3 27.9 5.4 6.7 22 .7 28.3-.4 11.6-2.1 76.5-15.1 83.8-4.5zm185.8 3.7c7.7-.5 15.6-1.4 22.5-4.9 6.9-3.5 12.6-10.2 13-17.9.4-8.7-6.2-16.4-14-20.2-13.9-6.7-51-11.5-65.7-7.1-15 4.5-14.2 17.8-19.8 31.3 10.7 3 15.9 14.1 11.7 24.3 17.2-4.2 34.6-4.4 52.3-5.5z"/><path d="M385.3 88.8c-6.5 28.8-2.4 60.1 12.5 85.5 8.8 15.1 21.3 28.3 26.7 44.9 17.2 53.2-67.9 109.6-83 48.4-15-60.6 3.3-132.2 43.8-178.8zM612.1 280c-15.5-8.9-16.8-30.4-16.1-48.3 1.7-42.9 3.3-85.8 5-128.8.2-4.1.9-8.9 4.6-10.5 4.7-2 9.2 3.2 11.7 7.6 28.6 49.4 57.8 101.2 61.3 158.1.7 11.4-.5 24.7-9.8 31.4-9.5 6.9-22.7 3.6-33.6-.5-16.7-6.3-32.9-14.1-48.3-23.1" fill="#38b6ff"/><path d="M338.9 174.5c16.5-10.4 33.7-20 51.2-28.6 6.2 8.5 9.8 18.9 10 29.5-25 11.1-48.4 25.8-69.1 43.6m79.2-11.6c-18.6 12.3-34.8 28.2-47.4 46.7-2.5 3.6-4.9 7.9-3.6 12.1 1.3 4.4 6.3 6.7 10.9 6.4 4.5-.3 8.6-2.7 12.5-5.1 20.7-13.2 38.7-30.8 52.5-51.1m231.5-35.7c1.7 21.6 3.5 43.1 5.2 64.7-15.8-6.6-35.2 4.4-50.7-2.8-12.7-5.9-32.8-45.1-18.6-54.8 4.5-3.2 65.5 10.2 64.1-7.1zm-70.3-49.4c10.1 1.9 20.1 3.7 30.2 5.6 1.3-6.9 2.5-14.1.6-20.8s-7.9-12.9-14.9-12.5c-7.2.4-12.5 7.6-13.3 14.8-.8 7.2 1.7 14.3 4.2 21" fill="#ff2ba7"/><path class="st4" d="M254.1 731.2c-7.5 13.7-5.4 32 5 43.7 11.9-1.8 17.6-17.3 13-28.5s-15.9-18-27.1-22.2m44.8 29.2c-3.4 4.1-.9 11.2 4.2 12.8 5.1 1.5 10.9-2.4 11.9-7.6s-2.3-10.7-7.1-12.9c-4.9-2.2-10.8-1.2-15.1 1.9m40.1 151.1c2.2-8.8 10.9-15.5 20-15.4s17.6 7 19.6 15.9c-15.9 4.6-33.2 4.3-48.9-.9m48.1 1.9c10.1-6.5 20.6-13.2 32.5-14.6 11.9-1.4 25.6 4 29.5 15.4-20.8.7-41.5 1.3-62.3 2m71.2-6.1c7.3-2.4 13.2-7.7 19.5-12.2 6.2-4.5 13.6-8.5 21.2-7.6 7.6.8 14.8 8.5 12.4 15.9-2.5 7.6-12.3 9.4-20.3 9.3-12-.2-24.1-1.7-35.8-4.6m167.9 5.6c7-15.4 22.7-26.5 39.6-27.7 5.2-.4 10.8.2 15.1 3.2s6.7 9.1 4.3 13.8c-2.2 4.2-7.2 6-11.9 6.7-12 1.9-24.6-.7-34.9-7.2m85.7 1.9c-5.7-6.1-2.5-17.8 5.6-20.1 8-2.2 16.9 6.2 15.1 14.4s-13.4 12-19.8 6.6m24.3-9.2c.6-7.1 10.6-11.3 16.1-6.8s3.3 15.1-3.5 17.1m33.4-165.2c-1 6.6-1.9 13.8 1.2 19.7 3.2 5.9 12.2 8.9 16.6 3.8 3.3-3.8 2.3-9.4 1.1-14.3-1.4-5.6-2.9-11.5-7-15.6s-11.7-5.2-15.4-.8m44.9-26.8c-3.6 3-6.5 7.5-6.2 12.2.3 4.7 5.1 9.1 9.6 7.8 4.2-1.2 6-6.6 5-10.8-1.1-4.3-4.2-7.6-7.3-10.8m-316-16.9c.4-9.2 11.1-16.1 19.8-13.2s13.1 14.3 9.2 22.6c-3.9 8.3-14.9 12.2-23.4 8.8-8.5-3.4-13.7-13.2-12.4-22.3"/></g><path d="M464 418.1c4.9-12.6-4.6-28.4-17.9-30.5s-27.1 9.3-28 22.8 10.5 26.4 24 27.8c9.4 1 19.2-3.4 24.9-11 5.6-7.6 6.9-18.2 3.3-27m116 30.3c-7.6-8.4-2.9-23.5 7.4-28.1s23.2.5 29.9 9.5c6.7 9.1 8.1 21.2 6.4 32.4-1.1 7.2-4.1 15.1-10.8 18.1-5.5 2.5-12.1 1-17-2.6s-8-8.9-10.4-14.4c-6.2-14.2-8-30.3-5-45.5"/><path d="M439.1 398.5c6.2-5.6 18-1.9 19.8 6.3 1.8 8.2-7.4 16.6-15.4 14s-10.7-14.6-4.4-20.3m159.3 26.8c-1.8-4.7.9-10.7 5.7-12.3 3.9 2.4 6.4 7.3 5.3 11.7-1.2 4.4-6.5 7.5-10.7 5.7-4.2-1.9-5.1-8.8-1.1-11.1" fill="#fff"/><path d="M355.2 286.8c-.7 2.8-4.3 2.2-6.1.9-2.7-2-3.8-5.7-4.8-8.8-2.6-8.2-4.4-16.7-5.5-25.2-2.2-16.2-2.5-32.8-1.8-49.2 1.3-31.1 7.7-62.8 25.2-89.1 8.9-13.4 20.5-24.8 34.4-32.9-2-1.2-4-2.3-6-3.4-7 53.3 10.8 108.5 47.3 148 3.5 3.8 9.1-1.9 5.7-5.7-35.1-38.1-51.6-91.1-44.9-142.4.4-3.1-3.7-4.8-6-3.4-30 17.5-48.8 48.8-57.1 81.9-4.8 19-6.5 38.7-6.7 58.2-.2 19.8 1 39.8 6 59 2 7.6 4.4 17.7 12.4 21.1 6.2 2.6 14-.2 15.7-6.9 1.2-5-6.5-7.1-7.8-2.1z"/><path d="M439.1 252.6c3.4-10.7 8.6-20.8 15.5-29.7 3.3-4.3 7.1-8.3 11.1-11.9 1.4-1.3 14.5-12.6 15.2-5.8.4 4.1 6.9 5.9 7.9 1.1 3.7-19.6 18.9-35.3 38.3-39.7l-5.1-3.9c-2.1 16.2-7.4 31.7-15.4 45.8-1.5 2.8 1.1 7.3 4.5 5.9 8.7-3.6 17.8-4.8 27.2-3.2-.3-2.4-.6-4.9-1-7.3-7.6 4.3-7.8 13.5-4.6 20.8 4 9.1 15.1 13.6 17.5 23.4 1.2 5 9 2.9 7.7-2.1-1.9-7.7-7.7-12.6-13.1-18-3.6-3.6-10.2-13.4-3.5-17.2 2.8-1.6 2.5-6.7-1-7.3-10.7-1.9-21.3-.9-31.4 3.2 1.5 2 3 3.9 4.5 5.9 8.8-15.5 14.2-32.2 16.5-49.9.4-2.7-2.8-4.4-5.1-3.9-22 4.9-39.7 23.1-43.9 45.3 2.6.4 5.2.7 7.9 1.1-.7-6.9-6.9-11.1-13.7-9.6-7.2 1.6-13.6 8.1-18.6 13.1-11.7 11.7-20.2 26.1-25.2 41.8-1.4 4.9 6.3 7 7.8 2.1z"/><path d="M556.6 236.7h16.7c5.2 0 5.2-8 0-8h-16.7c-5.2 0-5.2 8 0 8zm39 7.6c2.1-27.3 4.9-54.7 5.9-82.1.5-13.1.2-26.3-1.6-39.4-1.3-9.2-5.6-20.8-2.1-29.9 5.3-13.8 19.7.7 24.1 7.3 6.8 10.4 12.8 21.6 18.4 32.7 11.6 22.7 21.2 46.4 28.9 70.7 4.2 13.2 7.7 26.6 10.7 40.1 3.2 14.9 6 30.2 3.2 45.4-1 5 6.8 7.2 7.7 2.1 2.7-14.2 1.1-28.4-1.7-42.5-2.7-13.6-6.1-27.1-10-40.3-8-26.8-18.4-52.9-31-77.9-6.3-12.5-12.8-25.6-21-36.9-5.9-8.1-15.4-17-26.3-13.6-9.9 3.1-12.4 13.7-11.9 22.9.3 4.9 1.2 9.7 2.1 14.5 1.5 7.8 2.2 15.7 2.6 23.7.7 16.7-.5 33.4-1.8 50-1.4 17.7-2.7 35.5-4.1 53.2-.5 5.1 7.5 5.1 7.9 0zm-241.2 80.1c28.5-9.3 56.9-18.8 85.4-28 5.3-1.7 15-5.2 18.7 1.3 2.5 4.4-2.1 6.3-5.5 7.3-7.5 2.1-15.9 2.5-20.4 9.8-1.2 2-.2 4.2 1.4 5.5 10.4 7.9 15.6 21.6 13.3 34.4 1.3-1 2.6-2 3.9-2.9-21.3-1.4-42.6-1.5-63.9-.2-16.5 1-33.4 2.9-46.5 13.8 2.2.6 4.5 1.2 6.7 1.8-2.6-11.8-2.1-23.7 1.2-35.3 1.4-5-6.3-7.1-7.7-2.1-3.7 13-4.1 26.4-1.2 39.5.7 3.2 4.5 3.5 6.7 1.8 12.8-10.6 31-11 46.8-11.8 19.3-1 38.7-.8 58 .5 1.6.1 3.6-1.3 3.9-2.9 3-16.7-3.5-33.2-17-43.5.5 1.8 1 3.6 1.4 5.5 2.5-4 8.4-4.4 12.5-5.4 4-.9 8.5-2 11.5-5 9.2-8.8-.4-21.5-10.9-22.4-7.7-.7-15.4 2.8-22.6 5.1-8.9 2.9-17.7 5.8-26.5 8.7-17.1 5.6-34.1 11.2-51.2 16.8-5 1.6-2.9 9.3 2 7.7zm320 27.8c-.4-7.5-1.2-15-2.2-22.5-1-6.7-1.7-14.2-4.4-20.4-5.3-12.2-20.7-12.2-32.1-13.6-15.5-1.9-31.1-2.9-46.7-3-11.6-.1-26.6-1.8-35.5 7.2-2.3 2.3-1 5.6 1.8 6.7 11 4.5 22 8.9 33 13.4-.3-2.4-.6-4.9-1-7.3-5.3 3.9-9.8 8.5-13.4 14.1-2.5 3.8-7.8 11.9-4.8 16.2 2.5 3.7 7.4 3.8 11.4 3.8.9 0 2.2-.3 3 0 1.6.6 1.2-.9.2 1.3-1.8 3.9-4.3 7.5-6.4 11.2-1.8 3.2 1.2 6.6 4.5 5.9 31.8-6.7 64-10.5 96.5-11.3 5.1-.1 5.2-8.1 0-8-33.2.8-66.2 4.7-98.6 11.6 1.5 2 3 3.9 4.5 5.9 3.1-5.4 12.1-15.9 6.2-22-1.8-1.9-4.4-2.4-6.9-2.5-1.7-.1-6.9.9-8-.5.1 1 .3 2 .4 3.1 2.8-8.7 8-16.3 15.4-21.7 2.9-2.2 2.3-6-1-7.3-11-4.5-22-8.9-33-13.4.6 2.2 1.2 4.5 1.8 6.7 3.9-4 9.4-4.6 14.7-4.8 6-.2 12-.2 18.1-.1 12.7.2 25.4 1 38 2.3 6.2.6 12.4 1.3 18.6 2.4 5.5 1 10.6 2.6 12.5 8.4 4 12 4.8 25.8 5.5 38.4.2 4.9 8.2 5 7.9-.2z"/><path d="M598.4 251.1c-1.8-5.5-9-6.3-11.9-1.2-2.9 5.1-.4 12.9 1.9 17.8 6.4 13.7 20 21.2 33.5 26.4 14.8 5.7 31.5 12.4 47.7 10.2 12.9-1.8 25.2-10 28.7-23 1.3-5-6.4-7.1-7.7-2.1-2.4 9.2-10.7 14.8-19.6 16.8-11.3 2.6-23.2-1.2-33.9-4.9-10-3.4-20.5-6.8-29.2-12.9-4-2.8-7.7-6.4-10.3-10.5-1.4-2.2-2.6-4.6-3.3-7.2-.3-1-.5-1.9-.7-2.9-.2-.9-.2-1.8-.2-2.7.3-1.4-.6-1.9-2.7-1.7 1.5 4.9 9.3 2.8 7.7-2.1zm-246.5 33.4c14.4 14.1 36.9 18.8 55.6 10.6 18.6-8.1 30.5-27.9 29.9-48-.2-5.1-8.2-5.2-8 0 .5 17-9.2 33.7-25 40.7-15.6 6.9-34.8 2.9-46.9-9-3.7-3.6-9.3 2.1-5.6 5.7zm-23.6 97.6c-4.8 35.1-10.6 76.1-41.8 98.2-2.5 1.8-2.6 5.2 0 6.9 10.2 6.7 21.5 10.7 33.6 12.2-1.1-2-2.3-4-3.5-6-3.9 6.3-7.9 12.6-11.8 19-2.8 4.6-4.5 9.8-.1 14 2.5 2.4 4.3 2.9 4 6.9-.2 3.4-1 6.9-1.5 10.3-1.1 7.5-2.3 14.9-3.4 22.4-.8 5 6.9 7.2 7.7 2.1 1-6.8 2.1-13.7 3.1-20.5.9-5.8 3.1-12.8 2-18.6-.4-2.3-1.5-4.3-3.2-6-.8-.7-2.6-1.4-3-2.2-.7-1.5.6-3.1 1.3-4.3 3.9-6.4 7.8-12.7 11.8-19 1.8-2.9-.6-5.7-3.5-6-10.6-1.4-20.6-5.2-29.5-11.1v6.9c33.2-23.7 40.4-65.3 45.5-103 .7-5.1-7-7.3-7.7-2.2z"/><path d="M671.3 308.4c5.2 8.6 8.5 18.5 11.6 28 4 12 7.5 24.1 11 36.2 2.8 9.9 5.5 19.8 8.7 29.5 1.8 5.5 3.8 11 9.5 13.6 3.4 1.5 7.1 1.9 10.4 3.6 3.8 2 6.9 4.9 9.3 8.5.5-1.8 1-3.6 1.4-5.5-7.5 5.4-15.6 9.8-24.3 13.1-2.2.8-4 3.6-2.4 5.9 5.7 8 11.8 15.7 18.3 23 .6-2.2 1.2-4.5 1.8-6.7-7.8 3.1-8.9 11.1-7.6 18.6 2.1 12.1 6.7 24.1 10.1 35.9 1.4 4.9 9.1 2.8 7.7-2.1-2.5-8.9-5.1-17.8-7.6-26.7-1-3.5-5.8-15.9-.4-18 2.8-1.1 3.9-4.3 1.8-6.7-6.1-6.8-11.7-14-17-21.4-.8 2-1.6 3.9-2.4 5.9 9.3-3.5 18.1-8 26.2-13.9 1.7-1.2 2.7-3.5 1.4-5.5-3.9-5.9-9.2-10.5-15.8-13-3.7-1.4-8-1.4-10.4-4.9-1.4-2-2-5-2.8-7.4-3.2-10.1-6-20.3-8.9-30.5-3.5-12.1-7-24.2-11.1-36.1-3.2-9.3-6.5-19-11.6-27.5-2.7-4.3-9.6-.3-6.9 4.1zM301 653l-7.8 65.1c-.8 6.4-3.5 17 4.9 19.6 3.9 1.2 8.7-.2 12.5-1.3 4.7-1.3 9.1-3.3 13.4-5.7-2-1.5-3.9-3-5.9-4.5-4.4 23.2 3.3 47 8.2 69.5 5.4 24.4 10.8 48.7 16.2 73.1 2.6-.7 5.1-1.4 7.7-2.1-.8-2.3-1.6-4.6-2.4-6.8-1.7-4.8-9.4-2.8-7.7 2.1.8 2.3 1.6 4.6 2.4 6.8 1.7 4.8 8.8 2.9 7.7-2.1-5.1-23.1-10.2-46.2-15.3-69.2-2.5-11.1-5-22.2-7.3-33.3-2.4-11.8-4.1-23.9-1.8-35.9.6-3.4-2.7-6.3-5.9-4.5-3.7 2-7.4 3.7-11.5 4.9-3.1.9-8.6 3.1-8.2-2 .6-8.1 1.9-16.2 2.9-24.3 2-16.4 3.9-32.9 5.9-49.3.6-5.2-7.4-5.1-8-.1z"/><path d="M361.9 859.7c-19.4 16-41.3 28.8-64.6 38.1-4 1.6-3.8 7.9 1.1 7.9 42.6 0 85.3-.1 127.9-.1h32c9.3 0 19.6 1.3 28.7-.5 8-1.6 11.1-7.7 11.5-15.3.6-10.1.5-20.4.8-30.5-2.6.3-5.2.7-7.9 1.1.9 6.3 7.1 9.7 13 9.5 7.4-.2 12.8-5.6 14.5-12.6 4.9-19.6-12.7-39.2-4.2-58.6 2-4.7-4.9-8.8-6.9-4-6.2 14.3-1.7 28.7 1.9 43.1 1.5 6.3 3.7 14.2.5 20.3-2.1 3.9-10.2 6.2-11.1.2-.7-4.6-7.8-3.3-7.9 1.1-.2 9.7-.4 19.3-.7 29-.2 4.4-.6 8.2-5.7 9.1-4 .7-8.5.2-12.6.2h-58c-38.6 0-77.3.1-115.9.1.4 2.6.7 5.2 1.1 7.9 24.7-9.8 47.6-23.2 68.2-40.2 4-3.4-1.7-9-5.7-5.8z"/><path d="M361.8 904.9c8.5-9.8 17-19.5 25.5-29.3 3.4-3.9-2.3-9.5-5.7-5.7-8.5 9.8-17 19.5-25.5 29.3-3.3 4 2.3 9.6 5.7 5.7zm66.8-6.6c7.8-2.6 14.1-7.3 19-13.9 3.1-4.1-3.9-8.1-6.9-4-3.6 4.8-8.6 8.3-14.2 10.2-4.8 1.6-2.7 9.3 2.1 7.7zm134.4-128c-2.1 17-4.2 34.1-6.3 51.2-.7 5.4-3.1 13 2.2 16.8 3 2.2 6.8 1.6 10.1.6 1.7-.5 3.4-1.2 5.1-1.8.9-.3 1.7-.6 2.6-.8 1.2-.2 1 .3.5-.4.8 1.2-2.2 7.7-2.6 9.2-1.1 4.3-2.1 8.6-3 13-3.1 15.9-4.4 32.2-3.9 48.4.1 2.1 1.8 4.1 4 4 37.6-2.3 75-6 112.3-11 3.2-.4 3.5-4.7 1.8-6.7-5.5-6.2-9.8-13.3-12.9-21-1.9-4.7-9.6-2.7-7.7 2.1 3.6 9.1 8.5 17.2 15 24.5.6-2.2 1.2-4.5 1.8-6.7-36.6 5-73.3 8.5-110.2 10.8l4 4c-.5-16.8.8-33.5 4.4-50 .8-3.7 1.7-7.4 2.7-11.1.9-3.3 2.6-7 2.2-10.5-.4-3.8-3.2-6.5-7.1-6.7-3.6-.2-6.9 1.5-10.3 2.6-.7.2-3.5 1.4-4.2.9-.7-.5 1-9.1 1.2-10.3 2.1-17 4.2-34.1 6.3-51.2.6-5-7.4-5-8 .1z"/><path d="M673.7 902.6c21 2.7 42.2.6 62.2-6.1 2.7-.9 4.1-4.6 1.8-6.7-9.9-8.9-17.8-19.5-23.6-31.5-2.2-4.6-9.2-.6-6.9 4 6.1 12.5 14.5 23.7 24.9 33.1.6-2.2 1.2-4.5 1.8-6.7-19.5 6.5-39.8 8.4-60.1 5.8-5.2-.5-5.2 7.5-.1 8.1z"/><path d="M728.5 898.3c7-.5 13.5-2.3 19.8-5.6 2.3-1.2 2.5-4.5.8-6.3-9.3-9.5-16.2-20.7-20.5-33.3-1.6-4.8-9.4-2.8-7.7 2.1 4.7 13.9 12.2 26.3 22.5 36.8.3-2.1.5-4.2.8-6.3-4.9 2.6-10.1 4.1-15.7 4.5-5.1.4-5.1 8.4 0 8.1z"/><path d="M730.2 865.6c21.3-44.8 31.2-94.5 28.4-144-2.3.9-4.5 1.9-6.8 2.8 6.3 5.6 15 6.7 22.3 2.3 1.4-.8 2.5-2.9 1.8-4.5-13.5-34.8-27.6-69.4-42.1-103.8l-5.5 5.5c9 5 18 9.9 27 14.8 2.5 1.3 6.3-.3 6-3.5-5.4-62-19.2-123.1-41.3-181.3-1.8-4.8-9.5-2.7-7.7 2.1 21.8 57.5 35.7 117.9 41 179.2 2-1.2 4-2.3 6-3.5-9-5-18-9.9-27-14.8-3.8-2.1-7 2-5.5 5.5 14.3 33.8 28.1 67.8 41.3 101.9l1.8-4.5c-4.1 2.4-9 2.2-12.6-1-2.4-2.2-7-.8-6.8 2.8 2.7 48.1-6.7 96.4-27.3 140-2.1 4.6 4.8 8.7 7 4zM702.3 435c5.2 0 5.2-8 0-8s-5.2 8 0 8zm-404.7 25.7c-29.4 10.9-54.5 30.8-71.6 57 1.1-.7 2.3-1.3 3.4-2-19.5-2.4-38.9 7.3-49.3 23.8-1.1 1.7-.5 4.5 1.4 5.5 12.9 6.2 26.4 10.1 40.6 11.7-1.1-2-2.3-4-3.4-6-7.6 14.6-24.7 26.4-21.9 44.8 1.9 12.6 17.7 21.5 28.1 12.2-2.2-1.3-4.5-2.6-6.7-3.9-12 30.9-.2 63.9 13.9 91.9 12.4 24.7 29.4 57.6 61.4 57.5 6.3 0 15.3-1.5 19.8-6.6 4.7-5.3-1.7-11.6-7.1-7.3-1 .8-1.4 2.7-1 3.9.1.2.1.4.2.6 1.6 4.9 9.3 2.8 7.7-2.1-.1-.2-.1-.4-.2-.6-.3 1.3-.7 2.6-1 3.9.2-.2.4-.3.5-.5-.9.4-1.9.8-2.8 1.2.3 0 .5-.1.8-.1-.9-.4-1.9-.8-2.8-1.2.2.2.4.3.6.5-.4-.9-.8-1.9-1.2-2.8.5-1 .1-1-1.1.1-1 .6-2 1-3.1 1.4-1.4.5-2.8.9-4.3 1.1-3.7.7-7.6.5-11.3-.2-7-1.4-13.4-4.6-18.8-9.2-11.7-9.9-19-24.1-26-37.4-14.7-27.8-28.4-60.9-16.4-92.1 1.6-4-4-6.3-6.7-3.9-3.5 3.1-8.9 1.2-11.8-1.9-4.1-4.2-3.4-10.8-1.5-15.9 4.1-11.2 14.1-19 19.6-29.5 1.5-2.9-.4-5.7-3.4-6-12.7-1.5-25-5.1-36.5-10.6.5 1.8 1 3.7 1.4 5.5 9-14.3 25.7-21.8 42.4-19.8 1.4.2 2.7-.9 3.4-2 16-24.4 39.5-43.2 66.8-53.3 4.8-1.8 2.7-9.5-2.1-7.7z"/><path d="M243.9 713.7c-2.2 9.3-3.1 19-2.3 28.5.8 8.9 2.5 19 7.1 26.8 3.6 6.1 10.4 10.1 16.8 5.3 6.6-5 10.5-14.7 13-22.3 1.6-4.9-6.1-7-7.7-2.1-1.9 5.9-4.7 12.4-9 17-5.2 5.6-8.9-8.5-9.7-11.8-3.5-12.9-3.5-26.4-.4-39.4 1.1-4.9-6.6-7-7.8-2z"/><path d="M275.2 748.1c5.1 12 14.4 26.7 29.9 21.6 5.8-1.9 9.4-7 9.7-13 .3-7.1-4.6-14.2-2.5-21.2 1.5-5-6.3-7.1-7.7-2.1-1.4 4.8-.6 9.5.6 14.2 1.1 4.3 3.5 10.6-1 13.8-4 2.8-9.8.8-13.1-2.2-4.3-4-6.6-9.8-8.9-15.2-2.1-4.7-9-.6-7 4.1zm445-315.8c15.3 9.5 30.7 19 44.8 30.2 13.7 11 24.5 23.8 35.5 37.2 4.8 5.8 9.9 11.4 16.2 15.6 7 4.8 14.6 6.2 22.6 8.4 8.1 2.2 18.5 10.5 8 17.3-8.4 5.4-17.3 10.1-26 15.1-2.2 1.3-2.7 4.5-.8 6.3 4.7 4.4 9.2 9.5 11.8 15.5 1.1 2.5 2 5.5 1.5 8.3-.6 3.6-3.2 5.3-5.7 7.5-4.4 3.9-5.3 8.6-4.2 14.2.5 2.5 1.8 5.2 1.6 7.8-.3 3.6-4.5 4.4-6.9 6.4-4.5 3.8-5 9.6-4.7 15.1.4 7.3.8 14.6.4 21.9-.8 14.5-4.3 29.9-13.8 41.2-9.5 11.5-24.6 19.1-39.6 15.5-5-1.2-7.1 6.5-2.1 7.7 14 3.4 28.2-.9 39.3-9.8 12.1-9.6 19.2-23.6 22.2-38.6 1.6-8.1 2.2-16.4 2.2-24.6 0-4-.2-7.9-.5-11.8-.3-4.4-1-8.9 3.2-11.5 5.5-3.5 9-6.9 8.1-13.8-.4-3.2-2-6.4-1.9-9.7.1-3.8 4.3-5.5 6.5-8.1 10.9-12.6-2.2-30-11.7-38.9-.3 2.1-.5 4.2-.8 6.3 7.7-4.5 15.4-8.9 23-13.4 5.3-3.1 10.9-6.5 11.5-13.3 1.6-15.9-16.4-19.5-27.7-22.7-14.1-4-23-15.9-31.7-26.9-9.6-12.1-20.3-22.8-32.5-32.2-13.9-10.8-28.8-20.1-43.7-29.4-4.4-2.5-8.4 4.4-4.1 7.2z"/><path d="M804.6 688.1c6.7 10.9 12 22.4 15.9 34.6l3.9-5.1c-9.3.3-18.1-3.7-23.5-11.3-3-4.2-9.9-.2-6.9 4 7.1 9.9 18.2 15.7 30.4 15.3 2.5-.1 4.7-2.5 3.9-5.1-4-12.8-9.6-25.1-16.7-36.5-2.8-4.3-9.7-.3-7 4.1zM781.1 719c4.1 15.1 4.2 30.6.3 45.7 2-.8 3.9-1.6 5.9-2.4-11.3-7.3-19.2-19.3-21-32.8-.7-5-8.7-5.1-8 0 2.2 16.4 11 30.7 25 39.7 2.2 1.4 5.2 0 5.9-2.4 4.3-16.5 4.2-33.5-.3-50-1.4-4.9-9.1-2.8-7.8 2.2zM429 519.2c53.3 34.3 116.9 6 167.4-18.9 4.6-2.3.6-9.2-4-6.9-47.9 23.6-108.7 51.5-159.4 18.9-4.3-2.8-8.4 4.1-4 6.9z"/><path d="M556.2 519.3c-1.9-16.2-1.1-32.5 2.6-48.4-2 .8-3.9 1.6-5.9 2.4 13.2 10 25 21.9 34.9 35.2 3 4.1 10 .1 6.9-4-10.8-14.5-23.3-27.2-37.7-38.1-2-1.5-5.3.1-5.9 2.4-3.8 16.6-4.8 33.6-2.8 50.6.5 4.9 8.5 5 7.9-.1zm-111.5 2.5c1.1 11 3 22 5.8 32.7 1.4 5.3 3 10.6 4.8 15.8 1.3 3.7 2.5 8.5 6 10.8 7.9 5.2 14.1-6.8 17.3-12.1 5.6-9.1 9.6-19.1 12.3-29.5 1.3-5-6.4-7.1-7.7-2.1-1.9 7.5-4.6 14.7-8.1 21.5-1.9 3.6-3.9 7-6.2 10.3-.4.6-2.6 4.3-3.2 4.4-1.2.2-1.7-2.8-2.1-3.8-5.6-15.5-9.3-31.7-11-48.1-.4-5-8.4-5.1-7.9.1zm190-159.5c-22.4-1.4-43.6 13.5-51.8 34-8.3 20.7-1.1 44.6 14.2 60 16.6 16.6 41.7 21 63.6 13.6 21.8-7.3 43-26.8 38.2-51.7-2.7-14.1-11.6-29.1-20.9-39.9-9.1-10.7-22.3-17.6-36.5-15.1-5.1.9-2.9 8.6 2.1 7.7 11.4-2 21.7 4.8 28.7 13.1 7.1 8.4 13.3 19.3 16.9 29.7 4 11.4 2.6 22.2-5.2 31.5-6.3 7.5-14.8 13.2-24.1 16.6-17.8 6.5-38.7 4.7-53.5-7.7-13.9-11.5-22.3-30.8-18-48.8 4.9-20.7 25-36.2 46.2-34.9 5.3.2 5.2-7.8.1-8.1zm-241.6-2.8c-24.5-9.9-45.3 19-49.9 39.6-5 22.7 2.3 47.6 23.5 59.3 21.6 11.9 52.3 14.2 75 4.3 26.1-11.3 35.1-39.2 33.8-65.9-.8-14.8-5.1-30.7-16.7-40.7-10.4-8.9-24.7-12.3-37.5-6.6-4.7 2.1-.6 9 4 6.9 9.7-4.4 21.3-.7 28.8 6.2 8.7 8 12.2 20.2 13.1 31.6 1.8 22.3-3.6 47.5-24.7 59-18.3 10-41.8 8.7-61.2 2.6-10.7-3.4-20.3-9.3-26-19.1-4.6-7.9-6.2-17.2-5.8-26.3.5-10.4 3.9-20.8 9.9-29.3 6.8-9.8 19.2-18.9 31.4-14 5 2.1 7.1-5.6 2.3-7.6z"/><path d="M464.4 405.5c3.5-11.1-4.1-21.8-14.4-25.9-11.1-4.5-22.8.7-30 9.7-13.9 17.4-13.1 52.2 14 55 10.9 1.1 22.5-3.9 27.3-14.1 2.2-4.6-4.7-8.7-6.9-4-3.6 7.7-12.2 11.3-20.4 10.1-11.8-1.7-16-13-14.9-23.9 1-10.6 7.2-22.7 18.1-25.9 9.8-2.9 22.9 6 19.5 16.9-1.6 4.9 6.1 7 7.7 2.1zm131 42.9c-6.6-10-11.8-23.2-7.2-35.1 3.8-9.7 15.8-17.7 26-12.5 9.9 5.1 15.5 17.6 16.9 28 1.6 11.3-1.1 22.6-7.6 32-3 4.2 4 8.2 6.9 4 8.2-11.8 10.8-26.5 8-40.5-2.6-13-11.3-28.7-25.1-32.5-12.7-3.5-26.2 5-31.6 16.5-6.9 14.5-1.5 31.4 6.8 44.1 2.8 4.3 9.7.3 6.9-4zM454.7 625.2c-15.9-8.7-35.9-8.5-51.5.8-5.8 3.4-16.1 10.8-9.6 18.2 3.3 3.7 8.9 6 13.1 8.6 5.4 3.3 10.8 6.5 16.1 9.8-.3-2.1-.5-4.2-.8-6.3-11.1 12.9-21.6 27.7-24.4 44.9-2.4 14.9 1 30.7 11.9 41.7 3.6 3.7 9.3-2 5.7-5.7-9.5-9.5-12.1-23.9-9.3-36.8 3.2-14.7 12.2-27.3 21.8-38.5 1.7-2 1.5-4.9-.8-6.3-7.5-4.6-15.1-9.1-22.6-13.7-.8-.5-4.6-2.3-4.6-2.9 0-.7 1.7-2 2.4-2.6 2.6-2.3 5.8-4.2 9-5.6 12.5-5.8 27.5-5.4 39.6 1.2 4.5 2.6 8.5-4.3 4-6.8zm63.4-6.7c12.9-7.5 26.8-13 41.5-16.1 3-.7 8.2-2.2 10.9.2 2.2 2 1.7 5.3.9 7.8-2.1 6.2-7.1 10.9-9 17.3-.6 2.2 1.2 5.4 3.9 5.1 14-1.8 27.8 3.4 37.3 13.8 4.8 5.3 7.2 11.3 9.4 18 2.5 7.3 6.5 10.6 13 14.4 11.8 6.8 14.7 21.9 9.9 34-5.7 14.5-20.9 22.8-34.9 27.2-4.9 1.5-2.8 9.2 2.1 7.7 23.6-7.3 47.4-26.3 42.3-53.8-1-5.4-3.2-10.5-6.6-14.8-1.7-2.1-3.6-3.9-5.8-5.4-2.9-2-6.5-3.2-9-5.6-4.5-4.3-5.1-12.6-8.1-18.1-2.8-5.1-6.7-9.8-11.2-13.6-10.7-8.9-24.6-13.7-38.5-11.8l3.9 5.1c2.3-8 9.3-13.5 9.9-22.2.5-7.5-4.2-13.4-11.8-14.1-8.8-.8-19 2.9-27.1 5.7-9.4 3.2-18.4 7.4-27 12.4-4.5 2.5-.5 9.5 4 6.8zm-23.6 57.6c4.1 0 8.1-.9 12.1-1.8 3.3-.8 9.5-2.8 11.7 1 2.3 3.8-1.7 8.5-5 10-4.9 2.2-10.6 1.4-15.8 1-5.1-.5-5.1 7.5 0 8 7.3.7 15.5 1.1 21.8-3.2 4.9-3.3 8.2-9.5 7.3-15.5-2.6-16.7-22.2-7.4-32.3-7.5-5-.1-5 7.9.2 8zm-31.3 116.7c58.5 4.5 117.6-8.5 168.8-37 4.5-2.5.5-9.4-4-6.9-50.1 27.8-107.7 40.3-164.8 35.8-5.1-.3-5.1 7.8 0 8.1z"/></svg>