<?xml version="1.0" encoding="utf-8"?>
<!-- Generator: Adobe Illustrator 23.0.2, SVG Export Plug-In . SVG Version: 6.00 Build 0)  -->
<svg version="1.1" id="Layer_1" xmlns="http://www.w3.org/2000/svg" xmlns:xlink="http://www.w3.org/1999/xlink" x="0px" y="0px"
	 viewBox="0 0 1000 1000" style="enable-background:new 0 0 1000 1000;" xml:space="preserve">
<style type="text/css">
	.st0{opacity:0.7;fill:#F0EFC7;}
	.st1{opacity:0.7;fill:#C9C89B;}
</style>
<g>
	<path class="st0" d="M330,633.9c5.5,12.5,12.3,24.8,22.3,34.3c10.2,9.6,23.3,15.7,36.1,21.6c42.8,19.7,93.1,39.3,135.1,18.1
		c15-7.6,34.8-19.3,45.8-6.7c41.6-18.7,73.7-54.9,92.1-96.2s23.6-87.4,20.9-132.4c-0.5-7.7-4.8-18.1-12.3-16
		c-16.8-45.2-49.4-91.5-97.9-97.2c-7.2-0.8-14.6-0.8-21.3-3.5c-7.3-3-12.9-9.1-19.6-13.2c-18.2-11.2-45.1-5.1-56.6,12.7
		c-14.2,21.9-71.8,17.2-93.3,26.3c-25.8,11-45.4,49-55.3,73C302.7,511.4,305.2,578,330,633.9z"/>
	<path class="st1" d="M381.5,372.9c-27.9,8.2-45.5,41.4-36.9,69.1c1.5,4.7,3.6,9.3,7,12.8c7.9,8.2,21.5,9,31.7,4
		c10.2-5.1,17.3-15,21.7-25.5c5.2-12.6,6.8-27.4,1.3-39.9c-5.4-12.5-19-21.9-32.5-19.8"/>
	<path class="st1" d="M509.8,432.1c-22,19.2-31.6,60.5-14.2,85.6c11.6,16.8,32.6,22.4,49.8,15.2c17.2-7.1,30.3-25.5,35.8-46.3
		c1.5-5.5,2.4-11.4,1.8-17.1c-0.6-5.2-2.5-10.1-4.8-14.5c-12.8-24.7-41-36.2-63.7-26"/>
	<path class="st1" d="M340.1,582.8c5.5-11.4,19.5-18,31.8-14.8c17.8,4.6,26.2,24.9,29.4,43c1.9,10.6,2.6,22.3-3.3,31.3
		c-7.4,11.2-23.5,14.2-36.2,9.7c-12.7-4.6-22.3-15.2-29.6-26.4c-3.5-5.4-6.8-11.4-6.9-17.8s3.7-13.4,10-14.8"/>
	<path class="st1" d="M478.5,667.9c-0.2-0.1-0.3-0.2-0.5-0.3c-8.4-4.5-15.4,7.8-7.5,13l0.1,0.1c2.5,1.7,5.9,1.7,8.3,0
		c0.6-0.4,1.2-1,1.7-1.6C483.6,675.6,482.5,670.2,478.5,667.9z"/>
	<path class="st1" d="M619.4,578.4c10.1-10,26-18.7,37.6-10.6c12.6,8.8,8.3,28.2,2.7,42.5c-7.3,18.3-26.4,54.3-52.7,40.9
		C577.5,636.2,603.9,593.8,619.4,578.4z"/>
	<g>
		<path d="M345.6,381.8c-19.1,14.3-26.7,40.9-17.3,63c5.1,12,15,21.4,28.4,22.8c14.6,1.5,28.9-5.5,41.4-12.3
			c4.3-2.3,0.5-8.8-3.8-6.5c-10.2,5.6-21.7,11.5-33.6,11.5c-12.8,0-22.1-9-26.3-20.6c-6.5-18-0.4-39.9,15-51.4
			C353.3,385.4,349.5,378.9,345.6,381.8L345.6,381.8z"/>
	</g>
	<g>
		<path d="M312.3,439.8c-20,38.5-27.3,82.8-20,125.6c6.9,40.3,26.7,77.8,55.6,106.7c3.4,3.4,8.8-1.9,5.3-5.3
			c-27.5-27.5-46.3-63-53.3-101.4c-7.5-41.3-0.5-84.6,18.9-121.8C321,439.3,314.5,435.5,312.3,439.8L312.3,439.8z"/>
	</g>
	<g>
		<path d="M338.4,584.8c0.6,0.3,4.2-3.6,5.6-4.5c2.4-1.6,5-3,7.8-3.9c5-1.8,10.3-2.5,15.6-2.3c11.8,0.5,22.7,6.3,29.9,15.7
			c6.7,8.8,10,20.2,9.3,31.2c-0.8,12.2-8.4,29.9-23.6,25.8c-4.7-1.3-6.7,6-2,7.3c18.4,4.9,30.4-12.5,32.7-28.5
			c2.2-15.8-2.7-32.4-13.5-44.2c-11-11.9-27.6-16.9-43.5-14.1c-7.5,1.3-15,4.6-20.8,9.7c-4.1,3.6-7.4,10.8-1.3,14.3
			C338.8,593.7,342.6,587.2,338.4,584.8L338.4,584.8z"/>
	</g>
	<g>
		<path d="M383.7,563.8c4-7.9,9.1-14.9,15.4-21.2c3.4-3.4-1.9-8.8-5.3-5.3c-6.7,6.7-12.2,14.3-16.5,22.7
			C375,564.3,381.5,568.1,383.7,563.8L383.7,563.8z"/>
	</g>
	<g>
		<path d="M425.3,583.5c3.3-1.3,6.6-2.7,10-4c1.9-0.8,3.2-2.5,2.6-4.6c-0.5-1.8-2.7-3.4-4.6-2.6c-3.3,1.3-6.6,2.7-10,4
			c-1.9,0.8-3.2,2.5-2.6,4.6C421.1,582.6,423.4,584.2,425.3,583.5L425.3,583.5z"/>
	</g>
	<g>
		<path d="M438.2,629.4c4.9,0,4.9-7.5,0-7.5C433.3,621.9,433.3,629.4,438.2,629.4L438.2,629.4z"/>
	</g>
	<g>
		<path d="M449.2,413.5c-0.4-2.7-0.1-5.4,0.7-8c1.4-4.7-5.9-6.7-7.3-2c-1.2,4-1.3,8-0.7,12c0.3,2,2.8,3.1,4.6,2.6
			C448.7,417.6,449.5,415.6,449.2,413.5L449.2,413.5z"/>
	</g>
	<g>
		<path d="M381.6,371.2c22.7,5.5,35.1,29.7,25.2,51.2c-2,4.4,4.5,8.2,6.5,3.8c11.8-25.7-2-55.6-29.7-62.3
			C378.9,362.8,376.9,370.1,381.6,371.2L381.6,371.2z"/>
	</g>
	<g>
		<path d="M383.5,364.5c11.3-4.6,23.7-2.1,32.1,6.9c3.3,3.6,8.6-1.8,5.3-5.3c-10-10.7-25.8-14.4-39.4-8.8
			C377.1,359,379,366.3,383.5,364.5L383.5,364.5z"/>
	</g>
	<g>
		<path d="M402.1,363.7c25.5-13,53.3-20.8,81.9-23.1c4.8-0.4,4.9-7.9,0-7.5c-30,2.3-58.9,10.5-85.7,24.1
			C394,359.4,397.8,365.9,402.1,363.7L402.1,363.7z"/>
	</g>
	<g>
		<path d="M672,559.9c-30.9-4.4-61.9,9.8-77.2,37.4c-12.7,22.9-14.8,58.6,10.5,74c4.2,2.5,8-4,3.8-6.5
			c-22.3-13.6-18.3-46.1-6.9-65.4c13.8-23.4,40.9-36.1,67.7-32.2C674.8,567.9,676.8,560.6,672,559.9L672,559.9z"/>
	</g>
	<g>
		<path d="M573.6,633.7c-8.8-10.8-1.9-26.5,4.2-36.7c7-11.8,16.5-21.8,27.8-29.7c4-2.8,0.2-9.3-3.8-6.5
			c-13.9,9.7-25.6,22.5-33.4,37.6c-6.6,12.8-9.9,28.6-0.1,40.7C571.3,642.8,576.6,637.4,573.6,633.7L573.6,633.7z"/>
	</g>
	<g>
		<path d="M488.4,466c10.5-19.6,31.2-32.3,53.6-31.3c22.5,1,49,17.1,49.7,41.9c0.6,22.4-17.6,41.6-37.2,49.5
			c-18.1,7.3-40.5,6.9-56.7-4.8c-26.4-19-3.4-52.9,9.5-73.1c2.6-4.1-3.9-7.9-6.5-3.8c-13.2,20.9-34.7,53.1-14.8,76.3
			c15.6,18.2,43.9,21.3,65.7,14.4c23.1-7.3,43.5-26.5,47.1-51.2c4-27.3-19.1-48.9-44-55c-28.9-7-59,7.1-72.9,33.2
			C479.6,466.5,486.1,470.3,488.4,466L488.4,466z"/>
	</g>
	<g>
		<path d="M568.7,428.1c15.5,5.9,27,19.1,31.2,35.1c1.2,4.7,8.5,2.7,7.3-2c-4.9-18.7-18.5-33.5-36.5-40.4
			C566.1,419.1,564.2,426.4,568.7,428.1L568.7,428.1z"/>
	</g>
	<g>
		<path d="M621.3,380.1c-11.2,19.9,1.6,43.6,24.1,45.6c4.8,0.5,4.8-7.1,0-7.5c-16.9-1.6-25.9-19.7-17.6-34.3
			C630.2,379.7,623.7,375.9,621.3,380.1L621.3,380.1z"/>
	</g>
	<g>
		<path d="M475.8,669c3.8-4.2,11.9-0.5,12.2,4.9c0.4,7.3-9.3,10.1-14.8,8c-4.5-1.8-6.5,5.5-2,7.3c10.9,4.2,26.2-4.3,24.2-17
			c-1.7-10.8-17.1-17.1-24.9-8.5C467.3,667.2,472.6,672.6,475.8,669L475.8,669z"/>
	</g>
	<g>
		<path d="M544.9,686.3c3.1,2.9,7.7,4.1,11.8,2.5c1.9-0.7,3.2-2.5,2.6-4.6c-0.5-1.8-2.7-3.3-4.6-2.6c-1.6,0.6-3.1,0.6-4.4-0.6
			C546.7,677.7,541.3,683,544.9,686.3L544.9,686.3z"/>
	</g>
	<g>
		<path d="M362.7,689.2c20.1,24,47.8,35,78.2,39.4c33.2,4.8,66.8,3.8,99.7-2.7c4.8-0.9,2.8-8.2-2-7.3c-31.5,6.2-63.9,7.2-95.7,2.7
			c-29.2-4.2-55.5-14.4-74.9-37.5C364.9,680.2,359.6,685.5,362.7,689.2L362.7,689.2z"/>
	</g>
	<g>
		<path d="M545.3,726.2c3.6-14.2,20.2-19.7,31.3-9.8c3.6,3.2,9-2.1,5.3-5.3c-15.2-13.5-38.8-6.8-43.9,13.2
			C536.8,728.9,544.1,730.9,545.3,726.2L545.3,726.2z"/>
	</g>
	<g>
		<path d="M583.2,714.1c12-8.6,24-17.1,36-25.7c3.9-2.8,0.2-9.3-3.8-6.5c-12,8.6-24,17.1-36,25.7C575.5,710.4,579.3,717,583.2,714.1
			L583.2,714.1z"/>
	</g>
	<g>
		<path d="M623.7,679.1c27.1-19.4,48-45.8,60.7-76.6c1.8-4.5-5.4-6.4-7.3-2c-11.9,28.8-31.9,53.9-57.3,72
			C616,675.4,619.7,681.9,623.7,679.1L623.7,679.1z"/>
	</g>
	<g>
		<path d="M375.5,362.3c-23.2,7.8-42.8,25-52.6,47.6c-10.7,24.7-8.8,53.5,4.3,76.9c2.4,4.2,8.9,0.4,6.5-3.8
			c-12-21.6-13.8-48.4-3.5-71c9.1-20,26.6-35.5,47.4-42.5C382.1,368,380.1,360.8,375.5,362.3L375.5,362.3z"/>
	</g>
	<g>
		<path d="M328.3,611c3.2,18.2,16.7,33,34.4,38.4c4.7,1.4,6.6-5.9,2-7.3c-15.3-4.7-26.3-17.5-29.1-33.1
			C334.7,604.3,327.4,606.3,328.3,611L328.3,611z"/>
	</g>
	<g>
		<path d="M341.4,525.3c0.5-2.7,2.1-4.9,4.8-5.7c4.6-1.4,2.6-8.7-2-7.3c-5,1.5-9.1,5.8-10,11c-0.4,2,0.5,4.1,2.6,4.6
			C338.6,528.5,341.1,527.3,341.4,525.3L341.4,525.3z"/>
	</g>
	<g>
		<path d="M645,467.1c-5.9,4.2-7.3,13.2-1.9,18.4c5.4,5.2,14.6,3.4,18.3-2.8c2.5-4.2-4-8-6.5-3.8c-1.2,2-4.5,2.9-6.5,1.3
			c-1.8-1.6-1.6-5.2,0.3-6.6C652.7,470.8,648.9,464.3,645,467.1L645,467.1z"/>
	</g>
	<g>
		<path d="M513.2,382.2c7,8.5,20.8,7,26.7-1.9c2.7-4.1-3.9-7.9-6.5-3.8c-3.4,5.1-11.1,4.9-14.8,0.4
			C515.4,373.1,510.1,378.5,513.2,382.2L513.2,382.2z"/>
	</g>
	<g>
		<path d="M396.3,694.7c12.5-11.8,32.1-3.2,32.2,13.9c0,4.8,7.6,4.9,7.5,0c-0.1-23.7-27.9-35.5-45.1-19.2
			C387.4,692.7,392.7,698,396.3,694.7L396.3,694.7z"/>
	</g>
	<g>
		<path d="M305,541.6c-2-3.2,1.4-7.4,4.9-7.5c4.1-0.2,6.9,4.4,7.8,7.7c2.2,7.8-2.8,15.6-6.6,22.1c-2.5,4.2,4,8,6.5,3.8
			c6.7-11.4,14.2-30.2-0.7-39.1c-10.5-6.3-25.4,5.5-18.4,16.8C301,549.5,307.5,545.8,305,541.6L305,541.6z"/>
	</g>
	<g>
		<path d="M678.2,500c-9.2,5.3-9.2,19.8,0,25.1c4.2,2.4,8-4.1,3.8-6.5c-4.3-2.5-4.4-9.6,0-12.1C686.2,504.1,682.4,497.5,678.2,500
			L678.2,500z"/>
	</g>
	<g>
		<path d="M632.5,377.9c-2.5,15.4,6.1,30.2,20.8,35.5c4.6,1.6,6.5-5.6,2-7.3c-10.6-3.8-17.4-15-15.6-26.2
			C640.6,375.2,633.3,373.1,632.5,377.9L632.5,377.9z"/>
	</g>
	<g>
		<path d="M368.4,408.1c2.1,5.3,2.8,10.8,1.7,16.4c-1,4.7,6.3,6.8,7.3,2c1.4-6.9,0.9-13.9-1.7-20.5
			C373.9,401.7,366.6,403.6,368.4,408.1L368.4,408.1z"/>
	</g>
	<g>
		<path d="M498.5,335.5c43.2,0.7,88,11.7,124.9,34.6c20.5,12.7,38.5,29.6,50.9,50.4c15.5,25.8,21.9,56.9,22.5,86.7
			c0.8,37.3-8.2,74.5-25.7,107.6c-2.3,4.3,4.2,8.1,6.5,3.8c30.3-57.4,37.9-132.4,8.6-191.9c-22.3-45.4-67.6-73.6-114.8-87.5
			c-23.6-7-48.4-10.8-73-11.2C493.6,327.9,493.6,335.5,498.5,335.5L498.5,335.5z"/>
	</g>
</g>
</svg>
