<svg xmlns="http://www.w3.org/2000/svg" width="1000" height="1000"><path d="M330 633.9c5.5 12.5 12.3 24.8 22.3 34.3 10.2 9.6 23.3 15.7 36.1 21.6 42.8 19.7 93.1 39.3 135.1 18.1 15-7.6 34.8-19.3 45.8-6.7 41.6-18.7 73.7-54.9 92.1-96.2s23.6-87.4 20.9-132.4c-.5-7.7-4.8-18.1-12.3-16-16.8-45.2-49.4-91.5-97.9-97.2-7.2-.8-14.6-.8-21.3-3.5-7.3-3-12.9-9.1-19.6-13.2-18.2-11.2-45.1-5.1-56.6 12.7-14.2 21.9-71.8 17.2-93.3 26.3-25.8 11-45.4 49-55.3 73-23.3 56.7-20.8 123.3 4 179.2z" opacity=".7" fill="#f0efc7"/><path d="M381.5 372.9c-27.9 8.2-45.5 41.4-36.9 69.1 1.5 4.7 3.6 9.3 7 12.8 7.9 8.2 21.5 9 31.7 4 10.2-5.1 17.3-15 21.7-25.5 5.2-12.6 6.8-27.4 1.3-39.9-5.4-12.5-19-21.9-32.5-19.8m136 58.5c-22 19.2-31.6 60.5-14.2 85.6 11.6 16.8 32.6 22.4 49.8 15.2 17.2-7.1 30.3-25.5 35.8-46.3 1.5-5.5 2.4-11.4 1.8-17.1-.6-5.2-2.5-10.1-4.8-14.5-12.8-24.7-41-36.2-63.7-26M340.1 582.8c5.5-11.4 19.5-18 31.8-14.8 17.8 4.6 26.2 24.9 29.4 43 1.9 10.6 2.6 22.3-3.3 31.3-7.4 11.2-23.5 14.2-36.2 9.7-12.7-4.6-22.3-15.2-29.6-26.4-3.5-5.4-6.8-11.4-6.9-17.8s3.7-13.4 10-14.8m143.2 74.9c-.2-.1-.3-.2-.5-.3-8.4-4.5-15.4 7.8-7.5 13l.1.1c2.5 1.7 5.9 1.7 8.3 0 .6-.4 1.2-1 1.7-1.6 3-3.5 1.9-8.9-2.1-11.2zm140.9-89.5c10.1-10 26-18.7 37.6-10.6 12.6 8.8 8.3 28.2 2.7 42.5-7.3 18.3-26.4 54.3-52.7 40.9-29.5-15-3.1-57.4 12.4-72.8z" opacity=".7" fill="#c9c89b"/><path d="M345.6 381.8c-19.1 14.3-26.7 40.9-17.3 63 5.1 12 15 21.4 28.4 22.8 14.6 1.5 28.9-5.5 41.4-12.3 4.3-2.3.5-8.8-3.8-6.5-10.2 5.6-21.7 11.5-33.6 11.5-12.8 0-22.1-9-26.3-20.6-6.5-18-.4-39.9 15-51.4 3.9-2.9.1-9.4-3.8-6.5zm-33.3 58c-20 38.5-27.3 82.8-20 125.6 6.9 40.3 26.7 77.8 55.6 106.7 3.4 3.4 8.8-1.9 5.3-5.3-27.5-27.5-46.3-63-53.3-101.4-7.5-41.3-.5-84.6 18.9-121.8 2.2-4.3-4.3-8.1-6.5-3.8z"/><path d="M338.4 584.8c.6.3 4.2-3.6 5.6-4.5 2.4-1.6 5-3 7.8-3.9 5-1.8 10.3-2.5 15.6-2.3 11.8.5 22.7 6.3 29.9 15.7 6.7 8.8 10 20.2 9.3 31.2-.8 12.2-8.4 29.9-23.6 25.8-4.7-1.3-6.7 6-2 7.3 18.4 4.9 30.4-12.5 32.7-28.5 2.2-15.8-2.7-32.4-13.5-44.2-11-11.9-27.6-16.9-43.5-14.1-7.5 1.3-15 4.6-20.8 9.7-4.1 3.6-7.4 10.8-1.3 14.3 4.2 2.4 8-4.1 3.8-6.5zm45.3-21c4-7.9 9.1-14.9 15.4-21.2 3.4-3.4-1.9-8.8-5.3-5.3-6.7 6.7-12.2 14.3-16.5 22.7-2.3 4.3 4.2 8.1 6.4 3.8zm41.6 19.7c3.3-1.3 6.6-2.7 10-4 1.9-.8 3.2-2.5 2.6-4.6-.5-1.8-2.7-3.4-4.6-2.6-3.3 1.3-6.6 2.7-10 4-1.9.8-3.2 2.5-2.6 4.6.4 1.7 2.7 3.3 4.6 2.6zm12.9 45.9c4.9 0 4.9-7.5 0-7.5s-4.9 7.5 0 7.5zm11-215.9c-.4-2.7-.1-5.4.7-8 1.4-4.7-5.9-6.7-7.3-2-1.2 4-1.3 8-.7 12 .3 2 2.8 3.1 4.6 2.6 2.2-.5 3-2.5 2.7-4.6zm-67.6-42.3c22.7 5.5 35.1 29.7 25.2 51.2-2 4.4 4.5 8.2 6.5 3.8 11.8-25.7-2-55.6-29.7-62.3-4.7-1.1-6.7 6.2-2 7.3z"/><path d="M383.5 364.5c11.3-4.6 23.7-2.1 32.1 6.9 3.3 3.6 8.6-1.8 5.3-5.3-10-10.7-25.8-14.4-39.4-8.8-4.4 1.7-2.5 9 2 7.2z"/><path d="M402.1 363.7c25.5-13 53.3-20.8 81.9-23.1 4.8-.4 4.9-7.9 0-7.5-30 2.3-58.9 10.5-85.7 24.1-4.3 2.2-.5 8.7 3.8 6.5zM672 559.9c-30.9-4.4-61.9 9.8-77.2 37.4-12.7 22.9-14.8 58.6 10.5 74 4.2 2.5 8-4 3.8-6.5-22.3-13.6-18.3-46.1-6.9-65.4 13.8-23.4 40.9-36.1 67.7-32.2 4.9.7 6.9-6.6 2.1-7.3zm-98.4 73.8c-8.8-10.8-1.9-26.5 4.2-36.7 7-11.8 16.5-21.8 27.8-29.7 4-2.8.2-9.3-3.8-6.5-13.9 9.7-25.6 22.5-33.4 37.6-6.6 12.8-9.9 28.6-.1 40.7 3 3.7 8.3-1.7 5.3-5.4zM488.4 466c10.5-19.6 31.2-32.3 53.6-31.3 22.5 1 49 17.1 49.7 41.9.6 22.4-17.6 41.6-37.2 49.5-18.1 7.3-40.5 6.9-56.7-4.8-26.4-19-3.4-52.9 9.5-73.1 2.6-4.1-3.9-7.9-6.5-3.8-13.2 20.9-34.7 53.1-14.8 76.3 15.6 18.2 43.9 21.3 65.7 14.4 23.1-7.3 43.5-26.5 47.1-51.2 4-27.3-19.1-48.9-44-55-28.9-7-59 7.1-72.9 33.2-2.3 4.4 4.2 8.2 6.5 3.9z"/><path d="M568.7 428.1c15.5 5.9 27 19.1 31.2 35.1 1.2 4.7 8.5 2.7 7.3-2-4.9-18.7-18.5-33.5-36.5-40.4-4.6-1.7-6.5 5.6-2 7.3zm52.6-48c-11.2 19.9 1.6 43.6 24.1 45.6 4.8.5 4.8-7.1 0-7.5-16.9-1.6-25.9-19.7-17.6-34.3 2.4-4.2-4.1-8-6.5-3.8zM475.8 669c3.8-4.2 11.9-.5 12.2 4.9.4 7.3-9.3 10.1-14.8 8-4.5-1.8-6.5 5.5-2 7.3 10.9 4.2 26.2-4.3 24.2-17-1.7-10.8-17.1-17.1-24.9-8.5-3.2 3.5 2.1 8.9 5.3 5.3zm69.1 17.3c3.1 2.9 7.7 4.1 11.8 2.5 1.9-.7 3.2-2.5 2.6-4.6-.5-1.8-2.7-3.3-4.6-2.6-1.6.6-3.1.6-4.4-.6-3.6-3.3-9 2-5.4 5.3zm-182.2 2.9c20.1 24 47.8 35 78.2 39.4 33.2 4.8 66.8 3.8 99.7-2.7 4.8-.9 2.8-8.2-2-7.3-31.5 6.2-63.9 7.2-95.7 2.7-29.2-4.2-55.5-14.4-74.9-37.5-3.1-3.6-8.4 1.7-5.3 5.4z"/><path d="M545.3 726.2c3.6-14.2 20.2-19.7 31.3-9.8 3.6 3.2 9-2.1 5.3-5.3-15.2-13.5-38.8-6.8-43.9 13.2-1.2 4.6 6.1 6.6 7.3 1.9z"/><path d="M583.2 714.1c12-8.6 24-17.1 36-25.7 3.9-2.8.2-9.3-3.8-6.5-12 8.6-24 17.1-36 25.7-3.9 2.8-.1 9.4 3.8 6.5zm40.5-35c27.1-19.4 48-45.8 60.7-76.6 1.8-4.5-5.4-6.4-7.3-2-11.9 28.8-31.9 53.9-57.3 72-3.8 2.9-.1 9.4 3.9 6.6zM375.5 362.3c-23.2 7.8-42.8 25-52.6 47.6-10.7 24.7-8.8 53.5 4.3 76.9 2.4 4.2 8.9.4 6.5-3.8-12-21.6-13.8-48.4-3.5-71 9.1-20 26.6-35.5 47.4-42.5 4.5-1.5 2.5-8.7-2.1-7.2zM328.3 611c3.2 18.2 16.7 33 34.4 38.4 4.7 1.4 6.6-5.9 2-7.3-15.3-4.7-26.3-17.5-29.1-33.1-.9-4.7-8.2-2.7-7.3 2zm13.1-85.7c.5-2.7 2.1-4.9 4.8-5.7 4.6-1.4 2.6-8.7-2-7.3-5 1.5-9.1 5.8-10 11-.4 2 .5 4.1 2.6 4.6 1.8.6 4.3-.6 4.6-2.6zM645 467.1c-5.9 4.2-7.3 13.2-1.9 18.4 5.4 5.2 14.6 3.4 18.3-2.8 2.5-4.2-4-8-6.5-3.8-1.2 2-4.5 2.9-6.5 1.3-1.8-1.6-1.6-5.2.3-6.6 4-2.8.2-9.3-3.7-6.5zm-131.8-84.9c7 8.5 20.8 7 26.7-1.9 2.7-4.1-3.9-7.9-6.5-3.8-3.4 5.1-11.1 4.9-14.8.4-3.2-3.8-8.5 1.6-5.4 5.3zM396.3 694.7c12.5-11.8 32.1-3.2 32.2 13.9 0 4.8 7.6 4.9 7.5 0-.1-23.7-27.9-35.5-45.1-19.2-3.5 3.3 1.8 8.6 5.4 5.3zM305 541.6c-2-3.2 1.4-7.4 4.9-7.5 4.1-.2 6.9 4.4 7.8 7.7 2.2 7.8-2.8 15.6-6.6 22.1-2.5 4.2 4 8 6.5 3.8 6.7-11.4 14.2-30.2-.7-39.1-10.5-6.3-25.4 5.5-18.4 16.8 2.5 4.1 9 .4 6.5-3.8zM678.2 500c-9.2 5.3-9.2 19.8 0 25.1 4.2 2.4 8-4.1 3.8-6.5-4.3-2.5-4.4-9.6 0-12.1 4.2-2.4.4-9-3.8-6.5zm-45.7-122.1c-2.5 15.4 6.1 30.2 20.8 35.5 4.6 1.6 6.5-5.6 2-7.3-10.6-3.8-17.4-15-15.6-26.2.9-4.7-6.4-6.8-7.2-2zm-264.1 30.2c2.1 5.3 2.8 10.8 1.7 16.4-1 4.7 6.3 6.8 7.3 2 1.4-6.9.9-13.9-1.7-20.5-1.8-4.3-9.1-2.4-7.3 2.1z"/><path d="M498.5 335.5c43.2.7 88 11.7 124.9 34.6 20.5 12.7 38.5 29.6 50.9 50.4 15.5 25.8 21.9 56.9 22.5 86.7.8 37.3-8.2 74.5-25.7 107.6-2.3 4.3 4.2 8.1 6.5 3.8 30.3-57.4 37.9-132.4 8.6-191.9-22.3-45.4-67.6-73.6-114.8-87.5-23.6-7-48.4-10.8-73-11.2-4.8-.1-4.8 7.5.1 7.5z"/></svg>