<?xml version="1.0" encoding="utf-8"?>
<!-- Generator: Adobe Illustrator 23.0.2, SVG Export Plug-In . SVG Version: 6.00 Build 0)  -->
<svg version="1.1" id="Layer_1" xmlns="http://www.w3.org/2000/svg" xmlns:xlink="http://www.w3.org/1999/xlink" x="0px" y="0px"
	 viewBox="0 0 1000 1000" style="enable-background:new 0 0 1000 1000;" xml:space="preserve">
<style type="text/css">
	.st0{opacity:0.7;fill:#131314;}
</style>
<g>
	<g>
		<path d="M492.2,565.6c-16.5-20.5-51.6-23.2-73.8-11.3c-27.5,14.8-28.8,54-17.4,79.4c14,31,51.1,42.8,81.2,27.7
			c16.1-8,27.4-22.7,32.4-39.8c5.3-18.3,4.5-37.8,4.2-56.6c-0.4-24.7-0.8-49.3-1.2-74c-0.3-21.4-0.6-44.4,9.7-63.8
			c3.5-6.7-6.7-12.7-10.2-6c-8,15.3-10.6,32.4-11.2,49.4c-0.7,18.6,0.2,37.2,0.5,55.8c0.3,18.9,0.9,37.8,0.8,56.7
			c-0.1,16-1,33.2-9,47.4c-15.1,26.9-54,35-76.5,12.6c-9.5-9.4-14.6-23-15.5-36.2c-0.9-12.3,1.4-27.1,10.2-36.5
			c16.4-17.4,52.8-14.8,67.4,3.4C488.6,579.9,497,571.5,492.2,565.6L492.2,565.6z"/>
	</g>
	<g>
		<path d="M511.1,349.3c6.5,22.9,23.3,43.2,46.4,50.7c13,4.2,26.5,2.5,39.7,0.9c13.3-1.6,27.8-3.1,39,5.7
			c11.3,8.9,17.3,23.5,23,36.3c3.1,7,13.3,0.9,10.2-6c-6.5-14.6-13.5-30.2-26.6-40.1c-14.5-10.9-32.1-9.4-49-7.3
			c-16.2,2-31.1,2.5-45.2-6.7c-13-8.4-21.9-21.8-26.1-36.6C520.4,338.9,509,342,511.1,349.3L511.1,349.3z"/>
	</g>
	<g>
		<path d="M527.6,430.1c7.6,0,7.6-11.9,0-11.9C520,418.2,520,430.1,527.6,430.1L527.6,430.1z"/>
	</g>
	<g>
		<path d="M507.5,431.6c19.4,15.9,46.5,6,67.1-1.5c23.7-8.6,50.1-10,73.4,1c6.9,3.2,12.9-7,6-10.2c-21.8-10.3-47.5-12.3-70.7-6
			c-12.4,3.4-24.1,9.3-36.7,11.9c-9.3,2-22.7,2.9-30.6-3.6C510,418.4,501.6,426.7,507.5,431.6L507.5,431.6z"/>
	</g>
	<path class="st0" d="M476.6,573.1c-9.9-6.8-21.3-11.5-32.8-10.5s-23,8.3-27.9,20.3c-5.6,13.8-1.4,30.5,6,43.2
		c6.7,11.6,16.2,21.4,27.7,25.9s25,3.2,34.7-5.1c9.8-8.4,14.7-22.3,17.2-36c11-58.7-2.9-114.9,7-178.6c8.2,5.9,18.7,5.6,28,2.6
		s17.8-8.4,26.7-12.6c22.2-10.2,47.2-12.1,70.3-5.2c-8-14-25.1-15-39.6-16.3c-28.2-2.6-58-13.8-74.5-40.1c-16.6,16.5-20,44-22.2,69
		c-2.9,32.1-5.5,64.4-2.8,96.5c1.2,14,3.5,28,2.2,42c-0.2,2-0.6,4.3-2.3,5.1c-1,0.5-2.2,0.1-3.2-0.2c-13.5-4.3-26.9-8.5-40.3-12.8"
		/>
	<g>
		<path d="M501.6,557.7c-7.1-67.7-1.6-136.2,16.2-201.9c2-7.4-9.4-10.5-11.4-3.1c-18.1,66.6-23.9,136.4-16.7,205
			C490.6,565.2,502.4,565.3,501.6,557.7L501.6,557.7z"/>
	</g>
</g>
</svg>
