<svg xmlns="http://www.w3.org/2000/svg" viewBox="0 0 1000 1000"><path d="M492.2 565.6c-16.5-20.5-51.6-23.2-73.8-11.3-27.5 14.8-28.8 54-17.4 79.4 14 31 51.1 42.8 81.2 27.7 16.1-8 27.4-22.7 32.4-39.8 5.3-18.3 4.5-37.8 4.2-56.6l-1.2-74c-.3-21.4-.6-44.4 9.7-63.8 3.5-6.7-6.7-12.7-10.2-6-8 15.3-10.6 32.4-11.2 49.4-.7 18.6.2 37.2.5 55.8.3 18.9.9 37.8.8 56.7-.1 16-1 33.2-9 47.4-15.1 26.9-54 35-76.5 12.6-9.5-9.4-14.6-23-15.5-36.2-.9-12.3 1.4-27.1 10.2-36.5 16.4-17.4 52.8-14.8 67.4 3.4 4.8 6.1 13.2-2.3 8.4-8.2zm18.9-216.3c6.5 22.9 23.3 43.2 46.4 50.7 13 4.2 26.5 2.5 39.7.9 13.3-1.6 27.8-3.1 39 5.7 11.3 8.9 17.3 23.5 23 36.3 3.1 7 13.3.9 10.2-6-6.5-14.6-13.5-30.2-26.6-40.1-14.5-10.9-32.1-9.4-49-7.3-16.2 2-31.1 2.5-45.2-6.7-13-8.4-21.9-21.8-26.1-36.6-2.1-7.3-13.5-4.2-11.4 3.1z"/><path d="M527.6 430.1c7.6 0 7.6-11.9 0-11.9s-7.6 11.9 0 11.9z"/><path d="M507.5 431.6c19.4 15.9 46.5 6 67.1-1.5 23.7-8.6 50.1-10 73.4 1 6.9 3.2 12.9-7 6-10.2-21.8-10.3-47.5-12.3-70.7-6-12.4 3.4-24.1 9.3-36.7 11.9-9.3 2-22.7 2.9-30.6-3.6-6-4.8-14.4 3.5-8.5 8.4z"/><path d="M476.6 573.1c-9.9-6.8-21.3-11.5-32.8-10.5s-23 8.3-27.9 20.3c-5.6 13.8-1.4 30.5 6 43.2 6.7 11.6 16.2 21.4 27.7 25.9s25 3.2 34.7-5.1c9.8-8.4 14.7-22.3 17.2-36 11-58.7-2.9-114.9 7-178.6 8.2 5.9 18.7 5.6 28 2.6s17.8-8.4 26.7-12.6c22.2-10.2 47.2-12.1 70.3-5.2-8-14-25.1-15-39.6-16.3-28.2-2.6-58-13.8-74.5-40.1-16.6 16.5-20 44-22.2 69-2.9 32.1-5.5 64.4-2.8 96.5 1.2 14 3.5 28 2.2 42-.2 2-.6 4.3-2.3 5.1-1 .5-2.2.1-3.2-.2-13.5-4.3-26.9-8.5-40.3-12.8" opacity=".7" fill="#131314"/><path d="M501.6 557.7c-7.1-67.7-1.6-136.2 16.2-201.9 2-7.4-9.4-10.5-11.4-3.1-18.1 66.6-23.9 136.4-16.7 205 .9 7.5 12.7 7.6 11.9 0z"/></svg>