<?xml version="1.0" encoding="utf-8"?>
<!-- Generator: Adobe Illustrator 23.0.2, SVG Export Plug-In . SVG Version: 6.00 Build 0)  -->
<svg version="1.1" id="Layer_1" xmlns="http://www.w3.org/2000/svg" xmlns:xlink="http://www.w3.org/1999/xlink" x="0px" y="0px"
	 viewBox="0 0 1000 1000" style="enable-background:new 0 0 1000 1000;" xml:space="preserve">
<style type="text/css">
	.st0{opacity:0.7;fill:#81C90E;}
</style>
<g>
	<path class="st0" d="M544.7,379.7c-8.1-10.4-28.4-15.5-41-13.2c-15.2,2.9-33.1,17.2-36.8,32.9s8.8,39.3,23.1,45.3
		c-5,1-10.4,2.2-13.9,6.2s-3.2,11.6,1.6,13.5c2.4,0.9,5.1,0.2,7.6,0.6c7.2,1.2,9.6,10.7,10,18.3c1.2,22.5-1.8,45.2-8.6,66.5
		c-3.9,12-9.4,24.2-19.2,31.6c-5.2,4-11.5,6.5-15.7,11.5s-5.3,14.1,0.2,17.7c-9-2.6-14.5,12.7-8.5,20.2s16.6,8.3,26,8.6
		c27.1,0.7,54.1,1.5,81.2,2.2c8.8,0.2,18.5,0.2,25.2-5.8s6.6-20-1.9-22.4c-4,0-7.9,0.1-11.9,0.2c6.5-7.1,5.4-20.2-2.3-25.9
		c-3-2.2-6.5-3.3-9.4-5.7c-2.8-2.2-4.7-5.5-6.4-8.7c-18.1-33.1-27.2-71.6-25.8-109.7c-0.2,5.6,13.9-1.4,15.2-4.8
		c2.2-5.7-3.9-7.6-3.7-11.3c0.3-5,1.2-5.1,3-10.4C539.1,419.8,559.9,399.1,544.7,379.7z"/>
	<g>
		<path d="M486.9,438.2c-14.7-1.4-24.8-15.7-24.6-29.8c0.3-16.2,11.4-29.6,25.2-36.8c13.5-6.9,30.4-9.5,45-4.8
			c14.9,4.8,24.1,18.6,24.1,34.1c0,8.6-2.9,16.8-7.7,23.9c-2.3,3.4-5,6.5-8.1,9.3c-1.6,1.5-3.2,2.8-5,4.1c-0.6,0.5-1.3,1-2,1.3
			c-0.4,0.2-0.8,0.4-1.3,0.5c-0.8,0-0.6,0.2,0.4,0.5c-2.5-4.8-9.8-0.5-7.2,4.2c5,9.4,16.9-0.7,21.5-5.1c6.9-6.5,12.3-14.6,15.3-23.6
			c6-18,0.8-39.2-14.7-50.7c-15.7-11.7-38.2-11.2-55.9-4.7c-18.6,6.8-34.6,21.5-37.6,41.8c-3.1,20.9,10.6,42.1,32.4,44.1
			C492.2,447.1,492.2,438.7,486.9,438.2L486.9,438.2z"/>
	</g>
	<g>
		<path d="M490,440.1c-6.7-2.4-14.4,0-18.9,5.5c-4.1,4.9-6.8,13.9-4.1,20.1c1.5,3.5,5,4.4,8.5,5.1c4.2,0.9,8.4,1.5,12.7,1.9
			c8.6,0.7,17.2,0.1,25.7-1.4c5.3-1,3-9-2.2-8.1c-11,2-22.4,1.9-33.4-0.4c-0.9-0.2-2.8-0.2-3.5-0.8c-0.6-0.5-0.4-2.4-0.3-3.3
			c0.2-2.2,0.8-4.4,1.9-6.3c2.4-4,6.9-5.9,11.3-4.3C492.9,450,495,442,490,440.1L490,440.1z"/>
	</g>
	<g>
		<path d="M482.3,447.3c9.5,3.5,19.5,4.2,29.5,2.5c5.3-0.9,3-9-2.2-8.1c-8.5,1.5-17,0.5-25-2.5C479.5,437.4,477.3,445.5,482.3,447.3
			L482.3,447.3z"/>
	</g>
	<g>
		<path d="M492.8,474.1c-2.5,39.4-8.4,83.1-40.3,110.3c-4.1,3.5,1.8,9.4,5.9,5.9c33.7-28.6,40.1-74.7,42.8-116.2
			C501.5,468.8,493.1,468.8,492.8,474.1L492.8,474.1z"/>
	</g>
	<g>
		<path d="M522.8,473.1c-0.2,23.5,4,46.9,12.5,68.8c4.2,10.8,9.3,21.3,15.4,31.2c4.1,6.6,12.9,22.7,22.9,15.6
			c4.4-3.1,0.2-10.3-4.2-7.2c-4,2.8-14.4-17.4-16-20.4c-5-9-9.1-18.4-12.5-28.2c-6.6-19.3-9.9-39.5-9.7-59.8
			C531.2,467.7,522.8,467.7,522.8,473.1L522.8,473.1z"/>
	</g>
	<g>
		<path d="M462.3,584.3c-6-4.1-14.8-2.5-18.7,3.8c-4.2,6.8-1.3,15,1.6,21.7c2.1,4.9,9.3,0.7,7.2-4.2c-1.5-3.4-3.4-7.9-2.3-11.6
			c1.1-3.7,5.1-4.4,8-2.4C462.6,594.6,466.8,587.3,462.3,584.3L462.3,584.3z"/>
	</g>
	<g>
		<path d="M446.6,606.8c-1.2,0.4-3.4-1.2-4.7-1.4c-1.8-0.3-3.5,0-5.1,0.8c-3.1,1.7-4.8,5.2-5.5,8.5c-1.9,9.2-0.8,19.4,0.6,28.6
			c0.8,4.7,8.4,3.5,8.2-1.1c0-1-0.1-2-0.1-3c-0.2-5.4-8.6-5.4-8.4,0c0,1,0.1,2,0.1,3c2.7-0.4,5.5-0.7,8.2-1.1
			c-1.2-7.3-1.5-14.8-0.9-22.2c0.1-1.1,0.4-4.8,1.4-5.3c0.8-0.3,3.1,1.2,4,1.4c1.5,0.3,2.9,0.3,4.3-0.2
			C453.9,613.3,451.8,605.2,446.6,606.8L446.6,606.8z"/>
	</g>
	<g>
		<path d="M434.8,642.3c51.4,7.4,103.6,8.6,155.3,3.4c5.3-0.5,5.4-8.9,0-8.4c-50.9,5.1-102.4,4.1-153.1-3.1
			c-2.2-0.3-4.5,0.6-5.1,2.9C431.3,639.1,432.5,642,434.8,642.3L434.8,642.3z"/>
	</g>
	<g>
		<path d="M578,611.4c2.2-0.8,5.4-2.2,7.8-1.4c2.8,1,2.2,5.5,2.2,7.9c0.1,7.7-0.3,15.4-1.2,23.1c2.8,0,5.6,0,8.4,0
			c0-0.9,0.1-1.8,0.1-2.7c0.2-5.4-8.2-5.4-8.4,0c0,0.9-0.1,1.8-0.1,2.7c-0.2,5.5,7.8,5.2,8.4,0c0.6-5.4,1-10.8,1.1-16.3
			c0.1-4.8,0.6-10.1-0.6-14.8c-2.4-9.5-12.4-9.2-19.9-6.6C570.8,605.1,572.9,613.2,578,611.4L578,611.4z"/>
	</g>
	<g>
		<path d="M546.5,589.9c7.8-0.9,15.5-1.1,23.3-0.6c1.5,0.1,3.6-0.1,5.1,0.5c1.3,0.5,1.3,1.2,1.2,2.7c-0.2,3.5-1.9,6.7-4.2,9.1
			c-3.7,3.9,2.2,9.8,5.9,5.9c5.3-5.6,11.3-19.5,2.2-24.7c-4.3-2.5-10.9-2.1-15.7-2.2c-6-0.1-11.9,0.2-17.8,0.8
			C541.2,582.1,541.2,590.5,546.5,589.9L546.5,589.9z"/>
	</g>
	<g>
		<path d="M471.7,599.2c11.6,0.4,23.2,0.8,34.8,1.3c5.4,0.2,5.4-8.2,0-8.4c-11.6-0.4-23.2-0.8-34.8-1.3
			C466.3,590.7,466.3,599,471.7,599.2L471.7,599.2z"/>
	</g>
	<g>
		<path d="M531.5,600.1c1.1-0.4,2.2-0.7,3.3-1.1c2.1-0.7,3.6-2.9,2.9-5.2c-0.7-2.1-2.9-3.7-5.2-2.9c-1.1,0.4-2.2,0.7-3.3,1.1
			c-2.1,0.7-3.6,2.9-2.9,5.2C527,599.2,529.3,600.8,531.5,600.1L531.5,600.1z"/>
	</g>
	<g>
		<path d="M512.8,497.1c-0.4,13.9,2.7,28.4,6.7,41.7c4,13.2,9.7,28.4,21.5,36.6c4.4,3.1,8.6-4.2,4.2-7.2c-4.6-3.2-7.8-8.4-10.4-13.3
			c-3.3-6.4-5.8-13.2-7.8-20.1c-3.5-12.1-6.3-25.1-5.9-37.7C521.3,491.8,512.9,491.8,512.8,497.1L512.8,497.1z"/>
	</g>
	<g>
		<path d="M521.1,382.6c11.5,6.8,15.6,22.7,8.8,34.2c-2.7,4.7,4.5,8.9,7.2,4.2c9-15.4,3.5-36.6-11.8-45.6
			C520.7,372.6,516.4,379.8,521.1,382.6L521.1,382.6z"/>
	</g>
	<g>
		<path d="M525,451.5c4.6-0.9,11.1-2.3,15.3,0.8c2.6,1.9,4.4,6.1,1,8.1c-1.7,1-4,1.1-5.9,1.2c-3,0.2-5.9,0.4-8.9,0.7
			c-6.1,0.6-12.1,1.5-18.1,2.5c-5.3,1-3,9,2.2,8.1c8.5-1.5,17.1-2.2,25.7-3c6.2-0.5,13.1-2.7,14.9-9.5c1.5-5.9-1.8-12.2-6.7-15.4
			c-6.4-4.2-14.7-3-21.7-1.7C517.4,444.4,519.7,452.5,525,451.5L525,451.5z"/>
	</g>
</g>
</svg>
