<?xml version="1.0" encoding="utf-8"?>
<!-- Generator: Adobe Illustrator 23.0.2, SVG Export Plug-In . SVG Version: 6.00 Build 0)  -->
<svg version="1.1" id="Layer_1" xmlns="http://www.w3.org/2000/svg" xmlns:xlink="http://www.w3.org/1999/xlink" x="0px" y="0px"
	 viewBox="0 0 1000 1000" style="enable-background:new 0 0 1000 1000;" xml:space="preserve">
<style type="text/css">
	.st0{opacity:0.7;fill:#F72D2D;}
</style>
<g>
	<path class="st0" d="M544.2,397.5c-8.2-10.2-28.5-15.1-41.3-13c-28.2,4.6-41.8,32-45.4,47.5s17.2,23.8,31.7,29.7
		c-5.1,1-10.5,2.2-14,6.1c-3.5,3.9-3.2,11.5,1.6,13.3c2.4,0.9,5.1,0.2,7.7,0.6c7.3,1.2,9.7,10.5,10.1,18c1.2,22.1-1.8,44.5-8.6,65.6
		c-3.9,11.9-9.4,23.8-19.3,31.2c-5.2,3.9-11.5,6.4-15.8,11.4s-5.3,13.9,0.2,17.4c-9.1-2.6-14.6,12.5-8.6,20s16.8,8.2,26.2,8.5
		c27.3,0.7,54.5,1.5,81.8,2.2c8.9,0.2,18.6,0.2,25.4-5.7c6.8-5.9,6.7-19.7-1.9-22c-4,0-8,0.1-12,0.2c6.6-7,5.4-19.9-2.3-25.5
		c-3-2.2-6.6-3.3-9.5-5.6c-2.8-2.2-4.7-5.4-6.4-8.5c-18.2-32.6-27.4-70.6-26-108.1c-0.2,5.5,14-1.4,15.3-4.7c2.2-5.6-4-7.5-3.7-11.1
		c0.3-5,1.2-5,3.1-10.3C538.6,437,559.6,416.6,544.2,397.5z"/>
	<g>
		<path d="M478.7,452.2c-14.7-1.4-24.8-15.7-24.6-29.8c0.3-16.2,11.4-29.6,25.2-36.8c13.5-6.9,30.4-9.5,45-4.8
			c14.9,4.8,24.1,18.6,24.1,34.1c0,8.6-2.9,16.8-7.7,23.9c-2.3,3.4-5,6.5-8.1,9.3c-1.6,1.5-3.2,2.8-5,4.1c-0.7,0.5-1.3,1-2,1.3
			c-0.4,0.2-0.8,0.4-1.3,0.5c-0.8,0-0.6,0.2,0.4,0.5c-2.5-4.8-9.8-0.5-7.2,4.2c5,9.4,16.9-0.7,21.5-5.1c6.9-6.5,12.3-14.6,15.3-23.6
			c6-18,0.8-39.2-14.7-50.7c-15.7-11.7-38.2-11.2-55.9-4.7c-18.6,6.8-34.6,21.5-37.6,41.8c-3.1,20.9,10.6,42.1,32.4,44.1
			C484.1,461.1,484,452.7,478.7,452.2L478.7,452.2z"/>
	</g>
	<g>
		<path d="M481.9,454.1c-6.7-2.4-14.4,0-18.9,5.5c-4.1,4.9-6.8,13.9-4.1,20.1c1.5,3.5,5,4.4,8.5,5.1c4.2,0.9,8.4,1.5,12.7,1.9
			c8.6,0.7,17.2,0.1,25.7-1.4c5.3-1,3-9-2.2-8.1c-11,2-22.4,1.9-33.4-0.4c-0.9-0.2-2.8-0.2-3.5-0.8c-0.6-0.5-0.4-2.4-0.3-3.3
			c0.2-2.2,0.8-4.4,1.9-6.3c2.4-4,6.9-5.9,11.3-4.3C484.7,464,486.9,456,481.9,454.1L481.9,454.1z"/>
	</g>
	<g>
		<path d="M474.2,461.3c9.5,3.5,19.5,4.2,29.5,2.5c5.3-0.9,3-9-2.2-8.1c-8.5,1.5-17,0.5-25-2.5C471.3,451.4,469.1,459.5,474.2,461.3
			L474.2,461.3z"/>
	</g>
	<g>
		<path d="M484.6,488.1c-2.5,39.4-8.4,83.1-40.3,110.3c-4.1,3.5,1.8,9.4,5.9,5.9c33.7-28.6,40.1-74.7,42.8-116.2
			C493.4,482.8,485,482.8,484.6,488.1L484.6,488.1z"/>
	</g>
	<g>
		<path d="M514.6,487.1c-0.2,23.5,4,46.9,12.5,68.8c4.2,10.8,9.3,21.3,15.4,31.2c4.1,6.6,12.9,22.7,22.9,15.6
			c4.4-3.1,0.2-10.3-4.2-7.2c-4,2.8-14.4-17.4-16-20.4c-5-9-9.1-18.4-12.5-28.2c-6.6-19.3-9.9-39.5-9.7-59.8
			C523,481.7,514.7,481.7,514.6,487.1L514.6,487.1z"/>
	</g>
	<g>
		<path d="M454.2,598.3c-6-4.1-14.8-2.5-18.7,3.8c-4.2,6.8-1.3,15,1.6,21.7c2.1,4.9,9.3,0.7,7.2-4.2c-1.5-3.4-3.4-7.9-2.3-11.6
			c1.1-3.7,5.1-4.4,8-2.4C454.4,608.6,458.6,601.3,454.2,598.3L454.2,598.3z"/>
	</g>
	<g>
		<path d="M438.4,620.8c-1.2,0.4-3.4-1.2-4.7-1.4c-1.8-0.3-3.5,0-5.1,0.8c-3.1,1.7-4.8,5.2-5.5,8.5c-1.9,9.2-0.8,19.4,0.6,28.6
			c0.8,4.7,8.4,3.5,8.2-1.1c0-1-0.1-2-0.1-3c-0.2-5.4-8.6-5.4-8.4,0c0,1,0.1,2,0.1,3c2.7-0.4,5.5-0.7,8.2-1.1
			c-1.2-7.3-1.5-14.8-0.9-22.2c0.1-1.1,0.4-4.8,1.4-5.3c0.8-0.3,3.1,1.2,4,1.4c1.5,0.3,2.9,0.3,4.3-0.2
			C445.8,627.3,443.6,619.2,438.4,620.8L438.4,620.8z"/>
	</g>
	<g>
		<path d="M426.6,656.3c51.4,7.4,103.6,8.6,155.3,3.4c5.3-0.5,5.4-8.9,0-8.4c-50.9,5.1-102.4,4.1-153.1-3.1
			c-2.2-0.3-4.5,0.6-5.1,2.9C423.1,653.1,424.4,656,426.6,656.3L426.6,656.3z"/>
	</g>
	<g>
		<path d="M569.9,625.4c2.2-0.8,5.4-2.2,7.8-1.4c2.8,1,2.2,5.5,2.2,7.9c0.1,7.7-0.3,15.4-1.2,23.1c2.8,0,5.6,0,8.4,0
			c0-0.9,0.1-1.8,0.1-2.7c0.2-5.4-8.2-5.4-8.4,0c0,0.9-0.1,1.8-0.1,2.7c-0.2,5.5,7.8,5.2,8.4,0c0.6-5.4,1-10.8,1.1-16.3
			c0.1-4.8,0.6-10.1-0.6-14.8c-2.4-9.5-12.4-9.2-19.9-6.6C562.6,619.1,564.8,627.2,569.9,625.4L569.9,625.4z"/>
	</g>
	<g>
		<path d="M538.4,603.9c7.8-0.9,15.5-1.1,23.3-0.6c1.5,0.1,3.6-0.1,5.1,0.5c1.3,0.5,1.3,1.2,1.2,2.7c-0.2,3.5-1.9,6.7-4.2,9.1
			c-3.7,3.9,2.2,9.8,5.9,5.9c5.3-5.6,11.3-19.5,2.2-24.7c-4.3-2.5-10.9-2.1-15.7-2.2c-6-0.1-11.9,0.2-17.8,0.8
			C533.1,596.1,533,604.5,538.4,603.9L538.4,603.9z"/>
	</g>
	<g>
		<path d="M463.5,613.2c11.6,0.4,23.2,0.8,34.8,1.3c5.4,0.2,5.4-8.2,0-8.4c-11.6-0.4-23.2-0.8-34.8-1.3
			C458.1,604.7,458.1,613,463.5,613.2L463.5,613.2z"/>
	</g>
	<g>
		<path d="M523.3,614.1c1.1-0.4,2.2-0.7,3.3-1.1c2.1-0.7,3.6-2.9,2.9-5.2c-0.7-2.1-2.9-3.7-5.2-2.9c-1.1,0.4-2.2,0.7-3.3,1.1
			c-2.1,0.7-3.6,2.9-2.9,5.2C518.9,613.2,521.1,614.8,523.3,614.1L523.3,614.1z"/>
	</g>
	<g>
		<path d="M504.6,511.1c-0.4,13.9,2.7,28.4,6.7,41.7c4,13.2,9.7,28.4,21.5,36.6c4.4,3.1,8.6-4.2,4.2-7.2c-4.6-3.2-7.8-8.4-10.4-13.3
			c-3.3-6.4-5.8-13.2-7.8-20.1c-3.5-12.1-6.3-25.1-5.9-37.7C513.2,505.8,504.8,505.8,504.6,511.1L504.6,511.1z"/>
	</g>
	<g>
		<path d="M512.9,396.6c11.5,6.8,15.6,22.7,8.8,34.2c-2.7,4.7,4.5,8.9,7.2,4.2c9-15.4,3.5-36.6-11.8-45.6
			C512.5,386.6,508.3,393.8,512.9,396.6L512.9,396.6z"/>
	</g>
	<g>
		<path d="M516.8,465.5c4.6-0.9,11.1-2.3,15.3,0.8c2.6,1.9,4.4,6.1,1,8.1c-1.7,1-4,1.1-5.9,1.2c-3,0.2-5.9,0.4-8.9,0.7
			c-6.1,0.6-12.1,1.5-18.1,2.5c-5.3,1-3,9,2.2,8.1c8.5-1.5,17.1-2.2,25.7-3c6.2-0.5,13.1-2.7,14.9-9.5c1.5-5.9-1.8-12.2-6.7-15.4
			c-6.4-4.2-14.7-3-21.7-1.7C509.3,458.4,511.5,466.5,516.8,465.5L516.8,465.5z"/>
	</g>
</g>
</svg>
