<?xml version="1.0" encoding="utf-8"?>
<!-- Generator: Adobe Illustrator 23.0.2, SVG Export Plug-In . SVG Version: 6.00 Build 0)  -->
<svg version="1.1" id="Layer_1" xmlns="http://www.w3.org/2000/svg" xmlns:xlink="http://www.w3.org/1999/xlink" x="0px" y="0px"
	 viewBox="0 0 1000 1000" style="enable-background:new 0 0 1000 1000;" xml:space="preserve">
<style type="text/css">
	.st0{opacity:0.7;fill:#EBCE91;}
</style>
<g>
	<path class="st0" d="M550.3,408.4c-8.2-10.2-28.6-15.4-41.4-13c-15.4,2.8-33.4,17.1-37.1,32.6c-3.7,15.5,8.9,38.9,23.4,44.9
		c-5.1,1-10.5,2.2-14,6.1s-3.2,11.5,1.6,13.4c2.4,0.9,5.2,0.2,7.7,0.6c7.3,1.2,9.7,10.6,10.1,18.1c1.2,22.3-1.8,44.7-8.7,65.9
		c-3.9,11.9-9.4,23.9-19.3,31.3c-5.2,3.9-11.6,6.4-15.9,11.4s-5.3,14,0.2,17.5c-9.1-2.6-14.7,12.6-8.6,20.1
		c6.1,7.5,16.8,8.3,26.3,8.5c27.3,0.7,54.7,1.5,82,2.2c8.9,0.2,18.7,0.2,25.5-5.7s6.7-19.8-1.9-22.1c-4,0-8,0.1-12,0.2
		c6.6-7,5.4-20-2.3-25.7c-3-2.2-6.6-3.3-9.5-5.6c-2.8-2.2-4.7-5.4-6.5-8.6c-18.3-32.8-27.4-70.9-26.1-108.6
		c-0.2,5.5,14-1.4,15.3-4.7c2.2-5.6-4-7.5-3.7-11.2c0.4-5,1.2-5.1,3.1-10.3C544.7,448.1,565.8,427.6,550.3,408.4z"/>
	<g>
		<path d="M491.5,470.2c-14.7-1.4-24.8-15.7-24.6-29.8c0.3-16.2,11.4-29.6,25.2-36.8c13.5-6.9,30.4-9.5,45-4.8
			c14.9,4.8,24.1,18.6,24.1,34.1c0,8.6-2.9,16.8-7.7,23.9c-2.3,3.4-5,6.5-8.1,9.3c-1.6,1.5-3.2,2.8-5,4.1c-0.7,0.5-1.3,1-2,1.3
			c-0.4,0.2-0.8,0.4-1.3,0.5c-0.8,0-0.6,0.2,0.4,0.5c-2.5-4.8-9.8-0.5-7.2,4.2c5,9.4,16.9-0.7,21.5-5.1c6.9-6.5,12.3-14.6,15.3-23.6
			c6-18,0.8-39.2-14.7-50.7c-15.7-11.7-38.2-11.2-55.9-4.7c-18.6,6.8-34.6,21.5-37.6,41.8c-3.1,20.9,10.6,42.1,32.4,44.1
			C496.9,479.1,496.9,470.7,491.5,470.2L491.5,470.2z"/>
	</g>
	<g>
		<path d="M494.7,472.1c-6.7-2.4-14.4,0-18.9,5.5c-4.1,4.9-6.8,13.9-4.1,20.1c1.5,3.5,5,4.4,8.5,5.1c4.2,0.9,8.4,1.5,12.7,1.9
			c8.6,0.7,17.2,0.1,25.7-1.4c5.3-1,3-9-2.2-8.1c-11,2-22.4,1.9-33.4-0.4c-0.9-0.2-2.8-0.2-3.5-0.8c-0.6-0.5-0.4-2.4-0.3-3.3
			c0.2-2.2,0.8-4.4,1.9-6.3c2.4-4,6.9-5.9,11.3-4.3C497.6,482,499.7,474,494.7,472.1L494.7,472.1z"/>
	</g>
	<g>
		<path d="M487,479.3c9.5,3.5,19.5,4.2,29.5,2.5c5.3-0.9,3-9-2.2-8.1c-8.5,1.5-17,0.5-25-2.5C484.2,469.4,482,477.5,487,479.3
			L487,479.3z"/>
	</g>
	<g>
		<path d="M497.5,506.1c-2.5,39.4-8.4,83.1-40.3,110.3c-4.1,3.5,1.8,9.4,5.9,5.9c33.7-28.6,40.1-74.7,42.8-116.2
			C506.2,500.8,497.8,500.8,497.5,506.1L497.5,506.1z"/>
	</g>
	<g>
		<path d="M527.5,505.1c-0.2,23.5,4,46.9,12.5,68.8c4.2,10.8,9.3,21.3,15.4,31.2c4.1,6.6,12.9,22.7,22.9,15.6
			c4.4-3.1,0.2-10.3-4.2-7.2c-4,2.8-14.4-17.4-16-20.4c-5-9-9.1-18.4-12.5-28.2c-6.6-19.3-9.9-39.5-9.7-59.8
			C535.9,499.7,527.5,499.7,527.5,505.1L527.5,505.1z"/>
	</g>
	<g>
		<path d="M467,616.3c-6-4.1-14.8-2.5-18.7,3.8c-4.2,6.8-1.3,15,1.6,21.7c2.1,4.9,9.3,0.7,7.2-4.2c-1.5-3.4-3.4-7.9-2.3-11.6
			c1.1-3.7,5.1-4.4,8-2.4C467.2,626.6,471.4,619.3,467,616.3L467,616.3z"/>
	</g>
	<g>
		<path d="M451.3,638.8c-1.2,0.4-3.4-1.2-4.7-1.4c-1.8-0.3-3.5,0-5.1,0.8c-3.1,1.7-4.8,5.2-5.5,8.5c-1.9,9.2-0.8,19.4,0.6,28.6
			c0.8,4.7,8.4,3.5,8.2-1.1c0-1-0.1-2-0.1-3c-0.2-5.4-8.6-5.4-8.4,0c0,1,0.1,2,0.1,3c2.7-0.4,5.5-0.7,8.2-1.1
			c-1.2-7.3-1.5-14.8-0.9-22.2c0.1-1.1,0.4-4.8,1.4-5.3c0.8-0.3,3.1,1.2,4,1.4c1.5,0.3,2.9,0.3,4.3-0.2
			C458.6,645.3,456.4,637.2,451.3,638.8L451.3,638.8z"/>
	</g>
	<g>
		<path d="M439.5,674.3c51.4,7.4,103.6,8.6,155.3,3.4c5.3-0.5,5.4-8.9,0-8.4c-50.9,5.1-102.4,4.1-153.1-3.1
			c-2.2-0.3-4.5,0.6-5.1,2.9C436,671.1,437.2,674,439.5,674.3L439.5,674.3z"/>
	</g>
	<g>
		<path d="M582.7,643.4c2.2-0.8,5.4-2.2,7.8-1.4c2.8,1,2.2,5.5,2.2,7.9c0.1,7.7-0.3,15.4-1.2,23.1c2.8,0,5.6,0,8.4,0
			c0-0.9,0.1-1.8,0.1-2.7c0.2-5.4-8.2-5.4-8.4,0c0,0.9-0.1,1.8-0.1,2.7c-0.2,5.5,7.8,5.2,8.4,0c0.6-5.4,1-10.8,1.1-16.3
			c0.1-4.8,0.6-10.1-0.6-14.8c-2.4-9.5-12.4-9.2-19.9-6.6C575.5,637.1,577.6,645.2,582.7,643.4L582.7,643.4z"/>
	</g>
	<g>
		<path d="M551.2,621.9c7.8-0.9,15.5-1.1,23.3-0.6c1.5,0.1,3.6-0.1,5.1,0.5c1.3,0.5,1.3,1.2,1.2,2.7c-0.2,3.5-1.9,6.7-4.2,9.1
			c-3.7,3.9,2.2,9.8,5.9,5.9c5.3-5.6,11.3-19.5,2.2-24.7c-4.3-2.5-10.9-2.1-15.7-2.2c-6-0.1-11.9,0.2-17.8,0.8
			C545.9,614.1,545.9,622.5,551.2,621.9L551.2,621.9z"/>
	</g>
	<g>
		<path d="M476.4,631.2c11.6,0.4,23.2,0.8,34.8,1.3c5.4,0.2,5.4-8.2,0-8.4c-11.6-0.4-23.2-0.8-34.8-1.3
			C471,622.7,471,631,476.4,631.2L476.4,631.2z"/>
	</g>
	<g>
		<path d="M536.2,632.1c1.1-0.4,2.2-0.7,3.3-1.1c2.1-0.7,3.6-2.9,2.9-5.2c-0.7-2.1-2.9-3.7-5.2-2.9c-1.1,0.4-2.2,0.7-3.3,1.1
			c-2.1,0.7-3.6,2.9-2.9,5.2C531.7,631.2,534,632.8,536.2,632.1L536.2,632.1z"/>
	</g>
	<g>
		<path d="M517.5,529.1c-0.4,13.9,2.7,28.4,6.7,41.7c4,13.2,9.7,28.4,21.5,36.6c4.4,3.1,8.6-4.2,4.2-7.2c-4.6-3.2-7.8-8.4-10.4-13.3
			c-3.3-6.4-5.8-13.2-7.8-20.1c-3.5-12.1-6.3-25.1-5.9-37.7C526,523.8,517.6,523.8,517.5,529.1L517.5,529.1z"/>
	</g>
	<g>
		<path d="M525.8,414.6c11.5,6.8,15.6,22.7,8.8,34.2c-2.7,4.7,4.5,8.9,7.2,4.2c9-15.4,3.5-36.6-11.8-45.6
			C525.3,404.6,521.1,411.8,525.8,414.6L525.8,414.6z"/>
	</g>
	<g>
		<path d="M529.6,483.5c4.6-0.9,11.1-2.3,15.3,0.8c2.6,1.9,4.4,6.1,1,8.1c-1.7,1-4,1.1-5.9,1.2c-3,0.2-5.9,0.4-8.9,0.7
			c-6.1,0.6-12.1,1.5-18.1,2.5c-5.3,1-3,9,2.2,8.1c8.5-1.5,17.1-2.2,25.7-3c6.2-0.5,13.1-2.7,14.9-9.5c1.5-5.9-1.8-12.2-6.7-15.4
			c-6.4-4.2-14.7-3-21.7-1.7C522.1,476.4,524.4,484.5,529.6,483.5L529.6,483.5z"/>
	</g>
</g>
</svg>
