<svg xmlns="http://www.w3.org/2000/svg" viewBox="0 0 1000 1000"><path d="M544.7 379.7c-8.1-10.4-28.4-15.5-41-13.2-15.2 2.9-33.1 17.2-36.8 32.9s8.8 39.3 23.1 45.3c-5 1-10.4 2.2-13.9 6.2s-3.2 11.6 1.6 13.5c2.4.9 5.1.2 7.6.6 7.2 1.2 9.6 10.7 10 18.3 1.2 22.5-1.8 45.2-8.6 66.5-3.9 12-9.4 24.2-19.2 31.6-5.2 4-11.5 6.5-15.7 11.5s-5.3 14.1.2 17.7c-9-2.6-14.5 12.7-8.5 20.2s16.6 8.3 26 8.6c27.1.7 54.1 1.5 81.2 2.2 8.8.2 18.5.2 25.2-5.8s6.6-20-1.9-22.4c-4 0-7.9.1-11.9.2 6.5-7.1 5.4-20.2-2.3-25.9-3-2.2-6.5-3.3-9.4-5.7-2.8-2.2-4.7-5.5-6.4-8.7-18.1-33.1-27.2-71.6-25.8-109.7-.2 5.6 13.9-1.4 15.2-4.8 2.2-5.7-3.9-7.6-3.7-11.3.3-5 1.2-5.1 3-10.4 6.4-17.3 27.2-38 12-57.4z" opacity=".7" fill="#81c90e"/><path d="M486.9 438.2c-14.7-1.4-24.8-15.7-24.6-29.8.3-16.2 11.4-29.6 25.2-36.8 13.5-6.9 30.4-9.5 45-4.8 14.9 4.8 24.1 18.6 24.1 34.1 0 8.6-2.9 16.8-7.7 23.9-2.3 3.4-5 6.5-8.1 9.3-1.6 1.5-3.2 2.8-5 4.1-.6.5-1.3 1-2 1.3-.4.2-.8.4-1.3.5-.8 0-.6.2.4.5-2.5-4.8-9.8-.5-7.2 4.2 5 9.4 16.9-.7 21.5-5.1 6.9-6.5 12.3-14.6 15.3-23.6 6-18 .8-39.2-14.7-50.7-15.7-11.7-38.2-11.2-55.9-4.7-18.6 6.8-34.6 21.5-37.6 41.8-3.1 20.9 10.6 42.1 32.4 44.1 5.5.6 5.5-7.8.2-8.3z"/><path d="M490 440.1c-6.7-2.4-14.4 0-18.9 5.5-4.1 4.9-6.8 13.9-4.1 20.1 1.5 3.5 5 4.4 8.5 5.1 4.2.9 8.4 1.5 12.7 1.9 8.6.7 17.2.1 25.7-1.4 5.3-1 3-9-2.2-8.1-11 2-22.4 1.9-33.4-.4-.9-.2-2.8-.2-3.5-.8-.6-.5-.4-2.4-.3-3.3.2-2.2.8-4.4 1.9-6.3 2.4-4 6.9-5.9 11.3-4.3 5.2 1.9 7.3-6.1 2.3-8z"/><path d="M482.3 447.3c9.5 3.5 19.5 4.2 29.5 2.5 5.3-.9 3-9-2.2-8.1-8.5 1.5-17 .5-25-2.5-5.1-1.8-7.3 6.3-2.3 8.1zm10.5 26.8c-2.5 39.4-8.4 83.1-40.3 110.3-4.1 3.5 1.8 9.4 5.9 5.9 33.7-28.6 40.1-74.7 42.8-116.2.3-5.3-8.1-5.3-8.4 0zm30-1c-.2 23.5 4 46.9 12.5 68.8 4.2 10.8 9.3 21.3 15.4 31.2 4.1 6.6 12.9 22.7 22.9 15.6 4.4-3.1.2-10.3-4.2-7.2-4 2.8-14.4-17.4-16-20.4-5-9-9.1-18.4-12.5-28.2-6.6-19.3-9.9-39.5-9.7-59.8 0-5.4-8.4-5.4-8.4 0z"/><path d="M462.3 584.3c-6-4.1-14.8-2.5-18.7 3.8-4.2 6.8-1.3 15 1.6 21.7 2.1 4.9 9.3.7 7.2-4.2-1.5-3.4-3.4-7.9-2.3-11.6 1.1-3.7 5.1-4.4 8-2.4 4.5 3 8.7-4.3 4.2-7.3z"/><path d="M446.6 606.8c-1.2.4-3.4-1.2-4.7-1.4-1.8-.3-3.5 0-5.1.8-3.1 1.7-4.8 5.2-5.5 8.5-1.9 9.2-.8 19.4.6 28.6.8 4.7 8.4 3.5 8.2-1.1 0-1-.1-2-.1-3-.2-5.4-8.6-5.4-8.4 0 0 1 .1 2 .1 3 2.7-.4 5.5-.7 8.2-1.1-1.2-7.3-1.5-14.8-.9-22.2.1-1.1.4-4.8 1.4-5.3.8-.3 3.1 1.2 4 1.4 1.5.3 2.9.3 4.3-.2 5.2-1.5 3.1-9.6-2.1-8z"/><path d="M434.8 642.3c51.4 7.4 103.6 8.6 155.3 3.4 5.3-.5 5.4-8.9 0-8.4-50.9 5.1-102.4 4.1-153.1-3.1-2.2-.3-4.5.6-5.1 2.9-.6 2 .6 4.9 2.9 5.2z"/><path d="M578 611.4c2.2-.8 5.4-2.2 7.8-1.4 2.8 1 2.2 5.5 2.2 7.9.1 7.7-.3 15.4-1.2 23.1h8.4c0-.9.1-1.8.1-2.7.2-5.4-8.2-5.4-8.4 0 0 .9-.1 1.8-.1 2.7-.2 5.5 7.8 5.2 8.4 0 .6-5.4 1-10.8 1.1-16.3.1-4.8.6-10.1-.6-14.8-2.4-9.5-12.4-9.2-19.9-6.6-5 1.8-2.9 9.9 2.2 8.1z"/><path d="M546.5 589.9c7.8-.9 15.5-1.1 23.3-.6 1.5.1 3.6-.1 5.1.5 1.3.5 1.3 1.2 1.2 2.7-.2 3.5-1.9 6.7-4.2 9.1-3.7 3.9 2.2 9.8 5.9 5.9 5.3-5.6 11.3-19.5 2.2-24.7-4.3-2.5-10.9-2.1-15.7-2.2-6-.1-11.9.2-17.8.8-5.3.7-5.3 9.1 0 8.5zm-74.8 9.3c11.6.4 23.2.8 34.8 1.3 5.4.2 5.4-8.2 0-8.4-11.6-.4-23.2-.8-34.8-1.3-5.4-.1-5.4 8.2 0 8.4zm59.8.9c1.1-.4 2.2-.7 3.3-1.1 2.1-.7 3.6-2.9 2.9-5.2-.7-2.1-2.9-3.7-5.2-2.9-1.1.4-2.2.7-3.3 1.1-2.1.7-3.6 2.9-2.9 5.2.7 2 3 3.6 5.2 2.9zm-18.7-103c-.4 13.9 2.7 28.4 6.7 41.7 4 13.2 9.7 28.4 21.5 36.6 4.4 3.1 8.6-4.2 4.2-7.2-4.6-3.2-7.8-8.4-10.4-13.3-3.3-6.4-5.8-13.2-7.8-20.1-3.5-12.1-6.3-25.1-5.9-37.7.2-5.3-8.2-5.3-8.3 0zm8.3-114.5c11.5 6.8 15.6 22.7 8.8 34.2-2.7 4.7 4.5 8.9 7.2 4.2 9-15.4 3.5-36.6-11.8-45.6-4.6-2.8-8.9 4.4-4.2 7.2zm3.9 68.9c4.6-.9 11.1-2.3 15.3.8 2.6 1.9 4.4 6.1 1 8.1-1.7 1-4 1.1-5.9 1.2-3 .2-5.9.4-8.9.7-6.1.6-12.1 1.5-18.1 2.5-5.3 1-3 9 2.2 8.1 8.5-1.5 17.1-2.2 25.7-3 6.2-.5 13.1-2.7 14.9-9.5 1.5-5.9-1.8-12.2-6.7-15.4-6.4-4.2-14.7-3-21.7-1.7-5.4 1.1-3.1 9.2 2.2 8.2z"/></svg>