<svg version="1.1" id="Layer_1" xmlns="http://www.w3.org/2000/svg" x="0" y="0" viewBox="0 0 1000 1000" xml:space="preserve"><style>.st1{opacity:.7}.st2{fill:#c7af7b}</style><path d="M552.4 398.3c-8-10.2-27.8-15.3-40.2-13-14.9 2.8-32.5 16.9-36 32.4s8.6 38.7 22.7 44.5c-4.9 1-10.2 2.2-13.6 6.1-3.4 3.9-3.1 11.4 1.6 13.3 2.4.9 5 .2 7.5.6 7.1 1.2 9.5 10.5 9.9 18 1.2 22.1-1.7 44.4-8.4 65.4-3.8 11.8-9.2 23.8-18.8 31.1-5.1 3.9-11.2 6.4-15.4 11.3s-5.2 13.9.2 17.4c-8.9-2.6-14.2 12.5-8.3 19.9s16.3 8.2 25.5 8.5c26.5.7 53.1 1.4 79.6 2.2 8.6.2 18.1.2 24.7-5.7 6.6-5.8 6.5-19.7-1.9-22-3.9 0-7.8.1-11.7.2 6.4-7 5.3-19.9-2.2-25.5-2.9-2.2-6.4-3.3-9.2-5.5-2.7-2.2-4.6-5.4-6.3-8.5-17.8-32.5-26.6-70.4-25.3-107.8-.2 5.5 13.6-1.4 14.9-4.7 2.2-5.6-3.9-7.5-3.6-11.1.3-5 3.9-3.7 5.7-8.9 5.9-17.5 23.6-39.1 8.6-58.2z" opacity=".7" fill="#473f2c"/><path d="M492.6 458.2c-14.7-1.4-24.8-15.7-24.6-29.8.3-16.2 11.4-29.6 25.2-36.8 13.5-6.9 30.4-9.5 45-4.8 14.9 4.8 24.1 18.6 24.1 34.1 0 8.6-2.9 16.8-7.7 23.9-2.3 3.4-5 6.5-8.1 9.3-1.6 1.5-3.2 2.8-5 4.1-.7.5-1.3 1-2 1.3-.4.2-.8.4-1.3.5-.8 0-.6.2.4.5-2.5-4.8-9.8-.5-7.2 4.2 5 9.4 16.9-.7 21.5-5.1 6.9-6.5 12.3-14.6 15.3-23.6 6-18 .8-39.2-14.7-50.7-15.7-11.7-38.2-11.2-55.9-4.7-18.6 6.8-34.6 21.5-37.6 41.8-3.1 20.9 10.6 42.1 32.4 44.1 5.6.6 5.6-7.8.2-8.3z"/><path d="M495.8 460.1c-6.7-2.4-14.4 0-18.9 5.5-4.1 4.9-6.8 13.9-4.1 20.1 1.5 3.5 5 4.4 8.5 5.1 4.2.9 8.4 1.5 12.7 1.9 8.6.7 17.2.1 25.7-1.4 5.3-1 3-9-2.2-8.1-11 2-22.4 1.9-33.4-.4-.9-.2-2.8-.2-3.5-.8-.6-.5-.4-2.4-.3-3.3.2-2.2.8-4.4 1.9-6.3 2.4-4 6.9-5.9 11.3-4.3 5.1 1.9 7.3-6.1 2.3-8z"/><path d="M488.1 467.3c9.5 3.5 19.5 4.2 29.5 2.5 5.3-.9 3-9-2.2-8.1-8.5 1.5-17 .5-25-2.5-5.2-1.8-7.3 6.3-2.3 8.1zm10.5 26.8c-2.5 39.4-8.4 83.1-40.3 110.3-4.1 3.5 1.8 9.4 5.9 5.9 33.7-28.6 40.1-74.7 42.8-116.2.3-5.3-8.1-5.3-8.4 0zm29.9-1c-.2 23.5 4 46.9 12.5 68.8 4.2 10.8 9.3 21.3 15.4 31.2 4.1 6.6 12.9 22.7 22.9 15.6 4.4-3.1.2-10.3-4.2-7.2-4 2.8-14.4-17.4-16-20.4-5-9-9.1-18.4-12.5-28.2-6.6-19.3-9.9-39.5-9.7-59.8.1-5.4-8.3-5.4-8.4 0z"/><path d="M468.1 604.3c-6-4.1-14.8-2.5-18.7 3.8-4.2 6.8-1.3 15 1.6 21.7 2.1 4.9 9.3.7 7.2-4.2-1.5-3.4-3.4-7.9-2.3-11.6 1.1-3.7 5.1-4.4 8-2.4 4.4 3 8.6-4.3 4.2-7.3z"/><path d="M452.4 626.8c-1.2.4-3.4-1.2-4.7-1.4-1.8-.3-3.5 0-5.1.8-3.1 1.7-4.8 5.2-5.5 8.5-1.9 9.2-.8 19.4.6 28.6.8 4.7 8.4 3.5 8.2-1.1 0-1-.1-2-.1-3-.2-5.4-8.6-5.4-8.4 0 0 1 .1 2 .1 3 2.7-.4 5.5-.7 8.2-1.1-1.2-7.3-1.5-14.8-.9-22.2.1-1.1.4-4.8 1.4-5.3.8-.3 3.1 1.2 4 1.4 1.5.3 2.9.3 4.3-.2 5.2-1.5 3-9.6-2.1-8z"/><path d="M440.5 662.3c51.4 7.4 103.6 8.6 155.3 3.4 5.3-.5 5.4-8.9 0-8.4-50.9 5.1-102.4 4.1-153.1-3.1-2.2-.3-4.5.6-5.1 2.9-.6 2 .7 4.9 2.9 5.2z"/><path d="M583.8 631.4c2.2-.8 5.4-2.2 7.8-1.4 2.8 1 2.2 5.5 2.2 7.9.1 7.7-.3 15.4-1.2 23.1h8.4c0-.9.1-1.8.1-2.7.2-5.4-8.2-5.4-8.4 0 0 .9-.1 1.8-.1 2.7-.2 5.5 7.8 5.2 8.4 0 .6-5.4 1-10.8 1.1-16.3.1-4.8.6-10.1-.6-14.8-2.4-9.5-12.4-9.2-19.9-6.6-5.1 1.8-2.9 9.9 2.2 8.1z"/><path d="M552.3 609.9c7.8-.9 15.5-1.1 23.3-.6 1.5.1 3.6-.1 5.1.5 1.3.5 1.3 1.2 1.2 2.7-.2 3.5-1.9 6.7-4.2 9.1-3.7 3.9 2.2 9.8 5.9 5.9 5.3-5.6 11.3-19.5 2.2-24.7-4.3-2.5-10.9-2.1-15.7-2.2-6-.1-11.9.2-17.8.8-5.3.7-5.4 9.1 0 8.5z"/><g class="st1"><path class="st2" d="M477.4 619.2c11.6.4 23.2.8 34.8 1.3 5.4.2 5.4-8.2 0-8.4-11.6-.4-23.2-.8-34.8-1.3-5.4-.1-5.3 8.2 0 8.4z"/></g><g class="st1"><path class="st2" d="M537.3 620.1c1.1-.4 2.2-.7 3.3-1.1 2.1-.7 3.6-2.9 2.9-5.2-.7-2.1-2.9-3.7-5.2-2.9-1.1.4-2.2.7-3.3 1.1-2.1.7-3.6 2.9-2.9 5.2.7 2 2.9 3.6 5.2 2.9z"/></g><g class="st1"><path class="st2" d="M521.2 516.3c-1.4 13.7.8 28.2 3.8 41.6 2.9 13 7.5 29 18.3 37.7 4.2 3.3 10.1-2.5 5.9-5.9-10-8-13.8-22.9-16.4-34.8-2.7-12.4-4.6-25.8-3.3-38.5.5-5.4-7.8-5.4-8.3-.1z"/></g><g class="st1"><path class="st2" d="M526.8 402.6c11.5 6.8 15.6 22.7 8.8 34.2-2.7 4.7 4.5 8.9 7.2 4.2 9-15.4 3.5-36.6-11.8-45.6-4.6-2.8-8.8 4.4-4.2 7.2z"/></g><path d="M530.7 471.5c4.6-.9 11.1-2.3 15.3.8 2.6 1.9 4.4 6.1 1 8.1-1.7 1-4 1.1-5.9 1.2-3 .2-5.9.4-8.9.7-6.1.6-12.1 1.5-18.1 2.5-5.3 1-3 9 2.2 8.1 8.5-1.5 17.1-2.2 25.7-3 6.2-.5 13.1-2.7 14.9-9.5 1.5-5.9-1.8-12.2-6.7-15.4-6.4-4.2-14.7-3-21.7-1.7-5.3 1.1-3.1 9.2 2.2 8.2z"/></svg>