<?xml version="1.0" encoding="utf-8"?>
<!-- Generator: Adobe Illustrator 23.0.2, SVG Export Plug-In . SVG Version: 6.00 Build 0)  -->
<svg version="1.1" id="Layer_1" xmlns="http://www.w3.org/2000/svg" xmlns:xlink="http://www.w3.org/1999/xlink" x="0px" y="0px"
	 viewBox="0 0 1000 1000" style="enable-background:new 0 0 1000 1000;" xml:space="preserve">
<style type="text/css">
	.st0{opacity:0.7;fill:#473F2C;}
	.st1{opacity:0.7;}
	.st2{fill:#C7AF7B;}
</style>
<g>
	<path class="st0" d="M552.4,398.3c-8-10.2-27.8-15.3-40.2-13c-14.9,2.8-32.5,16.9-36,32.4s8.6,38.7,22.7,44.5
		c-4.9,1-10.2,2.2-13.6,6.1c-3.4,3.9-3.1,11.4,1.6,13.3c2.4,0.9,5,0.2,7.5,0.6c7.1,1.2,9.5,10.5,9.9,18c1.2,22.1-1.7,44.4-8.4,65.4
		c-3.8,11.8-9.2,23.8-18.8,31.1c-5.1,3.9-11.2,6.4-15.4,11.3s-5.2,13.9,0.2,17.4c-8.9-2.6-14.2,12.5-8.3,19.9s16.3,8.2,25.5,8.5
		c26.5,0.7,53.1,1.4,79.6,2.2c8.6,0.2,18.1,0.2,24.7-5.7c6.6-5.8,6.5-19.7-1.9-22c-3.9,0-7.8,0.1-11.7,0.2c6.4-7,5.3-19.9-2.2-25.5
		c-2.9-2.2-6.4-3.3-9.2-5.5c-2.7-2.2-4.6-5.4-6.3-8.5c-17.8-32.5-26.6-70.4-25.3-107.8c-0.2,5.5,13.6-1.4,14.9-4.7
		c2.2-5.6-3.9-7.5-3.6-11.1c0.3-5,3.9-3.7,5.7-8.9C549.7,439,567.4,417.4,552.4,398.3z"/>
	<g>
		<path d="M492.6,458.2c-14.7-1.4-24.8-15.7-24.6-29.8c0.3-16.2,11.4-29.6,25.2-36.8c13.5-6.9,30.4-9.5,45-4.8
			c14.9,4.8,24.1,18.6,24.1,34.1c0,8.6-2.9,16.8-7.7,23.9c-2.3,3.4-5,6.5-8.1,9.3c-1.6,1.5-3.2,2.8-5,4.1c-0.7,0.5-1.3,1-2,1.3
			c-0.4,0.2-0.8,0.4-1.3,0.5c-0.8,0-0.6,0.2,0.4,0.5c-2.5-4.8-9.8-0.5-7.2,4.2c5,9.4,16.9-0.7,21.5-5.1c6.9-6.5,12.3-14.6,15.3-23.6
			c6-18,0.8-39.2-14.7-50.7c-15.7-11.7-38.2-11.2-55.9-4.7c-18.6,6.8-34.6,21.5-37.6,41.8c-3.1,20.9,10.6,42.1,32.4,44.1
			C498,467.1,498,458.7,492.6,458.2L492.6,458.2z"/>
	</g>
	<g>
		<path d="M495.8,460.1c-6.7-2.4-14.4,0-18.9,5.5c-4.1,4.9-6.8,13.9-4.1,20.1c1.5,3.5,5,4.4,8.5,5.1c4.2,0.9,8.4,1.5,12.7,1.9
			c8.6,0.7,17.2,0.1,25.7-1.4c5.3-1,3-9-2.2-8.1c-11,2-22.4,1.9-33.4-0.4c-0.9-0.2-2.8-0.2-3.5-0.8c-0.6-0.5-0.4-2.4-0.3-3.3
			c0.2-2.2,0.8-4.4,1.9-6.3c2.4-4,6.9-5.9,11.3-4.3C498.6,470,500.8,462,495.8,460.1L495.8,460.1z"/>
	</g>
	<g>
		<path d="M488.1,467.3c9.5,3.5,19.5,4.2,29.5,2.5c5.3-0.9,3-9-2.2-8.1c-8.5,1.5-17,0.5-25-2.5C485.2,457.4,483.1,465.5,488.1,467.3
			L488.1,467.3z"/>
	</g>
	<g>
		<path d="M498.6,494.1c-2.5,39.4-8.4,83.1-40.3,110.3c-4.1,3.5,1.8,9.4,5.9,5.9c33.7-28.6,40.1-74.7,42.8-116.2
			C507.3,488.8,498.9,488.8,498.6,494.1L498.6,494.1z"/>
	</g>
	<g>
		<path d="M528.5,493.1c-0.2,23.5,4,46.9,12.5,68.8c4.2,10.8,9.3,21.3,15.4,31.2c4.1,6.6,12.9,22.7,22.9,15.6
			c4.4-3.1,0.2-10.3-4.2-7.2c-4,2.8-14.4-17.4-16-20.4c-5-9-9.1-18.4-12.5-28.2c-6.6-19.3-9.9-39.5-9.7-59.8
			C537,487.7,528.6,487.7,528.5,493.1L528.5,493.1z"/>
	</g>
	<g>
		<path d="M468.1,604.3c-6-4.1-14.8-2.5-18.7,3.8c-4.2,6.8-1.3,15,1.6,21.7c2.1,4.9,9.3,0.7,7.2-4.2c-1.5-3.4-3.4-7.9-2.3-11.6
			c1.1-3.7,5.1-4.4,8-2.4C468.3,614.6,472.5,607.3,468.1,604.3L468.1,604.3z"/>
	</g>
	<g>
		<path d="M452.4,626.8c-1.2,0.4-3.4-1.2-4.7-1.4c-1.8-0.3-3.5,0-5.1,0.8c-3.1,1.7-4.8,5.2-5.5,8.5c-1.9,9.2-0.8,19.4,0.6,28.6
			c0.8,4.7,8.4,3.5,8.2-1.1c0-1-0.1-2-0.1-3c-0.2-5.4-8.6-5.4-8.4,0c0,1,0.1,2,0.1,3c2.7-0.4,5.5-0.7,8.2-1.1
			c-1.2-7.3-1.5-14.8-0.9-22.2c0.1-1.1,0.4-4.8,1.4-5.3c0.8-0.3,3.1,1.2,4,1.4c1.5,0.3,2.9,0.3,4.3-0.2
			C459.7,633.3,457.5,625.2,452.4,626.8L452.4,626.8z"/>
	</g>
	<g>
		<path d="M440.5,662.3c51.4,7.4,103.6,8.6,155.3,3.4c5.3-0.5,5.4-8.9,0-8.4c-50.9,5.1-102.4,4.1-153.1-3.1
			c-2.2-0.3-4.5,0.6-5.1,2.9C437,659.1,438.3,662,440.5,662.3L440.5,662.3z"/>
	</g>
	<g>
		<path d="M583.8,631.4c2.2-0.8,5.4-2.2,7.8-1.4c2.8,1,2.2,5.5,2.2,7.9c0.1,7.7-0.3,15.4-1.2,23.1c2.8,0,5.6,0,8.4,0
			c0-0.9,0.1-1.8,0.1-2.7c0.2-5.4-8.2-5.4-8.4,0c0,0.9-0.1,1.8-0.1,2.7c-0.2,5.5,7.8,5.2,8.4,0c0.6-5.4,1-10.8,1.1-16.3
			c0.1-4.8,0.6-10.1-0.6-14.8c-2.4-9.5-12.4-9.2-19.9-6.6C576.5,625.1,578.7,633.2,583.8,631.4L583.8,631.4z"/>
	</g>
	<g>
		<path d="M552.3,609.9c7.8-0.9,15.5-1.1,23.3-0.6c1.5,0.1,3.6-0.1,5.1,0.5c1.3,0.5,1.3,1.2,1.2,2.7c-0.2,3.5-1.9,6.7-4.2,9.1
			c-3.7,3.9,2.2,9.8,5.9,5.9c5.3-5.6,11.3-19.5,2.2-24.7c-4.3-2.5-10.9-2.1-15.7-2.2c-6-0.1-11.9,0.2-17.8,0.8
			C547,602.1,546.9,610.5,552.3,609.9L552.3,609.9z"/>
	</g>
	<g class="st1">
		<path class="st2" d="M477.4,619.2c11.6,0.4,23.2,0.8,34.8,1.3c5.4,0.2,5.4-8.2,0-8.4c-11.6-0.4-23.2-0.8-34.8-1.3
			C472,610.7,472.1,619,477.4,619.2L477.4,619.2z"/>
	</g>
	<g class="st1">
		<path class="st2" d="M537.3,620.1c1.1-0.4,2.2-0.7,3.3-1.1c2.1-0.7,3.6-2.9,2.9-5.2c-0.7-2.1-2.9-3.7-5.2-2.9
			c-1.1,0.4-2.2,0.7-3.3,1.1c-2.1,0.7-3.6,2.9-2.9,5.2C532.8,619.2,535,620.8,537.3,620.1L537.3,620.1z"/>
	</g>
	<g class="st1">
		<path class="st2" d="M521.2,516.3c-1.4,13.7,0.8,28.2,3.8,41.6c2.9,13,7.5,29,18.3,37.7c4.2,3.3,10.1-2.5,5.9-5.9
			c-10-8-13.8-22.9-16.4-34.8c-2.7-12.4-4.6-25.8-3.3-38.5C530,511,521.7,511,521.2,516.3L521.2,516.3z"/>
	</g>
	<g class="st1">
		<path class="st2" d="M526.8,402.6c11.5,6.8,15.6,22.7,8.8,34.2c-2.7,4.7,4.5,8.9,7.2,4.2c9-15.4,3.5-36.6-11.8-45.6
			C526.4,392.6,522.2,399.8,526.8,402.6L526.8,402.6z"/>
	</g>
	<g>
		<path d="M530.7,471.5c4.6-0.9,11.1-2.3,15.3,0.8c2.6,1.9,4.4,6.1,1,8.1c-1.7,1-4,1.1-5.9,1.2c-3,0.2-5.9,0.4-8.9,0.7
			c-6.1,0.6-12.1,1.5-18.1,2.5c-5.3,1-3,9,2.2,8.1c8.5-1.5,17.1-2.2,25.7-3c6.2-0.5,13.1-2.7,14.9-9.5c1.5-5.9-1.8-12.2-6.7-15.4
			c-6.4-4.2-14.7-3-21.7-1.7C523.2,464.4,525.4,472.5,530.7,471.5L530.7,471.5z"/>
	</g>
</g>
</svg>
