<svg xmlns="http://www.w3.org/2000/svg" width="1000" height="1000"><path d="M474 476.1c-16.9 23-37.8 60.4-38.5 89-.6 25.3 12.4 48.5 30.1 66.6s61.1 17.5 83.1 5.1c27-15.3 30.5-47.5 27.5-78.3-3.4-35.6-27.2-70.4-39.7-103.9-29.8-80.4-40.3-8.6-62.5 21.5z" opacity=".7" fill="#00d3e6"/><path d="M508.8 391.9c-16.9 44.6-50.3 80-70.3 123-17.7 37.9-24.3 87.6 4.7 122.1 26.2 31.3 75.2 37.4 110.6 18.9 18.4-9.6 30.4-26.3 36.2-45.9 6.5-22.1 3.8-45.4-2.2-67.2-7.5-27.3-19-53.9-31.1-79.5-12.1-25.6-25.7-50.5-40.8-74.5-3.4-5.4-11.5.4-8.1 5.8 24.7 39.4 45.4 81.1 61.7 124.6 13.9 37.1 26.2 88.4-7.6 119.2-28.2 25.7-79.3 23.4-106.4-2.6-30.5-29.2-25.5-77.2-10-112.4 19.7-44.9 54.8-81.3 72.3-127.3 2.2-6-6.8-10.2-9-4.2z"/><path d="M480.5 524.2c-5.6 23.9-4.6 50.5 8.9 71 5.3 8 12.6 17.7 7.7 25.8-3.2 5.3-10.8 6.7-16.6 4.5-5.8-2.2-10.2-7.2-13.6-12.4-8.8-13.2-13.4-29-14.3-44.8-.6-10.2.4-20.6 3.8-30.2 2-5.6 4.7-11 7.4-16.3 13.7-26.6 25.4-58.9 43.4-82.6 1.8 28.2-20.3 57.9-26.7 85zm42.6 102.5c10.1 2.3 21.5-3.8 25.2-13.5-4.2-3.9-10.8-3-16.5-1.9-4.3.9-9.3 2.2-11.1 6.3-1.7 4.1 4.2 9.5 6.9 5.9" opacity=".7" fill="#91f6ff"/></svg>