<?xml version="1.0" encoding="utf-8"?>
<!-- Generator: Adobe Illustrator 23.0.2, SVG Export Plug-In . SVG Version: 6.00 Build 0)  -->
<svg version="1.1" id="Layer_1" xmlns="http://www.w3.org/2000/svg" xmlns:xlink="http://www.w3.org/1999/xlink" x="0px" y="0px"
	 viewBox="0 0 1000 1000" style="enable-background:new 0 0 1000 1000;" xml:space="preserve">
<style type="text/css">
	.st0{opacity:0.7;fill:#00D3E6;}
	.st1{opacity:0.7;fill:#91F6FF;}
</style>
<g>
	<path class="st0" d="M474,476.1c-16.9,23-37.8,60.4-38.5,89c-0.6,25.3,12.4,48.5,30.1,66.6s61.1,17.5,83.1,5.1
		c27-15.3,30.5-47.5,27.5-78.3c-3.4-35.6-27.2-70.4-39.7-103.9C506.7,374.2,496.2,446,474,476.1z"/>
	<g>
		<path d="M508.8,391.9c-16.9,44.6-50.3,80-70.3,123c-17.7,37.9-24.3,87.6,4.7,122.1c26.2,31.3,75.2,37.4,110.6,18.9
			c18.4-9.6,30.4-26.3,36.2-45.9c6.5-22.1,3.8-45.4-2.2-67.2c-7.5-27.3-19-53.9-31.1-79.5c-12.1-25.6-25.7-50.5-40.8-74.5
			c-3.4-5.4-11.5,0.4-8.1,5.8c24.7,39.4,45.4,81.1,61.7,124.6c13.9,37.1,26.2,88.4-7.6,119.2c-28.2,25.7-79.3,23.4-106.4-2.6
			c-30.5-29.2-25.5-77.2-10-112.4c19.7-44.9,54.8-81.3,72.3-127.3C520,390.1,511,385.9,508.8,391.9L508.8,391.9z"/>
	</g>
	<path class="st1" d="M480.5,524.2c-5.6,23.9-4.6,50.5,8.9,71c5.3,8,12.6,17.7,7.7,25.8c-3.2,5.3-10.8,6.7-16.6,4.5
		c-5.8-2.2-10.2-7.2-13.6-12.4c-8.8-13.2-13.4-29-14.3-44.8c-0.6-10.2,0.4-20.6,3.8-30.2c2-5.6,4.7-11,7.4-16.3
		c13.7-26.6,25.4-58.9,43.4-82.6C509,467.4,486.9,497.1,480.5,524.2z"/>
	<path class="st1" d="M523.1,626.7c10.1,2.3,21.5-3.8,25.2-13.5c-4.2-3.9-10.8-3-16.5-1.9c-4.3,0.9-9.3,2.2-11.1,6.3
		c-1.7,4.1,4.2,9.5,6.9,5.9"/>
</g>
</svg>
