<?xml version="1.0" encoding="utf-8"?>
<!-- Generator: Adobe Illustrator 23.0.2, SVG Export Plug-In . SVG Version: 6.00 Build 0)  -->
<svg version="1.1" id="Layer_1" xmlns="http://www.w3.org/2000/svg" xmlns:xlink="http://www.w3.org/1999/xlink" x="0px" y="0px"
	 viewBox="0 0 1000 1000" style="enable-background:new 0 0 1000 1000;" xml:space="preserve">
<style type="text/css">
	.st0{opacity:0.7;fill:#FFBF00;enable-background:new    ;}
	.st1{opacity:0.7;fill:#FF7044;enable-background:new    ;}
	.st2{opacity:0.7;fill:#A1EEFC;enable-background:new    ;}
	.st3{opacity:0.7;fill:#677A7D;enable-background:new    ;}
	.st4{opacity:0.7;}
	.st5{fill:#9AB4BA;}
	.st6{enable-background:new    ;}
</style>
<g>
	<path class="st0" d="M343.7,276.9c1.7,10.4,4.4,21.3,11.8,29.1c12,12.6,32.1,12.9,49.8,12.2c60.6-2.2,121.3-4.4,181.9-6.6
		c25-0.9,53.6-3.5,68.5-23c10.9-14.1,11.2-33.2,10.5-50.8s-2.1-35.1-4-52.6c-0.9-8-2.1-16.4-6.7-23.1c-9.9-14.3-30.7-15.5-48.4-15.2
		c-71.1,1.2-164-10.4-233.8,2.4C320,159,333.4,236.9,343.7,276.9z"/>
	<path class="st0" d="M343.4,658.1c-0.1,9.6,0,21.5,4.9,29.7c11,18.6,38.5,14.6,59.9,14.3c66.2-0.9,132.5-3.2,198.7-2.7
		c39.8,0.3,48.5,1.8,56.3-17.9c2.7-6.8,0.9-19.8,0.6-27.2c-3-71.2-15-141.9-39.2-208.9c-1.9-5.2-5.8-10.6-9.6-14.6
		c-7.1-7.6-18.5-8.8-28.9-9.5c-27.2-1.9-54.4-3.7-81.6-5.6c-47.9-3.3-129.4-16.4-139.7,40.8C352.2,527,344.4,589.6,343.4,658.1z"/>
	<path class="st1" d="M725.5,310.6c4.2,45.8,42.5,75.2,67.8,77.8c25.3,2.6,50.5-10.7,65-31.6c17-24.5,11.2-72-11.3-61.2
		c-10,4.8-11.5,36.7-22.1,40c-79.5,24.9-44.2-38.6-67-40C747.3,294.9,724.3,297.9,725.5,310.6z"/>
	<path class="st0" d="M315.4,858.6c-4.8,6.6-6.3,16.2-1.7,22.9c4.7,6.9,13.7,8.7,21.9,10c42.1,6.5,85.2,13,127,4.7
		c2.8-0.5,5.6-1.2,7.7-3.2c3-2.9,3.2-7.5,3.1-11.7c-0.1-10.7-1.3-22.2-8.4-30.2c-8.3-9.3-21.9-10.8-34.2-11.7
		C395.9,837.1,340.6,823.8,315.4,858.6z"/>
	<path class="st0" d="M566.4,837.6c-9.8,1-19.4,3.5-28.4,7.3c-7.5,3.2-14.8,7.6-19,14.7s-4,17.2,2.2,22.5c4.6,3.9,11.1,4.3,17.1,4.5
		c35.4,1.1,70.7,2.2,106.1,3.4c12.2,0.4,28.1-2.3,38.8-8.2c1.8-10.3,3-16.1,4.7-26.4c0.6-3.3-1.3-8.5-2.7-11.5
		c-1.7-3.6-5.5-5.5-9.1-6.9c-45-18.2-98-14.7-140.3,9.2"/>
	<path class="st0" d="M365.6,211.5c0.2,12.8,0.4,25.5,0.6,38.3c0.1,6.2,0.2,12.5,2.6,18.2c6.9,16.6,28.5,20.3,46.5,21
		c68.3,2.9,137-0.6,204.6-10.5c2.7-0.4,5.7-1,7.4-3.1c1.3-1.6,1.6-3.9,1.8-5.9c2.5-25.3,2.9-50.8,1.2-76.2
		c-0.3-5.1-0.9-10.5-4.3-14.2c-2.9-3.2-7.3-4.5-11.4-5.6c-22.7-5.7-46.3-6.9-69.8-7.5c-43.8-1-87.6,4.7-131.2,3.8
		C381,169.1,365,171.8,365.6,211.5z"/>
	<path class="st1" d="M309.6,492.1c-2.9,19.6,8.5,37.1,23,50.7c-9.2-8.6,10.8-81.6,13.4-89.4C327,454.3,312.2,474.4,309.6,492.1z"/>
	<path class="st1" d="M670.6,526.8c12-6.3,22.6-16,27.8-28.5s4.4-27.9-4.1-38.5c-10.1-12.5-31.2-18.2-46-14.4
		C648.3,453.3,666.4,529.5,670.6,526.8z"/>
	<path class="st1" d="M239.5,668.2c-2.1-8.1-4.1-17.3-8.1-24.6c-10.7-19.5-28.7-36.9-50.5-39.6c-13.7-1.7-27.7,3.5-38.8,12
		s-19.1,18-26.2,30.1c-3.5,5.9-9.2,15.2-8.8,22.1c0.3,6.8,9.3,16.7,16,16.3c8.5-21.5,24.4-27.7,46.5-32.7
		c46.5-10.5,36.7,22.5,37.7,49.2l0,0c-5.6,7.8-13.8,16.6-10.4,25.7c2.9,7.8,13.6,10,20.9,6.1c2.6-1.4,4.8-3.3,6.7-5.6
		C234.6,718.2,243.4,683,239.5,668.2z"/>
	<path class="st2" d="M547.3,594.7c34.1-17.7,14-73.2-12.5-88.2c-23.3-13.2-56-12.9-78.4,2.2c-23,15.5-30.2,44.3-14.7,68.2
		C462.2,608.6,516.5,610.7,547.3,594.7z"/>
	<path class="st2" d="M558.5,575.6c9.7-9,8.4-24.4,6.2-37.4c-0.7-4.4-1.5-8.8-3.5-12.8c-7.4-14.5-27.3-15.8-43.6-15.1
		c-3.2,0.1-6.7,0.4-9.3,2.4c-3.6,2.8-4,7.9-4.1,12.5c-0.2,13.9,0.6,27.8,2.2,41.5"/>
	<path class="st3" d="M305.1,513.7c-1.4-6.4-2.8-14.4-4.2-20.8c-0.3-1.3-4.3-0.7-5.3-1.5c-2-1.8-5-0.5-7.3,0.9
		c-27.5,16.5-61.6,34.8-79,63c-8.4,13.6-14.8,44.8,3,56.3c18.1,11.7,19.4-23.2,27.3-37.4C243.9,566.5,304.3,509.8,305.1,513.7z"/>
	<path class="st3" d="M804.3,409.5c0-1.4,0-2.9-0.7-4.1c-1-1.8-3.1-2.6-5-3.3c-4.8-1.7-9.6-3.3-14.4-5c-4.2,18-58.5,66.5-43.7,80.6
		c10.2,9.8,38.1-12.9,44.7-20.2C796.9,444.7,803.9,427.2,804.3,409.5z"/>
	<path class="st3" d="M708.7,462.9c-3.6,7.2,2.3,16.3,9.9,18.7s16-0.2,23.1-3.9c4.3-2.2,8.5-5,10.9-9.2s2.2-10.2-1.5-13.3
		c-4-3.3-9.9-2.2-14.9-0.9c-11.4,3-22.8,5.9-34.2,8.9"/>
	<path class="st3" d="M486.3,330c-4.8,17.5,10.1,43.8,8.1,61.8c-0.5,4.5-0.5,9.8,3.1,12.5c2.2,1.6-13.2-6.7-10.5-6.7
		c13.3-0.1,26.5-0.2,39.8-0.4c3.6-22.8,5-46,4.1-69c-21.2-0.5-42.5,0.4-63.6,2.7"/>
	<path class="st3" d="M391.6,822.4c8.5-0.4,17,0.4,25.2,2.2c-1.5-35,1.4-70.2,0.3-104.9C355.2,702.8,398.4,822.1,391.6,822.4z"/>
	<path class="st3" d="M595,811.9c0,2.8,0.5,6.2,3,7.3c1.1,0.5,2.4,0.4,3.6,0.2c5.8-0.6,11.5-1.2,17.3-1.7
		c0.2-13.1,3.7-77.1-9.1-98.4c-2.8-4.6-9.7-2.2-14.2-2.5C580.8,715.8,594.9,796.3,595,811.9z"/>
	<g>
		<path d="M361.5,134.3c-8.7-2.8-16.7,3.3-20.3,11c-4.3,9.5-5.6,21-7.3,31.2c-3.8,22.6-5.6,45.6-5.2,68.5c0.2,11.2,0.8,22.3,2,33.4
			c1,9.8,2.4,19.9,9.1,27.6c6.2,7.1,15.5,11.2,24.1,14.5c9.6,3.7,19.8,6.1,30,7.6c23.7,3.3,47.6,1.9,71.3,0.2c4.8-0.3,4.8-7.8,0-7.5
			c-36.3,2.6-76.8,5.7-110-12.4c-8.5-4.6-13.6-10.8-15.7-20.3c-2.1-9.9-2.5-20.3-3-30.4c-1-20.2-0.4-40.4,1.9-60.5
			c1.3-11.3,3.1-22.5,5.4-33.6c1.5-7.3,4.1-25.7,15.5-22.1C364.1,143,366.1,135.8,361.5,134.3L361.5,134.3z"/>
	</g>
	<g>
		<path d="M357.4,145.1c80.4-5.7,161-6.8,241.5-3.1c9.8,0.4,19.6,0.9,29.4,1.6c8.2,0.5,17,1.2,24.2,5.4
			c14.5,8.4,16.9,28.8,18.7,43.9c2.2,19.4,1.9,39.2-1.2,58.5c-2.5,16-6.4,32.6-15.6,46.2c-5,7.3-11.8,13.2-20.1,16.5
			c-9.4,3.8-19.7,4.8-29.8,5.3c-22.2,1.3-44.6-0.1-66.5-4.1c-4.7-0.9-6.7,6.4-2,7.2c20.5,3.7,41.3,5.3,62,4.6
			c17.7-0.6,37-1.9,51.4-13.4c12.7-10.1,19.5-25.7,23.6-41c5.2-19.2,7.3-39.4,6.9-59.3c-0.4-17.9-1.7-38-9.3-54.4
			c-3.4-7.4-8.9-13.8-16.2-17.5s-15.5-4.8-23.7-5.4c-42.5-3.1-85.4-3.9-128-3.9c-48.5,0-97.1,1.8-145.5,5.2
			C352.6,138,352.5,145.5,357.4,145.1L357.4,145.1z"/>
	</g>
	<g>
		<path d="M369.2,165.5c-8,5.8-11.2,14.6-12.3,24.2c-1.3,11.8-0.1,24,0.2,35.8c0.4,13.6,0.2,27.3,1.2,40.8
			c0.8,11,4.9,19.8,14.9,25.1c12.5,6.5,27.2,9.1,41.1,9c4.8-0.1,4.8-7.6,0-7.5c-13.3,0.2-29.4-2-40.6-9.8c-5.3-3.7-7.2-9.2-7.9-15.4
			c-0.7-7.1-0.5-14.4-0.7-21.5c-0.4-14.7-0.9-29.4-1.2-44.1c-0.2-10.1-0.2-23.5,9-30.1C376.9,169.1,373.1,162.6,369.2,165.5
			L369.2,165.5z"/>
	</g>
	<g>
		<path d="M387.1,165.4c44.7-1.1,89.5-2.2,134.2-3.4c21.5-0.5,43.1-1.6,64.6-0.9c10.7,0.4,21.4,1.3,32,3.2c4.2,0.8,10,1.3,13.4,4.2
			c3.7,3.1,4.4,9.1,5.4,13.5c4.7,20.9,6.2,42.4,4.5,63.8c-0.7,8.7-1.3,18.6-5.7,26.4c-4.5,8-12.5,8.9-20.9,9.7
			c-28.8,2.9-57.8,3.5-86.7,4.4c-32.8,1.1-65.9,1.4-98.5,5.1c-4.7,0.5-4.8,8,0,7.5c61.5-6.8,123.7-3.2,185.2-9.5
			c8.1-0.8,16.4-1.5,22.6-7.3c5.9-5.5,8.5-13.9,9.8-21.6c3.5-21.4,3-43.6-0.2-65c-0.8-5.2-1.7-10.3-2.9-15.4c-1.1-4.8-2-10.1-5-14.2
			c-5.5-7.8-17.4-8.7-26-9.9c-22.1-3.2-44.4-2.6-66.7-2.1c-53,1.3-106,2.6-159,4C382.3,158,382.3,165.5,387.1,165.4L387.1,165.4z"/>
	</g>
	<g>
		<path d="M479.8,323.7c2.1,23.9,4.1,47.7,6.2,71.6c0.3,3.3,3.9,4.9,6.4,2.6c3.3-2.9,4.4-6.8,3.5-11.1c-1-4.7-8.2-2.7-7.2,2
			c0.4,1.7-0.4,2.8-1.6,3.8c2.1,0.9,4.3,1.8,6.4,2.6c-2.1-23.9-4.1-47.7-6.2-71.6C486.9,318.9,479.4,318.9,479.8,323.7L479.8,323.7z
			"/>
	</g>
	<g>
		<path d="M527,326.2c0.8,22.4,1.6,44.7,2.4,67.1c0.2,4.8,7.7,4.8,7.5,0c-0.8-22.4-1.6-44.7-2.4-67.1
			C534.3,321.4,526.8,321.3,527,326.2L527,326.2z"/>
	</g>
	<g>
		<path d="M357.9,427.8c66.6-19.8,136.7-26.8,205.9-20.4c19.7,1.8,39.3,4.8,58.8,8.7c4.7,1,6.7-6.3,2-7.2
			c-69-14.1-140.5-14.9-209.9-2.4c-19.8,3.6-39.4,8.3-58.7,14C351.3,421.9,353.3,429.2,357.9,427.8L357.9,427.8z"/>
	</g>
	<g>
		<path d="M350.4,434.1c-13.9,67.9-22.6,136.9-26,206.2c-0.4,8.7-0.8,17.4-1,26.1c-0.2,7-0.8,14.1,1.2,20.9
			c3.2,11.2,11.5,20.4,22.3,24.7c6.2,2.5,12.6,2.7,19.2,2.7c8.8-0.1,17.7-0.1,26.5-0.2c17.7-0.1,35.3-0.3,53-0.4
			c39.7-0.3,79.5-0.6,119.2-0.9c4.8,0,4.8-7.5,0-7.5c-67.6,0.5-135.2,1.4-202.8,1.5c-11.8,0-22.6-5.9-28.1-16.6
			c-3-5.9-3.3-12-3.1-18.5c0.2-8.4,0.5-16.8,0.9-25.2c1.4-33.1,4.1-66.2,8-99.1c4.4-37.4,10.5-74.7,18-111.6
			C358.5,431.4,351.3,429.4,350.4,434.1L350.4,434.1z"/>
	</g>
	<g>
		<path d="M619.5,404.7c15,21.4,21,47,26.8,72c6.5,28.1,12.1,56.4,16.8,84.8c4.8,28.6,8.7,57.4,11.8,86.2c0.8,7.1,1.5,14.3,2,21.4
			c0.4,5.6,1,11.2-0.5,16.8c-2.6,9.5-9.8,17.3-19.1,20.6c-6.2,2.2-12.4,1.7-18.8,1.3c-8.2-0.4-16.3-0.7-24.5-0.8
			c-16.4-0.2-32.7,0.1-49.1,1c-4.8,0.3-4.8,7.8,0,7.5c15.2-0.8,30.5-1.2,45.8-1.1c7.6,0.1,15.3,0.3,22.9,0.6
			c6.4,0.3,12.9,1.2,19.3,0.2c10-1.5,19-7.2,25-15.3c7.2-9.8,7.4-20.7,6.5-32.4c-4.7-60.2-14.8-120.4-27.7-179.3
			c-6.6-29.9-12.6-61.8-30.5-87.4C623.3,397,616.8,400.7,619.5,404.7L619.5,404.7z"/>
	</g>
	<g>
		<path d="M352.8,444.6c-23.7,0.9-44.7,17.5-49.7,40.8c-2.5,11.5-1.1,23.3,3.8,34c5.4,11.7,14.5,21.3,23.4,30.4
			c3.4,3.5,8.7-1.8,5.3-5.3c-14.9-15.3-29.9-32.9-25.6-55.8c3.8-20.7,21.8-35.9,42.8-36.6C357.6,452,357.6,444.5,352.8,444.6
			L352.8,444.6z"/>
	</g>
	<g>
		<path d="M314.2,484c-3.5-4.3-8.3-4.1-13.1-2.4c-5.6,2-11.2,4.2-16.7,6.6c-11.2,4.9-22.1,10.7-32.2,17.6c-19.1,13-36,29.6-47.2,50
			c-6.1,11.2-10.4,23.3-12.6,35.9c-0.8,4.7,6.4,6.7,7.2,2c4.5-25.8,18-48.5,37.1-66.2c10.2-9.4,21.6-17.5,33.7-24.2
			c6.2-3.4,12.5-6.5,19-9.2c3.2-1.3,6.4-2.6,9.6-3.8c3-1.1,7.4-4,9.8-1C312,493.1,317.3,487.7,314.2,484L314.2,484z"/>
	</g>
	<g>
		<path d="M318.2,514.7c-10.6-3.2-20.5,0.2-29,6.8c-8.7,6.8-16.4,15.5-23.5,23.8c-17.5,20.3-29.8,44.7-36.1,70.7
			c-1.1,4.7,6.1,6.7,7.2,2c5.8-23.8,16.6-46.4,32.3-65.2c6.4-7.7,13.5-15.3,20.9-22.1s16-11.7,26.2-8.7
			C320.8,523.3,322.8,516,318.2,514.7L318.2,514.7z"/>
	</g>
	<g>
		<path d="M219.5,560.3c7.5,9.4,16.3,17.5,26.3,24c4.1,2.7,7.8-3.8,3.8-6.5c-9.5-6.2-17.7-14-24.8-22.9
			C221.8,551.2,216.5,556.5,219.5,560.3L219.5,560.3z"/>
	</g>
	<g>
		<path d="M243.3,516.9c7.1,10.4,15.4,19.8,25,27.9c3.6,3.1,9-2.2,5.3-5.3c-9.1-7.7-17.1-16.5-23.8-26.4
			C247.1,509.1,240.6,512.9,243.3,516.9L243.3,516.9z"/>
	</g>
	<g>
		<path d="M642.8,440.7c13.5,0.2,26.4,4.3,37.8,11.5c11,6.9,22.1,15.8,22.1,29.9c0.1,23.5-18.7,48.5-41.5,54.5
			c-4.7,1.2-2.7,8.5,2,7.2c20.9-5.5,36.8-23.6,43.7-43.5c3.7-10.5,5-22.9-0.1-33.2c-5-10.2-16.5-18.1-26.2-23.5
			c-11.6-6.5-24.6-10.2-38-10.3C638,433.1,638,440.6,642.8,440.7L642.8,440.7z"/>
	</g>
	<g>
		<path d="M688.9,456c22.8,13.5,51.2-0.8,67.8-17.7c12.7-13,34.6-46.3,11.3-60.1c-4.2-2.5-7.9,4-3.8,6.5c8.3,4.9,6.9,15.5,3.9,23.3
			c-4,10.2-10.7,19.4-18.6,27c-14.1,13.5-37.9,25.8-56.8,14.6C688.5,447.1,684.8,453.6,688.9,456L688.9,456z"/>
	</g>
	<g>
		<path d="M708.8,487.5c10.1,5.1,21.7,3.5,32.1,0c10.5-3.5,20.5-8.5,29.7-14.6c16.9-11.4,31-27,38.8-46c4.1-10,6.2-20.6,6.1-31.4
			c0-4.8-7.5-4.8-7.5,0c0.2,22.7-10.6,43.6-26.7,59.2c-8.7,8.5-18.9,15.3-29.9,20.5c-11.2,5.3-26.7,11.9-38.8,5.9
			C708.3,478.9,704.5,485.4,708.8,487.5L708.8,487.5z"/>
	</g>
	<g>
		<path d="M734.8,283.6c-15.1,8-14,28-11.5,42.3c3.3,18.6,11.2,36.1,25.3,49c27.1,24.8,67.7,28.2,99.3,9.6
			c19.9-11.7,25.7-37.6,26.8-59.1c0.3-4.8-7.2-4.8-7.5,0c-0.5,9.3-2.2,18.5-5.1,27.4c-2.7,8.2-6.5,16.4-13.3,21.9
			c-6.7,5.5-15.4,8.6-23.6,11c-8.1,2.4-16.3,3.7-24.8,3.3c-31.3-1.3-58.3-23.2-67.2-53c-3.8-12.6-9.9-38,5.2-46
			C742.9,287.8,739.1,281.4,734.8,283.6L734.8,283.6z"/>
	</g>
	<g>
		<path d="M735.3,293.7c10.4-3.3,21-4.7,31.9-4.1c4.8,0.3,4.8-7.2,0-7.5c-11.5-0.6-22.9,0.9-33.8,4.4
			C728.8,287.9,730.7,295.2,735.3,293.7L735.3,293.7z"/>
	</g>
	<g>
		<path d="M764.1,284.2c-2,12.4-4,25.5,1.4,37.4c5.1,11.2,15.3,16.8,27.4,17.2c11.6,0.5,24.2-2.1,33.3-9.8
			c8.7-7.3,13.2-18.8,12.3-30.1c-0.4-4.8-7.9-4.8-7.5,0c0.8,9.2-2.6,18.3-9.7,24.4c-7.3,6.3-17.7,8.1-27.1,8
			c-10-0.1-18.4-4.2-22.4-13.8c-4.1-9.9-2.2-21.1-0.5-31.3C772.1,281.5,764.9,279.5,764.1,284.2L764.1,284.2z"/>
	</g>
	<g>
		<path d="M832.1,297.1c12.1-1.6,24.3-2.1,36.5-1.6c-1.2-0.9-2.4-1.8-3.6-2.8c0,0.4,0,0.8-0.1,1.1c-3.2,3.6,2.1,8.9,5.3,5.3
			c2.2-2.5,3-5.2,2-8.4c-0.5-1.6-1.9-2.7-3.6-2.8c-12.9-0.5-25.7,0.1-38.4,1.9C825.3,290.5,827.3,297.7,832.1,297.1L832.1,297.1z"/>
	</g>
	<g>
		<path d="M866.2,292.2c8.6,18.5,6.8,40.5-4.4,57.5c-2.7,4,3.8,7.8,6.5,3.8c12.7-19.3,14.1-44.2,4.4-65.1
			C870.6,284,864.1,287.8,866.2,292.2L866.2,292.2z"/>
	</g>
	<g>
		<path d="M739.7,449.5c7,10.2,16.2,18.5,27.2,24.4c4.3,2.3,8-4.2,3.8-6.5c-9.8-5.2-18.2-12.5-24.5-21.7
			C743.4,441.8,737,445.5,739.7,449.5L739.7,449.5z"/>
	</g>
	<g>
		<path d="M762.9,422.9c12.1,2.2,23.6,6.3,34.4,12.2c4.2,2.3,8-4.2,3.8-6.5c-11.3-6.2-23.5-10.6-36.2-12.9
			C760.2,414.8,758.1,422,762.9,422.9L762.9,422.9z"/>
	</g>
	<g>
		<path d="M483,328.8c17.8-1.4,35.7-1.6,53.5-0.5c4.8,0.3,4.8-7.2,0-7.5c-17.8-1.1-35.7-0.9-53.5,0.5
			C478.2,321.6,478.2,329.1,483,328.8L483,328.8z"/>
	</g>
	<g>
		<path d="M221.6,742.9c36.4-24.5,35.1-82.5,12-115.4c-12.1-17.2-30.8-29.2-51.7-32.4c-20.6-3.2-40.8,2.6-56.6,16.3
			c-17.8,15.3-28.2,37.8-35.1,59.8c-1.4,4.6,5.8,6.6,7.2,2c10.7-34.6,33.8-72.6,74.8-71.5c19.2,0.5,37.7,9.5,50.3,23.8
			c12.7,14.5,19.3,33.8,19.8,52.9c0.6,21.3-6,45.5-24.5,58C213.9,739.1,217.6,745.6,221.6,742.9L221.6,742.9z"/>
	</g>
	<g>
		<path d="M121,698.3c6-12.1,14.8-22.6,25.8-30.5c10.6-7.5,24.1-14.1,37.4-13.5c14.4,0.7,20.8,13.5,18.2,26.6
			c-1.4,7.2-5.2,13.6-9.3,19.7c-1.9,2.8-3.8,5.5-5.7,8.2c-2.1,3-4.8,6.1-5.9,9.6c-2.2,7.4,5.9,12.7,11.2,16.2
			c6.7,4.5,14.2,7.6,22.1,9.4c4.7,1.1,6.7-6.1,2-7.2c-7.7-1.8-14.9-4.9-21.4-9.4c-1.6-1.1-3.2-2.3-4.6-3.6c-2-1.9-2.2-2.8-0.9-5.2
			c1.8-3.5,4.6-6.8,6.9-10c8.1-11.6,15.5-24.4,13.3-39.1c-2-13.4-12.5-22-25.8-22.6c-13.5-0.6-27.5,5.5-38.6,12.7
			c-13.2,8.7-24.1,20.8-31.1,34.9C112.4,698.8,118.9,702.6,121,698.3L121,698.3z"/>
	</g>
	<g>
		<g>
			<path d="M473.5,493.8c-26.9,5.1-48.5,30.2-48.6,57.7c-0.1,29.1,22.3,54.8,50.8,59.4c16.7,2.7,35.1,0.8,51.6-2.7
				c15-3.2,28.3-10.3,37.6-22.6c17.9-23.4,14.8-58-7.6-77.6c-12.6-11-29.3-15.8-45.8-16.5c-14.8-0.6-35,0.1-45.4,12.4
				c-3.1,3.6,2.2,9,5.3,5.3c8.2-9.7,23.7-10.3,35.5-10.3c13,0,26.3,2.4,37.6,9.1c22.8,13.4,31.4,43.5,18.6,66.7
				c-6.4,11.6-16.8,20-29.3,24c-14.1,4.5-30.2,5.9-45,5.7c-14-0.2-27.6-3.7-38.3-13.3c-8.9-8-15.1-18.8-17.4-30.6
				c-5.3-27.5,15.4-54.5,42.3-59.6C480.2,500.1,478.2,492.9,473.5,493.8L473.5,493.8z"/>
		</g>
		<g>
			<path d="M482.7,513.2c-11,3.5-20.5,10.5-26.9,20.1c-5.7,8.5-9,21-0.9,29.1c3.4,3.4,8.7-1.9,5.3-5.3c-6.2-6.2-0.7-16.7,3.7-22.3
				c5.3-6.8,12.6-11.7,20.8-14.4C489.2,518.9,487.3,511.7,482.7,513.2L482.7,513.2z"/>
		</g>
		<g>
			<path d="M485.4,585.8c5.7,0.4,11.4,0.9,17,1.3c4.8,0.4,4.8-7.1,0-7.5c-5.7-0.4-11.4-0.9-17-1.3
				C480.6,577.9,480.6,585.4,485.4,585.8L485.4,585.8z"/>
		</g>
	</g>
	<g>
		<path d="M380.5,704.2c0.8,37.6,1.6,75.2,2.5,112.7c0.1,4,6.6,5.3,7.4,1c0.5-2.7,1-5.3,1.5-8c0.9-4.7-6.4-6.7-7.2-2
			c-0.5,2.7-1,5.3-1.5,8c2.5,0.3,4.9,0.7,7.4,1c-0.8-37.6-1.6-75.2-2.5-112.7C387.9,699.4,380.4,699.4,380.5,704.2L380.5,704.2z"/>
	</g>
	<g>
		<path d="M415,701.7c0.6,45.8,0.7,91.7,0.4,137.5c0,4.8,7.5,4.8,7.5,0c0.3-45.8,0.2-91.7-0.4-137.5
			C422.4,696.9,414.9,696.9,415,701.7L415,701.7z"/>
	</g>
	<g>
		<path d="M581.1,712.1c2.3,41,3.5,82.1,3.6,123.2c2.5-0.3,4.9-0.7,7.4-1c-0.5-1.5-1-3.1-1.5-4.6c-1.5-4.5-8.8-2.6-7.2,2
			c0.5,1.5,1,3.1,1.5,4.6c1.3,3.9,7.4,3.4,7.4-1c-0.1-41.1-1.3-82.2-3.6-123.2C588.3,707.3,580.8,707.3,581.1,712.1L581.1,712.1z"/>
	</g>
	<g>
		<path d="M616,713.5c3.5,37.3,5.6,74.7,6.4,112.1c0.1,4.8,7.6,4.8,7.5,0c-0.8-37.4-2.9-74.8-6.4-112.1
			C623,708.7,615.5,708.7,616,713.5L616,713.5z"/>
	</g>
	<g>
		<path d="M92.2,675.2c4.5,8.6,11.3,15.6,19.8,20.4c4.2,2.4,8-4.1,3.8-6.5c-7.4-4.2-13.1-10.2-17.1-17.7
			C96.4,667.1,89.9,670.9,92.2,675.2L92.2,675.2z"/>
	</g>
	<g>
		<path d="M146.7,633.5c4.6-3.8,10.1-5.8,16-6.1c4.8-0.2,4.8-7.7,0-7.5c-8,0.3-15.1,3.2-21.3,8.3C137.7,631.2,143,636.5,146.7,633.5
			L146.7,633.5z"/>
	</g>
	<g>
		<path d="M838.9,339.7c-2.8,7.7-8.9,14-16.5,17c-4.4,1.8-2.5,9,2,7.2c10.3-4.1,17.9-11.9,21.8-22.3
			C847.8,337.2,840.5,335.2,838.9,339.7L838.9,339.7z"/>
	</g>
	<g>
		<g>
			<path d="M517.2,857.6c24.4-15.2,51.6-25.8,80.1-29.9c27.4-3.9,57.3-1.8,82.6,10c5.8,2.7,11.4,6,16.3,10.1c2.3,2,4.5,4.1,6.4,6.4
				c0.6,0.8,2,2.1,2.3,3.1c0.1,0.7-0.2,2.6-1.2,2.1c-4.3-2.2-8.1,4.2-3.8,6.5c5.7,2.9,11.9-0.9,12.5-7.2c0.5-5.5-4.9-10.7-8.6-14.2
				c-10.3-9.8-23.8-15.8-37.3-19.8c-33.1-9.8-69-7.5-101.7,2.7c-18,5.6-35.3,13.7-51.4,23.7C509.3,853.7,513.1,860.2,517.2,857.6
				L517.2,857.6z"/>
		</g>
		<g>
			<path d="M512.7,848.4c-4,14.8-4.8,29.8-2.6,45c0.2,1.7,2.1,2.6,3.6,2.8c56,5.8,112.7,5.6,168.6-0.7c4.7-0.5,4.8-8,0-7.5
				c-56,6.3-112.6,6.5-168.6,0.7c1.2,0.9,2.4,1.8,3.6,2.8c-2-13.8-1-27.6,2.6-41C521.2,845.8,513.9,843.8,512.7,848.4L512.7,848.4z"
				/>
		</g>
		<g>
			<path d="M695.3,895.3c10.8-6.4,12.6-20.3,15.5-31.4c1.2-4.7-6-6.7-7.2-2c-2.3,8.8-3.3,21.8-12,26.9
				C687.4,891.3,691.2,897.8,695.3,895.3L695.3,895.3z"/>
		</g>
	</g>
	<circle cx="569" cy="220.7" r="36.6"/>
	<g>
		<g>
			<path d="M475.7,851.9c3.6,13.4,4.6,27.3,2.6,41c1.2-0.9,2.4-1.8,3.6-2.8c-56,5.8-112.6,5.6-168.6-0.7c-4.8-0.5-4.8,7,0,7.5
				c56,6.3,112.6,6.5,168.6,0.7c1.5-0.2,3.4-1,3.6-2.8c2.2-15.1,1.4-30.2-2.6-45C481.7,845.3,474.5,847.3,475.7,851.9L475.7,851.9z"
				/>
		</g>
		<g>
			<path d="M297.6,867.4c16.5-18,40-28.8,63.5-34.1c26.1-5.9,53.9-5,79.4,3.3c12.4,4,24.5,10.1,33.9,19.3c3.4,3.4,8.7-1.9,5.3-5.3
				c-18.4-18.1-45.6-25.6-70.6-27.9c-28.2-2.6-57.3,2.4-82.9,14.8c-12.6,6.1-24.5,14.2-34,24.6C289,865.6,294.3,871,297.6,867.4
				L297.6,867.4z"/>
		</g>
	</g>
	<g>
		<path d="M292.3,864c-3.2,10.5,2,22.5,12.1,26.9c4.4,1.9,8.2-4.5,3.8-6.5c-7.1-3.1-11-10.9-8.7-18.4
			C300.9,861.4,293.7,859.5,292.3,864L292.3,864z"/>
	</g>
	<g class="st4">
		<g>
			<path class="st5" d="M559.9,221.1c-1.1-5.6,3.3-12.3,9.1-13.1c2.7-0.4,5-2,5-5c0-2.4-2.3-5.4-5-5c-12.5,1.6-21.2,13.1-18.8,25.7
				C551.5,230.1,561.1,227.4,559.9,221.1L559.9,221.1z"/>
		</g>
	</g>
	<circle class="st6" cx="440.8" cy="222.3" r="36.6"/>
	<g class="st4">
		<path class="st5" d="M449,195.6c-7-1.8-14.7,0.4-19.6,5.7c-5.6,5.9-6,14.1-5.5,21.8c0.4,6.4,10.3,6.4,10,0c-0.2-4.5-0.8-10,2-13.9
			c2.4-3.3,6.7-4.9,10.6-3.9C452.6,206.9,455.3,197.2,449,195.6L449,195.6z"/>
	</g>
	<g>
		<path d="M465,170.6c-23.1-5.4-50.1-1.9-68,14.7c-17.5,16.3-19.9,42.1-9.6,63c11,22.4,35,33.5,59.3,30.1c22-3,42.5-17.1,49.3-38.8
			c7.2-22.8-0.6-48.4-22.1-60.1c-4.2-2.3-8,4.2-3.8,6.5c16.5,9,23.7,27.2,20.2,45.4c-3.6,19.1-18,32.6-36.5,37.9
			c-20.6,5.9-43.8,0.1-56.1-18.1c-11.2-16.6-12.8-40.1,0.4-56.1c15.3-18.5,42.6-22.5,64.9-17.2C467.7,178.9,469.8,171.7,465,170.6
			L465,170.6z"/>
	</g>
	<g>
		<path d="M615.9,189.2c-6.8-12.2-20.2-18.8-33.5-21.6c-12.3-2.5-26.2-2.6-37.9,2.7c-4.4,2-0.6,8.4,3.8,6.5c9.7-4.4,22-4,32.1-1.9
			c11.4,2.3,23.1,7.6,29,18.1C611.8,197.2,618.3,193.4,615.9,189.2L615.9,189.2z"/>
	</g>
	<g>
		<path d="M541.2,172.3c-27.1,17.4-34.3,57.9-13,82.7c21.5,25,63.8,25.6,84.4-0.6c11.8-15,15.6-35.7,9.7-53.8
			c-1.5-4.6-8.7-2.6-7.2,2c9.1,27.5-7.9,60.2-37.8,63.7c-13.8,1.6-28.6-2.7-39.1-11.9c-10.7-9.4-15.8-23.1-14.9-37.2
			c0.9-15.2,8.8-30.1,21.7-38.4C549.1,176.1,545.3,169.6,541.2,172.3L541.2,172.3z"/>
	</g>
</g>
</svg>
