<svg version="1.1" id="Layer_1" xmlns="http://www.w3.org/2000/svg" x="0" y="0" viewBox="0 0 1000 1000" xml:space="preserve"><style>.st0{opacity:.7;fill:#ffbf00;enable-background:new}.st1{opacity:.7;fill:#ff7044}.st1,.st2,.st3{enable-background:new}.st2{opacity:.7;fill:#a1eefc}.st3{fill:#677a7d}.st3,.st4{opacity:.7}.st5{fill:#9ab4ba}</style><path class="st0" d="M343.7 276.9c1.7 10.4 4.4 21.3 11.8 29.1 12 12.6 32.1 12.9 49.8 12.2 60.6-2.2 121.3-4.4 181.9-6.6 25-.9 53.6-3.5 68.5-23 10.9-14.1 11.2-33.2 10.5-50.8s-2.1-35.1-4-52.6c-.9-8-2.1-16.4-6.7-23.1-9.9-14.3-30.7-15.5-48.4-15.2-71.1 1.2-164-10.4-233.8 2.4-53.3 9.7-39.9 87.6-29.6 127.6zm-.3 381.2c-.1 9.6 0 21.5 4.9 29.7 11 18.6 38.5 14.6 59.9 14.3 66.2-.9 132.5-3.2 198.7-2.7 39.8.3 48.5 1.8 56.3-17.9 2.7-6.8.9-19.8.6-27.2-3-71.2-15-141.9-39.2-208.9-1.9-5.2-5.8-10.6-9.6-14.6-7.1-7.6-18.5-8.8-28.9-9.5-27.2-1.9-54.4-3.7-81.6-5.6-47.9-3.3-129.4-16.4-139.7 40.8-12.6 70.5-20.4 133.1-21.4 201.6z"/><path class="st1" d="M725.5 310.6c4.2 45.8 42.5 75.2 67.8 77.8 25.3 2.6 50.5-10.7 65-31.6 17-24.5 11.2-72-11.3-61.2-10 4.8-11.5 36.7-22.1 40-79.5 24.9-44.2-38.6-67-40-10.6-.7-33.6 2.3-32.4 15z"/><path class="st0" d="M315.4 858.6c-4.8 6.6-6.3 16.2-1.7 22.9 4.7 6.9 13.7 8.7 21.9 10 42.1 6.5 85.2 13 127 4.7 2.8-.5 5.6-1.2 7.7-3.2 3-2.9 3.2-7.5 3.1-11.7-.1-10.7-1.3-22.2-8.4-30.2-8.3-9.3-21.9-10.8-34.2-11.7-34.9-2.3-90.2-15.6-115.4 19.2zm251-21c-9.8 1-19.4 3.5-28.4 7.3-7.5 3.2-14.8 7.6-19 14.7s-4 17.2 2.2 22.5c4.6 3.9 11.1 4.3 17.1 4.5 35.4 1.1 70.7 2.2 106.1 3.4 12.2.4 28.1-2.3 38.8-8.2 1.8-10.3 3-16.1 4.7-26.4.6-3.3-1.3-8.5-2.7-11.5-1.7-3.6-5.5-5.5-9.1-6.9-45-18.2-98-14.7-140.3 9.2M365.6 211.5l.6 38.3c.1 6.2.2 12.5 2.6 18.2 6.9 16.6 28.5 20.3 46.5 21 68.3 2.9 137-.6 204.6-10.5 2.7-.4 5.7-1 7.4-3.1 1.3-1.6 1.6-3.9 1.8-5.9 2.5-25.3 2.9-50.8 1.2-76.2-.3-5.1-.9-10.5-4.3-14.2-2.9-3.2-7.3-4.5-11.4-5.6-22.7-5.7-46.3-6.9-69.8-7.5-43.8-1-87.6 4.7-131.2 3.8-32.6-.7-48.6 2-48 41.7z"/><path class="st1" d="M309.6 492.1c-2.9 19.6 8.5 37.1 23 50.7-9.2-8.6 10.8-81.6 13.4-89.4-19 .9-33.8 21-36.4 38.7zm361 34.7c12-6.3 22.6-16 27.8-28.5s4.4-27.9-4.1-38.5c-10.1-12.5-31.2-18.2-46-14.4 0 7.9 18.1 84.1 22.3 81.4zM239.5 668.2c-2.1-8.1-4.1-17.3-8.1-24.6-10.7-19.5-28.7-36.9-50.5-39.6-13.7-1.7-27.7 3.5-38.8 12s-19.1 18-26.2 30.1c-3.5 5.9-9.2 15.2-8.8 22.1.3 6.8 9.3 16.7 16 16.3 8.5-21.5 24.4-27.7 46.5-32.7 46.5-10.5 36.7 22.5 37.7 49.2-5.6 7.8-13.8 16.6-10.4 25.7 2.9 7.8 13.6 10 20.9 6.1 2.6-1.4 4.8-3.3 6.7-5.6 10.1-9 18.9-44.2 15-59z"/><path class="st2" d="M547.3 594.7c34.1-17.7 14-73.2-12.5-88.2-23.3-13.2-56-12.9-78.4 2.2-23 15.5-30.2 44.3-14.7 68.2 20.5 31.7 74.8 33.8 105.6 17.8z"/><path class="st2" d="M558.5 575.6c9.7-9 8.4-24.4 6.2-37.4-.7-4.4-1.5-8.8-3.5-12.8-7.4-14.5-27.3-15.8-43.6-15.1-3.2.1-6.7.4-9.3 2.4-3.6 2.8-4 7.9-4.1 12.5-.2 13.9.6 27.8 2.2 41.5"/><path class="st3" d="M305.1 513.7c-1.4-6.4-2.8-14.4-4.2-20.8-.3-1.3-4.3-.7-5.3-1.5-2-1.8-5-.5-7.3.9-27.5 16.5-61.6 34.8-79 63-8.4 13.6-14.8 44.8 3 56.3 18.1 11.7 19.4-23.2 27.3-37.4 4.3-7.7 64.7-64.4 65.5-60.5zm499.2-104.2c0-1.4 0-2.9-.7-4.1-1-1.8-3.1-2.6-5-3.3-4.8-1.7-9.6-3.3-14.4-5-4.2 18-58.5 66.5-43.7 80.6 10.2 9.8 38.1-12.9 44.7-20.2 11.7-12.8 18.7-30.3 19.1-48z"/><path class="st3" d="M708.7 462.9c-3.6 7.2 2.3 16.3 9.9 18.7s16-.2 23.1-3.9c4.3-2.2 8.5-5 10.9-9.2s2.2-10.2-1.5-13.3c-4-3.3-9.9-2.2-14.9-.9-11.4 3-22.8 5.9-34.2 8.9M486.3 330c-4.8 17.5 10.1 43.8 8.1 61.8-.5 4.5-.5 9.8 3.1 12.5 2.2 1.6-13.2-6.7-10.5-6.7 13.3-.1 26.5-.2 39.8-.4 3.6-22.8 5-46 4.1-69-21.2-.5-42.5.4-63.6 2.7m-75.7 491.5c8.5-.4 17 .4 25.2 2.2-1.5-35 1.4-70.2.3-104.9-61.9-16.9-18.7 102.4-25.5 102.7zM595 811.9c0 2.8.5 6.2 3 7.3 1.1.5 2.4.4 3.6.2 5.8-.6 11.5-1.2 17.3-1.7.2-13.1 3.7-77.1-9.1-98.4-2.8-4.6-9.7-2.2-14.2-2.5-14.8-1-.7 79.5-.6 95.1z"/><path d="M361.5 134.3c-8.7-2.8-16.7 3.3-20.3 11-4.3 9.5-5.6 21-7.3 31.2-3.8 22.6-5.6 45.6-5.2 68.5.2 11.2.8 22.3 2 33.4 1 9.8 2.4 19.9 9.1 27.6 6.2 7.1 15.5 11.2 24.1 14.5 9.6 3.7 19.8 6.1 30 7.6 23.7 3.3 47.6 1.9 71.3.2 4.8-.3 4.8-7.8 0-7.5-36.3 2.6-76.8 5.7-110-12.4-8.5-4.6-13.6-10.8-15.7-20.3-2.1-9.9-2.5-20.3-3-30.4-1-20.2-.4-40.4 1.9-60.5 1.3-11.3 3.1-22.5 5.4-33.6 1.5-7.3 4.1-25.7 15.5-22.1 4.8 1.5 6.8-5.7 2.2-7.2z"/><path d="M357.4 145.1c80.4-5.7 161-6.8 241.5-3.1 9.8.4 19.6.9 29.4 1.6 8.2.5 17 1.2 24.2 5.4 14.5 8.4 16.9 28.8 18.7 43.9 2.2 19.4 1.9 39.2-1.2 58.5-2.5 16-6.4 32.6-15.6 46.2-5 7.3-11.8 13.2-20.1 16.5-9.4 3.8-19.7 4.8-29.8 5.3-22.2 1.3-44.6-.1-66.5-4.1-4.7-.9-6.7 6.4-2 7.2 20.5 3.7 41.3 5.3 62 4.6 17.7-.6 37-1.9 51.4-13.4 12.7-10.1 19.5-25.7 23.6-41 5.2-19.2 7.3-39.4 6.9-59.3-.4-17.9-1.7-38-9.3-54.4-3.4-7.4-8.9-13.8-16.2-17.5s-15.5-4.8-23.7-5.4c-42.5-3.1-85.4-3.9-128-3.9-48.5 0-97.1 1.8-145.5 5.2-4.6.6-4.7 8.1.2 7.7zm11.8 20.4c-8 5.8-11.2 14.6-12.3 24.2-1.3 11.8-.1 24 .2 35.8.4 13.6.2 27.3 1.2 40.8.8 11 4.9 19.8 14.9 25.1 12.5 6.5 27.2 9.1 41.1 9 4.8-.1 4.8-7.6 0-7.5-13.3.2-29.4-2-40.6-9.8-5.3-3.7-7.2-9.2-7.9-15.4-.7-7.1-.5-14.4-.7-21.5-.4-14.7-.9-29.4-1.2-44.1-.2-10.1-.2-23.5 9-30.1 4-2.9.2-9.4-3.7-6.5z"/><path d="M387.1 165.4c44.7-1.1 89.5-2.2 134.2-3.4 21.5-.5 43.1-1.6 64.6-.9 10.7.4 21.4 1.3 32 3.2 4.2.8 10 1.3 13.4 4.2 3.7 3.1 4.4 9.1 5.4 13.5 4.7 20.9 6.2 42.4 4.5 63.8-.7 8.7-1.3 18.6-5.7 26.4-4.5 8-12.5 8.9-20.9 9.7-28.8 2.9-57.8 3.5-86.7 4.4-32.8 1.1-65.9 1.4-98.5 5.1-4.7.5-4.8 8 0 7.5 61.5-6.8 123.7-3.2 185.2-9.5 8.1-.8 16.4-1.5 22.6-7.3 5.9-5.5 8.5-13.9 9.8-21.6 3.5-21.4 3-43.6-.2-65-.8-5.2-1.7-10.3-2.9-15.4-1.1-4.8-2-10.1-5-14.2-5.5-7.8-17.4-8.7-26-9.9-22.1-3.2-44.4-2.6-66.7-2.1-53 1.3-106 2.6-159 4-4.9.1-4.9 7.6-.1 7.5zm92.7 158.3c2.1 23.9 4.1 47.7 6.2 71.6.3 3.3 3.9 4.9 6.4 2.6 3.3-2.9 4.4-6.8 3.5-11.1-1-4.7-8.2-2.7-7.2 2 .4 1.7-.4 2.8-1.6 3.8 2.1.9 4.3 1.8 6.4 2.6-2.1-23.9-4.1-47.7-6.2-71.6-.4-4.7-7.9-4.7-7.5.1zm47.2 2.5c.8 22.4 1.6 44.7 2.4 67.1.2 4.8 7.7 4.8 7.5 0-.8-22.4-1.6-44.7-2.4-67.1-.2-4.8-7.7-4.9-7.5 0z"/><path d="M357.9 427.8c66.6-19.8 136.7-26.8 205.9-20.4 19.7 1.8 39.3 4.8 58.8 8.7 4.7 1 6.7-6.3 2-7.2-69-14.1-140.5-14.9-209.9-2.4-19.8 3.6-39.4 8.3-58.7 14-4.7 1.4-2.7 8.7 1.9 7.3zm-7.5 6.3c-13.9 67.9-22.6 136.9-26 206.2-.4 8.7-.8 17.4-1 26.1-.2 7-.8 14.1 1.2 20.9 3.2 11.2 11.5 20.4 22.3 24.7 6.2 2.5 12.6 2.7 19.2 2.7 8.8-.1 17.7-.1 26.5-.2 17.7-.1 35.3-.3 53-.4l119.2-.9c4.8 0 4.8-7.5 0-7.5-67.6.5-135.2 1.4-202.8 1.5-11.8 0-22.6-5.9-28.1-16.6-3-5.9-3.3-12-3.1-18.5.2-8.4.5-16.8.9-25.2 1.4-33.1 4.1-66.2 8-99.1 4.4-37.4 10.5-74.7 18-111.6.8-4.8-6.4-6.8-7.3-2.1z"/><path d="M619.5 404.7c15 21.4 21 47 26.8 72 6.5 28.1 12.1 56.4 16.8 84.8 4.8 28.6 8.7 57.4 11.8 86.2.8 7.1 1.5 14.3 2 21.4.4 5.6 1 11.2-.5 16.8-2.6 9.5-9.8 17.3-19.1 20.6-6.2 2.2-12.4 1.7-18.8 1.3-8.2-.4-16.3-.7-24.5-.8-16.4-.2-32.7.1-49.1 1-4.8.3-4.8 7.8 0 7.5 15.2-.8 30.5-1.2 45.8-1.1 7.6.1 15.3.3 22.9.6 6.4.3 12.9 1.2 19.3.2 10-1.5 19-7.2 25-15.3 7.2-9.8 7.4-20.7 6.5-32.4-4.7-60.2-14.8-120.4-27.7-179.3-6.6-29.9-12.6-61.8-30.5-87.4-2.9-3.8-9.4-.1-6.7 3.9zm-266.7 39.9c-23.7.9-44.7 17.5-49.7 40.8-2.5 11.5-1.1 23.3 3.8 34 5.4 11.7 14.5 21.3 23.4 30.4 3.4 3.5 8.7-1.8 5.3-5.3-14.9-15.3-29.9-32.9-25.6-55.8 3.8-20.7 21.8-35.9 42.8-36.6 4.8-.1 4.8-7.6 0-7.5z"/><path d="M314.2 484c-3.5-4.3-8.3-4.1-13.1-2.4-5.6 2-11.2 4.2-16.7 6.6-11.2 4.9-22.1 10.7-32.2 17.6-19.1 13-36 29.6-47.2 50-6.1 11.2-10.4 23.3-12.6 35.9-.8 4.7 6.4 6.7 7.2 2 4.5-25.8 18-48.5 37.1-66.2 10.2-9.4 21.6-17.5 33.7-24.2 6.2-3.4 12.5-6.5 19-9.2 3.2-1.3 6.4-2.6 9.6-3.8 3-1.1 7.4-4 9.8-1 3.2 3.8 8.5-1.6 5.4-5.3zm4 30.7c-10.6-3.2-20.5.2-29 6.8-8.7 6.8-16.4 15.5-23.5 23.8-17.5 20.3-29.8 44.7-36.1 70.7-1.1 4.7 6.1 6.7 7.2 2 5.8-23.8 16.6-46.4 32.3-65.2 6.4-7.7 13.5-15.3 20.9-22.1s16-11.7 26.2-8.7c4.6 1.3 6.6-6 2-7.3z"/><path d="M219.5 560.3c7.5 9.4 16.3 17.5 26.3 24 4.1 2.7 7.8-3.8 3.8-6.5-9.5-6.2-17.7-14-24.8-22.9-3-3.7-8.3 1.6-5.3 5.4zm23.8-43.4c7.1 10.4 15.4 19.8 25 27.9 3.6 3.1 9-2.2 5.3-5.3-9.1-7.7-17.1-16.5-23.8-26.4-2.7-4-9.2-.2-6.5 3.8zm399.5-76.2c13.5.2 26.4 4.3 37.8 11.5 11 6.9 22.1 15.8 22.1 29.9.1 23.5-18.7 48.5-41.5 54.5-4.7 1.2-2.7 8.5 2 7.2 20.9-5.5 36.8-23.6 43.7-43.5 3.7-10.5 5-22.9-.1-33.2-5-10.2-16.5-18.1-26.2-23.5-11.6-6.5-24.6-10.2-38-10.3-4.6-.2-4.6 7.3.2 7.4z"/><path d="M688.9 456c22.8 13.5 51.2-.8 67.8-17.7 12.7-13 34.6-46.3 11.3-60.1-4.2-2.5-7.9 4-3.8 6.5 8.3 4.9 6.9 15.5 3.9 23.3-4 10.2-10.7 19.4-18.6 27-14.1 13.5-37.9 25.8-56.8 14.6-4.2-2.5-7.9 4-3.8 6.4z"/><path d="M708.8 487.5c10.1 5.1 21.7 3.5 32.1 0 10.5-3.5 20.5-8.5 29.7-14.6 16.9-11.4 31-27 38.8-46 4.1-10 6.2-20.6 6.1-31.4 0-4.8-7.5-4.8-7.5 0 .2 22.7-10.6 43.6-26.7 59.2-8.7 8.5-18.9 15.3-29.9 20.5-11.2 5.3-26.7 11.9-38.8 5.9-4.3-2.2-8.1 4.3-3.8 6.4z"/><path d="M734.8 283.6c-15.1 8-14 28-11.5 42.3 3.3 18.6 11.2 36.1 25.3 49 27.1 24.8 67.7 28.2 99.3 9.6 19.9-11.7 25.7-37.6 26.8-59.1.3-4.8-7.2-4.8-7.5 0-.5 9.3-2.2 18.5-5.1 27.4-2.7 8.2-6.5 16.4-13.3 21.9-6.7 5.5-15.4 8.6-23.6 11-8.1 2.4-16.3 3.7-24.8 3.3-31.3-1.3-58.3-23.2-67.2-53-3.8-12.6-9.9-38 5.2-46 4.5-2.2.7-8.6-3.6-6.4z"/><path d="M735.3 293.7c10.4-3.3 21-4.7 31.9-4.1 4.8.3 4.8-7.2 0-7.5-11.5-.6-22.9.9-33.8 4.4-4.6 1.4-2.7 8.7 1.9 7.2z"/><path d="M764.1 284.2c-2 12.4-4 25.5 1.4 37.4 5.1 11.2 15.3 16.8 27.4 17.2 11.6.5 24.2-2.1 33.3-9.8 8.7-7.3 13.2-18.8 12.3-30.1-.4-4.8-7.9-4.8-7.5 0 .8 9.2-2.6 18.3-9.7 24.4-7.3 6.3-17.7 8.1-27.1 8-10-.1-18.4-4.2-22.4-13.8-4.1-9.9-2.2-21.1-.5-31.3.8-4.7-6.4-6.7-7.2-2z"/><path d="M832.1 297.1c12.1-1.6 24.3-2.1 36.5-1.6-1.2-.9-2.4-1.8-3.6-2.8 0 .4 0 .8-.1 1.1-3.2 3.6 2.1 8.9 5.3 5.3 2.2-2.5 3-5.2 2-8.4-.5-1.6-1.9-2.7-3.6-2.8-12.9-.5-25.7.1-38.4 1.9-4.9.7-2.9 7.9 1.9 7.3z"/><path d="M866.2 292.2c8.6 18.5 6.8 40.5-4.4 57.5-2.7 4 3.8 7.8 6.5 3.8 12.7-19.3 14.1-44.2 4.4-65.1-2.1-4.4-8.6-.6-6.5 3.8zM739.7 449.5c7 10.2 16.2 18.5 27.2 24.4 4.3 2.3 8-4.2 3.8-6.5-9.8-5.2-18.2-12.5-24.5-21.7-2.8-3.9-9.2-.2-6.5 3.8zm23.2-26.6c12.1 2.2 23.6 6.3 34.4 12.2 4.2 2.3 8-4.2 3.8-6.5-11.3-6.2-23.5-10.6-36.2-12.9-4.7-.9-6.8 6.3-2 7.2zM483 328.8c17.8-1.4 35.7-1.6 53.5-.5 4.8.3 4.8-7.2 0-7.5-17.8-1.1-35.7-.9-53.5.5-4.8.3-4.8 7.8 0 7.5zM221.6 742.9c36.4-24.5 35.1-82.5 12-115.4-12.1-17.2-30.8-29.2-51.7-32.4-20.6-3.2-40.8 2.6-56.6 16.3-17.8 15.3-28.2 37.8-35.1 59.8-1.4 4.6 5.8 6.6 7.2 2 10.7-34.6 33.8-72.6 74.8-71.5 19.2.5 37.7 9.5 50.3 23.8 12.7 14.5 19.3 33.8 19.8 52.9.6 21.3-6 45.5-24.5 58-3.9 2.7-.2 9.2 3.8 6.5z"/><path d="M121 698.3c6-12.1 14.8-22.6 25.8-30.5 10.6-7.5 24.1-14.1 37.4-13.5 14.4.7 20.8 13.5 18.2 26.6-1.4 7.2-5.2 13.6-9.3 19.7-1.9 2.8-3.8 5.5-5.7 8.2-2.1 3-4.8 6.1-5.9 9.6-2.2 7.4 5.9 12.7 11.2 16.2 6.7 4.5 14.2 7.6 22.1 9.4 4.7 1.1 6.7-6.1 2-7.2-7.7-1.8-14.9-4.9-21.4-9.4-1.6-1.1-3.2-2.3-4.6-3.6-2-1.9-2.2-2.8-.9-5.2 1.8-3.5 4.6-6.8 6.9-10 8.1-11.6 15.5-24.4 13.3-39.1-2-13.4-12.5-22-25.8-22.6-13.5-.6-27.5 5.5-38.6 12.7-13.2 8.7-24.1 20.8-31.1 34.9-2.2 4.3 4.3 8.1 6.4 3.8zm352.5-204.5c-26.9 5.1-48.5 30.2-48.6 57.7-.1 29.1 22.3 54.8 50.8 59.4 16.7 2.7 35.1.8 51.6-2.7 15-3.2 28.3-10.3 37.6-22.6 17.9-23.4 14.8-58-7.6-77.6-12.6-11-29.3-15.8-45.8-16.5-14.8-.6-35 .1-45.4 12.4-3.1 3.6 2.2 9 5.3 5.3 8.2-9.7 23.7-10.3 35.5-10.3 13 0 26.3 2.4 37.6 9.1 22.8 13.4 31.4 43.5 18.6 66.7-6.4 11.6-16.8 20-29.3 24-14.1 4.5-30.2 5.9-45 5.7-14-.2-27.6-3.7-38.3-13.3-8.9-8-15.1-18.8-17.4-30.6-5.3-27.5 15.4-54.5 42.3-59.6 4.8-.8 2.8-8-1.9-7.1z"/><path d="M482.7 513.2c-11 3.5-20.5 10.5-26.9 20.1-5.7 8.5-9 21-.9 29.1 3.4 3.4 8.7-1.9 5.3-5.3-6.2-6.2-.7-16.7 3.7-22.3 5.3-6.8 12.6-11.7 20.8-14.4 4.5-1.5 2.6-8.7-2-7.2zm2.7 72.6c5.7.4 11.4.9 17 1.3 4.8.4 4.8-7.1 0-7.5-5.7-.4-11.4-.9-17-1.3-4.8-.4-4.8 7.1 0 7.5zM380.5 704.2c.8 37.6 1.6 75.2 2.5 112.7.1 4 6.6 5.3 7.4 1 .5-2.7 1-5.3 1.5-8 .9-4.7-6.4-6.7-7.2-2-.5 2.7-1 5.3-1.5 8 2.5.3 4.9.7 7.4 1-.8-37.6-1.6-75.2-2.5-112.7-.2-4.8-7.7-4.8-7.6 0zm34.5-2.5c.6 45.8.7 91.7.4 137.5 0 4.8 7.5 4.8 7.5 0 .3-45.8.2-91.7-.4-137.5-.1-4.8-7.6-4.8-7.5 0zm166.1 10.4c2.3 41 3.5 82.1 3.6 123.2 2.5-.3 4.9-.7 7.4-1-.5-1.5-1-3.1-1.5-4.6-1.5-4.5-8.8-2.6-7.2 2 .5 1.5 1 3.1 1.5 4.6 1.3 3.9 7.4 3.4 7.4-1-.1-41.1-1.3-82.2-3.6-123.2-.4-4.8-7.9-4.8-7.6 0zm34.9 1.4c3.5 37.3 5.6 74.7 6.4 112.1.1 4.8 7.6 4.8 7.5 0-.8-37.4-2.9-74.8-6.4-112.1-.5-4.8-8-4.8-7.5 0zM92.2 675.2c4.5 8.6 11.3 15.6 19.8 20.4 4.2 2.4 8-4.1 3.8-6.5-7.4-4.2-13.1-10.2-17.1-17.7-2.3-4.3-8.8-.5-6.5 3.8zm54.5-41.7c4.6-3.8 10.1-5.8 16-6.1 4.8-.2 4.8-7.7 0-7.5-8 .3-15.1 3.2-21.3 8.3-3.7 3 1.6 8.3 5.3 5.3zm692.2-293.8c-2.8 7.7-8.9 14-16.5 17-4.4 1.8-2.5 9 2 7.2 10.3-4.1 17.9-11.9 21.8-22.3 1.6-4.4-5.7-6.4-7.3-1.9z"/><path d="M517.2 857.6c24.4-15.2 51.6-25.8 80.1-29.9 27.4-3.9 57.3-1.8 82.6 10 5.8 2.7 11.4 6 16.3 10.1 2.3 2 4.5 4.1 6.4 6.4.6.8 2 2.1 2.3 3.1.1.7-.2 2.6-1.2 2.1-4.3-2.2-8.1 4.2-3.8 6.5 5.7 2.9 11.9-.9 12.5-7.2.5-5.5-4.9-10.7-8.6-14.2-10.3-9.8-23.8-15.8-37.3-19.8-33.1-9.8-69-7.5-101.7 2.7-18 5.6-35.3 13.7-51.4 23.7-4.1 2.6-.3 9.1 3.8 6.5z"/><path d="M512.7 848.4c-4 14.8-4.8 29.8-2.6 45 .2 1.7 2.1 2.6 3.6 2.8 56 5.8 112.7 5.6 168.6-.7 4.7-.5 4.8-8 0-7.5-56 6.3-112.6 6.5-168.6.7 1.2.9 2.4 1.8 3.6 2.8-2-13.8-1-27.6 2.6-41 1.3-4.7-6-6.7-7.2-2.1zm182.6 46.9c10.8-6.4 12.6-20.3 15.5-31.4 1.2-4.7-6-6.7-7.2-2-2.3 8.8-3.3 21.8-12 26.9-4.2 2.5-.4 9 3.7 6.5z"/><circle cx="569" cy="220.7" r="36.6"/><path d="M475.7 851.9c3.6 13.4 4.6 27.3 2.6 41 1.2-.9 2.4-1.8 3.6-2.8-56 5.8-112.6 5.6-168.6-.7-4.8-.5-4.8 7 0 7.5 56 6.3 112.6 6.5 168.6.7 1.5-.2 3.4-1 3.6-2.8 2.2-15.1 1.4-30.2-2.6-45-1.2-4.5-8.4-2.5-7.2 2.1z"/><path d="M297.6 867.4c16.5-18 40-28.8 63.5-34.1 26.1-5.9 53.9-5 79.4 3.3 12.4 4 24.5 10.1 33.9 19.3 3.4 3.4 8.7-1.9 5.3-5.3-18.4-18.1-45.6-25.6-70.6-27.9-28.2-2.6-57.3 2.4-82.9 14.8-12.6 6.1-24.5 14.2-34 24.6-3.2 3.5 2.1 8.9 5.4 5.3z"/><path d="M292.3 864c-3.2 10.5 2 22.5 12.1 26.9 4.4 1.9 8.2-4.5 3.8-6.5-7.1-3.1-11-10.9-8.7-18.4 1.4-4.6-5.8-6.5-7.2-2z"/><g class="st4"><path class="st5" d="M559.9 221.1c-1.1-5.6 3.3-12.3 9.1-13.1 2.7-.4 5-2 5-5 0-2.4-2.3-5.4-5-5-12.5 1.6-21.2 13.1-18.8 25.7 1.3 6.4 10.9 3.7 9.7-2.6z"/></g><circle cx="440.8" cy="222.3" r="36.6"/><g class="st4"><path class="st5" d="M449 195.6c-7-1.8-14.7.4-19.6 5.7-5.6 5.9-6 14.1-5.5 21.8.4 6.4 10.3 6.4 10 0-.2-4.5-.8-10 2-13.9 2.4-3.3 6.7-4.9 10.6-3.9 6.1 1.6 8.8-8.1 2.5-9.7z"/></g><path d="M465 170.6c-23.1-5.4-50.1-1.9-68 14.7-17.5 16.3-19.9 42.1-9.6 63 11 22.4 35 33.5 59.3 30.1 22-3 42.5-17.1 49.3-38.8 7.2-22.8-.6-48.4-22.1-60.1-4.2-2.3-8 4.2-3.8 6.5 16.5 9 23.7 27.2 20.2 45.4-3.6 19.1-18 32.6-36.5 37.9-20.6 5.9-43.8.1-56.1-18.1-11.2-16.6-12.8-40.1.4-56.1 15.3-18.5 42.6-22.5 64.9-17.2 4.7 1 6.8-6.2 2-7.3zm150.9 18.6c-6.8-12.2-20.2-18.8-33.5-21.6-12.3-2.5-26.2-2.6-37.9 2.7-4.4 2-.6 8.4 3.8 6.5 9.7-4.4 22-4 32.1-1.9 11.4 2.3 23.1 7.6 29 18.1 2.4 4.2 8.9.4 6.5-3.8z"/><path d="M541.2 172.3c-27.1 17.4-34.3 57.9-13 82.7 21.5 25 63.8 25.6 84.4-.6 11.8-15 15.6-35.7 9.7-53.8-1.5-4.6-8.7-2.6-7.2 2 9.1 27.5-7.9 60.2-37.8 63.7-13.8 1.6-28.6-2.7-39.1-11.9-10.7-9.4-15.8-23.1-14.9-37.2.9-15.2 8.8-30.1 21.7-38.4 4.1-2.7.3-9.2-3.8-6.5z"/></svg>