<?xml version="1.0" encoding="utf-8"?>
<!-- Generator: Adobe Illustrator 23.0.2, SVG Export Plug-In . SVG Version: 6.00 Build 0)  -->
<svg version="1.1" id="Layer_1" xmlns="http://www.w3.org/2000/svg" xmlns:xlink="http://www.w3.org/1999/xlink" x="0px" y="0px"
	 viewBox="0 0 1000 1000" style="enable-background:new 0 0 1000 1000;" xml:space="preserve">
<style type="text/css">
	.st0{opacity:0.7;fill:#E3043C;}
	.st1{opacity:0.7;fill:#FFCE38;}
	.st2{opacity:0.7;fill:#A19EA1;}
	.st3{opacity:0.7;fill:#A8EDDC;}
</style>
<g>
	<path class="st0" d="M543.1,715.4c-2.4-15.9-8-33.7-24.6-40.7c-6-2.5-13.6-3.1-18.9,0.4c-4.1,2.7-5.9,7.3-7.2,11.6
		c-8.6,29.7-2.1,61,6,90.8c5.8,21.4,10.2,52.3,24.8,70.1C556.7,834.1,547,741.3,543.1,715.4z"/>
	<g>
		<path class="st1" d="M610.2,281.2c-5.1-11.4-19.5-22.5-29.5-29.4c-32.4-22.2-113.1-22.6-149.3-9.3c-33.3,12.1-45.4,42.5-59,74.3
			c-47,110.4-71,227.4-56.9,348.5c1.1,9.5,2.7,19.7,8.8,26.7c7,8.1,18.2,10.2,28.5,11.5c43,5.8,86.4,8.3,129.8,7.3
			c-1.3-5,0.4-12.3,3.6-19.4c0.7-9,2.8-17.9,6.4-26.1c4.5-10.1,13.3-18.4,24.5-18.5c11.3-0.1,21.2,7.4,26,17.6
			c6.5,13.7,7.2,29,7.1,44.1c29.7,11.9,62,1.8,90.3-14.1c7-3.9,13.8-8.9,17.8-16.1c3.8-6.8,4.7-14.8,5.4-22.7
			C675.3,528.3,662.2,397,610.2,281.2z"/>
		<path class="st0" d="M479.5,158c-30.3,18.8-53.9,48-65.8,81.6c59.2-21.2,126.7-17.8,183.5,9.1c12.8-0.1,10.9-20.4,3.3-30.7
			c-32.1-43.7-87.1-69.6-141.2-66.4"/>
		<path class="st0" d="M293.9,689c-51.7-3.1-65.5,56.4-63.4,99.1c1.9,37.7,21.3,67,32.3,103.1c17.6-24.1,20.8-44.1,38.1-68.4
			c17.3-24.3,40.4-45.3,68.5-35.2c-20-12.4-40.4-25-55.7-43c-15.2-18-24.8-42.4-19.2-65.3"/>
		<path class="st0" d="M678.1,667c3.4,37.8-5.6,76.8-14,113.8c16.2-2.4,30.6,26.7,32.9,43s6.9,33,20.8,41.8
			c18.8-7.9,22-39.9,22.5-60.2c0.8-31.5,4.9-55.8-0.7-86.8c-5.1-28-25.2-57.8-53.7-58.3"/>
		<path class="st2" d="M392,504.2c1.5,8.8,5,17.2,9.4,25c23.8,41.9,75.9,65.6,123.1,56.2c30.1-6,57.4-24.6,74-50.5
			s22-58.5,14.7-88.3c-12.4-50.1-72.8-97.5-126.3-84C436.1,375.4,383.5,453,392,504.2z"/>
		<path class="st3" d="M496.7,442.7c-13.5-4.1-27.2,5.6-36.4,16.3c-7.8,9.2-14.5,20.3-14.3,32.3c0.2,17,20.1,41,36,47.2
			c20.6,8,40.3-5.7,55.7-21.5c15.4-15.9,17.7-43.8,2.9-60.3c-15.1-16.9-40.6-17.9-63.3-17.7"/>
		<path class="st2" d="M406.6,799.8c32.5,2.9,55.9-0.9,88.1,4c-15.6-24-19.4-51.3-17.2-79.2c-45.8,15.9-168.7-44.4-166.1-12.9
			C315.3,757.5,326.8,792.6,406.6,799.8z"/>
		<path class="st2" d="M557.4,794.8c33.9-5.7,67.7-11.4,101.6-17.1c2.7-0.5,5.5-1,7.5-2.9c2.4-2.4,2.6-6.1,2.7-9.4
			c0.7-22.7,1.4-45.3,2.1-68c-24.1,23-53.1,32.6-85.3,37.3c-14.5,2.1-22-3.7-30.1,9C552.5,748.7,560.7,794.2,557.4,794.8z"/>
		<g>
			<path d="M460.5,155.2c-57.5,63.6-101.4,138.9-129.9,219.7c-28.4,80.4-41.6,166.4-38.1,251.7c2,48.1,9.3,96,22.1,142.5
				c1.4,5,9.1,2.9,7.8-2.1c-22.5-81.7-27.8-167.6-17-251.5c10.7-83.6,37.3-165.2,78.2-238.9c23.1-41.5,50.7-80.4,82.6-115.6
				C469.6,157.1,464,151.4,460.5,155.2L460.5,155.2z"/>
		</g>
		<g>
			<path d="M301.8,684.3c-37.7-7-71,21.3-81.7,55.9c-12.9,41.7,1.9,84.6,18.3,122.9c7,16.4,14.9,40.1,35.9,41.9
				c1.8,0.2,3.4-1.4,3.9-3c7.7-25.3,15.7-52.4,33.8-72.6c16-17.9,41.3-30,65.2-22.3c5,1.6,7.1-6.2,2.1-7.8
				c-25.7-8.2-53.3,3.6-71.2,22.4c-20.4,21.3-29.3,50.6-37.7,78.2c1.3-1,2.6-2,3.9-3c-15.6-1.3-22.2-22.1-27.3-34
				c-7.9-18.2-15.4-36.8-19.8-56.2c-7.8-34-5.1-74.7,22.7-99.2c13.4-11.9,31.9-18.7,49.8-15.4C304.7,693,306.9,685.2,301.8,684.3
				L301.8,684.3z"/>
		</g>
		<g>
			<path d="M460.5,167.2c7-16.4,25.6-19,41.5-16.1c19.2,3.4,35.4,14.2,50.1,26.6c31.6,26.7,53.8,62.6,69.6,100.5
				c16.4,39.4,26.7,81,35.1,122.7c10.4,51.4,19.6,103.3,23.6,155.6c4.7,59.8,2,120.4-15.6,178.1c-1.5,5,6.3,7.1,7.8,2.1
				c16.2-53.1,20-109.1,17-164.4c-3.1-55.2-12.5-109.8-23.1-163.9c-8.5-43.7-18.8-87.4-35.5-128.8c-15.9-39.4-38.1-77-70.3-105.2
				c-15-13.2-31.9-25.2-51.6-30.1c-16-3.9-36.1-4.1-48.6,8.4c-3,3-5.2,6.5-6.9,10.3C451.5,167.9,458.5,172,460.5,167.2L460.5,167.2z
				"/>
		</g>
		<g>
			<path d="M683.8,663.9c7.3-8.1,19.8-8,28.9-3c10.8,5.9,17.1,17.9,21.3,29c9.5,24.8,13.9,51.5,13.7,77.9c-0.2,27-5.2,53.8-15,78.9
				c-2.3,5.8-4.5,12.2-8.2,17.3c-1.5,2-3.7,4.5-6.3,4.8c-3.4,0.4-6-2.7-7.9-5.1c-8-10.4-12-23.4-16.4-35.6
				c-8.2-22.9-23-51.5-51.4-50.8c-5.2,0.1-5.2,8.2,0,8.1c13.5-0.3,24.5,8.8,31.7,19.5c8,11.8,11.7,25.7,16.8,38.8
				c2.4,6.3,5.1,12.6,8.6,18.4c3.2,5.4,7.2,11.7,13.4,14c13.1,4.8,20.6-10.7,24.7-20.3c22.7-53.5,25-118,2.5-172
				c-5.3-12.8-13.5-25.8-26.8-31.5c-11.8-5-26.5-4-35.4,5.8C674.6,662,680.3,667.7,683.8,663.9L683.8,663.9z"/>
		</g>
		<g>
			<path d="M515.6,658.4c-12.7,1.2-19.8,12-23.6,23.2c-4.7,14-6.1,29.7-6.9,44.4c-1.6,31.2,3,62.8,13.3,92.3
				c5.9,16.7,13.6,32.7,23,47.7c1.5,2.4,5.6,2.9,7,0c13.6-28.6,22-59.3,24.6-90.9c1.3-15.8,1.1-31.7-0.5-47.4
				c-1.4-13.6-3.4-27.5-8.9-40.1c-5.1-11.7-14-22.5-27.3-24.5c-5.1-0.8-7.3,7-2.1,7.8c24.5,3.7,28.4,38.1,30.3,57.5
				c3,29,0.9,58.5-6.3,86.8c-4,16-9.6,31.6-16.8,46.6c2.3,0,4.6,0,7,0c-30.5-48.5-42.4-108.4-31.9-164.8c2-10.5,5.6-29.4,19-30.7
				C520.8,666,520.8,657.9,515.6,658.4L515.6,658.4z"/>
		</g>
		<g>
			<path d="M347.2,784.9c49.7,23.5,105.2,33.5,160,28.5c5.1-0.5,5.2-8.5,0-8.1c-53.3,4.8-107.5-4.6-155.9-27.4
				C346.6,775.7,342.5,782.7,347.2,784.9L347.2,784.9z"/>
		</g>
		<g>
			<path d="M576.5,797.7c24.4-5.8,48.8-11.7,73.1-17.5c10.5-2.5,21.4-4.4,31.6-7.9c7.9-2.7,15.6-7.1,19.2-15c2.1-4.7-4.8-8.8-7-4.1
				c-3.5,7.7-11.5,10.7-19.1,12.8c-10.6,2.9-21.3,5.2-32,7.7c-22.6,5.4-45.3,10.8-67.9,16.2C569.3,791.2,571.5,799,576.5,797.7
				L576.5,797.7z"/>
		</g>
		<g>
			<path d="M353,716.2c42.2,17.4,90.2,19.1,133.6,4.9c4.9-1.6,2.8-9.4-2.1-7.8c-42.2,13.9-88.3,12.1-129.3-4.9
				C350.4,706.4,348.3,714.2,353,716.2L353,716.2z"/>
		</g>
		<g>
			<path d="M314,741.5c45,16.8,92.5,26.2,140.5,28c5.2,0.2,5.2-7.9,0-8.1c-47.3-1.8-94-11.1-138.4-27.7
				C311.2,731.9,309.1,739.7,314,741.5L314,741.5z"/>
		</g>
		<g>
			<path d="M675.3,677.3c-27.8,31.8-69.2,49.7-111.4,48.2c-5.2-0.2-5.2,7.9,0,8.1c44.1,1.7,88-17.3,117.1-50.5
				C684.4,679.2,678.8,673.4,675.3,677.3L675.3,677.3z"/>
		</g>
		<g>
			<path d="M486.9,356.9c-48,10.2-86.5,51-97.7,98.3c-3.2,13.5-4.1,27.5-2.5,41.3c0.6,5.1,8.7,5.1,8.1,0
				c-5.4-46.2,19.2-93.1,58.5-117.4c11.1-6.9,23.1-11.7,35.9-14.4C494.1,363.6,492,355.9,486.9,356.9L486.9,356.9z"/>
		</g>
		<g>
			<path d="M554.3,374.9c44.6,18.4,73.6,66.8,67.5,114.8c-3.1,24.1-14.3,47.2-31.2,64.6c-17.8,18.2-41.8,29.4-67.1,31.7
				c-14.2,1.3-28.5,0.1-42.2-3.8c-13.6-3.9-30-10.5-38.4-22.6c-2.9-4.2-9.9-0.2-7,4.1c7.9,11.5,21.1,18.3,33.8,23.2
				c13,5,27.1,7.5,41,7.7c27.7,0.4,55.3-8.7,76.7-26.5c20.2-16.7,34.5-40.6,40.3-66.1c5.8-25.8,2.6-52.6-9-76.3
				c-12.9-26.3-35.2-47.4-62.3-58.5C551.7,365.2,549.6,373,554.3,374.9L554.3,374.9z"/>
		</g>
		<g>
			<path d="M455.1,499.3c-11.1-20.5,1.5-46.8,21.1-56.7c19-9.7,44.1-5.4,60,8.5c16.6,14.5,20.2,37.8,12.4,57.9
				c-8.2,20.8-27.7,34.1-50.2,32.6c-12-0.8-24-5.7-33.1-13.6c-4.6-3.9-8.5-8.6-11.4-13.8c-2.8-5-6.6-13.5-1.6-18.4
				c3.7-3.6-2-9.3-5.7-5.7c-10.2,9.9-1.9,26.2,5.2,35.3c7.9,10.2,19.1,17.5,31.4,21.4c25.2,8,52.1-0.8,66.8-23
				c14-21.1,15-50.7-0.9-71c-15.7-20-44.9-28.5-69-20.4c-27.9,9.4-46.6,43.6-31.8,71C450.7,507.9,457.6,503.9,455.1,499.3
				L455.1,499.3z"/>
		</g>
		<g>
			<path d="M511,399.4c0.1-1.8,2.6-1.9,3.7-1.1c-0.6-1.5-1.2-3-1.8-4.5c-0.9,4-1.7,8.1-2.6,12.1c-1.1,5.1,6.7,7.2,7.8,2.1
				c0.9-4,1.7-8.1,2.6-12.1c0.4-1.9-0.3-3.4-1.8-4.5c-6.3-4.7-15.4,0.7-15.8,8C502.6,404.5,510.7,404.5,511,399.4L511,399.4z"/>
		</g>
		<g>
			<path d="M592.7,486.7c-0.4-3.5,1.4-6.9,5-7.8c-1-0.1-2.1-0.3-3.1-0.4c0.9,0.4,0.3,0,0.2,0c-0.1-0.1-0.1-0.1-0.1-0.2
				c0-0.2,0-0.1,0,0.4c0,0-0.2,0.3-0.1,0.1c0.1-0.1,0.2-0.3,0.3-0.4c-5,1.3-2.9,9.1,2.1,7.8c6.8-1.8,7.8-12.9,0.6-14.9
				c-3.4-0.9-7.7,2.4-9.7,4.9c-2.4,3-3.8,6.8-3.3,10.7c0.2,2.2,1.7,4,4,4C590.7,490.7,592.9,488.9,592.7,486.7L592.7,486.7z"/>
		</g>
		<g>
			<path d="M526.8,573.7c-1.2-1.3-2.5-2.5-3.7-3.8c-1.5-1.5-4.2-1.6-5.7,0c-1.5,1.6-1.6,4.1,0,5.7c1.2,1.3,2.5,2.5,3.7,3.8
				c1.5,1.5,4.2,1.6,5.7,0C528.3,577.8,528.4,575.3,526.8,573.7L526.8,573.7z"/>
		</g>
		<g>
			<path d="M422.2,482.6c-2.2,0.4-4,2.2-4.5,4.3c-0.5,2,0,4.1,0.9,5.9c2,4,7.1,5.6,10.5,2.3c1.5-1.5,1.6-4.2,0-5.7
				c-1.6-1.5-4.1-1.6-5.7,0c-0.5,0.5,0.8-0.5,0.2-0.2c0.6-0.3,0.5-0.3,1.3-0.3c-0.7,0,1.1,0.2,0.5,0.1c-0.6-0.1,1,0.5,0.4,0.1
				c-0.5-0.3,0.7,0.7,0.3,0.2c-0.1-0.1-0.2-0.3-0.3-0.3c-0.2-0.1,0.5,0.9,0.2,0.2c-0.1-0.2-0.2-0.3-0.3-0.5
				c-0.4-0.6,0.1,0.2,0.1,0.4c0-0.1-0.1-0.4-0.2-0.5c-0.2-0.7,0.3-0.1,0,0.4c0,0,0-0.5,0-0.5c0.2,0.4-0.2,1.1,0,0.4
				c-0.1,0.2-0.2,0.5-0.3,0.7c0.2-0.3,0.1-0.2-0.4,0.4c0.4-0.4-0.8,0.5-0.4,0.3c0.1-0.1-1,0.3-0.1,0.1c2.1-0.4,3.4-3,2.8-5
				C426.4,483.2,424.4,482.2,422.2,482.6L422.2,482.6z"/>
		</g>
		<g>
			<path d="M404.8,255.4c50.7-30.5,116-33.5,170-9.9c15.4,6.7,29.9,15.6,42.8,26.4c3.9,3.3,9.7-2.4,5.7-5.7
				c-47.6-40-114.4-53.6-174.3-38c-17,4.4-33.2,11.3-48.2,20.3C396.2,251.1,400.3,258.1,404.8,255.4L404.8,255.4z"/>
		</g>
	</g>
</g>
</svg>
