<svg version="1.1" id="Layer_1" xmlns="http://www.w3.org/2000/svg" x="0" y="0" viewBox="0 0 1000 1000" xml:space="preserve"><style>.st0,.st2{opacity:.7;fill:#e3043c}.st2{fill:#a19ea1}</style><path class="st0" d="M543.1 715.4c-2.4-15.9-8-33.7-24.6-40.7-6-2.5-13.6-3.1-18.9.4-4.1 2.7-5.9 7.3-7.2 11.6-8.6 29.7-2.1 61 6 90.8 5.8 21.4 10.2 52.3 24.8 70.1 33.5-13.5 23.8-106.3 19.9-132.2z"/><path d="M610.2 281.2c-5.1-11.4-19.5-22.5-29.5-29.4-32.4-22.2-113.1-22.6-149.3-9.3-33.3 12.1-45.4 42.5-59 74.3-47 110.4-71 227.4-56.9 348.5 1.1 9.5 2.7 19.7 8.8 26.7 7 8.1 18.2 10.2 28.5 11.5 43 5.8 86.4 8.3 129.8 7.3-1.3-5 .4-12.3 3.6-19.4.7-9 2.8-17.9 6.4-26.1 4.5-10.1 13.3-18.4 24.5-18.5 11.3-.1 21.2 7.4 26 17.6 6.5 13.7 7.2 29 7.1 44.1 29.7 11.9 62 1.8 90.3-14.1 7-3.9 13.8-8.9 17.8-16.1 3.8-6.8 4.7-14.8 5.4-22.7 11.6-127.3-1.5-258.6-53.5-374.4z" opacity=".7" fill="#ffce38"/><path class="st0" d="M479.5 158c-30.3 18.8-53.9 48-65.8 81.6 59.2-21.2 126.7-17.8 183.5 9.1 12.8-.1 10.9-20.4 3.3-30.7-32.1-43.7-87.1-69.6-141.2-66.4M293.9 689c-51.7-3.1-65.5 56.4-63.4 99.1 1.9 37.7 21.3 67 32.3 103.1 17.6-24.1 20.8-44.1 38.1-68.4 17.3-24.3 40.4-45.3 68.5-35.2-20-12.4-40.4-25-55.7-43-15.2-18-24.8-42.4-19.2-65.3M678.1 667c3.4 37.8-5.6 76.8-14 113.8 16.2-2.4 30.6 26.7 32.9 43s6.9 33 20.8 41.8c18.8-7.9 22-39.9 22.5-60.2.8-31.5 4.9-55.8-.7-86.8-5.1-28-25.2-57.8-53.7-58.3"/><path class="st2" d="M392 504.2c1.5 8.8 5 17.2 9.4 25 23.8 41.9 75.9 65.6 123.1 56.2 30.1-6 57.4-24.6 74-50.5s22-58.5 14.7-88.3c-12.4-50.1-72.8-97.5-126.3-84-50.8 12.8-103.4 90.4-94.9 141.6z"/><path d="M496.7 442.7c-13.5-4.1-27.2 5.6-36.4 16.3-7.8 9.2-14.5 20.3-14.3 32.3.2 17 20.1 41 36 47.2 20.6 8 40.3-5.7 55.7-21.5 15.4-15.9 17.7-43.8 2.9-60.3-15.1-16.9-40.6-17.9-63.3-17.7" opacity=".7" fill="#a8eddc"/><path class="st2" d="M406.6 799.8c32.5 2.9 55.9-.9 88.1 4-15.6-24-19.4-51.3-17.2-79.2-45.8 15.9-168.7-44.4-166.1-12.9 3.9 45.8 15.4 80.9 95.2 88.1zm150.8-5c33.9-5.7 67.7-11.4 101.6-17.1 2.7-.5 5.5-1 7.5-2.9 2.4-2.4 2.6-6.1 2.7-9.4.7-22.7 1.4-45.3 2.1-68-24.1 23-53.1 32.6-85.3 37.3-14.5 2.1-22-3.7-30.1 9-3.4 5 4.8 50.5 1.5 51.1z"/><path d="M460.5 155.2C403 218.8 359.1 294.1 330.6 374.9c-28.4 80.4-41.6 166.4-38.1 251.7 2 48.1 9.3 96 22.1 142.5 1.4 5 9.1 2.9 7.8-2.1-22.5-81.7-27.8-167.6-17-251.5 10.7-83.6 37.3-165.2 78.2-238.9 23.1-41.5 50.7-80.4 82.6-115.6 3.4-3.9-2.2-9.6-5.7-5.8z"/><path d="M301.8 684.3c-37.7-7-71 21.3-81.7 55.9-12.9 41.7 1.9 84.6 18.3 122.9 7 16.4 14.9 40.1 35.9 41.9 1.8.2 3.4-1.4 3.9-3 7.7-25.3 15.7-52.4 33.8-72.6 16-17.9 41.3-30 65.2-22.3 5 1.6 7.1-6.2 2.1-7.8-25.7-8.2-53.3 3.6-71.2 22.4-20.4 21.3-29.3 50.6-37.7 78.2l3.9-3c-15.6-1.3-22.2-22.1-27.3-34-7.9-18.2-15.4-36.8-19.8-56.2-7.8-34-5.1-74.7 22.7-99.2 13.4-11.9 31.9-18.7 49.8-15.4 5 .9 7.2-6.9 2.1-7.8zm158.7-517.1c7-16.4 25.6-19 41.5-16.1 19.2 3.4 35.4 14.2 50.1 26.6 31.6 26.7 53.8 62.6 69.6 100.5 16.4 39.4 26.7 81 35.1 122.7 10.4 51.4 19.6 103.3 23.6 155.6 4.7 59.8 2 120.4-15.6 178.1-1.5 5 6.3 7.1 7.8 2.1 16.2-53.1 20-109.1 17-164.4-3.1-55.2-12.5-109.8-23.1-163.9-8.5-43.7-18.8-87.4-35.5-128.8-15.9-39.4-38.1-77-70.3-105.2-15-13.2-31.9-25.2-51.6-30.1-16-3.9-36.1-4.1-48.6 8.4-3 3-5.2 6.5-6.9 10.3-2.1 4.9 4.9 9 6.9 4.2z"/><path d="M683.8 663.9c7.3-8.1 19.8-8 28.9-3 10.8 5.9 17.1 17.9 21.3 29 9.5 24.8 13.9 51.5 13.7 77.9-.2 27-5.2 53.8-15 78.9-2.3 5.8-4.5 12.2-8.2 17.3-1.5 2-3.7 4.5-6.3 4.8-3.4.4-6-2.7-7.9-5.1-8-10.4-12-23.4-16.4-35.6-8.2-22.9-23-51.5-51.4-50.8-5.2.1-5.2 8.2 0 8.1 13.5-.3 24.5 8.8 31.7 19.5 8 11.8 11.7 25.7 16.8 38.8 2.4 6.3 5.1 12.6 8.6 18.4 3.2 5.4 7.2 11.7 13.4 14 13.1 4.8 20.6-10.7 24.7-20.3 22.7-53.5 25-118 2.5-172-5.3-12.8-13.5-25.8-26.8-31.5-11.8-5-26.5-4-35.4 5.8-3.4 3.9 2.3 9.6 5.8 5.8zm-168.2-5.5c-12.7 1.2-19.8 12-23.6 23.2-4.7 14-6.1 29.7-6.9 44.4-1.6 31.2 3 62.8 13.3 92.3 5.9 16.7 13.6 32.7 23 47.7 1.5 2.4 5.6 2.9 7 0 13.6-28.6 22-59.3 24.6-90.9 1.3-15.8 1.1-31.7-.5-47.4-1.4-13.6-3.4-27.5-8.9-40.1-5.1-11.7-14-22.5-27.3-24.5-5.1-.8-7.3 7-2.1 7.8 24.5 3.7 28.4 38.1 30.3 57.5 3 29 .9 58.5-6.3 86.8-4 16-9.6 31.6-16.8 46.6h7C497.9 813.3 486 753.4 496.5 697c2-10.5 5.6-29.4 19-30.7 5.3-.3 5.3-8.4.1-7.9z"/><path d="M347.2 784.9c49.7 23.5 105.2 33.5 160 28.5 5.1-.5 5.2-8.5 0-8.1-53.3 4.8-107.5-4.6-155.9-27.4-4.7-2.2-8.8 4.8-4.1 7zm229.3 12.8c24.4-5.8 48.8-11.7 73.1-17.5 10.5-2.5 21.4-4.4 31.6-7.9 7.9-2.7 15.6-7.1 19.2-15 2.1-4.7-4.8-8.8-7-4.1-3.5 7.7-11.5 10.7-19.1 12.8-10.6 2.9-21.3 5.2-32 7.7-22.6 5.4-45.3 10.8-67.9 16.2-5.1 1.3-2.9 9.1 2.1 7.8zM353 716.2c42.2 17.4 90.2 19.1 133.6 4.9 4.9-1.6 2.8-9.4-2.1-7.8-42.2 13.9-88.3 12.1-129.3-4.9-4.8-2-6.9 5.8-2.2 7.8zm-39 25.3c45 16.8 92.5 26.2 140.5 28 5.2.2 5.2-7.9 0-8.1-47.3-1.8-94-11.1-138.4-27.7-4.9-1.8-7 6-2.1 7.8zm361.3-64.2c-27.8 31.8-69.2 49.7-111.4 48.2-5.2-.2-5.2 7.9 0 8.1 44.1 1.7 88-17.3 117.1-50.5 3.4-3.9-2.2-9.7-5.7-5.8zM486.9 356.9c-48 10.2-86.5 51-97.7 98.3-3.2 13.5-4.1 27.5-2.5 41.3.6 5.1 8.7 5.1 8.1 0-5.4-46.2 19.2-93.1 58.5-117.4 11.1-6.9 23.1-11.7 35.9-14.4 4.9-1.1 2.8-8.8-2.3-7.8zm67.4 18c44.6 18.4 73.6 66.8 67.5 114.8-3.1 24.1-14.3 47.2-31.2 64.6-17.8 18.2-41.8 29.4-67.1 31.7-14.2 1.3-28.5.1-42.2-3.8-13.6-3.9-30-10.5-38.4-22.6-2.9-4.2-9.9-.2-7 4.1 7.9 11.5 21.1 18.3 33.8 23.2 13 5 27.1 7.5 41 7.7 27.7.4 55.3-8.7 76.7-26.5 20.2-16.7 34.5-40.6 40.3-66.1 5.8-25.8 2.6-52.6-9-76.3-12.9-26.3-35.2-47.4-62.3-58.5-4.7-2-6.8 5.8-2.1 7.7z"/><path d="M455.1 499.3c-11.1-20.5 1.5-46.8 21.1-56.7 19-9.7 44.1-5.4 60 8.5 16.6 14.5 20.2 37.8 12.4 57.9-8.2 20.8-27.7 34.1-50.2 32.6-12-.8-24-5.7-33.1-13.6-4.6-3.9-8.5-8.6-11.4-13.8-2.8-5-6.6-13.5-1.6-18.4 3.7-3.6-2-9.3-5.7-5.7-10.2 9.9-1.9 26.2 5.2 35.3 7.9 10.2 19.1 17.5 31.4 21.4 25.2 8 52.1-.8 66.8-23 14-21.1 15-50.7-.9-71-15.7-20-44.9-28.5-69-20.4-27.9 9.4-46.6 43.6-31.8 71 2.4 4.5 9.3.5 6.8-4.1zm55.9-99.9c.1-1.8 2.6-1.9 3.7-1.1l-1.8-4.5c-.9 4-1.7 8.1-2.6 12.1-1.1 5.1 6.7 7.2 7.8 2.1.9-4 1.7-8.1 2.6-12.1.4-1.9-.3-3.4-1.8-4.5-6.3-4.7-15.4.7-15.8 8-.5 5.1 7.6 5.1 7.9 0zm81.7 87.3c-.4-3.5 1.4-6.9 5-7.8-1-.1-2.1-.3-3.1-.4.9.4.3 0 .2 0-.1-.1-.1-.1-.1-.2v.4s-.2.3-.1.1c.1-.1.2-.3.3-.4-5 1.3-2.9 9.1 2.1 7.8 6.8-1.8 7.8-12.9.6-14.9-3.4-.9-7.7 2.4-9.7 4.9-2.4 3-3.8 6.8-3.3 10.7.2 2.2 1.7 4 4 4 2.1-.2 4.3-2 4.1-4.2zm-65.9 87c-1.2-1.3-2.5-2.5-3.7-3.8-1.5-1.5-4.2-1.6-5.7 0s-1.6 4.1 0 5.7c1.2 1.3 2.5 2.5 3.7 3.8 1.5 1.5 4.2 1.6 5.7 0s1.6-4.1 0-5.7zm-104.6-91.1c-2.2.4-4 2.2-4.5 4.3-.5 2 0 4.1.9 5.9 2 4 7.1 5.6 10.5 2.3 1.5-1.5 1.6-4.2 0-5.7s-4.1-1.6-5.7 0c-.5.5.8-.5.2-.2.6-.3.5-.3 1.3-.3-.7 0 1.1.2.5.1-.6-.1 1 .5.4.1-.5-.3.7.7.3.2-.1-.1-.2-.3-.3-.3-.2-.1.5.9.2.2-.1-.2-.2-.3-.3-.5-.4-.6.1.2.1.4 0-.1-.1-.4-.2-.5-.2-.7.3-.1 0 .4v-.5c.2.4-.2 1.1 0 .4-.1.2-.2.5-.3.7.2-.3.1-.2-.4.4.4-.4-.8.5-.4.3.1-.1-1 .3-.1.1 2.1-.4 3.4-3 2.8-5-.8-2.2-2.8-3.2-5-2.8zm-17.4-227.2c50.7-30.5 116-33.5 170-9.9 15.4 6.7 29.9 15.6 42.8 26.4 3.9 3.3 9.7-2.4 5.7-5.7-47.6-40-114.4-53.6-174.3-38-17 4.4-33.2 11.3-48.2 20.3-4.6 2.6-.5 9.6 4 6.9z"/></svg>