<svg version="1.1" id="Layer_1" xmlns="http://www.w3.org/2000/svg" x="0" y="0" viewBox="0 0 1000 1000" xml:space="preserve"><style>.st3{fill:#d1b484}</style><path d="M341.8 378.2c17.4 67.1 39.8 132.9 67 196.7 13.8 32.4 24.9 65 28 100.1s-4.8 73.8-34.5 92.6c54 4.2 106.8-14.1 159.5-26.6s111.1-18.7 158.6 7.3c16.1-68.1 10.9-141.1-14.8-206.2-5.6-14.3-12.7-28.8-25-37.9-12.3-9.1-31.3-10.9-42.2-.1 20.7-13.5 31.9-38.1 34.8-62.6s-1.2-49.2-5.4-73.5c-.8-4.4-1.7-9.1-5-12.1-3.7-3.3-9.2-3.4-14.2-3.2-36 1.3-71.8 6.9-106.5 16.7-1-8.9-4.6-17.5-10.2-24.5-8.8 17.2-31.8 19.9-51.1 20.4-25.5.7-51 1.4-76.4 2-32.6.9-77.9-9.6-64.2-52.6-8.7 20.5-3.8 42.8 1.6 63.5z" opacity=".7" fill="#ffe09e"/><path d="M396.6 355.9c32.1 2 64.2 3.9 96.4 5.9 4.9.3 10.1.5 14.3-2.1 9.8-6.1 12.1-25.9 23.2-22.7 2.6 10.6 14.4 16.6 25.2 16.8 10.9.1 21.2-4.2 31.6-7.6 26.8-8.8 55.6-11.6 83.6-8.1 6.9.9 14.3 2 20.6-1 8-3.8 11.8-13.5 11.4-22.4-1-18.6-17.4-33.5-35.2-38.8s-37-3.1-55.5-.9c-43.5 5.3-87 10.5-130.5 15.8-37.7 4.5-83.4-7.6-117.9 0-.3-1 56.5 66.6 32.8 65.1z" opacity=".7" fill="#ffefcc"/><g opacity=".7"><path class="st3" d="M329.5 361.9c11.9 2.2 23.7 4.5 35.5 6.7 7.9 1.5 17.4 2.5 22.8-3.4 1.6-1.7 2.6-3.9 3.4-6.1 6.9-19.5-9.9-43.3-30.5-43.5-20.7-.2-37.8 23.4-31.2 43m50.9 312.1c14.4 17.9 10.4 47.7-8.4 61.1-4-5-8-9.9-12-14.9 3.7 9 3.2 19.1 5.5 28.5s9.1 19.2 18.9 19.3c10.6.1 17.5-11 21.2-21 10.6-28.3 13.6-59.5 8.7-89.3"/><path class="st3" d="M378.7 679.8c-.9-9-13-13.4-21.2-9.5s-12.6 12.9-14.8 21.7c-4.4 17.9-1.5 37.4 7.9 53.3 2.9 4.9 6.7 9.8 12.1 11.6 7.2 2.5 15.4-1.1 20.5-6.8 5.1-5.7 7.7-13.1 10.2-20.3"/></g><path d="M369.4 289.2c51.9 1.5 103.8 1.4 155.7-.5 25.9-.9 51.8-2.3 77.7-4.1 12.9-.9 25.9-1.9 38.8-3 11.5-1 23.8-2.5 34.8 2.1 19.3 8.1 28.6 30.4 28.4 50.2 0 5.8 9 5.8 9 0 .1-18.5-6.8-38.2-21.2-50.5-18.8-16.1-43.2-11.5-66-9.7-54.4 4.3-108.9 6.8-163.5 7.3-31.3.3-62.5 0-93.8-.9-5.7-.1-5.7 8.9.1 9.1zm14.2 86.9c29.8-5.7 60.1-8.3 90.4-7.6 12 .2 25.8 3 37.2-1.7 4.9-2 8.4-5.4 11.4-9.6 2.6-3.7 4.7-9.1 9.5-10.3-1.5-.4-2.9-.8-4.4-1.2 6.1 7.3 11.2 15.2 15.5 23.6 2.6 5.2 10.4.6 7.8-4.6-4.7-9.1-10.3-17.6-16.9-25.4-1-1.2-2.9-1.5-4.4-1.2-10.5 2.6-11.5 14.4-19.9 19.3-5.4 3.2-12.3 2.9-18.2 2.6-7.1-.3-14.3-.7-21.5-.8-29.8-.4-59.6 2.4-88.9 8-5.7 1.3-3.3 10 2.4 8.9z"/><path d="M548.8 368.7c32.3-12.1 66.7-17.9 101.3-16.8 8.5.3 17.1.9 25.6 2.1 7.7 1 15.8 2.9 23.5.6 11-3.2 19.1-17.5 9.8-26.9-4.1-4.1-10.5 2.2-6.4 6.4 4.3 4.4-1.5 10.5-5.8 11.8-6.8 2-14.3-.1-21.1-1-14.5-1.9-29.2-2.6-43.9-2-29.1 1.1-58 6.9-85.3 17.1-5.5 2-3.2 10.8 2.3 8.7zM356.3 748c-7-16.8-14.7-34.9-12-53.5 1.2-8.2 4.5-16.8 10.8-22.5 6.6-5.9 14.9-6.4 20.3 1.4 4.8 6.9 7.1 16 7.9 24.3.4 4.5.4 9.1-.2 13.5-.4 2.9-1.1 12.8-4.5 13.8-3.2.9-6.6-4.9-7.9-7.1-2-3.7-3.2-8-3.6-12.2-.9-8.4 1.3-16.6 6-23.7 3.2-4.8-4.6-9.4-7.8-4.6-9.4 14.1-10.2 34.7.1 48.7 4.2 5.7 12.4 10.6 19.1 5.9 6.9-4.8 7.7-17.6 8.1-25.2.5-9.7-1.1-19.6-4.6-28.6-2.9-7.5-7.2-15.3-14.9-18.6-17.3-7.4-32 11.6-36.1 26.2-6.2 22.1 2.3 44.2 10.7 64.4 2.1 5.5 10.8 3.2 8.6-2.2zM348 458.5c19.8-2.7 38.9-8.8 56.7-17.8 5.2-2.6.6-10.4-4.6-7.8-17.2 8.7-35.5 14.3-54.6 16.9-5.6.8-3.2 9.5 2.5 8.7zM738.5 664c-33.8 13-69.3 20.7-105.5 22.7-5.8.3-5.8 9.3 0 9 37-2 73.4-9.6 107.9-23 5.4-2 3.1-10.8-2.4-8.7z"/><path d="M368 284c-15.4 1.2-28.5 11.1-35.9 24.4-8.8 15.8-9.2 34.7-7.8 52.3 3 38.6 14.5 75.8 28.2 111.7 27.6 72.2 66.5 144.9 63.4 224.4-.4 10.9-1.7 21.7-4 32.3-1.8 8.3-4.3 16.9-9.5 23.7-4.9 6.4-12 10.5-20.2 8.7-6.5-1.5-12.4-6-11.7-13.3.6-5.8-8.5-5.7-9 0-1.4 13.5 12 22.3 24.2 22.8 15.3.5 25.6-12.5 30.8-25.5 6.8-17.1 8.4-37 8.6-55.2.2-19.7-2.2-39.5-6.2-58.8-16.5-79.5-60.7-149.9-78.9-228.9-5-21.7-9-45.1-6.7-67.4 2-18.9 13.4-40.7 34.6-42.4 5.9-.1 5.9-9.2.1-8.8z"/><path d="M376.9 668.4c11.3 1.3 22.3-.7 32.7-5.4 5.3-2.4.7-10.2-4.6-7.8-8.9 4.1-18.4 5.3-28.1 4.2-5.8-.7-5.8 8.3 0 9zM393.8 777c45.5.8 88.9-14.3 132.2-26 44.4-12.1 89.6-17.8 135.6-14.2 26.1 2 51.9 6.9 77 14.4 5.6 1.7 8-7.1 2.4-8.7-44.1-13.1-90.5-18.2-136.5-14.8-22.8 1.7-45.3 5.5-67.5 11.1-22.3 5.6-44.2 12.5-66.4 18.3-25.2 6.5-50.8 11.4-76.9 11-5.7-.2-5.7 8.8.1 8.9zm291.1-317.8c-8.7-35.9-7.6-73.2 2.5-108.6 1.6-5.6-7.1-8-8.7-2.4-10.5 37-11.5 76-2.5 113.5 1.3 5.5 10.1 3.2 8.7-2.5z"/><path d="M741.9 743c13.1-64.1-7.8-127.7-28.6-187.7-6.2-17.9-12.5-35.8-17.9-54-1.7-5.6-10.4-3.2-8.7 2.4 22.7 76.4 63.2 155 46.5 236.9-1.1 5.7 7.6 8.2 8.7 2.4z"/><path d="M679 465.6l-37.5 30.3c-3.6 2.9.3 8.9 4.4 7.5 15-4.7 30.5-3.9 45 2.2 5.3 2.2 7.7-6.5 2.4-8.7a72.32 72.32 0 0 0-49.8-2.2c1.5 2.5 2.9 5 4.4 7.5l37.5-30.3c4.5-3.6-1.9-9.9-6.4-6.3zM335.2 353.1c.7-11.8 3.9-25.1 14-32.5 9.4-6.9 21.6-6.3 28.9 3.2 6.9 8.9 11 24 5.7 34.5-2.4 4.8-7.5 9.2-13.1 9.1-5.1-.1-10.5-5-9.6-10.3 1-5.7-7.8-8.1-8.7-2.4-2 12 8.3 22.9 20.5 21.6 13.8-1.5 22-14.8 22.3-27.7.3-12.7-5.1-27.7-15.2-35.8-10.1-8.1-24.2-7.4-34.7-.4-13.5 9-18.2 25.3-19.1 40.7-.4 5.8 8.7 5.8 9 0z"/><path d="M354.7 352c12.8.8 25.6-.9 37.7-5 5.5-1.9 3.1-10.6-2.4-8.7-11.5 3.9-23.2 5.5-35.3 4.7-5.8-.5-5.8 8.6 0 9z"/></svg>