<?xml version="1.0" encoding="utf-8"?>
<!-- Generator: Adobe Illustrator 23.0.2, SVG Export Plug-In . SVG Version: 6.00 Build 0)  -->
<svg version="1.1" id="Layer_1" xmlns="http://www.w3.org/2000/svg" xmlns:xlink="http://www.w3.org/1999/xlink" x="0px" y="0px"
	 viewBox="0 0 1000 1000" style="enable-background:new 0 0 1000 1000;" xml:space="preserve">
<style type="text/css">
	.st0{opacity:0.7;fill:#FFE09E;}
	.st1{opacity:0.7;fill:#FFEFCC;}
	.st2{opacity:0.7;}
	.st3{fill:#D1B484;}
</style>
<g>
	<g>
		<path class="st0" d="M341.8,378.2c17.4,67.1,39.8,132.9,67,196.7c13.8,32.4,24.9,65,28,100.1s-4.8,73.8-34.5,92.6
			c54,4.2,106.8-14.1,159.5-26.6s111.1-18.7,158.6,7.3c16.1-68.1,10.9-141.1-14.8-206.2c-5.6-14.3-12.7-28.8-25-37.9
			c-12.3-9.1-31.3-10.9-42.2-0.1c20.7-13.5,31.9-38.1,34.8-62.6s-1.2-49.2-5.4-73.5c-0.8-4.4-1.7-9.1-5-12.1
			c-3.7-3.3-9.2-3.4-14.2-3.2c-36,1.3-71.8,6.9-106.5,16.7c-1-8.9-4.6-17.5-10.2-24.5c-8.8,17.2-31.8,19.9-51.1,20.4
			c-25.5,0.7-51,1.4-76.4,2c-32.6,0.9-77.9-9.6-64.2-52.6C331.5,335.2,336.4,357.5,341.8,378.2z"/>
		<path class="st1" d="M396.6,355.9c32.1,2,64.2,3.9,96.4,5.9c4.9,0.3,10.1,0.5,14.3-2.1c9.8-6.1,12.1-25.9,23.2-22.7
			c2.6,10.6,14.4,16.6,25.2,16.8c10.9,0.1,21.2-4.2,31.6-7.6c26.8-8.8,55.6-11.6,83.6-8.1c6.9,0.9,14.3,2,20.6-1
			c8-3.8,11.8-13.5,11.4-22.4c-1-18.6-17.4-33.5-35.2-38.8s-37-3.1-55.5-0.9c-43.5,5.3-87,10.5-130.5,15.8
			c-37.7,4.5-83.4-7.6-117.9,0C363.5,289.8,420.3,357.4,396.6,355.9z"/>
		<g class="st2">
			<path class="st3" d="M329.5,361.9c11.9,2.2,23.7,4.5,35.5,6.7c7.9,1.5,17.4,2.5,22.8-3.4c1.6-1.7,2.6-3.9,3.4-6.1
				c6.9-19.5-9.9-43.3-30.5-43.5c-20.7-0.2-37.8,23.4-31.2,43"/>
			<path class="st3" d="M380.4,670.7c14.4,17.9,10.4,47.7-8.4,61.1c-4-5-8-9.9-12-14.9c3.7,9,3.2,19.1,5.5,28.5s9.1,19.2,18.9,19.3
				c10.6,0.1,17.5-11,21.2-21c10.6-28.3,13.6-59.5,8.7-89.3"/>
			<path class="st3" d="M378.7,679.8c-0.9-9-13-13.4-21.2-9.5s-12.6,12.9-14.8,21.7c-4.4,17.9-1.5,37.4,7.9,53.3
				c2.9,4.9,6.7,9.8,12.1,11.6c7.2,2.5,15.4-1.1,20.5-6.8c5.1-5.7,7.7-13.1,10.2-20.3"/>
		</g>
		<g>
			<path d="M369.4,289.2c51.9,1.5,103.8,1.4,155.7-0.5c25.9-0.9,51.8-2.3,77.7-4.1c12.9-0.9,25.9-1.9,38.8-3
				c11.5-1,23.8-2.5,34.8,2.1c19.3,8.1,28.6,30.4,28.4,50.2c0,5.8,9,5.8,9,0c0.1-18.5-6.8-38.2-21.2-50.5
				c-18.8-16.1-43.2-11.5-66-9.7c-54.4,4.3-108.9,6.8-163.5,7.3c-31.3,0.3-62.5,0-93.8-0.9C363.6,280,363.6,289,369.4,289.2
				L369.4,289.2z"/>
		</g>
		<g>
			<path d="M383.6,376.1c29.8-5.7,60.1-8.3,90.4-7.6c12,0.2,25.8,3,37.2-1.7c4.9-2,8.4-5.4,11.4-9.6c2.6-3.7,4.7-9.1,9.5-10.3
				c-1.5-0.4-2.9-0.8-4.4-1.2c6.1,7.3,11.2,15.2,15.5,23.6c2.6,5.2,10.4,0.6,7.8-4.6c-4.7-9.1-10.3-17.6-16.9-25.4
				c-1-1.2-2.9-1.5-4.4-1.2c-10.5,2.6-11.5,14.4-19.9,19.3c-5.4,3.2-12.3,2.9-18.2,2.6c-7.1-0.3-14.3-0.7-21.5-0.8
				c-29.8-0.4-59.6,2.4-88.9,8C375.5,368.5,377.9,377.2,383.6,376.1L383.6,376.1z"/>
		</g>
		<g>
			<path d="M548.8,368.7c32.3-12.1,66.7-17.9,101.3-16.8c8.5,0.3,17.1,0.9,25.6,2.1c7.7,1,15.8,2.9,23.5,0.6
				c11-3.2,19.1-17.5,9.8-26.9c-4.1-4.1-10.5,2.2-6.4,6.4c4.3,4.4-1.5,10.5-5.8,11.8c-6.8,2-14.3-0.1-21.1-1
				c-14.5-1.9-29.2-2.6-43.9-2c-29.1,1.1-58,6.9-85.3,17.1C541,362,543.3,370.8,548.8,368.7L548.8,368.7z"/>
		</g>
		<g>
			<path d="M356.3,748c-7-16.8-14.7-34.9-12-53.5c1.2-8.2,4.5-16.8,10.8-22.5c6.6-5.9,14.9-6.4,20.3,1.4c4.8,6.9,7.1,16,7.9,24.3
				c0.4,4.5,0.4,9.1-0.2,13.5c-0.4,2.9-1.1,12.8-4.5,13.8c-3.2,0.9-6.6-4.9-7.9-7.1c-2-3.7-3.2-8-3.6-12.2c-0.9-8.4,1.3-16.6,6-23.7
				c3.2-4.8-4.6-9.4-7.8-4.6c-9.4,14.1-10.2,34.7,0.1,48.7c4.2,5.7,12.4,10.6,19.1,5.9c6.9-4.8,7.7-17.6,8.1-25.2
				c0.5-9.7-1.1-19.6-4.6-28.6c-2.9-7.5-7.2-15.3-14.9-18.6c-17.3-7.4-32,11.6-36.1,26.2c-6.2,22.1,2.3,44.2,10.7,64.4
				C349.8,755.7,358.5,753.4,356.3,748L356.3,748z"/>
		</g>
		<g>
			<path d="M348,458.5c19.8-2.7,38.9-8.8,56.7-17.8c5.2-2.6,0.6-10.4-4.6-7.8c-17.2,8.7-35.5,14.3-54.6,16.9
				C339.9,450.6,342.3,459.3,348,458.5L348,458.5z"/>
		</g>
		<g>
			<path d="M738.5,664c-33.8,13-69.3,20.7-105.5,22.7c-5.8,0.3-5.8,9.3,0,9c37-2,73.4-9.6,107.9-23C746.3,670.7,744,661.9,738.5,664
				L738.5,664z"/>
		</g>
		<g>
			<path d="M368,284c-15.4,1.2-28.5,11.1-35.9,24.4c-8.8,15.8-9.2,34.7-7.8,52.3c3,38.6,14.5,75.8,28.2,111.7
				c27.6,72.2,66.5,144.9,63.4,224.4c-0.4,10.9-1.7,21.7-4,32.3c-1.8,8.3-4.3,16.9-9.5,23.7c-4.9,6.4-12,10.5-20.2,8.7
				c-6.5-1.5-12.4-6-11.7-13.3c0.6-5.8-8.5-5.7-9,0c-1.4,13.5,12,22.3,24.2,22.8c15.3,0.5,25.6-12.5,30.8-25.5
				c6.8-17.1,8.4-37,8.6-55.2c0.2-19.7-2.2-39.5-6.2-58.8c-16.5-79.5-60.7-149.9-78.9-228.9c-5-21.7-9-45.1-6.7-67.4
				c2-18.9,13.4-40.7,34.6-42.4C373.8,292.7,373.8,283.6,368,284L368,284z"/>
		</g>
		<g>
			<path d="M376.9,668.4c11.3,1.3,22.3-0.7,32.7-5.4c5.3-2.4,0.7-10.2-4.6-7.8c-8.9,4.1-18.4,5.3-28.1,4.2
				C371.1,658.7,371.1,667.7,376.9,668.4L376.9,668.4z"/>
		</g>
		<g>
			<path d="M393.8,777c45.5,0.8,88.9-14.3,132.2-26c44.4-12.1,89.6-17.8,135.6-14.2c26.1,2,51.9,6.9,77,14.4c5.6,1.7,8-7.1,2.4-8.7
				c-44.1-13.1-90.5-18.2-136.5-14.8c-22.8,1.7-45.3,5.5-67.5,11.1c-22.3,5.6-44.2,12.5-66.4,18.3c-25.2,6.5-50.8,11.4-76.9,11
				C388,767.9,388,776.9,393.8,777L393.8,777z"/>
		</g>
		<g>
			<path d="M684.9,459.2c-8.7-35.9-7.6-73.2,2.5-108.6c1.6-5.6-7.1-8-8.7-2.4c-10.5,37-11.5,76-2.5,113.5
				C677.5,467.2,686.3,464.9,684.9,459.2L684.9,459.2z"/>
		</g>
		<g>
			<path d="M741.9,743c13.1-64.1-7.8-127.7-28.6-187.7c-6.2-17.9-12.5-35.8-17.9-54c-1.7-5.6-10.4-3.2-8.7,2.4
				c22.7,76.4,63.2,155,46.5,236.9C732.1,746.3,740.8,748.8,741.9,743L741.9,743z"/>
		</g>
		<g>
			<path d="M679,465.6c-12.5,10.1-25,20.2-37.5,30.3c-3.6,2.9,0.3,8.9,4.4,7.5c15-4.7,30.5-3.9,45,2.2c5.3,2.2,7.7-6.5,2.4-8.7
				c-15.8-6.6-33.4-7.4-49.8-2.2c1.5,2.5,2.9,5,4.4,7.5c12.5-10.1,25-20.2,37.5-30.3C689.9,468.3,683.5,462,679,465.6L679,465.6z"/>
		</g>
		<g>
			<path d="M335.2,353.1c0.7-11.8,3.9-25.1,14-32.5c9.4-6.9,21.6-6.3,28.9,3.2c6.9,8.9,11,24,5.7,34.5c-2.4,4.8-7.5,9.2-13.1,9.1
				c-5.1-0.1-10.5-5-9.6-10.3c1-5.7-7.8-8.1-8.7-2.4c-2,12,8.3,22.9,20.5,21.6c13.8-1.5,22-14.8,22.3-27.7
				c0.3-12.7-5.1-27.7-15.2-35.8c-10.1-8.1-24.2-7.4-34.7-0.4c-13.5,9-18.2,25.3-19.1,40.7C325.8,358.9,334.9,358.9,335.2,353.1
				L335.2,353.1z"/>
		</g>
		<g>
			<path d="M354.7,352c12.8,0.8,25.6-0.9,37.7-5c5.5-1.9,3.1-10.6-2.4-8.7c-11.5,3.9-23.2,5.5-35.3,4.7
				C348.9,342.5,348.9,351.6,354.7,352L354.7,352z"/>
		</g>
	</g>
</g>
</svg>
