<?xml version="1.0" encoding="utf-8"?>
<!-- Generator: Adobe Illustrator 23.0.2, SVG Export Plug-In . SVG Version: 6.00 Build 0)  -->
<svg version="1.1" id="Layer_1" xmlns="http://www.w3.org/2000/svg" xmlns:xlink="http://www.w3.org/1999/xlink" x="0px" y="0px"
	 viewBox="0 0 1000 1000" style="enable-background:new 0 0 1000 1000;" xml:space="preserve">
<style type="text/css">
	.st0{opacity:0.7;fill:#D17D24;}
	.st1{opacity:0.7;fill:#989C9A;}
</style>
<g>
	<path class="st0" d="M316.1,573.7c122.9-3.3,248.3-11.8,369.8,2.2c-3.6-37.3-2.1-72.5,1.1-109.8c-6-0.6-17-3.8-22-7.2
		c2.1-4.7,6-8.5,10.7-10.5c2.5-1.1,5.3-1.7,7-3.7c1.6-1.8,2.1-4.4,2.4-6.8c4.1-27.5,5-55.5,2.7-83.1c-121.8-24.6-247.7-11-371.2,2.8
		c-4,18.9-4.5,38.4-1.6,57.4c8.8,0.4,17.3,4.1,24,9.8c5.8,5,2.4,14.5-5.2,14.9c-17.1,0.9-20.5-1.7-14.1,44.1
		C320.8,491,315.2,573.7,316.1,573.7z"/>
	<path class="st0" d="M485.1,688c-0.5,13.9-1.5,27.8-1.6,41.7c-0.3,31,3.7,61.8,7.6,92.5c11,0.1,22,0.1,33.1,0.2
		c6.7-81,4.4-162.5,2-243.8c-29.1-1.8-46.1-9.6-45.5,23.1C481.3,630.6,486,658.9,485.1,688z"/>
	<g>
		<g>
			<path d="M311.2,355c99-9.2,199-18.5,298.3-7.9c28,3,55.7,7.7,83.1,13.9c5.2,1.2,7.4-6.8,2.2-8c-98.4-22.4-199.1-21.4-299.2-13.8
				c-28.2,2.2-56.3,4.8-84.4,7.4C306,347.2,306,355.5,311.2,355L311.2,355z"/>
		</g>
		<g>
			<path d="M334.6,583c92.5-3.9,185.1-5,277.7-3.3c26.2,0.5,52.3,1.2,78.5,2.1c5.3,0.2,5.3-8.1,0-8.2c-92.5-3.3-185.1-3.8-277.7-1.5
				c-26.2,0.7-52.4,1.5-78.5,2.7C329.3,575,329.3,583.3,334.6,583L334.6,583z"/>
		</g>
		<g>
			<path d="M690.4,363.9c-0.1,28.7-0.9,57.4-2.4,86.1c-0.3,5.3,8,5.3,8.2,0c1.5-28.7,2.3-57.4,2.4-86.1
				C698.7,358.6,690.5,358.6,690.4,363.9L690.4,363.9z"/>
		</g>
		<g>
			<path d="M689.4,447c-6.7,0.9-13,2.9-19,5.8c-4.8,2.3-0.6,9.4,4.2,7.1c5.4-2.6,11.1-4.2,17.1-5C696.9,454.2,694.6,446.3,689.4,447
				L689.4,447z"/>
		</g>
		<g>
			<path d="M670.3,462.6c7.4,2.2,14.1,5.6,20.4,10c4.4,3,8.5-4.1,4.2-7.1c-6.9-4.8-14.4-8.4-22.4-10.8
				C667.4,453.1,665.2,461,670.3,462.6L670.3,462.6z"/>
		</g>
		<g>
			<path d="M689.5,468.1c-1.7,34-2.1,68-1.4,102c0.1,5.3,8.4,5.3,8.2,0c-0.7-34-0.2-68,1.4-102C698,462.8,689.8,462.8,689.5,468.1
				L689.5,468.1z"/>
		</g>
		<g>
			<path d="M311.9,360.4c0.1,0,0.3,0,0.4,0c1.7,0,3.6-1.2,4-3c0.9-4.8-4.4-9-8.2-4.7c-2,2.3-1.4,5.5-1.3,8.3
				c0.2,3.8,0.4,7.7,0.5,11.5c0.5,16.2-0.1,32.5-1.6,48.6c-0.2,2.3,2.1,4.1,4.1,4.1c10,0.3,19.2,3.6,27.3,9.6c4.3,3.2,8.4-4,4.2-7.1
				c-9.2-6.8-20.1-10.4-31.5-10.7c1.4,1.4,2.8,2.8,4.1,4.1c1-10.9,1.6-21.8,1.7-32.7c0.1-5.3,0-10.6-0.1-15.9
				c-0.1-2.6-0.2-5.3-0.3-8c-0.1-1.2-0.1-2.4-0.2-3.5c0-0.9-0.1-1.8-0.2-2.6c0.1-1,0-1.2-0.3-0.4c-1.3,0.4-2.7,0.7-4,1.1
				c0.2,0,0.4,0.1,0.5,0.1c-1-1-1.9-1.9-2.9-2.9c0-0.4,0.1-0.7,0.1-1.1c1.3-1,2.6-2,4-3c-0.1,0-0.3,0-0.4,0
				C306.6,352.3,306.5,360.5,311.9,360.4L311.9,360.4z"/>
		</g>
		<g>
			<path d="M338.7,430.5c-9.3-0.1-18.6,0.7-27.8,2.1c-5.2,0.8-3,8.8,2.2,8c8.5-1.4,17-1.9,25.6-1.8C344,438.8,344,430.6,338.7,430.5
				L338.7,430.5z"/>
		</g>
		<g>
			<path d="M305.5,438.4c2.9,31.1,3.8,62.3,2.6,93.5c-0.2,5.3,8,5.3,8.2,0c1.1-31.2,0.3-62.4-2.6-93.5
				C313.3,433.1,305,433.1,305.5,438.4L305.5,438.4z"/>
		</g>
		<g>
			<path d="M312.1,540.1c12.2,2.8,24.7,3.6,37.2,2.2c5.2-0.6,5.3-8.8,0-8.2c-11.8,1.3-23.5,0.8-35-1.9
				C309.1,530.9,306.9,538.9,312.1,540.1L312.1,540.1z"/>
		</g>
		<g>
			<path d="M307.4,529.8c-0.4,9.3-0.7,18.6-1.1,27.9c-0.3,8.6-0.7,17.3,2.4,25.5c1.8,4.9,9.8,2.8,8-2.2c-3-8.1-2.4-16.6-2-25.1
				c0.4-8.7,0.7-17.5,1-26.2C315.8,524.5,307.6,524.5,307.4,529.8L307.4,529.8z"/>
		</g>
		<g>
			<path d="M313.1,581c9,1.1,18,0.1,26.5-2.9c5-1.7,2.8-9.7-2.2-8c-8,2.8-16,3.6-24.3,2.6C307.9,572.1,307.9,580.3,313.1,581
				L313.1,581z"/>
		</g>
		<g>
			<path d="M367.4,388.1c14.5-1,29-1.4,43.6-0.9c5.3,0.2,5.3-8.1,0-8.2c-14.5-0.5-29.1-0.1-43.6,0.9
				C362.1,380.3,362.1,388.5,367.4,388.1L367.4,388.1z"/>
		</g>
		<g>
			<path d="M655.5,550.7c11.7-0.4,23.4-0.9,35.1-1.3c5.3-0.2,5.3-8.5,0-8.2c-11.7,0.4-23.4,0.9-35.1,1.3
				C650.2,542.6,650.1,550.8,655.5,550.7L655.5,550.7z"/>
		</g>
	</g>
	<g>
		<path class="st0" d="M477.1,325.1c0.2-5.4,0.3-10.8,0.5-16.2c14.6-5.5,30.4-7.9,46-7.1c-0.1,9,0.8,21.3,2.7,30.1
			c-18.5,0.2-37-2.8-55.5-2.5"/>
		<g>
			<path d="M467.5,291c-1.3,14.9-1.6,29.8-0.8,44.7c0.3,5.3,8.5,5.3,8.2,0c-0.8-14.9-0.6-29.9,0.8-44.7
				C476.2,285.7,468,285.7,467.5,291L467.5,291z"/>
		</g>
		<g>
			<path d="M469.6,305.4c21.6-4.9,44-5.4,65.8-1.3c5.2,1,7.4-7,2.2-8c-23.3-4.4-47-4-70.2,1.3C462.2,298.6,464.4,306.6,469.6,305.4
				L469.6,305.4z"/>
		</g>
		<g>
			<path d="M526.1,293.2c-0.6,16.1,0.8,32.2,4,47.9c1.1,5.2,9,3,8-2.2c-3.1-15.1-4.3-30.4-3.7-45.8
				C534.6,287.9,526.3,287.9,526.1,293.2L526.1,293.2z"/>
		</g>
		<g>
			<path d="M470.3,573.8c1.6,62.8,3.1,125.7,4.7,188.6c0.5,17.9,0.9,35.8,1.3,53.7c0.1,5.3,8.4,5.3,8.2,0
				c-1.6-62.8-3.1-125.7-4.7-188.6c-0.5-17.9-0.9-35.8-1.3-53.7C478.4,568.5,470.2,568.5,470.3,573.8L470.3,573.8z"/>
		</g>
		<g>
			<path d="M479.2,834.1c18.2,1,36.4-1.2,53.9-6.5c5.1-1.5,2.9-9.5-2.2-8c-16.8,5.1-34.1,7.2-51.7,6.2
				C474,825.6,474,833.8,479.2,834.1L479.2,834.1z"/>
		</g>
		<g>
			<path d="M531.3,582.3c0,77.2,0,154.5-0.1,231.7c0,5.3,8.2,5.3,8.2,0c0-77.2,0-154.5,0.1-231.7C539.5,577,531.3,577,531.3,582.3
				L531.3,582.3z"/>
		</g>
	</g>
	<path class="st1" d="M517.6,531.2c-7-1.5-15,0-19.8,5.2c-4.8,5.3-5.2,14.6,0.4,19.2c5.3,4.4,13.3,3,19.4-0.2
		c5.3-2.8,10.4-7.8,10.2-13.8c-0.3-7.6-8.4-12.3-15.8-14.2"/>
	<g>
		<path d="M495.2,538.4c-9.8,5.9-4.8,19.6,4.6,22.7c10.4,3.5,24.7-0.6,29.1-11.1c3.8-9,0.8-20.8-8.9-24.5
			c-9.4-3.5-20.8,1.6-23.8,11.2c-1,3.4,4.2,4.8,5.3,1.5c1.9-6.1,8.9-9.4,15-8c6.9,1.5,9.6,8.9,8.1,15.3c-1.9,8-9.8,11.2-17.5,11.2
			c-4,0-8.7-1-10.8-4.8c-1.6-2.9-1.4-7,1.6-8.8C501,541.3,498.2,536.6,495.2,538.4L495.2,538.4z"/>
	</g>
	<g>
		<path d="M515.3,524.5c-3.3,7.1-6.7,14.2-10,21.2c-1.5,3.2,3.2,6,4.8,2.8c3.3-7.1,6.7-14.2,10-21.2
			C521.5,524,516.8,521.3,515.3,524.5L515.3,524.5z"/>
	</g>
</g>
</svg>
