<svg version="1.1" id="Layer_1" xmlns="http://www.w3.org/2000/svg" x="0" y="0" viewBox="0 0 1000 1000" xml:space="preserve"><style>.st0{opacity:.7;fill:#d17d24}</style><path class="st0" d="M316.1 573.7c122.9-3.3 248.3-11.8 369.8 2.2-3.6-37.3-2.1-72.5 1.1-109.8-6-.6-17-3.8-22-7.2 2.1-4.7 6-8.5 10.7-10.5 2.5-1.1 5.3-1.7 7-3.7 1.6-1.8 2.1-4.4 2.4-6.8 4.1-27.5 5-55.5 2.7-83.1-121.8-24.6-247.7-11-371.2 2.8-4 18.9-4.5 38.4-1.6 57.4 8.8.4 17.3 4.1 24 9.8 5.8 5 2.4 14.5-5.2 14.9-17.1.9-20.5-1.7-14.1 44.1 1.1 7.2-4.5 89.9-3.6 89.9z"/><path class="st0" d="M485.1 688c-.5 13.9-1.5 27.8-1.6 41.7-.3 31 3.7 61.8 7.6 92.5 11 .1 22 .1 33.1.2 6.7-81 4.4-162.5 2-243.8-29.1-1.8-46.1-9.6-45.5 23.1.6 28.9 5.3 57.2 4.4 86.3z"/><path d="M311.2 355c99-9.2 199-18.5 298.3-7.9 28 3 55.7 7.7 83.1 13.9 5.2 1.2 7.4-6.8 2.2-8-98.4-22.4-199.1-21.4-299.2-13.8-28.2 2.2-56.3 4.8-84.4 7.4-5.2.6-5.2 8.9 0 8.4zm23.4 228c92.5-3.9 185.1-5 277.7-3.3 26.2.5 52.3 1.2 78.5 2.1 5.3.2 5.3-8.1 0-8.2-92.5-3.3-185.1-3.8-277.7-1.5-26.2.7-52.4 1.5-78.5 2.7-5.3.2-5.3 8.5 0 8.2z"/><path d="M690.4 363.9c-.1 28.7-.9 57.4-2.4 86.1-.3 5.3 8 5.3 8.2 0 1.5-28.7 2.3-57.4 2.4-86.1.1-5.3-8.1-5.3-8.2 0z"/><path d="M689.4 447c-6.7.9-13 2.9-19 5.8-4.8 2.3-.6 9.4 4.2 7.1 5.4-2.6 11.1-4.2 17.1-5 5.2-.7 2.9-8.6-2.3-7.9z"/><path d="M670.3 462.6c7.4 2.2 14.1 5.6 20.4 10 4.4 3 8.5-4.1 4.2-7.1-6.9-4.8-14.4-8.4-22.4-10.8-5.1-1.6-7.3 6.3-2.2 7.9z"/><path d="M689.5 468.1c-1.7 34-2.1 68-1.4 102 .1 5.3 8.4 5.3 8.2 0-.7-34-.2-68 1.4-102 .3-5.3-7.9-5.3-8.2 0zM311.9 360.4h.4c1.7 0 3.6-1.2 4-3 .9-4.8-4.4-9-8.2-4.7-2 2.3-1.4 5.5-1.3 8.3.2 3.8.4 7.7.5 11.5.5 16.2-.1 32.5-1.6 48.6-.2 2.3 2.1 4.1 4.1 4.1 10 .3 19.2 3.6 27.3 9.6 4.3 3.2 8.4-4 4.2-7.1-9.2-6.8-20.1-10.4-31.5-10.7l4.1 4.1c1-10.9 1.6-21.8 1.7-32.7.1-5.3 0-10.6-.1-15.9-.1-2.6-.2-5.3-.3-8-.1-1.2-.1-2.4-.2-3.5 0-.9-.1-1.8-.2-2.6.1-1 0-1.2-.3-.4-1.3.4-2.7.7-4 1.1.2 0 .4.1.5.1l-2.9-2.9c0-.4.1-.7.1-1.1 1.3-1 2.6-2 4-3h-.4c-5.2.1-5.3 8.3.1 8.2z"/><path d="M338.7 430.5c-9.3-.1-18.6.7-27.8 2.1-5.2.8-3 8.8 2.2 8 8.5-1.4 17-1.9 25.6-1.8 5.3 0 5.3-8.2 0-8.3z"/><path d="M305.5 438.4c2.9 31.1 3.8 62.3 2.6 93.5-.2 5.3 8 5.3 8.2 0 1.1-31.2.3-62.4-2.6-93.5-.4-5.3-8.7-5.3-8.2 0z"/><path d="M312.1 540.1c12.2 2.8 24.7 3.6 37.2 2.2 5.2-.6 5.3-8.8 0-8.2-11.8 1.3-23.5.8-35-1.9-5.2-1.3-7.4 6.7-2.2 7.9z"/><path d="M307.4 529.8c-.4 9.3-.7 18.6-1.1 27.9-.3 8.6-.7 17.3 2.4 25.5 1.8 4.9 9.8 2.8 8-2.2-3-8.1-2.4-16.6-2-25.1.4-8.7.7-17.5 1-26.2.1-5.2-8.1-5.2-8.3.1z"/><path d="M313.1 581c9 1.1 18 .1 26.5-2.9 5-1.7 2.8-9.7-2.2-8-8 2.8-16 3.6-24.3 2.6-5.2-.6-5.2 7.6 0 8.3zm54.3-192.9c14.5-1 29-1.4 43.6-.9 5.3.2 5.3-8.1 0-8.2-14.5-.5-29.1-.1-43.6.9-5.3.4-5.3 8.6 0 8.2zm288.1 162.6c11.7-.4 23.4-.9 35.1-1.3 5.3-.2 5.3-8.5 0-8.2-11.7.4-23.4.9-35.1 1.3-5.3.1-5.4 8.3 0 8.2z"/><path class="st0" d="M477.1 325.1c.2-5.4.3-10.8.5-16.2 14.6-5.5 30.4-7.9 46-7.1-.1 9 .8 21.3 2.7 30.1-18.5.2-37-2.8-55.5-2.5"/><path d="M467.5 291c-1.3 14.9-1.6 29.8-.8 44.7.3 5.3 8.5 5.3 8.2 0-.8-14.9-.6-29.9.8-44.7.5-5.3-7.7-5.3-8.2 0z"/><path d="M469.6 305.4c21.6-4.9 44-5.4 65.8-1.3 5.2 1 7.4-7 2.2-8-23.3-4.4-47-4-70.2 1.3-5.2 1.2-3 9.2 2.2 8z"/><path d="M526.1 293.2c-.6 16.1.8 32.2 4 47.9 1.1 5.2 9 3 8-2.2-3.1-15.1-4.3-30.4-3.7-45.8.2-5.2-8.1-5.2-8.3.1zm-55.8 280.6c1.6 62.8 3.1 125.7 4.7 188.6.5 17.9.9 35.8 1.3 53.7.1 5.3 8.4 5.3 8.2 0-1.6-62.8-3.1-125.7-4.7-188.6-.5-17.9-.9-35.8-1.3-53.7-.1-5.3-8.3-5.3-8.2 0zm8.9 260.3c18.2 1 36.4-1.2 53.9-6.5 5.1-1.5 2.9-9.5-2.2-8-16.8 5.1-34.1 7.2-51.7 6.2-5.2-.2-5.2 8 0 8.3zm52.1-251.8c0 77.2 0 154.5-.1 231.7 0 5.3 8.2 5.3 8.2 0 0-77.2 0-154.5.1-231.7 0-5.3-8.2-5.3-8.2 0z"/><path d="M517.6 531.2c-7-1.5-15 0-19.8 5.2-4.8 5.3-5.2 14.6.4 19.2 5.3 4.4 13.3 3 19.4-.2 5.3-2.8 10.4-7.8 10.2-13.8-.3-7.6-8.4-12.3-15.8-14.2" opacity=".7" fill="#989c9a"/><path d="M495.2 538.4c-9.8 5.9-4.8 19.6 4.6 22.7 10.4 3.5 24.7-.6 29.1-11.1 3.8-9 .8-20.8-8.9-24.5-9.4-3.5-20.8 1.6-23.8 11.2-1 3.4 4.2 4.8 5.3 1.5 1.9-6.1 8.9-9.4 15-8 6.9 1.5 9.6 8.9 8.1 15.3-1.9 8-9.8 11.2-17.5 11.2-4 0-8.7-1-10.8-4.8-1.6-2.9-1.4-7 1.6-8.8 3.1-1.8.3-6.5-2.7-4.7z"/><path d="M515.3 524.5c-3.3 7.1-6.7 14.2-10 21.2-1.5 3.2 3.2 6 4.8 2.8 3.3-7.1 6.7-14.2 10-21.2 1.4-3.3-3.3-6-4.8-2.8z"/></svg>