<?xml version="1.0" encoding="utf-8"?>
<!-- Generator: Adobe Illustrator 23.0.2, SVG Export Plug-In . SVG Version: 6.00 Build 0)  -->
<svg version="1.1" id="Layer_1" xmlns="http://www.w3.org/2000/svg" xmlns:xlink="http://www.w3.org/1999/xlink" x="0px" y="0px"
	 viewBox="0 0 1000 1000" style="enable-background:new 0 0 1000 1000;" xml:space="preserve">
<style type="text/css">
	.st0{opacity:0.7;fill:#FFE100;}
	.st1{opacity:0.7;fill:#52EDFF;}
	.st2{opacity:0.7;fill:#E394FF;}
</style>
<g>
	<path class="st0" d="M449.3,347c2.5,14.9-6.1,30.8-19.9,37c11.8,12,18.6,28.9,18.4,45.8c0.1-15.9,13.4-30.8,29.3-32.5
		c-11.6,2.7-23.5-6.5-27.2-17.8c-3.8-11.3-1.2-23.7,2.8-34.9"/>
	<path class="st1" d="M526.2,490.8c1.3,6.8,10.1,8.6,17,7.9c6.8-0.7,14.9-2,19.6,3c2.1,2.2,3,5.2,3.9,8
		c5.9,19.2,11.8,38.3,17.8,57.5c2.9-14.4,5.9-28.9,8.8-43.3c1-5.2,2.2-10.5,4.9-15c5.5-9.1,17.7-13.6,27.8-10
		c-3.7-11.9-16.7-17.8-25.8-26.2c-12.3-11.3-18-27.9-20-44.1C582.5,465.3,554.2,474.3,526.2,490.8z"/>
	<path class="st2" d="M380.3,632.3c1.6,12.9-0.1,27,7.2,37.7c-1.2-11-2.4-22.5,0.8-33.1c3.2-10.7,11.1-18.5,21.8-21.3
		c-12.8-4.1-21.4-15-22.5-28.4c0.5,2.5,0.6,5.7,1.1,8c-10.5,1.7-21.9,4.7-30.8,11C371.2,608.5,378.7,619.5,380.3,632.3z"/>
	<g>
		<path d="M434.9,320.3c3.4,19.4,5.1,44.9-14,57.1c-11.1,7-32.7-0.6-38.1,14.8c-0.9,2.6,0.6,6,3.6,6.2c9.7,0.6,19.4,1.2,29,1.8
			c4.5,0.3,9,0.6,13.5,0.9c1.7,0.1,5.6-0.3,7,0.6c1.9,1.3,1.7,4.4,2,6.4c2.7,19,5.4,38,8,56.9c0.8,5.7,9.7,4.4,8.9-1.4
			c-1.5-10.9-3.1-21.9-4.6-32.8c-0.8-5.5-1.5-10.9-2.3-16.4c-0.7-4.9-0.7-10.8-2.7-15.3c-3.8-8.7-16.3-7-24-7.5
			c-11.3-0.7-22.6-1.4-33.9-2.1c1.2,2.1,2.4,4.1,3.6,6.2c2.3-6.6,13.7-5.1,19.2-5.6c8.7-0.8,16.4-4.6,22.4-10.9
			c15.7-16.1,14.6-39.6,11.1-60.2C442.8,313.2,433.9,314.6,434.9,320.3L434.9,320.3z"/>
	</g>
	<g>
		<path d="M435.4,312.8c7,25.3,13.9,50.5,20.9,75.8c0.8,3,3.2,4.4,6.2,3.5c13.9-4.4,28.6-2.7,41.4,4c-0.4-2.6-0.7-5.1-1.1-7.7
			c-10.6,9-24.2,12.9-37.9,10.8c-1.9-0.3-4,1-4.7,2.8c-8.2,22.5-12.8,46.1-13.3,70.1c-0.1,5.7,8.8,6.9,8.9,1.1
			c0.5-23.2,4.8-46,12.7-67.8c-1.6,0.9-3.1,1.9-4.7,2.8c16,2.4,32.2-2.2,44.6-12.6c2.8-2.3,1.9-6.1-1.1-7.7c-15-7.9-32.3-9-48.4-3.9
			c2.1,1.1,4.2,2.3,6.2,3.5c-7-25.3-13.9-50.5-20.9-75.8C442.8,305.9,433.9,307.2,435.4,312.8L435.4,312.8z"/>
	</g>
	<g>
		<path d="M569,377.6c0.6,15.2,1.1,30.4,1.7,45.6c0.3,7.3,0.5,14.5,0.8,21.8c0.1,3.7,0.8,7.9,0.2,11.6c-0.7,4-3,5.1-6.6,6.4
			c-23.9,8.7-45.7,21.6-64.1,39.1c-3.1,3-1.3,8.7,3.5,8c13.4-2.1,26.9-3.3,40.5-3.4c5.3,0,13.6-1.2,18.2,2.2
			c4.5,3.3,5.1,12.1,6.3,17c6.8,27.3,13.7,54.5,20.5,81.8c1.2,4.6,8.4,5.3,8.9-0.2c2.3-26.3,4.4-52.7,7-79c0.5-4.8,1-10.5,4.4-14.3
			c3.7-4.1,10-4.9,15.1-6.1c13.2-3,26.5-6.1,39.8-9.1c3.8-0.9,5.7-7.3,1-8.6c-13.5-3.7-26.7-8.2-39.7-13.5
			c-5.5-2.2-11.5-4.4-15.9-8.5c-4.9-4.6-6.9-11.7-9-17.9c-9-26.2-14.8-53.5-17.6-81.1c-0.6-5.8-9.5-4.4-8.9,1.4
			c2.9,29.6,9.4,58.8,19.4,86.9c2.1,6,4.5,12,9.1,16.5c4.3,4.3,9.7,7,15.2,9.3c14.2,6.1,29,11.2,43.9,15.3c0.3-2.9,0.7-5.8,1-8.6
			c-14.5,3.3-29,6.5-43.4,10c-11.5,2.7-19.6,7.9-22.4,20c-1.4,6.1-1.6,12.6-2.1,18.8c-0.6,7.3-1.3,14.6-1.9,21.9
			c-1.3,15.2-2.7,30.5-4,45.7c3,0,6-0.1,8.9-0.2c-7.7-30.8-14.8-62-23.2-92.6c-1.5-5.4-3.7-10.3-8.8-13.1c-5.4-3-12-2.9-18-2.9
			c-15.3,0-30.6,1.1-45.7,3.4c1.1,2.7,2.3,5.3,3.5,8c10.2-9.8,21.6-18.4,33.9-25.3c5.8-3.3,11.9-6.2,18.1-8.8c5.7-2.4,13-3.7,17.6-8
			c5-4.6,4.6-11.4,4.4-17.6c-0.3-7.9-0.6-15.9-0.9-23.8c-0.6-16.5-1.2-33.1-1.8-49.6C577.6,370.5,568.7,371.9,569,377.6L569,377.6z"
			/>
	</g>
	<g>
		<path d="M379.1,514.9c1.6,24.7,1.2,49.5-1.2,74.1c0.9-1.2,1.8-2.4,2.7-3.6c-18.4,6.4-36.9,12.8-55.3,19.2
			c-4.5,1.6-2.8,7.9,1.3,8.6c12.6,2.2,25.2,4.3,37.8,6.5c2.4,0.4,5.9,0.3,7.2,2.8c1.3,2.4,1,6.3,1.4,9c0.9,6.5,1.7,13,2.6,19.5
			c3.4,25.3,6.7,50.6,10.1,76c0.6,4.9,8.8,5,8.9-0.2c0.3-23.7,1.9-47.4,4.8-70.9c0.7-5.8,1.5-11.6,2.4-17.4c0.4-2.5,0.4-6.1,2.4-7.8
			c1.5-1.2,3.9-1.4,5.7-1.5c11.1-1,22.6-0.5,33.8-0.6c5-0.1,4.9-8.9-0.1-8.9c-9.9-0.1-19.5-2.7-27.6-8.3c-4.8-3.3-7.2-6.4-8.5-12.3
			c-1.2-5.5-2.4-11-3.6-16.5c-2.3-10.7-4.6-21.4-6.9-32.1c-1.2-5.5-2.4-11-3.6-16.5c-1-4.5-3.3-10.6,0-14.5c3.8-4.4-3.4-9.8-7.2-5.4
			c-7.4,8.7-1.3,23.2,0.8,32.9c2.9,13.6,5.9,27.2,8.8,40.8c1.3,5.9,2.2,12.1,4,17.9c1.7,5.3,5.5,9.1,10,12.3
			c9.5,6.8,21,10.5,32.7,10.6c0-3-0.1-6-0.1-8.9c-6.7,0.1-13.4,0.2-20,0.3c-5.6,0.1-11.5-0.4-17,0.8c-12,2.6-12.1,14.3-13.5,24.4
			c-3.7,26.7-5.7,53.6-6.1,80.5c3,0,6-0.1,8.9-0.2c-3.8-28.6-7.6-57.1-11.4-85.7c-0.9-6.4-1-13.4-2.9-19.6
			c-1.6-5.2-5.4-7.7-10.6-8.8c-13.9-3-28.1-4.9-42.1-7.3c0.4,2.9,0.9,5.7,1.3,8.6c18.4-6.4,36.9-12.8,55.3-19.2
			c1.4-0.5,2.5-2.1,2.7-3.6c2.5-25.4,2.8-51,1.1-76.5C387.6,507.8,378.7,509.1,379.1,514.9L379.1,514.9z"/>
	</g>
	<g>
		<path d="M492.3,575.8c-5.2,9.9,8.5,21.4,17.3,14.6c4.1-3.1,4.7-8.8,3-13.3c-1.9-4.9-6.2-7.7-11.3-7.5c-2.4,0.1-4.1,2.9-3.8,5.1
			c0.4,2.6,2.7,3.9,5.1,3.8c-0.5,0,0.7,0.3,0.1,0.1c-0.5-0.2,0.5,0.4,0.7,0.5c0.2,0.2,0.7,1,0.9,1.6c0.1,0.4,0.2,1.4,0.1,1.8
			c-0.1,0.5-0.2,0.7-0.5,0.9c0.2-0.2-0.8,0.2-0.4,0.2c0.5-0.1-0.8-0.1-0.9-0.1c0,0-1-0.5-1.2-0.8c-1.5-1.3-1.6-2.2-0.9-3.5
			c1.1-2.2-0.4-5-2.5-5.9C495.7,572.4,493.5,573.7,492.3,575.8L492.3,575.8z"/>
	</g>
	<g>
		<path d="M301.9,477.9c-5.6,3-8.9,9.5-6.7,15.8c2.1,5.9,8.5,9.5,14.6,8.3c2.1-0.4,3.3-1.9,3.8-3.9c1-3.9-0.2-8-2.6-11.1
			c-3.6-4.6-10.6,1-7.1,5.6c1.1,1.5,1.2,2.7,0.8,4.5c1.3-1.3,2.5-2.6,3.8-3.9c-4.2,0.8-7.1-4.7-2.9-7
			C310.6,483.5,307.1,475.2,301.9,477.9L301.9,477.9z"/>
	</g>
	<g>
		<path d="M537,325.7c-0.1,0.9-0.2,1.7-0.3,2.6c-0.1,1.1,0.2,2.4,0.9,3.3c0.7,0.9,1.9,1.6,3,1.7c2.4,0.2,4.7-1.4,5-3.9
			c0.1-0.9,0.2-1.7,0.3-2.6c0.1-1.1-0.2-2.4-0.9-3.3c-0.7-0.9-1.9-1.6-3-1.7C539.6,321.6,537.3,323.2,537,325.7L537,325.7z"/>
	</g>
	<g>
		<path d="M649.6,329.8c8,12.6-2.4,30.9-16.7,32.1c-5.8,0.5-4.4,9.4,1.4,8.9c21.7-1.9,33.7-28.7,22.4-46.6
			C653.6,319.3,646.5,325,649.6,329.8L649.6,329.8z"/>
	</g>
	<g>
		<path d="M648.2,327.6c-9.6,23.4,10.1,48.3,35.1,44.1c5.7-0.9,4.4-9.9-1.4-8.9c-18.3,3-32.4-14.7-25.4-31.8
			C658.7,325.6,650.4,322.2,648.2,327.6L648.2,327.6z"/>
	</g>
	<g>
		<path d="M646.8,342.7c1.1,16.6,2.2,33.2,3.3,49.9c0.4,5.8,9.3,4.4,8.9-1.4c-1.1-16.6-2.2-33.2-3.3-49.9
			C655.3,335.5,646.5,336.9,646.8,342.7L646.8,342.7z"/>
	</g>
</g>
</svg>
