<svg xmlns="http://www.w3.org/2000/svg" width="1000" height="1000"><path d="M449.3 347c2.5 14.9-6.1 30.8-19.9 37 11.8 12 18.6 28.9 18.4 45.8.1-15.9 13.4-30.8 29.3-32.5-11.6 2.7-23.5-6.5-27.2-17.8-3.8-11.3-1.2-23.7 2.8-34.9" opacity=".7" fill="#ffe100"/><path d="M526.2 490.8c1.3 6.8 10.1 8.6 17 7.9 6.8-.7 14.9-2 19.6 3 2.1 2.2 3 5.2 3.9 8 5.9 19.2 11.8 38.3 17.8 57.5 2.9-14.4 5.9-28.9 8.8-43.3 1-5.2 2.2-10.5 4.9-15 5.5-9.1 17.7-13.6 27.8-10-3.7-11.9-16.7-17.8-25.8-26.2-12.3-11.3-18-27.9-20-44.1 2.3 36.7-26 45.7-54 62.2z" opacity=".7" fill="#52edff"/><path d="M380.3 632.3c1.6 12.9-.1 27 7.2 37.7-1.2-11-2.4-22.5.8-33.1 3.2-10.7 11.1-18.5 21.8-21.3-12.8-4.1-21.4-15-22.5-28.4.5 2.5.6 5.7 1.1 8-10.5 1.7-21.9 4.7-30.8 11 13.3 2.3 20.8 13.3 22.4 26.1z" opacity=".7" fill="#e394ff"/><path d="M434.9 320.3c3.4 19.4 5.1 44.9-14 57.1-11.1 7-32.7-.6-38.1 14.8-.9 2.6.6 6 3.6 6.2 9.7.6 19.4 1.2 29 1.8l13.5.9c1.7.1 5.6-.3 7 .6 1.9 1.3 1.7 4.4 2 6.4 2.7 19 5.4 38 8 56.9.8 5.7 9.7 4.4 8.9-1.4-1.5-10.9-3.1-21.9-4.6-32.8-.8-5.5-1.5-10.9-2.3-16.4-.7-4.9-.7-10.8-2.7-15.3-3.8-8.7-16.3-7-24-7.5l-33.9-2.1c1.2 2.1 2.4 4.1 3.6 6.2 2.3-6.6 13.7-5.1 19.2-5.6 8.7-.8 16.4-4.6 22.4-10.9 15.7-16.1 14.6-39.6 11.1-60.2-.8-5.8-9.7-4.4-8.7 1.3z"/><path d="M435.4 312.8c7 25.3 13.9 50.5 20.9 75.8.8 3 3.2 4.4 6.2 3.5 13.9-4.4 28.6-2.7 41.4 4-.4-2.6-.7-5.1-1.1-7.7-10.6 9-24.2 12.9-37.9 10.8-1.9-.3-4 1-4.7 2.8-8.2 22.5-12.8 46.1-13.3 70.1-.1 5.7 8.8 6.9 8.9 1.1.5-23.2 4.8-46 12.7-67.8-1.6.9-3.1 1.9-4.7 2.8 16 2.4 32.2-2.2 44.6-12.6 2.8-2.3 1.9-6.1-1.1-7.7-15-7.9-32.3-9-48.4-3.9 2.1 1.1 4.2 2.3 6.2 3.5-7-25.3-13.9-50.5-20.9-75.8-1.4-5.8-10.3-4.5-8.8 1.1zM569 377.6c.6 15.2 1.1 30.4 1.7 45.6.3 7.3.5 14.5.8 21.8.1 3.7.8 7.9.2 11.6-.7 4-3 5.1-6.6 6.4-23.9 8.7-45.7 21.6-64.1 39.1-3.1 3-1.3 8.7 3.5 8 13.4-2.1 26.9-3.3 40.5-3.4 5.3 0 13.6-1.2 18.2 2.2 4.5 3.3 5.1 12.1 6.3 17 6.8 27.3 13.7 54.5 20.5 81.8 1.2 4.6 8.4 5.3 8.9-.2 2.3-26.3 4.4-52.7 7-79 .5-4.8 1-10.5 4.4-14.3 3.7-4.1 10-4.9 15.1-6.1 13.2-3 26.5-6.1 39.8-9.1 3.8-.9 5.7-7.3 1-8.6-13.5-3.7-26.7-8.2-39.7-13.5-5.5-2.2-11.5-4.4-15.9-8.5-4.9-4.6-6.9-11.7-9-17.9-9-26.2-14.8-53.5-17.6-81.1-.6-5.8-9.5-4.4-8.9 1.4 2.9 29.6 9.4 58.8 19.4 86.9 2.1 6 4.5 12 9.1 16.5 4.3 4.3 9.7 7 15.2 9.3 14.2 6.1 29 11.2 43.9 15.3.3-2.9.7-5.8 1-8.6-14.5 3.3-29 6.5-43.4 10-11.5 2.7-19.6 7.9-22.4 20-1.4 6.1-1.6 12.6-2.1 18.8-.6 7.3-1.3 14.6-1.9 21.9-1.3 15.2-2.7 30.5-4 45.7 3 0 6-.1 8.9-.2-7.7-30.8-14.8-62-23.2-92.6-1.5-5.4-3.7-10.3-8.8-13.1-5.4-3-12-2.9-18-2.9-15.3 0-30.6 1.1-45.7 3.4 1.1 2.7 2.3 5.3 3.5 8 10.2-9.8 21.6-18.4 33.9-25.3 5.8-3.3 11.9-6.2 18.1-8.8 5.7-2.4 13-3.7 17.6-8 5-4.6 4.6-11.4 4.4-17.6-.3-7.9-.6-15.9-.9-23.8-.6-16.5-1.2-33.1-1.8-49.6-.3-5.6-9.2-4.2-8.9 1.5zM379.1 514.9c1.6 24.7 1.2 49.5-1.2 74.1l2.7-3.6c-18.4 6.4-36.9 12.8-55.3 19.2-4.5 1.6-2.8 7.9 1.3 8.6 12.6 2.2 25.2 4.3 37.8 6.5 2.4.4 5.9.3 7.2 2.8 1.3 2.4 1 6.3 1.4 9 .9 6.5 1.7 13 2.6 19.5 3.4 25.3 6.7 50.6 10.1 76 .6 4.9 8.8 5 8.9-.2.3-23.7 1.9-47.4 4.8-70.9.7-5.8 1.5-11.6 2.4-17.4.4-2.5.4-6.1 2.4-7.8 1.5-1.2 3.9-1.4 5.7-1.5 11.1-1 22.6-.5 33.8-.6 5-.1 4.9-8.9-.1-8.9-9.9-.1-19.5-2.7-27.6-8.3-4.8-3.3-7.2-6.4-8.5-12.3l-3.6-16.5-6.9-32.1-3.6-16.5c-1-4.5-3.3-10.6 0-14.5 3.8-4.4-3.4-9.8-7.2-5.4-7.4 8.7-1.3 23.2.8 32.9 2.9 13.6 5.9 27.2 8.8 40.8 1.3 5.9 2.2 12.1 4 17.9 1.7 5.3 5.5 9.1 10 12.3 9.5 6.8 21 10.5 32.7 10.6 0-3-.1-6-.1-8.9l-20 .3c-5.6.1-11.5-.4-17 .8-12 2.6-12.1 14.3-13.5 24.4-3.7 26.7-5.7 53.6-6.1 80.5 3 0 6-.1 8.9-.2-3.8-28.6-7.6-57.1-11.4-85.7-.9-6.4-1-13.4-2.9-19.6-1.6-5.2-5.4-7.7-10.6-8.8-13.9-3-28.1-4.9-42.1-7.3.4 2.9.9 5.7 1.3 8.6 18.4-6.4 36.9-12.8 55.3-19.2 1.4-.5 2.5-2.1 2.7-3.6 2.5-25.4 2.8-51 1.1-76.5-.5-5.6-9.4-4.3-9 1.5zm113.2 60.9c-5.2 9.9 8.5 21.4 17.3 14.6 4.1-3.1 4.7-8.8 3-13.3-1.9-4.9-6.2-7.7-11.3-7.5-2.4.1-4.1 2.9-3.8 5.1.4 2.6 2.7 3.9 5.1 3.8-.5 0 .7.3.1.1-.5-.2.5.4.7.5.2.2.7 1 .9 1.6.1.4.2 1.4.1 1.8-.1.5-.2.7-.5.9.2-.2-.8.2-.4.2.5-.1-.8-.1-.9-.1 0 0-1-.5-1.2-.8-1.5-1.3-1.6-2.2-.9-3.5 1.1-2.2-.4-5-2.5-5.9-2.3-.9-4.5.4-5.7 2.5zm-190.4-97.9c-5.6 3-8.9 9.5-6.7 15.8 2.1 5.9 8.5 9.5 14.6 8.3 2.1-.4 3.3-1.9 3.8-3.9 1-3.9-.2-8-2.6-11.1-3.6-4.6-10.6 1-7.1 5.6 1.1 1.5 1.2 2.7.8 4.5 1.3-1.3 2.5-2.6 3.8-3.9-4.2.8-7.1-4.7-2.9-7 5-2.7 1.5-11-3.7-8.3zM537 325.7c-.1.9-.2 1.7-.3 2.6-.1 1.1.2 2.4.9 3.3.7.9 1.9 1.6 3 1.7 2.4.2 4.7-1.4 5-3.9.1-.9.2-1.7.3-2.6.1-1.1-.2-2.4-.9-3.3-.7-.9-1.9-1.6-3-1.7-2.4-.2-4.7 1.4-5 3.9zm112.6 4.1c8 12.6-2.4 30.9-16.7 32.1-5.8.5-4.4 9.4 1.4 8.9 21.7-1.9 33.7-28.7 22.4-46.6-3.1-4.9-10.2.8-7.1 5.6z"/><path d="M648.2 327.6c-9.6 23.4 10.1 48.3 35.1 44.1 5.7-.9 4.4-9.9-1.4-8.9-18.3 3-32.4-14.7-25.4-31.8 2.2-5.4-6.1-8.8-8.3-3.4z"/><path d="M646.8 342.7c1.1 16.6 2.2 33.2 3.3 49.9.4 5.8 9.3 4.4 8.9-1.4-1.1-16.6-2.2-33.2-3.3-49.9-.4-5.8-9.2-4.4-8.9 1.4z"/></svg>