<svg xmlns="http://www.w3.org/2000/svg" viewBox="0 0 1000 1000"><path d="M376.2 509.7c-10.4 7.7-2.6 24.4 8.5 31.1 11.2 6.6 25.5 9.4 33.4 19.4 10 12.6 5.5 30.6-1.2 45s-15.5 29.4-12.7 45c27.9-19 55.8-38 83.8-57 32.5 16.2 64.9 32.3 97.3 48.5-7-27.7-14-55.5-20.9-83.2 23.9-6.4 46.3-18 65.1-33.5-13.8-15.7-32.7-27.2-53.4-32.4-9-2.3-18.4-3.5-26.7-7.6-36.2-18.3-25.5-77.2-58.9-99.9 1.2.8-46.4 85.7-51.2 93.3-18.1 28.5-39.8 14-63.1 31.3z" opacity=".7" fill="#fe0"/><path d="M561.8 633c-18.4-22-40.7-40.8-65.6-55.2l.1 7.2-10.4-10.4c-24 9.8-45.5 25.5-62.2 45.4l-24.1 18.3c28.2-6.2 48.5-34.7 77.3-37.6 16.2-1.6 31.9 5.3 46.7 12.2 11.7 8.4 24.6 15.2 38.2 20.1zm12.3-79.8c-2.5-7-7.2-13.2-13.5-17.4l67.8-17.1c-15.6 14-32.9 26-51.3 35.9" opacity=".7" fill="#ffbf00"/><path d="M442.4 475.1c5.4-16.2 12-31.9 19.8-47 3.9-7.5 8-14.8 12.4-22 3.6-5.9 7.2-11 14.5-12.2 5.7-1 11.4.9 15.4 5 5.7 6 10.2 14.1 14.7 21 9.8 15 19 30.4 27.5 46.2 2.7 5.1 10.5.6 7.8-4.5-7.6-14.1-15.7-28-24.4-41.5-4.2-6.6-8.6-13.1-13.1-19.6-3.5-5-6.8-9.9-12.4-12.8-9.1-4.8-20.5-3.9-28.6 2.4-4.9 3.8-7.9 9.3-11 14.5-4 6.7-7.8 13.5-11.4 20.5-7.8 15.3-14.4 31.2-19.9 47.6-1.9 5.5 6.8 7.9 8.7 2.4z"/><path d="M437 469.9c-17.7 5.2-35.2 11-52.5 17.6-12 4.6-28.2 8-32.6 21.8-1.6 5.1-1.2 10.8 1 15.6 2.7 6.1 8.2 9.9 13.3 13.8 13.4 10.3 28 18.9 43.5 25.6 5.3 2.3 9.9-5.5 4.5-7.8-12.8-5.5-25.1-12.3-36.5-20.4-8.1-5.7-21.9-13.5-16.8-25.5 2.4-5.7 8.2-7.4 13.5-9.6 7.1-2.9 14.2-5.6 21.4-8.2 14.4-5.2 28.9-10 43.5-14.2 5.6-1.6 3.3-10.3-2.3-8.7zm109.1 4.4c30.3 7.1 59.8 17.6 87.6 31.6 2.1 1.1 8.7 3.2 8.4 6.4-.2 2.5-4.8 4.9-6.5 6.1-6.3 4.5-12.7 8.8-19.2 13-3.1 2-36.9 23.3-38 21.2-2.8-5.1-10.6-.5-7.8 4.5 6.5 11.6 24.3-2.3 31.3-6.3 13.7-7.9 27-16.5 39.8-25.7 4.2-3.1 9-6.4 9.3-12.2.4-6.5-4.3-10.5-9.6-13.2-13.7-7-27.8-13.2-42.1-18.7-16.6-6.3-33.6-11.4-50.9-15.4-5.5-1.3-7.9 7.4-2.3 8.7z"/><path d="M411.3 558.4c-6.1 18.7-11.2 37.7-15.3 57-1.6 7.3-4.8 16.1-2.8 23.6 1.5 5.9 6.1 10.7 11.7 12.8 7.1 2.6 13 .2 19.2-3.4 8.6-5 17.2-10 25.9-15l53.4-30.9c5-2.9.5-10.7-4.5-7.8-14.9 8.6-29.9 17.3-44.8 25.9-7.5 4.3-14.9 8.6-22.4 13-4 2.3-8 4.7-12.1 7-2.8 1.6-5.5 3.5-8.9 3.3-5.4-.4-9.3-5.2-9-10.5.4-7.9 3.1-16.3 4.9-24 3.8-16.4 8.3-32.6 13.5-48.6 1.7-5.5-7-7.9-8.8-2.4z"/><path d="M495.6 610.7c17.4 9.7 35.3 18.6 53.6 26.4 8.9 3.8 17.9 7.6 27.1 10.8 6.9 2.5 14 2.3 20.1-2.3 5.5-4.2 8.5-10.9 7.8-17.8-.9-9-4.1-18.3-6.4-27-4.7-17.3-10.2-34.5-17.4-50.9-2.3-5.3-10.1-.7-7.8 4.5 6.2 14.1 10.8 28.8 15 43.5 2.2 7.8 4.2 15.7 6.1 23.6 1.5 6.5 3 13.7-4 17.6-6.3 3.5-13.9-1.1-19.8-3.4-8.3-3.2-16.6-6.7-24.8-10.4-15.3-6.9-30.3-14.5-45-22.7-5-2.5-9.5 5.3-4.5 8.1z"/></svg>