<?xml version="1.0" encoding="utf-8"?>
<!-- Generator: Adobe Illustrator 23.0.2, SVG Export Plug-In . SVG Version: 6.00 Build 0)  -->
<svg version="1.1" id="Layer_1" xmlns="http://www.w3.org/2000/svg" xmlns:xlink="http://www.w3.org/1999/xlink" x="0px" y="0px"
	 viewBox="0 0 1000 1000" style="enable-background:new 0 0 1000 1000;" xml:space="preserve">
<style type="text/css">
	.st0{opacity:0.7;fill:#FFEE00;}
	.st1{opacity:0.7;fill:#FFBF00;}
</style>
<g>
	<path class="st0" d="M376.2,509.7c-10.4,7.7-2.6,24.4,8.5,31.1c11.2,6.6,25.5,9.4,33.4,19.4c10,12.6,5.5,30.6-1.2,45
		s-15.5,29.4-12.7,45c27.9-19,55.8-38,83.8-57c32.5,16.2,64.9,32.3,97.3,48.5c-7-27.7-14-55.5-20.9-83.2c23.9-6.4,46.3-18,65.1-33.5
		c-13.8-15.7-32.7-27.2-53.4-32.4c-9-2.3-18.4-3.5-26.7-7.6c-36.2-18.3-25.5-77.2-58.9-99.9c1.2,0.8-46.4,85.7-51.2,93.3
		C421.2,506.9,399.5,492.4,376.2,509.7z"/>
	<path class="st1" d="M561.8,633c-18.4-22-40.7-40.8-65.6-55.2l0.1,7.2c-3.5-3.5-6.9-6.9-10.4-10.4c-24,9.8-45.5,25.5-62.2,45.4
		l-24.1,18.3c28.2-6.2,48.5-34.7,77.3-37.6c16.2-1.6,31.9,5.3,46.7,12.2C535.3,621.3,548.2,628.1,561.8,633z"/>
	<path class="st1" d="M574.1,553.2c-2.5-7-7.2-13.2-13.5-17.4c22.6-5.7,45.2-11.4,67.8-17.1c-15.6,14-32.9,26-51.3,35.9"/>
	<g>
		<path d="M442.4,475.1c5.4-16.2,12-31.9,19.8-47c3.9-7.5,8-14.8,12.4-22c3.6-5.9,7.2-11,14.5-12.2c5.7-1,11.4,0.9,15.4,5
			c5.7,6,10.2,14.1,14.7,21c9.8,15,19,30.4,27.5,46.2c2.7,5.1,10.5,0.6,7.8-4.5c-7.6-14.1-15.7-28-24.4-41.5
			c-4.2-6.6-8.6-13.1-13.1-19.6c-3.5-5-6.8-9.9-12.4-12.8c-9.1-4.8-20.5-3.9-28.6,2.4c-4.9,3.8-7.9,9.3-11,14.5
			c-4,6.7-7.8,13.5-11.4,20.5c-7.8,15.3-14.4,31.2-19.9,47.6C431.8,478.2,440.5,480.6,442.4,475.1L442.4,475.1z"/>
	</g>
	<g>
		<path d="M437,469.9c-17.7,5.2-35.2,11-52.5,17.6c-12,4.6-28.2,8-32.6,21.8c-1.6,5.1-1.2,10.8,1,15.6c2.7,6.1,8.2,9.9,13.3,13.8
			c13.4,10.3,28,18.9,43.5,25.6c5.3,2.3,9.9-5.5,4.5-7.8c-12.8-5.5-25.1-12.3-36.5-20.4c-8.1-5.7-21.9-13.5-16.8-25.5
			c2.4-5.7,8.2-7.4,13.5-9.6c7.1-2.9,14.2-5.6,21.4-8.2c14.4-5.2,28.9-10,43.5-14.2C444.9,477,442.6,468.3,437,469.9L437,469.9z"/>
	</g>
	<g>
		<path d="M546.1,474.3c30.3,7.1,59.8,17.6,87.6,31.6c2.1,1.1,8.7,3.2,8.4,6.4c-0.2,2.5-4.8,4.9-6.5,6.1c-6.3,4.5-12.7,8.8-19.2,13
			c-3.1,2-36.9,23.3-38,21.2c-2.8-5.1-10.6-0.5-7.8,4.5c6.5,11.6,24.3-2.3,31.3-6.3c13.7-7.9,27-16.5,39.8-25.7
			c4.2-3.1,9-6.4,9.3-12.2c0.4-6.5-4.3-10.5-9.6-13.2c-13.7-7-27.8-13.2-42.1-18.7c-16.6-6.3-33.6-11.4-50.9-15.4
			C542.9,464.3,540.5,473,546.1,474.3L546.1,474.3z"/>
	</g>
	<g>
		<path d="M411.3,558.4c-6.1,18.7-11.2,37.7-15.3,57c-1.6,7.3-4.8,16.1-2.8,23.6c1.5,5.9,6.1,10.7,11.7,12.8
			c7.1,2.6,13,0.2,19.2-3.4c8.6-5,17.2-10,25.9-15c17.8-10.3,35.6-20.6,53.4-30.9c5-2.9,0.5-10.7-4.5-7.8
			c-14.9,8.6-29.9,17.3-44.8,25.9c-7.5,4.3-14.9,8.6-22.4,13c-4,2.3-8,4.7-12.1,7c-2.8,1.6-5.5,3.5-8.9,3.3c-5.4-0.4-9.3-5.2-9-10.5
			c0.4-7.9,3.1-16.3,4.9-24c3.8-16.4,8.3-32.6,13.5-48.6C421.8,555.3,413.1,552.9,411.3,558.4L411.3,558.4z"/>
	</g>
	<g>
		<path d="M495.6,610.7c17.4,9.7,35.3,18.6,53.6,26.4c8.9,3.8,17.9,7.6,27.1,10.8c6.9,2.5,14,2.3,20.1-2.3
			c5.5-4.2,8.5-10.9,7.8-17.8c-0.9-9-4.1-18.3-6.4-27c-4.7-17.3-10.2-34.5-17.4-50.9c-2.3-5.3-10.1-0.7-7.8,4.5
			c6.2,14.1,10.8,28.8,15,43.5c2.2,7.8,4.2,15.7,6.1,23.6c1.5,6.5,3,13.7-4,17.6c-6.3,3.5-13.9-1.1-19.8-3.4
			c-8.3-3.2-16.6-6.7-24.8-10.4c-15.3-6.9-30.3-14.5-45-22.7C495.1,600.1,490.6,607.9,495.6,610.7L495.6,610.7z"/>
	</g>
</g>
</svg>
