<?xml version="1.0" encoding="utf-8"?>
<!-- Generator: Adobe Illustrator 23.0.2, SVG Export Plug-In . SVG Version: 6.00 Build 0)  -->
<svg version="1.1" id="Layer_1" xmlns="http://www.w3.org/2000/svg" xmlns:xlink="http://www.w3.org/1999/xlink" x="0px" y="0px"
	 viewBox="0 0 1000 1000" style="enable-background:new 0 0 1000 1000;" xml:space="preserve">
<style type="text/css">
	.st0{opacity:0.7;fill:#FFBB00;}
	.st1{fill:#FFBB00;}
	.st2{opacity:0.7;fill:#FFFB00;}
</style>
<g>
	<path class="st0" d="M390.1,396.7c-12.2-14.7-18-34.5-15.7-53.4c15.8,8.8,26.7,25.5,28.5,43.5"/>
	<path class="st0" d="M338.6,358.1c-2.3-17.5-16-32.9-33.2-37.2c-4.5-0.2-8,4.4-8.1,8.9s2.2,8.6,4.6,12.4
		c7.1,10.7,16.1,20,26.5,27.5"/>
	<path class="st0" d="M564.6,666.3c0.4,10.8,0.8,21.5,1.2,32.2c0.2,7.1,4.2,16.8,10.8,14.5c3-1.1,4.5-4.5,5.5-7.6
		c4.5-14.5,4.4-30.3-0.3-44.8"/>
	<path class="st1" d="M680.4,574.5c9.7-1.1,20.6-1.9,28.1,4.3c1.4,1.1,2.6,2.5,3.1,4.2c1.7,5.5-5.4,10.4-11,8.9s-9.2-6.7-12.1-11.7"
		/>
	<path class="st0" d="M717.9,464.6c11.5-6.3,25.5-7.8,38.1-4c-3.8,14.4-17.3,25.7-32.2,26.9"/>
	<path class="st0" d="M622.5,400.3c5.8-19.2,23.3-34.4,43.2-37.3c-5.1,12.3-10.5,25.1-20.3,34.1s-25.3,13.4-36.7,6.4"/>
	<path class="st0" d="M410.8,600.7c-18.8,12-31.6,33-33.6,55.2c23-7,41.4-27.2,46.1-50.8"/>
	<path class="st0" d="M570,586.4c3.9,10.2,8.1,20.9,16.6,27.6s22.8,7.5,29.2-1.3c-12.8-3.9-23.3-14.4-27.3-27.2"/>
	<path class="st2" d="M592.2,415.4c-25.6-26.5-63.9-38-100.7-37.5c-35,0.5-72.8,13.4-90.1,43.8l2.1-0.9
		c-11,10.1-19.5,23.3-24.3,37.7l-4.6-4.4c-28.7-3.4-58.8,9.1-76.6,31.8c-1.4,1.8-2.8,3.8-3.2,6.1c-0.5,2.7,0.5,5.5,1.8,7.9
		c9.3,17.9,31,24.9,50.7,28.8c12,2.4,25,4.1,36-1.1c0.9-0.4,1.8-0.9,2.6-1.4c14.6,26.9,41.9,47.4,72.1,54.4
		c41.9,9.8,87.1-3.7,121.5-29.6c12.3-9.3,23.5-20.3,30.8-33.8C627.7,484.6,617.8,441.8,592.2,415.4z"/>
	<path class="st2" d="M386,554.8c-25.6,4.7-46.5,28-48.4,54c26.4-1.4,50.3-23,54.4-49.2"/>
	<path class="st2" d="M488.7,608.3c-7.4,26.2-1.1,55.9,16.3,76.8c17.2-11.3,21.3-34.3,23.9-54.7c0.7-5.7,1.4-11.6-0.7-17
		c-5.6-14.3-25.4-14.8-40.7-12.7"/>
	<path class="st2" d="M642.7,613.9c5.3-7.7-3.1-17.3-10.8-22.6c-10.9-7.4-22.2-14.2-33.7-20.6c0.8-13.1,16.9-19.4,30-18.4
		s26.2,6.1,38.9,3.1c18.2-4.3,31.9-24.5,50.5-22c-8.6-8.6-17.3-17.2-25.9-25.8c-2.9-2.9-5.9-5.9-9.6-7.8c-9.3-4.9-21.2-2-29.7,4.3
		c-8.5,6.2-14.5,15.2-20.6,23.8c-12.5,17.5-45.8,36.9-40.9,59.8C593.3,600.6,631.7,629.6,642.7,613.9z"/>
	<path class="st2" d="M639.4,444.4c0.7,8.3,1.5,16.7,2.2,25c0.4,4.2,1.9,9.6,6.1,9.8c2.3,0.1,4.2-1.5,5.9-3.1
		c9.2-8.7,17.4-18.5,24.4-29c-13-2.3-25.9-5.4-38.6-9.2"/>
	<path class="st2" d="M566,372.5c8.3-10.3,16.8-20.9,20.5-33.5s1.7-28-8.5-36.4c-3.7,20.5-21.1,37.8-41.6,41.4
		c-2.5,11.5,1.7,24.2,10.6,32"/>
	<path class="st2" d="M493.3,354.9c-6.4-21-19-40-35.8-54.1c-5.8-4.9-15.2-9-20.3-3.3c-1.7,1.9-2.4,4.4-2.9,6.9
		c-6.1,28.1,3.6,59.2,24.6,78.9"/>
	<path class="st2" d="M372.6,231.2c-4.9,19,2.9,40.6,18.7,52.1c2.7-13.5,5.1-27.5,2.3-41c-2.8-13.5-11.8-26.6-25.1-30.3
		c-2.2,7.6,0.4,16.5,6.5,21.6"/>
	<path class="st2" d="M512.9,234.4c-2-0.4-0.8-3.9,1.2-3.8s3.4,1.9,4.3,3.7c6.9,13,8,28.9,2.9,42.7"/>
	<path class="st2" d="M447.4,660.5c5.3,13.9,2.5,30.7-7.1,42.1c-1.5,1.8-3.6,3.6-5.9,3.3c-2.3-0.3-3.4-4.3-1.1-4.9"/>
	<g>
		<g>
			<path d="M486.6,371.1c-48.4,0.2-93.8,33.2-109.6,78.9c-15.7,45.5,3,98.2,40.4,127.3c43.9,34.1,104.4,26.9,150.7,1.8
				c46.1-25,88.3-72.5,69.5-128.2c-17.9-53-84.2-113.7-142-77.9c-4.8,3-0.4,10.5,4.4,7.5c48.7-30.1,102.3,17.2,123.5,59.2
				c12,23.8,13.9,50.4,1.4,74.3c-11.1,21.4-29.8,38.2-49.9,50.9c-40.8,25.8-96.5,38.7-140.7,13.3c-37.6-21.7-60.4-68-52.8-111
				c8.7-49.2,55.5-87.2,105-87.4C492.2,379.8,492.2,371.1,486.6,371.1L486.6,371.1z"/>
		</g>
		<g>
			<path d="M438.1,361.1c-9.2-12.1-5.5-27.5-1.4-40.9c4.3-13.9,8.7-27.9,4.8-42.4c-2.1,1.6-4.3,3.3-6.4,4.9
				c25.6,14.4,54.9,34.5,54,67.5c-0.2,5.6,8.6,5.6,8.7,0c1-36.2-30-59-58.3-75c-3.3-1.9-7.4,1.2-6.4,4.9
				c7.6,28.3-22.8,58.6-2.5,85.4C434,369.9,441.5,365.6,438.1,361.1L438.1,361.1z"/>
		</g>
		<g>
			<path d="M501.9,228.3c4,16,6.7,32.1,8.1,48.5c0.5,5.6,9.2,5.6,8.7,0c-1.4-17.2-4.2-34.1-8.4-50.9
				C509,220.5,500.6,222.8,501.9,228.3L501.9,228.3z"/>
		</g>
		<g>
			<path d="M530.6,356.8c-1.7-20.3,19.8-31,34.9-39.2c13.9-7.6,27.8-16.7,32.7-32.6c-2.8,0-5.6,0-8.4,0c7.2,22,3.3,46.4-11,64.6
				c-3.4,4.4,2.7,10.6,6.2,6.2c16.2-20.7,21.5-48,13.3-73.1c-1.3-4.1-7.1-4.2-8.4,0c-5.7,18.7-26.4,25.2-41.5,34.5
				c-14,8.7-27.9,21.9-26.4,39.7C522.3,362.4,531,362.4,530.6,356.8L530.6,356.8z"/>
		</g>
		<g>
			<path d="M616.6,384.4c5.3-11.2,18.2-13.4,29.1-15.5c10.5-2,20.7-4.6,28.4-12.5c-2.5-1-5-2.1-7.5-3.1c-1.4,18-9.9,34.1-23.6,45.7
				c-4.3,3.6,1.9,9.8,6.2,6.2c15.5-13.2,24.6-31.7,26.2-51.9c0.3-3.9-4.9-5.7-7.5-3.1c-16.1,16.5-47.6,5.8-58.9,29.7
				C606.7,385,614.2,389.5,616.6,384.4L616.6,384.4z"/>
		</g>
		<g>
			<path d="M650.3,442.6c15.7-1,31.4-2.7,47-5c-1.8-1.8-3.6-3.6-5.4-5.4c-1.8,12.4-9.4,23-21.3,27.6c-5.2,2-2.9,10.5,2.3,8.4
				c14.5-5.7,25.2-18.1,27.4-33.7c0.5-3.5-1.9-5.9-5.4-5.4c-14.8,2.1-29.7,3.7-44.6,4.7C644.7,434.3,644.7,443,650.3,442.6
				L650.3,442.6z"/>
		</g>
		<g>
			<path d="M360.2,445.8c-35.4-8.4-60,22.1-77.2,48.1c-1.1,1.7-0.5,3.9,0.7,5.3c13.6,15.9,33.1,25.2,54,26.1c5.6,0.3,5.6-8.5,0-8.7
				c-18.7-0.9-35.7-9.4-47.8-23.6c0.2,1.8,0.5,3.5,0.7,5.3c14.9-22.4,36.4-51.5,67.4-44.1C363.3,455.5,365.6,447,360.2,445.8
				L360.2,445.8z"/>
		</g>
		<g>
			<path d="M371.9,544.6c-18.3,1.8-31.9,13.4-42.8,27.6c-2.7,3.5-5.2,7.2-7.7,10.9c-2.2,3.4-5.9,7.7-6.8,11.7
				c-2.2,9.6,11.5,10.3,17.6,11.8c5.5,1.3,7.8-7.1,2.3-8.4c-3.4-0.8-6.9-1.5-10.4-2.5c-1.3-0.6-1.5-0.4-0.7,0.7
				c0.4-0.6,0.7-1.2,1.1-1.8c0.9-1,1.5-2.4,2.2-3.5c3.8-6,7.7-11.8,12.2-17.2c8.6-10.2,19.3-19,33-20.4
				C377.5,552.8,377.5,544,371.9,544.6L371.9,544.6z"/>
		</g>
		<g>
			<path d="M388.2,593.5c-14.4,2.3-21.5,16.3-26.5,28.5c-6.9,17-11.2,34.8-13.2,52.9c-0.3,2.3,2.2,4.4,4.4,4.4
				c29.8-0.8,58.1-13.1,78.8-34.6c3.9-4-2.3-10.2-6.2-6.2c-19.1,19.8-45.1,31.3-72.6,32c1.5,1.5,2.9,2.9,4.4,4.4
				c1.7-14.8,5-29.3,10.1-43.3c4.1-11.3,9.6-27.5,23.3-29.7C396,601,393.7,592.6,388.2,593.5L388.2,593.5z"/>
		</g>
		<g>
			<path d="M468.6,618.4c-7.5,29.9,4.2,61.8,29,80c4.5,3.3,8.9-4.2,4.4-7.5c-21.6-15.8-31.5-44.3-25-70.2
				C478.3,615.3,469.9,613,468.6,618.4L468.6,618.4z"/>
		</g>
		<g>
			<path d="M531.6,621.9c0.4,20.8-5.3,40.7-16.6,58.2c-3,4.7,4.5,9.1,7.5,4.4c12.1-18.7,18.2-40.3,17.8-62.6
				C540.3,616.3,531.5,616.3,531.6,621.9L531.6,621.9z"/>
		</g>
		<g>
			<path d="M569.5,618.6c24.4,28.4,63.8,28.2,98.1,26.7c5.6-0.3,5.6-9,0-8.7c-32,1.5-69.1,2.5-92-24.1
				C572,608.1,565.8,614.3,569.5,618.6L569.5,618.6z"/>
		</g>
		<g>
			<path d="M607.2,580.3c20.7,10.5,38,26.1,50.3,45.8c3,4.8,10.5,0.4,7.5-4.4c-13.1-20.9-31.4-37.8-53.4-49
				C606.6,570.3,602.2,577.8,607.2,580.3L607.2,580.3z"/>
		</g>
		<g>
			<path d="M636.2,540.8c4.5,15.7,22,21.8,36.9,19.1c21.6-3.9,41.5-25.3,64.4-17c5.3,1.9,7.6-6.5,2.3-8.4
				c-17.5-6.3-34.2,2.5-49.6,10c-13.2,6.4-39.7,14.6-45.6-5.9C643,533.1,634.6,535.4,636.2,540.8L636.2,540.8z"/>
		</g>
		<g>
			<path d="M681.5,509.7c13.7,5.1,26.1,12.7,37,22.5c4.2,3.8,10.3-2.4,6.2-6.2c-12-10.9-25.7-19.1-40.8-24.8
				C678.6,499.3,676.3,507.7,681.5,509.7L681.5,509.7z"/>
		</g>
		<g>
			<path d="M443.8,652.1c-7.2,15.1-14.4,30.2-21.6,45.3c-2.4,5,5.1,9.5,7.5,4.4c7.2-15.1,14.4-30.2,21.6-45.3
				C453.8,651.4,446.2,647,443.8,652.1L443.8,652.1z"/>
		</g>
		<g>
			<path d="M562,675.8c-0.4,7.8,2.3,43.2,18,33.8c5.8-3.5,5.3-11.6,5-17.4c-0.5-10.2-1.9-20.4-4-30.4c-1.2-5.5-9.6-3.2-8.4,2.3
				c2.2,10.5,3.9,21.4,3.9,32.1c0,0.8,0.4,5-1.3,4.7c-0.9-0.2-2.7-7.2-2.9-8.2c-1.5-5.6-1.7-11.2-1.4-17
				C571,670.2,562.3,670.2,562,675.8L562,675.8z"/>
		</g>
		<g>
			<path d="M267.3,436.8c13.9,3.3,28,5.3,42.3,6c5.6,0.3,5.6-8.5,0-8.7c-13.5-0.7-26.8-2.6-39.9-5.7
				C264.2,427.1,261.8,435.5,267.3,436.8L267.3,436.8z"/>
		</g>
		<g>
			<path d="M299.4,311.3c-6.9,10.2-5.9,23.3,0,33.8c6.6,11.7,18.5,19.1,29.7,25.9c4.8,2.9,9.2-4.6,4.4-7.5
				c-15.2-9.3-40.4-27.1-26.5-47.8C310.1,311,302.5,306.6,299.4,311.3L299.4,311.3z"/>
		</g>
		<g>
			<path d="M301,319.2c16.2,10,29.4,23.4,39.2,39.6c2.9,4.8,10.4,0.4,7.5-4.4c-10.5-17.5-24.9-32.1-42.3-42.8
				C300.6,308.8,296.2,316.3,301,319.2L301,319.2z"/>
		</g>
		<g>
			<path d="M356.8,222c4.8,25.1,14.6,48.8,28.9,69.9c3.1,4.6,10.7,0.3,7.5-4.4c-13.9-20.6-23.4-43.4-28-67.8
				C364.2,214.1,355.8,216.5,356.8,222L356.8,222z"/>
		</g>
		<g>
			<path d="M683.7,585.2c7.9,2.9,15.8,5.8,23.7,8.6c5.3,1.9,7.6-6.5,2.3-8.4c-7.9-2.9-15.8-5.8-23.7-8.6
				C680.7,574.8,678.4,583.2,683.7,585.2L683.7,585.2z"/>
		</g>
		<g>
			<path d="M722.7,481.6c9.3-2.2,18.7-4.3,28-6.5c5.5-1.3,3.2-9.7-2.3-8.4c-9.3,2.2-18.7,4.3-28,6.5
				C714.9,474.5,717.2,482.9,722.7,481.6L722.7,481.6z"/>
		</g>
		<g>
			<path d="M700.9,379.1c3.6-4.3,7.2-8.6,10.8-12.9c1.5-1.8,1.8-4.4,0-6.2c-1.5-1.5-4.7-1.8-6.2,0c-3.6,4.3-7.2,8.6-10.8,12.9
				c-1.5,1.8-1.8,4.4,0,6.2C696.3,380.7,699.4,380.9,700.9,379.1L700.9,379.1z"/>
		</g>
		<g>
			<path d="M397.8,387c-24.6-2.5-35.7-30.1-21.8-49.7c3.2-4.6-4.3-9-7.5-4.4c-18.1,25.6-1.2,59.8,29.3,62.9
				C403.4,396.3,403.3,387.5,397.8,387L397.8,387z"/>
		</g>
		<g>
			<path d="M439.2,492c-3-15.5,2.4-30.9,13.8-41.6c4.1-3.8-2.1-10-6.2-6.2c-13.8,12.9-19.6,31.6-16,50.1
				C431.8,499.8,440.2,497.5,439.2,492L439.2,492z"/>
		</g>
		<g>
			<path d="M560.9,470.7c-1,1.9-1.9,3.8-2.9,5.8c-1,2-0.6,4.8,1.6,6c2,1,4.9,0.6,6-1.6c1-1.9,1.9-3.8,2.9-5.8c1-2,0.6-4.8-1.6-6
				C564.9,468.1,562,468.5,560.9,470.7L560.9,470.7z"/>
		</g>
		<g>
			<path d="M481.3,534.8c3.8,0,7.7,0,11.5,0c5.6,0,5.6-8.7,0-8.7c-3.8,0-7.7,0-11.5,0C475.7,526.1,475.7,534.8,481.3,534.8
				L481.3,534.8z"/>
		</g>
		<g>
			<path d="M527.3,425.5c5.6,0,5.6-8.7,0-8.7C521.7,416.8,521.7,425.5,527.3,425.5L527.3,425.5z"/>
		</g>
	</g>
	<g>
		<path d="M525.2,751.7c1.4-11.8,4.4-23.2,8.7-34.2c2-5.2-6.4-7.5-8.4-2.3c-4.6,11.8-7.5,24-9,36.6
			C515.8,757.3,524.6,757.3,525.2,751.7L525.2,751.7z"/>
	</g>
</g>
</svg>
