<svg version="1.1" id="Layer_1" xmlns="http://www.w3.org/2000/svg" x="0" y="0" viewBox="0 0 1000 1000" xml:space="preserve"><style>.st0,.st2{opacity:.7;fill:#fb0}.st2{fill:#fffb00}</style><path class="st0" d="M390.1 396.7c-12.2-14.7-18-34.5-15.7-53.4 15.8 8.8 26.7 25.5 28.5 43.5m-64.3-28.7c-2.3-17.5-16-32.9-33.2-37.2-4.5-.2-8 4.4-8.1 8.9s2.2 8.6 4.6 12.4c7.1 10.7 16.1 20 26.5 27.5m236.2 296.6c.4 10.8.8 21.5 1.2 32.2.2 7.1 4.2 16.8 10.8 14.5 3-1.1 4.5-4.5 5.5-7.6 4.5-14.5 4.4-30.3-.3-44.8"/><path d="M680.4 574.5c9.7-1.1 20.6-1.9 28.1 4.3 1.4 1.1 2.6 2.5 3.1 4.2 1.7 5.5-5.4 10.4-11 8.9s-9.2-6.7-12.1-11.7" fill="#fb0"/><path class="st0" d="M717.9 464.6c11.5-6.3 25.5-7.8 38.1-4-3.8 14.4-17.3 25.7-32.2 26.9m-101.3-87.2c5.8-19.2 23.3-34.4 43.2-37.3-5.1 12.3-10.5 25.1-20.3 34.1s-25.3 13.4-36.7 6.4M410.8 600.7c-18.8 12-31.6 33-33.6 55.2 23-7 41.4-27.2 46.1-50.8M570 586.4c3.9 10.2 8.1 20.9 16.6 27.6s22.8 7.5 29.2-1.3c-12.8-3.9-23.3-14.4-27.3-27.2"/><path class="st2" d="M592.2 415.4c-25.6-26.5-63.9-38-100.7-37.5-35 .5-72.8 13.4-90.1 43.8l2.1-.9c-11 10.1-19.5 23.3-24.3 37.7l-4.6-4.4c-28.7-3.4-58.8 9.1-76.6 31.8-1.4 1.8-2.8 3.8-3.2 6.1-.5 2.7.5 5.5 1.8 7.9 9.3 17.9 31 24.9 50.7 28.8 12 2.4 25 4.1 36-1.1.9-.4 1.8-.9 2.6-1.4 14.6 26.9 41.9 47.4 72.1 54.4 41.9 9.8 87.1-3.7 121.5-29.6 12.3-9.3 23.5-20.3 30.8-33.8 17.4-32.6 7.5-75.4-18.1-101.8zM386 554.8c-25.6 4.7-46.5 28-48.4 54 26.4-1.4 50.3-23 54.4-49.2m96.7 48.7c-7.4 26.2-1.1 55.9 16.3 76.8 17.2-11.3 21.3-34.3 23.9-54.7.7-5.7 1.4-11.6-.7-17-5.6-14.3-25.4-14.8-40.7-12.7m155.2 13.2c5.3-7.7-3.1-17.3-10.8-22.6-10.9-7.4-22.2-14.2-33.7-20.6.8-13.1 16.9-19.4 30-18.4s26.2 6.1 38.9 3.1c18.2-4.3 31.9-24.5 50.5-22-8.6-8.6-17.3-17.2-25.9-25.8-2.9-2.9-5.9-5.9-9.6-7.8-9.3-4.9-21.2-2-29.7 4.3-8.5 6.2-14.5 15.2-20.6 23.8-12.5 17.5-45.8 36.9-40.9 59.8 2.4 12.9 40.8 41.9 51.8 26.2zm-3.3-169.5c.7 8.3 1.5 16.7 2.2 25 .4 4.2 1.9 9.6 6.1 9.8 2.3.1 4.2-1.5 5.9-3.1 9.2-8.7 17.4-18.5 24.4-29-13-2.3-25.9-5.4-38.6-9.2M566 372.5c8.3-10.3 16.8-20.9 20.5-33.5s1.7-28-8.5-36.4c-3.7 20.5-21.1 37.8-41.6 41.4-2.5 11.5 1.7 24.2 10.6 32"/><path class="st2" d="M493.3 354.9c-6.4-21-19-40-35.8-54.1-5.8-4.9-15.2-9-20.3-3.3-1.7 1.9-2.4 4.4-2.9 6.9-6.1 28.1 3.6 59.2 24.6 78.9m-86.3-152.1c-4.9 19 2.9 40.6 18.7 52.1 2.7-13.5 5.1-27.5 2.3-41s-11.8-26.6-25.1-30.3c-2.2 7.6.4 16.5 6.5 21.6m137.9.8c-2-.4-.8-3.9 1.2-3.8s3.4 1.9 4.3 3.7c6.9 13 8 28.9 2.9 42.7m-73.9 383.5c5.3 13.9 2.5 30.7-7.1 42.1-1.5 1.8-3.6 3.6-5.9 3.3-2.3-.3-3.4-4.3-1.1-4.9"/><path d="M486.6 371.1c-48.4.2-93.8 33.2-109.6 78.9-15.7 45.5 3 98.2 40.4 127.3 43.9 34.1 104.4 26.9 150.7 1.8 46.1-25 88.3-72.5 69.5-128.2-17.9-53-84.2-113.7-142-77.9-4.8 3-.4 10.5 4.4 7.5 48.7-30.1 102.3 17.2 123.5 59.2 12 23.8 13.9 50.4 1.4 74.3-11.1 21.4-29.8 38.2-49.9 50.9-40.8 25.8-96.5 38.7-140.7 13.3-37.6-21.7-60.4-68-52.8-111 8.7-49.2 55.5-87.2 105-87.4 5.7 0 5.7-8.7.1-8.7zm-48.5-10c-9.2-12.1-5.5-27.5-1.4-40.9 4.3-13.9 8.7-27.9 4.8-42.4-2.1 1.6-4.3 3.3-6.4 4.9 25.6 14.4 54.9 34.5 54 67.5-.2 5.6 8.6 5.6 8.7 0 1-36.2-30-59-58.3-75-3.3-1.9-7.4 1.2-6.4 4.9 7.6 28.3-22.8 58.6-2.5 85.4 3.4 4.4 10.9.1 7.5-4.4zm63.8-132.8c4 16 6.7 32.1 8.1 48.5.5 5.6 9.2 5.6 8.7 0-1.4-17.2-4.2-34.1-8.4-50.9-1.3-5.4-9.7-3.1-8.4 2.4z"/><path d="M530.6 356.8c-1.7-20.3 19.8-31 34.9-39.2 13.9-7.6 27.8-16.7 32.7-32.6h-8.4c7.2 22 3.3 46.4-11 64.6-3.4 4.4 2.7 10.6 6.2 6.2 16.2-20.7 21.5-48 13.3-73.1-1.3-4.1-7.1-4.2-8.4 0-5.7 18.7-26.4 25.2-41.5 34.5-14 8.7-27.9 21.9-26.4 39.7.3 5.5 9 5.5 8.6-.1zm86 27.6c5.3-11.2 18.2-13.4 29.1-15.5 10.5-2 20.7-4.6 28.4-12.5-2.5-1-5-2.1-7.5-3.1-1.4 18-9.9 34.1-23.6 45.7-4.3 3.6 1.9 9.8 6.2 6.2 15.5-13.2 24.6-31.7 26.2-51.9.3-3.9-4.9-5.7-7.5-3.1-16.1 16.5-47.6 5.8-58.9 29.7-2.3 5.1 5.2 9.6 7.6 4.5zm33.7 58.2c15.7-1 31.4-2.7 47-5l-5.4-5.4c-1.8 12.4-9.4 23-21.3 27.6-5.2 2-2.9 10.5 2.3 8.4 14.5-5.7 25.2-18.1 27.4-33.7.5-3.5-1.9-5.9-5.4-5.4-14.8 2.1-29.7 3.7-44.6 4.7-5.6.5-5.6 9.2 0 8.8zm-290.1 3.2c-35.4-8.4-60 22.1-77.2 48.1-1.1 1.7-.5 3.9.7 5.3 13.6 15.9 33.1 25.2 54 26.1 5.6.3 5.6-8.5 0-8.7-18.7-.9-35.7-9.4-47.8-23.6.2 1.8.5 3.5.7 5.3 14.9-22.4 36.4-51.5 67.4-44.1 5.3 1.3 7.6-7.2 2.2-8.4zm11.7 98.8c-18.3 1.8-31.9 13.4-42.8 27.6-2.7 3.5-5.2 7.2-7.7 10.9-2.2 3.4-5.9 7.7-6.8 11.7-2.2 9.6 11.5 10.3 17.6 11.8 5.5 1.3 7.8-7.1 2.3-8.4-3.4-.8-6.9-1.5-10.4-2.5-1.3-.6-1.5-.4-.7.7.4-.6.7-1.2 1.1-1.8.9-1 1.5-2.4 2.2-3.5 3.8-6 7.7-11.8 12.2-17.2 8.6-10.2 19.3-19 33-20.4 5.6-.7 5.6-9.5 0-8.9zm16.3 48.9c-14.4 2.3-21.5 16.3-26.5 28.5-6.9 17-11.2 34.8-13.2 52.9-.3 2.3 2.2 4.4 4.4 4.4 29.8-.8 58.1-13.1 78.8-34.6 3.9-4-2.3-10.2-6.2-6.2-19.1 19.8-45.1 31.3-72.6 32l4.4 4.4c1.7-14.8 5-29.3 10.1-43.3 4.1-11.3 9.6-27.5 23.3-29.7 5.3-.9 3-9.3-2.5-8.4zm80.4 24.9c-7.5 29.9 4.2 61.8 29 80 4.5 3.3 8.9-4.2 4.4-7.5-21.6-15.8-31.5-44.3-25-70.2 1.3-5.4-7.1-7.7-8.4-2.3zm63 3.5c.4 20.8-5.3 40.7-16.6 58.2-3 4.7 4.5 9.1 7.5 4.4 12.1-18.7 18.2-40.3 17.8-62.6 0-5.6-8.8-5.6-8.7 0zm37.9-3.3c24.4 28.4 63.8 28.2 98.1 26.7 5.6-.3 5.6-9 0-8.7-32 1.5-69.1 2.5-92-24.1-3.6-4.4-9.8 1.8-6.1 6.1zm37.7-38.3c20.7 10.5 38 26.1 50.3 45.8 3 4.8 10.5.4 7.5-4.4-13.1-20.9-31.4-37.8-53.4-49-5-2.4-9.4 5.1-4.4 7.6zm29-39.5c4.5 15.7 22 21.8 36.9 19.1 21.6-3.9 41.5-25.3 64.4-17 5.3 1.9 7.6-6.5 2.3-8.4-17.5-6.3-34.2 2.5-49.6 10-13.2 6.4-39.7 14.6-45.6-5.9-1.6-5.5-10-3.2-8.4 2.2z"/><path d="M681.5 509.7c13.7 5.1 26.1 12.7 37 22.5 4.2 3.8 10.3-2.4 6.2-6.2-12-10.9-25.7-19.1-40.8-24.8-5.3-1.9-7.6 6.5-2.4 8.5zM443.8 652.1l-21.6 45.3c-2.4 5 5.1 9.5 7.5 4.4l21.6-45.3c2.5-5.1-5.1-9.5-7.5-4.4zM562 675.8c-.4 7.8 2.3 43.2 18 33.8 5.8-3.5 5.3-11.6 5-17.4-.5-10.2-1.9-20.4-4-30.4-1.2-5.5-9.6-3.2-8.4 2.3 2.2 10.5 3.9 21.4 3.9 32.1 0 .8.4 5-1.3 4.7-.9-.2-2.7-7.2-2.9-8.2-1.5-5.6-1.7-11.2-1.4-17 .1-5.5-8.6-5.5-8.9.1zm-294.7-239c13.9 3.3 28 5.3 42.3 6 5.6.3 5.6-8.5 0-8.7-13.5-.7-26.8-2.6-39.9-5.7-5.5-1.3-7.9 7.1-2.4 8.4zm32.1-125.5c-6.9 10.2-5.9 23.3 0 33.8 6.6 11.7 18.5 19.1 29.7 25.9 4.8 2.9 9.2-4.6 4.4-7.5-15.2-9.3-40.4-27.1-26.5-47.8 3.1-4.7-4.5-9.1-7.6-4.4z"/><path d="M301 319.2c16.2 10 29.4 23.4 39.2 39.6 2.9 4.8 10.4.4 7.5-4.4-10.5-17.5-24.9-32.1-42.3-42.8-4.8-2.8-9.2 4.7-4.4 7.6zm55.8-97.2c4.8 25.1 14.6 48.8 28.9 69.9 3.1 4.6 10.7.3 7.5-4.4-13.9-20.6-23.4-43.4-28-67.8-1-5.6-9.4-3.2-8.4 2.3zm326.9 363.2c7.9 2.9 15.8 5.8 23.7 8.6 5.3 1.9 7.6-6.5 2.3-8.4-7.9-2.9-15.8-5.8-23.7-8.6-5.3-2-7.6 6.4-2.3 8.4zm39-103.6c9.3-2.2 18.7-4.3 28-6.5 5.5-1.3 3.2-9.7-2.3-8.4-9.3 2.2-18.7 4.3-28 6.5-5.5 1.3-3.2 9.7 2.3 8.4zm-21.8-102.5l10.8-12.9c1.5-1.8 1.8-4.4 0-6.2-1.5-1.5-4.7-1.8-6.2 0l-10.8 12.9c-1.5 1.8-1.8 4.4 0 6.2 1.6 1.6 4.7 1.8 6.2 0zM397.8 387c-24.6-2.5-35.7-30.1-21.8-49.7 3.2-4.6-4.3-9-7.5-4.4-18.1 25.6-1.2 59.8 29.3 62.9 5.6.5 5.5-8.3 0-8.8zm41.4 105c-3-15.5 2.4-30.9 13.8-41.6 4.1-3.8-2.1-10-6.2-6.2-13.8 12.9-19.6 31.6-16 50.1 1 5.5 9.4 3.2 8.4-2.3zm121.7-21.3c-1 1.9-1.9 3.8-2.9 5.8s-.6 4.8 1.6 6c2 1 4.9.6 6-1.6 1-1.9 1.9-3.8 2.9-5.8s.6-4.8-1.6-6c-2-1-4.9-.6-6 1.6zm-79.6 64.1h11.5c5.6 0 5.6-8.7 0-8.7h-11.5c-5.6 0-5.6 8.7 0 8.7zm46-109.3c5.6 0 5.6-8.7 0-8.7s-5.6 8.7 0 8.7zm-2.1 326.2c1.4-11.8 4.4-23.2 8.7-34.2 2-5.2-6.4-7.5-8.4-2.3-4.6 11.8-7.5 24-9 36.6-.7 5.5 8.1 5.5 8.7-.1z"/></svg>