<svg xmlns="http://www.w3.org/2000/svg" viewBox="0 0 1000 1000"><path d="M375.5 325c20.9-7.4 47.8 3.8 53.9 25.1 7.7-22.4 27.5-40.2 50.6-45.6 23.1-5.4 48.7 1.9 65.5 18.6 22.5-14.2 52.5-15.7 76.3-3.8 23.8 11.9 40.6 36.7 42.8 63.2 10.8-7.1 26.3-1.3 33.6 9.3 7.3 10.6 8.2 24.3 7.2 37.1-1.1 15-4.3 29.9-9.5 44-2.3 6.3-5.2 12.7-10.6 16.6-5.4 3.9-14 4.2-18.1-1.1 4.8 20.9-7.3 44.5-27.1 52.8s-45.1.3-56.6-17.8c-15.3 19.8-35.3 38.1-60.1 41.9-24.7 3.8-53.5-12.6-55.2-37.6 1.4 22.1-56 18.5-66.4 15-32.5-10.8-44.2-37.4-49-69.1-6.4-41.8-33.3-128.7 22.7-148.6zM430 608.6c-12 6.3-15.6 24.4-7 34.8s27.1 10.1 35.5-.5 4.2-28.7-8-34.6c-9.3-4.5-20.8-2.1-29.5 3.6m-33.1 92.8c-14.1-1.3-25.4 17-18.3 29.3 7.1 12.3 28 12.1 35.2-.1 7.3-12.2-1.8-30.3-15.8-32.3" opacity=".7" fill="#ccf"/><path d="M362.2 433.5c-16.3-.9-25.5-17.7-27-32.2-1-9.4.1-19 1.2-28.3 1.1-9.1 2.1-18.7 6-27.1 5.8-12.4 18.1-20 31.2-22.7 14.4-2.9 28.8.8 40.9 8.8 14.5 9.6 24.7 24.4 31.4 40.1 2.3 5.3 10 .7 7.8-4.5-13.7-31.8-43.7-59.5-80.5-53.4-15.5 2.6-30.5 11.6-37.9 25.8-4.8 9.1-6.2 19.3-7.5 29.4-1.4 11.2-2.9 22.5-1.5 33.7 2.4 19.1 15 38.3 35.8 39.4 5.9.3 5.9-8.7.1-9z"/><path d="M434.8 336.4c8-25 33.7-42.7 59.9-40.7 25.9 1.9 47.9 23 52.7 48.1 1.1 5.7 9.8 3.3 8.7-2.4-5.6-29.2-31.7-52.5-61.4-54.7-30.3-2.2-59.5 18.8-68.6 47.3-1.7 5.5 6.9 7.9 8.7 2.4z"/><path d="M541.2 317.5c28.8-16.1 66.2-14.3 92.6 5.9 12.1 9.2 21.7 21.9 27.4 36 2.8 7 4.8 14.4 5.7 21.8.8 6.4 2 16.7-4.2 21-4.7 3.3-.2 11.1 4.5 7.8 11.3-7.8 9.9-23.2 7.8-35.1-2.4-13.8-8.2-27.2-16.4-38.5-17.1-23.6-43.8-37.9-73-38.7-17.1-.5-34.1 3.7-49 12.1-5 2.8-.5 10.5 4.6 7.7zM376.4 422.9c-15.8 2.9-27.4 16-32.2 30.9-5.8 18.4-1.3 38.9 4.8 56.6 5.6 16.4 14.8 31.8 30.6 40 15.1 7.9 33.1 9.2 49.5 4.9 20-5.2 37.1-17.9 51.1-32.7 4-4.2-2.4-10.6-6.4-6.4-20.8 22-50.7 39.6-81.7 29.7-14.9-4.8-25.1-15.8-31.4-29.9-6.6-15-11.5-33-9.9-49.5 1.5-16 11.2-31.9 27.9-35 5.8-.9 3.4-9.6-2.3-8.6z"/><path d="M447.8 549.5c12.2 6.7 22.5 16.3 34 24.1 11.1 7.5 23.4 12.3 36.8 12.9 26.5 1.1 51.7-13.9 62.5-38.2 5.9-13.3 7.5-27.8 4.4-42-1.2-5.7-9.9-3.3-8.7 2.4 6.5 30.2-12.7 60.7-42.8 67.5-15.2 3.4-30.5.4-43.7-7.7-13.2-8.1-24.3-19.2-38-26.7-5-2.9-9.5 4.9-4.5 7.7zm143.9-7.5c21.2 20.1 57 21.2 78.9 1.5 21.4-19.2 24.3-55 6.9-77.7-3.5-4.5-11.3-.1-7.8 4.5 14.7 19.2 13.3 48.9-4.5 65.9-18.1 17.2-49.2 16.4-67.1-.6-4.2-3.9-10.6 2.4-6.4 6.4zm-174 70.1c-10.9 6.1-13.5 20.7-8 31.4 6.3 12.3 21.9 16.7 34.8 15.2 12.9-1.5 25.1-9.9 30.9-21.5 5.6-11.2 3.5-24.4-6.7-32.2-11.9-9.1-28.8-7.3-42.6-5.1-5.7.9-3.3 9.6 2.4 8.7 10.8-1.7 25.3-3.6 34.7 3.5 10.5 7.9 6.3 21.2-1.8 29-9.1 8.8-23.2 11.8-34.8 6.2-5.4-2.5-9.6-7.1-10.5-13.1-.9-5.7 1.1-11.5 6.2-14.4 5-2.8.5-10.5-4.6-7.7zM367 718.2c.3 12.1 9.2 23.1 21.1 25.9 12 2.9 23.6-3.8 28.8-14.7 5-10.5 3-22.8-6-30.4-8.7-7.3-21.5-8.8-31.4-3-5 2.9-.5 10.7 4.5 7.8 13.9-8.1 31.7 5.7 25.1 21-3 7-10.1 12.2-18 10.7-8.2-1.5-14.9-9-15.1-17.4-.2-5.7-9.2-5.7-9 .1z"/><path d="M671.5 359.7c43 28.8 47.3 98.8 9 133.2-4.3 3.9 2.1 10.2 6.4 6.4 33.2-29.8 37.2-83.5 14.5-120.8-6.5-10.6-15.1-19.6-25.4-26.6-4.8-3.2-9.3 4.6-4.5 7.8z"/></svg>