<?xml version="1.0" encoding="utf-8"?>
<!-- Generator: Adobe Illustrator 23.0.2, SVG Export Plug-In . SVG Version: 6.00 Build 0)  -->
<svg version="1.1" id="Layer_1" xmlns="http://www.w3.org/2000/svg" xmlns:xlink="http://www.w3.org/1999/xlink" x="0px" y="0px"
	 viewBox="0 0 1000 1000" style="enable-background:new 0 0 1000 1000;" xml:space="preserve">
<style type="text/css">
	.st0{opacity:0.7;fill:#CCCCFF;}
</style>
<path class="st0" d="M375.5,325c20.9-7.4,47.8,3.8,53.9,25.1c7.7-22.4,27.5-40.2,50.6-45.6c23.1-5.4,48.7,1.9,65.5,18.6
	c22.5-14.2,52.5-15.7,76.3-3.8c23.8,11.9,40.6,36.7,42.8,63.2c10.8-7.1,26.3-1.3,33.6,9.3c7.3,10.6,8.2,24.3,7.2,37.1
	c-1.1,15-4.3,29.9-9.5,44c-2.3,6.3-5.2,12.7-10.6,16.6c-5.4,3.9-14,4.2-18.1-1.1c4.8,20.9-7.3,44.5-27.1,52.8s-45.1,0.3-56.6-17.8
	c-15.3,19.8-35.3,38.1-60.1,41.9c-24.7,3.8-53.5-12.6-55.2-37.6c1.4,22.1-56,18.5-66.4,15c-32.5-10.8-44.2-37.4-49-69.1
	C346.4,431.8,319.5,344.9,375.5,325z"/>
<path class="st0" d="M430,608.6c-12,6.3-15.6,24.4-7,34.8s27.1,10.1,35.5-0.5s4.2-28.7-8-34.6c-9.3-4.5-20.8-2.1-29.5,3.6"/>
<path class="st0" d="M387.9,704.7c-14.1-1.3-25.4,17-18.3,29.3c7.1,12.3,28,12.1,35.2-0.1c7.3-12.2-1.8-30.3-15.8-32.3"/>
<g>
	<g>
		<path d="M362.2,433.5c-16.3-0.9-25.5-17.7-27-32.2c-1-9.4,0.1-19,1.2-28.3c1.1-9.1,2.1-18.7,6-27.1c5.8-12.4,18.1-20,31.2-22.7
			c14.4-2.9,28.8,0.8,40.9,8.8c14.5,9.6,24.7,24.4,31.4,40.1c2.3,5.3,10,0.7,7.8-4.5c-13.7-31.8-43.7-59.5-80.5-53.4
			c-15.5,2.6-30.5,11.6-37.9,25.8c-4.8,9.1-6.2,19.3-7.5,29.4c-1.4,11.2-2.9,22.5-1.5,33.7c2.4,19.1,15,38.3,35.8,39.4
			C368,442.8,368,433.8,362.2,433.5L362.2,433.5z"/>
	</g>
</g>
<g>
	<g>
		<path d="M434.8,336.4c8-25,33.7-42.7,59.9-40.7c25.9,1.9,47.9,23,52.7,48.1c1.1,5.7,9.8,3.3,8.7-2.4
			c-5.6-29.2-31.7-52.5-61.4-54.7c-30.3-2.2-59.5,18.8-68.6,47.3C424.4,339.5,433,341.9,434.8,336.4L434.8,336.4z"/>
	</g>
</g>
<g>
	<g>
		<path d="M541.2,317.5c28.8-16.1,66.2-14.3,92.6,5.9c12.1,9.2,21.7,21.9,27.4,36c2.8,7,4.8,14.4,5.7,21.8c0.8,6.4,2,16.7-4.2,21
			c-4.7,3.3-0.2,11.1,4.5,7.8c11.3-7.8,9.9-23.2,7.8-35.1c-2.4-13.8-8.2-27.2-16.4-38.5c-17.1-23.6-43.8-37.9-73-38.7
			c-17.1-0.5-34.1,3.7-49,12.1C531.6,312.6,536.1,320.3,541.2,317.5L541.2,317.5z"/>
	</g>
</g>
<g>
	<g>
		<path d="M376.4,422.9c-15.8,2.9-27.4,16-32.2,30.9c-5.8,18.4-1.3,38.9,4.8,56.6c5.6,16.4,14.8,31.8,30.6,40
			c15.1,7.9,33.1,9.2,49.5,4.9c20-5.2,37.1-17.9,51.1-32.7c4-4.2-2.4-10.6-6.4-6.4c-20.8,22-50.7,39.6-81.7,29.7
			c-14.9-4.8-25.1-15.8-31.4-29.9c-6.6-15-11.5-33-9.9-49.5c1.5-16,11.2-31.9,27.9-35C384.5,430.6,382.1,421.9,376.4,422.9
			L376.4,422.9z"/>
	</g>
</g>
<g>
	<g>
		<path d="M447.8,549.5c12.2,6.7,22.5,16.3,34,24.1c11.1,7.5,23.4,12.3,36.8,12.9c26.5,1.1,51.7-13.9,62.5-38.2
			c5.9-13.3,7.5-27.8,4.4-42c-1.2-5.7-9.9-3.3-8.7,2.4c6.5,30.2-12.7,60.7-42.8,67.5c-15.2,3.4-30.5,0.4-43.7-7.7
			c-13.2-8.1-24.3-19.2-38-26.7C447.3,538.9,442.8,546.7,447.8,549.5L447.8,549.5z"/>
	</g>
</g>
<g>
	<g>
		<path d="M591.7,542c21.2,20.1,57,21.2,78.9,1.5c21.4-19.2,24.3-55,6.9-77.7c-3.5-4.5-11.3-0.1-7.8,4.5
			c14.7,19.2,13.3,48.9-4.5,65.9c-18.1,17.2-49.2,16.4-67.1-0.6C593.9,531.7,587.5,538,591.7,542L591.7,542z"/>
	</g>
</g>
<g>
	<g>
		<path d="M417.7,612.1c-10.9,6.1-13.5,20.7-8,31.4c6.3,12.3,21.9,16.7,34.8,15.2c12.9-1.5,25.1-9.9,30.9-21.5
			c5.6-11.2,3.5-24.4-6.7-32.2c-11.9-9.1-28.8-7.3-42.6-5.1c-5.7,0.9-3.3,9.6,2.4,8.7c10.8-1.7,25.3-3.6,34.7,3.5
			c10.5,7.9,6.3,21.2-1.8,29c-9.1,8.8-23.2,11.8-34.8,6.2c-5.4-2.5-9.6-7.1-10.5-13.1c-0.9-5.7,1.1-11.5,6.2-14.4
			C427.3,617,422.8,609.3,417.7,612.1L417.7,612.1z"/>
	</g>
</g>
<g>
	<g>
		<path d="M367,718.2c0.3,12.1,9.2,23.1,21.1,25.9c12,2.9,23.6-3.8,28.8-14.7c5-10.5,3-22.8-6-30.4c-8.7-7.3-21.5-8.8-31.4-3
			c-5,2.9-0.5,10.7,4.5,7.8c13.9-8.1,31.7,5.7,25.1,21c-3,7-10.1,12.2-18,10.7c-8.2-1.5-14.9-9-15.1-17.4
			C375.8,712.4,366.8,712.4,367,718.2L367,718.2z"/>
	</g>
</g>
<g>
	<g>
		<path d="M671.5,359.7c43,28.8,47.3,98.8,9,133.2c-4.3,3.9,2.1,10.2,6.4,6.4c33.2-29.8,37.2-83.5,14.5-120.8
			c-6.5-10.6-15.1-19.6-25.4-26.6C671.2,348.7,666.7,356.5,671.5,359.7L671.5,359.7z"/>
	</g>
</g>
</svg>
