<?xml version="1.0" encoding="utf-8"?>
<!-- Generator: Adobe Illustrator 23.0.2, SVG Export Plug-In . SVG Version: 6.00 Build 0)  -->
<svg version="1.1" id="Layer_1" xmlns="http://www.w3.org/2000/svg" xmlns:xlink="http://www.w3.org/1999/xlink" x="0px" y="0px"
	 viewBox="0 0 1000 1000" style="enable-background:new 0 0 1000 1000;" xml:space="preserve">
<style type="text/css">
	.st0{opacity:0.7;fill:#FFCC6E;}
	.st1{opacity:0.7;fill:#F53625;}
	.st2{opacity:0.7;fill:#FFE1AB;}
	.st3{opacity:0.7;fill:#998765;}
</style>
<g>
	<path class="st0" d="M407.8,559.9c-0.9,28.6,0.6,57.3,4.3,85.8c1.3,10,3.2,20.6,9.7,28.3c10.2,12,28,13.1,43.7,13.3
		c19.2,0.3,38.3,0.5,57.5,0.8c18.3,0.2,39-0.5,51.2-14.2c6.5-7.3,9.2-17.1,11.4-26.6c7.5-33.6,8.9-68.5,4.3-102.7
		c-1.6-11.6-5.3-24.9-16.1-29.3c-3.3-1.4-7-1.7-10.6-1.9c-38.4-3-80.8-9.2-119.2-5.4C412.3,511,408.7,528.6,407.8,559.9z"/>
	<path class="st1" d="M617.2,646.1c0.2-1.1,0.3-2.3,0.3-3.3c0.3-26.8-0.5-53.6-2.3-80.3c0.6-13.9,0.9-27.7,0.7-41.6
		c-0.1-6.3-0.4-13-4.1-18c-2.8-3.6-6.8-5.7-11.2-6.8c-0.9-1.5-2.1-2.9-3.6-3.9c-5.3-3.6-12.1-3.8-18.5-3.8c-6.8,0-34.5-0.4-63.8,0.5
		c-26.8-1.4-54.6-1-77.2,5c-12.6-3.4-26.9-2.2-40.3-0.7c-0.9,0.1-1.7,0.2-2.6,0.4c-0.3-0.2-0.5-0.3-0.8-0.5
		c-0.4,0.3-0.9,0.6-1.3,0.9c-6.9,1.6-13.7,5-13.5,11.6l3.7,1.6c-5.8,14.5-4.9,34.6-4.8,47.8c0.2,23,0.4,46,0.6,68.9
		c0.1,18.3,0.4,37,4.1,54.8c-1,3.4-2.7,6.6-4.9,9.3l7-0.8c1.4,4.9,3.1,9.7,5.1,14.4c7,4.6,16.4,0.9,21.7-5.8
		c8.5,0.7,17.1,1.5,25.6,2.2c18.5,4.5,39.5,5.6,60.6,5.2c2.6,0.2,5.2,0.5,7.8,0.7c27.1,2.3,54.6,4.7,81.3-0.7
		c7.7-1.5,15.5-3.9,21.4-9C621.1,683,620.2,663.4,617.2,646.1z M405,508.7c0.7-0.1,1.4-0.3,2.2-0.4c-0.6,0.5-1.3,1.1-1.9,1.6
		C405.2,509.5,405.1,509.1,405,508.7z M588.8,678c-0.1,0.4-0.3,0.9-0.4,1.3c-2.1,2-4.3,3.8-6.6,5.5c-12.8,2.6-48,5.1-80.9,7.2
		c-28.9-0.3-57.9,0.5-85.4-4.9c2-8.5,0.3-17.7-1.2-26.4c-7.6-42.4-10.4-85.6-8.3-128.6c0.3-7.3,0.8-14.7-0.6-21.9
		c18.1,2.3,36.5,1.1,55-1.2c34.4,2.3,95.3-0.8,125.2-0.9c2.6,3.8,3.5,9,4.2,13.7C597.5,573.8,605.1,628,588.8,678z"/>
	<path class="st1" d="M473.2,569.3c-14.8,0.9-29.2,6.9-40.3,16.8c-1.6,1.4-3.2,3.1-3.3,5.2c-0.2,3.5,3.7,5.6,7,6.8
		c5.6,2.1,11.3,4.2,17,6.3c1.5,0.6,3.1,1.2,4.1,2.4c1,1.2,1.3,2.8,1.4,4.3c0.5,7.5-3.4,14.6-4.6,22.1c-1.2,7.5,2.1,17.1,9.6,17.7
		c3.6,0.3,7-1.6,10.1-3.6c9.2-5.8,17.9-12.4,26-19.6c7.6,7.7,17.5,13.2,28.1,15.5c4.7,1,9.7,1.4,14-0.8c7-3.7,8.9-13.3,6.2-20.7
		c-2.6-7.4-8.6-13.1-14.4-18.3c6.2-3,12.6-6.1,16.7-11.5s5.2-13.9,0.5-18.8c-7.6-7.9-22.5-1.2-31.1-8.2c-2.2-1.8-3.7-4.3-5.2-6.6
		c-3.9-5.9-17.2-24.8-25.5-23.3C479.6,536.5,474.1,561.6,473.2,569.3z"/>
	<path class="st2" d="M410.2,486.1c57.7-4.4,115.3-11.3,173.1-10.3c7,0.1,14.3,0.3,20.7-2.6c6.4-2.9,11.6-9.9,9.9-16.7
		c-68.9-12.2-167.2-41.6-214.1,25.2C402,485.9,405.5,486.5,410.2,486.1z"/>
	<path class="st3" d="M645,583.8c-3.8-39-7.3-79.2-15.8-117.5c-37.1,13-11.5,62.4-8,89.9c2.4,18.7,8.5,107.6-3.6,125.4
		c4.9-7.2,23.8-27,27.2-44.5C648.1,619.7,646.7,601.6,645,583.8z"/>
	<g>
		<path d="M404,511.9c-4.5,9.5-5.4,19.8-5.2,30.3c0.2,11.8,1,23.7,1.6,35.5c1.4,24.2,3.3,48.3,5.7,72.4c0.4,4.4,6.3,4.3,6.8,0
			c0.1-1,0.2-2.1,0.3-3.2c0.5-4.3-6.3-4.3-6.8,0c-0.1,1-0.2,2.1-0.3,3.2c2.3,0,4.5,0,6.8,0c-2.3-23.1-4.1-46.2-5.5-69.4
			c-0.7-11.3-1.2-22.6-1.7-33.8c-0.4-10.6-0.5-21.6,4.1-31.4C411.7,511.4,405.8,508,404,511.9L404,511.9z"/>
	</g>
	<g>
		<path d="M409.8,516.3c42-3.1,84.1-4.6,126.2-4.5c10.4,0,20.8,0.1,31.2,0.4c3.8,0.1,8,0.1,11.4,1.9c3.9,2.1,5.2,6.3,6,10.4
			c1.7,9.8,2.1,20.1,2.7,30c0.7,10.3,1,20.7,1.1,31.1c0.2,23.7-1,47.4-3.6,70.9c-0.5,4.3,6.3,4.3,6.8,0c4.8-43.3,5.6-87.9-0.1-131.2
			c-1.1-8-4.1-15.4-12.3-18.3c-3.7-1.3-7.7-1.5-11.5-1.6c-5.6-0.1-11.3-0.2-16.9-0.3c-22.3-0.2-44.6,0-66.9,0.6
			c-24.8,0.7-49.5,2-74.2,3.8C405.4,509.9,405.4,516.7,409.8,516.3L409.8,516.3z"/>
	</g>
	<g>
		<path d="M411.9,661.6c-0.8,5.1-1.4,10.7,0.8,15.6c2.4,5.5,7.4,7.2,13,8c15.1,2.1,30.3,4.1,45.5,5.6c30,3,60.7,4,90.5-1.3
			c12.8-2.3,28.2-9.4,27.4-24.8c-0.2-4.3-7-4.4-6.8,0c0.7,12.7-13.8,16.8-23.7,18.5c-12.7,2.1-25.5,3.1-38.3,3.2
			c-25.8,0.4-51.4-2.4-76.9-5.7c-3.8-0.5-7.7-1-11.5-1.5c-3.1-0.4-6.9-0.4-9.8-1.6c-5.3-2.2-4.4-9.5-3.6-14.2
			C419.1,659.1,412.6,657.3,411.9,661.6L411.9,661.6z"/>
	</g>
	<g>
		<path d="M382.9,493.3c-4.5,0.7-6.5,5.2-7,9.2c-0.9,6.4-0.8,13-1.1,19.5c-0.5,14-0.7,28-0.4,42c0.5,27.8,2.4,55.5,5.8,83
			c0.9,7.4,1.9,14.7,3,22.1c0.6,3.9,1.2,7.8,1.9,11.6c0.3,1.9,0.7,3.9,1,5.8c0.1,0.7,0.2,1.5,0.4,2.2c-0.1-0.2,1.2,3.5,0.7,3.1
			c3.4,2.6,8.2-2.1,4.8-4.8c-3.8-2.9-9.8-1.2-10.4,4c-0.5,5.1,5.4,7.3,9.3,4.8c2-1.3,2.8-3.3,2.6-5.6c-0.3-4-1.4-8.1-2.1-12.1
			c-1.4-8.4-2.7-16.9-3.8-25.3c-4.4-33.4-6.6-67-6.6-100.7c0-9.3,0.1-18.7,0.5-28c0.2-4.7,0.4-9.3,0.6-14c0.1-2.2-0.6-10,2.6-10.4
			C389,499.2,387.1,492.6,382.9,493.3L382.9,493.3z"/>
	</g>
	<g>
		<path d="M383.5,495.2c45.9-5.2,92-8.6,138.1-10.1c11.9-0.4,23.8-0.6,35.7-0.8c11.2-0.1,22.5-0.5,33.6,0c4.6,0.2,9,1.2,12.2,4.8
			c2.9,3.2,4.3,7.4,5.4,11.5c2.5,10.1,3.4,20.8,4.3,31.2c4.2,45.4,1.7,91.1-1,136.5c-0.6,10-2,20-10.2,26.8
			c-6.5,5.4-15,7.8-23.1,9.3c-21.1,3.8-43.2,2.8-64.5,1.3c-25-1.8-50-5.1-75-6.1c-6.2-0.2-12.5-0.4-18.8-0.3
			c-6,0.1-12.1,0.7-18.1,0.4c-5.2-0.2-10.9-1.3-14.5-5.4c-2.7-3.1-4.7-8.3-1.9-11.9c2.6-3.4-2.1-8.2-4.8-4.8
			c-5.2,6.7-3.6,15.4,1.9,21.5c6.8,7.4,17.7,7.7,27,7.3c24.5-1,48.8,1,73.2,3.3c24.2,2.3,48.4,4.7,72.7,3.7c18-0.8,41.2-2,54-16.8
			c6.9-8,8.3-18.2,8.9-28.3c0.7-12.2,1.4-24.4,1.9-36.6c1.2-25,1.8-50,0.7-75c-0.5-12.2-1.4-24.4-2.9-36.6
			c-1.2-9.9-1.9-20.5-6.3-29.6c-4.4-9.2-12.6-12.7-22.5-13c-12.2-0.4-24.6-0.1-36.8,0.1c-50.4,0.7-100.7,3.6-150.9,8.8
			c-6.2,0.6-12.3,1.3-18.5,2C379.3,489,379.2,495.7,383.5,495.2L383.5,495.2z"/>
	</g>
	<g>
		<path d="M411.6,492.9c-0.8-2.1-2.5-3.5-4.8-3.6c-1.9-0.1-3.8,0.9-4.8,2.5c-0.9,1.5-0.4,3.8,1.2,4.6c1.6,0.9,3.7,0.4,4.6-1.2
			c0.3-0.5-0.6,0.6-0.2,0.2c0,0-0.7,0.5-0.3,0.3c-0.6,0.2-0.7,0.3-0.5,0.2c0.3-0.1,0.1,0-0.5,0.1c0.1,0,0.2,0,0.4,0
			c0.3,0-0.9-0.1-0.4,0c0.5,0.1-0.7-0.3-0.4-0.1s-0.6-0.6-0.3-0.2c-0.1-0.2-0.2-0.3-0.4-0.5c0.2,0.3,0.1,0.1-0.2-0.4
			c0.6,1.7,2.3,3,4.2,2.4C410.9,496.5,412.2,494.7,411.6,492.9L411.6,492.9z"/>
	</g>
	<g>
		<path d="M610.7,485.6c7.7-8.5,15.5-17.1,23.2-25.6c2.9-3.2-1.9-8-4.8-4.8c-7.7,8.5-15.5,17.1-23.2,25.6
			C603,484,607.8,488.8,610.7,485.6L610.7,485.6z"/>
	</g>
	<g>
		<path d="M390.8,493.5c14.9-21.1,37-36.5,61.9-43.4c4.2-1.2,2.4-7.7-1.8-6.5c-26.6,7.4-50,23.9-65.9,46.5
			C382.5,493.6,388.3,497,390.8,493.5L390.8,493.5z"/>
	</g>
	<g>
		<path d="M444.6,453.3c25.4-6,51.9-7.4,77.9-8.8c24.4-1.3,49.1-1.6,73.3,2.7c13.5,2.4,26.7,6.2,39.2,11.9c3.9,1.8,7.4-4,3.4-5.9
			C591.7,432,538.7,436,489,440.1c-15.5,1.3-31,3.1-46.1,6.7C438.6,447.8,440.4,454.3,444.6,453.3L444.6,453.3z"/>
	</g>
	<g>
		<path d="M625,458.2c8,15,11.3,31.8,13.2,48.6c2.1,18.2,3.4,36.5,4.5,54.7c2,33,5.3,69.8-10.9,100.1c-7.7,14.3-19.5,26.7-35,32.4
			c-4.1,1.5-2.3,8,1.8,6.5c30.6-11.2,46.5-42.6,50.7-73.2c2.6-18.9,1.7-38,0.7-56.9c-1-19.5-2.5-38.9-4.5-58.3
			c-2-19.7-5.2-39.6-14.7-57.2C628.7,450.9,622.9,454.4,625,458.2L625,458.2z"/>
	</g>
	<g>
		<path d="M633.9,511.4c-4,11.7-8,23.5-12,35.2c-1.4,4.1,5.1,5.9,6.5,1.8c4-11.7,8-23.5,12-35.2
			C641.8,509.1,635.3,507.3,633.9,511.4L633.9,511.4z"/>
	</g>
	<g>
		<path d="M635.1,566c-2.5,7.1-4.9,14.2-7.3,21.3c-1.4,4.1,5.1,5.9,6.5,1.8c2.5-7.1,4.9-14.2,7.3-21.3
			C643.1,563.6,636.5,561.8,635.1,566L635.1,566z"/>
	</g>
	<g>
		<path d="M633.2,600.3c-0.9,3.5-1.8,7.1-2.6,10.6c-1,4.2,5.5,6,6.5,1.8c0.9-3.5,1.8-7.1,2.6-10.6
			C640.7,597.8,634.2,596,633.2,600.3L633.2,600.3z"/>
	</g>
	<g>
		<path d="M467.6,564.9c0,0.2-0.1,0.3-0.2,0.5c0.8-0.8,1.6-1.6,2.4-2.4c-0.2,0-0.4,0.1-0.6,0.2c0.9,0.1,1.7,0.2,2.6,0.3
			c-0.2-0.1-0.4-0.2-0.5-0.2c0.5,0.7,1,1.3,1.6,2c-0.5-1.8,2.2-6.9,3-8.7c1.2-2.7,2.7-5.3,4.3-7.8c3-4.7,8.1-11.9,14.4-12
			c6.2,0,10.2,7.9,12.9,12.4c3.6,6.1,6.6,12.5,8.9,19.1c1.4,4.1,8,2.3,6.5-1.8c-3.4-9.7-8-19.3-14.1-27.7
			c-5.4-7.4-13.5-11.5-22.2-6.5c-8,4.7-13.7,14.1-17.3,22.5c-1.4,3.2-4.6,9-2.8,12.5c1.8,3.5,6.4,2.7,7.6-0.8
			C475.5,562.6,469,560.8,467.6,564.9L467.6,564.9z"/>
	</g>
	<g>
		<path d="M468.5,564.1c-8.8,1.8-17.2,4.4-25.5,7.9c-6.7,2.8-14.1,6.4-16.9,13.7c-2.5,6.6,0,13.3,6.3,16.6c7.8,4,16.8,6.4,25,9.3
			c4.1,1.5,5.9-5,1.8-6.5c-6.7-2.4-13.4-4.8-20.1-7.3c-2.4-0.9-5.5-1.9-6.7-4.4c-1.3-2.7,0.1-6.1,1.9-8.2c3.9-4.6,10.7-6.8,16.1-8.8
			c6.5-2.4,13.1-4.3,19.9-5.6C474.6,569.8,472.8,563.3,468.5,564.1L468.5,564.1z"/>
	</g>
	<g>
		<path d="M456.4,606.5c-3.9,8.1-6,16.9-6,25.9c0,6.7,1,15.3,7.4,19.2c6.6,4,16.5-0.6,22.8-3.2c8.2-3.4,15.6-8,22.4-13.7
			c3.4-2.8-1.5-7.6-4.8-4.8c-5.2,4.4-11,8-17.2,10.9c-3.1,1.5-6.4,2.7-9.7,3.7c-2.6,0.8-6.6,2.5-9.3,1.6c-5.1-1.8-4.9-10.9-4.8-15
			c0.1-7.3,1.9-14.5,5-21.2C464.1,606,458.2,602.6,456.4,606.5L456.4,606.5z"/>
	</g>
	<g>
		<path d="M500.3,633.3c6.1,5.8,12.8,11.5,20.8,14.4c8.4,3.1,16.7,1.4,24-3.5c3-2,6-4.4,7.6-7.7c1.8-3.8,1.1-7.9,0-11.8
			c-2.5-8.7-7-16.5-12.8-23.3c-2.8-3.3-7.6,1.5-4.8,4.8c4.3,5.1,7.8,11,10.1,17.3c1.1,3.2,2.9,7.4,1.2,10.6
			c-1.3,2.6-4.5,4.3-6.8,5.8c-13,7.6-25.2-2.6-34.4-11.3C501.9,625.5,497.1,630.3,500.3,633.3L500.3,633.3z"/>
	</g>
	<g>
		<path d="M520.5,570.1c9.2-3.6,20.1-1.8,27.2,5.3c2,2,4.1,4.4,4.3,7.3c0.3,3-1.7,5-3.9,6.7c-5,3.9-10.8,7.1-16.2,10.6
			c-3.7,2.4-0.3,8.2,3.4,5.8c3.9-2.5,7.8-5,11.6-7.5c3-1.9,6.2-3.8,8.5-6.5c5.1-5.8,3.7-13.1-0.9-18.8c-8.3-10.4-23.6-14.2-35.9-9.4
			C514.7,565.2,516.4,571.7,520.5,570.1L520.5,570.1z"/>
	</g>
	<g>
		<path d="M425.5,551.8c4-0.7,7.9-1.5,11.9-2.2c4.3-0.8,2.5-7.3-1.8-6.5c-4,0.7-7.9,1.5-11.9,2.2C419.5,546,421.3,552.6,425.5,551.8
			L425.5,551.8z"/>
	</g>
	<g>
		<path d="M554.4,544.4c12.5,3.2,25.6,2.5,37.6-2.2c4-1.6,2.3-8.1-1.8-6.5c-10.9,4.3-22.6,5.1-34,2.2
			C552,536.8,550.2,543.3,554.4,544.4L554.4,544.4z"/>
	</g>
	<g>
		<path d="M616.7,626.5c-3.2,1.5-6.4,3.1-9.6,4.6c-3.9,1.9-0.5,7.7,3.4,5.8c3.2-1.5,6.4-3.1,9.6-4.6
			C624,630.5,620.6,624.7,616.7,626.5L616.7,626.5z"/>
	</g>
	<g>
		<path d="M466.1,471.7c4.4,0,4.4-6.8,0-6.8C461.7,464.9,461.7,471.7,466.1,471.7L466.1,471.7z"/>
	</g>
	<g>
		<path d="M516.1,460.5c4.4,0,4.4-6.8,0-6.8C511.8,453.7,511.8,460.5,516.1,460.5L516.1,460.5z"/>
	</g>
	<g>
		<path d="M566.3,443.6c-2.4,3.1-4.8,6.3-7.3,9.4c-1.1,1.4-1.4,3.4,0,4.8c1.2,1.2,3.7,1.5,4.8,0c2.4-3.1,4.8-6.3,7.3-9.4
			c1.1-1.4,1.4-3.4,0-4.8C569.9,442.5,567.4,442.2,566.3,443.6L566.3,443.6z"/>
	</g>
</g>
</svg>
