<svg xmlns="http://www.w3.org/2000/svg" width="1000" height="1000"><style>.st1{opacity:.7;fill:#f53625}</style><path d="M407.8 559.9c-.9 28.6.6 57.3 4.3 85.8 1.3 10 3.2 20.6 9.7 28.3 10.2 12 28 13.1 43.7 13.3 19.2.3 38.3.5 57.5.8 18.3.2 39-.5 51.2-14.2 6.5-7.3 9.2-17.1 11.4-26.6 7.5-33.6 8.9-68.5 4.3-102.7-1.6-11.6-5.3-24.9-16.1-29.3-3.3-1.4-7-1.7-10.6-1.9-38.4-3-80.8-9.2-119.2-5.4-31.7 3-35.3 20.6-36.2 51.9z" opacity=".7" fill="#ffcc6e"/><path class="st1" d="M617.2 646.1c.2-1.1.3-2.3.3-3.3.3-26.8-.5-53.6-2.3-80.3.6-13.9.9-27.7.7-41.6-.1-6.3-.4-13-4.1-18-2.8-3.6-6.8-5.7-11.2-6.8-.9-1.5-2.1-2.9-3.6-3.9-5.3-3.6-12.1-3.8-18.5-3.8-6.8 0-34.5-.4-63.8.5-26.8-1.4-54.6-1-77.2 5-12.6-3.4-26.9-2.2-40.3-.7-.9.1-1.7.2-2.6.4-.3-.2-.5-.3-.8-.5-.4.3-.9.6-1.3.9-6.9 1.6-13.7 5-13.5 11.6l3.7 1.6c-5.8 14.5-4.9 34.6-4.8 47.8l.6 68.9c.1 18.3.4 37 4.1 54.8-1 3.4-2.7 6.6-4.9 9.3l7-.8c1.4 4.9 3.1 9.7 5.1 14.4 7 4.6 16.4.9 21.7-5.8 8.5.7 17.1 1.5 25.6 2.2 18.5 4.5 39.5 5.6 60.6 5.2 2.6.2 5.2.5 7.8.7 27.1 2.3 54.6 4.7 81.3-.7 7.7-1.5 15.5-3.9 21.4-9 12.9-11.2 12-30.8 9-48.1zM405 508.7c.7-.1 1.4-.3 2.2-.4-.6.5-1.3 1.1-1.9 1.6l-.3-1.2zM588.8 678c-.1.4-.3.9-.4 1.3-2.1 2-4.3 3.8-6.6 5.5-12.8 2.6-48 5.1-80.9 7.2-28.9-.3-57.9.5-85.4-4.9 2-8.5.3-17.7-1.2-26.4-7.6-42.4-10.4-85.6-8.3-128.6.3-7.3.8-14.7-.6-21.9 18.1 2.3 36.5 1.1 55-1.2 34.4 2.3 95.3-.8 125.2-.9 2.6 3.8 3.5 9 4.2 13.7 7.7 52 15.3 106.2-1 156.2z"/><path class="st1" d="M473.2 569.3c-14.8.9-29.2 6.9-40.3 16.8-1.6 1.4-3.2 3.1-3.3 5.2-.2 3.5 3.7 5.6 7 6.8 5.6 2.1 11.3 4.2 17 6.3 1.5.6 3.1 1.2 4.1 2.4 1 1.2 1.3 2.8 1.4 4.3.5 7.5-3.4 14.6-4.6 22.1-1.2 7.5 2.1 17.1 9.6 17.7 3.6.3 7-1.6 10.1-3.6 9.2-5.8 17.9-12.4 26-19.6 7.6 7.7 17.5 13.2 28.1 15.5 4.7 1 9.7 1.4 14-.8 7-3.7 8.9-13.3 6.2-20.7-2.6-7.4-8.6-13.1-14.4-18.3 6.2-3 12.6-6.1 16.7-11.5s5.2-13.9.5-18.8c-7.6-7.9-22.5-1.2-31.1-8.2-2.2-1.8-3.7-4.3-5.2-6.6-3.9-5.9-17.2-24.8-25.5-23.3-9.9 1.5-15.4 26.6-16.3 34.3z"/><path d="M410.2 486.1c57.7-4.4 115.3-11.3 173.1-10.3 7 .1 14.3.3 20.7-2.6 6.4-2.9 11.6-9.9 9.9-16.7-68.9-12.2-167.2-41.6-214.1 25.2 2.2 4.2 5.7 4.8 10.4 4.4z" opacity=".7" fill="#ffe1ab"/><path d="M645 583.8c-3.8-39-7.3-79.2-15.8-117.5-37.1 13-11.5 62.4-8 89.9 2.4 18.7 8.5 107.6-3.6 125.4 4.9-7.2 23.8-27 27.2-44.5 3.3-17.4 1.9-35.5.2-53.3z" opacity=".7" fill="#998765"/><path d="M404 511.9c-4.5 9.5-5.4 19.8-5.2 30.3.2 11.8 1 23.7 1.6 35.5 1.4 24.2 3.3 48.3 5.7 72.4.4 4.4 6.3 4.3 6.8 0 .1-1 .2-2.1.3-3.2.5-4.3-6.3-4.3-6.8 0-.1 1-.2 2.1-.3 3.2h6.8c-2.3-23.1-4.1-46.2-5.5-69.4-.7-11.3-1.2-22.6-1.7-33.8-.4-10.6-.5-21.6 4.1-31.4 1.9-4.1-4-7.5-5.8-3.6z"/><path d="M409.8 516.3c42-3.1 84.1-4.6 126.2-4.5 10.4 0 20.8.1 31.2.4 3.8.1 8 .1 11.4 1.9 3.9 2.1 5.2 6.3 6 10.4 1.7 9.8 2.1 20.1 2.7 30 .7 10.3 1 20.7 1.1 31.1.2 23.7-1 47.4-3.6 70.9-.5 4.3 6.3 4.3 6.8 0 4.8-43.3 5.6-87.9-.1-131.2-1.1-8-4.1-15.4-12.3-18.3-3.7-1.3-7.7-1.5-11.5-1.6l-16.9-.3c-22.3-.2-44.6 0-66.9.6-24.8.7-49.5 2-74.2 3.8-4.3.4-4.3 7.2.1 6.8zm2.1 145.3c-.8 5.1-1.4 10.7.8 15.6 2.4 5.5 7.4 7.2 13 8 15.1 2.1 30.3 4.1 45.5 5.6 30 3 60.7 4 90.5-1.3 12.8-2.3 28.2-9.4 27.4-24.8-.2-4.3-7-4.4-6.8 0 .7 12.7-13.8 16.8-23.7 18.5-12.7 2.1-25.5 3.1-38.3 3.2-25.8.4-51.4-2.4-76.9-5.7-3.8-.5-7.7-1-11.5-1.5-3.1-.4-6.9-.4-9.8-1.6-5.3-2.2-4.4-9.5-3.6-14.2.6-4.3-5.9-6.1-6.6-1.8zm-29-168.3c-4.5.7-6.5 5.2-7 9.2-.9 6.4-.8 13-1.1 19.5-.5 14-.7 28-.4 42 .5 27.8 2.4 55.5 5.8 83 .9 7.4 1.9 14.7 3 22.1.6 3.9 1.2 7.8 1.9 11.6.3 1.9.7 3.9 1 5.8.1.7.2 1.5.4 2.2-.1-.2 1.2 3.5.7 3.1 3.4 2.6 8.2-2.1 4.8-4.8-3.8-2.9-9.8-1.2-10.4 4-.5 5.1 5.4 7.3 9.3 4.8 2-1.3 2.8-3.3 2.6-5.6-.3-4-1.4-8.1-2.1-12.1-1.4-8.4-2.7-16.9-3.8-25.3-4.4-33.4-6.6-67-6.6-100.7 0-9.3.1-18.7.5-28 .2-4.7.4-9.3.6-14 .1-2.2-.6-10 2.6-10.4 4.3-.5 2.4-7.1-1.8-6.4z"/><path d="M383.5 495.2c45.9-5.2 92-8.6 138.1-10.1 11.9-.4 23.8-.6 35.7-.8 11.2-.1 22.5-.5 33.6 0 4.6.2 9 1.2 12.2 4.8 2.9 3.2 4.3 7.4 5.4 11.5 2.5 10.1 3.4 20.8 4.3 31.2 4.2 45.4 1.7 91.1-1 136.5-.6 10-2 20-10.2 26.8-6.5 5.4-15 7.8-23.1 9.3-21.1 3.8-43.2 2.8-64.5 1.3-25-1.8-50-5.1-75-6.1-6.2-.2-12.5-.4-18.8-.3-6 .1-12.1.7-18.1.4-5.2-.2-10.9-1.3-14.5-5.4-2.7-3.1-4.7-8.3-1.9-11.9 2.6-3.4-2.1-8.2-4.8-4.8-5.2 6.7-3.6 15.4 1.9 21.5 6.8 7.4 17.7 7.7 27 7.3 24.5-1 48.8 1 73.2 3.3 24.2 2.3 48.4 4.7 72.7 3.7 18-.8 41.2-2 54-16.8 6.9-8 8.3-18.2 8.9-28.3.7-12.2 1.4-24.4 1.9-36.6 1.2-25 1.8-50 .7-75-.5-12.2-1.4-24.4-2.9-36.6-1.2-9.9-1.9-20.5-6.3-29.6-4.4-9.2-12.6-12.7-22.5-13-12.2-.4-24.6-.1-36.8.1-50.4.7-100.7 3.6-150.9 8.8-6.2.6-12.3 1.3-18.5 2-4 .6-4.1 7.3.2 6.8z"/><path d="M411.6 492.9c-.8-2.1-2.5-3.5-4.8-3.6-1.9-.1-3.8.9-4.8 2.5-.9 1.5-.4 3.8 1.2 4.6 1.6.9 3.7.4 4.6-1.2.3-.5-.6.6-.2.2 0 0-.7.5-.3.3-.6.2-.7.3-.5.2.3-.1.1 0-.5.1h.4c.3 0-.9-.1-.4 0s-.7-.3-.4-.1-.6-.6-.3-.2c-.1-.2-.2-.3-.4-.5.2.3.1.1-.2-.4.6 1.7 2.3 3 4.2 2.4 1.7-.7 3-2.5 2.4-4.3zm199.1-7.3c7.7-8.5 15.5-17.1 23.2-25.6 2.9-3.2-1.9-8-4.8-4.8-7.7 8.5-15.5 17.1-23.2 25.6-2.9 3.2 1.9 8 4.8 4.8zm-219.9 7.9c14.9-21.1 37-36.5 61.9-43.4 4.2-1.2 2.4-7.7-1.8-6.5-26.6 7.4-50 23.9-65.9 46.5-2.5 3.5 3.3 6.9 5.8 3.4z"/><path d="M444.6 453.3c25.4-6 51.9-7.4 77.9-8.8 24.4-1.3 49.1-1.6 73.3 2.7 13.5 2.4 26.7 6.2 39.2 11.9 3.9 1.8 7.4-4 3.4-5.9C591.7 432 538.7 436 489 440.1c-15.5 1.3-31 3.1-46.1 6.7-4.3 1-2.5 7.5 1.7 6.5z"/><path d="M625 458.2c8 15 11.3 31.8 13.2 48.6 2.1 18.2 3.4 36.5 4.5 54.7 2 33 5.3 69.8-10.9 100.1-7.7 14.3-19.5 26.7-35 32.4-4.1 1.5-2.3 8 1.8 6.5 30.6-11.2 46.5-42.6 50.7-73.2 2.6-18.9 1.7-38 .7-56.9-1-19.5-2.5-38.9-4.5-58.3-2-19.7-5.2-39.6-14.7-57.2-2.1-4-7.9-.5-5.8 3.3z"/><path d="M633.9 511.4c-4 11.7-8 23.5-12 35.2-1.4 4.1 5.1 5.9 6.5 1.8 4-11.7 8-23.5 12-35.2 1.4-4.1-5.1-5.9-6.5-1.8zm1.2 54.6c-2.5 7.1-4.9 14.2-7.3 21.3-1.4 4.1 5.1 5.9 6.5 1.8 2.5-7.1 4.9-14.2 7.3-21.3 1.5-4.2-5.1-6-6.5-1.8zm-1.9 34.3c-.9 3.5-1.8 7.1-2.6 10.6-1 4.2 5.5 6 6.5 1.8.9-3.5 1.8-7.1 2.6-10.6 1-4.3-5.5-6.1-6.5-1.8zm-165.6-35.4c0 .2-.1.3-.2.5l2.4-2.4c-.2 0-.4.1-.6.2.9.1 1.7.2 2.6.3-.2-.1-.4-.2-.5-.2.5.7 1 1.3 1.6 2-.5-1.8 2.2-6.9 3-8.7 1.2-2.7 2.7-5.3 4.3-7.8 3-4.7 8.1-11.9 14.4-12 6.2 0 10.2 7.9 12.9 12.4 3.6 6.1 6.6 12.5 8.9 19.1 1.4 4.1 8 2.3 6.5-1.8-3.4-9.7-8-19.3-14.1-27.7-5.4-7.4-13.5-11.5-22.2-6.5-8 4.7-13.7 14.1-17.3 22.5-1.4 3.2-4.6 9-2.8 12.5 1.8 3.5 6.4 2.7 7.6-.8 1.4-3.9-5.1-5.7-6.5-1.6z"/><path d="M468.5 564.1c-8.8 1.8-17.2 4.4-25.5 7.9-6.7 2.8-14.1 6.4-16.9 13.7-2.5 6.6 0 13.3 6.3 16.6 7.8 4 16.8 6.4 25 9.3 4.1 1.5 5.9-5 1.8-6.5-6.7-2.4-13.4-4.8-20.1-7.3-2.4-.9-5.5-1.9-6.7-4.4-1.3-2.7.1-6.1 1.9-8.2 3.9-4.6 10.7-6.8 16.1-8.8 6.5-2.4 13.1-4.3 19.9-5.6 4.3-1 2.5-7.5-1.8-6.7z"/><path d="M456.4 606.5c-3.9 8.1-6 16.9-6 25.9 0 6.7 1 15.3 7.4 19.2 6.6 4 16.5-.6 22.8-3.2 8.2-3.4 15.6-8 22.4-13.7 3.4-2.8-1.5-7.6-4.8-4.8-5.2 4.4-11 8-17.2 10.9-3.1 1.5-6.4 2.7-9.7 3.7-2.6.8-6.6 2.5-9.3 1.6-5.1-1.8-4.9-10.9-4.8-15 .1-7.3 1.9-14.5 5-21.2 1.9-3.9-4-7.3-5.8-3.4z"/><path d="M500.3 633.3c6.1 5.8 12.8 11.5 20.8 14.4 8.4 3.1 16.7 1.4 24-3.5 3-2 6-4.4 7.6-7.7 1.8-3.8 1.1-7.9 0-11.8-2.5-8.7-7-16.5-12.8-23.3-2.8-3.3-7.6 1.5-4.8 4.8 4.3 5.1 7.8 11 10.1 17.3 1.1 3.2 2.9 7.4 1.2 10.6-1.3 2.6-4.5 4.3-6.8 5.8-13 7.6-25.2-2.6-34.4-11.3-3.3-3.1-8.1 1.7-4.9 4.7z"/><path d="M520.5 570.1c9.2-3.6 20.1-1.8 27.2 5.3 2 2 4.1 4.4 4.3 7.3.3 3-1.7 5-3.9 6.7-5 3.9-10.8 7.1-16.2 10.6-3.7 2.4-.3 8.2 3.4 5.8 3.9-2.5 7.8-5 11.6-7.5 3-1.9 6.2-3.8 8.5-6.5 5.1-5.8 3.7-13.1-.9-18.8-8.3-10.4-23.6-14.2-35.9-9.4-3.9 1.6-2.2 8.1 1.9 6.5zm-95-18.3c4-.7 7.9-1.5 11.9-2.2 4.3-.8 2.5-7.3-1.8-6.5-4 .7-7.9 1.5-11.9 2.2-4.2.7-2.4 7.3 1.8 6.5zm128.9-7.4c12.5 3.2 25.6 2.5 37.6-2.2 4-1.6 2.3-8.1-1.8-6.5-10.9 4.3-22.6 5.1-34 2.2-4.2-1.1-6 5.4-1.8 6.5zm62.3 82.1c-3.2 1.5-6.4 3.1-9.6 4.6-3.9 1.9-.5 7.7 3.4 5.8 3.2-1.5 6.4-3.1 9.6-4.6 3.9-1.8.5-7.6-3.4-5.8zM466.1 471.7c4.4 0 4.4-6.8 0-6.8s-4.4 6.8 0 6.8zm50-11.2c4.4 0 4.4-6.8 0-6.8-4.3 0-4.3 6.8 0 6.8zm50.2-16.9c-2.4 3.1-4.8 6.3-7.3 9.4-1.1 1.4-1.4 3.4 0 4.8 1.2 1.2 3.7 1.5 4.8 0 2.4-3.1 4.8-6.3 7.3-9.4 1.1-1.4 1.4-3.4 0-4.8-1.2-1.1-3.7-1.4-4.8 0z"/></svg>