<?xml version="1.0" encoding="utf-8"?>
<!-- Generator: Adobe Illustrator 23.0.2, SVG Export Plug-In . SVG Version: 6.00 Build 0)  -->
<svg version="1.1" id="Layer_1" xmlns="http://www.w3.org/2000/svg" xmlns:xlink="http://www.w3.org/1999/xlink" x="0px" y="0px"
	 viewBox="0 0 1000 1000" style="enable-background:new 0 0 1000 1000;" xml:space="preserve">
<style type="text/css">
	.st0{opacity:0.7;fill:#4FAB2B;}
	.st1{opacity:0.7;fill:#B38752;}
	.st2{opacity:0.7;fill:#307814;}
</style>
<g>
	<path class="st0" d="M922,392.6c-0.9-24.5-22.9-42.4-46.8-37.4c6-17.9-2.7-31.6-25.6-46.2c-15.9-10.1-47.2-6.3-63.8,2.7
		c12.8-10.4,16.4-30.6,7.8-44.8c-8.5-14.1-22.7-35.8-37.9-29.3c11.1-16.1,11.6-29.5-1.2-44.4s-42.9-14.5-60.5-6
		c14.4-30.7,2.3-71.4-26.6-89.2c-27.9-17.2-67.8-10.9-89.4,13.6c7.8-11.9-5.4-31.1-20.8-32c-16.6-0.9-31,10.7-43.5,21.7
		C488.4,68.5,442.6,53,402.5,63.6c-40.1,10.7-72.2,46.9-77.9,88c-24.8-21.9-71.2-6.1-77.5,26.3c-17.9-5.5-39.3,5-45.7,22.6
		s3,39.5,20.3,46.8c-23.3,10.1-47.3,20.5-65,38.7c-17.7,18.2-27.9,46.1-18.2,69.5c4.8,11.6,14.3,21.8,14.5,34.4
		c0.3,12.9-9.2,23.8-18.6,32.7c-9.4,8.9-19.7,18.3-22.1,31c-2.4,12.7,9,28.2,21.3,24c-8.7,8.5-4.7,24.3,4.9,31.8
		c-7.7,2.6-15.3,6.9-17.7,14.5c-2.8,8.8,3.2,18.7,11.6,22.7c8.3,4,18.2,3.5,27.2,1.5c17.7-3.8,34.1-12.8,47.1-25.3
		c18.5,1.8,37,3.6,55.5,5.4c21.6,2.1,48.3,1.8,59-17.1c5.9,30.6,48.9,41.3,75.8,25.3c17.6-10.5,29.1-27.7,37-47l-3.8,12.1
		c5.2-7.7,7.8-16,8.2-24.1c2.1-6.3,3.9-12.8,5.4-19.1l-5.3,16.9c0-18.7-12.2-35.7-33.5-39.2c14.4-15.4,25.5-35.1,39.6-51.1
		c9.7,7.6,23.2,10.3,35.1,6.7c13-4,23.5-15.4,26.3-28.7c1.8,16.8,24.6,22,41,17.6s32.7-13.8,49.2-9.8c5.9,1.5,11.2,4.6,16.3,8.2
		c1,1.7,2,3.4,2.9,5.2c4.4,8.9,6.5,18.9,6.3,28.9c-3.1,7.7-7.8,14.7-14.1,20.2c-6.6,5.9-14.7,10-21.1,16
		c-6.2,5.8-11.1,14.2-9.5,22.5c-0.4,0.3-0.7,0.6-1.1,0.9c-5.7,5.2-8.9,14.6-4.1,20.6c5.9,7.5,17.7,4.1,26.3,0.2
		c5.5-2.5,10.2-4.7,14.6-6.8c1.9-0.4,3.8-1,5.7-1.5c11.7-3.5,23.1-8.6,32.9-15.8c-6.2,19.8-1.7,44.1,16.3,54.3
		c18.3,10.4,60,0.6,73.8-15.3c7.5-8.7,12.2-20.6,22.7-25.3c22.5-10,34.7,30.3,58.8,35.4c14.4,3.1,31.5-18.8,43.5-27.2
		c26.6-18.7,22.6-33.7,10.8-42.5C901.6,451.8,922.9,417,922,392.6z"/>
	<path class="st1" d="M657.5,528.2c-4.2-0.8-8.3,1.6-11.9,3.9c-23.8,15.2-47.7,30.5-71.5,45.7c-0.8,0.5-1.6,1-2.4,1.5
		c-6.2,2.2-12.9,4.5-19.2,6.4c-2.1-0.1-4.2-0.7-6.2-1.7c-9.5-5.1-10.1-18.3-8.8-29c7.2-56.6,34.6-110.5,76.3-149.5
		c-12.2-3.3-23.1-11.2-30-21.8c-22.4,20.1-44.8,40.2-67.2,60.2l3.4-63.8c-11.2,2.8-23.9-1.8-30.8-11.1
		c-6.9,14.8-22.1,25.5-38.4,26.8c14.5,19.9-1.7,53.3-26.3,54.3c17.7,22.5,17.5,57.4-0.6,79.7c35.3,71.6,29.8,155.7,23.6,235.3
		c-0.9,32.6-5.8,68.7-21.1,97.8c-5.8,11.1-27,33.9-26,50.7c34.7-14.6,79.7-21.6,93.6-6c0.4,0.4,0.7,0.8,1,1.2
		c18.6-4.2,37.3-7.5,56.4-9.3c28.6-2.7,57.2,0.3,85.1,7.2c7.4,1.8,13.2,6.5,16.9,12.5c0.7-1.2,1.3-2.5,1.7-3.9
		c3.9-11.9-5-24.7-15.8-31c-10.8-6.3-23.6-8.4-35.1-13.5c-23.7-10.3-40.5-32.5-50-56.5c-9.5-24-8.2-59.5-11.2-85.2
		c-4.7-39.2-12.9-72.9,9.5-105.4c5.8-8.5,12.9-15.5,20.9-21.7c16-3.4,30.5-11.8,44.6-20.1c9.1-5.4,19.2-11.2,25.2-19.8
		c2.8-1.6,5.5-3.3,8.2-5.1c5.3-3.5,10.7-7.6,12.8-13.5S663.7,529.4,657.5,528.2z"/>
	<path class="st2" d="M606.1,334.9c0.2,14.5,10.4,28.3,24.2,32.6s30.1-1.2,38.5-13c1.4,22.8,18.1,43.9,40,50.5
		c-4.6,12.4-18.9,20.3-31.9,17.5c-12.9-2.8-22.8-15.9-21.8-29.1c-10.6,10-27.2,13-40.7,7.3s-22.8-19.9-22.8-34.4
		c0.1,18.6-101.7,26-94.5-8.6C502.8,330.5,585.9,348.6,606.1,334.9z"/>
	<path class="st2" d="M650.5,463.8c8.5,1.9,9.8,13.3,15.2,20.1c8.9,11.4,27.1,8.2,39.9,1.5c12.9-6.7,26.2-16,40.4-13.2
		c5.8,11.2,2.6,26.4-7.3,34.3c-9.9,7.9-25.3,7.8-35-0.3c0.2,11.9-11.8,21.6-23.7,21.5c-11.9-0.2-22.6-8.3-28.7-18.5
		s-8.3-22.2-9.5-34c-18.5,16.7-45.7,23.1-69.7,16.4c-8.7-2.5,8.5-41.5,22.3-40.4c6.1,0.5,12.4,17.8,20,20.1
		C629.6,475.9,637.5,460.8,650.5,463.8z"/>
	<path class="st2" d="M424.2,473.3c-5-6.9-14.9-12.7-21.8-7.5c-4.9,3.7-5.2,10.6-6.4,16.6c-4.1,19.7-23.5,34.7-43.7,32.5
		c-20-2.2-20.5-16.3-35.3-24.4c-14.9-8.1-34.6-9.3-52-7.8c5.6-6.2,6-16.3,2.7-24.2c-3.7-8.8-11-15.5-18-21.9
		c-13.5-12.2-30.5,38.2-53.6,43.1c-18.4-26.6-51.5,29-51.9,47c-1,46.5,40.1,6.1,70.5-19.2c12.7,4.4,24.4,11.9,35.9,18.8
		c15.3,9.2,32.1,18,50,17.2c17.9-0.8,36.3-14.6,35.7-32.5c5.4,28.8,40.6,47.7,67.5,36.1C430.8,535.6,441.4,497,424.2,473.3z"/>
	<g>
		<path d="M405.5,531.9c33.1,14,35.4,55.5,36.6,86.2c1.5,37.7,2.9,75.4,1.7,113.1c-0.7,21.5-2.3,43.1-5.1,64.5
			c-0.5,3.8,5.4,3.9,5.9,0.2c5.3-40.3,6.1-80.9,5.2-121.5c-0.4-20-1.2-39.9-2-59.8c-0.7-18-1.6-36.4-8.4-53.3
			c-6.1-15.2-16.9-28.4-32.2-34.9C403.7,524.8,402,530.4,405.5,531.9L405.5,531.9z"/>
	</g>
	<g>
		<path d="M439.6,826.6c-21,46.8-67,80.3-117.9,86.5c-3.8,0.5-2.3,6.2,1.4,5.7c53-6.4,100.3-41.9,122.1-90.5
			C446.8,824.9,441.1,823.2,439.6,826.6L439.6,826.6z"/>
	</g>
	<g>
		<path d="M551,621.9c-6.3,15.1-7.1,31.5-7,47.7c0.1,17.6,0.7,35.2,1.6,52.8c1.8,35.3,5.1,70.6,9.8,105.7c0.5,3.8,6.2,2.3,5.7-1.4
			c-4.6-34.6-7.8-69.3-9.6-104.1c-0.9-17-1.4-34-1.6-51.1c-0.2-16.3,0.4-32.7,6.7-48C558.1,620.1,552.4,618.4,551,621.9L551,621.9z"
			/>
	</g>
	<g>
		<path d="M547.4,783.1c12.9,30.6,30.3,59.1,51.6,84.6c2.4,2.9,6.7-1.2,4.3-4.1c-21-25.1-38-53.2-50.7-83.4
			C551.1,776.8,546,779.6,547.4,783.1L547.4,783.1z"/>
	</g>
	<g>
		<path d="M597,877.4c10-2.5,20.9-5.2,31.1-2.7c8.3,2.1,14.3,7.9,19.2,14.7c8.3,11.5,14.4,25.6,27.8,32.2c3.4,1.7,6.5-3.3,3.1-5
			c-14.9-7.3-20.1-24.7-30.7-36.4c-14-15.5-33.4-13.1-51.9-8.5C591.9,872.6,593.3,878.3,597,877.4L597,877.4z"/>
	</g>
	<g>
		<path d="M552.8,614.2c1.6-3.7-3-5.8-5.9-4.3c-3.8,1.9-2.5,6.6,1,8c4.9,2,12.6-1.2,17.4-2.4c6.8-1.8,13.6-3.9,20.2-6.4
			c25.5-9.7,49.1-24.3,69-43.1c11.2-10.6,21.2-22.4,29.8-35.2c2.1-3.2-2.9-6.3-5-3.1c-14.8,22.1-33.9,41.1-56.1,55.7
			c-10.8,7.1-22.2,13.2-34.1,18.1c-6.3,2.6-12.8,4.9-19.3,6.8c-2.9,0.8-5.8,1.6-8.8,2.4c-1.7,0.4-13.9,2.4-13.8,2
			C545.7,616,551.3,617.6,552.8,614.2L552.8,614.2z"/>
	</g>
	<g>
		<path d="M553.3,580.1c37.1-5.7,71-25.5,94.6-54.7c2.4-3-2.7-6-5-3.1c-22.6,28-55.5,46.6-91,52
			C548.2,574.9,549.6,580.6,553.3,580.1L553.3,580.1z"/>
	</g>
	<g>
		<path d="M558.5,468.2c-9.2,17.7,3.1,37.7,20.8,43.4c23.1,7.6,45.8-5.2,64.9-16.9c3.2-2,0.4-7.2-2.8-5.2
			c-16.1,9.8-33.9,20.6-53.6,18c-8.7-1.1-17.1-5.3-22.1-12.7c-4.6-6.9-6.1-15.9-2.2-23.5C565.3,467.9,560.3,464.8,558.5,468.2
			L558.5,468.2z"/>
	</g>
	<g>
		<path d="M638,480c-4.7,15.7,0.3,33.5,13.1,44c13,10.6,31.9,11.8,46.4,3.7c3.3-1.8,0.5-7-2.8-5.2c-12.6,7-29.2,6.1-40.4-3.5
			c-10.5-9.1-14.6-24.1-10.6-37.3C644.7,478.1,639,476.4,638,480L638,480z"/>
	</g>
	<g>
		<path d="M699.5,519.9c12.8,8.5,29.6,10,43.5,3.2c13.1-6.4,21.7-19.2,23.8-33.4c0.6-3.8-5.3-3.9-5.9-0.2
			c-4.1,27.3-35.6,40.4-58.3,25.3C699.4,512.7,696.3,517.8,699.5,519.9L699.5,519.9z"/>
	</g>
	<g>
		<path d="M441.9,483c-6.3,24.8-23.4,48.9-48.8,56.6c-22.8,6.9-50.4-1.2-62.5-22.5c-1.9-3.3-7-0.5-5.2,2.8
			c13.1,23.1,42.8,32.7,67.8,25.7c28-7.8,47.4-33.7,54.3-61C448.5,481,442.8,479.3,441.9,483L441.9,483z"/>
	</g>
	<g>
		<path d="M331.5,516.5c-8.6,19.1-29.7,30.5-50.4,28.2c-3.8-0.4-3.9,5.5-0.2,5.9c23.5,2.6,46.5-11,56.1-32.3
			C338.8,514.7,333.1,513,331.5,516.5L331.5,516.5z"/>
	</g>
	<g>
		<path d="M277.8,522.6c-13.7,7-28.8,10.3-44.2,9.7c-3.8-0.1-3.9,5.8-0.2,5.9c16.4,0.6,32.5-3,47.2-10.5
			C284,526,281.2,520.8,277.8,522.6L277.8,522.6z"/>
	</g>
	<g>
		<path d="M228.1,531.6c-15.8-1.2-28.7,8.6-42.2,15.3c-15.1,7.5-33.2,12.9-49.9,7.5c-13-4.2-26.1-15.7-26-30.4
			c0.1-13.3,12.5-27.4,26.5-24.5c0.6-1.9,1.1-3.8,1.7-5.6c-24.9-5.1-38.8-32.6-26.6-55.4c9.7-18.1,33.7-23.4,40.5-43.7
			c1.2-3.6-4.4-5.3-5.6-1.7c-3.8,11.3-14.5,17.8-23.5,24.8c-9.6,7.4-17.5,16-20.5,28.1c-5.9,24.2,9.6,48.7,34,53.6
			c3.7,0.8,5.4-4.9,1.7-5.6c-11.2-2.3-21.5,3-28.1,12.1c-7.1,9.8-7.8,22.3-2.2,33c13.6,26.1,46.6,27.1,70.8,17.6
			c15.9-6.2,31.4-20.3,49.2-19C231.7,537.8,231.9,531.8,228.1,531.6L228.1,531.6z"/>
	</g>
	<g>
		<path d="M143.7,369c-9.8-13.4-21-28.9-20.7-46.2c0.2-15.1,9.7-27.5,21.3-36.4c24.9-19.1,58.4-21.4,83.3-40.6
			c2-1.6,0.5-5.2-1.9-5.1c-10.2,0.3-22.2,0.2-30.8-6c-12.3-8.8-7.4-25-1-35.9c12.4-20.9,35.4-34.6,59.6-35.7
			c1.2-0.1,2.6-0.8,2.9-2.1c6.2-25.6,37.9-24.6,58.4-22.8c3.8,0.3,3.9-5.6,0.2-5.9c-14.1-1.2-28.9-2.4-42.3,3.2
			c-10.4,4.3-19.2,12.7-21.9,23.8c1-0.7,1.9-1.4,2.9-2.1c-28.1,1.3-55.2,18-67.6,43.6c-5.9,12.2-7.8,27.6,3.6,37.3
			c9.6,8.1,23.8,8.8,35.8,8.4c-0.6-1.7-1.3-3.4-1.9-5.1c-21.8,16.8-50.2,20.1-73.5,33.9c-20.4,12.1-37,32.4-31.9,57.5
			c3.1,15.1,12.4,28,21.4,40.2C141.7,376.1,145.9,372,143.7,369L143.7,369z"/>
	</g>
	<g>
		<path d="M340,170.4c-9.9-18.8-9.6-41.3-1.5-60.7c7.9-18.7,23.1-33.6,40.5-43.5c32.5-18.6,84.4-24.1,108.1,11.4
			c10.6,15.9,13.5,37.5,2.4,53.9c-2.1,3.2,2.9,6.2,5,3.1c10.6-15.7,9.9-35.8,2-52.4c-9-18.9-26.9-31.1-47.2-35
			c-42.5-8.2-92,14.7-112.7,52.9c-12.2,22.4-13.8,50.3-1.8,73.1C336.5,176.6,341.7,173.8,340,170.4L340,170.4z"/>
	</g>
	<g>
		<path d="M506.9,98.6c7.9-19,29.5-25.5,48.4-25.8c5-0.1,10.1,0.2,15.1,0.6c4.5,0.4,9.9,1,11.5,5.9c2.3,7.2-3.4,16-7.4,21.4
			c-1.1,1.5-0.1,3.9,1.7,4.4c6.4,1.8,12.1-0.1,18-2.7c6.4-2.8,12.6-5.3,19.5-6.6c13.5-2.5,27.9-0.8,40.5,4.6
			c25,10.8,41.1,37,40.9,64c0,3.8,5.9,4,5.9,0.2c0.2-27.2-14.6-53.8-38.7-66.8c-12.3-6.7-26.7-9.8-40.7-8.9c-7,0.4-14,1.8-20.6,4.2
			c-7.2,2.6-15.1,8.5-23.1,6.3c0.5,1.5,1.1,2.9,1.7,4.4c5.2-7,10.6-17,8.2-26c-3.1-11.4-17.5-10.7-26.8-11
			c-23.4-0.6-49.7,6.3-59.5,30C499.8,100.3,505.4,102,506.9,98.6L506.9,98.6z"/>
	</g>
	<g>
		<path d="M697,180.8c23.7-3.7,51.5-4.9,69.8,13.5c7.2,7.3,11.5,16.9,10.4,27.3c-1,9.9-6.6,18.8-15.9,22.8c-3.2,1.3-1,6.1,2.1,5.4
			c12.7-2.8,28.5-0.8,36.9,10.4c6.9,9.3,6.4,24.8-4,31.3c-3.2,2-0.4,7.2,2.8,5.2c12.6-7.9,14.9-25.7,7.2-38
			c-9.1-14.7-28.6-18.1-44.4-14.6c0.7,1.8,1.4,3.6,2.1,5.4c10.3-4.4,16.8-14.3,18.6-25.1c1.9-11.3-1.6-22.3-8.8-31.1
			c-19-23.2-51.4-22.5-78.4-18.3C691.8,175.7,693.2,181.4,697,180.8L697,180.8z"/>
	</g>
	<g>
		<path d="M803.5,312.1c19.2-22.3,51.7-13.4,71,3.8c9.4,8.4,17.2,19.5,19,32.3c1.6,11.9-2.5,24.3-12,31.9c-3,2.4,1.1,6.6,4.1,4.3
			c10.6-8.4,15.2-22.2,13.9-35.4c-1.4-14.5-10-27.5-20.7-37.1c-21.5-19.2-57.9-28.9-79.4-4C797,310.6,801.1,315,803.5,312.1
			L803.5,312.1z"/>
	</g>
	<g>
		<path d="M882.7,374.7c-3-0.6,2-6.2,2.8-6.9c2.5-2.1,5.5-3.6,8.7-4.6c6-1.8,12.6-1.7,18.5,0.4c14.5,5.1,19.2,20.4,17.7,34.5
			c-2.8,26.9-25.2,55-53.6,56.1c0.8,1.5,1.6,3,2.4,4.5c3.2-5.9,12.1-3.5,14.8,1.6c4.2,7.9-1.2,18-5.9,24.3
			c-9.4,12.7-23.8,20.8-39.3,23c-3.8,0.5-2.3,6.2,1.4,5.7c20.7-2.9,41.8-16.9,49.2-37.1c3.1-8.4,2.7-19.4-5.7-24.5
			c-6.4-3.9-15.8-3.3-19.5,3.8c-1,1.8,0,4.6,2.4,4.5c28.8-1,51.7-26.2,58.2-53c3.2-13.5,2.6-28.8-6.7-39.9
			c-8.1-9.7-22.2-13.1-34.2-10c-5.9,1.5-12.9,4.9-16.1,10.3c-2.5,4.2-3,11.6,3.1,12.9C884.6,381.1,886.4,375.4,882.7,374.7
			L882.7,374.7z"/>
	</g>
	<g>
		<path d="M793.3,492.6c-2.3,9.4,0.6,19.8,8.4,25.9c8.3,6.5,20.1,6.6,28.8,0.9c3.2-2.1,0.3-7.3-2.8-5.2c-14.3,9.4-33-2.9-28.8-19.9
			C799.8,490.6,794.2,488.9,793.3,492.6L793.3,492.6z"/>
	</g>
	<g>
		<path d="M487.4,351.9c1.2,20.7,19,35.6,38.3,40.1c25.6,5.9,51.3-6.4,73.8-17.2c3.4-1.7,0.6-6.8-2.8-5.2
			c-20.2,9.8-43.4,21.3-66.6,17.3c-17.4-3-35.6-15.9-36.7-34.8C493,348.3,487.1,348.1,487.4,351.9L487.4,351.9z"/>
	</g>
	<g>
		<path d="M593.2,362.7c-3,13,0.8,27.2,10.8,36.2c10,9,24.4,11.8,37,7.5c3.6-1.2,2.2-7-1.4-5.7c-23,7.8-46.3-12.1-40.8-36.2
			C599.7,360.7,594,359,593.2,362.7L593.2,362.7z"/>
	</g>
	<g>
		<path d="M645.2,383.6c-4.6,11.5-2,25.5,7.2,34c9.2,8.5,22.4,10.3,33.8,5.5c3.5-1.5,0.6-6.6-2.8-5.2c-9.2,3.9-20.7,1.9-27.7-5.4
			c-7-7.2-8.5-18-4.8-27.2C652.3,381.8,646.6,380.1,645.2,383.6L645.2,383.6z"/>
	</g>
	<g>
		<path d="M545.5,580.1c-4.8-53,15-107,51.9-145.2c10.5-10.9,22.2-20.4,35.1-28.2c3.2-2,0.4-7.2-2.8-5.2
			c-46.7,28.6-79.2,78.1-88.2,131.9c-2.6,15.4-3.2,31-1.8,46.6C539.9,583.7,545.8,583.9,545.5,580.1L545.5,580.1z"/>
	</g>
	<g>
		<path d="M521.2,397.6c-3.9,14-6.1,28.4-6.4,43c-0.1,3.8,5.8,4,5.9,0.2c0.3-14.1,2.4-27.9,6.1-41.4
			C527.8,395.7,522.2,393.9,521.2,397.6L521.2,397.6z"/>
	</g>
	<g>
		<path d="M526.5,442.5c18.5-21.8,40.1-40.9,64.1-56.5c3.2-2.1,0.3-7.2-2.8-5.2c-24.4,15.9-46.4,35.2-65.3,57.4
			C520,441.1,524.1,445.4,526.5,442.5L526.5,442.5z"/>
	</g>
	<g>
		<path d="M311.2,396.2c5.6,27.6,18.2,59.1,50.4,62c34.3,3.1,58.9-24.8,74.8-51.4c2-3.3-3.1-6.4-5-3.1
			c-14.6,24.5-36.5,50.7-68.1,48.8c-30.1-1.8-41.3-32.4-46.4-57.7C316.2,391,310.5,392.5,311.2,396.2L311.2,396.2z"/>
	</g>
	<g>
		<path d="M403.6,374.1c14.7,19.7,42.6,23.8,64.2,14.2c21.7-9.6,39.2-32,42.6-55.6c1.8-12.4-0.8-25.4-10.2-34.1
			c-2.8-2.6-7.1,1.5-4.3,4.1c21.3,19.7,2.9,54.4-14.4,69.8c-10.5,9.3-23.9,15.5-38.1,15.2c-13.9-0.3-27.2-6.2-35.6-17.5
			C405.6,367,401.3,371.1,403.6,374.1L403.6,374.1z"/>
	</g>
	<g>
		<path d="M411,438.1c9.7,2.7,21.5,19.7,32,8.4c4.2-4.6,5.3-12.5,6.8-18.3c2.2-8.3,3.9-16.8,5.3-25.3c0.6-3.7-5-5.5-5.6-1.7
			c-2,12.5-4.5,25.4-8.8,37.3c-2.9,7.9-9.7,5.8-15.1,1.8c-4.2-3.1-7.8-6.4-12.9-7.8C409.1,431.4,407.4,437.1,411,438.1L411,438.1z"
			/>
	</g>
	<g>
		<path d="M559.1,177.7c-2.1-9.2,1.3-19.2,8.9-24.9c0.7-0.5,1.9-1.6,2.8-1.7c1.9-0.2,2.5,1.3,3.1,3.2c0.8,2.4,0.8,5.2,0.7,7.7
			c-0.2,5.6-2.1,10.6-5.1,15.3c-2.1,3.2,2.9,6.3,5,3.1c4.5-6.8,6.7-14.8,5.9-22.9c-0.5-5.6-2.6-14.3-10.1-12.5
			c-6.2,1.5-11.5,7.9-14.3,13.3c-3.3,6.5-4.2,13.8-2.6,20.9C554.2,182.8,559.9,181.4,559.1,177.7L559.1,177.7z"/>
	</g>
	<g>
		<path d="M595.5,187.1c7.1-4.7,15.2-6.1,23.4-3.8c-0.7-1.2-1.3-2.5-2-3.7c-3.4,7.9-10,13.8-18.3,16.3c-3.6,1.1-2.2,6.8,1.4,5.7
			c10.4-3.1,18.3-10.4,22.5-20.3c0.6-1.4-0.5-3.3-2-3.7c-9.6-2.7-19.6-1.2-28,4.3C589.5,184,592.4,189.2,595.5,187.1L595.5,187.1z"
			/>
	</g>
	<g>
		<path d="M558.2,236.6c-2.5-4.1-5.7-12.2-1.1-16.1c2.2-1.8,9.3-1.3,8.5,2.7c-0.8,3.7,4.8,5.4,5.7,1.7c1.8-8.4-7.8-13.4-14.9-10.7
			c-10.4,4-7.8,17.9-3.3,25.2C555,242.6,560.2,239.8,558.2,236.6L558.2,236.6z"/>
	</g>
	<g>
		<path d="M737.2,358.8c4.8-15.2,24.2-23.1,38.2-15.4c-0.3-1.4-0.6-2.7-1-4.1c-3.8,8-9.2,14.8-16.3,19.9c-3,2.2-0.2,7.4,2.8,5.2
			c8-5.8,14.3-13.1,18.5-22c0.7-1.4,0.6-3.2-1-4.1c-17.3-9.6-41-0.3-47,18.6C730.4,360.7,736.1,362.4,737.2,358.8L737.2,358.8z"/>
	</g>
	<g>
		<path d="M706.6,328c-7.2-9.8,3.3-23.9,12.1-28.9c4.7-2.6,10.8-3.6,14.8,0.6c3.1,3.2,4.6,8.5,0.8,11.7c-2.9,2.5,1.2,6.7,4.1,4.3
			c5-4.3,5.1-11.3,1.9-16.8c-3.8-6.6-11-9.2-18.3-7.4c-14.4,3.5-30.8,25.2-20.5,39.4C703.6,333.9,708.8,331.1,706.6,328L706.6,328z"
			/>
	</g>
	<g>
		<path d="M729.8,414c-2.5,12.9,12.8,20.6,22.9,13.6c13.3-9.3,8.9-26.8,3.1-39c-1.6-3.4-6.8-0.6-5.2,2.8c3.9,8.1,7.7,18.1,2.8,26.7
			c-2,3.5-5.5,6.7-9.8,6.5c-4.4-0.2-9.1-4.2-8.2-8.9C736.2,412,730.5,410.2,729.8,414L729.8,414z"/>
	</g>
	<g>
		<path d="M365.7,346.5c3.9-9.7,9.9-18.5,17.6-25.6c3.2-2.9,8.7-8.6,13.2-9.1c4.4-0.5,5.6,4.8,4.9,8c-0.6,2.9-2.2,5.5-3.6,8
			c-1.9,3.3,3.1,6.4,5,3.1c3.4-5.9,6.9-13,3.1-19.7c-3.8-6.6-10.6-6.1-16.4-2.5c-13.5,8.5-23.6,21.3-29.5,36
			C358.6,348.4,364.3,350,365.7,346.5L365.7,346.5z"/>
	</g>
	<g>
		<path d="M359.9,289.1c-4.5-6.4-9.5-13.3-10.7-21.2c-1-6.6,1.9-14.6,8.6-17.1c7.6-2.9,13.2,4.9,13.8,11.7
			c0.7,8.3-4.8,15.9-9.4,22.2c-2.2,3.1,2.8,6.2,5,3.1c6.2-8.5,12.6-19,9.5-29.9c-2.2-7.9-9.1-14.8-17.8-13.5
			c-8.3,1.2-14.2,9.1-15.5,17c-1.9,11.3,5.1,21.8,11.4,30.5C356.9,295,362,292.2,359.9,289.1L359.9,289.1z"/>
	</g>
	<g>
		<path d="M332.3,321c-5-7.7-12.4-12.3-21.5-13.6c-1.2-0.2-2.7,0.9-2.9,2.1c-3.2,16.6,10,33.3,27.1,33.2c3.8,0,4-5.9,0.2-5.9
			c-13,0.1-24.2-12.7-21.6-25.6c-1,0.7-1.9,1.4-2.9,2.1c6.8,1,12.7,4.8,16.5,10.6C329.1,327,334.4,324.2,332.3,321L332.3,321z"/>
	</g>
	<g>
		<path d="M225.5,468.9c3.2-7.7,6.7-17.5,1.8-25.2c-3-4.7-9.4-7-14.8-5.8c-5.4,1.3-8.4,6.6-7,11.9c1.6,6.2,9.6,10.2,9.6,16.7
			c0,3.8,5.9,4,5.9,0.2c0-4.2-2-7.5-4.5-10.7c-2-2.5-7.6-7.7-4.7-11.2c2.6-3.1,8.8-0.6,10.6,2.1c3.9,5.9-0.1,14.6-2.5,20.3
			C218.4,470.7,224.1,472.4,225.5,468.9L225.5,468.9z"/>
	</g>
	<g>
		<path d="M191.5,482.4c-2.2-6.6-4.7-14-10.6-18.3c-4.7-3.4-11.5-4.7-16.7-1.6c-12.3,7.4-2.2,23.1,6.6,28.3c3.3,1.9,6.4-3.1,3.1-5
			c-4.9-2.9-15.5-15-5.6-18.7c9.9-3.7,15.1,9.8,17.4,16.7C186.9,487.4,192.7,486,191.5,482.4L191.5,482.4z"/>
	</g>
	<g>
		<path d="M171.9,512.2c-7.4,0.5-13.5,8.1-10.7,15.5c2.5,6.6,11.2,9.2,17.1,5.5c3.2-2,0.4-7.2-2.8-5.2c-2.7,1.7-6.8,1.2-8.5-1.8
			c-1.9-3.3,1.1-7.9,4.8-8.1C175.4,517.9,175.6,512,171.9,512.2L171.9,512.2z"/>
	</g>
	<g>
		<path d="M466,561c5.5,50.9,7.6,102.1,6.4,153.3c-0.1,3.8,5.8,4,5.9,0.2c1.2-51.2-0.9-102.4-6.4-153.3
			C471.5,557.5,465.6,557.3,466,561L466,561z"/>
	</g>
	<g>
		<path d="M502.1,635.8c-2.5,65.2-2.6,130.4-0.5,195.6c0.1,3.8,6,4,5.9,0.2c-2.1-65.2-2-130.4,0.5-195.6
			C508.2,632.2,502.3,632,502.1,635.8L502.1,635.8z"/>
	</g>
	<g>
		<path d="M506.4,815.4c4.5,12.4,9,24.7,13.5,37.1c1.3,3.5,7,2.2,5.7-1.4c-4.5-12.4-9-24.7-13.5-37.1
			C510.8,810.4,505.1,811.8,506.4,815.4L506.4,815.4z"/>
	</g>
	<g>
		<path d="M460.9,859.4c-1.9,1.8-3.9,3.7-5.8,5.5c-2.8,2.6,1.3,6.9,4.1,4.3c1.9-1.8,3.9-3.7,5.8-5.5
			C467.8,861,463.7,856.8,460.9,859.4L460.9,859.4z"/>
	</g>
	<g>
		<path d="M325.1,916.7c12.3,6.1,25.5,4.6,38.3,1c15.4-4.3,29.8-10.2,46-10.3c16.7-0.2,33.6,1.2,50.2,2.5
			c17.5,1.4,34.9,3.6,52.1,7.5c3.7,0.8,5.4-4.8,1.7-5.7c-32-7.4-65.6-9.5-98.4-10.3c-15.4-0.4-29.1,3-43.6,7.6
			c-13.8,4.4-29.4,9.5-43.2,2.6C324.8,910,321.7,915,325.1,916.7L325.1,916.7z"/>
	</g>
	<g>
		<path d="M455.9,870c-8.3,10.3-18.2,19.2-29.2,26.4c-3.1,2.1-0.3,7.3,2.8,5.2c12-7.9,22.4-17.4,31.4-28.5
			C463.3,870.2,458.3,867.1,455.9,870L455.9,870z"/>
	</g>
	<g>
		<path d="M454.7,871.8c-0.4,8.1-0.9,16.1-1.3,24.2c-0.2,3.8,5.7,4,5.9,0.2c0.4-8.1,0.9-16.1,1.3-24.2
			C460.8,868.2,454.9,868,454.7,871.8L454.7,871.8z"/>
	</g>
	<g>
		<path d="M544.6,907.5c0.7-5,1.7-11,5.2-14.9c4.3-4.8,10.1-2.7,14.5,0.7c4.1,3.2,7.6,7.1,11.9,10c4.5,3.1,9.7,4.7,15.1,5.3
			c11.7,1.3,23.2-2.2,34.9-1.7c9.5,0.5,21.1,3.7,24.2,13.9c1.1,3.6,6.8,2.2,5.7-1.4c-3.3-11.1-13.8-16.3-24.7-17.9
			c-14.1-2-28.2,3.5-42.2,0.8c-7.5-1.5-12.5-6.2-18.1-11c-4-3.5-8.5-7.1-14-7.5c-13-1-17.1,13.3-18.5,23.5
			C538.2,911.2,544,911.3,544.6,907.5L544.6,907.5z"/>
	</g>
</g>
</svg>
