<svg xmlns="http://www.w3.org/2000/svg" viewBox="0 0 1000 1000"><path d="M922 392.6c-.9-24.5-22.9-42.4-46.8-37.4 6-17.9-2.7-31.6-25.6-46.2-15.9-10.1-47.2-6.3-63.8 2.7 12.8-10.4 16.4-30.6 7.8-44.8-8.5-14.1-22.7-35.8-37.9-29.3 11.1-16.1 11.6-29.5-1.2-44.4s-42.9-14.5-60.5-6c14.4-30.7 2.3-71.4-26.6-89.2-27.9-17.2-67.8-10.9-89.4 13.6 7.8-11.9-5.4-31.1-20.8-32-16.6-.9-31 10.7-43.5 21.7-25.3-32.8-71.1-48.3-111.2-37.7-40.1 10.7-72.2 46.9-77.9 88-24.8-21.9-71.2-6.1-77.5 26.3-17.9-5.5-39.3 5-45.7 22.6s3 39.5 20.3 46.8c-23.3 10.1-47.3 20.5-65 38.7-17.7 18.2-27.9 46.1-18.2 69.5 4.8 11.6 14.3 21.8 14.5 34.4.3 12.9-9.2 23.8-18.6 32.7-9.4 8.9-19.7 18.3-22.1 31-2.4 12.7 9 28.2 21.3 24-8.7 8.5-4.7 24.3 4.9 31.8-7.7 2.6-15.3 6.9-17.7 14.5-2.8 8.8 3.2 18.7 11.6 22.7 8.3 4 18.2 3.5 27.2 1.5 17.7-3.8 34.1-12.8 47.1-25.3l55.5 5.4c21.6 2.1 48.3 1.8 59-17.1 5.9 30.6 48.9 41.3 75.8 25.3 17.6-10.5 29.1-27.7 37-47l-3.8 12.1c5.2-7.7 7.8-16 8.2-24.1 2.1-6.3 3.9-12.8 5.4-19.1l-5.3 16.9c0-18.7-12.2-35.7-33.5-39.2 14.4-15.4 25.5-35.1 39.6-51.1 9.7 7.6 23.2 10.3 35.1 6.7 13-4 23.5-15.4 26.3-28.7 1.8 16.8 24.6 22 41 17.6s32.7-13.8 49.2-9.8c5.9 1.5 11.2 4.6 16.3 8.2 1 1.7 2 3.4 2.9 5.2 4.4 8.9 6.5 18.9 6.3 28.9-3.1 7.7-7.8 14.7-14.1 20.2-6.6 5.9-14.7 10-21.1 16-6.2 5.8-11.1 14.2-9.5 22.5-.4.3-.7.6-1.1.9-5.7 5.2-8.9 14.6-4.1 20.6 5.9 7.5 17.7 4.1 26.3.2 5.5-2.5 10.2-4.7 14.6-6.8 1.9-.4 3.8-1 5.7-1.5 11.7-3.5 23.1-8.6 32.9-15.8-6.2 19.8-1.7 44.1 16.3 54.3 18.3 10.4 60 .6 73.8-15.3 7.5-8.7 12.2-20.6 22.7-25.3 22.5-10 34.7 30.3 58.8 35.4 14.4 3.1 31.5-18.8 43.5-27.2 26.6-18.7 22.6-33.7 10.8-42.5 24.4 3.1 45.7-31.7 44.8-56.1z" opacity=".7" fill="#4fab2b"/><path d="M657.5 528.2c-4.2-.8-8.3 1.6-11.9 3.9-23.8 15.2-47.7 30.5-71.5 45.7l-2.4 1.5c-6.2 2.2-12.9 4.5-19.2 6.4-2.1-.1-4.2-.7-6.2-1.7-9.5-5.1-10.1-18.3-8.8-29 7.2-56.6 34.6-110.5 76.3-149.5-12.2-3.3-23.1-11.2-30-21.8-22.4 20.1-44.8 40.2-67.2 60.2l3.4-63.8c-11.2 2.8-23.9-1.8-30.8-11.1-6.9 14.8-22.1 25.5-38.4 26.8 14.5 19.9-1.7 53.3-26.3 54.3 17.7 22.5 17.5 57.4-.6 79.7 35.3 71.6 29.8 155.7 23.6 235.3-.9 32.6-5.8 68.7-21.1 97.8-5.8 11.1-27 33.9-26 50.7 34.7-14.6 79.7-21.6 93.6-6 .4.4.7.8 1 1.2 18.6-4.2 37.3-7.5 56.4-9.3 28.6-2.7 57.2.3 85.1 7.2 7.4 1.8 13.2 6.5 16.9 12.5.7-1.2 1.3-2.5 1.7-3.9 3.9-11.9-5-24.7-15.8-31-10.8-6.3-23.6-8.4-35.1-13.5-23.7-10.3-40.5-32.5-50-56.5s-8.2-59.5-11.2-85.2c-4.7-39.2-12.9-72.9 9.5-105.4 5.8-8.5 12.9-15.5 20.9-21.7 16-3.4 30.5-11.8 44.6-20.1 9.1-5.4 19.2-11.2 25.2-19.8 2.8-1.6 5.5-3.3 8.2-5.1 5.3-3.5 10.7-7.6 12.8-13.5s-.5-14.1-6.7-15.3z" opacity=".7" fill="#b38752"/><path d="M606.1 334.9c.2 14.5 10.4 28.3 24.2 32.6s30.1-1.2 38.5-13c1.4 22.8 18.1 43.9 40 50.5-4.6 12.4-18.9 20.3-31.9 17.5-12.9-2.8-22.8-15.9-21.8-29.1-10.6 10-27.2 13-40.7 7.3s-22.8-19.9-22.8-34.4c.1 18.6-101.7 26-94.5-8.6 5.7-27.2 88.8-9.1 109-22.8zm44.4 128.9c8.5 1.9 9.8 13.3 15.2 20.1 8.9 11.4 27.1 8.2 39.9 1.5 12.9-6.7 26.2-16 40.4-13.2 5.8 11.2 2.6 26.4-7.3 34.3-9.9 7.9-25.3 7.8-35-.3.2 11.9-11.8 21.6-23.7 21.5-11.9-.2-22.6-8.3-28.7-18.5s-8.3-22.2-9.5-34c-18.5 16.7-45.7 23.1-69.7 16.4-8.7-2.5 8.5-41.5 22.3-40.4 6.1.5 12.4 17.8 20 20.1 15.2 4.6 23.1-10.5 36.1-7.5zm-226.3 9.5c-5-6.9-14.9-12.7-21.8-7.5-4.9 3.7-5.2 10.6-6.4 16.6-4.1 19.7-23.5 34.7-43.7 32.5-20-2.2-20.5-16.3-35.3-24.4-14.9-8.1-34.6-9.3-52-7.8 5.6-6.2 6-16.3 2.7-24.2-3.7-8.8-11-15.5-18-21.9-13.5-12.2-30.5 38.2-53.6 43.1-18.4-26.6-51.5 29-51.9 47-1 46.5 40.1 6.1 70.5-19.2 12.7 4.4 24.4 11.9 35.9 18.8 15.3 9.2 32.1 18 50 17.2 17.9-.8 36.3-14.6 35.7-32.5 5.4 28.8 40.6 47.7 67.5 36.1 27-11.5 37.6-50.1 20.4-73.8z" opacity=".7" fill="#307814"/><path d="M405.5 531.9c33.1 14 35.4 55.5 36.6 86.2 1.5 37.7 2.9 75.4 1.7 113.1-.7 21.5-2.3 43.1-5.1 64.5-.5 3.8 5.4 3.9 5.9.2 5.3-40.3 6.1-80.9 5.2-121.5-.4-20-1.2-39.9-2-59.8-.7-18-1.6-36.4-8.4-53.3-6.1-15.2-16.9-28.4-32.2-34.9-3.5-1.6-5.2 4-1.7 5.5zm34.1 294.7c-21 46.8-67 80.3-117.9 86.5-3.8.5-2.3 6.2 1.4 5.7 53-6.4 100.3-41.9 122.1-90.5 1.6-3.4-4.1-5.1-5.6-1.7zM551 621.9c-6.3 15.1-7.1 31.5-7 47.7.1 17.6.7 35.2 1.6 52.8 1.8 35.3 5.1 70.6 9.8 105.7.5 3.8 6.2 2.3 5.7-1.4-4.6-34.6-7.8-69.3-9.6-104.1-.9-17-1.4-34-1.6-51.1-.2-16.3.4-32.7 6.7-48 1.5-3.4-4.2-5.1-5.6-1.6z"/><path d="M547.4 783.1c12.9 30.6 30.3 59.1 51.6 84.6 2.4 2.9 6.7-1.2 4.3-4.1-21-25.1-38-53.2-50.7-83.4-1.5-3.4-6.6-.6-5.2 2.9zm49.6 94.3c10-2.5 20.9-5.2 31.1-2.7 8.3 2.1 14.3 7.9 19.2 14.7 8.3 11.5 14.4 25.6 27.8 32.2 3.4 1.7 6.5-3.3 3.1-5-14.9-7.3-20.1-24.7-30.7-36.4-14-15.5-33.4-13.1-51.9-8.5-3.7.9-2.3 6.6 1.4 5.7zm-44.2-263.2c1.6-3.7-3-5.8-5.9-4.3-3.8 1.9-2.5 6.6 1 8 4.9 2 12.6-1.2 17.4-2.4 6.8-1.8 13.6-3.9 20.2-6.4 25.5-9.7 49.1-24.3 69-43.1 11.2-10.6 21.2-22.4 29.8-35.2 2.1-3.2-2.9-6.3-5-3.1-14.8 22.1-33.9 41.1-56.1 55.7-10.8 7.1-22.2 13.2-34.1 18.1-6.3 2.6-12.8 4.9-19.3 6.8-2.9.8-5.8 1.6-8.8 2.4-1.7.4-13.9 2.4-13.8 2-1.5 3.3 4.1 4.9 5.6 1.5zm.5-34.1c37.1-5.7 71-25.5 94.6-54.7 2.4-3-2.7-6-5-3.1-22.6 28-55.5 46.6-91 52-3.7.6-2.3 6.3 1.4 5.8zm5.2-111.9c-9.2 17.7 3.1 37.7 20.8 43.4 23.1 7.6 45.8-5.2 64.9-16.9 3.2-2 .4-7.2-2.8-5.2-16.1 9.8-33.9 20.6-53.6 18-8.7-1.1-17.1-5.3-22.1-12.7-4.6-6.9-6.1-15.9-2.2-23.5 1.8-3.4-3.2-6.5-5-3.1z"/><path d="M638 480c-4.7 15.7.3 33.5 13.1 44 13 10.6 31.9 11.8 46.4 3.7 3.3-1.8.5-7-2.8-5.2-12.6 7-29.2 6.1-40.4-3.5-10.5-9.1-14.6-24.1-10.6-37.3 1-3.6-4.7-5.3-5.7-1.7zm61.5 39.9c12.8 8.5 29.6 10 43.5 3.2 13.1-6.4 21.7-19.2 23.8-33.4.6-3.8-5.3-3.9-5.9-.2-4.1 27.3-35.6 40.4-58.3 25.3-3.2-2.1-6.3 3-3.1 5.1zM441.9 483c-6.3 24.8-23.4 48.9-48.8 56.6-22.8 6.9-50.4-1.2-62.5-22.5-1.9-3.3-7-.5-5.2 2.8 13.1 23.1 42.8 32.7 67.8 25.7 28-7.8 47.4-33.7 54.3-61 1-3.6-4.7-5.3-5.6-1.6z"/><path d="M331.5 516.5c-8.6 19.1-29.7 30.5-50.4 28.2-3.8-.4-3.9 5.5-.2 5.9 23.5 2.6 46.5-11 56.1-32.3 1.8-3.6-3.9-5.3-5.5-1.8zm-53.7 6.1c-13.7 7-28.8 10.3-44.2 9.7-3.8-.1-3.9 5.8-.2 5.9 16.4.6 32.5-3 47.2-10.5 3.4-1.7.6-6.9-2.8-5.1z"/><path d="M228.1 531.6c-15.8-1.2-28.7 8.6-42.2 15.3-15.1 7.5-33.2 12.9-49.9 7.5-13-4.2-26.1-15.7-26-30.4.1-13.3 12.5-27.4 26.5-24.5.6-1.9 1.1-3.8 1.7-5.6-24.9-5.1-38.8-32.6-26.6-55.4 9.7-18.1 33.7-23.4 40.5-43.7 1.2-3.6-4.4-5.3-5.6-1.7-3.8 11.3-14.5 17.8-23.5 24.8-9.6 7.4-17.5 16-20.5 28.1-5.9 24.2 9.6 48.7 34 53.6 3.7.8 5.4-4.9 1.7-5.6-11.2-2.3-21.5 3-28.1 12.1-7.1 9.8-7.8 22.3-2.2 33 13.6 26.1 46.6 27.1 70.8 17.6 15.9-6.2 31.4-20.3 49.2-19 3.8.1 4-5.9.2-6.1zM143.7 369c-9.8-13.4-21-28.9-20.7-46.2.2-15.1 9.7-27.5 21.3-36.4 24.9-19.1 58.4-21.4 83.3-40.6 2-1.6.5-5.2-1.9-5.1-10.2.3-22.2.2-30.8-6-12.3-8.8-7.4-25-1-35.9 12.4-20.9 35.4-34.6 59.6-35.7 1.2-.1 2.6-.8 2.9-2.1 6.2-25.6 37.9-24.6 58.4-22.8 3.8.3 3.9-5.6.2-5.9-14.1-1.2-28.9-2.4-42.3 3.2-10.4 4.3-19.2 12.7-21.9 23.8 1-.7 1.9-1.4 2.9-2.1-28.1 1.3-55.2 18-67.6 43.6-5.9 12.2-7.8 27.6 3.6 37.3 9.6 8.1 23.8 8.8 35.8 8.4-.6-1.7-1.3-3.4-1.9-5.1-21.8 16.8-50.2 20.1-73.5 33.9-20.4 12.1-37 32.4-31.9 57.5 3.1 15.1 12.4 28 21.4 40.2 2.1 3.1 6.3-1 4.1-4zM340 170.4c-9.9-18.8-9.6-41.3-1.5-60.7 7.9-18.7 23.1-33.6 40.5-43.5 32.5-18.6 84.4-24.1 108.1 11.4 10.6 15.9 13.5 37.5 2.4 53.9-2.1 3.2 2.9 6.2 5 3.1 10.6-15.7 9.9-35.8 2-52.4-9-18.9-26.9-31.1-47.2-35-42.5-8.2-92 14.7-112.7 52.9-12.2 22.4-13.8 50.3-1.8 73.1 1.7 3.4 6.9.6 5.2-2.8z"/><path d="M506.9 98.6c7.9-19 29.5-25.5 48.4-25.8 5-.1 10.1.2 15.1.6 4.5.4 9.9 1 11.5 5.9 2.3 7.2-3.4 16-7.4 21.4-1.1 1.5-.1 3.9 1.7 4.4 6.4 1.8 12.1-.1 18-2.7 6.4-2.8 12.6-5.3 19.5-6.6 13.5-2.5 27.9-.8 40.5 4.6 25 10.8 41.1 37 40.9 64 0 3.8 5.9 4 5.9.2.2-27.2-14.6-53.8-38.7-66.8-12.3-6.7-26.7-9.8-40.7-8.9-7 .4-14 1.8-20.6 4.2-7.2 2.6-15.1 8.5-23.1 6.3.5 1.5 1.1 2.9 1.7 4.4 5.2-7 10.6-17 8.2-26-3.1-11.4-17.5-10.7-26.8-11-23.4-.6-49.7 6.3-59.5 30-1.7 3.5 3.9 5.2 5.4 1.8zM697 180.8c23.7-3.7 51.5-4.9 69.8 13.5 7.2 7.3 11.5 16.9 10.4 27.3-1 9.9-6.6 18.8-15.9 22.8-3.2 1.3-1 6.1 2.1 5.4 12.7-2.8 28.5-.8 36.9 10.4 6.9 9.3 6.4 24.8-4 31.3-3.2 2-.4 7.2 2.8 5.2 12.6-7.9 14.9-25.7 7.2-38-9.1-14.7-28.6-18.1-44.4-14.6l2.1 5.4c10.3-4.4 16.8-14.3 18.6-25.1 1.9-11.3-1.6-22.3-8.8-31.1-19-23.2-51.4-22.5-78.4-18.3-3.6.7-2.2 6.4 1.6 5.8zm106.5 131.3c19.2-22.3 51.7-13.4 71 3.8 9.4 8.4 17.2 19.5 19 32.3 1.6 11.9-2.5 24.3-12 31.9-3 2.4 1.1 6.6 4.1 4.3 10.6-8.4 15.2-22.2 13.9-35.4-1.4-14.5-10-27.5-20.7-37.1-21.5-19.2-57.9-28.9-79.4-4-2.4 2.7 1.7 7.1 4.1 4.2z"/><path d="M882.7 374.7c-3-.6 2-6.2 2.8-6.9 2.5-2.1 5.5-3.6 8.7-4.6 6-1.8 12.6-1.7 18.5.4 14.5 5.1 19.2 20.4 17.7 34.5-2.8 26.9-25.2 55-53.6 56.1l2.4 4.5c3.2-5.9 12.1-3.5 14.8 1.6 4.2 7.9-1.2 18-5.9 24.3-9.4 12.7-23.8 20.8-39.3 23-3.8.5-2.3 6.2 1.4 5.7 20.7-2.9 41.8-16.9 49.2-37.1 3.1-8.4 2.7-19.4-5.7-24.5-6.4-3.9-15.8-3.3-19.5 3.8-1 1.8 0 4.6 2.4 4.5 28.8-1 51.7-26.2 58.2-53 3.2-13.5 2.6-28.8-6.7-39.9-8.1-9.7-22.2-13.1-34.2-10-5.9 1.5-12.9 4.9-16.1 10.3-2.5 4.2-3 11.6 3.1 12.9 3.7.8 5.5-4.9 1.8-5.6zm-89.4 117.9c-2.3 9.4.6 19.8 8.4 25.9 8.3 6.5 20.1 6.6 28.8.9 3.2-2.1.3-7.3-2.8-5.2-14.3 9.4-33-2.9-28.8-19.9.9-3.7-4.7-5.4-5.6-1.7zM487.4 351.9c1.2 20.7 19 35.6 38.3 40.1 25.6 5.9 51.3-6.4 73.8-17.2 3.4-1.7.6-6.8-2.8-5.2-20.2 9.8-43.4 21.3-66.6 17.3-17.4-3-35.6-15.9-36.7-34.8-.4-3.8-6.3-4-6-.2z"/><path d="M593.2 362.7c-3 13 .8 27.2 10.8 36.2 10 9 24.4 11.8 37 7.5 3.6-1.2 2.2-7-1.4-5.7-23 7.8-46.3-12.1-40.8-36.2.9-3.8-4.8-5.5-5.6-1.8z"/><path d="M645.2 383.6c-4.6 11.5-2 25.5 7.2 34s22.4 10.3 33.8 5.5c3.5-1.5.6-6.6-2.8-5.2-9.2 3.9-20.7 1.9-27.7-5.4-7-7.2-8.5-18-4.8-27.2 1.4-3.5-4.3-5.2-5.7-1.7zm-99.7 196.5c-4.8-53 15-107 51.9-145.2 10.5-10.9 22.2-20.4 35.1-28.2 3.2-2 .4-7.2-2.8-5.2-46.7 28.6-79.2 78.1-88.2 131.9-2.6 15.4-3.2 31-1.8 46.6.2 3.7 6.1 3.9 5.8.1zm-24.3-182.5c-3.9 14-6.1 28.4-6.4 43-.1 3.8 5.8 4 5.9.2.3-14.1 2.4-27.9 6.1-41.4 1-3.7-4.6-5.5-5.6-1.8zm5.3 44.9c18.5-21.8 40.1-40.9 64.1-56.5 3.2-2.1.3-7.2-2.8-5.2-24.4 15.9-46.4 35.2-65.3 57.4-2.5 2.9 1.6 7.2 4 4.3zm-215.3-46.3c5.6 27.6 18.2 59.1 50.4 62 34.3 3.1 58.9-24.8 74.8-51.4 2-3.3-3.1-6.4-5-3.1-14.6 24.5-36.5 50.7-68.1 48.8-30.1-1.8-41.3-32.4-46.4-57.7-.7-3.8-6.4-2.3-5.7 1.4zm92.4-22.1c14.7 19.7 42.6 23.8 64.2 14.2 21.7-9.6 39.2-32 42.6-55.6 1.8-12.4-.8-25.4-10.2-34.1-2.8-2.6-7.1 1.5-4.3 4.1 21.3 19.7 2.9 54.4-14.4 69.8-10.5 9.3-23.9 15.5-38.1 15.2-13.9-.3-27.2-6.2-35.6-17.5-2.2-3.2-6.5.9-4.2 3.9z"/><path d="M411 438.1c9.7 2.7 21.5 19.7 32 8.4 4.2-4.6 5.3-12.5 6.8-18.3 2.2-8.3 3.9-16.8 5.3-25.3.6-3.7-5-5.5-5.6-1.7-2 12.5-4.5 25.4-8.8 37.3-2.9 7.9-9.7 5.8-15.1 1.8-4.2-3.1-7.8-6.4-12.9-7.8-3.6-1.1-5.3 4.6-1.7 5.6zm148.1-260.4c-2.1-9.2 1.3-19.2 8.9-24.9.7-.5 1.9-1.6 2.8-1.7 1.9-.2 2.5 1.3 3.1 3.2.8 2.4.8 5.2.7 7.7-.2 5.6-2.1 10.6-5.1 15.3-2.1 3.2 2.9 6.3 5 3.1 4.5-6.8 6.7-14.8 5.9-22.9-.5-5.6-2.6-14.3-10.1-12.5-6.2 1.5-11.5 7.9-14.3 13.3-3.3 6.5-4.2 13.8-2.6 20.9.8 3.6 6.5 2.2 5.7-1.5zm36.4 9.4c7.1-4.7 15.2-6.1 23.4-3.8-.7-1.2-1.3-2.5-2-3.7-3.4 7.9-10 13.8-18.3 16.3-3.6 1.1-2.2 6.8 1.4 5.7 10.4-3.1 18.3-10.4 22.5-20.3.6-1.4-.5-3.3-2-3.7-9.6-2.7-19.6-1.2-28 4.3-3 2.1-.1 7.3 3 5.2zm-37.3 49.5c-2.5-4.1-5.7-12.2-1.1-16.1 2.2-1.8 9.3-1.3 8.5 2.7-.8 3.7 4.8 5.4 5.7 1.7 1.8-8.4-7.8-13.4-14.9-10.7-10.4 4-7.8 17.9-3.3 25.2 1.9 3.2 7.1.4 5.1-2.8zm179 122.2c4.8-15.2 24.2-23.1 38.2-15.4-.3-1.4-.6-2.7-1-4.1-3.8 8-9.2 14.8-16.3 19.9-3 2.2-.2 7.4 2.8 5.2 8-5.8 14.3-13.1 18.5-22 .7-1.4.6-3.2-1-4.1-17.3-9.6-41-.3-47 18.6-1 3.8 4.7 5.5 5.8 1.9zM706.6 328c-7.2-9.8 3.3-23.9 12.1-28.9 4.7-2.6 10.8-3.6 14.8.6 3.1 3.2 4.6 8.5.8 11.7-2.9 2.5 1.2 6.7 4.1 4.3 5-4.3 5.1-11.3 1.9-16.8-3.8-6.6-11-9.2-18.3-7.4-14.4 3.5-30.8 25.2-20.5 39.4 2.1 3 7.3.2 5.1-2.9zm23.2 86c-2.5 12.9 12.8 20.6 22.9 13.6 13.3-9.3 8.9-26.8 3.1-39-1.6-3.4-6.8-.6-5.2 2.8 3.9 8.1 7.7 18.1 2.8 26.7-2 3.5-5.5 6.7-9.8 6.5-4.4-.2-9.1-4.2-8.2-8.9.8-3.7-4.9-5.5-5.6-1.7zm-364.1-67.5c3.9-9.7 9.9-18.5 17.6-25.6 3.2-2.9 8.7-8.6 13.2-9.1 4.4-.5 5.6 4.8 4.9 8-.6 2.9-2.2 5.5-3.6 8-1.9 3.3 3.1 6.4 5 3.1 3.4-5.9 6.9-13 3.1-19.7-3.8-6.6-10.6-6.1-16.4-2.5-13.5 8.5-23.6 21.3-29.5 36-1.4 3.7 4.3 5.3 5.7 1.8zm-5.8-57.4c-4.5-6.4-9.5-13.3-10.7-21.2-1-6.6 1.9-14.6 8.6-17.1 7.6-2.9 13.2 4.9 13.8 11.7.7 8.3-4.8 15.9-9.4 22.2-2.2 3.1 2.8 6.2 5 3.1 6.2-8.5 12.6-19 9.5-29.9-2.2-7.9-9.1-14.8-17.8-13.5-8.3 1.2-14.2 9.1-15.5 17-1.9 11.3 5.1 21.8 11.4 30.5 2.1 3.1 7.2.3 5.1-2.8zM332.3 321c-5-7.7-12.4-12.3-21.5-13.6-1.2-.2-2.7.9-2.9 2.1-3.2 16.6 10 33.3 27.1 33.2 3.8 0 4-5.9.2-5.9-13 .1-24.2-12.7-21.6-25.6-1 .7-1.9 1.4-2.9 2.1 6.8 1 12.7 4.8 16.5 10.6 1.9 3.1 7.2.3 5.1-2.9zM225.5 468.9c3.2-7.7 6.7-17.5 1.8-25.2-3-4.7-9.4-7-14.8-5.8-5.4 1.3-8.4 6.6-7 11.9 1.6 6.2 9.6 10.2 9.6 16.7 0 3.8 5.9 4 5.9.2 0-4.2-2-7.5-4.5-10.7-2-2.5-7.6-7.7-4.7-11.2 2.6-3.1 8.8-.6 10.6 2.1 3.9 5.9-.1 14.6-2.5 20.3-1.5 3.5 4.2 5.2 5.6 1.7zm-34 13.5c-2.2-6.6-4.7-14-10.6-18.3-4.7-3.4-11.5-4.7-16.7-1.6-12.3 7.4-2.2 23.1 6.6 28.3 3.3 1.9 6.4-3.1 3.1-5-4.9-2.9-15.5-15-5.6-18.7 9.9-3.7 15.1 9.8 17.4 16.7 1.2 3.6 7 2.2 5.8-1.4zm-19.6 29.8c-7.4.5-13.5 8.1-10.7 15.5 2.5 6.6 11.2 9.2 17.1 5.5 3.2-2 .4-7.2-2.8-5.2-2.7 1.7-6.8 1.2-8.5-1.8-1.9-3.3 1.1-7.9 4.8-8.1 3.6-.2 3.8-6.1.1-5.9zM466 561c5.5 50.9 7.6 102.1 6.4 153.3-.1 3.8 5.8 4 5.9.2 1.2-51.2-.9-102.4-6.4-153.3-.4-3.7-6.3-3.9-5.9-.2zm36.1 74.8c-2.5 65.2-2.6 130.4-.5 195.6.1 3.8 6 4 5.9.2-2.1-65.2-2-130.4.5-195.6.2-3.8-5.7-4-5.9-.2z"/><path d="M506.4 815.4c4.5 12.4 9 24.7 13.5 37.1 1.3 3.5 7 2.2 5.7-1.4-4.5-12.4-9-24.7-13.5-37.1-1.3-3.6-7-2.2-5.7 1.4zm-45.5 44c-1.9 1.8-3.9 3.7-5.8 5.5-2.8 2.6 1.3 6.9 4.1 4.3 1.9-1.8 3.9-3.7 5.8-5.5 2.8-2.7-1.3-6.9-4.1-4.3zm-135.8 57.3c12.3 6.1 25.5 4.6 38.3 1 15.4-4.3 29.8-10.2 46-10.3 16.7-.2 33.6 1.2 50.2 2.5 17.5 1.4 34.9 3.6 52.1 7.5 3.7.8 5.4-4.8 1.7-5.7-32-7.4-65.6-9.5-98.4-10.3-15.4-.4-29.1 3-43.6 7.6-13.8 4.4-29.4 9.5-43.2 2.6-3.4-1.6-6.5 3.4-3.1 5.1z"/><path d="M455.9 870c-8.3 10.3-18.2 19.2-29.2 26.4-3.1 2.1-.3 7.3 2.8 5.2 12-7.9 22.4-17.4 31.4-28.5 2.4-2.9-2.6-6-5-3.1z"/><path d="M454.7 871.8c-.4 8.1-.9 16.1-1.3 24.2-.2 3.8 5.7 4 5.9.2.4-8.1.9-16.1 1.3-24.2.2-3.8-5.7-4-5.9-.2zm89.9 35.7c.7-5 1.7-11 5.2-14.9 4.3-4.8 10.1-2.7 14.5.7 4.1 3.2 7.6 7.1 11.9 10 4.5 3.1 9.7 4.7 15.1 5.3 11.7 1.3 23.2-2.2 34.9-1.7 9.5.5 21.1 3.7 24.2 13.9 1.1 3.6 6.8 2.2 5.7-1.4-3.3-11.1-13.8-16.3-24.7-17.9-14.1-2-28.2 3.5-42.2.8-7.5-1.5-12.5-6.2-18.1-11-4-3.5-8.5-7.1-14-7.5-13-1-17.1 13.3-18.5 23.5-.4 3.9 5.4 4 6 .2z"/></svg>